  0
SECTION
  2
HEADER
  9
$ACADVER
  1
AC1009
  9
$INSBASE
 10
0.0
 20
0.0
 30
0.0
  9
$EXTMIN
 10
20.5682850998973414
 20
14.08036758467067
 30
0.0
  9
$EXTMAX
 10
376.8070350998971207
 20
146.4569299497646
 30
0.0
  9
$LIMMIN
 10
0.0
 20
0.0
  9
$LIMMAX
 10
12.0
 20
9.0
  9
$ORTHOMODE
 70
     0
  9
$REGENMODE
 70
     1
  9
$FILLMODE
 70
     1
  9
$QTEXTMODE
 70
     0
  9
$MIRRTEXT
 70
     0
  9
$DRAGMODE
 70
     2
  9
$LTSCALE
 40
1.0
  9
$OSMODE
 70
  2047
  9
$ATTMODE
 70
     1
  9
$TEXTSIZE
 40
0.2
  9
$TRACEWID
 40
0.05
  9
$TEXTSTYLE
  7
STANDARD
  9
$CLAYER
  8
0
  9
$CELTYPE
  6
BYLAYER
  9
$CECOLOR
 62
   256
  9
$DIMSCALE
 40
1.0
  9
$DIMASZ
 40
0.18
  9
$DIMEXO
 40
0.0625
  9
$DIMDLI
 40
0.38
  9
$DIMRND
 40
0.0
  9
$DIMDLE
 40
0.0
  9
$DIMEXE
 40
0.18
  9
$DIMTP
 40
0.0
  9
$DIMTM
 40
0.0
  9
$DIMTXT
 40
0.18
  9
$DIMCEN
 40
0.09
  9
$DIMTSZ
 40
0.0
  9
$DIMTOL
 70
     0
  9
$DIMLIM
 70
     0
  9
$DIMTIH
 70
     1
  9
$DIMTOH
 70
     1
  9
$DIMSE1
 70
     0
  9
$DIMSE2
 70
     0
  9
$DIMTAD
 70
     0
  9
$DIMZIN
 70
     0
  9
$DIMBLK
  1

  9
$DIMASO
 70
     1
  9
$DIMSHO
 70
     1
  9
$DIMPOST
  1

  9
$DIMAPOST
  1

  9
$DIMALT
 70
     0
  9
$DIMALTD
 70
     2
  9
$DIMALTF
 40
25.3999999999999986
  9
$DIMLFAC
 40
1.0
  9
$DIMTOFL
 70
     0
  9
$DIMTVP
 40
0.0
  9
$DIMTIX
 70
     0
  9
$DIMSOXD
 70
     0
  9
$DIMSAH
 70
     0
  9
$DIMBLK1
  1

  9
$DIMBLK2
  1

  9
$DIMSTYLE
  2
STANDARD
  9
$DIMCLRD
 70
     0
  9
$DIMCLRE
 70
     0
  9
$DIMCLRT
 70
     0
  9
$DIMTFAC
 40
1.0
  9
$DIMGAP
 40
0.09
  9
$LUNITS
 70
     2
  9
$LUPREC
 70
     4
  9
$SKETCHINC
 40
0.1
  9
$FILLETRAD
 40
0.0
  9
$AUNITS
 70
     0
  9
$AUPREC
 70
     0
  9
$MENU
  1
.
  9
$ELEVATION
 40
0.0
  9
$PELEVATION
 40
0.0
  9
$THICKNESS
 40
0.0
  9
$LIMCHECK
 70
     0
  9
$BLIPMODE
 70
     0
  9
$CHAMFERA
 40
0.0
  9
$CHAMFERB
 40
0.0
  9
$SKPOLY
 70
     0
  9
$TDCREATE
 40
2459420.4196875002235174
  9
$TDUPDATE
 40
2459420.4201157409697771
  9
$TDINDWG
 40
0.0004282407
  9
$TDUSRTIMER
 40
0.0004282407
  9
$USRTIMER
 70
     1
  9
$ANGBASE
 50
0.0
  9
$ANGDIR
 70
     0
  9
$PDMODE
 70
     0
  9
$PDSIZE
 40
0.0
  9
$PLINEWID
 40
0.0
  9
$COORDS
 70
     1
  9
$SPLFRAME
 70
     0
  9
$SPLINETYPE
 70
     6
  9
$SPLINESEGS
 70
     8
  9
$ATTDIA
 70
     1
  9
$ATTREQ
 70
     1
  9
$HANDLING
 70
     1
  9
$HANDSEED
  5
3BE
  9
$SURFTAB1
 70
     6
  9
$SURFTAB2
 70
     6
  9
$SURFTYPE
 70
     6
  9
$SURFU
 70
     6
  9
$SURFV
 70
     6
  9
$UCSNAME
  2

  9
$UCSORG
 10
0.0
 20
0.0
 30
0.0
  9
$UCSXDIR
 10
1.0
 20
0.0
 30
0.0
  9
$UCSYDIR
 10
0.0
 20
1.0
 30
0.0
  9
$PUCSNAME
  2

  9
$PUCSORG
 10
0.0
 20
0.0
 30
0.0
  9
$PUCSXDIR
 10
1.0
 20
0.0
 30
0.0
  9
$PUCSYDIR
 10
0.0
 20
1.0
 30
0.0
  9
$USERI1
 70
     0
  9
$USERI2
 70
     0
  9
$USERI3
 70
     0
  9
$USERI4
 70
     0
  9
$USERI5
 70
     0
  9
$USERR1
 40
0.0
  9
$USERR2
 40
0.0
  9
$USERR3
 40
0.0
  9
$USERR4
 40
0.0
  9
$USERR5
 40
0.0
  9
$WORLDVIEW
 70
     1
  9
$SHADEDGE
 70
     3
  9
$SHADEDIF
 70
    70
  9
$TILEMODE
 70
     1
  9
$MAXACTVP
 70
    64
  9
$PLIMCHECK
 70
     0
  9
$PEXTMIN
 10
0.0
 20
0.0
 30
0.0
  9
$PEXTMAX
 10
0.0
 20
0.0
 30
0.0
  9
$PLIMMIN
 10
0.0
 20
0.0
  9
$PLIMMAX
 10
12.0
 20
9.0
  9
$UNITMODE
 70
     0
  9
$VISRETAIN
 70
     1
  9
$PLINEGEN
 70
     0
  9
$PSLTSCALE
 70
     1
  0
ENDSEC
  0
SECTION
  2
TABLES
  0
TABLE
  2
VPORT
 70
     1
  0
VPORT
  2
*ACTIVE
 70
     0
 10
0.0
 20
0.0
 11
1.0
 21
1.0
 12
236.3040410738981052
 22
1.4540243122117431
 13
0.0
 23
0.0
 14
0.5
 24
0.5
 15
0.5
 25
0.5
 16
0.0
 26
0.0
 36
1.0
 17
0.0
 27
0.0
 37
0.0
 40
477.9623791571203242
 41
1.832426550598476
 42
50.0
 43
0.0
 44
0.0
 50
0.0
 51
0.0
 71
     0
 72
  1000
 73
     1
 74
     3
 75
     0
 76
     1
 77
     0
 78
     0
  0
ENDTAB
  0
TABLE
  2
LTYPE
 70
     1
  0
LTYPE
  2
CONTINUOUS
 70
     0
  3
Solid line
 72
    65
 73
     0
 40
0.0
  0
ENDTAB
  0
TABLE
  2
LAYER
 70
     1
  0
LAYER
  2
0
 70
     0
 62
     7
  6
CONTINUOUS
  0
ENDTAB
  0
TABLE
  2
STYLE
 70
     2
  0
STYLE
  2
STANDARD
 70
     0
 40
0.0
 41
1.0
 50
0.0
 71
     0
 42
0.2
  3
txt
  4

  0
STYLE
  2
ANNOTATIVE
 70
     0
 40
0.0
 41
1.0
 50
0.0
 71
     0
 42
0.2
  3
txt
  4

  0
ENDTAB
  0
TABLE
  2
VIEW
 70
     0
  0
ENDTAB
  0
TABLE
  2
UCS
 70
     0
  0
ENDTAB
  0
TABLE
  2
APPID
 70
     7
  0
APPID
  2
ACAD
 70
     0
  0
APPID
  2
ACADANNOPO
 70
     0
  0
APPID
  2
ACADANNOTATIVE
 70
     0
  0
APPID
  2
ACAD_DSTYLE_DIMJAG
 70
     0
  0
APPID
  2
ACAD_DSTYLE_DIMTALN
 70
     0
  0
APPID
  2
ACAD_MLEADERVER
 70
     0
  0
APPID
  2
ACAD_NAV_VCDISPLAY
 70
     0
  0
ENDTAB
  0
TABLE
  2
DIMSTYLE
 70
     3
  0
DIMSTYLE
  2
STANDARD
 70
     0
  3

  4

  5

  6

  7

 40
1.0
 41
0.18
 42
0.0625
 43
0.38
 44
0.18
 45
0.0
 46
0.0
 47
0.0
 48
0.0
140
0.18
141
0.09
142
0.0
143
25.3999999999999986
144
1.0
145
0.0
146
1.0
147
0.09
 71
     0
 72
     0
 73
     1
 74
     1
 75
     0
 76
     0
 77
     0
 78
     0
170
     0
171
     2
172
     0
173
     0
174
     0
175
     0
176
     0
177
     0
178
     0
  0
DIMSTYLE
  2
ANNOTATIVE
 70
     0
  3

  4

  5

  6

  7

 40
0.0
 41
0.18
 42
0.0625
 43
0.38
 44
0.18
 45
0.0
 46
0.0
 47
0.0
 48
0.0
140
0.18
141
0.09
142
0.0
143
25.3999999999999986
144
1.0
145
0.0
146
1.0
147
0.09
 71
     0
 72
     0
 73
     1
 74
     1
 75
     0
 76
     0
 77
     0
 78
     0
170
     0
171
     2
172
     0
173
     0
174
     0
175
     0
176
     0
177
     0
178
     0
  0
DIMSTYLE
  2
ISO-25
 70
     0
  3

  4

  5

  6

  7

 40
1.0
 41
2.5
 42
0.625
 43
3.75
 44
1.25
 45
0.0
 46
0.0
 47
0.0
 48
0.0
140
2.5
141
2.5
142
0.0
143
0.03937007874016
144
1.0
145
0.0
146
1.0
147
0.625
 71
     0
 72
     0
 73
     0
 74
     0
 75
     0
 76
     0
 77
     1
 78
     8
170
     0
171
     3
172
     1
173
     0
174
     0
175
     0
176
     0
177
     0
178
     0
  0
ENDTAB
  0
ENDSEC
  0
SECTION
  2
BLOCKS
  0
BLOCK
  8
0
  2
$MODEL_SPACE
 70
     0
 10
0.0
 20
0.0
 30
0.0
  3
$MODEL_SPACE
  1

  0
ENDBLK
  5
21
  8
0
  0
BLOCK
 67
     1
  8
0
  2
$PAPER_SPACE
 70
     0
 10
0.0
 20
0.0
 30
0.0
  3
$PAPER_SPACE
  1

  0
ENDBLK
  5
5B
 67
     1
  8
0
  0
ENDSEC
  0
SECTION
  2
ENTITIES
  0
POLYLINE
  5
238
  8
0
  6
CONTINUOUS
 62
     1
 66
     1
 10
0.0
 20
0.0
 30
0.0
 70
     1
  0
VERTEX
  5
32C
  8
0
  6
CONTINUOUS
 62
     1
 10
194.8372383930590956
 20
120.1542636624494946
 30
0.0
  0
VERTEX
  5
32D
  8
0
  6
CONTINUOUS
 62
     1
 10
118.0382850998977062
 20
136.4783851143004085
 30
0.0
  0
VERTEX
  5
32E
  8
0
  6
CONTINUOUS
 62
     1
 10
118.0382850998977062
 20
136.4869299497646011
 30
0.0
 42
0.4142135623730951
  0
VERTEX
  5
32F
  8
0
  6
CONTINUOUS
 62
     1
 10
116.5382850998976068
 20
137.9869299497646011
 30
0.0
  0
VERTEX
  5
330
  8
0
  6
CONTINUOUS
 62
     1
 10
99.4782850998977892
 20
137.9869299497646011
 30
0.0
 42
0.4142135623730951
  0
VERTEX
  5
331
  8
0
  6
CONTINUOUS
 62
     1
 10
97.9782850998976755
 20
136.4869299497646011
 30
0.0
  0
VERTEX
  5
332
  8
0
  6
CONTINUOUS
 62
     1
 10
97.9782850998976755
 20
135.8469299497645864
 30
0.0
  0
VERTEX
  5
333
  8
0
  6
CONTINUOUS
 62
     1
 10
61.7882850998976494
 20
135.8469299497645864
 30
0.0
 42
0.4142135623730951
  0
VERTEX
  5
334
  8
0
  6
CONTINUOUS
 62
     1
 10
60.288285099897557
 20
134.3469299497645864
 30
0.0
  0
VERTEX
  5
335
  8
0
  6
CONTINUOUS
 62
     1
 10
60.288285099897557
 20
116.7969299497649018
 30
0.0
  0
VERTEX
  5
336
  8
0
  6
CONTINUOUS
 62
     1
 10
57.6282850998975604
 20
116.7969299497650013
 30
0.0
 42
0.4142135623730951
  0
VERTEX
  5
337
  8
0
  6
CONTINUOUS
 62
     1
 10
56.1282850998978518
 20
115.2969299497649018
 30
0.0
  0
VERTEX
  5
338
  8
0
  6
CONTINUOUS
 62
     1
 10
56.1282850998978518
 20
97.7469299497650468
 30
0.0
  0
VERTEX
  5
339
  8
0
  6
CONTINUOUS
 62
     1
 10
53.5582850998978017
 20
97.7469299497650468
 30
0.0
 42
0.4142135623730951
  0
VERTEX
  5
33A
  8
0
  6
CONTINUOUS
 62
     1
 10
52.0582850998976809
 20
96.2469299497648336
 30
0.0
  0
VERTEX
  5
33B
  8
0
  6
CONTINUOUS
 62
     1
 10
52.0582850998976809
 20
78.6969299497648649
 30
0.0
  0
VERTEX
  5
33C
  8
0
  6
CONTINUOUS
 62
     1
 10
49.3882850998976082
 20
78.6969299497648649
 30
0.0
 42
0.4142135623730951
  0
VERTEX
  5
33D
  8
0
  6
CONTINUOUS
 62
     1
 10
47.8882850998976224
 20
77.1969299497650923
 30
0.0
  0
VERTEX
  5
33E
  8
0
  6
CONTINUOUS
 62
     1
 10
47.8882850998976224
 20
41.0869299497647305
 30
0.0
 42
0.4142135623730951
  0
VERTEX
  5
33F
  8
0
  6
CONTINUOUS
 62
     1
 10
49.3882850998976082
 20
39.5869299497646168
 30
0.0
  0
VERTEX
  5
340
  8
0
  6
CONTINUOUS
 62
     1
 10
75.9882850998976664
 20
39.5869299497646168
 30
0.0
 42
0.4142135623730951
  0
VERTEX
  5
341
  8
0
  6
CONTINUOUS
 62
     1
 10
77.4882850998975812
 20
41.0869299497647305
 30
0.0
  0
VERTEX
  5
342
  8
0
  6
CONTINUOUS
 62
     1
 10
77.4882850998975812
 20
56.6369299497650331
 30
0.0
 42
-0.4142135623730951
  0
VERTEX
  5
343
  8
0
  6
CONTINUOUS
 62
     1
 10
79.4882850998975812
 20
58.6369299497650331
 30
0.0
  0
VERTEX
  5
344
  8
0
  6
CONTINUOUS
 62
     1
 10
101.3267249792124005
 20
58.6369299497650331
 30
0.0
 42
-0.4769755326981583
  0
VERTEX
  5
345
  8
0
  6
CONTINUOUS
 62
     1
 10
103.2830201806800972
 20
56.2211065681296418
 30
0.0
  0
VERTEX
  5
346
  8
0
  6
CONTINUOUS
 62
     1
 10
100.2279953623690005
 20
41.8483448227004189
 30
0.0
 42
0.4142135623730729
  0
VERTEX
  5
347
  8
0
  6
CONTINUOUS
 62
     1
 10
101.3833492272430021
 20
40.0692558853728968
 30
0.0
  0
VERTEX
  5
348
  8
0
  6
CONTINUOUS
 62
     1
 10
127.3825124547476975
 20
34.5429631434367934
 30
0.0
 42
0.4142135623730696
  0
VERTEX
  5
349
  8
0
  6
CONTINUOUS
 62
     1
 10
129.1616013920751129
 20
35.6983170083105321
 30
0.0
  0
VERTEX
  5
34A
  8
0
  6
CONTINUOUS
 62
     1
 10
129.1622803766036895
 20
35.7015113793670977
 30
0.0
  0
VERTEX
  5
34B
  8
0
  6
CONTINUOUS
 62
     1
 10
188.5765298752550052
 20
23.0726227917294189
 30
0.0
 42
0.4142135623730824
  0
VERTEX
  5
34C
  8
0
  6
CONTINUOUS
 62
     1
 10
190.3556188125824065
 20
24.2279766566036194
 30
0.0
  0
VERTEX
  5
34D
  8
0
  6
CONTINUOUS
 62
     1
 10
193.9025922579332928
 20
40.9151747251225331
 30
0.0
 42
0.4142135623731042
  0
VERTEX
  5
34E
  8
0
  6
CONTINUOUS
 62
     1
 10
192.7472383930592059
 20
42.6942636624498206
 30
0.0
  0
VERTEX
  5
34F
  8
0
  6
CONTINUOUS
 62
     1
 10
185.1133615939839956
 20
44.3168942670740122
 30
0.0
  0
VERTEX
  5
350
  8
0
  6
CONTINUOUS
 62
     1
 10
188.7625922579331075
 20
61.4851747251221283
 30
0.0
 42
0.414213562373074
  0
VERTEX
  5
351
  8
0
  6
CONTINUOUS
 62
     1
 10
187.6072383930591059
 20
63.2642636624495296
 30
0.0
  0
VERTEX
  5
352
  8
0
  6
CONTINUOUS
 62
     1
 10
179.7643045880699049
 20
64.9313307054432585
 30
0.0
  0
VERTEX
  5
353
  8
0
  6
CONTINUOUS
 62
     1
 10
183.4125922579333974
 20
82.0951747251224901
 30
0.0
 42
0.4142135623731042
  0
VERTEX
  5
354
  8
0
  6
CONTINUOUS
 62
     1
 10
182.2572383930593105
 20
83.8742636624494367
 30
0.0
  0
VERTEX
  5
355
  8
0
  6
CONTINUOUS
 62
     1
 10
179.064632415411495
 20
84.5528730118255112
 30
0.0
  0
VERTEX
  5
356
  8
0
  6
CONTINUOUS
 62
     1
 10
182.8159256744303036
 20
102.201320227689294
 30
0.0
  0
VERTEX
  5
357
  8
0
  6
CONTINUOUS
 62
     1
 10
190.6665298752552076
 20
100.5326227917291959
 30
0.0
 42
0.4142135623731252
  0
VERTEX
  5
358
  8
0
  6
CONTINUOUS
 62
     1
 10
192.4456188125822109
 20
101.6879766566031975
 30
0.0
  0
VERTEX
  5
359
  8
0
  6
CONTINUOUS
 62
     1
 10
195.9925922579334951
 20
118.375174725122406
 30
0.0
 42
0.4142135623731252
  0
SEQEND
  5
35A
  8
0
  6
CONTINUOUS
 62
     1
  0
POLYLINE
  5
239
  8
0
  6
CONTINUOUS
 62
     1
 66
     1
 10
0.0
 20
0.0
 30
0.0
 70
     1
  0
VERTEX
  5
35B
  8
0
  6
CONTINUOUS
 62
     1
 10
53.1682850998975809
 20
100.3769299497649996
 30
0.0
  0
VERTEX
  5
35C
  8
0
  6
CONTINUOUS
 62
     1
 10
53.1682850998975809
 20
117.9269299497648973
 30
0.0
  0
VERTEX
  5
35D
  8
0
  6
CONTINUOUS
 62
     1
 10
55.8282850998978688
 20
117.9269299497648973
 30
0.0
 42
0.4142135623730951
  0
VERTEX
  5
35E
  8
0
  6
CONTINUOUS
 62
     1
 10
57.3282850998978617
 20
119.4269299497645989
 30
0.0
  0
VERTEX
  5
35F
  8
0
  6
CONTINUOUS
 62
     1
 10
57.3282850998975491
 20
136.4869299497646011
 30
0.0
 42
0.4142135623730951
  0
VERTEX
  5
360
  8
0
  6
CONTINUOUS
 62
     1
 10
55.8282850998978688
 20
137.9869299497646011
 30
0.0
  0
VERTEX
  5
361
  8
0
  6
CONTINUOUS
 62
     1
 10
38.7682850998976107
 20
137.9869299497646011
 30
0.0
 42
0.4142135623730951
  0
VERTEX
  5
362
  8
0
  6
CONTINUOUS
 62
     1
 10
37.2682850998976107
 20
136.4869299497646011
 30
0.0
  0
VERTEX
  5
363
  8
0
  6
CONTINUOUS
 62
     1
 10
37.2682850998976107
 20
118.9369299497650019
 30
0.0
  0
VERTEX
  5
364
  8
0
  6
CONTINUOUS
 62
     1
 10
34.6082850998976284
 20
118.9369299497650019
 30
0.0
 42
0.4142135623730951
  0
VERTEX
  5
365
  8
0
  6
CONTINUOUS
 62
     1
 10
33.1082850998975289
 20
117.4369299497651014
 30
0.0
  0
VERTEX
  5
366
  8
0
  6
CONTINUOUS
 62
     1
 10
33.1082850998975289
 20
99.8869299497650331
 30
0.0
  0
VERTEX
  5
367
  8
0
  6
CONTINUOUS
 62
     1
 10
30.5382850998977098
 20
99.8869299497650331
 30
0.0
 42
0.4142135623730951
  0
VERTEX
  5
368
  8
0
  6
CONTINUOUS
 62
     1
 10
29.0382850998977098
 20
98.3869299497648058
 30
0.0
  0
VERTEX
  5
369
  8
0
  6
CONTINUOUS
 62
     1
 10
29.0382850998977098
 20
81.3269299497650735
 30
0.0
 42
0.4142135623730951
  0
VERTEX
  5
36A
  8
0
  6
CONTINUOUS
 62
     1
 10
30.5382850998977098
 20
79.8269299497648603
 30
0.0
  0
VERTEX
  5
36B
  8
0
  6
CONTINUOUS
 62
     1
 10
47.5982850998976517
 20
79.8269299497648603
 30
0.0
 42
0.4142135623730951
  0
VERTEX
  5
36C
  8
0
  6
CONTINUOUS
 62
     1
 10
49.0982850998975167
 20
81.3269299497650735
 30
0.0
  0
VERTEX
  5
36D
  8
0
  6
CONTINUOUS
 62
     1
 10
49.0982850998975167
 20
98.8769299497650422
 30
0.0
  0
VERTEX
  5
36E
  8
0
  6
CONTINUOUS
 62
     1
 10
51.6682850998978012
 20
98.8769299497650422
 30
0.0
 42
0.4142135623730951
  0
SEQEND
  5
36F
  8
0
  6
CONTINUOUS
 62
     1
  0
POLYLINE
  5
23A
  8
0
  6
CONTINUOUS
 62
     1
 66
     1
 10
0.0
 20
0.0
 30
0.0
 70
     1
  0
VERTEX
  5
370
  8
0
  6
CONTINUOUS
 62
     1
 10
286.2632209725517214
 20
40.0692558853728968
 30
0.0
 42
0.4142135623731081
  0
VERTEX
  5
371
  8
0
  6
CONTINUOUS
 62
     1
 10
287.4185748374260925
 20
41.8483448227004189
 30
0.0
  0
VERTEX
  5
372
  8
0
  6
CONTINUOUS
 62
     1
 10
284.3635500191152801
 20
56.2211065681294073
 30
0.0
 42
-0.4769755326981607
  0
VERTEX
  5
373
  8
0
  6
CONTINUOUS
 62
     1
 10
286.3198452205828062
 20
58.6369299497650331
 30
0.0
  0
VERTEX
  5
374
  8
0
  6
CONTINUOUS
 62
     1
 10
333.0638850998979024
 20
58.6369299497650331
 30
0.0
 42
-0.4142135623730951
  0
VERTEX
  5
375
  8
0
  6
CONTINUOUS
 62
     1
 10
335.0638850998979024
 20
56.6369299497650331
 30
0.0
  0
VERTEX
  5
376
  8
0
  6
CONTINUOUS
 62
     1
 10
335.0638850998979024
 20
41.0389299497650697
 30
0.0
 42
0.4142135623730951
  0
VERTEX
  5
377
  8
0
  6
CONTINUOUS
 62
     1
 10
336.5638850998979024
 20
39.5389299497647286
 30
0.0
  0
VERTEX
  5
378
  8
0
  6
CONTINUOUS
 62
     1
 10
363.1638850998982093
 20
39.5389299497647286
 30
0.0
 42
0.4142135623730951
  0
VERTEX
  5
379
  8
0
  6
CONTINUOUS
 62
     1
 10
364.6638850998971861
 20
41.0389299497650697
 30
0.0
  0
VERTEX
  5
37A
  8
0
  6
CONTINUOUS
 62
     1
 10
364.6638850998971861
 20
58.6369299497650331
 30
0.0
  0
VERTEX
  5
37B
  8
0
  6
CONTINUOUS
 62
     1
 10
366.8370350998972071
 20
58.6369299497650331
 30
0.0
 42
0.4142135623730951
  0
VERTEX
  5
37C
  8
0
  6
CONTINUOUS
 62
     1
 10
368.3370350998973777
 20
60.1369299497650189
 30
0.0
  0
VERTEX
  5
37D
  8
0
  6
CONTINUOUS
 62
     1
 10
368.3370350998977187
 20
77.1969299497650923
 30
0.0
 42
0.4142135623730951
  0
VERTEX
  5
37E
  8
0
  6
CONTINUOUS
 62
     1
 10
366.8370350998972071
 20
78.6969299497648649
 30
0.0
  0
VERTEX
  5
37F
  8
0
  6
CONTINUOUS
 62
     1
 10
364.1582850998976255
 20
78.6969299497648649
 30
0.0
  0
VERTEX
  5
380
  8
0
  6
CONTINUOUS
 62
     1
 10
364.1582850998976255
 20
96.2469299497648336
 30
0.0
 42
0.4142135623730951
  0
VERTEX
  5
381
  8
0
  6
CONTINUOUS
 62
     1
 10
362.6582850998976255
 20
97.7469299497650468
 30
0.0
  0
VERTEX
  5
382
  8
0
  6
CONTINUOUS
 62
     1
 10
359.8982850998975209
 20
97.7469299497650468
 30
0.0
  0
VERTEX
  5
383
  8
0
  6
CONTINUOUS
 62
     1
 10
359.8982850998975209
 20
115.2969299497649018
 30
0.0
 42
0.4142135623730951
  0
VERTEX
  5
384
  8
0
  6
CONTINUOUS
 62
     1
 10
358.3982850998975209
 20
116.7969299497650013
 30
0.0
  0
VERTEX
  5
385
  8
0
  6
CONTINUOUS
 62
     1
 10
355.7282850998976755
 20
116.7969299497649018
 30
0.0
  0
VERTEX
  5
386
  8
0
  6
CONTINUOUS
 62
     1
 10
355.7282850998976755
 20
134.3469299497645864
 30
0.0
 42
0.4142135623730951
  0
VERTEX
  5
387
  8
0
  6
CONTINUOUS
 62
     1
 10
354.2282850998979029
 20
135.8469299497645864
 30
0.0
  0
VERTEX
  5
388
  8
0
  6
CONTINUOUS
 62
     1
 10
298.9982850998972026
 20
135.8469299497645864
 30
0.0
  0
VERTEX
  5
389
  8
0
  6
CONTINUOUS
 62
     1
 10
298.9982850998972026
 20
136.4869299497646011
 30
0.0
 42
0.4142135623730951
  0
VERTEX
  5
38A
  8
0
  6
CONTINUOUS
 62
     1
 10
297.4982850998976005
 20
137.9869299497646011
 30
0.0
  0
VERTEX
  5
38B
  8
0
  6
CONTINUOUS
 62
     1
 10
278.9683135668834097
 20
137.9869299497646011
 30
0.0
 42
0.0100084863468056
  0
VERTEX
  5
38C
  8
0
  6
CONTINUOUS
 62
     1
 10
278.9082806916554773
 20
137.9857281529565114
 30
0.0
  0
VERTEX
  5
38D
  8
0
  6
CONTINUOUS
 62
     1
 10
276.3201880746876213
 20
137.8820646705597994
 30
0.0
 42
0.0423770652101923
  0
VERTEX
  5
38E
  8
0
  6
CONTINUOUS
 62
     1
 10
276.0683534136890103
 20
137.8504878684686048
 30
0.0
  0
VERTEX
  5
38F
  8
0
  6
CONTINUOUS
 62
     1
 10
202.1293318067361895
 20
122.1342636624494986
 30
0.0
 42
0.4142135623731125
  0
VERTEX
  5
390
  8
0
  6
CONTINUOUS
 62
     1
 10
200.9739779418621026
 20
120.3551747251219979
 30
0.0
  0
VERTEX
  5
391
  8
0
  6
CONTINUOUS
 62
     1
 10
204.6242992949410962
 20
103.1817629781552057
 30
0.0
  0
VERTEX
  5
392
  8
0
  6
CONTINUOUS
 62
     1
 10
196.7793318067361099
 20
101.5142636624494941
 30
0.0
 42
0.4142135623730784
  0
VERTEX
  5
393
  8
0
  6
CONTINUOUS
 62
     1
 10
195.6239779418619946
 20
99.7351747251224907
 30
0.0
  0
VERTEX
  5
394
  8
0
  6
CONTINUOUS
 62
     1
 10
199.1709513872131936
 20
83.0479766566033391
 30
0.0
 42
0.4142135623730779
  0
VERTEX
  5
395
  8
0
  6
CONTINUOUS
 62
     1
 10
200.9500403245403959
 20
81.8926227917295932
 30
0.0
  0
VERTEX
  5
396
  8
0
  6
CONTINUOUS
 62
     1
 10
204.1427826539508033
 20
82.5712611235672398
 30
0.0
  0
VERTEX
  5
397
  8
0
  6
CONTINUOUS
 62
     1
 10
207.8922221380327926
 20
64.9315352330873452
 30
0.0
  0
VERTEX
  5
398
  8
0
  6
CONTINUOUS
 62
     1
 10
200.0397206057550932
 20
63.2624345068781366
 30
0.0
 42
0.4142135623731292
  0
VERTEX
  5
399
  8
0
  6
CONTINUOUS
 62
     1
 10
198.8843667408812053
 20
61.4833455695505222
 30
0.0
  0
VERTEX
  5
39A
  8
0
  6
CONTINUOUS
 62
     1
 10
206.3935624298705989
 20
26.1553574331643901
 30
0.0
 42
0.4142135623730916
  0
VERTEX
  5
39B
  8
0
  6
CONTINUOUS
 62
     1
 10
208.1726513671981991
 20
25.0000035682912092
 30
0.0
  0
VERTEX
  5
39C
  8
0
  6
CONTINUOUS
 62
     1
 10
258.4858026656731909
 20
35.6943940150784371
 30
0.0
 42
0.4134306528507031
  0
VERTEX
  5
39D
  8
0
  6
CONTINUOUS
 62
     1
 10
260.2640525004732126
 20
34.5429620286682209
 30
0.0
  0
SEQEND
  5
39E
  8
0
  6
CONTINUOUS
 62
     1
  0
POLYLINE
  5
23B
  8
0
  6
CONTINUOUS
 62
     1
 66
     1
 10
0.0
 20
0.0
 30
0.0
 70
     1
  0
VERTEX
  5
39F
  8
0
  6
CONTINUOUS
 62
     1
 10
26.5682850998973414
 20
146.4569299497646
 30
0.0
 42
0.4142135623730951
  0
VERTEX
  5
3A0
  8
0
  6
CONTINUOUS
 62
     1
 10
20.5682850998973414
 20
140.4569299497646
 30
0.0
  0
VERTEX
  5
3A1
  8
0
  6
CONTINUOUS
 62
     1
 10
20.5682850998973414
 20
135.9569299497646
 30
0.0
  0
VERTEX
  5
3A2
  8
0
  6
CONTINUOUS
 62
     1
 10
20.5682850998973414
 20
41.6169299497651508
 30
0.0
  0
VERTEX
  5
3A3
  8
0
  6
CONTINUOUS
 62
     1
 10
20.5682850998973414
 20
37.1169299497651579
 30
0.0
 42
0.4142135623730951
  0
VERTEX
  5
3A4
  8
0
  6
CONTINUOUS
 62
     1
 10
26.5682850998973414
 20
31.1169299497650407
 30
0.0
  0
VERTEX
  5
3A5
  8
0
  6
CONTINUOUS
 62
     1
 10
31.0682850998973485
 20
31.1169299497650407
 30
0.0
  0
VERTEX
  5
3A6
  8
0
  6
CONTINUOUS
 62
     1
 10
102.7622814737839008
 20
31.1169299497650407
 30
0.0
  0
VERTEX
  5
3A7
  8
0
  6
CONTINUOUS
 62
     1
 10
182.9130057386163912
 20
14.08036758467067
 30
0.0
  0
VERTEX
  5
3A8
  8
0
  6
CONTINUOUS
 62
     1
 10
198.4382850998958077
 20
14.08036758467067
 30
0.0
  0
VERTEX
  5
3A9
  8
0
  6
CONTINUOUS
 62
     1
 10
213.9635644611755936
 20
14.08036758467067
 30
0.0
  0
VERTEX
  5
3AA
  8
0
  6
CONTINUOUS
 62
     1
 10
294.1142887260078851
 20
31.1169299497650407
 30
0.0
  0
VERTEX
  5
3AB
  8
0
  6
CONTINUOUS
 62
     1
 10
366.3070350998971207
 20
31.1169299497650407
 30
0.0
  0
VERTEX
  5
3AC
  8
0
  6
CONTINUOUS
 62
     1
 10
370.8070350998971207
 20
31.1169299497650407
 30
0.0
 42
0.4142135623730982
  0
VERTEX
  5
3AD
  8
0
  6
CONTINUOUS
 62
     1
 10
376.8070350998971207
 20
37.1169299497651579
 30
0.0
  0
VERTEX
  5
3AE
  8
0
  6
CONTINUOUS
 62
     1
 10
376.8070350998971207
 20
41.6169299497651508
 30
0.0
  0
VERTEX
  5
3AF
  8
0
  6
CONTINUOUS
 62
     1
 10
376.8070350998971207
 20
140.4569299497646
 30
0.0
 42
0.4142135623730959
  0
VERTEX
  5
3B0
  8
0
  6
CONTINUOUS
 62
     1
 10
370.8070350998971207
 20
146.4569299497646
 30
0.0
  0
VERTEX
  5
3B1
  8
0
  6
CONTINUOUS
 62
     1
 10
203.7882850998990989
 20
146.4569299497646
 30
0.0
  0
VERTEX
  5
3B2
  8
0
  6
CONTINUOUS
 62
     1
 10
193.0882850998939091
 20
146.4569299497646
 30
0.0
  0
VERTEX
  5
3B3
  8
0
  6
CONTINUOUS
 62
     1
 10
31.0682850998973485
 20
146.4569299497646
 30
0.0
  0
SEQEND
  5
3B4
  8
0
  6
CONTINUOUS
 62
     1
  0
POLYLINE
  5
23C
  8
0
 62
     1
 66
     1
 10
0.0
 20
0.0
 30
0.0
 70
     1
  0
VERTEX
  5
3B5
  8
0
 62
     1
 10
322.3461318675845177
 20
45.5114521263364367
 30
0.0
 42
0.4142135623730951
  0
VERTEX
  5
3B6
  8
0
 62
     1
 10
323.3461318675845177
 20
46.5114521263364367
 30
0.0
  0
VERTEX
  5
3B7
  8
0
 62
     1
 10
323.3461318675845177
 20
53.9677169663474885
 30
0.0
 42
0.4142135623730951
  0
VERTEX
  5
3B8
  8
0
 62
     1
 10
322.3461318675845177
 20
54.9677169663471474
 30
0.0
  0
VERTEX
  5
3B9
  8
0
 62
     1
 10
298.3461318740842216
 20
54.9677169663471474
 30
0.0
 42
0.4142135623730951
  0
VERTEX
  5
3BA
  8
0
 62
     1
 10
297.3461318740842216
 20
53.9677169663474885
 30
0.0
  0
VERTEX
  5
3BB
  8
0
 62
     1
 10
297.3461318740842216
 20
46.5114521263364367
 30
0.0
 42
0.4142135623730951
  0
VERTEX
  5
3BC
  8
0
 62
     1
 10
298.3461318740842216
 20
45.5114521263364367
 30
0.0
  0
SEQEND
  5
3BD
  8
0
 62
     1
  0
CIRCLE
  5
23D
  8
0
  6
CONTINUOUS
 62
     1
 10
31.7873994616639699
 20
42.3332513354840074
 30
0.0
 40
0.8
  0
CIRCLE
  5
23E
  8
0
  6
CONTINUOUS
 62
     1
 10
31.7895376861627597
 20
46.8342635385325181
 30
0.0
 40
0.8
  0
CIRCLE
  5
23F
  8
0
  6
CONTINUOUS
 62
     1
 10
31.7895382371561617
 20
51.333156238257331
 30
0.0
 40
0.8
  0
CIRCLE
  5
240
  8
0
  6
CONTINUOUS
 62
     1
 10
371.2086855293463259
 20
36.7152795203152706
 30
0.0
 40
0.95
  0
CIRCLE
  5
241
  8
0
  6
CONTINUOUS
 62
     1
 10
371.2086855293463259
 20
140.8585803792136062
 30
0.0
 40
0.95
  0
CIRCLE
  5
242
  8
0
  6
CONTINUOUS
 62
     1
 10
26.1666346704473796
 20
140.8585803792136062
 30
0.0
 40
0.95
  0
CIRCLE
  5
243
  8
0
  6
CONTINUOUS
 62
     1
 10
26.1666346704473796
 20
36.7152795203152706
 30
0.0
 40
0.95
  0
CIRCLE
  5
244
  8
0
  6
CONTINUOUS
 62
     1
 10
141.1666346704471948
 20
141.9569299497646
 30
0.0
 40
0.95
  0
CIRCLE
  5
245
  8
0
  6
CONTINUOUS
 62
     1
 10
256.2086855293463827
 20
141.9569299497646
 30
0.0
 40
0.95
  0
CIRCLE
  5
246
  8
0
  6
CONTINUOUS
 62
     1
 10
143.7732462148798902
 20
27.0003129705195803
 30
0.0
 40
0.95
  0
CIRCLE
  5
247
  8
0
  6
CONTINUOUS
 62
     1
 10
253.1033239849116967
 20
27.0003129705195803
 30
0.0
 40
0.95
  0
ENDSEC
  0
EOF
