  0
SECTION
  2
HEADER
  9
$ACADVER
  1
AC1009
  9
$INSBASE
 10
0.0
 20
0.0
 30
0.0
  9
$EXTMIN
 10
4.5377243651315373
 20
-103.3375037312785025
 30
0.0
  9
$EXTMAX
 10
389.6545509540652006
 20
304.0667857538564931
 30
0.0
  9
$LIMMIN
 10
0.0
 20
0.0
  9
$LIMMAX
 10
12.0
 20
9.0
  9
$ORTHOMODE
 70
     0
  9
$REGENMODE
 70
     1
  9
$FILLMODE
 70
     1
  9
$QTEXTMODE
 70
     0
  9
$MIRRTEXT
 70
     0
  9
$DRAGMODE
 70
     2
  9
$LTSCALE
 40
1.0
  9
$OSMODE
 70
  2047
  9
$ATTMODE
 70
     1
  9
$TEXTSIZE
 40
0.2
  9
$TRACEWID
 40
0.05
  9
$TEXTSTYLE
  7
STANDARD
  9
$CLAYER
  8
0
  9
$CELTYPE
  6
BYLAYER
  9
$CECOLOR
 62
   256
  9
$DIMSCALE
 40
1.0
  9
$DIMASZ
 40
0.18
  9
$DIMEXO
 40
0.0625
  9
$DIMDLI
 40
0.38
  9
$DIMRND
 40
0.0
  9
$DIMDLE
 40
0.0
  9
$DIMEXE
 40
0.18
  9
$DIMTP
 40
0.0
  9
$DIMTM
 40
0.0
  9
$DIMTXT
 40
0.18
  9
$DIMCEN
 40
0.09
  9
$DIMTSZ
 40
0.0
  9
$DIMTOL
 70
     0
  9
$DIMLIM
 70
     0
  9
$DIMTIH
 70
     1
  9
$DIMTOH
 70
     1
  9
$DIMSE1
 70
     0
  9
$DIMSE2
 70
     0
  9
$DIMTAD
 70
     0
  9
$DIMZIN
 70
     0
  9
$DIMBLK
  1

  9
$DIMASO
 70
     1
  9
$DIMSHO
 70
     1
  9
$DIMPOST
  1

  9
$DIMAPOST
  1

  9
$DIMALT
 70
     0
  9
$DIMALTD
 70
     2
  9
$DIMALTF
 40
25.3999999999999986
  9
$DIMLFAC
 40
1.0
  9
$DIMTOFL
 70
     0
  9
$DIMTVP
 40
0.0
  9
$DIMTIX
 70
     0
  9
$DIMSOXD
 70
     0
  9
$DIMSAH
 70
     0
  9
$DIMBLK1
  1

  9
$DIMBLK2
  1

  9
$DIMSTYLE
  2
STANDARD
  9
$DIMCLRD
 70
     0
  9
$DIMCLRE
 70
     0
  9
$DIMCLRT
 70
     0
  9
$DIMTFAC
 40
1.0
  9
$DIMGAP
 40
0.09
  9
$LUNITS
 70
     2
  9
$LUPREC
 70
     4
  9
$SKETCHINC
 40
0.1
  9
$FILLETRAD
 40
0.0
  9
$AUNITS
 70
     0
  9
$AUPREC
 70
     0
  9
$MENU
  1
.
  9
$ELEVATION
 40
0.0
  9
$PELEVATION
 40
0.0
  9
$THICKNESS
 40
0.0
  9
$LIMCHECK
 70
     0
  9
$BLIPMODE
 70
     0
  9
$CHAMFERA
 40
0.0
  9
$CHAMFERB
 40
0.0
  9
$SKPOLY
 70
     0
  9
$TDCREATE
 40
2459426.716145833954215
  9
$TDUPDATE
 40
2459426.741655093152076
  9
$TDINDWG
 40
0.0237847222
  9
$TDUSRTIMER
 40
0.0237847222
  9
$USRTIMER
 70
     1
  9
$ANGBASE
 50
0.0
  9
$ANGDIR
 70
     0
  9
$PDMODE
 70
     0
  9
$PDSIZE
 40
0.0
  9
$PLINEWID
 40
0.0
  9
$COORDS
 70
     1
  9
$SPLFRAME
 70
     0
  9
$SPLINETYPE
 70
     6
  9
$SPLINESEGS
 70
     8
  9
$ATTDIA
 70
     1
  9
$ATTREQ
 70
     1
  9
$HANDLING
 70
     1
  9
$HANDSEED
  5
1D57
  9
$SURFTAB1
 70
     6
  9
$SURFTAB2
 70
     6
  9
$SURFTYPE
 70
     6
  9
$SURFU
 70
     6
  9
$SURFV
 70
     6
  9
$UCSNAME
  2

  9
$UCSORG
 10
0.0
 20
0.0
 30
0.0
  9
$UCSXDIR
 10
1.0
 20
0.0
 30
0.0
  9
$UCSYDIR
 10
0.0
 20
1.0
 30
0.0
  9
$PUCSNAME
  2

  9
$PUCSORG
 10
0.0
 20
0.0
 30
0.0
  9
$PUCSXDIR
 10
1.0
 20
0.0
 30
0.0
  9
$PUCSYDIR
 10
0.0
 20
1.0
 30
0.0
  9
$USERI1
 70
     0
  9
$USERI2
 70
     0
  9
$USERI3
 70
     0
  9
$USERI4
 70
     0
  9
$USERI5
 70
     0
  9
$USERR1
 40
0.0
  9
$USERR2
 40
0.0
  9
$USERR3
 40
0.0
  9
$USERR4
 40
0.0
  9
$USERR5
 40
0.0
  9
$WORLDVIEW
 70
     1
  9
$SHADEDGE
 70
     3
  9
$SHADEDIF
 70
    70
  9
$TILEMODE
 70
     1
  9
$MAXACTVP
 70
    64
  9
$PLIMCHECK
 70
     0
  9
$PEXTMIN
 10
0.0
 20
0.0
 30
0.0
  9
$PEXTMAX
 10
0.0
 20
0.0
 30
0.0
  9
$PLIMMIN
 10
0.0
 20
0.0
  9
$PLIMMAX
 10
12.0
 20
9.0
  9
$UNITMODE
 70
     0
  9
$VISRETAIN
 70
     1
  9
$PLINEGEN
 70
     0
  9
$PSLTSCALE
 70
     1
  0
ENDSEC
  0
SECTION
  2
TABLES
  0
TABLE
  2
VPORT
 70
     1
  0
VPORT
  2
*ACTIVE
 70
     0
 10
0.0
 20
0.0
 11
1.0
 21
1.0
 12
230.4477041446401984
 22
85.0208570168431237
 13
0.0
 23
0.0
 14
0.5
 24
0.5
 15
0.5
 25
0.5
 16
0.0
 26
0.0
 36
1.0
 17
0.0
 27
0.0
 37
0.0
 40
514.5952816124799938
 41
1.832426550598476
 42
50.0
 43
0.0
 44
0.0
 50
0.0
 51
0.0
 71
     0
 72
  1000
 73
     1
 74
     3
 75
     0
 76
     1
 77
     0
 78
     0
  0
ENDTAB
  0
TABLE
  2
LTYPE
 70
     2
  0
LTYPE
  2
CONTINUOUS
 70
     0
  3
Solid line
 72
    65
 73
     0
 40
0.0
  0
ENDTAB
  0
TABLE
  2
LAYER
 70
     2
  0
LAYER
  2
0
 70
     0
 62
     7
  6
CONTINUOUS
  0
LAYER
  2
LAYER_1
 70
     0
 62
     7
  6
CONTINUOUS
  0
ENDTAB
  0
TABLE
  2
STYLE
 70
     2
  0
STYLE
  2
STANDARD
 70
     0
 40
0.0
 41
1.0
 50
0.0
 71
     0
 42
0.2
  3
txt
  4

  0
STYLE
  2
ANNOTATIVE
 70
     0
 40
0.0
 41
1.0
 50
0.0
 71
     0
 42
0.2
  3
txt
  4

  0
ENDTAB
  0
TABLE
  2
VIEW
 70
     1
  0
ENDTAB
  0
TABLE
  2
UCS
 70
     0
  0
ENDTAB
  0
TABLE
  2
APPID
 70
     8
  0
APPID
  2
ACAD
 70
     0
  0
APPID
  2
ACADANNOTATIVE
 70
     0
  0
APPID
  2
ACADANNOPO
 70
     0
  0
APPID
  2
ACAD_DSTYLE_DIMJAG
 70
     0
  0
APPID
  2
ACAD_DSTYLE_DIMTALN
 70
     0
  0
APPID
  2
ACAD_MLEADERVER
 70
     0
  0
APPID
  2
ACAD_NAV_VCDISPLAY
 70
     0
  0
APPID
  2
ACAD_EXEMPT_FROM_CAD_STANDARDS
 70
     0
  0
ENDTAB
  0
TABLE
  2
DIMSTYLE
 70
     4
  0
DIMSTYLE
  2
STANDARD
 70
     0
  3

  4

  5

  6

  7

 40
1.0
 41
0.18
 42
0.0625
 43
0.38
 44
0.18
 45
0.0
 46
0.0
 47
0.0
 48
0.0
140
0.18
141
0.09
142
0.0
143
25.3999999999999986
144
1.0
145
0.0
146
1.0
147
0.09
 71
     0
 72
     0
 73
     1
 74
     1
 75
     0
 76
     0
 77
     0
 78
     0
170
     0
171
     2
172
     0
173
     0
174
     0
175
     0
176
     0
177
     0
178
     0
  0
DIMSTYLE
  2
ANNOTATIVE
 70
     0
  3

  4

  5

  6

  7

 40
0.0
 41
0.18
 42
0.0625
 43
0.38
 44
0.18
 45
0.0
 46
0.0
 47
0.0
 48
0.0
140
0.18
141
0.09
142
0.0
143
25.3999999999999986
144
1.0
145
0.0
146
1.0
147
0.09
 71
     0
 72
     0
 73
     1
 74
     1
 75
     0
 76
     0
 77
     0
 78
     0
170
     0
171
     2
172
     0
173
     0
174
     0
175
     0
176
     0
177
     0
178
     0
  0
DIMSTYLE
  2
ISO-25
 70
     0
  3

  4

  5

  6

  7

 40
1.0
 41
2.5
 42
0.625
 43
3.75
 44
1.25
 45
0.0
 46
0.0
 47
0.0
 48
0.0
140
2.5
141
2.5
142
0.0
143
0.03937007874016
144
1.0
145
0.0
146
1.0
147
0.625
 71
     0
 72
     0
 73
     0
 74
     0
 75
     0
 76
     0
 77
     1
 78
     8
170
     0
171
     3
172
     1
173
     0
174
     0
175
     0
176
     0
177
     0
178
     0
  0
ENDTAB
  0
ENDSEC
  0
SECTION
  2
BLOCKS
  0
BLOCK
  8
0
  2
$MODEL_SPACE
 70
     0
 10
0.0
 20
0.0
 30
0.0
  3
$MODEL_SPACE
  1

  0
ENDBLK
  5
1429
  8
0
  0
BLOCK
 67
     1
  8
0
  2
$PAPER_SPACE
 70
     0
 10
0.0
 20
0.0
 30
0.0
  3
$PAPER_SPACE
  1

  0
ENDBLK
  5
1425
 67
     1
  8
0
  0
ENDSEC
  0
SECTION
  2
ENTITIES
  0
POLYLINE
  5
34F
  8
0
  6
CONTINUOUS
 66
     1
 10
0.0
 20
0.0
 30
0.0
  0
VERTEX
  5
1919
  8
0
  6
CONTINUOUS
 10
188.7577243651334129
 20
294.0667857538563794
 30
0.0
  0
VERTEX
  5
191A
  8
0
  6
CONTINUOUS
 10
351.2764743651314916
 20
294.0667857538563794
 30
0.0
 42
-0.4142135623730728
  0
VERTEX
  5
191B
  8
0
  6
CONTINUOUS
 10
352.7764743651314916
 20
292.5667857538563226
 30
0.0
  0
VERTEX
  5
191C
  8
0
  6
CONTINUOUS
 10
352.7764743651314916
 20
198.2267857538562055
 30
0.0
 42
-0.4142135623730951
  0
VERTEX
  5
191D
  8
0
  6
CONTINUOUS
 10
351.2764743651314916
 20
196.7267857538562055
 30
0.0
  0
VERTEX
  5
191E
  8
0
  6
CONTINUOUS
 10
278.137789873851375
 20
196.7267857538562055
 30
0.0
  0
VERTEX
  5
191F
  8
0
  6
CONTINUOUS
 10
183.4077243651302069
 20
176.5912887425473912
 30
0.0
  0
VERTEX
  5
1920
  8
0
  6
CONTINUOUS
 10
88.6776588564092236
 20
196.7267857538562055
 30
0.0
  0
VERTEX
  5
1921
  8
0
  6
CONTINUOUS
 10
16.0377243651312007
 20
196.7267857538562055
 30
0.0
 42
-0.4142135623730951
  0
VERTEX
  5
1922
  8
0
  6
CONTINUOUS
 10
14.5377243651313108
 20
198.2267857538562055
 30
0.0
  0
VERTEX
  5
1923
  8
0
  6
CONTINUOUS
 10
14.5377243651313108
 20
292.5667857538563226
 30
0.0
 42
-0.4142135623730951
  0
VERTEX
  5
1924
  8
0
  6
CONTINUOUS
 10
16.0377243651312007
 20
294.0667857538563794
 30
0.0
  0
VERTEX
  5
1925
  8
0
  6
CONTINUOUS
 10
178.0577243651283084
 20
294.0667857538563794
 30
0.0
  0
SEQEND
  5
1926
  8
0
  6
CONTINUOUS
  0
POLYLINE
  5
350
  8
0
  6
CONTINUOUS
 66
     1
 10
0.0
 20
0.0
 30
0.0
  0
VERTEX
  5
1927
  8
0
  6
CONTINUOUS
 10
178.0577243651283084
 20
294.0667857538563794
 30
0.0
  0
VERTEX
  5
1928
  8
0
  6
CONTINUOUS
 10
178.0577243651283084
 20
299.7386830871569146
 30
0.0
 42
0.4142135623730951
  0
VERTEX
  5
1929
  8
0
  6
CONTINUOUS
 10
176.5577243651287915
 20
301.2386830871569146
 30
0.0
  0
VERTEX
  5
192A
  8
0
  6
CONTINUOUS
 10
167.5577243651283084
 20
301.2386830871569146
 30
0.0
 42
-0.4533114006584848
  0
VERTEX
  5
192B
  8
0
  6
CONTINUOUS
 10
166.0706986389091924
 20
302.9355446871766162
 30
0.0
 42
0.4533114006584621
  0
VERTEX
  5
192C
  8
0
  6
CONTINUOUS
 10
165.0793481547630108
 20
304.0667857538563226
 30
0.0
  0
VERTEX
  5
192D
  8
0
  6
CONTINUOUS
 10
164.5577243651287915
 20
304.0667857538563226
 30
0.0
  0
SEQEND
  5
192E
  8
0
  6
CONTINUOUS
  0
POLYLINE
  5
351
  8
0
  6
CONTINUOUS
 66
     1
 10
0.0
 20
0.0
 30
0.0
  0
VERTEX
  5
192F
  8
0
  6
CONTINUOUS
 10
202.257724365133214
 20
304.0667857538563226
 30
0.0
  0
VERTEX
  5
1930
  8
0
  6
CONTINUOUS
 10
201.7577243651336119
 20
304.0667857538564931
 30
0.0
 42
0.4142135623731618
  0
VERTEX
  5
1931
  8
0
  6
CONTINUOUS
 10
200.7577243651334129
 20
303.0667857538563794
 30
0.0
  0
VERTEX
  5
1932
  8
0
  6
CONTINUOUS
 10
200.7577243651334129
 20
302.7386830871568009
 30
0.0
 42
-0.4142135623730951
  0
VERTEX
  5
1933
  8
0
  6
CONTINUOUS
 10
199.2577243651331003
 20
301.2386830871568009
 30
0.0
  0
VERTEX
  5
1934
  8
0
  6
CONTINUOUS
 10
190.2577243651331003
 20
301.2386830871568009
 30
0.0
 42
0.4142135623730951
  0
VERTEX
  5
1935
  8
0
  6
CONTINUOUS
 10
188.7577243651334129
 20
299.7386830871568009
 30
0.0
  0
VERTEX
  5
1936
  8
0
  6
CONTINUOUS
 10
188.7577243651334129
 20
294.0667857538563794
 30
0.0
  0
SEQEND
  5
1937
  8
0
  6
CONTINUOUS
  0
POLYLINE
  5
352
  8
0
  6
CONTINUOUS
 66
     1
 10
0.0
 20
0.0
 30
0.0
  0
VERTEX
  5
1938
  8
0
  6
CONTINUOUS
 10
164.5577243651287915
 20
304.0667857538563226
 30
0.0
  0
VERTEX
  5
1939
  8
0
  6
CONTINUOUS
 10
16.0377243651312007
 20
304.0667857538563226
 30
0.0
  0
VERTEX
  5
193A
  8
0
  6
CONTINUOUS
 10
11.5377243651313108
 20
304.0667857538563226
 30
0.0
 42
0.4142135623730998
  0
VERTEX
  5
193B
  8
0
  6
CONTINUOUS
 10
4.537724365131651
 20
297.0667857538559247
 30
0.0
  0
VERTEX
  5
193C
  8
0
  6
CONTINUOUS
 10
4.5377243651315373
 20
292.5667857538563226
 30
0.0
  0
VERTEX
  5
193D
  8
0
  6
CONTINUOUS
 10
4.5377243651315373
 20
198.2267857538562055
 30
0.0
  0
VERTEX
  5
193E
  8
0
  6
CONTINUOUS
 10
4.5377243651315373
 20
193.7267857538562055
 30
0.0
 42
0.4142135623730951
  0
VERTEX
  5
193F
  8
0
  6
CONTINUOUS
 10
11.5377243651313108
 20
186.7267857538562055
 30
0.0
  0
VERTEX
  5
1940
  8
0
  6
CONTINUOUS
 10
16.0377243651312007
 20
186.7267857538562055
 30
0.0
  0
VERTEX
  5
1941
  8
0
  6
CONTINUOUS
 10
87.6266165037521603
 20
186.7267857538562055
 30
0.0
  0
VERTEX
  5
1942
  8
0
  6
CONTINUOUS
 10
167.7773407685849918
 20
169.6902233887620923
 30
0.0
  0
VERTEX
  5
1943
  8
0
  6
CONTINUOUS
 10
183.4077243651302069
 20
169.6902233887620923
 30
0.0
  0
VERTEX
  5
1944
  8
0
  6
CONTINUOUS
 10
199.0381079616759905
 20
169.6902233887620923
 30
0.0
  0
VERTEX
  5
1945
  8
0
  6
CONTINUOUS
 10
279.1888322265083957
 20
186.7267857538562055
 30
0.0
  0
VERTEX
  5
1946
  8
0
  6
CONTINUOUS
 10
351.2764743651314916
 20
186.7267857538562055
 30
0.0
  0
VERTEX
  5
1947
  8
0
  6
CONTINUOUS
 10
355.7764743651314916
 20
186.7267857538562055
 30
0.0
 42
0.4142135623730951
  0
VERTEX
  5
1948
  8
0
  6
CONTINUOUS
 10
362.7764743651316053
 20
193.7267857538564897
 30
0.0
  0
VERTEX
  5
1949
  8
0
  6
CONTINUOUS
 10
362.7764743651316053
 20
198.2267857538562055
 30
0.0
  0
VERTEX
  5
194A
  8
0
  6
CONTINUOUS
 10
362.7764743651316053
 20
297.0667857538559247
 30
0.0
 42
0.4142135623730998
  0
VERTEX
  5
194B
  8
0
  6
CONTINUOUS
 10
355.7764743651314916
 20
304.0667857538563226
 30
0.0
  0
VERTEX
  5
194C
  8
0
  6
CONTINUOUS
 10
202.257724365133214
 20
304.0667857538563226
 30
0.0
  0
SEQEND
  5
194D
  8
0
  6
CONTINUOUS
  0
CIRCLE
  5
353
  8
0
  6
CONTINUOUS
 10
356.178124794580981
 20
193.3251353244068014
 30
0.0
 40
1.5
  0
CIRCLE
  5
354
  8
0
  6
CONTINUOUS
 10
356.178124794580981
 20
297.4684361833056983
 30
0.0
 40
1.5
  0
CIRCLE
  5
355
  8
0
  6
CONTINUOUS
 10
11.1360739356824396
 20
297.4684361833056983
 30
0.0
 40
1.5
  0
CIRCLE
  5
356
  8
0
  6
CONTINUOUS
 10
11.1360739356824396
 20
193.3251353244068014
 30
0.0
 40
1.5
  0
CIRCLE
  5
357
  8
0
  6
CONTINUOUS
 10
126.1360739356824041
 20
298.5667857538563794
 30
0.0
 40
1.5
  0
CIRCLE
  5
358
  8
0
  6
CONTINUOUS
 10
241.1781247945810094
 20
298.5667857538563794
 30
0.0
 40
1.5
  0
CIRCLE
  5
359
  8
0
  6
CONTINUOUS
 10
128.7426854801144884
 20
183.61016877461131
 30
0.0
 40
1.5
  0
CIRCLE
  5
35A
  8
0
  6
CONTINUOUS
 10
238.0727632501462949
 20
183.61016877461131
 30
0.0
 40
1.5
  0
POLYLINE
  5
35B
  8
0
  6
CONTINUOUS
 66
     1
 10
0.0
 20
0.0
 30
0.0
 70
     1
  0
VERTEX
  5
194E
  8
0
  6
CONTINUOUS
 10
20.5377243651313108
 20
205.5283077538566943
 30
0.0
  0
VERTEX
  5
194F
  8
0
  6
CONTINUOUS
 10
200.9420174615366932
 20
205.528307753856609
 30
0.0
 42
0.4142135623730942
  0
VERTEX
  5
1950
  8
0
  6
CONTINUOUS
 10
205.9420174615366932
 20
210.528307753856609
 30
0.0
  0
VERTEX
  5
1951
  8
0
  6
CONTINUOUS
 10
205.9420174615368921
 20
280.2652637538557201
 30
0.0
 42
0.4142135623730959
  0
VERTEX
  5
1952
  8
0
  6
CONTINUOUS
 10
200.9420174615368921
 20
285.2652637538557201
 30
0.0
  0
VERTEX
  5
1953
  8
0
  6
CONTINUOUS
 10
20.5377243651313108
 20
285.2652637538557201
 30
0.0
 42
0.4142135623730951
  0
VERTEX
  5
1954
  8
0
  6
CONTINUOUS
 10
15.5377243651313108
 20
280.2652637538557201
 30
0.0
  0
VERTEX
  5
1955
  8
0
  6
CONTINUOUS
 10
15.5377243651313108
 20
210.5283077538566943
 30
0.0
 42
0.4142135623730949
  0
SEQEND
  5
1956
  8
0
  6
CONTINUOUS
  0
POLYLINE
  5
35C
  8
LAYER_1
 66
     1
 10
0.0
 20
0.0
 30
0.0
 70
     1
  0
VERTEX
  5
1957
  8
LAYER_1
 10
162.1527644615362931
 20
226.6663737538565897
 30
0.0
  0
VERTEX
  5
1958
  8
LAYER_1
 10
162.1527644615362931
 20
226.6663737538565897
 30
0.0
  0
VERTEX
  5
1959
  8
LAYER_1
 10
162.653803461536512
 20
226.8221537538562131
 30
0.0
  0
VERTEX
  5
195A
  8
LAYER_1
 10
163.0802274615365093
 20
227.2707737538557069
 30
0.0
  0
VERTEX
  5
195B
  8
LAYER_1
 10
163.43444346153629
 20
227.984152753856506
 30
0.0
  0
VERTEX
  5
195C
  8
LAYER_1
 10
163.718858461536712
 20
228.9342097538566065
 30
0.0
  0
VERTEX
  5
195D
  8
LAYER_1
 10
164.0879144615360019
 20
231.4320387538560055
 30
0.0
  0
VERTEX
  5
195E
  8
LAYER_1
 10
164.2066544615362034
 20
234.5396137538564858
 30
0.0
  0
VERTEX
  5
195F
  8
LAYER_1
 10
164.0012644615360102
 20
240.7697537538566053
 30
0.0
  0
VERTEX
  5
1960
  8
LAYER_1
 10
158.3873044615367007
 20
232.280333753856695
 30
0.0
  0
VERTEX
  5
1961
  8
LAYER_1
 10
159.1104424615365076
 20
230.0456597538560004
 30
0.0
  0
VERTEX
  5
1962
  8
LAYER_1
 10
160.0132984615362943
 20
228.2666937538566003
 30
0.0
  0
VERTEX
  5
1963
  8
LAYER_1
 10
161.0445224615363031
 20
227.0910577538562052
 30
0.0
  0
VERTEX
  5
1964
  8
LAYER_1
 10
161.5922254615367137
 20
226.7756197538564891
 30
0.0
  0
SEQEND
  5
1965
  8
LAYER_1
  0
POLYLINE
  5
35D
  8
LAYER_1
 66
     1
 10
0.0
 20
0.0
 30
0.0
 70
     1
  0
VERTEX
  5
1966
  8
LAYER_1
 10
151.6497644615365914
 20
254.7363737538566966
 30
0.0
  0
VERTEX
  5
1967
  8
LAYER_1
 10
151.6497644615365914
 20
254.7363737538566966
 30
0.0
  0
VERTEX
  5
1968
  8
LAYER_1
 10
151.8990124615366142
 20
256.1227477538561743
 30
0.0
  0
VERTEX
  5
1969
  8
LAYER_1
 10
152.5654554615360041
 20
257.3037337538563065
 30
0.0
  0
VERTEX
  5
196A
  8
LAYER_1
 10
153.5271464615354944
 20
258.1252897538565776
 30
0.0
  0
VERTEX
  5
196B
  8
LAYER_1
 10
154.0805994615367069
 20
258.3531437538567843
 30
0.0
  0
VERTEX
  5
196C
  8
LAYER_1
 10
154.6621344615365103
 20
258.433373753856074
 30
0.0
  0
VERTEX
  5
196D
  8
LAYER_1
 10
155.3743084615362875
 20
258.3235917538560784
 30
0.0
  0
VERTEX
  5
196E
  8
LAYER_1
 10
156.0592054615366067
 20
258.0172467538558863
 30
0.0
  0
VERTEX
  5
196F
  8
LAYER_1
 10
157.2637244615362135
 20
256.9528597538559893
 30
0.0
  0
VERTEX
  5
1970
  8
LAYER_1
 10
158.108813461536613
 20
255.5162047538566128
 30
0.0
  0
VERTEX
  5
1971
  8
LAYER_1
 10
158.3444224615367091
 20
254.7445247538564956
 30
0.0
  0
VERTEX
  5
1972
  8
LAYER_1
 10
158.4275944615365006
 20
253.9832737538565937
 30
0.0
  0
VERTEX
  5
1973
  8
LAYER_1
 10
158.2403914615364044
 20
252.6685707538559882
 30
0.0
  0
VERTEX
  5
1974
  8
LAYER_1
 10
157.7001764615363868
 20
251.57851075385679
 30
0.0
  0
VERTEX
  5
1975
  8
LAYER_1
 10
156.8390414615365103
 20
250.8350457538566047
 30
0.0
  0
VERTEX
  5
1976
  8
LAYER_1
 10
155.6890744615367055
 20
250.5601237538564874
 30
0.0
  0
VERTEX
  5
1977
  8
LAYER_1
 10
154.8865084615362946
 20
250.6525217538564902
 30
0.0
  0
VERTEX
  5
1978
  8
LAYER_1
 10
154.1336844615356085
 20
250.9142057538566064
 30
0.0
  0
VERTEX
  5
1979
  8
LAYER_1
 10
153.4482534615366092
 20
251.3219087538560075
 30
0.0
  0
VERTEX
  5
197A
  8
LAYER_1
 10
152.8478654615367134
 20
251.8523637538561104
 30
0.0
  0
VERTEX
  5
197B
  8
LAYER_1
 10
151.9728244615361064
 20
253.1884637538564959
 30
0.0
  0
VERTEX
  5
197C
  8
LAYER_1
 10
151.7334714615363112
 20
253.9475757538567109
 30
0.0
  0
SEQEND
  5
197D
  8
LAYER_1
  0
POLYLINE
  5
35E
  8
LAYER_1
 66
     1
 10
0.0
 20
0.0
 30
0.0
 70
     1
  0
VERTEX
  5
197E
  8
LAYER_1
 10
144.9088344615365997
 20
259.5288037538566073
 30
0.0
  0
VERTEX
  5
197F
  8
LAYER_1
 10
144.9088344615365997
 20
259.5288037538566073
 30
0.0
  0
VERTEX
  5
1980
  8
LAYER_1
 10
144.4360124615361087
 20
259.1276507538565852
 30
0.0
  0
VERTEX
  5
1981
  8
LAYER_1
 10
143.4882284615362948
 20
257.8086687538561819
 30
0.0
  0
VERTEX
  5
1982
  8
LAYER_1
 10
140.5272044615358027
 20
252.9563537538566038
 30
0.0
  0
VERTEX
  5
1983
  8
LAYER_1
 10
137.4035794615363955
 20
247.6076817538566957
 30
0.0
  0
VERTEX
  5
1984
  8
LAYER_1
 10
135.2555544615366045
 20
243.6453837538560094
 30
0.0
  0
VERTEX
  5
1985
  8
LAYER_1
 10
137.345815461536489
 20
245.8415497538562988
 30
0.0
  0
VERTEX
  5
1986
  8
LAYER_1
 10
139.1921764615364054
 20
248.0698047538560047
 30
0.0
  0
VERTEX
  5
1987
  8
LAYER_1
 10
140.7818014615363893
 20
250.2595497538561915
 30
0.0
  0
VERTEX
  5
1988
  8
LAYER_1
 10
142.1018544615363055
 20
252.3401837538565928
 30
0.0
  0
VERTEX
  5
1989
  8
LAYER_1
 10
143.5802264615361139
 20
255.0712147538557133
 30
0.0
  0
VERTEX
  5
198A
  8
LAYER_1
 10
144.5322894615364078
 20
257.2951927538555879
 30
0.0
  0
VERTEX
  5
198B
  8
LAYER_1
 10
144.9708804615366091
 20
258.8388207538565098
 30
0.0
  0
SEQEND
  5
198C
  8
LAYER_1
  0
POLYLINE
  5
35F
  8
LAYER_1
 66
     1
 10
0.0
 20
0.0
 30
0.0
  0
VERTEX
  5
198D
  8
LAYER_1
 10
125.8940084615365009
 20
235.9085507538561899
 30
0.0
  0
VERTEX
  5
198E
  8
LAYER_1
 10
125.3077944615364032
 20
235.2239037538558932
 30
0.0
  0
VERTEX
  5
198F
  8
LAYER_1
 10
123.3020464615363068
 20
231.9922367538557069
 30
0.0
  0
VERTEX
  5
1990
  8
LAYER_1
 10
121.1229974615360021
 20
229.087909753856195
 30
0.0
  0
VERTEX
  5
1991
  8
LAYER_1
 10
120.0346754615365938
 20
227.9089297538558014
 30
0.0
  0
VERTEX
  5
1992
  8
LAYER_1
 10
118.9824564615361027
 20
226.992302753855995
 30
0.0
  0
VERTEX
  5
1993
  8
LAYER_1
 10
117.9928174615364043
 20
226.3981997538558062
 30
0.0
  0
VERTEX
  5
1994
  8
LAYER_1
 10
117.0922344615361936
 20
226.186793753856108
 30
0.0
  0
VERTEX
  5
1995
  8
LAYER_1
 10
116.5135084615363041
 20
226.3130227538559893
 30
0.0
  0
VERTEX
  5
1996
  8
LAYER_1
 10
116.108082461536398
 20
226.6831497538557016
 30
0.0
  0
VERTEX
  5
1997
  8
LAYER_1
 10
115.8695334615364061
 20
227.2843397538563863
 30
0.0
  0
VERTEX
  5
1998
  8
LAYER_1
 10
115.791444461536102
 20
228.1037537538562106
 30
0.0
  0
VERTEX
  5
1999
  8
LAYER_1
 10
115.9100514615363977
 20
229.1914067538560005
 30
0.0
  0
VERTEX
  5
199A
  8
LAYER_1
 10
116.2396624615360992
 20
230.4250787538557859
 30
0.0
  0
VERTEX
  5
199B
  8
LAYER_1
 10
117.374648461536097
 20
233.1700157538558074
 30
0.0
  0
VERTEX
  5
199C
  8
LAYER_1
 10
118.8819024615361997
 20
236.0176477538560107
 30
0.0
  0
VERTEX
  5
199D
  8
LAYER_1
 10
120.4469244615365966
 20
238.6470537538558006
 30
0.0
  0
VERTEX
  5
199E
  8
LAYER_1
 10
122.0568774615361036
 20
241.4497607538561113
 30
0.0
  0
VERTEX
  5
199F
  8
LAYER_1
 10
123.2624684615366988
 20
243.9187087538558103
 30
0.0
  0
VERTEX
  5
19A0
  8
LAYER_1
 10
124.018769461536607
 20
246.0795717538562997
 30
0.0
  0
VERTEX
  5
19A1
  8
LAYER_1
 10
124.2808544615359949
 20
247.958023753856196
 30
0.0
  0
VERTEX
  5
19A2
  8
LAYER_1
 10
124.0241154615362973
 20
249.9434507538558989
 30
0.0
  0
VERTEX
  5
19A3
  8
LAYER_1
 10
123.7031934615364008
 20
250.76928575385611
 30
0.0
  0
VERTEX
  5
19A4
  8
LAYER_1
 10
123.253904461536294
 20
251.5181037538561952
 30
0.0
  0
VERTEX
  5
19A5
  8
LAYER_1
 10
122.5928114615363
 20
252.1278507538559097
 30
0.0
  0
VERTEX
  5
19A6
  8
LAYER_1
 10
121.8675334615359986
 20
252.2369607538558114
 30
0.0
  0
VERTEX
  5
19A7
  8
LAYER_1
 10
121.1165804615366994
 20
251.8839477538558924
 30
0.0
  0
VERTEX
  5
19A8
  8
LAYER_1
 10
120.378464461535998
 20
251.1073237538558089
 30
0.0
  0
VERTEX
  5
19A9
  8
LAYER_1
 10
118.6123314615363995
 20
248.4565217538562081
 30
0.0
  0
VERTEX
  5
19AA
  8
LAYER_1
 10
116.826943461536402
 20
245.2023937538560858
 30
0.0
  0
VERTEX
  5
19AB
  8
LAYER_1
 10
114.7463084615366
 20
241.3064307538562048
 30
0.0
  0
VERTEX
  5
19AC
  8
LAYER_1
 10
112.0944344615363946
 20
236.7301237538561907
 30
0.0
  0
VERTEX
  5
19AD
  8
LAYER_1
 10
109.4810744615363944
 20
232.8362947538558103
 30
0.0
  0
VERTEX
  5
19AE
  8
LAYER_1
 10
107.0025004615363997
 20
229.6099837538561133
 30
0.0
  0
VERTEX
  5
19AF
  8
LAYER_1
 10
104.8448454615363943
 20
227.4106177538560019
 30
0.0
  0
VERTEX
  5
19B0
  8
LAYER_1
 10
103.9445304615363028
 20
226.8083607538561068
 30
0.0
  0
VERTEX
  5
19B1
  8
LAYER_1
 10
103.1942444615363002
 20
226.5976237538561122
 30
0.0
  0
VERTEX
  5
19B2
  8
LAYER_1
 10
102.7083164615361
 20
226.7118187538561074
 30
0.0
  0
VERTEX
  5
19B3
  8
LAYER_1
 10
102.3748254615367017
 20
227.0362157538557142
 30
0.0
  0
VERTEX
  5
19B4
  8
LAYER_1
 10
102.1857504615362018
 20
227.5435387538560121
 30
0.0
  0
VERTEX
  5
19B5
  8
LAYER_1
 10
102.1330654615363045
 20
228.2065087538560988
 30
0.0
  0
VERTEX
  5
19B6
  8
LAYER_1
 10
102.4047794615361937
 20
229.8902737538560928
 30
0.0
  0
VERTEX
  5
19B7
  8
LAYER_1
 10
103.1257844615361989
 20
231.8692837538561093
 30
0.0
  0
VERTEX
  5
19B8
  8
LAYER_1
 10
105.2919984615361955
 20
236.201712753855702
 30
0.0
  0
VERTEX
  5
19B9
  8
LAYER_1
 10
107.7213634615363986
 20
240.8037147538562124
 30
0.0
  0
VERTEX
  5
19BA
  8
LAYER_1
 10
109.7014394615359976
 20
244.9435767538562061
 30
0.0
  0
VERTEX
  5
19BB
  8
LAYER_1
 10
110.3003554615365971
 20
246.6115437538560116
 30
0.0
  0
VERTEX
  5
19BC
  8
LAYER_1
 10
110.5197844615362044
 20
247.8895837538557032
 30
0.0
  0
VERTEX
  5
19BD
  8
LAYER_1
 10
110.2887184615366039
 20
249.4899007538560909
 30
0.0
  0
VERTEX
  5
19BE
  8
LAYER_1
 10
109.9710054615356967
 20
250.2868517538562116
 30
0.0
  0
VERTEX
  5
19BF
  8
LAYER_1
 10
109.492834461536205
 20
251.0388737538561088
 30
0.0
  0
VERTEX
  5
19C0
  8
LAYER_1
 10
108.811411461536494
 20
251.6357887538557065
 30
0.0
  0
VERTEX
  5
19C1
  8
LAYER_1
 10
108.0465514615365947
 20
251.8604347538557136
 30
0.0
  0
VERTEX
  5
19C2
  8
LAYER_1
 10
107.268855461536603
 20
251.6743007538557038
 30
0.0
  0
VERTEX
  5
19C3
  8
LAYER_1
 10
106.548924461536501
 20
251.0388737538561088
 30
0.0
  0
VERTEX
  5
19C4
  8
LAYER_1
 10
103.5258594615365979
 20
246.4582697538558023
 30
0.0
  0
VERTEX
  5
19C5
  8
LAYER_1
 10
100.900733461536305
 20
241.8648307538558129
 30
0.0
  0
VERTEX
  5
19C6
  8
LAYER_1
 10
98.7890784615363771
 20
237.5794887538559124
 30
0.0
  0
VERTEX
  5
19C7
  8
LAYER_1
 10
97.6827295909405251
 20
234.8511651053233891
 30
0.0
  0
VERTEX
  5
19C8
  8
LAYER_1
 10
95.7448194615363519
 20
232.253013753856095
 30
0.0
  0
VERTEX
  5
19C9
  8
LAYER_1
 10
94.3181954615364049
 20
230.6871907538562141
 30
0.0
  0
VERTEX
  5
19CA
  8
LAYER_1
 10
92.765609461536414
 20
229.2513407538559136
 30
0.0
  0
VERTEX
  5
19CB
  8
LAYER_1
 10
91.1007004615358653
 20
228.0144617538562954
 30
0.0
  0
VERTEX
  5
19CC
  8
LAYER_1
 10
89.3371074615363909
 20
227.0455507538559914
 30
0.0
  0
VERTEX
  5
19CD
  8
LAYER_1
 10
87.4884694615364822
 20
226.4136047538559069
 30
0.0
  0
VERTEX
  5
19CE
  8
LAYER_1
 10
85.5684264615361769
 20
226.1876237538558883
 30
0.0
  0
VERTEX
  5
19CF
  8
LAYER_1
 10
84.8375304615363746
 20
226.2847017538558987
 30
0.0
  0
VERTEX
  5
19D0
  8
LAYER_1
 10
84.1884694615363003
 20
226.5663087538557079
 30
0.0
  0
VERTEX
  5
19D1
  8
LAYER_1
 10
83.6260574615360639
 20
227.018003753855993
 30
0.0
  0
VERTEX
  5
19D2
  8
LAYER_1
 10
83.1551074615363888
 20
227.6253447538558987
 30
0.0
  0
VERTEX
  5
19D3
  8
LAYER_1
 10
82.5068504615365725
 20
229.2491997538558053
 30
0.0
  0
VERTEX
  5
19D4
  8
LAYER_1
 10
82.2822064615366457
 20
231.322343753855904
 30
0.0
  0
VERTEX
  5
19D5
  8
LAYER_1
 10
82.4362484615361097
 20
233.2906587538560075
 30
0.0
  0
VERTEX
  5
19D6
  8
LAYER_1
 10
82.8983734615363517
 20
235.3616637538557086
 30
0.0
  0
VERTEX
  5
19D7
  8
LAYER_1
 10
84.0911274615365159
 20
234.6930767538559905
 30
0.0
  0
VERTEX
  5
19D8
  8
LAYER_1
 10
85.3031364615361269
 20
234.2234627538560119
 30
0.0
  0
VERTEX
  5
19D9
  8
LAYER_1
 10
86.5279804615366572
 20
233.9464007538558974
 30
0.0
  0
VERTEX
  5
19DA
  8
LAYER_1
 10
87.7592434615356467
 20
233.8554737538557049
 30
0.0
  0
VERTEX
  5
19DB
  8
LAYER_1
 10
88.8712654615365665
 20
233.9372077538560006
 30
0.0
  0
VERTEX
  5
19DC
  8
LAYER_1
 10
89.9449784615363654
 20
234.1723827538557998
 30
0.0
  0
VERTEX
  5
19DD
  8
LAYER_1
 10
91.9590244615365862
 20
235.0428797538556864
 30
0.0
  0
VERTEX
  5
19DE
  8
LAYER_1
 10
93.7644744615361958
 20
236.3466197538560039
 30
0.0
  0
VERTEX
  5
19DF
  8
LAYER_1
 10
95.3244214615366161
 20
237.9632557538562025
 30
0.0
  0
VERTEX
  5
19E0
  8
LAYER_1
 10
96.6019584615365687
 20
239.7724457538556919
 30
0.0
  0
VERTEX
  5
19E1
  8
LAYER_1
 10
97.560178461536097
 20
241.6538417538561987
 30
0.0
  0
VERTEX
  5
19E2
  8
LAYER_1
 10
98.1621764615361485
 20
243.4870997538560005
 30
0.0
  0
VERTEX
  5
19E3
  8
LAYER_1
 10
98.3710434615364591
 20
245.1518737538559947
 30
0.0
  0
VERTEX
  5
19E4
  8
LAYER_1
 10
98.370994461536668
 20
245.1518537538561873
 30
0.0
  0
VERTEX
  5
19E5
  8
LAYER_1
 10
98.1827214615364881
 20
246.5211127538559879
 30
0.0
  0
VERTEX
  5
19E6
  8
LAYER_1
 10
97.6863644615364848
 20
247.6849837538561871
 30
0.0
  0
VERTEX
  5
19E7
  8
LAYER_1
 10
96.8883424615361264
 20
248.6648607538560043
 30
0.0
  0
VERTEX
  5
19E8
  8
LAYER_1
 10
95.9234424615366237
 20
249.56771675385599
 30
0.0
  0
VERTEX
  5
19E9
  8
LAYER_1
 10
93.4416544615361033
 20
251.2450537538562116
 30
0.0
  0
VERTEX
  5
19EA
  8
LAYER_1
 10
92.3462474615360804
 20
251.672951753856097
 30
0.0
  0
VERTEX
  5
19EB
  8
LAYER_1
 10
91.0454444615366469
 20
251.7927637538560077
 30
0.0
  0
VERTEX
  5
19EC
  8
LAYER_1
 10
89.4895164615364536
 20
251.622675753856214
 30
0.0
  0
VERTEX
  5
19ED
  8
LAYER_1
 10
87.8276854615363334
 20
251.112412753856006
 30
0.0
  0
VERTEX
  5
19EE
  8
LAYER_1
 10
86.1016694615364884
 20
250.2619747538560091
 30
0.0
  0
VERTEX
  5
19EF
  8
LAYER_1
 10
84.3531904615363999
 20
249.0713607538559984
 30
0.0
  0
VERTEX
  5
19F0
  8
LAYER_1
 10
82.6239684615364638
 20
247.5405737538557958
 30
0.0
  0
VERTEX
  5
19F1
  8
LAYER_1
 10
80.9557234615363654
 20
245.6696107538564888
 30
0.0
  0
VERTEX
  5
19F2
  8
LAYER_1
 10
79.3901754615363302
 20
243.45847475385591
 30
0.0
  0
VERTEX
  5
19F3
  8
LAYER_1
 10
77.9690444615363134
 20
240.9071637538559116
 30
0.0
  0
VERTEX
  5
19F4
  8
LAYER_1
 10
77.0308894615364608
 20
238.8682497538561904
 30
0.0
  0
VERTEX
  5
19F5
  8
LAYER_1
 10
76.3687244615362886
 20
236.8678467538559005
 30
0.0
  0
VERTEX
  5
19F6
  8
LAYER_1
 10
75.9761324615365936
 20
234.9187917538561123
 30
0.0
  0
VERTEX
  5
19F7
  8
LAYER_1
 10
75.846694461536643
 20
233.0339237538559871
 30
0.0
  0
VERTEX
  5
19F8
  8
LAYER_1
 10
76.0091604615364105
 20
231.0467577538557009
 30
0.0
  0
VERTEX
  5
19F9
  8
LAYER_1
 10
76.4917434615359326
 20
229.216040753855907
 30
0.0
  0
VERTEX
  5
19FA
  8
LAYER_1
 10
77.2872244615362831
 20
227.5762707538559937
 30
0.0
  0
VERTEX
  5
19FB
  8
LAYER_1
 10
78.3883824615359828
 20
226.1619477538561966
 30
0.0
  0
VERTEX
  5
19FC
  8
LAYER_1
 10
79.7879954615364966
 20
225.0075697538561883
 30
0.0
  0
VERTEX
  5
19FD
  8
LAYER_1
 10
81.4788434615369113
 20
224.1476377538558893
 30
0.0
  0
VERTEX
  5
19FE
  8
LAYER_1
 10
83.4537074615364816
 20
223.6166487538557135
 30
0.0
  0
VERTEX
  5
19FF
  8
LAYER_1
 10
85.7053644615362629
 20
223.4491037538560079
 30
0.0
  0
VERTEX
  5
1A00
  8
LAYER_1
 10
87.7089774615365911
 20
223.6181317538562894
 30
0.0
  0
VERTEX
  5
1A01
  8
LAYER_1
 10
89.6933394615360555
 20
224.0567277538557107
 30
0.0
  0
VERTEX
  5
1A02
  8
LAYER_1
 10
91.6263544615361241
 20
224.739217753855911
 30
0.0
  0
VERTEX
  5
1A03
  8
LAYER_1
 10
93.4759304615363931
 20
225.6399307538559071
 30
0.0
  0
VERTEX
  5
1A04
  8
LAYER_1
 10
95.209973461535867
 20
226.7331947538559973
 30
0.0
  0
VERTEX
  5
1A05
  8
LAYER_1
 10
96.5907704130152922
 20
227.8300059630435044
 30
0.0
  0
VERTEX
  5
1A06
  8
LAYER_1
 10
96.6849084615360965
 20
227.0907777538560026
 30
0.0
  0
VERTEX
  5
1A07
  8
LAYER_1
 10
97.0337754615366634
 20
226.1508827538559956
 30
0.0
  0
VERTEX
  5
1A08
  8
LAYER_1
 10
97.5374864615360764
 20
225.3225077538562005
 30
0.0
  0
VERTEX
  5
1A09
  8
LAYER_1
 10
98.2048664615363833
 20
224.6321287538557101
 30
0.0
  0
VERTEX
  5
1A0A
  8
LAYER_1
 10
99.0447414615363044
 20
224.1062207538560074
 30
0.0
  0
VERTEX
  5
1A0B
  8
LAYER_1
 10
100.0659364615359976
 20
223.7712607538560121
 30
0.0
  0
VERTEX
  5
1A0C
  8
LAYER_1
 10
101.2772754615365045
 20
223.6537237538560134
 30
0.0
  0
VERTEX
  5
1A0D
  8
LAYER_1
 10
102.5667054615363014
 20
223.7499997538562013
 30
0.0
  0
VERTEX
  5
1A0E
  8
LAYER_1
 10
103.8136144615362042
 20
224.0259907538558082
 30
0.0
  0
VERTEX
  5
1A0F
  8
LAYER_1
 10
105.0139904615361957
 20
224.4624417538560124
 30
0.0
  0
VERTEX
  5
1A10
  8
LAYER_1
 10
106.1638214615364006
 20
225.0400977538562017
 30
0.0
  0
VERTEX
  5
1A11
  8
LAYER_1
 10
108.2958034615357974
 20
226.5420027538557122
 30
0.0
  0
VERTEX
  5
1A12
  8
LAYER_1
 10
110.1774654615364994
 20
228.3776637538562966
 30
0.0
  0
VERTEX
  5
1A13
  8
LAYER_1
 10
110.3639994615363946
 20
227.275437753855897
 30
0.0
  0
VERTEX
  5
1A14
  8
LAYER_1
 10
110.7198194615365026
 20
226.2863357538558944
 30
0.0
  0
VERTEX
  5
1A15
  8
LAYER_1
 10
111.2473324615363026
 20
225.4207867538561061
 30
0.0
  0
VERTEX
  5
1A16
  8
LAYER_1
 10
111.9489444615365983
 20
224.6892227538558018
 30
0.0
  0
VERTEX
  5
1A17
  8
LAYER_1
 10
112.8270624615365989
 20
224.1020717538563076
 30
0.0
  0
VERTEX
  5
1A18
  8
LAYER_1
 10
113.8840944615362929
 20
223.6697647538561
 30
0.0
  0
VERTEX
  5
1A19
  8
LAYER_1
 10
115.1224464615365974
 20
223.4027327538559859
 30
0.0
  0
VERTEX
  5
1A1A
  8
LAYER_1
 10
116.544525461536594
 20
223.3114037538562116
 30
0.0
  0
VERTEX
  5
1A1B
  8
LAYER_1
 10
118.140703461536404
 20
223.4690557538563098
 30
0.0
  0
VERTEX
  5
1A1C
  8
LAYER_1
 10
119.7248464615362025
 20
223.9179427538558969
 30
0.0
  0
VERTEX
  5
1A1D
  8
LAYER_1
 10
121.2656644615363035
 20
224.6219607538558023
 30
0.0
  0
VERTEX
  5
1A1E
  8
LAYER_1
 10
122.7318664615360007
 20
225.5450077538565097
 30
0.0
  0
VERTEX
  5
1A1F
  8
LAYER_1
 10
124.0921634615364013
 20
226.650978753856009
 30
0.0
  0
VERTEX
  5
1A20
  8
LAYER_1
 10
125.3152654615362991
 20
227.9037707538560085
 30
0.0
  0
VERTEX
  5
1A21
  8
LAYER_1
 10
125.4322463159715966
 20
228.0550145671138864
 30
0.0
  0
VERTEX
  5
1A22
  8
LAYER_1
 10
125.526368461536407
 20
227.6689037538563127
 30
0.0
  0
VERTEX
  5
1A23
  8
LAYER_1
 10
126.0980084615362955
 20
226.4455287538557116
 30
0.0
  0
VERTEX
  5
1A24
  8
LAYER_1
 10
126.8774444615362995
 20
225.4427877538560097
 30
0.0
  0
VERTEX
  5
1A25
  8
LAYER_1
 10
127.8526414615359954
 20
224.6614807538558125
 30
0.0
  0
VERTEX
  5
1A26
  8
LAYER_1
 10
129.0115654615364065
 20
224.1024117538561029
 30
0.0
  0
VERTEX
  5
1A27
  8
LAYER_1
 10
130.3421814615356027
 20
223.7663817538563933
 30
0.0
  0
VERTEX
  5
1A28
  8
LAYER_1
 10
131.8324544615360026
 20
223.6541937538561911
 30
0.0
  0
VERTEX
  5
1A29
  8
LAYER_1
 10
133.9503964615360871
 20
223.8994297538559977
 30
0.0
  0
VERTEX
  5
1A2A
  8
LAYER_1
 10
135.9648444615359892
 20
224.5634667538566021
 30
0.0
  0
VERTEX
  5
1A2B
  8
LAYER_1
 10
137.8364834615362042
 20
225.5387967538563885
 30
0.0
  0
VERTEX
  5
1A2C
  8
LAYER_1
 10
139.5260004615365972
 20
226.7179097538559915
 30
0.0
  0
VERTEX
  5
1A2D
  8
LAYER_1
 10
140.1602376857730121
 20
227.2689013983294899
 30
0.0
  0
VERTEX
  5
1A2E
  8
LAYER_1
 10
140.2281764615362079
 20
226.9832387538563125
 30
0.0
  0
VERTEX
  5
1A2F
  8
LAYER_1
 10
140.6792024615363914
 20
225.9910607538558907
 30
0.0
  0
VERTEX
  5
1A30
  8
LAYER_1
 10
141.320374461536602
 20
225.1432977538561033
 30
0.0
  0
VERTEX
  5
1A31
  8
LAYER_1
 10
142.1573074615359928
 20
224.4559937538566032
 30
0.0
  0
VERTEX
  5
1A32
  8
LAYER_1
 10
143.195617461536699
 20
223.9451967538562087
 30
0.0
  0
VERTEX
  5
1A33
  8
LAYER_1
 10
144.4409214615365045
 20
223.6269517538565026
 30
0.0
  0
VERTEX
  5
1A34
  8
LAYER_1
 10
145.8988344615362109
 20
223.5173037538559129
 30
0.0
  0
VERTEX
  5
1A35
  8
LAYER_1
 10
147.4391194615367056
 20
223.6492827538559993
 30
0.0
  0
VERTEX
  5
1A36
  8
LAYER_1
 10
149.0042764615367048
 20
224.0339857538558022
 30
0.0
  0
VERTEX
  5
1A37
  8
LAYER_1
 10
150.5549924615366137
 20
224.6545657538559908
 30
0.0
  0
VERTEX
  5
1A38
  8
LAYER_1
 10
152.0519554615360107
 20
225.4941737538565008
 30
0.0
  0
VERTEX
  5
1A39
  8
LAYER_1
 10
153.4558534615360088
 20
226.5359607538565001
 30
0.0
  0
VERTEX
  5
1A3A
  8
LAYER_1
 10
154.6228319770897031
 20
227.6621870151992084
 30
0.0
  0
VERTEX
  5
1A3B
  8
LAYER_1
 10
154.8900694615363989
 20
227.249779753856302
 30
0.0
  0
VERTEX
  5
1A3C
  8
LAYER_1
 10
155.9889534615363971
 20
226.0576937538563129
 30
0.0
  0
VERTEX
  5
1A3D
  8
LAYER_1
 10
157.2129974615357071
 20
225.1207397538564976
 30
0.0
  0
VERTEX
  5
1A3E
  8
LAYER_1
 10
158.5413394615358129
 20
224.4156507538565108
 30
0.0
  0
VERTEX
  5
1A3F
  8
LAYER_1
 10
159.9531214615361137
 20
223.9191607538560049
 30
0.0
  0
VERTEX
  5
1A40
  8
LAYER_1
 10
161.4274824615364139
 20
223.6080017538565983
 30
0.0
  0
VERTEX
  5
1A41
  8
LAYER_1
 10
164.4805044615366967
 20
223.4486137538565913
 30
0.0
  0
VERTEX
  5
1A42
  8
LAYER_1
 10
166.3863714615362142
 20
223.6375557538565886
 30
0.0
  0
VERTEX
  5
1A43
  8
LAYER_1
 10
168.23848346153639
 20
224.0487347538565075
 30
0.0
  0
VERTEX
  5
1A44
  8
LAYER_1
 10
170.0151784615362089
 20
224.6797437538563997
 30
0.0
  0
VERTEX
  5
1A45
  8
LAYER_1
 10
171.6947934615365057
 20
225.5281757538564875
 30
0.0
  0
VERTEX
  5
1A46
  8
LAYER_1
 10
173.2556654615364948
 20
226.5916257538565901
 30
0.0
  0
VERTEX
  5
1A47
  8
LAYER_1
 10
174.6761334615360113
 20
227.867683753856511
 30
0.0
  0
VERTEX
  5
1A48
  8
LAYER_1
 10
175.9345334615364038
 20
229.3539457538566069
 30
0.0
  0
VERTEX
  5
1A49
  8
LAYER_1
 10
177.009204461536001
 20
231.048003753856193
 30
0.0
  0
VERTEX
  5
1A4A
  8
LAYER_1
 10
177.6842104615357982
 20
232.5852117538566119
 30
0.0
  0
VERTEX
  5
1A4B
  8
LAYER_1
 10
177.9420174615366079
 20
233.9491237538562132
 30
0.0
  0
VERTEX
  5
1A4C
  8
LAYER_1
 10
177.9045754615366093
 20
235.0434637538560025
 30
0.0
  0
VERTEX
  5
1A4D
  8
LAYER_1
 10
177.6938344615363121
 20
235.7719537538565078
 30
0.0
  0
VERTEX
  5
1A4E
  8
LAYER_1
 10
177.2466864615360009
 20
236.45551075385589
 30
0.0
  0
VERTEX
  5
1A4F
  8
LAYER_1
 10
176.6840084615361093
 20
236.7732227538567997
 30
0.0
  0
VERTEX
  5
1A50
  8
LAYER_1
 10
176.0956554615364098
 20
236.5902997538559873
 30
0.0
  0
VERTEX
  5
1A51
  8
LAYER_1
 10
175.5714844615363859
 20
235.7719537538565078
 30
0.0
  0
VERTEX
  5
1A52
  8
LAYER_1
 10
174.5156584615365034
 20
233.4495587538567918
 30
0.0
  0
VERTEX
  5
1A53
  8
LAYER_1
 10
173.1838384615363111
 20
231.4673397538566064
 30
0.0
  0
VERTEX
  5
1A54
  8
LAYER_1
 10
171.5567714615361012
 20
229.7546957538561117
 30
0.0
  0
VERTEX
  5
1A55
  8
LAYER_1
 10
169.6152044615363081
 20
228.2410237538566093
 30
0.0
  0
VERTEX
  5
1A56
  8
LAYER_1
 10
170.1051414615363058
 20
229.4380537538563942
 30
0.0
  0
VERTEX
  5
1A57
  8
LAYER_1
 10
170.4538754615363132
 20
230.7313627538559899
 30
0.0
  0
VERTEX
  5
1A58
  8
LAYER_1
 10
170.7790744615363963
 20
233.3757437538565966
 30
0.0
  0
VERTEX
  5
1A59
  8
LAYER_1
 10
170.7191714615362912
 20
236.2843517538566118
 30
0.0
  0
VERTEX
  5
1A5A
  8
LAYER_1
 10
170.4538784615363909
 20
239.4432807538561008
 30
0.0
  0
VERTEX
  5
1A5B
  8
LAYER_1
 10
170.1629104615363133
 20
242.8204417538566133
 30
0.0
  0
VERTEX
  5
1A5C
  8
LAYER_1
 10
170.0259844615366092
 20
246.3837437538564075
 30
0.0
  0
VERTEX
  5
1A5D
  8
LAYER_1
 10
170.1629044615366126
 20
249.2591937538564082
 30
0.0
  0
VERTEX
  5
1A5E
  8
LAYER_1
 10
171.2968264615365968
 20
251.5131227538566066
 30
0.0
  0
VERTEX
  5
1A5F
  8
LAYER_1
 10
171.5396574615365921
 20
252.3749277538566105
 30
0.0
  0
VERTEX
  5
1A60
  8
LAYER_1
 10
171.5835174615363883
 20
253.0674477538564986
 30
0.0
  0
VERTEX
  5
1A61
  8
LAYER_1
 10
171.4412424615366035
 20
253.5962977538565895
 30
0.0
  0
VERTEX
  5
1A62
  8
LAYER_1
 10
171.1256714615365979
 20
253.9670947538562018
 30
0.0
  0
VERTEX
  5
1A63
  8
LAYER_1
 10
170.6496394615365091
 20
254.1854547538563907
 30
0.0
  0
VERTEX
  5
1A64
  8
LAYER_1
 10
170.0259844615366092
 20
254.2569937538559941
 30
0.0
  0
VERTEX
  5
1A65
  8
LAYER_1
 10
169.222611461536502
 20
254.1671347538568
 30
0.0
  0
VERTEX
  5
1A66
  8
LAYER_1
 10
168.3743124615363058
 20
253.8975587538562024
 30
0.0
  0
VERTEX
  5
1A67
  8
LAYER_1
 10
167.5131764615362897
 20
253.4482677538562996
 30
0.0
  0
VERTEX
  5
1A68
  8
LAYER_1
 10
166.6712944615366041
 20
252.8192637538564043
 30
0.0
  0
VERTEX
  5
1A69
  8
LAYER_1
 10
165.6283034615360066
 20
251.7826947538559921
 30
0.0
  0
VERTEX
  5
1A6A
  8
LAYER_1
 10
164.8484684615364984
 20
250.5856637538566076
 30
0.0
  0
VERTEX
  5
1A6B
  8
LAYER_1
 10
164.312530461536312
 20
249.1704047538561042
 30
0.0
  0
VERTEX
  5
1A6C
  8
LAYER_1
 10
164.0012344615365976
 20
247.4791537538559965
 30
0.0
  0
VERTEX
  5
1A6D
  8
LAYER_1
 10
160.9631934615364059
 20
242.7209727538561879
 30
0.0
  0
VERTEX
  5
1A6E
  8
LAYER_1
 10
157.5657144615362881
 20
237.7574037538562095
 30
0.0
  0
VERTEX
  5
1A6F
  8
LAYER_1
 10
157.2651194615365
 20
238.7426327538564976
 30
0.0
  0
VERTEX
  5
1A70
  8
LAYER_1
 10
156.7013704615366123
 20
239.220804753856612
 30
0.0
  0
VERTEX
  5
1A71
  8
LAYER_1
 10
155.9193964615365928
 20
239.1726667538557933
 30
0.0
  0
VERTEX
  5
1A72
  8
LAYER_1
 10
154.9641244615363007
 20
238.5789637538559873
 30
0.0
  0
VERTEX
  5
1A73
  8
LAYER_1
 10
153.986384461536403
 20
237.4846247538563944
 30
0.0
  0
VERTEX
  5
1A74
  8
LAYER_1
 10
153.3038934615364042
 20
236.1913177538565094
 30
0.0
  0
VERTEX
  5
1A75
  8
LAYER_1
 10
152.9038124615362904
 20
234.756805753856014
 30
0.0
  0
VERTEX
  5
1A76
  8
LAYER_1
 10
152.7733044615364122
 20
233.2388537538564037
 30
0.0
  0
VERTEX
  5
1A77
  8
LAYER_1
 10
152.7733344615361091
 20
233.2388237538567068
 30
0.0
  0
VERTEX
  5
1A78
  8
LAYER_1
 10
152.9574975968855028
 20
231.7865649379041031
 30
0.0
  0
VERTEX
  5
1A79
  8
LAYER_1
 10
151.0250334615365091
 20
229.1312287538565045
 30
0.0
  0
VERTEX
  5
1A7A
  8
LAYER_1
 10
149.8917824615363088
 20
227.9526497538564058
 30
0.0
  0
VERTEX
  5
1A7B
  8
LAYER_1
 10
148.7561254615366124
 20
227.0452477538565859
 30
0.0
  0
VERTEX
  5
1A7C
  8
LAYER_1
 10
147.6445374615364869
 20
226.4619747538559977
 30
0.0
  0
VERTEX
  5
1A7D
  8
LAYER_1
 10
146.5834944615359063
 20
226.2557837538566048
 30
0.0
  0
VERTEX
  5
1A7E
  8
LAYER_1
 10
146.1053254615362107
 20
226.3691757538566094
 30
0.0
  0
VERTEX
  5
1A7F
  8
LAYER_1
 10
145.7876154615362907
 20
226.7007937538560896
 30
0.0
  0
VERTEX
  5
1A80
  8
LAYER_1
 10
145.6111104615364127
 20
227.2377987538559978
 30
0.0
  0
VERTEX
  5
1A81
  8
LAYER_1
 10
145.5565544615365923
 20
227.9673537538560879
 30
0.0
  0
VERTEX
  5
1A82
  8
LAYER_1
 10
145.8047304615361952
 20
229.8415327538567112
 30
0.0
  0
VERTEX
  5
1A83
  8
LAYER_1
 10
146.515034461536402
 20
232.0751337538563916
 30
0.0
  0
VERTEX
  5
1A84
  8
LAYER_1
 10
147.7002994615357068
 20
234.5066417538565133
 30
0.0
  0
VERTEX
  5
1A85
  8
LAYER_1
 10
149.2706704615366959
 20
237.4066977538558092
 30
0.0
  0
VERTEX
  5
1A86
  8
LAYER_1
 10
150.8667154615363017
 20
240.3452717538561956
 30
0.0
  0
VERTEX
  5
1A87
  8
LAYER_1
 10
152.1290044615359989
 20
242.8923337538566045
 30
0.0
  0
VERTEX
  5
1A88
  8
LAYER_1
 10
152.6904784615358039
 20
244.1514107538563962
 30
0.0
  0
VERTEX
  5
1A89
  8
LAYER_1
 10
153.0521804615366079
 20
245.3527227538561988
 30
0.0
  0
VERTEX
  5
1A8A
  8
LAYER_1
 10
153.2325624615361903
 20
246.4834327538563912
 30
0.0
  0
VERTEX
  5
1A8B
  8
LAYER_1
 10
153.250077461536506
 20
247.5307027538565876
 30
0.0
  0
VERTEX
  5
1A8C
  8
LAYER_1
 10
153.1231754615363059
 20
248.481696753855914
 30
0.0
  0
VERTEX
  5
1A8D
  8
LAYER_1
 10
152.8703124615362867
 20
249.3235777538560001
 30
0.0
  0
VERTEX
  5
1A8E
  8
LAYER_1
 10
152.0605044615363965
 20
250.6286537538562982
 30
0.0
  0
VERTEX
  5
1A8F
  8
LAYER_1
 10
151.4015484615362936
 20
251.1795647538565959
 30
0.0
  0
VERTEX
  5
1A90
  8
LAYER_1
 10
150.742593461535904
 20
251.2876087538562047
 30
0.0
  0
VERTEX
  5
1A91
  8
LAYER_1
 10
150.0579634615363034
 20
250.9463647538559883
 30
0.0
  0
VERTEX
  5
1A92
  8
LAYER_1
 10
149.3219844615362888
 20
250.1494137538562086
 30
0.0
  0
VERTEX
  5
1A93
  8
LAYER_1
 10
147.1461454615362925
 20
246.7754677538559918
 30
0.0
  0
VERTEX
  5
1A94
  8
LAYER_1
 10
144.7007344615363138
 20
242.4644337538562127
 30
0.0
  0
VERTEX
  5
1A95
  8
LAYER_1
 10
142.4093654615361118
 20
237.9223397538563063
 30
0.0
  0
VERTEX
  5
1A96
  8
LAYER_1
 10
141.5857249729056093
 20
235.9676054690415867
 30
0.0
  0
VERTEX
  5
1A97
  8
LAYER_1
 10
141.4857344615365946
 20
235.8406437538559999
 30
0.0
  0
VERTEX
  5
1A98
  8
LAYER_1
 10
139.3120374615363062
 20
232.2741467538558027
 30
0.0
  0
VERTEX
  5
1A99
  8
LAYER_1
 10
138.0968204615365096
 20
230.6633937538562975
 30
0.0
  0
VERTEX
  5
1A9A
  8
LAYER_1
 10
136.8302554615366091
 20
229.2339617538563914
 30
0.0
  0
VERTEX
  5
1A9B
  8
LAYER_1
 10
135.5380174615366116
 20
228.0355907538560132
 30
0.0
  0
VERTEX
  5
1A9C
  8
LAYER_1
 10
134.2457784615361049
 20
227.1180267538557018
 30
0.0
  0
VERTEX
  5
1A9D
  8
LAYER_1
 10
132.9792134615364034
 20
226.5310097538558978
 30
0.0
  0
VERTEX
  5
1A9E
  8
LAYER_1
 10
131.7639944615364982
 20
226.3242837538564913
 30
0.0
  0
VERTEX
  5
1A9F
  8
LAYER_1
 10
131.185267461536597
 20
226.5318117538562035
 30
0.0
  0
VERTEX
  5
1AA0
  8
LAYER_1
 10
130.7798374615364025
 20
227.1116087538565012
 30
0.0
  0
VERTEX
  5
1AA1
  8
LAYER_1
 10
130.541285461536404
 20
227.9994907538564917
 30
0.0
  0
VERTEX
  5
1AA2
  8
LAYER_1
 10
130.4631944615362897
 20
229.1312737538559929
 30
0.0
  0
VERTEX
  5
1AA3
  8
LAYER_1
 10
130.6236544615358071
 20
231.0525147538558031
 30
0.0
  0
VERTEX
  5
1AA4
  8
LAYER_1
 10
131.0793624615361068
 20
233.2048197538566114
 30
0.0
  0
VERTEX
  5
1AA5
  8
LAYER_1
 10
131.7918054615365975
 20
235.5625147538557087
 30
0.0
  0
VERTEX
  5
1AA6
  8
LAYER_1
 10
132.7224744615363079
 20
238.0999237538559896
 30
0.0
  0
VERTEX
  5
1AA7
  8
LAYER_1
 10
135.0359074615361124
 20
239.7962577538561106
 30
0.0
  0
VERTEX
  5
1AA8
  8
LAYER_1
 10
137.4046994615362109
 20
241.8247467538560898
 30
0.0
  0
VERTEX
  5
1AA9
  8
LAYER_1
 10
139.749423461536793
 20
244.1388537538564947
 30
0.0
  0
VERTEX
  5
1AAA
  8
LAYER_1
 10
141.9906514615364017
 20
246.6920437538560122
 30
0.0
  0
VERTEX
  5
1AAB
  8
LAYER_1
 10
144.0489584615366141
 20
249.4377817538560862
 30
0.0
  0
VERTEX
  5
1AAC
  8
LAYER_1
 10
145.8449164615362861
 20
252.3295317538562017
 30
0.0
  0
VERTEX
  5
1AAD
  8
LAYER_1
 10
147.2990974615362916
 20
255.3207567538561023
 30
0.0
  0
VERTEX
  5
1AAE
  8
LAYER_1
 10
148.3320744615363083
 20
258.3649237538562033
 30
0.0
  0
VERTEX
  5
1AAF
  8
LAYER_1
 10
148.6658344615362068
 20
259.8796647538558773
 30
0.0
  0
VERTEX
  5
1AB0
  8
LAYER_1
 10
148.7428544615364103
 20
261.2403637538558883
 30
0.0
  0
VERTEX
  5
1AB1
  8
LAYER_1
 10
148.7427644615360123
 20
261.2403737538559767
 30
0.0
  0
VERTEX
  5
1AB2
  8
LAYER_1
 10
148.6015594615363113
 20
262.5893097538560141
 30
0.0
  0
VERTEX
  5
1AB3
  8
LAYER_1
 10
148.1779454615364955
 20
263.9189887538558992
 30
0.0
  0
VERTEX
  5
1AB4
  8
LAYER_1
 10
147.4719204615360013
 20
265.1588107538560166
 30
0.0
  0
VERTEX
  5
1AB5
  8
LAYER_1
 10
146.4834844615359941
 20
266.2381737538565858
 30
0.0
  0
VERTEX
  5
1AB6
  8
LAYER_1
 10
145.5185874615366117
 20
266.8661067538557177
 30
0.0
  0
VERTEX
  5
1AB7
  8
LAYER_1
 10
144.5665244615366021
 20
266.9484777538564231
 30
0.0
  0
VERTEX
  5
1AB8
  8
LAYER_1
 10
143.6144614615367061
 20
266.555886753856214
 30
0.0
  0
VERTEX
  5
1AB9
  8
LAYER_1
 10
142.6495644615363858
 20
265.7589337538565815
 30
0.0
  0
VERTEX
  5
1ABA
  8
LAYER_1
 10
140.0973104615360114
 20
262.8649027538563132
 30
0.0
  0
VERTEX
  5
1ABB
  8
LAYER_1
 10
137.5201854615366983
 20
259.5255977538565162
 30
0.0
  0
VERTEX
  5
1ABC
  8
LAYER_1
 10
134.9895954615363109
 20
255.8220487538561088
 30
0.0
  0
VERTEX
  5
1ABD
  8
LAYER_1
 10
132.5769464615364939
 20
251.8352877538559937
 30
0.0
  0
VERTEX
  5
1ABE
  8
LAYER_1
 10
130.3536434615365067
 20
247.6463447538561127
 30
0.0
  0
VERTEX
  5
1ABF
  8
LAYER_1
 10
128.3910924615366014
 20
243.3362507538558077
 30
0.0
  0
VERTEX
  5
1AC0
  8
LAYER_1
 10
126.7606974615362958
 20
238.9860367538560979
 30
0.0
  0
VERTEX
  5
1AC1
  8
LAYER_1
 10
125.8798466963721978
 20
235.892011043044306
 30
0.0
  0
SEQEND
  5
1AC2
  8
LAYER_1
  0
POLYLINE
  5
360
  8
LAYER_1
 66
     1
 10
0.0
 20
0.0
 30
0.0
 70
     1
  0
VERTEX
  5
1AC3
  8
LAYER_1
 10
93.419189461536547
 20
247.543511753856194
 30
0.0
  0
VERTEX
  5
1AC4
  8
LAYER_1
 10
93.415979461536665
 20
246.9896557538561126
 30
0.0
  0
VERTEX
  5
1AC5
  8
LAYER_1
 10
92.9281804615366838
 20
245.4085877538560112
 30
0.0
  0
VERTEX
  5
1AC6
  8
LAYER_1
 10
91.9269084615362857
 20
243.4424147538562124
 30
0.0
  0
VERTEX
  5
1AC7
  8
LAYER_1
 10
90.5662044615365573
 20
241.3863837538559949
 30
0.0
  0
VERTEX
  5
1AC8
  8
LAYER_1
 10
89.4066134615364376
 20
239.9967997538560098
 30
0.0
  0
VERTEX
  5
1AC9
  8
LAYER_1
 10
88.067306461536262
 20
238.7420017538561865
 30
0.0
  0
VERTEX
  5
1ACA
  8
LAYER_1
 10
86.6766514615365651
 20
237.8337967538560065
 30
0.0
  0
VERTEX
  5
1ACB
  8
LAYER_1
 10
86.0021834615364043
 20
237.5758567538557031
 30
0.0
  0
VERTEX
  5
1ACC
  8
LAYER_1
 10
85.3630144615366078
 20
237.4839937538557137
 30
0.0
  0
VERTEX
  5
1ACD
  8
LAYER_1
 10
84.6355944615366553
 20
237.595247753856313
 30
0.0
  0
VERTEX
  5
1ACE
  8
LAYER_1
 10
83.8568244615361067
 20
237.9632337538556044
 30
0.0
  0
VERTEX
  5
1ACF
  8
LAYER_1
 10
85.1612304615362632
 20
240.3104997538561918
 30
0.0
  0
VERTEX
  5
1AD0
  8
LAYER_1
 10
86.564319461536428
 20
242.4026337538562075
 30
0.0
  0
VERTEX
  5
1AD1
  8
LAYER_1
 10
87.9978964615366692
 20
244.2091487538559988
 30
0.0
  0
VERTEX
  5
1AD2
  8
LAYER_1
 10
89.3937654615363755
 20
245.6995577538556859
 30
0.0
  0
VERTEX
  5
1AD3
  8
LAYER_1
 10
90.6837314615364534
 20
246.8433717538559904
 30
0.0
  0
VERTEX
  5
1AD4
  8
LAYER_1
 10
91.7995984615362062
 20
247.6101047538560067
 30
0.0
  0
VERTEX
  5
1AD5
  8
LAYER_1
 10
92.6731714615364837
 20
247.9692677538560019
 30
0.0
  0
VERTEX
  5
1AD6
  8
LAYER_1
 10
93.2362544615362765
 20
247.8903737538562098
 30
0.0
  0
VERTEX
  5
1AD7
  8
LAYER_1
 10
93.236264461536706
 20
247.8903737538562098
 30
0.0
  0
SEQEND
  5
1AD8
  8
LAYER_1
  0
POLYLINE
  5
361
  8
LAYER_1
 66
     1
 10
0.0
 20
0.0
 30
0.0
 70
     1
  0
VERTEX
  5
1AD9
  8
LAYER_1
 10
74.9812864615363139
 20
240.7069047538562074
 30
0.0
  0
VERTEX
  5
1ADA
  8
LAYER_1
 10
74.3422544615365126
 20
241.3459367538557103
 30
0.0
  0
VERTEX
  5
1ADB
  8
LAYER_1
 10
73.57886546153631
 20
241.8910997538559968
 30
0.0
  0
VERTEX
  5
1ADC
  8
LAYER_1
 10
72.683898461536586
 20
242.3303597538561007
 30
0.0
  0
VERTEX
  5
1ADD
  8
LAYER_1
 10
71.6501334615364556
 20
242.651681753855712
 30
0.0
  0
VERTEX
  5
1ADE
  8
LAYER_1
 10
70.4703484615366449
 20
242.8430307538559987
 30
0.0
  0
VERTEX
  5
1ADF
  8
LAYER_1
 10
69.1373244615361671
 20
242.8923737538557077
 30
0.0
  0
VERTEX
  5
1AE0
  8
LAYER_1
 10
65.9880264615363643
 20
242.6441947538561124
 30
0.0
  0
VERTEX
  5
1AE1
  8
LAYER_1
 10
62.6333344615364567
 20
242.1392837538560912
 30
0.0
  0
VERTEX
  5
1AE2
  8
LAYER_1
 10
58.705270461536287
 20
241.4717627538562112
 30
0.0
  0
VERTEX
  5
1AE3
  8
LAYER_1
 10
54.6231644615364473
 20
241.1123337538556939
 30
0.0
  0
VERTEX
  5
1AE4
  8
LAYER_1
 10
53.7844914615362484
 20
240.9893147538560072
 30
0.0
  0
VERTEX
  5
1AE5
  8
LAYER_1
 10
53.3052494615363486
 20
240.6416517538559958
 30
0.0
  0
VERTEX
  5
1AE6
  8
LAYER_1
 10
53.1597644615361205
 20
240.1014367538560066
 30
0.0
  0
VERTEX
  5
1AE7
  8
LAYER_1
 10
53.3223644615364734
 20
239.4007637538558981
 30
0.0
  0
VERTEX
  5
1AE8
  8
LAYER_1
 10
53.7800754615364696
 20
238.6330937538558032
 30
0.0
  0
VERTEX
  5
1AE9
  8
LAYER_1
 10
54.3781904615358087
 20
237.9320147538560093
 30
0.0
  0
VERTEX
  5
1AEA
  8
LAYER_1
 10
55.1094874615360766
 20
237.3127707538558866
 30
0.0
  0
VERTEX
  5
1AEB
  8
LAYER_1
 10
55.9667464615364025
 20
236.7906067538561103
 30
0.0
  0
VERTEX
  5
1AEC
  8
LAYER_1
 10
56.9427474615364204
 20
236.3807647538559991
 30
0.0
  0
VERTEX
  5
1AED
  8
LAYER_1
 10
58.0302674615364396
 20
236.0984897538556027
 30
0.0
  0
VERTEX
  5
1AEE
  8
LAYER_1
 10
59.222086461536577
 20
235.959024753856113
 30
0.0
  0
VERTEX
  5
1AEF
  8
LAYER_1
 10
60.510984461536367
 20
235.9776137538559908
 30
0.0
  0
VERTEX
  5
1AF0
  8
LAYER_1
 10
65.3033944615366124
 20
236.6622437538559893
 30
0.0
  0
VERTEX
  5
1AF1
  8
LAYER_1
 10
64.0253294615364155
 20
234.5118087538560872
 30
0.0
  0
VERTEX
  5
1AF2
  8
LAYER_1
 10
62.6269194615366303
 20
232.5908317538560937
 30
0.0
  0
VERTEX
  5
1AF3
  8
LAYER_1
 10
61.1418604615360906
 20
230.9169647538558934
 30
0.0
  0
VERTEX
  5
1AF4
  8
LAYER_1
 10
59.6038484615363302
 20
229.5078577538562001
 30
0.0
  0
VERTEX
  5
1AF5
  8
LAYER_1
 10
58.0465794615364317
 20
228.381160753855994
 30
0.0
  0
VERTEX
  5
1AF6
  8
LAYER_1
 10
56.5037494615358611
 20
227.5545237538559888
 30
0.0
  0
VERTEX
  5
1AF7
  8
LAYER_1
 10
55.0090564615364528
 20
227.0455977538559011
 30
0.0
  0
VERTEX
  5
1AF8
  8
LAYER_1
 10
53.5961944615365411
 20
226.8720337538557033
 30
0.0
  0
VERTEX
  5
1AF9
  8
LAYER_1
 10
52.7995084615361918
 20
226.9588157538561006
 30
0.0
  0
VERTEX
  5
1AFA
  8
LAYER_1
 10
52.0621934615365589
 20
227.2325327538557076
 30
0.0
  0
VERTEX
  5
1AFB
  8
LAYER_1
 10
51.3986914615364512
 20
227.7132437538558065
 30
0.0
  0
VERTEX
  5
1AFC
  8
LAYER_1
 10
50.8234414615363619
 20
228.4210067538558917
 30
0.0
  0
VERTEX
  5
1AFD
  8
LAYER_1
 10
50.3508874615361819
 20
229.3758777538556046
 30
0.0
  0
VERTEX
  5
1AFE
  8
LAYER_1
 10
49.9954684615364329
 20
230.5979157538556876
 30
0.0
  0
VERTEX
  5
1AFF
  8
LAYER_1
 10
49.7716274615364398
 20
232.1071787538560045
 30
0.0
  0
VERTEX
  5
1B00
  8
LAYER_1
 10
49.6938044615363523
 20
233.9237237538559953
 30
0.0
  0
VERTEX
  5
1B01
  8
LAYER_1
 10
49.9537504615364867
 20
237.4527787538559096
 30
0.0
  0
VERTEX
  5
1B02
  8
LAYER_1
 10
50.7977714615363709
 20
241.3605227538556051
 30
0.0
  0
VERTEX
  5
1B03
  8
LAYER_1
 10
51.4688974615365566
 20
243.4062577538560106
 30
0.0
  0
VERTEX
  5
1B04
  8
LAYER_1
 10
52.322144461536567
 20
245.4864917538560007
 30
0.0
  0
VERTEX
  5
1B05
  8
LAYER_1
 10
53.3695494615363515
 20
247.5811667538557117
 30
0.0
  0
VERTEX
  5
1B06
  8
LAYER_1
 10
54.6231444615364978
 20
249.6702237538559075
 30
0.0
  0
VERTEX
  5
1B07
  8
LAYER_1
 10
57.1021194615362475
 20
253.0151537538561115
 30
0.0
  0
VERTEX
  5
1B08
  8
LAYER_1
 10
59.8209804615360881
 20
255.9805987538562135
 30
0.0
  0
VERTEX
  5
1B09
  8
LAYER_1
 10
62.6345114615363272
 20
258.5144057538560105
 30
0.0
  0
VERTEX
  5
1B0A
  8
LAYER_1
 10
65.3974954615362805
 20
260.5644267538560257
 30
0.0
  0
VERTEX
  5
1B0B
  8
LAYER_1
 10
67.9647174615366509
 20
262.0785087538556013
 30
0.0
  0
VERTEX
  5
1B0C
  8
LAYER_1
 10
70.1909604615362497
 20
263.0045027538561158
 30
0.0
  0
VERTEX
  5
1B0D
  8
LAYER_1
 10
71.9310084615366208
 20
263.2902577538562809
 30
0.0
  0
VERTEX
  5
1B0E
  8
LAYER_1
 10
72.5733284615363061
 20
263.176748753855918
 30
0.0
  0
VERTEX
  5
1B0F
  8
LAYER_1
 10
73.0396444615363123
 20
262.8836237538562841
 30
0.0
  0
VERTEX
  5
1B10
  8
LAYER_1
 10
73.2550624615362835
 20
262.5430477538558875
 30
0.0
  0
VERTEX
  5
1B11
  8
LAYER_1
 10
73.3380994615359754
 20
262.0716977538559718
 30
0.0
  0
VERTEX
  5
1B12
  8
LAYER_1
 10
73.11666446153626
 20
260.6500227538559216
 30
0.0
  0
VERTEX
  5
1B13
  8
LAYER_1
 10
72.3945934615363313
 20
258.4453007538559746
 30
0.0
  0
VERTEX
  5
1B14
  8
LAYER_1
 10
71.1911444615355578
 20
255.2842337538561992
 30
0.0
  0
VERTEX
  5
1B15
  8
LAYER_1
 10
70.677671461535823
 20
253.5555427538556899
 30
0.0
  0
VERTEX
  5
1B16
  8
LAYER_1
 10
70.5749774615365766
 20
252.340323753856012
 30
0.0
  0
VERTEX
  5
1B17
  8
LAYER_1
 10
70.7771574615358787
 20
250.8833467538561877
 30
0.0
  0
VERTEX
  5
1B18
  8
LAYER_1
 10
71.3195124615363909
 20
249.6702687538559076
 30
0.0
  0
VERTEX
  5
1B19
  8
LAYER_1
 10
72.1057674615363737
 20
248.6625777538561977
 30
0.0
  0
VERTEX
  5
1B1A
  8
LAYER_1
 10
73.0396474615359779
 20
247.8217637538560041
 30
0.0
  0
VERTEX
  5
1B1B
  8
LAYER_1
 10
73.9253884615358032
 20
247.3489437538559912
 30
0.0
  0
VERTEX
  5
1B1C
  8
LAYER_1
 10
74.6314124615360726
 20
247.3767587538559951
 30
0.0
  0
VERTEX
  5
1B1D
  8
LAYER_1
 10
75.1577214615363829
 20
247.7640037538558033
 30
0.0
  0
VERTEX
  5
1B1E
  8
LAYER_1
 10
75.5043174615362602
 20
248.3694737538558002
 30
0.0
  0
VERTEX
  5
1B1F
  8
LAYER_1
 10
78.1059074615364608
 20
254.8049937538557117
 30
0.0
  0
VERTEX
  5
1B20
  8
LAYER_1
 10
78.781979461536892
 20
256.8075367538560272
 30
0.0
  0
VERTEX
  5
1B21
  8
LAYER_1
 10
78.9959264615364134
 20
258.5019937538560271
 30
0.0
  0
VERTEX
  5
1B22
  8
LAYER_1
 10
78.80551346153662
 20
260.1108737538560263
 30
0.0
  0
VERTEX
  5
1B23
  8
LAYER_1
 10
78.1401394615359806
 20
262.027837753856204
 30
0.0
  0
VERTEX
  5
1B24
  8
LAYER_1
 10
77.5852154615364071
 20
263.0376667538557172
 30
0.0
  0
VERTEX
  5
1B25
  8
LAYER_1
 10
76.8585984615363884
 20
264.0474967538556825
 30
0.0
  0
VERTEX
  5
1B26
  8
LAYER_1
 10
75.9426394615364444
 20
265.0316537538556076
 30
0.0
  0
VERTEX
  5
1B27
  8
LAYER_1
 10
74.8196864615363921
 20
265.9644637538557959
 30
0.0
  0
VERTEX
  5
1B28
  8
LAYER_1
 10
73.8515764615361405
 20
266.5143047538559244
 30
0.0
  0
VERTEX
  5
1B29
  8
LAYER_1
 10
72.7230064615363005
 20
266.9229447538559725
 30
0.0
  0
VERTEX
  5
1B2A
  8
LAYER_1
 10
71.4789064615364111
 20
267.177543753855673
 30
0.0
  0
VERTEX
  5
1B2B
  8
LAYER_1
 10
70.1642064615362813
 20
267.2652637538557201
 30
0.0
  0
VERTEX
  5
1B2C
  8
LAYER_1
 10
67.8450214615359926
 20
267.1112197538560054
 30
0.0
  0
VERTEX
  5
1B2D
  8
LAYER_1
 10
65.1664064615364111
 20
266.4437037538560276
 30
0.0
  0
VERTEX
  5
1B2E
  8
LAYER_1
 10
63.6485364615362812
 20
265.8248277538560274
 30
0.0
  0
VERTEX
  5
1B2F
  8
LAYER_1
 10
62.0156374615358601
 20
264.9778977538558138
 30
0.0
  0
VERTEX
  5
1B30
  8
LAYER_1
 10
58.5222874615365924
 20
262.6504187538557176
 30
0.0
  0
VERTEX
  5
1B31
  8
LAYER_1
 10
54.9214284615364718
 20
259.5623577538556788
 30
0.0
  0
VERTEX
  5
1B32
  8
LAYER_1
 10
53.1541444615359921
 20
257.7647007538557204
 30
0.0
  0
VERTEX
  5
1B33
  8
LAYER_1
 10
51.4481364615361016
 20
255.8148067538560042
 30
0.0
  0
VERTEX
  5
1B34
  8
LAYER_1
 10
49.8327884615363104
 20
253.7253117538558058
 30
0.0
  0
VERTEX
  5
1B35
  8
LAYER_1
 10
48.3374844615364907
 20
251.5088537538559024
 30
0.0
  0
VERTEX
  5
1B36
  8
LAYER_1
 10
46.9916084615361598
 20
249.1780687538557117
 30
0.0
  0
VERTEX
  5
1B37
  8
LAYER_1
 10
45.8245454615356067
 20
246.7455917538559049
 30
0.0
  0
VERTEX
  5
1B38
  8
LAYER_1
 10
44.8656804615369111
 20
244.2240607538560937
 30
0.0
  0
VERTEX
  5
1B39
  8
LAYER_1
 10
44.1443954615363907
 20
241.6261117538558949
 30
0.0
  0
VERTEX
  5
1B3A
  8
LAYER_1
 10
43.6900764615366768
 20
238.9643807538560054
 30
0.0
  0
VERTEX
  5
1B3B
  8
LAYER_1
 10
43.5321064615364719
 20
236.2515037538560136
 30
0.0
  0
VERTEX
  5
1B3C
  8
LAYER_1
 10
43.6313244615363018
 20
234.2369257538557861
 30
0.0
  0
VERTEX
  5
1B3D
  8
LAYER_1
 10
43.9150714615362503
 20
232.4453887538560082
 30
0.0
  0
VERTEX
  5
1B3E
  8
LAYER_1
 10
44.3624884615365715
 20
230.8624497538557137
 30
0.0
  0
VERTEX
  5
1B3F
  8
LAYER_1
 10
44.9527154615355471
 20
229.4736687538558897
 30
0.0
  0
VERTEX
  5
1B40
  8
LAYER_1
 10
45.6648914615362429
 20
228.2646047538559912
 30
0.0
  0
VERTEX
  5
1B41
  8
LAYER_1
 10
46.4781564615362583
 20
227.2208167538558996
 30
0.0
  0
VERTEX
  5
1B42
  8
LAYER_1
 10
48.3245164615362484
 20
225.5713037538558012
 30
0.0
  0
VERTEX
  5
1B43
  8
LAYER_1
 10
49.9526514615364121
 20
224.5358007538557104
 30
0.0
  0
VERTEX
  5
1B44
  8
LAYER_1
 10
51.6449724615364119
 20
223.8597277538559069
 30
0.0
  0
VERTEX
  5
1B45
  8
LAYER_1
 10
53.3886404615364825
 20
223.491736753855605
 30
0.0
  0
VERTEX
  5
1B46
  8
LAYER_1
 10
55.1708164615366385
 20
223.380483753855998
 30
0.0
  0
VERTEX
  5
1B47
  8
LAYER_1
 10
57.832316461535882
 20
223.6029917538558038
 30
0.0
  0
VERTEX
  5
1B48
  8
LAYER_1
 10
60.2370764615357928
 20
224.1335837538561009
 30
0.0
  0
VERTEX
  5
1B49
  8
LAYER_1
 10
61.7428594615363124
 20
224.7242097538558028
 30
0.0
  0
VERTEX
  5
1B4A
  8
LAYER_1
 10
63.5286434615364612
 20
225.7392537538563033
 30
0.0
  0
VERTEX
  5
1B4B
  8
LAYER_1
 10
65.4251444615361493
 20
227.121749753855994
 30
0.0
  0
VERTEX
  5
1B4C
  8
LAYER_1
 10
67.2630804615363047
 20
228.8147347538557028
 30
0.0
  0
VERTEX
  5
1B4D
  8
LAYER_1
 10
68.8731654615358906
 20
230.7612447538558911
 30
0.0
  0
VERTEX
  5
1B4E
  8
LAYER_1
 10
70.0861154615364086
 20
232.9043157538559115
 30
0.0
  0
VERTEX
  5
1B4F
  8
LAYER_1
 10
70.4907634615366021
 20
234.0317597538561074
 30
0.0
  0
VERTEX
  5
1B50
  8
LAYER_1
 10
70.732647461536402
 20
235.1869837538557135
 30
0.0
  0
VERTEX
  5
1B51
  8
LAYER_1
 10
70.7906044615364038
 20
236.3628647538558027
 30
0.0
  0
VERTEX
  5
1B52
  8
LAYER_1
 10
70.6434764615363235
 20
237.5522837538559884
 30
0.0
  0
VERTEX
  5
1B53
  8
LAYER_1
 10
72.7401564615366567
 20
237.663543753856203
 30
0.0
  0
VERTEX
  5
1B54
  8
LAYER_1
 10
74.4774064615361056
 20
237.6207837538559886
 30
0.0
  0
VERTEX
  5
1B55
  8
LAYER_1
 10
75.568533461536461
 20
237.664640753856105
 30
0.0
  0
VERTEX
  5
1B56
  8
LAYER_1
 10
76.069168461535881
 20
237.9716537538558896
 30
0.0
  0
VERTEX
  5
1B57
  8
LAYER_1
 10
76.1333534615360605
 20
238.4968947538559974
 30
0.0
  0
VERTEX
  5
1B58
  8
LAYER_1
 10
75.9151264615364454
 20
239.1954337538562072
 30
0.0
  0
VERTEX
  5
1B59
  8
LAYER_1
 10
75.9151644615363637
 20
239.1953737538555913
 30
0.0
  0
SEQEND
  5
1B5A
  8
LAYER_1
  0
CIRCLE
  5
362
  8
0
  6
CONTINUOUS
 10
20.5377243651313108
 20
280.2652637538557201
 30
0.0
 40
0.95
  0
CIRCLE
  5
363
  8
0
  6
CONTINUOUS
 10
200.9420174615368921
 20
280.2652637538553222
 30
0.0
 40
0.95
  0
CIRCLE
  5
364
  8
0
  6
CONTINUOUS
 10
200.9420174615366932
 20
210.528307753856609
 30
0.0
 40
0.95
  0
CIRCLE
  5
365
  8
0
  6
CONTINUOUS
 10
20.5377243651312007
 20
210.5283077538566943
 30
0.0
 40
0.95
  0
POLYLINE
  5
366
  8
0
  6
CONTINUOUS
 66
     1
 10
0.0
 20
0.0
 30
0.0
 70
     1
  0
VERTEX
  5
1B5B
  8
0
  6
CONTINUOUS
 10
5.5377243651314227
 20
10.7267857538562499
 30
0.0
 42
0.4142135623730951
  0
VERTEX
  5
1B5C
  8
0
  6
CONTINUOUS
 10
11.5377243651314192
 20
4.7267857538562552
 30
0.0
  0
VERTEX
  5
1B5D
  8
0
  6
CONTINUOUS
 10
355.7764743651314916
 20
4.7267857538562552
 30
0.0
 42
0.4142135623730951
  0
VERTEX
  5
1B5E
  8
0
  6
CONTINUOUS
 10
361.7764743651314916
 20
10.7267857538562499
 30
0.0
  0
VERTEX
  5
1B5F
  8
0
  6
CONTINUOUS
 10
361.7764743651314916
 20
88.7267857538562481
 30
0.0
 42
0.4142135623730951
  0
VERTEX
  5
1B60
  8
0
  6
CONTINUOUS
 10
355.7764743651314916
 20
94.7267857538562765
 30
0.0
  0
VERTEX
  5
1B61
  8
0
  6
CONTINUOUS
 10
351.2764743651314916
 20
94.7267857538562765
 30
0.0
  0
VERTEX
  5
1B62
  8
0
  6
CONTINUOUS
 10
279.0837279912421991
 20
94.7267857538562765
 30
0.0
  0
VERTEX
  5
1B63
  8
0
  6
CONTINUOUS
 10
198.9330037264099076
 20
77.6902233887618792
 30
0.0
  0
VERTEX
  5
1B64
  8
0
  6
CONTINUOUS
 10
183.407724365130008
 20
77.6902233887618792
 30
0.0
  0
VERTEX
  5
1B65
  8
0
  6
CONTINUOUS
 10
167.8824450038505915
 20
77.6902233887618792
 30
0.0
  0
VERTEX
  5
1B66
  8
0
  6
CONTINUOUS
 10
87.7317207390180585
 20
94.7267857538562765
 30
0.0
  0
VERTEX
  5
1B67
  8
0
  6
CONTINUOUS
 10
11.5377243651314192
 20
94.7267857538562765
 30
0.0
 42
0.4142135623730951
  0
VERTEX
  5
1B68
  8
0
  6
CONTINUOUS
 10
5.5377243651314227
 20
88.7267857538562481
 30
0.0
  0
SEQEND
  5
1B69
  8
0
  6
CONTINUOUS
  0
LINE
  5
367
  8
0
 10
336.3488110839269893
 20
290.5358352960486741
 30
0.0
 11
339.3488110839269893
 21
290.5358352960486741
 31
0.0
  0
POLYLINE
  5
368
  8
0
 66
     1
 10
0.0
 20
0.0
 30
0.0
  0
VERTEX
  5
1B6A
  8
0
 10
336.3488110839269893
 20
223.5358352960487878
 30
0.0
  0
VERTEX
  5
1B6B
  8
0
 10
336.3488110839269893
 20
200.5358352960489015
 30
0.0
  0
VERTEX
  5
1B6C
  8
0
 10
339.6309958531439861
 20
202.8340458132518052
 30
0.0
  0
VERTEX
  5
1B6D
  8
0
 10
349.2577335326055277
 20
281.2375324460211914
 30
0.0
 42
0.1853390449315343
  0
VERTEX
  5
1B6E
  8
0
 10
348.9109453179008256
 20
282.6284240055338159
 30
0.0
  0
VERTEX
  5
1B6F
  8
0
 10
343.9712863120320208
 20
289.6829881687507964
 30
0.0
 42
0.244698443229034
  0
VERTEX
  5
1B70
  8
0
 10
342.3329822234539961
 20
290.5358352960486741
 30
0.0
  0
VERTEX
  5
1B71
  8
0
 10
336.3488110839269893
 20
290.5358352960486741
 30
0.0
  0
VERTEX
  5
1B72
  8
0
 10
336.3488110839269893
 20
267.5358352960487878
 30
0.0
  0
SEQEND
  5
1B73
  8
0
  0
POLYLINE
  5
369
  8
0
 66
     1
 10
0.0
 20
0.0
 30
0.0
  0
VERTEX
  5
1B74
  8
0
 10
336.3488110839269893
 20
264.5358352960487878
 30
0.0
  0
VERTEX
  5
1B75
  8
0
 10
336.3488110839269893
 20
226.5358352960487878
 30
0.0
  0
SEQEND
  5
1B76
  8
0
  0
POLYLINE
  5
36A
  8
0
 66
     1
 10
0.0
 20
0.0
 30
0.0
  0
VERTEX
  5
1B77
  8
0
 10
341.1183077888372281
 20
231.3582475602499926
 30
0.0
  0
VERTEX
  5
1B78
  8
0
 10
342.1164430332740949
 20
239.4874067729143121
 30
0.0
  0
SEQEND
  5
1B79
  8
0
  0
POLYLINE
  5
36B
  8
0
 66
     1
 10
0.0
 20
0.0
 30
0.0
  0
VERTEX
  5
1B7A
  8
0
 10
343.3023062130732797
 20
249.1454873253788094
 30
0.0
  0
VERTEX
  5
1B7B
  8
0
 10
344.6165433466737227
 20
259.8490898299265268
 30
0.0
  0
SEQEND
  5
1B7C
  8
0
  0
POLYLINE
  5
36C
  8
0
 66
     1
 10
0.0
 20
0.0
 30
0.0
  0
VERTEX
  5
1B7D
  8
0
 10
345.1973891951089968
 20
264.5796996408344057
 30
0.0
  0
VERTEX
  5
1B7E
  8
0
 10
346.3997581582863745
 20
274.3722090111976968
 30
0.0
  0
SEQEND
  5
1B7F
  8
0
  0
POLYLINE
  5
36D
  8
0
 66
     1
 10
0.0
 20
0.0
 30
0.0
  0
VERTEX
  5
1B80
  8
0
 10
338.3488110839269893
 20
281.3935377292509088
 30
0.0
  0
VERTEX
  5
1B81
  8
0
 10
338.3488110839269893
 20
270.951425922658018
 30
0.0
  0
SEQEND
  5
1B82
  8
0
  0
POLYLINE
  5
36E
  8
0
 66
     1
 10
0.0
 20
0.0
 30
0.0
  0
VERTEX
  5
1B83
  8
0
 10
338.3488110839269893
 20
260.5093141160648997
 30
0.0
  0
VERTEX
  5
1B84
  8
0
 10
338.3488110839269893
 20
249.8140638850854884
 30
0.0
  0
SEQEND
  5
1B85
  8
0
  0
POLYLINE
  5
36F
  8
0
 66
     1
 10
0.0
 20
0.0
 30
0.0
  0
VERTEX
  5
1B86
  8
0
 10
338.3488110839269893
 20
243.3878527246174883
 30
0.0
  0
VERTEX
  5
1B87
  8
0
 10
338.3488110839269893
 20
229.8446480853631897
 30
0.0
  0
SEQEND
  5
1B88
  8
0
  0
POLYLINE
  5
370
  8
0
 66
     1
 10
0.0
 20
0.0
 30
0.0
  0
VERTEX
  5
1B89
  8
0
 10
341.1183077888372281
 20
231.3582475602499926
 30
0.0
  0
VERTEX
  5
1B8A
  8
0
 10
342.1164430332740949
 20
239.4874067729143121
 30
0.0
  0
SEQEND
  5
1B8B
  8
0
  0
POLYLINE
  5
371
  8
0
 66
     1
 10
0.0
 20
0.0
 30
0.0
  0
VERTEX
  5
1B8C
  8
0
 10
338.3488110839269893
 20
243.3878527246174883
 30
0.0
  0
VERTEX
  5
1B8D
  8
0
 10
338.3488110839269893
 20
229.8446480853631897
 30
0.0
  0
SEQEND
  5
1B8E
  8
0
  0
LINE
  5
372
  8
0
 10
336.3488110839269893
 20
290.5358352960486741
 30
0.0
 11
336.3488110839269893
 21
280.5358352960487878
 31
0.0
  0
LINE
  5
373
  8
0
 10
336.3488110839269893
 20
200.5358352960489015
 30
0.0
 11
336.3488110839269893
 21
223.5358352960489015
 31
0.0
  0
LINE
  5
374
  8
0
 10
336.3488110839269893
 20
223.5358352960489015
 30
0.0
 11
339.3488110839269893
 21
223.5358352960489015
 31
0.0
  0
LINE
  5
375
  8
0
 10
339.3488110839269893
 20
223.5358352960489015
 30
0.0
 11
339.3488110839269893
 21
226.5358352960489015
 31
0.0
  0
LINE
  5
376
  8
0
 10
339.3488110839269893
 20
226.5358352960489015
 30
0.0
 11
336.3488110839269893
 21
226.5358352960489015
 31
0.0
  0
LINE
  5
377
  8
0
 10
336.3488110839269893
 20
290.5358352960486741
 30
0.0
 11
336.3488110839269893
 21
267.5358352960487878
 31
0.0
  0
LINE
  5
378
  8
0
 10
336.3488110839269893
 20
267.5358352960487878
 30
0.0
 11
339.3488110839269893
 21
267.5358352960487878
 31
0.0
  0
LINE
  5
379
  8
0
 10
339.3488110839269893
 20
267.5358352960487878
 30
0.0
 11
339.3488110839269893
 21
264.5358352960487878
 31
0.0
  0
LINE
  5
37A
  8
0
 10
339.3488110839269893
 20
264.5358352960487878
 30
0.0
 11
336.3488110839269893
 21
264.5358352960487878
 31
0.0
  0
LINE
  5
37B
  8
0
 10
336.3488110839269893
 20
226.5358352960489015
 30
0.0
 11
336.3488110839269893
 21
264.5358352960487878
 31
0.0
  0
LINE
  5
37C
  8
0
 10
342.1164430332740949
 20
239.4874067729143121
 30
0.0
 11
338.3488110839269893
 21
243.3878527246174883
 31
0.0
  0
LINE
  5
37D
  8
0
 10
338.3488110839269893
 20
229.8446480853631897
 30
0.0
 11
341.1183077888372281
 21
231.3582475602499926
 31
0.0
  0
LINE
  5
37E
  8
0
 10
338.3488110839269893
 20
281.3935377292509088
 30
0.0
 11
346.3997581582863745
 21
274.3722090111976968
 31
0.0
  0
LINE
  5
37F
  8
0
 10
338.3488110839269893
 20
270.951425922658018
 30
0.0
 11
345.1973891951089968
 21
264.5796996408344057
 31
0.0
  0
LINE
  5
380
  8
0
 10
338.3488110839269893
 20
260.5093141160648997
 30
0.0
 11
341.7463082515712927
 21
262.0914563757395968
 31
0.0
  0
LINE
  5
381
  8
0
 10
341.7463082515712927
 20
262.0914563757395968
 30
0.0
 11
344.6165433466737227
 21
259.8490898299265268
 31
0.0
  0
LINE
  5
382
  8
0
 10
338.3488110839269893
 20
249.8140638850854884
 30
0.0
 11
340.9872568338009842
 21
250.8266284255350911
 31
0.0
  0
LINE
  5
383
  8
0
 10
340.9872568338009842
 20
250.8266284255350911
 30
0.0
 11
343.3023062130732797
 21
249.1454873253788094
 31
0.0
  0
CIRCLE
  5
384
  8
0
 10
342.7810218829009727
 20
281.9651149240310133
 30
0.0
 40
1.5
  0
CIRCLE
  5
385
  8
0
 10
340.6153320610433184
 20
245.5673405339443889
 30
0.0
 40
1.5
  0
LINE
  5
386
  8
0
  6
CONTINUOUS
 10
361.7764743651314916
 20
71.7267857538562623
 30
0.0
 11
361.7764743651314916
 21
68.7267857538562623
 31
0.0
  0
CIRCLE
  5
387
  8
0
  6
CONTINUOUS
 10
354.2764743651316053
 20
29.2267857538562588
 30
0.0
 40
0.95
  0
CIRCLE
  5
388
  8
0
  6
CONTINUOUS
 10
354.2764743651316053
 20
70.2267857538562623
 30
0.0
 40
0.95
  0
CIRCLE
  5
389
  8
0
  6
CONTINUOUS
 10
13.0377243651314192
 20
70.2267857538562623
 30
0.0
 40
0.95
  0
CIRCLE
  5
38A
  8
0
  6
CONTINUOUS
 10
13.0377243651314192
 20
29.2267857538562303
 30
0.0
 40
0.95
  0
POLYLINE
  5
38B
  8
0
  6
CONTINUOUS
 66
     1
 10
0.0
 20
0.0
 30
0.0
 70
     1
  0
VERTEX
  5
1B8F
  8
0
  6
CONTINUOUS
 10
5.5377243651315373
 20
101.7267857538562055
 30
0.0
 42
0.4142135623730951
  0
VERTEX
  5
1B90
  8
0
  6
CONTINUOUS
 10
11.53772436513154
 20
95.7267857538562481
 30
0.0
  0
VERTEX
  5
1B91
  8
0
  6
CONTINUOUS
 10
355.7764743651314916
 20
95.7267857538562481
 30
0.0
 42
0.4142135623730951
  0
VERTEX
  5
1B92
  8
0
  6
CONTINUOUS
 10
361.7764743651314916
 20
101.7267857538562055
 30
0.0
  0
VERTEX
  5
1B93
  8
0
  6
CONTINUOUS
 10
361.7764743651314916
 20
179.7267857538562055
 30
0.0
 42
0.4142135623730951
  0
VERTEX
  5
1B94
  8
0
  6
CONTINUOUS
 10
355.7764743651314916
 20
185.7267857538562055
 30
0.0
  0
VERTEX
  5
1B95
  8
0
  6
CONTINUOUS
 10
351.2764743651314916
 20
185.7267857538562055
 30
0.0
  0
VERTEX
  5
1B96
  8
0
  6
CONTINUOUS
 10
279.0837279912421991
 20
185.7267857538562055
 30
0.0
  0
VERTEX
  5
1B97
  8
0
  6
CONTINUOUS
 10
198.9330037264099076
 20
168.6902233887618081
 30
0.0
  0
VERTEX
  5
1B98
  8
0
  6
CONTINUOUS
 10
183.407724365130008
 20
168.6902233887618081
 30
0.0
  0
VERTEX
  5
1B99
  8
0
  6
CONTINUOUS
 10
167.8824450038505915
 20
168.6902233887618081
 30
0.0
  0
VERTEX
  5
1B9A
  8
0
  6
CONTINUOUS
 10
87.7317207390181579
 20
185.7267857538562055
 30
0.0
  0
VERTEX
  5
1B9B
  8
0
  6
CONTINUOUS
 10
11.53772436513154
 20
185.7267857538562055
 30
0.0
 42
0.4142135623730951
  0
VERTEX
  5
1B9C
  8
0
  6
CONTINUOUS
 10
5.5377243651315373
 20
179.7267857538562055
 30
0.0
  0
SEQEND
  5
1B9D
  8
0
  6
CONTINUOUS
  0
LINE
  5
38C
  8
0
  6
CONTINUOUS
 10
361.7764743651314916
 20
162.7267857538562055
 30
0.0
 11
361.7764743651314916
 21
159.7267857538562055
 31
0.0
  0
CIRCLE
  5
38D
  8
0
  6
CONTINUOUS
 10
354.2764743651316053
 20
120.2267857538562055
 30
0.0
 40
0.95
  0
CIRCLE
  5
38E
  8
0
  6
CONTINUOUS
 10
354.2764743651316053
 20
161.2267857538562055
 30
0.0
 40
0.95
  0
CIRCLE
  5
38F
  8
0
  6
CONTINUOUS
 10
13.03772436513154
 20
161.2267857538562055
 30
0.0
 40
0.95
  0
CIRCLE
  5
390
  8
0
  6
CONTINUOUS
 10
13.03772436513154
 20
120.2267857538562055
 30
0.0
 40
0.95
  0
LINE
  5
391
  8
0
  6
CONTINUOUS
 10
14.5377243651313108
 20
245.3967857538563067
 30
0.0
 11
15.5377243651313108
 21
245.3967857538563067
 31
0.0
  0
LINE
  5
392
  8
0
  6
CONTINUOUS
 10
355.7764743651314916
 20
186.7267857538562055
 30
0.0
 11
355.7764743651314916
 21
185.7267857538562055
 31
0.0
  0
LINE
  5
393
  8
0
 10
320.4488110839270121
 20
291.3099815915225008
 30
0.0
 11
323.4488110839270121
 21
291.3099815915225008
 31
0.0
  0
POLYLINE
  5
394
  8
0
 66
     1
 10
0.0
 20
0.0
 30
0.0
 70
     1
  0
VERTEX
  5
1B9E
  8
0
 10
333.0109453179007915
 20
283.4025703010074153
 30
0.0
  0
VERTEX
  5
1B9F
  8
0
 10
328.071286312031873
 20
290.4571344642245094
 30
0.0
 42
0.244698443229034
  0
VERTEX
  5
1BA0
  8
0
 10
326.4329822234540188
 20
291.3099815915225008
 30
0.0
  0
VERTEX
  5
1BA1
  8
0
 10
320.4488110839270121
 20
291.3099815915225008
 30
0.0
  0
VERTEX
  5
1BA2
  8
0
 10
320.4488110839270121
 20
201.3099815915225008
 30
0.0
  0
VERTEX
  5
1BA3
  8
0
 10
323.7309958531440088
 20
203.6081921087254045
 30
0.0
  0
VERTEX
  5
1BA4
  8
0
 10
333.3577335326054936
 20
282.0116787414949044
 30
0.0
 42
0.1853390449315343
  0
SEQEND
  5
1BA5
  8
0
  0
POLYLINE
  5
395
  8
0
 66
     1
 10
0.0
 20
0.0
 30
0.0
  0
VERTEX
  5
1BA6
  8
0
 10
325.2183077888373077
 20
232.132393855723592
 30
0.0
  0
VERTEX
  5
1BA7
  8
0
 10
326.2164430332738903
 20
240.2615530683879115
 30
0.0
  0
SEQEND
  5
1BA8
  8
0
  0
POLYLINE
  5
396
  8
0
 66
     1
 10
0.0
 20
0.0
 30
0.0
  0
VERTEX
  5
1BA9
  8
0
 10
327.4023062130733024
 20
249.9196336208524087
 30
0.0
  0
VERTEX
  5
1BAA
  8
0
 10
328.7165433466735749
 20
260.6232361254002967
 30
0.0
  0
SEQEND
  5
1BAB
  8
0
  0
POLYLINE
  5
397
  8
0
 66
     1
 10
0.0
 20
0.0
 30
0.0
  0
VERTEX
  5
1BAC
  8
0
 10
329.2973891951087921
 20
265.3538459363080051
 30
0.0
  0
VERTEX
  5
1BAD
  8
0
 10
330.4997581582865109
 20
275.1463553066714098
 30
0.0
  0
SEQEND
  5
1BAE
  8
0
  0
POLYLINE
  5
398
  8
0
 66
     1
 10
0.0
 20
0.0
 30
0.0
  0
VERTEX
  5
1BAF
  8
0
 10
322.4488110839270121
 20
282.1676840247246218
 30
0.0
  0
VERTEX
  5
1BB0
  8
0
 10
322.4488110839270121
 20
271.7255722181316173
 30
0.0
  0
SEQEND
  5
1BB1
  8
0
  0
POLYLINE
  5
399
  8
0
 66
     1
 10
0.0
 20
0.0
 30
0.0
  0
VERTEX
  5
1BB2
  8
0
 10
322.4488110839270121
 20
261.2834604115387265
 30
0.0
  0
VERTEX
  5
1BB3
  8
0
 10
322.4488110839270121
 20
250.5882101805590878
 30
0.0
  0
SEQEND
  5
1BB4
  8
0
  0
POLYLINE
  5
39A
  8
0
 66
     1
 10
0.0
 20
0.0
 30
0.0
  0
VERTEX
  5
1BB5
  8
0
 10
322.4488110839270121
 20
244.1619990200910877
 30
0.0
  0
VERTEX
  5
1BB6
  8
0
 10
322.4488110839270121
 20
230.6187943808367038
 30
0.0
  0
SEQEND
  5
1BB7
  8
0
  0
POLYLINE
  5
39B
  8
0
 66
     1
 10
0.0
 20
0.0
 30
0.0
  0
VERTEX
  5
1BB8
  8
0
 10
325.2183077888373077
 20
232.132393855723592
 30
0.0
  0
VERTEX
  5
1BB9
  8
0
 10
326.2164430332738903
 20
240.2615530683879115
 30
0.0
  0
SEQEND
  5
1BBA
  8
0
  0
POLYLINE
  5
39C
  8
0
 66
     1
 10
0.0
 20
0.0
 30
0.0
  0
VERTEX
  5
1BBB
  8
0
 10
322.4488110839270121
 20
244.1619990200910877
 30
0.0
  0
VERTEX
  5
1BBC
  8
0
 10
322.4488110839270121
 20
230.6187943808367038
 30
0.0
  0
SEQEND
  5
1BBD
  8
0
  0
LINE
  5
39D
  8
0
 10
320.4488110839270121
 20
291.3099815915225008
 30
0.0
 11
320.4488110839270121
 21
281.3099815915223871
 31
0.0
  0
LINE
  5
39E
  8
0
 10
320.4488110839270121
 20
201.3099815915225008
 30
0.0
 11
320.4488110839270121
 21
224.3099815915225008
 31
0.0
  0
LINE
  5
39F
  8
0
 10
320.4488110839270121
 20
291.3099815915225008
 30
0.0
 11
320.4488110839270121
 21
268.3099815915225008
 31
0.0
  0
LINE
  5
3A0
  8
0
 10
320.4488110839270121
 20
227.3099815915225008
 30
0.0
 11
320.4488110839270121
 21
265.3099815915223871
 31
0.0
  0
LINE
  5
3A1
  8
0
 10
326.2164430332738903
 20
240.2615530683879115
 30
0.0
 11
322.4488110839270121
 21
244.1619990200910877
 31
0.0
  0
LINE
  5
3A2
  8
0
 10
322.4488110839270121
 20
230.6187943808367038
 30
0.0
 11
325.2183077888373077
 21
232.132393855723592
 31
0.0
  0
LINE
  5
3A3
  8
0
 10
322.4488110839270121
 20
282.1676840247246218
 30
0.0
 11
330.4997581582865109
 21
275.1463553066714098
 31
0.0
  0
LINE
  5
3A4
  8
0
 10
322.4488110839270121
 20
271.7255722181316173
 30
0.0
 11
329.2973891951087921
 21
265.3538459363080051
 31
0.0
  0
LINE
  5
3A5
  8
0
 10
322.4488110839270121
 20
261.2834604115387265
 30
0.0
 11
325.8463082515713154
 21
262.8656026712130824
 31
0.0
  0
LINE
  5
3A6
  8
0
 10
325.8463082515713154
 20
262.8656026712130824
 30
0.0
 11
328.7165433466735749
 21
260.6232361254002967
 31
0.0
  0
LINE
  5
3A7
  8
0
 10
322.4488110839270121
 20
250.5882101805590878
 30
0.0
 11
325.0872568338007795
 21
251.6007747210086904
 31
0.0
  0
LINE
  5
3A8
  8
0
 10
325.0872568338007795
 20
251.6007747210086904
 30
0.0
 11
327.4023062130733024
 21
249.9196336208524087
 31
0.0
  0
CIRCLE
  5
3A9
  8
0
 10
326.8810218829008818
 20
282.7392612195046127
 30
0.0
 40
1.5
  0
CIRCLE
  5
3AA
  8
0
 10
324.7153320610432274
 20
246.3414868294179882
 30
0.0
 40
1.5
  0
LINE
  5
3AB
  8
0
 10
304.3245220283357071
 20
291.8061078103514774
 30
0.0
 11
307.3245220283358776
 21
291.8061078103514774
 31
0.0
  0
POLYLINE
  5
3AC
  8
0
 66
     1
 10
0.0
 20
0.0
 30
0.0
 70
     1
  0
VERTEX
  5
1BBE
  8
0
 10
316.8866562623096002
 20
283.8986965198365056
 30
0.0
  0
VERTEX
  5
1BBF
  8
0
 10
311.946997256440909
 20
290.953260683053486
 30
0.0
 42
0.244698443229034
  0
VERTEX
  5
1BC0
  8
0
 10
310.3086931678628275
 20
291.8061078103514774
 30
0.0
  0
VERTEX
  5
1BC1
  8
0
 10
304.3245220283357071
 20
291.8061078103514774
 30
0.0
  0
VERTEX
  5
1BC2
  8
0
 10
304.3245220283357071
 20
201.8061078103515058
 30
0.0
  0
VERTEX
  5
1BC3
  8
0
 10
307.6067067975528744
 20
204.1043183275544948
 30
0.0
  0
VERTEX
  5
1BC4
  8
0
 10
317.233444477014416
 20
282.507804960323881
 30
0.0
 42
0.1853390449315343
  0
SEQEND
  5
1BC5
  8
0
  0
POLYLINE
  5
3AD
  8
0
 66
     1
 10
0.0
 20
0.0
 30
0.0
  0
VERTEX
  5
1BC6
  8
0
 10
309.0940187332460027
 20
232.6285200745527106
 30
0.0
  0
VERTEX
  5
1BC7
  8
0
 10
310.0921539776829263
 20
240.7576792872168028
 30
0.0
  0
SEQEND
  5
1BC8
  8
0
  0
POLYLINE
  5
3AE
  8
0
 66
     1
 10
0.0
 20
0.0
 30
0.0
  0
VERTEX
  5
1BC9
  8
0
 10
311.2780171574822248
 20
250.4157598396814137
 30
0.0
  0
VERTEX
  5
1BCA
  8
0
 10
312.5922542910823267
 20
261.1193623442292733
 30
0.0
  0
SEQEND
  5
1BCB
  8
0
  0
POLYLINE
  5
3AF
  8
0
 66
     1
 10
0.0
 20
0.0
 30
0.0
  0
VERTEX
  5
1BCC
  8
0
 10
313.1731001395177145
 20
265.8499721551370953
 30
0.0
  0
VERTEX
  5
1BCD
  8
0
 10
314.3754691026953196
 20
275.6424815255003864
 30
0.0
  0
SEQEND
  5
1BCE
  8
0
  0
POLYLINE
  5
3B0
  8
0
 66
     1
 10
0.0
 20
0.0
 30
0.0
  0
VERTEX
  5
1BCF
  8
0
 10
306.3245220283357071
 20
282.6638102435535984
 30
0.0
  0
VERTEX
  5
1BD0
  8
0
 10
306.3245220283357071
 20
272.2216984369607076
 30
0.0
  0
SEQEND
  5
1BD1
  8
0
  0
POLYLINE
  5
3B1
  8
0
 66
     1
 10
0.0
 20
0.0
 30
0.0
  0
VERTEX
  5
1BD2
  8
0
 10
306.3245220283357071
 20
261.7795866303675894
 30
0.0
  0
VERTEX
  5
1BD3
  8
0
 10
306.3245220283357071
 20
251.0843363993882065
 30
0.0
  0
SEQEND
  5
1BD4
  8
0
  0
POLYLINE
  5
3B2
  8
0
 66
     1
 10
0.0
 20
0.0
 30
0.0
  0
VERTEX
  5
1BD5
  8
0
 10
306.3245220283357071
 20
244.6581252389200927
 30
0.0
  0
VERTEX
  5
1BD6
  8
0
 10
306.3245220283357071
 20
231.114920599665794
 30
0.0
  0
SEQEND
  5
1BD7
  8
0
  0
POLYLINE
  5
3B3
  8
0
 66
     1
 10
0.0
 20
0.0
 30
0.0
  0
VERTEX
  5
1BD8
  8
0
 10
309.0940187332460027
 20
232.6285200745527106
 30
0.0
  0
VERTEX
  5
1BD9
  8
0
 10
310.0921539776829263
 20
240.7576792872168028
 30
0.0
  0
SEQEND
  5
1BDA
  8
0
  0
POLYLINE
  5
3B4
  8
0
 66
     1
 10
0.0
 20
0.0
 30
0.0
  0
VERTEX
  5
1BDB
  8
0
 10
306.3245220283357071
 20
244.6581252389200927
 30
0.0
  0
VERTEX
  5
1BDC
  8
0
 10
306.3245220283357071
 20
231.114920599665794
 30
0.0
  0
SEQEND
  5
1BDD
  8
0
  0
LINE
  5
3B5
  8
0
 10
304.3245220283357071
 20
291.8061078103514774
 30
0.0
 11
304.3245220283357071
 21
281.8061078103514774
 31
0.0
  0
CIRCLE
  5
3B6
  8
0
 10
310.7567328273098042
 20
283.2353874383335892
 30
0.0
 40
0.95
  0
LINE
  5
3B7
  8
0
 10
304.3245220283357071
 20
201.8061078103515058
 30
0.0
 11
304.3245220283357071
 21
224.8061078103515058
 31
0.0
  0
LINE
  5
3B8
  8
0
 10
304.3245220283357071
 20
291.8061078103514774
 30
0.0
 11
304.3245220283357071
 21
268.8061078103514774
 31
0.0
  0
LINE
  5
3B9
  8
0
 10
304.3245220283357071
 20
227.8061078103515058
 30
0.0
 11
304.3245220283357071
 21
265.8061078103514774
 31
0.0
  0
CIRCLE
  5
3BA
  8
0
 10
308.5910430054523204
 20
246.8376130482471069
 30
0.0
 40
1.0
  0
LINE
  5
3BB
  8
0
 10
310.0921539776829263
 20
240.7576792872168028
 30
0.0
 11
306.3245220283357071
 21
244.6581252389200927
 31
0.0
  0
LINE
  5
3BC
  8
0
 10
306.3245220283357071
 20
231.114920599665794
 30
0.0
 11
309.0940187332460027
 21
232.6285200745527106
 31
0.0
  0
LINE
  5
3BD
  8
0
 10
306.3245220283357071
 20
282.6638102435535984
 30
0.0
 11
314.3754691026953196
 21
275.6424815255003864
 31
0.0
  0
LINE
  5
3BE
  8
0
 10
306.3245220283357071
 20
272.2216984369607076
 30
0.0
 11
313.1731001395177145
 21
265.8499721551370953
 31
0.0
  0
LINE
  5
3BF
  8
0
 10
306.3245220283357071
 20
261.7795866303675894
 30
0.0
 11
309.7220191959801241
 21
263.3617288900422864
 31
0.0
  0
LINE
  5
3C0
  8
0
 10
309.7220191959801241
 20
263.3617288900422864
 30
0.0
 11
312.5922542910823267
 21
261.1193623442292733
 31
0.0
  0
LINE
  5
3C1
  8
0
 10
306.3245220283357071
 20
251.0843363993882065
 30
0.0
 11
308.9629677782097019
 21
252.0969009398378091
 31
0.0
  0
LINE
  5
3C2
  8
0
 10
308.9629677782097019
 20
252.0969009398378091
 30
0.0
 11
311.2780171574822248
 21
250.4157598396814137
 31
0.0
  0
LINE
  5
3C3
  8
0
 10
273.5381973879804036
 20
291.4743820144449273
 30
0.0
 11
276.5381973879804036
 21
291.4743820144449273
 31
0.0
  0
POLYLINE
  5
3C4
  8
0
 66
     1
 10
0.0
 20
0.0
 30
0.0
 70
     1
  0
VERTEX
  5
1BDE
  8
0
 10
286.100331621954183
 20
283.5669707239300124
 30
0.0
  0
VERTEX
  5
1BDF
  8
0
 10
281.1606726160853782
 20
290.6215348871468791
 30
0.0
 42
0.244698443229034
  0
VERTEX
  5
1BE0
  8
0
 10
279.5223685275074104
 20
291.4743820144449273
 30
0.0
  0
VERTEX
  5
1BE1
  8
0
 10
273.5381973879804036
 20
291.4743820144449273
 30
0.0
  0
VERTEX
  5
1BE2
  8
0
 10
273.5381973879804036
 20
201.4743820144450126
 30
0.0
  0
VERTEX
  5
1BE3
  8
0
 10
276.8203821571975141
 20
203.7725925316480016
 30
0.0
  0
VERTEX
  5
1BE4
  8
0
 10
286.4471198366588851
 20
282.1760791644176152
 30
0.0
 42
0.1853390449315343
  0
SEQEND
  5
1BE5
  8
0
  0
POLYLINE
  5
3C5
  8
0
 66
     1
 10
0.0
 20
0.0
 30
0.0
  0
VERTEX
  5
1BE6
  8
0
 10
278.307694092890813
 20
232.296794278646189
 30
0.0
  0
VERTEX
  5
1BE7
  8
0
 10
279.3058293373275092
 20
240.4259534913103948
 30
0.0
  0
SEQEND
  5
1BE8
  8
0
  0
POLYLINE
  5
3C6
  8
0
 66
     1
 10
0.0
 20
0.0
 30
0.0
  0
VERTEX
  5
1BE9
  8
0
 10
280.4916925171268076
 20
250.084034043775091
 30
0.0
  0
VERTEX
  5
1BEA
  8
0
 10
281.8059296507270801
 20
260.7876365483227801
 30
0.0
  0
SEQEND
  5
1BEB
  8
0
  0
POLYLINE
  5
3C7
  8
0
 66
     1
 10
0.0
 20
0.0
 30
0.0
  0
VERTEX
  5
1BEC
  8
0
 10
282.3867754991624111
 20
265.5182463592304885
 30
0.0
  0
VERTEX
  5
1BED
  8
0
 10
283.5891444623399025
 20
275.3107557295940069
 30
0.0
  0
SEQEND
  5
1BEE
  8
0
  0
POLYLINE
  5
3C8
  8
0
 66
     1
 10
0.0
 20
0.0
 30
0.0
  0
VERTEX
  5
1BEF
  8
0
 10
275.5381973879804036
 20
282.3320844476471052
 30
0.0
  0
VERTEX
  5
1BF0
  8
0
 10
275.5381973879804036
 20
271.8899726410541007
 30
0.0
  0
SEQEND
  5
1BF1
  8
0
  0
POLYLINE
  5
3C9
  8
0
 66
     1
 10
0.0
 20
0.0
 30
0.0
  0
VERTEX
  5
1BF2
  8
0
 10
275.5381973879804036
 20
261.4478608344612098
 30
0.0
  0
VERTEX
  5
1BF3
  8
0
 10
275.5381973879804036
 20
250.7526106034815996
 30
0.0
  0
SEQEND
  5
1BF4
  8
0
  0
POLYLINE
  5
3CA
  8
0
 66
     1
 10
0.0
 20
0.0
 30
0.0
  0
VERTEX
  5
1BF5
  8
0
 10
275.5381973879804036
 20
244.3263994430135995
 30
0.0
  0
VERTEX
  5
1BF6
  8
0
 10
275.5381973879804036
 20
230.7831948037593008
 30
0.0
  0
SEQEND
  5
1BF7
  8
0
  0
POLYLINE
  5
3CB
  8
0
 66
     1
 10
0.0
 20
0.0
 30
0.0
  0
VERTEX
  5
1BF8
  8
0
 10
278.307694092890813
 20
232.296794278646189
 30
0.0
  0
VERTEX
  5
1BF9
  8
0
 10
279.3058293373275092
 20
240.4259534913103948
 30
0.0
  0
SEQEND
  5
1BFA
  8
0
  0
POLYLINE
  5
3CC
  8
0
 66
     1
 10
0.0
 20
0.0
 30
0.0
  0
VERTEX
  5
1BFB
  8
0
 10
275.5381973879804036
 20
244.3263994430135995
 30
0.0
  0
VERTEX
  5
1BFC
  8
0
 10
275.5381973879804036
 20
230.7831948037593008
 30
0.0
  0
SEQEND
  5
1BFD
  8
0
  0
LINE
  5
3CD
  8
0
 10
273.5381973879804036
 20
291.4743820144449273
 30
0.0
 11
273.5381973879804036
 21
281.4743820144449273
 31
0.0
  0
LINE
  5
3CE
  8
0
 10
273.5381973879804036
 20
201.4743820144450126
 30
0.0
 11
273.5381973879804036
 21
224.4743820144450126
 31
0.0
  0
LINE
  5
3CF
  8
0
 10
273.5381973879804036
 20
291.4743820144449273
 30
0.0
 11
273.5381973879804036
 21
268.4743820144449273
 31
0.0
  0
LINE
  5
3D0
  8
0
 10
273.5381973879804036
 20
227.4743820144450126
 30
0.0
 11
273.5381973879804036
 21
265.4743820144449273
 31
0.0
  0
LINE
  5
3D1
  8
0
 10
279.3058293373275092
 20
240.4259534913103948
 30
0.0
 11
275.5381973879804036
 21
244.3263994430135995
 31
0.0
  0
LINE
  5
3D2
  8
0
 10
275.5381973879804036
 20
230.7831948037593008
 30
0.0
 11
278.307694092890813
 21
232.296794278646189
 31
0.0
  0
LINE
  5
3D3
  8
0
 10
275.5381973879804036
 20
282.3320844476471052
 30
0.0
 11
283.5891444623399025
 21
275.3107557295940069
 31
0.0
  0
LINE
  5
3D4
  8
0
 10
275.5381973879804036
 20
271.8899726410541007
 30
0.0
 11
282.3867754991624111
 21
265.5182463592304885
 31
0.0
  0
LINE
  5
3D5
  8
0
 10
275.5381973879804036
 20
261.4478608344612098
 30
0.0
 11
278.9356945556248206
 21
263.0300030941357932
 31
0.0
  0
LINE
  5
3D6
  8
0
 10
278.9356945556248206
 20
263.0300030941357932
 30
0.0
 11
281.8059296507270801
 21
260.7876365483227801
 31
0.0
  0
LINE
  5
3D7
  8
0
 10
275.5381973879804036
 20
250.7526106034815996
 30
0.0
 11
278.1766431378542848
 21
251.7651751439312875
 31
0.0
  0
LINE
  5
3D8
  8
0
 10
278.1766431378542848
 20
251.7651751439312875
 30
0.0
 11
280.4916925171268076
 21
250.084034043775091
 31
0.0
  0
CIRCLE
  5
3D9
  8
0
 10
279.9704081869545007
 20
282.903661642427096
 30
0.0
 40
1.5
  0
CIRCLE
  5
3DA
  8
0
 10
277.8047183650969032
 20
246.5058872523405
 30
0.0
 40
1.5
  0
LINE
  5
3DB
  8
0
 10
288.2488110839267961
 20
290.5358352960486741
 30
0.0
 11
291.2488110839269098
 21
290.5358352960486741
 31
0.0
  0
POLYLINE
  5
3DC
  8
0
 66
     1
 10
0.0
 20
0.0
 30
0.0
 70
     1
  0
VERTEX
  5
1BFE
  8
0
 10
300.8109453179006891
 20
282.6284240055338159
 30
0.0
  0
VERTEX
  5
1BFF
  8
0
 10
295.8712863120318275
 20
289.6829881687509101
 30
0.0
 42
0.244698443229034
  0
VERTEX
  5
1C00
  8
0
 10
294.2329822234539733
 20
290.5358352960486741
 30
0.0
  0
VERTEX
  5
1C01
  8
0
 10
288.2488110839267961
 20
290.5358352960486741
 30
0.0
  0
VERTEX
  5
1C02
  8
0
 10
288.2488110839267961
 20
200.5358352960489015
 30
0.0
  0
VERTEX
  5
1C03
  8
0
 10
291.5309958531440202
 20
202.8340458132518052
 30
0.0
  0
VERTEX
  5
1C04
  8
0
 10
301.1577335326053912
 20
281.2375324460211914
 30
0.0
 42
0.1853390449315343
  0
SEQEND
  5
1C05
  8
0
  0
POLYLINE
  5
3DD
  8
0
 66
     1
 10
0.0
 20
0.0
 30
0.0
  0
VERTEX
  5
1C06
  8
0
 10
293.0183077888372054
 20
231.3582475602499926
 30
0.0
  0
VERTEX
  5
1C07
  8
0
 10
294.0164430332739016
 20
239.4874067729143121
 30
0.0
  0
SEQEND
  5
1C08
  8
0
  0
POLYLINE
  5
3DE
  8
0
 66
     1
 10
0.0
 20
0.0
 30
0.0
  0
VERTEX
  5
1C09
  8
0
 10
295.2023062130733138
 20
249.1454873253788094
 30
0.0
  0
VERTEX
  5
1C0A
  8
0
 10
296.5165433466734726
 20
259.8490898299265268
 30
0.0
  0
SEQEND
  5
1C0B
  8
0
  0
POLYLINE
  5
3DF
  8
0
 66
     1
 10
0.0
 20
0.0
 30
0.0
  0
VERTEX
  5
1C0C
  8
0
 10
297.0973891951088035
 20
264.5796996408344057
 30
0.0
  0
VERTEX
  5
1C0D
  8
0
 10
298.2997581582864086
 20
274.3722090111978105
 30
0.0
  0
SEQEND
  5
1C0E
  8
0
  0
POLYLINE
  5
3E0
  8
0
 66
     1
 10
0.0
 20
0.0
 30
0.0
  0
VERTEX
  5
1C0F
  8
0
 10
290.2488110839267961
 20
281.3935377292509088
 30
0.0
  0
VERTEX
  5
1C10
  8
0
 10
290.2488110839267961
 20
270.951425922658018
 30
0.0
  0
SEQEND
  5
1C11
  8
0
  0
POLYLINE
  5
3E1
  8
0
 66
     1
 10
0.0
 20
0.0
 30
0.0
  0
VERTEX
  5
1C12
  8
0
 10
290.2488110839267961
 20
260.5093141160648997
 30
0.0
  0
VERTEX
  5
1C13
  8
0
 10
290.2488110839267961
 20
249.8140638850854884
 30
0.0
  0
SEQEND
  5
1C14
  8
0
  0
POLYLINE
  5
3E2
  8
0
 66
     1
 10
0.0
 20
0.0
 30
0.0
  0
VERTEX
  5
1C15
  8
0
 10
290.2488110839267961
 20
243.3878527246174883
 30
0.0
  0
VERTEX
  5
1C16
  8
0
 10
290.2488110839267961
 20
229.8446480853631897
 30
0.0
  0
SEQEND
  5
1C17
  8
0
  0
POLYLINE
  5
3E3
  8
0
 66
     1
 10
0.0
 20
0.0
 30
0.0
  0
VERTEX
  5
1C18
  8
0
 10
293.0183077888372054
 20
231.3582475602499926
 30
0.0
  0
VERTEX
  5
1C19
  8
0
 10
294.0164430332739016
 20
239.4874067729143121
 30
0.0
  0
SEQEND
  5
1C1A
  8
0
  0
POLYLINE
  5
3E4
  8
0
 66
     1
 10
0.0
 20
0.0
 30
0.0
  0
VERTEX
  5
1C1B
  8
0
 10
290.2488110839267961
 20
243.3878527246174883
 30
0.0
  0
VERTEX
  5
1C1C
  8
0
 10
290.2488110839267961
 20
229.8446480853631897
 30
0.0
  0
SEQEND
  5
1C1D
  8
0
  0
LINE
  5
3E5
  8
0
 10
288.2488110839267961
 20
290.5358352960486741
 30
0.0
 11
288.2488110839267961
 21
280.5358352960487878
 31
0.0
  0
CIRCLE
  5
3E6
  8
0
 10
294.6810218829007795
 20
281.9651149240310133
 30
0.0
 40
0.95
  0
LINE
  5
3E7
  8
0
 10
288.2488110839267961
 20
200.5358352960489015
 30
0.0
 11
288.2488110839267961
 21
223.5358352960489015
 31
0.0
  0
LINE
  5
3E8
  8
0
 10
288.2488110839267961
 20
290.5358352960486741
 30
0.0
 11
288.2488110839267961
 21
267.5358352960487878
 31
0.0
  0
LINE
  5
3E9
  8
0
 10
288.2488110839267961
 20
226.5358352960489015
 30
0.0
 11
288.2488110839267961
 21
264.5358352960489015
 31
0.0
  0
CIRCLE
  5
3EA
  8
0
 10
292.515332061043182
 20
245.5673405339443889
 30
0.0
 40
1.0
  0
LINE
  5
3EB
  8
0
 10
294.0164430332739016
 20
239.4874067729143121
 30
0.0
 11
290.2488110839267961
 21
243.3878527246174883
 31
0.0
  0
LINE
  5
3EC
  8
0
 10
290.2488110839267961
 20
229.8446480853631897
 30
0.0
 11
293.0183077888372054
 21
231.3582475602499926
 31
0.0
  0
LINE
  5
3ED
  8
0
 10
290.2488110839267961
 20
281.3935377292509088
 30
0.0
 11
298.2997581582864086
 21
274.3722090111978105
 31
0.0
  0
LINE
  5
3EE
  8
0
 10
290.2488110839267961
 20
270.951425922658018
 30
0.0
 11
297.0973891951088035
 21
264.5796996408344057
 31
0.0
  0
LINE
  5
3EF
  8
0
 10
290.2488110839267961
 20
260.5093141160648997
 30
0.0
 11
293.6463082515712131
 21
262.0914563757397104
 31
0.0
  0
LINE
  5
3F0
  8
0
 10
293.6463082515712131
 20
262.0914563757397104
 30
0.0
 11
296.5165433466734726
 21
259.8490898299265268
 31
0.0
  0
LINE
  5
3F1
  8
0
 10
290.2488110839267961
 20
249.8140638850854884
 30
0.0
 11
292.8872568338006772
 21
250.8266284255350911
 31
0.0
  0
LINE
  5
3F2
  8
0
 10
292.8872568338006772
 20
250.8266284255350911
 30
0.0
 11
295.2023062130733138
 21
249.1454873253788094
 31
0.0
  0
LINE
  5
3F3
  8
0
 10
259.0488110839268074
 20
289.9392767363739836
 30
0.0
 11
262.0488110839268074
 21
289.9392767363739836
 31
0.0
  0
POLYLINE
  5
3F4
  8
0
 66
     1
 10
0.0
 20
0.0
 30
0.0
  0
VERTEX
  5
1C1E
  8
0
 10
259.0488110839268074
 20
222.9392767363740973
 30
0.0
  0
VERTEX
  5
1C1F
  8
0
 10
259.0488110839268074
 20
199.9392767363740973
 30
0.0
  0
VERTEX
  5
1C20
  8
0
 10
262.3309958531439747
 20
202.2374872535770862
 30
0.0
  0
VERTEX
  5
1C21
  8
0
 10
271.9577335326054026
 20
280.6409738863465009
 30
0.0
 42
0.1853390449315343
  0
VERTEX
  5
1C22
  8
0
 10
271.6109453179007005
 20
282.0318654458590117
 30
0.0
  0
VERTEX
  5
1C23
  8
0
 10
266.6712863120317252
 20
289.0864296090759922
 30
0.0
 42
0.244698443229034
  0
VERTEX
  5
1C24
  8
0
 10
265.0329822234538142
 20
289.9392767363739836
 30
0.0
  0
VERTEX
  5
1C25
  8
0
 10
259.0488110839268074
 20
289.9392767363739836
 30
0.0
  0
VERTEX
  5
1C26
  8
0
 10
259.0488110839268074
 20
266.9392767363739836
 30
0.0
  0
SEQEND
  5
1C27
  8
0
  0
POLYLINE
  5
3F5
  8
0
 66
     1
 10
0.0
 20
0.0
 30
0.0
  0
VERTEX
  5
1C28
  8
0
 10
259.0488110839268074
 20
263.9392767363739836
 30
0.0
  0
VERTEX
  5
1C29
  8
0
 10
259.0488110839268074
 20
225.9392767363740973
 30
0.0
  0
SEQEND
  5
1C2A
  8
0
  0
POLYLINE
  5
3F6
  8
0
 66
     1
 10
0.0
 20
0.0
 30
0.0
  0
VERTEX
  5
1C2B
  8
0
 10
263.8183077888371031
 20
230.7616890005753021
 30
0.0
  0
VERTEX
  5
1C2C
  8
0
 10
264.816443033273913
 20
238.8908482132395932
 30
0.0
  0
SEQEND
  5
1C2D
  8
0
  0
POLYLINE
  5
3F7
  8
0
 66
     1
 10
0.0
 20
0.0
 30
0.0
  0
VERTEX
  5
1C2E
  8
0
 10
266.0023062130732114
 20
248.5489287657040904
 30
0.0
  0
VERTEX
  5
1C2F
  8
0
 10
267.3165433466734839
 20
259.2525312702518931
 30
0.0
  0
SEQEND
  5
1C30
  8
0
  0
POLYLINE
  5
3F8
  8
0
 66
     1
 10
0.0
 20
0.0
 30
0.0
  0
VERTEX
  5
1C31
  8
0
 10
267.8973891951088149
 20
263.9831410811596015
 30
0.0
  0
VERTEX
  5
1C32
  8
0
 10
269.0997581582863063
 20
273.7756504515230063
 30
0.0
  0
SEQEND
  5
1C33
  8
0
  0
POLYLINE
  5
3F9
  8
0
 66
     1
 10
0.0
 20
0.0
 30
0.0
  0
VERTEX
  5
1C34
  8
0
 10
261.0488110839268074
 20
280.7969791695762183
 30
0.0
  0
VERTEX
  5
1C35
  8
0
 10
261.0488110839268074
 20
270.3548673629832138
 30
0.0
  0
SEQEND
  5
1C36
  8
0
  0
POLYLINE
  5
3FA
  8
0
 66
     1
 10
0.0
 20
0.0
 30
0.0
  0
VERTEX
  5
1C37
  8
0
 10
261.0488110839268074
 20
259.9127555563903229
 30
0.0
  0
VERTEX
  5
1C38
  8
0
 10
261.0488110839268074
 20
249.2175053254107979
 30
0.0
  0
SEQEND
  5
1C39
  8
0
  0
POLYLINE
  5
3FB
  8
0
 66
     1
 10
0.0
 20
0.0
 30
0.0
  0
VERTEX
  5
1C3A
  8
0
 10
261.0488110839268074
 20
242.7912941649427125
 30
0.0
  0
VERTEX
  5
1C3B
  8
0
 10
261.0488110839268074
 20
229.2480895256884139
 30
0.0
  0
SEQEND
  5
1C3C
  8
0
  0
POLYLINE
  5
3FC
  8
0
 66
     1
 10
0.0
 20
0.0
 30
0.0
  0
VERTEX
  5
1C3D
  8
0
 10
263.8183077888371031
 20
230.7616890005753021
 30
0.0
  0
VERTEX
  5
1C3E
  8
0
 10
264.816443033273913
 20
238.8908482132395932
 30
0.0
  0
SEQEND
  5
1C3F
  8
0
  0
POLYLINE
  5
3FD
  8
0
 66
     1
 10
0.0
 20
0.0
 30
0.0
  0
VERTEX
  5
1C40
  8
0
 10
261.0488110839268074
 20
242.7912941649427125
 30
0.0
  0
VERTEX
  5
1C41
  8
0
 10
261.0488110839268074
 20
229.2480895256884139
 30
0.0
  0
SEQEND
  5
1C42
  8
0
  0
LINE
  5
3FE
  8
0
 10
259.0488110839268074
 20
289.9392767363739836
 30
0.0
 11
259.0488110839268074
 21
279.9392767363740973
 31
0.0
  0
LINE
  5
3FF
  8
0
 10
259.0488110839268074
 20
199.9392767363740973
 30
0.0
 11
259.0488110839268074
 21
222.9392767363740973
 31
0.0
  0
LINE
  5
400
  8
0
 10
259.0488110839268074
 20
222.9392767363740973
 30
0.0
 11
262.0488110839268074
 21
222.9392767363740973
 31
0.0
  0
LINE
  5
401
  8
0
 10
262.0488110839268074
 20
222.9392767363740973
 30
0.0
 11
262.0488110839268074
 21
225.9392767363740973
 31
0.0
  0
LINE
  5
402
  8
0
 10
262.0488110839268074
 20
225.9392767363740973
 30
0.0
 11
259.0488110839268074
 21
225.9392767363740973
 31
0.0
  0
LINE
  5
403
  8
0
 10
259.0488110839268074
 20
289.9392767363739836
 30
0.0
 11
259.0488110839268074
 21
266.9392767363739836
 31
0.0
  0
LINE
  5
404
  8
0
 10
259.0488110839268074
 20
266.9392767363739836
 30
0.0
 11
262.0488110839268074
 21
266.9392767363739836
 31
0.0
  0
LINE
  5
405
  8
0
 10
262.0488110839268074
 20
266.9392767363739836
 30
0.0
 11
262.0488110839268074
 21
263.9392767363739836
 31
0.0
  0
LINE
  5
406
  8
0
 10
262.0488110839268074
 20
263.9392767363739836
 30
0.0
 11
259.0488110839268074
 21
263.9392767363739836
 31
0.0
  0
LINE
  5
407
  8
0
 10
259.0488110839268074
 20
225.9392767363740973
 30
0.0
 11
259.0488110839268074
 21
263.9392767363739836
 31
0.0
  0
LINE
  5
408
  8
0
 10
264.816443033273913
 20
238.8908482132395932
 30
0.0
 11
261.0488110839268074
 21
242.7912941649427125
 31
0.0
  0
LINE
  5
409
  8
0
 10
261.0488110839268074
 20
229.2480895256884139
 30
0.0
 11
263.8183077888371031
 21
230.7616890005753021
 31
0.0
  0
LINE
  5
40A
  8
0
 10
261.0488110839268074
 20
280.7969791695762183
 30
0.0
 11
269.0997581582863063
 21
273.7756504515230063
 31
0.0
  0
LINE
  5
40B
  8
0
 10
261.0488110839268074
 20
270.3548673629832138
 30
0.0
 11
267.8973891951088149
 21
263.9831410811596015
 31
0.0
  0
LINE
  5
40C
  8
0
 10
261.0488110839268074
 20
259.9127555563903229
 30
0.0
 11
264.4463082515712244
 21
261.4948978160647926
 31
0.0
  0
LINE
  5
40D
  8
0
 10
264.4463082515712244
 20
261.4948978160647926
 30
0.0
 11
267.3165433466734839
 21
259.2525312702518931
 31
0.0
  0
LINE
  5
40E
  8
0
 10
261.0488110839268074
 20
249.2175053254107979
 30
0.0
 11
263.6872568338005749
 21
250.2300698658604006
 31
0.0
  0
LINE
  5
40F
  8
0
 10
263.6872568338005749
 20
250.2300698658604006
 30
0.0
 11
266.0023062130732114
 21
248.5489287657040904
 31
0.0
  0
CIRCLE
  5
410
  8
0
 10
265.4810218829007908
 20
281.3685563643562091
 30
0.0
 40
1.5
  0
CIRCLE
  5
411
  8
0
 10
263.3153320610431933
 20
244.9707819742696984
 30
0.0
 40
1.5
  0
LINE
  5
412
  8
0
 10
243.1488110839266881
 20
290.7134230318476966
 30
0.0
 11
246.1488110839266881
 21
290.7134230318476966
 31
0.0
  0
POLYLINE
  5
413
  8
0
 66
     1
 10
0.0
 20
0.0
 30
0.0
 70
     1
  0
VERTEX
  5
1C43
  8
0
 10
255.7109453179006096
 20
282.8060117413327248
 30
0.0
  0
VERTEX
  5
1C44
  8
0
 10
250.7712863120316911
 20
289.8605759045497052
 30
0.0
 42
0.244698443229034
  0
VERTEX
  5
1C45
  8
0
 10
249.1329822234536948
 20
290.7134230318476966
 30
0.0
  0
VERTEX
  5
1C46
  8
0
 10
243.1488110839266881
 20
290.7134230318476966
 30
0.0
  0
VERTEX
  5
1C47
  8
0
 10
243.1488110839266881
 20
200.7134230318476966
 30
0.0
  0
VERTEX
  5
1C48
  8
0
 10
246.4309958531437985
 20
203.011633549050714
 30
0.0
  0
VERTEX
  5
1C49
  8
0
 10
256.0577335326053117
 20
281.4151201818201002
 30
0.0
 42
0.1853390449315343
  0
SEQEND
  5
1C4A
  8
0
  0
POLYLINE
  5
414
  8
0
 66
     1
 10
0.0
 20
0.0
 30
0.0
  0
VERTEX
  5
1C4B
  8
0
 10
247.9183077888368985
 20
231.5358352960489015
 30
0.0
  0
VERTEX
  5
1C4C
  8
0
 10
248.9164430332737936
 20
239.6649945087131073
 30
0.0
  0
SEQEND
  5
1C4D
  8
0
  0
POLYLINE
  5
415
  8
0
 66
     1
 10
0.0
 20
0.0
 30
0.0
  0
VERTEX
  5
1C4E
  8
0
 10
250.1023062130730921
 20
249.3230750611776898
 30
0.0
  0
VERTEX
  5
1C4F
  8
0
 10
251.416543346673393
 20
260.0266775657256062
 30
0.0
  0
SEQEND
  5
1C50
  8
0
  0
POLYLINE
  5
416
  8
0
 66
     1
 10
0.0
 20
0.0
 30
0.0
  0
VERTEX
  5
1C51
  8
0
 10
251.9973891951086955
 20
264.7572873766332009
 30
0.0
  0
VERTEX
  5
1C52
  8
0
 10
253.1997581582861017
 20
274.5497967469967193
 30
0.0
  0
SEQEND
  5
1C53
  8
0
  0
POLYLINE
  5
417
  8
0
 66
     1
 10
0.0
 20
0.0
 30
0.0
  0
VERTEX
  5
1C54
  8
0
 10
245.1488110839266881
 20
281.5711254650498176
 30
0.0
  0
VERTEX
  5
1C55
  8
0
 10
245.1488110839266881
 20
271.1290136584569268
 30
0.0
  0
SEQEND
  5
1C56
  8
0
  0
POLYLINE
  5
418
  8
0
 66
     1
 10
0.0
 20
0.0
 30
0.0
  0
VERTEX
  5
1C57
  8
0
 10
245.1488110839266881
 20
260.6869018518639791
 30
0.0
  0
VERTEX
  5
1C58
  8
0
 10
245.1488110839266881
 20
249.9916516208843973
 30
0.0
  0
SEQEND
  5
1C59
  8
0
  0
POLYLINE
  5
419
  8
0
 66
     1
 10
0.0
 20
0.0
 30
0.0
  0
VERTEX
  5
1C5A
  8
0
 10
245.1488110839266881
 20
243.5654404604163119
 30
0.0
  0
VERTEX
  5
1C5B
  8
0
 10
245.1488110839266881
 20
230.0222358211620133
 30
0.0
  0
SEQEND
  5
1C5C
  8
0
  0
POLYLINE
  5
41A
  8
0
 66
     1
 10
0.0
 20
0.0
 30
0.0
  0
VERTEX
  5
1C5D
  8
0
 10
247.9183077888368985
 20
231.5358352960489015
 30
0.0
  0
VERTEX
  5
1C5E
  8
0
 10
248.9164430332737936
 20
239.6649945087131073
 30
0.0
  0
SEQEND
  5
1C5F
  8
0
  0
POLYLINE
  5
41B
  8
0
 66
     1
 10
0.0
 20
0.0
 30
0.0
  0
VERTEX
  5
1C60
  8
0
 10
245.1488110839266881
 20
243.5654404604163119
 30
0.0
  0
VERTEX
  5
1C61
  8
0
 10
245.1488110839266881
 20
230.0222358211620133
 30
0.0
  0
SEQEND
  5
1C62
  8
0
  0
LINE
  5
41C
  8
0
 10
243.1488110839266881
 20
290.7134230318476966
 30
0.0
 11
243.1488110839266881
 21
280.7134230318476966
 31
0.0
  0
LINE
  5
41D
  8
0
 10
243.1488110839266881
 20
200.7134230318476966
 30
0.0
 11
243.1488110839266881
 21
223.7134230318476966
 31
0.0
  0
LINE
  5
41E
  8
0
 10
243.1488110839266881
 20
290.7134230318476966
 30
0.0
 11
243.1488110839266881
 21
267.7134230318476966
 31
0.0
  0
LINE
  5
41F
  8
0
 10
243.1488110839266881
 20
226.7134230318476966
 30
0.0
 11
243.1488110839266881
 21
264.7134230318476966
 31
0.0
  0
LINE
  5
420
  8
0
 10
248.9164430332737936
 20
239.6649945087131073
 30
0.0
 11
245.1488110839266881
 21
243.5654404604163119
 31
0.0
  0
LINE
  5
421
  8
0
 10
245.1488110839266881
 20
230.0222358211620133
 30
0.0
 11
247.9183077888368985
 21
231.5358352960489015
 31
0.0
  0
LINE
  5
422
  8
0
 10
245.1488110839266881
 20
281.5711254650498176
 30
0.0
 11
253.1997581582861017
 21
274.5497967469967193
 31
0.0
  0
LINE
  5
423
  8
0
 10
245.1488110839266881
 20
271.1290136584569268
 30
0.0
 11
251.9973891951086955
 21
264.7572873766332009
 31
0.0
  0
LINE
  5
424
  8
0
 10
245.1488110839266881
 20
260.6869018518639791
 30
0.0
 11
248.5463082515709914
 21
262.2690441115385056
 31
0.0
  0
LINE
  5
425
  8
0
 10
248.5463082515709914
 20
262.2690441115385056
 30
0.0
 11
251.416543346673393
 21
260.0266775657256062
 31
0.0
  0
LINE
  5
426
  8
0
 10
245.1488110839266881
 20
249.9916516208843973
 30
0.0
 11
247.7872568338005976
 21
251.0042161613339999
 31
0.0
  0
LINE
  5
427
  8
0
 10
247.7872568338005976
 20
251.0042161613339999
 30
0.0
 11
250.1023062130730921
 21
249.3230750611776898
 31
0.0
  0
CIRCLE
  5
428
  8
0
 10
249.5810218829005009
 20
282.1427026598298085
 30
0.0
 40
1.5
  0
CIRCLE
  5
429
  8
0
 10
247.4153320610431877
 20
245.7449282697432977
 30
0.0
 40
1.5
  0
LINE
  5
42A
  8
0
 10
227.0245220283356105
 20
291.2095492506766732
 30
0.0
 11
230.0245220283354968
 21
291.2095492506766732
 31
0.0
  0
POLYLINE
  5
42B
  8
0
 66
     1
 10
0.0
 20
0.0
 30
0.0
 70
     1
  0
VERTEX
  5
1C63
  8
0
 10
239.5866562623095035
 20
283.3021379601617014
 30
0.0
  0
VERTEX
  5
1C64
  8
0
 10
234.6469972564406135
 20
290.3567021233786818
 30
0.0
 42
0.244698443229034
  0
VERTEX
  5
1C65
  8
0
 10
233.0086931678625035
 20
291.2095492506766732
 30
0.0
  0
VERTEX
  5
1C66
  8
0
 10
227.0245220283356105
 20
291.2095492506766732
 30
0.0
  0
VERTEX
  5
1C67
  8
0
 10
227.0245220283356105
 20
201.2095492506767869
 30
0.0
  0
VERTEX
  5
1C68
  8
0
 10
230.3067067975526072
 20
203.5077597678796906
 30
0.0
  0
VERTEX
  5
1C69
  8
0
 10
239.9334444770142909
 20
281.9112464006491905
 30
0.0
 42
0.1853390449315343
  0
SEQEND
  5
1C6A
  8
0
  0
POLYLINE
  5
42C
  8
0
 66
     1
 10
0.0
 20
0.0
 30
0.0
  0
VERTEX
  5
1C6B
  8
0
 10
231.7940187332459061
 20
232.0319615148779064
 30
0.0
  0
VERTEX
  5
1C6C
  8
0
 10
232.7921539776826876
 20
240.1611207275421975
 30
0.0
  0
SEQEND
  5
1C6D
  8
0
  0
POLYLINE
  5
42D
  8
0
 66
     1
 10
0.0
 20
0.0
 30
0.0
  0
VERTEX
  5
1C6E
  8
0
 10
233.9780171574819008
 20
249.8192012800066948
 30
0.0
  0
VERTEX
  5
1C6F
  8
0
 10
235.2922542910822017
 20
260.5228037845545259
 30
0.0
  0
SEQEND
  5
1C70
  8
0
  0
POLYLINE
  5
42E
  8
0
 66
     1
 10
0.0
 20
0.0
 30
0.0
  0
VERTEX
  5
1C71
  8
0
 10
235.8731001395175042
 20
265.2534135954621775
 30
0.0
  0
VERTEX
  5
1C72
  8
0
 10
237.0754691026951093
 20
275.0459229658256959
 30
0.0
  0
SEQEND
  5
1C73
  8
0
  0
POLYLINE
  5
42F
  8
0
 66
     1
 10
0.0
 20
0.0
 30
0.0
  0
VERTEX
  5
1C74
  8
0
 10
229.0245220283356105
 20
282.0672516838789079
 30
0.0
  0
VERTEX
  5
1C75
  8
0
 10
229.0245220283356105
 20
271.6251398772860171
 30
0.0
  0
SEQEND
  5
1C76
  8
0
  0
POLYLINE
  5
430
  8
0
 66
     1
 10
0.0
 20
0.0
 30
0.0
  0
VERTEX
  5
1C77
  8
0
 10
229.0245220283356105
 20
261.1830280706928988
 30
0.0
  0
VERTEX
  5
1C78
  8
0
 10
229.0245220283356105
 20
250.4877778397134023
 30
0.0
  0
SEQEND
  5
1C79
  8
0
  0
POLYLINE
  5
431
  8
0
 66
     1
 10
0.0
 20
0.0
 30
0.0
  0
VERTEX
  5
1C7A
  8
0
 10
229.0245220283356105
 20
244.0615666792454022
 30
0.0
  0
VERTEX
  5
1C7B
  8
0
 10
229.0245220283356105
 20
230.5183620399909898
 30
0.0
  0
SEQEND
  5
1C7C
  8
0
  0
POLYLINE
  5
432
  8
0
 66
     1
 10
0.0
 20
0.0
 30
0.0
  0
VERTEX
  5
1C7D
  8
0
 10
231.7940187332459061
 20
232.0319615148779064
 30
0.0
  0
VERTEX
  5
1C7E
  8
0
 10
232.7921539776826876
 20
240.1611207275421975
 30
0.0
  0
SEQEND
  5
1C7F
  8
0
  0
POLYLINE
  5
433
  8
0
 66
     1
 10
0.0
 20
0.0
 30
0.0
  0
VERTEX
  5
1C80
  8
0
 10
229.0245220283356105
 20
244.0615666792454022
 30
0.0
  0
VERTEX
  5
1C81
  8
0
 10
229.0245220283356105
 20
230.5183620399909898
 30
0.0
  0
SEQEND
  5
1C82
  8
0
  0
LINE
  5
434
  8
0
 10
227.0245220283356105
 20
291.2095492506766732
 30
0.0
 11
227.0245220283356105
 21
281.2095492506766732
 31
0.0
  0
CIRCLE
  5
435
  8
0
 10
233.4567328273095086
 20
282.638828878658785
 30
0.0
 40
0.95
  0
LINE
  5
436
  8
0
 10
227.0245220283356105
 20
201.2095492506767869
 30
0.0
 11
227.0245220283356105
 21
224.2095492506767869
 31
0.0
  0
LINE
  5
437
  8
0
 10
227.0245220283356105
 20
291.2095492506766732
 30
0.0
 11
227.0245220283356105
 21
268.2095492506766732
 31
0.0
  0
LINE
  5
438
  8
0
 10
227.0245220283356105
 20
227.2095492506767869
 30
0.0
 11
227.0245220283356105
 21
265.2095492506766732
 31
0.0
  0
CIRCLE
  5
439
  8
0
 10
231.2910430054519964
 20
246.2410544885723027
 30
0.0
 40
1.0
  0
LINE
  5
43A
  8
0
 10
232.7921539776826876
 20
240.1611207275421975
 30
0.0
 11
229.0245220283356105
 21
244.0615666792454022
 31
0.0
  0
LINE
  5
43B
  8
0
 10
229.0245220283356105
 20
230.5183620399909898
 30
0.0
 11
231.7940187332459061
 21
232.0319615148779064
 31
0.0
  0
LINE
  5
43C
  8
0
 10
229.0245220283356105
 20
282.0672516838789079
 30
0.0
 11
237.0754691026951093
 21
275.0459229658256959
 31
0.0
  0
LINE
  5
43D
  8
0
 10
229.0245220283356105
 20
271.6251398772860171
 30
0.0
 11
235.8731001395175042
 21
265.2534135954621775
 31
0.0
  0
LINE
  5
43E
  8
0
 10
229.0245220283356105
 20
261.1830280706928988
 30
0.0
 11
232.4220191959799138
 21
262.7651703303674822
 31
0.0
  0
LINE
  5
43F
  8
0
 10
232.4220191959799138
 20
262.7651703303674822
 30
0.0
 11
235.2922542910822017
 21
260.5228037845545259
 31
0.0
  0
LINE
  5
440
  8
0
 10
229.0245220283356105
 20
250.4877778397134023
 30
0.0
 11
231.6629677782094063
 21
251.5003423801630049
 31
0.0
  0
LINE
  5
441
  8
0
 10
231.6629677782094063
 20
251.5003423801630049
 30
0.0
 11
233.9780171574819008
 21
249.8192012800066948
 31
0.0
  0
LINE
  5
442
  8
0
 10
207.7842611340732901
 20
197.9345838798710133
 30
0.0
 11
207.7842611340732901
 21
194.9345838798710133
 31
0.0
  0
POLYLINE
  5
443
  8
0
 66
     1
 10
0.0
 20
0.0
 30
0.0
 70
     1
  0
VERTEX
  5
1C83
  8
0
 10
199.8768498435582046
 20
185.3724496458970918
 30
0.0
  0
VERTEX
  5
1C84
  8
0
 10
206.9314140067752987
 20
190.3121086517660103
 30
0.0
 42
0.244698443229034
  0
VERTEX
  5
1C85
  8
0
 10
207.7842611340732901
 20
191.9504127403440066
 30
0.0
  0
VERTEX
  5
1C86
  8
0
 10
207.7842611340732901
 20
197.9345838798710133
 30
0.0
  0
VERTEX
  5
1C87
  8
0
 10
117.7842611340732049
 20
197.9345838798710133
 30
0.0
  0
VERTEX
  5
1C88
  8
0
 10
120.0824716512761938
 20
194.6523991106539029
 30
0.0
  0
VERTEX
  5
1C89
  8
0
 10
198.4859582840456937
 20
185.0256614311923045
 30
0.0
 42
0.1853390449315343
  0
SEQEND
  5
1C8A
  8
0
  0
POLYLINE
  5
444
  8
0
 66
     1
 10
0.0
 20
0.0
 30
0.0
  0
VERTEX
  5
1C8B
  8
0
 10
148.6066733982744097
 20
193.165087174960604
 30
0.0
  0
VERTEX
  5
1C8C
  8
0
 10
156.7358326109387008
 20
192.1669519305239078
 30
0.0
  0
SEQEND
  5
1C8D
  8
0
  0
POLYLINE
  5
445
  8
0
 66
     1
 10
0.0
 20
0.0
 30
0.0
  0
VERTEX
  5
1C8E
  8
0
 10
166.393913163403198
 20
190.9810887507246093
 30
0.0
  0
VERTEX
  5
1C8F
  8
0
 10
177.097515667951086
 20
189.6668516171243937
 30
0.0
  0
SEQEND
  5
1C90
  8
0
  0
POLYLINE
  5
446
  8
0
 66
     1
 10
0.0
 20
0.0
 30
0.0
  0
VERTEX
  5
1C91
  8
0
 10
181.8281254788587944
 20
189.0860057686890912
 30
0.0
  0
VERTEX
  5
1C92
  8
0
 10
191.6206348492221139
 20
187.883636805511486
 30
0.0
  0
SEQEND
  5
1C93
  8
0
  0
POLYLINE
  5
447
  8
0
 66
     1
 10
0.0
 20
0.0
 30
0.0
  0
VERTEX
  5
1C94
  8
0
 10
198.6419635672754112
 20
195.9345838798710133
 30
0.0
  0
VERTEX
  5
1C95
  8
0
 10
188.1998517606824066
 20
195.9345838798710133
 30
0.0
  0
SEQEND
  5
1C96
  8
0
  0
POLYLINE
  5
448
  8
0
 66
     1
 10
0.0
 20
0.0
 30
0.0
  0
VERTEX
  5
1C97
  8
0
 10
177.7577399540894021
 20
195.9345838798710133
 30
0.0
  0
VERTEX
  5
1C98
  8
0
 10
167.0624897231099055
 20
195.9345838798710133
 30
0.0
  0
SEQEND
  5
1C99
  8
0
  0
POLYLINE
  5
449
  8
0
 66
     1
 10
0.0
 20
0.0
 30
0.0
  0
VERTEX
  5
1C9A
  8
0
 10
160.6362785626419054
 20
195.9345838798710133
 30
0.0
  0
VERTEX
  5
1C9B
  8
0
 10
147.0930739233874931
 20
195.9345838798710133
 30
0.0
  0
SEQEND
  5
1C9C
  8
0
  0
POLYLINE
  5
44A
  8
0
 66
     1
 10
0.0
 20
0.0
 30
0.0
  0
VERTEX
  5
1C9D
  8
0
 10
148.6066733982744097
 20
193.165087174960604
 30
0.0
  0
VERTEX
  5
1C9E
  8
0
 10
156.7358326109387008
 20
192.1669519305239078
 30
0.0
  0
SEQEND
  5
1C9F
  8
0
  0
POLYLINE
  5
44B
  8
0
 66
     1
 10
0.0
 20
0.0
 30
0.0
  0
VERTEX
  5
1CA0
  8
0
 10
160.6362785626419054
 20
195.9345838798710133
 30
0.0
  0
VERTEX
  5
1CA1
  8
0
 10
147.0930739233874931
 20
195.9345838798710133
 30
0.0
  0
SEQEND
  5
1CA2
  8
0
  0
LINE
  5
44C
  8
0
 10
207.7842611340732901
 20
197.9345838798710133
 30
0.0
 11
197.7842611340732049
 21
197.9345838798710133
 31
0.0
  0
LINE
  5
44D
  8
0
 10
117.7842611340732049
 20
197.9345838798710133
 30
0.0
 11
140.7842611340732901
 21
197.9345838798710133
 31
0.0
  0
LINE
  5
44E
  8
0
 10
207.7842611340732901
 20
197.9345838798710133
 30
0.0
 11
184.7842611340732049
 21
197.9345838798710133
 31
0.0
  0
LINE
  5
44F
  8
0
 10
143.7842611340732049
 20
197.9345838798710133
 30
0.0
 11
181.7842611340732049
 21
197.9345838798710133
 31
0.0
  0
LINE
  5
450
  8
0
 10
156.7358326109387008
 20
192.1669519305239078
 30
0.0
 11
160.6362785626419054
 21
195.9345838798710133
 31
0.0
  0
LINE
  5
451
  8
0
 10
147.0930739233874931
 20
195.9345838798710133
 30
0.0
 11
148.6066733982744097
 21
193.165087174960604
 31
0.0
  0
LINE
  5
452
  8
0
 10
198.6419635672754112
 20
195.9345838798710133
 30
0.0
 11
191.6206348492221139
 21
187.883636805511486
 31
0.0
  0
LINE
  5
453
  8
0
 10
188.1998517606824066
 20
195.9345838798710133
 30
0.0
 11
181.8281254788587944
 21
189.0860057686890912
 31
0.0
  0
LINE
  5
454
  8
0
 10
177.7577399540894021
 20
195.9345838798710133
 30
0.0
 11
179.3398822137640138
 21
192.53708671222671
 31
0.0
  0
LINE
  5
455
  8
0
 10
179.3398822137640138
 20
192.53708671222671
 30
0.0
 11
177.097515667951086
 21
189.6668516171243937
 31
0.0
  0
LINE
  5
456
  8
0
 10
167.0624897231099055
 20
195.9345838798710133
 30
0.0
 11
168.0750542635595082
 21
193.2961381299971038
 31
0.0
  0
LINE
  5
457
  8
0
 10
168.0750542635595082
 20
193.2961381299971038
 30
0.0
 11
166.393913163403198
 21
190.9810887507246093
 31
0.0
  0
CIRCLE
  5
458
  8
0
 10
199.213540762055402
 20
191.5023730808970015
 30
0.0
 40
1.5
  0
CIRCLE
  5
459
  8
0
 10
162.815766371968806
 20
193.6680629027545137
 30
0.0
 40
1.5
  0
LINE
  5
45A
  8
0
 10
210.9488110839266142
 20
289.9392767363739836
 30
0.0
 11
213.9488110839266142
 21
289.9392767363739836
 31
0.0
  0
POLYLINE
  5
45B
  8
0
 66
     1
 10
0.0
 20
0.0
 30
0.0
 70
     1
  0
VERTEX
  5
1CA3
  8
0
 10
223.5109453179005072
 20
282.0318654458591254
 30
0.0
  0
VERTEX
  5
1CA4
  8
0
 10
218.5712863120317024
 20
289.0864296090761059
 30
0.0
 42
0.244698443229034
  0
VERTEX
  5
1CA5
  8
0
 10
216.9329822234537062
 20
289.9392767363739836
 30
0.0
  0
VERTEX
  5
1CA6
  8
0
 10
210.9488110839266142
 20
289.9392767363739836
 30
0.0
  0
VERTEX
  5
1CA7
  8
0
 10
210.9488110839266142
 20
199.9392767363740973
 30
0.0
  0
VERTEX
  5
1CA8
  8
0
 10
214.2309958531438099
 20
202.2374872535770862
 30
0.0
  0
VERTEX
  5
1CA9
  8
0
 10
223.8577335326052093
 20
280.6409738863465009
 30
0.0
 42
0.1853390449315343
  0
SEQEND
  5
1CAA
  8
0
  0
POLYLINE
  5
45C
  8
0
 66
     1
 10
0.0
 20
0.0
 30
0.0
  0
VERTEX
  5
1CAB
  8
0
 10
215.7183077888369951
 20
230.7616890005753021
 30
0.0
  0
VERTEX
  5
1CAC
  8
0
 10
216.7164430332736913
 20
238.8908482132395932
 30
0.0
  0
SEQEND
  5
1CAD
  8
0
  0
POLYLINE
  5
45D
  8
0
 66
     1
 10
0.0
 20
0.0
 30
0.0
  0
VERTEX
  5
1CAE
  8
0
 10
217.9023062130731034
 20
248.5489287657040904
 30
0.0
  0
VERTEX
  5
1CAF
  8
0
 10
219.2165433466732907
 20
259.2525312702518931
 30
0.0
  0
SEQEND
  5
1CB0
  8
0
  0
POLYLINE
  5
45E
  8
0
 66
     1
 10
0.0
 20
0.0
 30
0.0
  0
VERTEX
  5
1CB1
  8
0
 10
219.7973891951085932
 20
263.9831410811597152
 30
0.0
  0
VERTEX
  5
1CB2
  8
0
 10
220.999758158286113
 20
273.77565045152312
 30
0.0
  0
SEQEND
  5
1CB3
  8
0
  0
POLYLINE
  5
45F
  8
0
 66
     1
 10
0.0
 20
0.0
 30
0.0
  0
VERTEX
  5
1CB4
  8
0
 10
212.9488110839266142
 20
280.7969791695762183
 30
0.0
  0
VERTEX
  5
1CB5
  8
0
 10
212.9488110839266142
 20
270.3548673629833274
 30
0.0
  0
SEQEND
  5
1CB6
  8
0
  0
POLYLINE
  5
460
  8
0
 66
     1
 10
0.0
 20
0.0
 30
0.0
  0
VERTEX
  5
1CB7
  8
0
 10
212.9488110839266142
 20
259.9127555563903229
 30
0.0
  0
VERTEX
  5
1CB8
  8
0
 10
212.9488110839266142
 20
249.2175053254107979
 30
0.0
  0
SEQEND
  5
1CB9
  8
0
  0
POLYLINE
  5
461
  8
0
 66
     1
 10
0.0
 20
0.0
 30
0.0
  0
VERTEX
  5
1CBA
  8
0
 10
212.9488110839266142
 20
242.7912941649427125
 30
0.0
  0
VERTEX
  5
1CBB
  8
0
 10
212.9488110839266142
 20
229.2480895256884139
 30
0.0
  0
SEQEND
  5
1CBC
  8
0
  0
POLYLINE
  5
462
  8
0
 66
     1
 10
0.0
 20
0.0
 30
0.0
  0
VERTEX
  5
1CBD
  8
0
 10
215.7183077888369951
 20
230.7616890005753021
 30
0.0
  0
VERTEX
  5
1CBE
  8
0
 10
216.7164430332736913
 20
238.8908482132395932
 30
0.0
  0
SEQEND
  5
1CBF
  8
0
  0
POLYLINE
  5
463
  8
0
 66
     1
 10
0.0
 20
0.0
 30
0.0
  0
VERTEX
  5
1CC0
  8
0
 10
212.9488110839266142
 20
242.7912941649427125
 30
0.0
  0
VERTEX
  5
1CC1
  8
0
 10
212.9488110839266142
 20
229.2480895256884139
 30
0.0
  0
SEQEND
  5
1CC2
  8
0
  0
LINE
  5
464
  8
0
 10
210.9488110839266142
 20
289.9392767363739836
 30
0.0
 11
210.9488110839266142
 21
279.9392767363740973
 31
0.0
  0
CIRCLE
  5
465
  8
0
 10
217.3810218829005976
 20
281.3685563643563228
 30
0.0
 40
0.95
  0
LINE
  5
466
  8
0
 10
210.9488110839266142
 20
199.9392767363740973
 30
0.0
 11
210.9488110839266142
 21
222.9392767363740973
 31
0.0
  0
LINE
  5
467
  8
0
 10
210.9488110839266142
 20
289.9392767363739836
 30
0.0
 11
210.9488110839266142
 21
266.9392767363739836
 31
0.0
  0
LINE
  5
468
  8
0
 10
210.9488110839266142
 20
225.9392767363740973
 30
0.0
 11
210.9488110839266142
 21
263.9392767363739836
 31
0.0
  0
CIRCLE
  5
469
  8
0
 10
215.2153320610431138
 20
244.9707819742696984
 30
0.0
 40
1.0
  0
LINE
  5
46A
  8
0
 10
216.7164430332736913
 20
238.8908482132395932
 30
0.0
 11
212.9488110839266142
 21
242.7912941649427125
 31
0.0
  0
LINE
  5
46B
  8
0
 10
212.9488110839266142
 20
229.2480895256884139
 30
0.0
 11
215.7183077888369951
 21
230.7616890005753021
 31
0.0
  0
LINE
  5
46C
  8
0
 10
212.9488110839266142
 20
280.7969791695762183
 30
0.0
 11
220.999758158286113
 21
273.77565045152312
 31
0.0
  0
LINE
  5
46D
  8
0
 10
212.9488110839266142
 20
270.3548673629833274
 30
0.0
 11
219.7973891951085932
 21
263.9831410811597152
 31
0.0
  0
LINE
  5
46E
  8
0
 10
212.9488110839266142
 20
259.9127555563903229
 30
0.0
 11
216.3463082515710028
 21
261.4948978160649062
 31
0.0
  0
LINE
  5
46F
  8
0
 10
216.3463082515710028
 20
261.4948978160649062
 30
0.0
 11
219.2165433466732907
 21
259.2525312702518931
 31
0.0
  0
LINE
  5
470
  8
0
 10
212.9488110839266142
 20
249.2175053254107979
 30
0.0
 11
215.5872568338004953
 21
250.2300698658604006
 31
0.0
  0
LINE
  5
471
  8
0
 10
215.5872568338004953
 20
250.2300698658604006
 30
0.0
 11
217.9023062130731034
 21
248.5489287657040904
 31
0.0
  0
LINE
  5
1459
  8
0
 10
346.7764743651314916
 20
-13.10321424614372
 30
0.0
 11
346.7764743651314916
 21
3.7267857538562761
 31
0.0
  0
LINE
  5
145A
  8
0
 10
346.5270993651300842
 20
-84.629776611238114
 30
0.0
 11
346.5270993651300842
 21
-94.6297766112380998
 31
0.0
  0
LINE
  5
145C
  8
0
 10
20.2883493651299815
 20
-84.6297766112380998
 30
0.0
 11
20.2883493651299815
 21
-94.6297766112380998
 31
0.0
  0
LINE
  5
145D
  8
0
 10
20.537724365131421
 20
-13.10321424614372
 30
0.0
 11
20.537724365131421
 21
3.7267857538562761
 31
0.0
  0
LINE
  5
1460
  8
0
 10
20.2883493651299815
 20
-94.6297766112380998
 30
0.0
 11
20.2883493651299815
 21
-84.6297766112380998
 31
0.0
  0
LINE
  5
1461
  8
0
 10
20.2883493651299815
 20
-84.6297766112380998
 30
0.0
 11
346.5270993651300842
 21
-84.629776611238114
 31
0.0
  0
POLYLINE
  5
1472
  8
0
  6
CONTINUOUS
 66
     1
 10
0.0
 20
0.0
 30
0.0
  0
VERTEX
  5
1D14
  8
0
  6
CONTINUOUS
 10
346.7764743651314916
 20
-13.10321424614372
 30
0.0
  0
VERTEX
  5
1D15
  8
0
  6
CONTINUOUS
 10
280.852632270763479
 20
-13.10321424614372
 30
0.0
  0
VERTEX
  5
1D16
  8
0
  6
CONTINUOUS
 10
200.7019080059313012
 20
-30.1397766112381085
 30
0.0
  0
VERTEX
  5
1D17
  8
0
  6
CONTINUOUS
 10
183.407724365130008
 20
-30.1397766112381191
 30
0.0
  0
VERTEX
  5
1D18
  8
0
  6
CONTINUOUS
 10
166.1135407243293116
 20
-30.1397766112381191
 30
0.0
  0
VERTEX
  5
1D19
  8
0
  6
CONTINUOUS
 10
85.9628164594967501
 20
-13.10321424614372
 30
0.0
  0
VERTEX
  5
1D1A
  8
0
  6
CONTINUOUS
 10
20.537724365131421
 20
-13.10321424614372
 30
0.0
  0
SEQEND
  5
1D1B
  8
0
  6
CONTINUOUS
  0
CIRCLE
  5
1477
  8
0
 10
85.9628164594967501
 20
-4.68821424614372
 30
0.0
 40
0.95
  0
CIRCLE
  5
147C
  8
0
  6
CONTINUOUS
 10
85.7134414594953284
 20
-89.6297766112380998
 30
0.0
 40
0.95
  0
CIRCLE
  5
147D
  8
0
  6
CONTINUOUS
 10
280.852632270763479
 20
-4.6882142461437217
 30
0.0
 40
0.95
  0
CIRCLE
  5
147E
  8
0
  6
CONTINUOUS
 10
280.6032572707620147
 20
-89.6297766112380998
 30
0.0
 40
0.95
  0
POLYLINE
  5
147F
  8
0
  6
CONTINUOUS
 66
     1
 10
0.0
 20
0.0
 30
0.0
  0
VERTEX
  5
1D1C
  8
0
  6
CONTINUOUS
 10
346.7764743651314916
 20
3.7267857538562761
 30
0.0
  0
VERTEX
  5
1D1D
  8
0
  6
CONTINUOUS
 10
279.0837279912421991
 20
3.7267857538562761
 30
0.0
  0
VERTEX
  5
1D1E
  8
0
  6
CONTINUOUS
 10
198.9330037264099076
 20
-13.3097766112381208
 30
0.0
  0
VERTEX
  5
1D1F
  8
0
  6
CONTINUOUS
 10
183.407724365130008
 20
-13.3097766112381208
 30
0.0
  0
VERTEX
  5
1D20
  8
0
  6
CONTINUOUS
 10
167.8824450038505915
 20
-13.3097766112381208
 30
0.0
  0
VERTEX
  5
1D21
  8
0
  6
CONTINUOUS
 10
87.7317207390180585
 20
3.7267857538562761
 30
0.0
  0
VERTEX
  5
1D22
  8
0
  6
CONTINUOUS
 10
20.5377243651314387
 20
3.7267857538562761
 30
0.0
  0
SEQEND
  5
1D23
  8
0
  6
CONTINUOUS
  0
POLYLINE
  5
1481
  8
0
  6
CONTINUOUS
 66
     1
 10
0.0
 20
0.0
 30
0.0
  0
VERTEX
  5
1D24
  8
0
  6
CONTINUOUS
 10
20.2883493651299815
 20
-94.6297766112380998
 30
0.0
  0
VERTEX
  5
1D25
  8
0
  6
CONTINUOUS
 10
346.5270993651300842
 20
-94.6297766112380998
 30
0.0
  0
SEQEND
  5
1D26
  8
0
  6
CONTINUOUS
  0
POLYLINE
  5
1485
  8
0
  6
CONTINUOUS
 66
     1
 10
0.0
 20
0.0
 30
0.0
  0
VERTEX
  5
1D27
  8
0
  6
CONTINUOUS
 10
346.7764743651314916
 20
-14.1032142461437093
 30
0.0
  0
VERTEX
  5
1D28
  8
0
  6
CONTINUOUS
 10
279.0837279912421991
 20
-14.1032142461437093
 30
0.0
  0
VERTEX
  5
1D29
  8
0
  6
CONTINUOUS
 10
198.9330037264099076
 20
-31.1397766112381191
 30
0.0
  0
VERTEX
  5
1D2A
  8
0
  6
CONTINUOUS
 10
183.407724365130008
 20
-31.1397766112381191
 30
0.0
  0
VERTEX
  5
1D2B
  8
0
  6
CONTINUOUS
 10
167.8824450038505915
 20
-31.1397766112381191
 30
0.0
  0
VERTEX
  5
1D2C
  8
0
  6
CONTINUOUS
 10
87.7317207390180585
 20
-14.1032142461437093
 30
0.0
  0
VERTEX
  5
1D2D
  8
0
  6
CONTINUOUS
 10
20.5377243651314387
 20
-14.1032142461437093
 30
0.0
  0
SEQEND
  5
1D2E
  8
0
  6
CONTINUOUS
  0
POLYLINE
  5
1486
  8
0
  6
CONTINUOUS
 66
     1
 10
0.0
 20
0.0
 30
0.0
  0
VERTEX
  5
1D2F
  8
0
  6
CONTINUOUS
 10
346.7764743651314916
 20
-30.9332142461437201
 30
0.0
  0
VERTEX
  5
1D30
  8
0
  6
CONTINUOUS
 10
280.852632270763479
 20
-30.9332142461437201
 30
0.0
  0
VERTEX
  5
1D31
  8
0
  6
CONTINUOUS
 10
200.7019080059313012
 20
-47.9697766112381032
 30
0.0
  0
VERTEX
  5
1D32
  8
0
  6
CONTINUOUS
 10
183.407724365130008
 20
-47.9697766112381032
 30
0.0
  0
VERTEX
  5
1D33
  8
0
  6
CONTINUOUS
 10
166.1135407243293116
 20
-47.9697766112381103
 30
0.0
  0
VERTEX
  5
1D34
  8
0
  6
CONTINUOUS
 10
85.9628164594967501
 20
-30.9332142461437201
 30
0.0
  0
VERTEX
  5
1D35
  8
0
  6
CONTINUOUS
 10
20.537724365131421
 20
-30.9332142461437201
 30
0.0
  0
SEQEND
  5
1D36
  8
0
  6
CONTINUOUS
  0
LINE
  5
1487
  8
0
 10
346.7764743651314916
 20
-30.9332142461437201
 30
0.0
 11
346.7764743651314916
 21
-14.1032142461437093
 31
0.0
  0
LINE
  5
1488
  8
0
 10
20.537724365131421
 20
-30.9332142461437201
 30
0.0
 11
20.537724365131421
 21
-14.1032142461437093
 31
0.0
  0
CIRCLE
  5
1489
  8
0
 10
85.9628164594967501
 20
-22.5182142461437103
 30
0.0
 40
0.95
  0
CIRCLE
  5
148A
  8
0
  6
CONTINUOUS
 10
280.852632270763479
 20
-22.5182142461437209
 30
0.0
 40
0.95
  0
POLYLINE
  5
148D
  8
0
  6
CONTINUOUS
 66
     1
 10
0.0
 20
0.0
 30
0.0
  0
VERTEX
  5
1D37
  8
0
  6
CONTINUOUS
 10
346.7764743651314916
 20
-31.9332142461437094
 30
0.0
  0
VERTEX
  5
1D38
  8
0
  6
CONTINUOUS
 10
279.0837279912421991
 20
-31.9332142461437094
 30
0.0
  0
VERTEX
  5
1D39
  8
0
  6
CONTINUOUS
 10
198.9330037264099076
 20
-48.9697766112381103
 30
0.0
  0
VERTEX
  5
1D3A
  8
0
  6
CONTINUOUS
 10
183.407724365130008
 20
-48.9697766112381103
 30
0.0
  0
VERTEX
  5
1D3B
  8
0
  6
CONTINUOUS
 10
167.8824450038505915
 20
-48.9697766112381103
 30
0.0
  0
VERTEX
  5
1D3C
  8
0
  6
CONTINUOUS
 10
87.7317207390180585
 20
-31.9332142461437094
 30
0.0
  0
VERTEX
  5
1D3D
  8
0
  6
CONTINUOUS
 10
20.5377243651314387
 20
-31.9332142461437094
 30
0.0
  0
SEQEND
  5
1D3E
  8
0
  6
CONTINUOUS
  0
POLYLINE
  5
148E
  8
0
  6
CONTINUOUS
 66
     1
 10
0.0
 20
0.0
 30
0.0
  0
VERTEX
  5
1D3F
  8
0
  6
CONTINUOUS
 10
346.7764743651314916
 20
-48.7632142461437113
 30
0.0
  0
VERTEX
  5
1D40
  8
0
  6
CONTINUOUS
 10
280.852632270763479
 20
-48.7632142461437113
 30
0.0
  0
VERTEX
  5
1D41
  8
0
  6
CONTINUOUS
 10
200.7019080059313012
 20
-65.7997766112381015
 30
0.0
  0
VERTEX
  5
1D42
  8
0
  6
CONTINUOUS
 10
183.407724365130008
 20
-65.7997766112381015
 30
0.0
  0
VERTEX
  5
1D43
  8
0
  6
CONTINUOUS
 10
166.1135407243293116
 20
-65.7997766112381157
 30
0.0
  0
VERTEX
  5
1D44
  8
0
  6
CONTINUOUS
 10
85.9628164594967501
 20
-48.7632142461437113
 30
0.0
  0
VERTEX
  5
1D45
  8
0
  6
CONTINUOUS
 10
20.537724365131421
 20
-48.7632142461437113
 30
0.0
  0
SEQEND
  5
1D46
  8
0
  6
CONTINUOUS
  0
LINE
  5
148F
  8
0
 10
346.7764743651314916
 20
-48.7632142461437113
 30
0.0
 11
346.7764743651314916
 21
-31.9332142461437094
 31
0.0
  0
LINE
  5
1490
  8
0
 10
20.537724365131421
 20
-48.7632142461437113
 30
0.0
 11
20.537724365131421
 21
-31.9332142461437094
 31
0.0
  0
CIRCLE
  5
1491
  8
0
 10
85.9628164594967501
 20
-40.3482142461437121
 30
0.0
 40
0.95
  0
CIRCLE
  5
1492
  8
0
  6
CONTINUOUS
 10
280.852632270763479
 20
-40.3482142461437121
 30
0.0
 40
0.95
  0
POLYLINE
  5
1495
  8
0
  6
CONTINUOUS
 66
     1
 10
0.0
 20
0.0
 30
0.0
  0
VERTEX
  5
1D47
  8
0
  6
CONTINUOUS
 10
346.7764743651314916
 20
-49.763214246143697
 30
0.0
  0
VERTEX
  5
1D48
  8
0
  6
CONTINUOUS
 10
279.0837279912421991
 20
-49.763214246143697
 30
0.0
  0
VERTEX
  5
1D49
  8
0
  6
CONTINUOUS
 10
198.9330037264099076
 20
-66.7997766112381015
 30
0.0
  0
VERTEX
  5
1D4A
  8
0
  6
CONTINUOUS
 10
183.407724365130008
 20
-66.7997766112381015
 30
0.0
  0
VERTEX
  5
1D4B
  8
0
  6
CONTINUOUS
 10
167.8824450038505915
 20
-66.7997766112381015
 30
0.0
  0
VERTEX
  5
1D4C
  8
0
  6
CONTINUOUS
 10
87.7317207390180585
 20
-49.763214246143697
 30
0.0
  0
VERTEX
  5
1D4D
  8
0
  6
CONTINUOUS
 10
20.5377243651314387
 20
-49.763214246143697
 30
0.0
  0
SEQEND
  5
1D4E
  8
0
  6
CONTINUOUS
  0
POLYLINE
  5
1496
  8
0
  6
CONTINUOUS
 66
     1
 10
0.0
 20
0.0
 30
0.0
  0
VERTEX
  5
1D4F
  8
0
  6
CONTINUOUS
 10
346.7764743651314916
 20
-66.5932142461437024
 30
0.0
  0
VERTEX
  5
1D50
  8
0
  6
CONTINUOUS
 10
280.852632270763479
 20
-66.5932142461437024
 30
0.0
  0
VERTEX
  5
1D51
  8
0
  6
CONTINUOUS
 10
200.7019080059313012
 20
-83.6297766112380998
 30
0.0
  0
VERTEX
  5
1D52
  8
0
  6
CONTINUOUS
 10
183.407724365130008
 20
-83.6297766112380998
 30
0.0
  0
VERTEX
  5
1D53
  8
0
  6
CONTINUOUS
 10
166.1135407243293116
 20
-83.6297766112380998
 30
0.0
  0
VERTEX
  5
1D54
  8
0
  6
CONTINUOUS
 10
85.9628164594967501
 20
-66.5932142461437024
 30
0.0
  0
VERTEX
  5
1D55
  8
0
  6
CONTINUOUS
 10
20.537724365131421
 20
-66.5932142461437024
 30
0.0
  0
SEQEND
  5
1D56
  8
0
  6
CONTINUOUS
  0
LINE
  5
1497
  8
0
 10
346.7764743651314916
 20
-66.5932142461437024
 30
0.0
 11
346.7764743651314916
 21
-49.763214246143697
 31
0.0
  0
LINE
  5
1498
  8
0
 10
20.537724365131421
 20
-66.5932142461437024
 30
0.0
 11
20.537724365131421
 21
-49.763214246143697
 31
0.0
  0
CIRCLE
  5
1499
  8
0
 10
85.9628164594967501
 20
-58.1782142461437033
 30
0.0
 40
0.95
  0
CIRCLE
  5
149A
  8
0
  6
CONTINUOUS
 10
280.852632270763479
 20
-58.1782142461437033
 30
0.0
 40
0.95
  0
CIRCLE
  5
14A1
  8
0
 10
85.9628164594967501
 20
86.3117857538562703
 30
0.0
 40
0.95
  0
CIRCLE
  5
14A2
  8
0
  6
CONTINUOUS
 10
280.852632270763479
 20
86.3117857538562703
 30
0.0
 40
0.95
  0
CIRCLE
  5
14AC
  8
0
  6
CONTINUOUS
 10
85.9628164594967359
 20
9.7267857538562552
 30
0.0
 40
0.95
  0
CIRCLE
  5
14AD
  8
0
  6
CONTINUOUS
 10
280.852632270763479
 20
9.7267857538562552
 30
0.0
 40
0.95
  0
CIRCLE
  5
14AE
  8
0
 10
85.9628164594967501
 20
177.3117857538562134
 30
0.0
 40
0.95
  0
CIRCLE
  5
14AF
  8
0
  6
CONTINUOUS
 10
280.852632270763479
 20
177.3117857538562134
 30
0.0
 40
0.95
  0
CIRCLE
  5
14B0
  8
0
  6
CONTINUOUS
 10
85.9628164594967359
 20
100.7267857538562055
 30
0.0
 40
0.95
  0
CIRCLE
  5
14B1
  8
0
  6
CONTINUOUS
 10
280.852632270763479
 20
100.7267857538562055
 30
0.0
 40
0.95
  0
ENDSEC
  0
EOF
