  0
SECTION
  2
HEADER
  9
$ACADVER
  1
AC1009
  9
$INSBASE
 10
0.0
 20
0.0
 30
0.0
  9
$EXTMIN
 10
31.3416937105561288
 20
10.8499408675492006
 30
0.0
  9
$EXTMAX
 10
387.5804437105563238
 20
143.2265032326436085
 30
0.0
  9
$LIMMIN
 10
0.0
 20
0.0
  9
$LIMMAX
 10
12.0
 20
9.0
  9
$ORTHOMODE
 70
     0
  9
$REGENMODE
 70
     1
  9
$FILLMODE
 70
     1
  9
$QTEXTMODE
 70
     0
  9
$MIRRTEXT
 70
     0
  9
$DRAGMODE
 70
     2
  9
$LTSCALE
 40
1.0
  9
$OSMODE
 70
  2047
  9
$ATTMODE
 70
     1
  9
$TEXTSIZE
 40
0.2
  9
$TRACEWID
 40
0.05
  9
$TEXTSTYLE
  7
STANDARD
  9
$CLAYER
  8
0
  9
$CELTYPE
  6
BYLAYER
  9
$CECOLOR
 62
   256
  9
$DIMSCALE
 40
1.0
  9
$DIMASZ
 40
0.18
  9
$DIMEXO
 40
0.0625
  9
$DIMDLI
 40
0.38
  9
$DIMRND
 40
0.0
  9
$DIMDLE
 40
0.0
  9
$DIMEXE
 40
0.18
  9
$DIMTP
 40
0.0
  9
$DIMTM
 40
0.0
  9
$DIMTXT
 40
0.18
  9
$DIMCEN
 40
0.09
  9
$DIMTSZ
 40
0.0
  9
$DIMTOL
 70
     0
  9
$DIMLIM
 70
     0
  9
$DIMTIH
 70
     1
  9
$DIMTOH
 70
     1
  9
$DIMSE1
 70
     0
  9
$DIMSE2
 70
     0
  9
$DIMTAD
 70
     0
  9
$DIMZIN
 70
     0
  9
$DIMBLK
  1

  9
$DIMASO
 70
     1
  9
$DIMSHO
 70
     1
  9
$DIMPOST
  1

  9
$DIMAPOST
  1

  9
$DIMALT
 70
     0
  9
$DIMALTD
 70
     2
  9
$DIMALTF
 40
25.3999999999999986
  9
$DIMLFAC
 40
1.0
  9
$DIMTOFL
 70
     0
  9
$DIMTVP
 40
0.0
  9
$DIMTIX
 70
     0
  9
$DIMSOXD
 70
     0
  9
$DIMSAH
 70
     0
  9
$DIMBLK1
  1

  9
$DIMBLK2
  1

  9
$DIMSTYLE
  2
STANDARD
  9
$DIMCLRD
 70
     0
  9
$DIMCLRE
 70
     0
  9
$DIMCLRT
 70
     0
  9
$DIMTFAC
 40
1.0
  9
$DIMGAP
 40
0.09
  9
$LUNITS
 70
     2
  9
$LUPREC
 70
     4
  9
$SKETCHINC
 40
0.1
  9
$FILLETRAD
 40
0.0
  9
$AUNITS
 70
     0
  9
$AUPREC
 70
     0
  9
$MENU
  1
.
  9
$ELEVATION
 40
0.0
  9
$PELEVATION
 40
0.0
  9
$THICKNESS
 40
0.0
  9
$LIMCHECK
 70
     0
  9
$BLIPMODE
 70
     0
  9
$CHAMFERA
 40
0.0
  9
$CHAMFERB
 40
0.0
  9
$SKPOLY
 70
     0
  9
$TDCREATE
 40
2459420.4204513891600072
  9
$TDUPDATE
 40
2459420.42077546287328
  9
$TDINDWG
 40
0.0003356481
  9
$TDUSRTIMER
 40
0.0003356481
  9
$USRTIMER
 70
     1
  9
$ANGBASE
 50
0.0
  9
$ANGDIR
 70
     0
  9
$PDMODE
 70
     0
  9
$PDSIZE
 40
0.0
  9
$PLINEWID
 40
0.0
  9
$COORDS
 70
     1
  9
$SPLFRAME
 70
     0
  9
$SPLINETYPE
 70
     6
  9
$SPLINESEGS
 70
     8
  9
$ATTDIA
 70
     1
  9
$ATTREQ
 70
     1
  9
$HANDLING
 70
     1
  9
$HANDSEED
  5
6E1
  9
$SURFTAB1
 70
     6
  9
$SURFTAB2
 70
     6
  9
$SURFTYPE
 70
     6
  9
$SURFU
 70
     6
  9
$SURFV
 70
     6
  9
$UCSNAME
  2

  9
$UCSORG
 10
0.0
 20
0.0
 30
0.0
  9
$UCSXDIR
 10
1.0
 20
0.0
 30
0.0
  9
$UCSYDIR
 10
0.0
 20
1.0
 30
0.0
  9
$PUCSNAME
  2

  9
$PUCSORG
 10
0.0
 20
0.0
 30
0.0
  9
$PUCSXDIR
 10
1.0
 20
0.0
 30
0.0
  9
$PUCSYDIR
 10
0.0
 20
1.0
 30
0.0
  9
$USERI1
 70
     0
  9
$USERI2
 70
     0
  9
$USERI3
 70
     0
  9
$USERI4
 70
     0
  9
$USERI5
 70
     0
  9
$USERR1
 40
0.0
  9
$USERR2
 40
0.0
  9
$USERR3
 40
0.0
  9
$USERR4
 40
0.0
  9
$USERR5
 40
0.0
  9
$WORLDVIEW
 70
     1
  9
$SHADEDGE
 70
     3
  9
$SHADEDIF
 70
    70
  9
$TILEMODE
 70
     1
  9
$MAXACTVP
 70
    64
  9
$PLIMCHECK
 70
     0
  9
$PEXTMIN
 10
0.0
 20
0.0
 30
0.0
  9
$PEXTMAX
 10
0.0
 20
0.0
 30
0.0
  9
$PLIMMIN
 10
0.0
 20
0.0
  9
$PLIMMAX
 10
12.0
 20
9.0
  9
$UNITMODE
 70
     0
  9
$VISRETAIN
 70
     1
  9
$PLINEGEN
 70
     0
  9
$PSLTSCALE
 70
     1
  0
ENDSEC
  0
SECTION
  2
TABLES
  0
TABLE
  2
VPORT
 70
     1
  0
VPORT
  2
*ACTIVE
 70
     0
 10
0.0
 20
0.0
 11
1.0
 21
1.0
 12
154.3698170618885968
 22
25.5871734420040902
 13
0.0
 23
0.0
 14
0.5
 24
0.5
 15
0.5
 25
0.5
 16
0.0
 26
0.0
 36
1.0
 17
0.0
 27
0.0
 37
0.0
 40
353.1375249497676236
 41
1.832426550598476
 42
50.0
 43
0.0
 44
0.0
 50
0.0
 51
0.0
 71
     0
 72
  1000
 73
     1
 74
     3
 75
     0
 76
     1
 77
     0
 78
     0
  0
ENDTAB
  0
TABLE
  2
LTYPE
 70
     1
  0
LTYPE
  2
CONTINUOUS
 70
     0
  3
Solid line
 72
    65
 73
     0
 40
0.0
  0
ENDTAB
  0
TABLE
  2
LAYER
 70
     2
  0
LAYER
  2
0
 70
     0
 62
     7
  6
CONTINUOUS
  0
LAYER
  2
LAYER_1
 70
     0
 62
     7
  6
CONTINUOUS
  0
ENDTAB
  0
TABLE
  2
STYLE
 70
     2
  0
STYLE
  2
STANDARD
 70
     0
 40
0.0
 41
1.0
 50
0.0
 71
     0
 42
0.2
  3
txt
  4

  0
STYLE
  2
ANNOTATIVE
 70
     0
 40
0.0
 41
1.0
 50
0.0
 71
     0
 42
0.2
  3
txt
  4

  0
ENDTAB
  0
TABLE
  2
VIEW
 70
     0
  0
ENDTAB
  0
TABLE
  2
UCS
 70
     0
  0
ENDTAB
  0
TABLE
  2
APPID
 70
     7
  0
APPID
  2
ACAD
 70
     0
  0
APPID
  2
ACADANNOPO
 70
     0
  0
APPID
  2
ACADANNOTATIVE
 70
     0
  0
APPID
  2
ACAD_DSTYLE_DIMJAG
 70
     0
  0
APPID
  2
ACAD_DSTYLE_DIMTALN
 70
     0
  0
APPID
  2
ACAD_MLEADERVER
 70
     0
  0
APPID
  2
ACAD_NAV_VCDISPLAY
 70
     0
  0
ENDTAB
  0
TABLE
  2
DIMSTYLE
 70
     3
  0
DIMSTYLE
  2
STANDARD
 70
     0
  3

  4

  5

  6

  7

 40
1.0
 41
0.18
 42
0.0625
 43
0.38
 44
0.18
 45
0.0
 46
0.0
 47
0.0
 48
0.0
140
0.18
141
0.09
142
0.0
143
25.3999999999999986
144
1.0
145
0.0
146
1.0
147
0.09
 71
     0
 72
     0
 73
     1
 74
     1
 75
     0
 76
     0
 77
     0
 78
     0
170
     0
171
     2
172
     0
173
     0
174
     0
175
     0
176
     0
177
     0
178
     0
  0
DIMSTYLE
  2
ANNOTATIVE
 70
     0
  3

  4

  5

  6

  7

 40
0.0
 41
0.18
 42
0.0625
 43
0.38
 44
0.18
 45
0.0
 46
0.0
 47
0.0
 48
0.0
140
0.18
141
0.09
142
0.0
143
25.3999999999999986
144
1.0
145
0.0
146
1.0
147
0.09
 71
     0
 72
     0
 73
     1
 74
     1
 75
     0
 76
     0
 77
     0
 78
     0
170
     0
171
     2
172
     0
173
     0
174
     0
175
     0
176
     0
177
     0
178
     0
  0
DIMSTYLE
  2
ISO-25
 70
     0
  3

  4

  5

  6

  7

 40
1.0
 41
2.5
 42
0.625
 43
3.75
 44
1.25
 45
0.0
 46
0.0
 47
0.0
 48
0.0
140
2.5
141
2.5
142
0.0
143
0.03937007874016
144
1.0
145
0.0
146
1.0
147
0.625
 71
     0
 72
     0
 73
     0
 74
     0
 75
     0
 76
     0
 77
     1
 78
     8
170
     0
171
     3
172
     1
173
     0
174
     0
175
     0
176
     0
177
     0
178
     0
  0
ENDTAB
  0
ENDSEC
  0
SECTION
  2
BLOCKS
  0
BLOCK
  8
0
  2
$MODEL_SPACE
 70
     0
 10
0.0
 20
0.0
 30
0.0
  3
$MODEL_SPACE
  1

  0
ENDBLK
  5
21
  8
0
  0
BLOCK
 67
     1
  8
0
  2
$PAPER_SPACE
 70
     0
 10
0.0
 20
0.0
 30
0.0
  3
$PAPER_SPACE
  1

  0
ENDBLK
  5
5B
 67
     1
  8
0
  0
ENDSEC
  0
SECTION
  2
ENTITIES
  0
CIRCLE
  5
240
  8
0
  6
CONTINUOUS
 62
     1
 10
36.9400432811070019
 20
33.4848528031942507
 30
0.0
 40
0.95
  0
CIRCLE
  5
241
  8
0
  6
CONTINUOUS
 62
     1
 10
36.9400432811070019
 20
137.6281536620925863
 30
0.0
 40
0.95
  0
CIRCLE
  5
242
  8
0
  6
CONTINUOUS
 62
     1
 10
381.9820941400056995
 20
137.6281536620925863
 30
0.0
 40
0.95
  0
CIRCLE
  5
243
  8
0
  6
CONTINUOUS
 62
     1
 10
381.9820941400056995
 20
33.4848528031942507
 30
0.0
 40
0.95
  0
CIRCLE
  5
244
  8
0
  6
CONTINUOUS
 62
     1
 10
266.9820941400059269
 20
138.7265032326436085
 30
0.0
 40
0.95
  0
CIRCLE
  5
245
  8
0
  6
CONTINUOUS
 62
     1
 10
151.9400432811065969
 20
138.7265032326436085
 30
0.0
 40
0.95
  0
CIRCLE
  5
246
  8
0
  6
CONTINUOUS
 62
     1
 10
264.3754825955733736
 20
23.7698862533987914
 30
0.0
 40
0.95
  0
CIRCLE
  5
247
  8
0
  6
CONTINUOUS
 62
     1
 10
155.0454048255417092
 20
23.7698862533987914
 30
0.0
 40
0.95
  0
CIRCLE
  5
248
  8
0
  6
CONTINUOUS
 62
     1
 10
66.4418435496451423
 20
118.6069573690743937
 30
0.0
 40
1.1000000000000001
  0
CIRCLE
  5
249
  8
0
  6
CONTINUOUS
 62
     1
 10
209.4418435496451139
 20
118.6069573690743937
 30
0.0
 40
1.1000000000000001
  0
CIRCLE
  5
24A
  8
0
  6
CONTINUOUS
 62
     1
 10
352.4418435496451139
 20
118.6069573690743937
 30
0.0
 40
1.1000000000000001
  0
CIRCLE
  5
24B
  8
0
  6
CONTINUOUS
 62
     1
 10
310.281343101404218
 20
41.8865032326440172
 30
0.0
 40
1.1000000000000001
  0
CIRCLE
  5
24C
  8
0
  6
CONTINUOUS
 62
     1
 10
373.580443710555528
 20
41.8865032326440172
 30
0.0
 40
1.1000000000000001
  0
CIRCLE
  5
24D
  8
0
  6
CONTINUOUS
 62
     1
 10
45.3416937105561431
 20
41.8865032326440172
 30
0.0
 40
1.1000000000000001
  0
CIRCLE
  5
24E
  8
0
  6
CONTINUOUS
 62
     1
 10
108.6407943197076946
 20
41.8865032326440172
 30
0.0
 40
1.1000000000000001
  0
POLYLINE
  5
24F
  8
LAYER_1
 62
     1
 66
     1
 10
0.0
 20
0.0
 30
0.0
 70
     1
  0
VERTEX
  5
4C5
  8
LAYER_1
 62
     1
 10
260.8729717105568966
 20
40.6145295834525015
 30
0.0
  0
VERTEX
  5
4C6
  8
LAYER_1
 62
     1
 10
260.8729717105568966
 20
40.6145295834525015
 30
0.0
  0
VERTEX
  5
4C7
  8
LAYER_1
 62
     1
 10
261.3740107105571155
 20
40.7703095834520965
 30
0.0
  0
VERTEX
  5
4C8
  8
LAYER_1
 62
     1
 10
261.8004347105569991
 20
41.2189295834518674
 30
0.0
  0
VERTEX
  5
4C9
  8
LAYER_1
 62
     1
 10
262.1546507105570072
 20
41.9323085834525813
 30
0.0
  0
VERTEX
  5
4CA
  8
LAYER_1
 62
     1
 10
262.4390657105573155
 20
42.8823655834524899
 30
0.0
  0
VERTEX
  5
4CB
  8
LAYER_1
 62
     1
 10
262.8081217105568044
 20
45.3801945834518321
 30
0.0
  0
VERTEX
  5
4CC
  8
LAYER_1
 62
     1
 10
262.9268617105568069
 20
48.4877695834525113
 30
0.0
  0
VERTEX
  5
4CD
  8
LAYER_1
 62
     1
 10
262.7214717105567274
 20
54.7179095834525171
 30
0.0
  0
VERTEX
  5
4CE
  8
LAYER_1
 62
     1
 10
257.107511710557219
 20
46.2284895834525216
 30
0.0
  0
VERTEX
  5
4CF
  8
LAYER_1
 62
     1
 10
257.8306497105569974
 20
43.9938155834519122
 30
0.0
  0
VERTEX
  5
4D0
  8
LAYER_1
 62
     1
 10
258.7335057105570968
 20
42.2148495834525121
 30
0.0
  0
VERTEX
  5
4D1
  8
LAYER_1
 62
     1
 10
259.7647297105568782
 20
41.0392135834521099
 30
0.0
  0
VERTEX
  5
4D2
  8
LAYER_1
 62
     1
 10
260.3124327105571751
 20
40.7237755834524791
 30
0.0
  0
SEQEND
  5
4D3
  8
LAYER_1
 62
     1
  0
POLYLINE
  5
250
  8
LAYER_1
 62
     1
 66
     1
 10
0.0
 20
0.0
 30
0.0
 70
     1
  0
VERTEX
  5
4D4
  8
LAYER_1
 62
     1
 10
250.3699717105573086
 20
68.6845295834525587
 30
0.0
  0
VERTEX
  5
4D5
  8
LAYER_1
 62
     1
 10
250.3699717105573086
 20
68.6845295834525587
 30
0.0
  0
VERTEX
  5
4D6
  8
LAYER_1
 62
     1
 10
250.619219710557303
 20
70.0709035834521501
 30
0.0
  0
VERTEX
  5
4D7
  8
LAYER_1
 62
     1
 10
251.2856627105568066
 20
71.2518895834521118
 30
0.0
  0
VERTEX
  5
4D8
  8
LAYER_1
 62
     1
 10
252.2473537105562968
 20
72.0734455834525534
 30
0.0
  0
VERTEX
  5
4D9
  8
LAYER_1
 62
     1
 10
252.8008067105573105
 20
72.3012995834526464
 30
0.0
  0
VERTEX
  5
4DA
  8
LAYER_1
 62
     1
 10
253.3823417105571139
 20
72.3815295834521066
 30
0.0
  0
VERTEX
  5
4DB
  8
LAYER_1
 62
     1
 10
254.094515710556891
 20
72.271747583452111
 30
0.0
  0
VERTEX
  5
4DC
  8
LAYER_1
 62
     1
 10
254.7794127105572102
 20
71.9654025834520326
 30
0.0
  0
VERTEX
  5
4DD
  8
LAYER_1
 62
     1
 10
255.9839317105569023
 20
70.9010155834521356
 30
0.0
  0
VERTEX
  5
4DE
  8
LAYER_1
 62
     1
 10
256.8290207105573018
 20
69.4643605834523896
 30
0.0
  0
VERTEX
  5
4DF
  8
LAYER_1
 62
     1
 10
257.0646297105573126
 20
68.692680583452443
 30
0.0
  0
VERTEX
  5
4E0
  8
LAYER_1
 62
     1
 10
257.1478017105571894
 20
67.931429583452541
 30
0.0
  0
VERTEX
  5
4E1
  8
LAYER_1
 62
     1
 10
256.9605987105571216
 20
66.6167265834517366
 30
0.0
  0
VERTEX
  5
4E2
  8
LAYER_1
 62
     1
 10
256.4203837105570756
 20
65.526666583452652
 30
0.0
  0
VERTEX
  5
4E3
  8
LAYER_1
 62
     1
 10
255.5592487105571138
 20
64.7832015834525237
 30
0.0
  0
VERTEX
  5
4E4
  8
LAYER_1
 62
     1
 10
254.409281710557309
 20
64.5082795834524632
 30
0.0
  0
VERTEX
  5
4E5
  8
LAYER_1
 62
     1
 10
253.6067157105570118
 20
64.600677583452466
 30
0.0
  0
VERTEX
  5
4E6
  8
LAYER_1
 62
     1
 10
252.8538917105562973
 20
64.8623615834525253
 30
0.0
  0
VERTEX
  5
4E7
  8
LAYER_1
 62
     1
 10
252.1684607105572127
 20
65.2700645834520401
 30
0.0
  0
VERTEX
  5
4E8
  8
LAYER_1
 62
     1
 10
251.5680727105574022
 20
65.8005195834521146
 30
0.0
  0
VERTEX
  5
4E9
  8
LAYER_1
 62
     1
 10
250.6930317105567951
 20
67.136619583452557
 30
0.0
  0
VERTEX
  5
4EA
  8
LAYER_1
 62
     1
 10
250.4536787105571136
 20
67.8957315834525161
 30
0.0
  0
SEQEND
  5
4EB
  8
LAYER_1
 62
     1
  0
POLYLINE
  5
251
  8
LAYER_1
 62
     1
 66
     1
 10
0.0
 20
0.0
 30
0.0
 70
     1
  0
VERTEX
  5
4EC
  8
LAYER_1
 62
     1
 10
243.6290417105572033
 20
73.4769595834525262
 30
0.0
  0
VERTEX
  5
4ED
  8
LAYER_1
 62
     1
 10
243.6290417105572033
 20
73.4769595834525262
 30
0.0
  0
VERTEX
  5
4EE
  8
LAYER_1
 62
     1
 10
243.1562197105569965
 20
73.0758065834526178
 30
0.0
  0
VERTEX
  5
4EF
  8
LAYER_1
 62
     1
 10
242.208435710557012
 20
71.756824583452044
 30
0.0
  0
VERTEX
  5
4F0
  8
LAYER_1
 62
     1
 10
239.2474117105566052
 20
66.9045095834525227
 30
0.0
  0
VERTEX
  5
4F1
  8
LAYER_1
 62
     1
 10
236.1237867105571127
 20
61.5558375834526572
 30
0.0
  0
VERTEX
  5
4F2
  8
LAYER_1
 62
     1
 10
233.9757617105572081
 20
57.5935395834520634
 30
0.0
  0
VERTEX
  5
4F3
  8
LAYER_1
 62
     1
 10
236.0660227105570073
 20
59.7897055834521325
 30
0.0
  0
VERTEX
  5
4F4
  8
LAYER_1
 62
     1
 10
237.912383710557009
 20
62.0179605834520018
 30
0.0
  0
VERTEX
  5
4F5
  8
LAYER_1
 62
     1
 10
239.5020087105569928
 20
64.2077055834521389
 30
0.0
  0
VERTEX
  5
4F6
  8
LAYER_1
 62
     1
 10
240.822061710556909
 20
66.2883395834525118
 30
0.0
  0
VERTEX
  5
4F7
  8
LAYER_1
 62
     1
 10
242.3004337105568027
 20
69.0193705834517459
 30
0.0
  0
VERTEX
  5
4F8
  8
LAYER_1
 62
     1
 10
243.2524967105570965
 20
71.2433485834517342
 30
0.0
  0
VERTEX
  5
4F9
  8
LAYER_1
 62
     1
 10
243.6910877105572126
 20
72.7869765834524287
 30
0.0
  0
SEQEND
  5
4FA
  8
LAYER_1
 62
     1
  0
POLYLINE
  5
252
  8
LAYER_1
 62
     1
 66
     1
 10
0.0
 20
0.0
 30
0.0
  0
VERTEX
  5
4FB
  8
LAYER_1
 62
     1
 10
197.0912017105571863
 20
59.1000095834520991
 30
0.0
  0
VERTEX
  5
4FC
  8
LAYER_1
 62
     1
 10
196.9029287105570063
 20
60.4692685834520418
 30
0.0
  0
VERTEX
  5
4FD
  8
LAYER_1
 62
     1
 10
196.4065717105571878
 20
61.6331395834521274
 30
0.0
  0
VERTEX
  5
4FE
  8
LAYER_1
 62
     1
 10
195.6085497105567015
 20
62.6130165834520014
 30
0.0
  0
VERTEX
  5
4FF
  8
LAYER_1
 62
     1
 10
194.643649710557213
 20
63.5158725834518165
 30
0.0
  0
VERTEX
  5
500
  8
LAYER_1
 62
     1
 10
192.1618617105567068
 20
65.1932095834521306
 30
0.0
  0
VERTEX
  5
501
  8
LAYER_1
 62
     1
 10
191.0664547105565987
 20
65.6211075834519306
 30
0.0
  0
VERTEX
  5
502
  8
LAYER_1
 62
     1
 10
189.7656517105573073
 20
65.7409195834520546
 30
0.0
  0
VERTEX
  5
503
  8
LAYER_1
 62
     1
 10
188.2097237105571139
 20
65.5708315834521045
 30
0.0
  0
VERTEX
  5
504
  8
LAYER_1
 62
     1
 10
186.5478927105569937
 20
65.0605685834519818
 30
0.0
  0
VERTEX
  5
505
  8
LAYER_1
 62
     1
 10
184.8218767105570919
 20
64.2101305834520417
 30
0.0
  0
VERTEX
  5
506
  8
LAYER_1
 62
     1
 10
183.0733977105570887
 20
63.0195165834518178
 30
0.0
  0
VERTEX
  5
507
  8
LAYER_1
 62
     1
 10
181.3441757105570957
 20
61.4887295834516792
 30
0.0
  0
VERTEX
  5
508
  8
LAYER_1
 62
     1
 10
179.6759307105571111
 20
59.6177665834525072
 30
0.0
  0
VERTEX
  5
509
  8
LAYER_1
 62
     1
 10
178.1103827105569906
 20
57.4066305834518218
 30
0.0
  0
VERTEX
  5
50A
  8
LAYER_1
 62
     1
 10
176.689251710556988
 20
54.8553195834518803
 30
0.0
  0
VERTEX
  5
50B
  8
LAYER_1
 62
     1
 10
175.7510967105571069
 20
52.816405583452017
 30
0.0
  0
VERTEX
  5
50C
  8
LAYER_1
 62
     1
 10
175.0889317105568068
 20
50.8160025834518976
 30
0.0
  0
VERTEX
  5
50D
  8
LAYER_1
 62
     1
 10
174.6963397105573108
 20
48.866947583452081
 30
0.0
  0
VERTEX
  5
50E
  8
LAYER_1
 62
     1
 10
174.5669017105572891
 20
46.9820795834520979
 30
0.0
  0
VERTEX
  5
50F
  8
LAYER_1
 62
     1
 10
174.7293677105571135
 20
44.9949135834517477
 30
0.0
  0
VERTEX
  5
510
  8
LAYER_1
 62
     1
 10
175.2119507105566072
 20
43.1641965834518118
 30
0.0
  0
VERTEX
  5
511
  8
LAYER_1
 62
     1
 10
176.0074317105568866
 20
41.5244265834518202
 30
0.0
  0
VERTEX
  5
512
  8
LAYER_1
 62
     1
 10
177.1085897105566005
 20
40.11010358345208
 30
0.0
  0
VERTEX
  5
513
  8
LAYER_1
 62
     1
 10
178.5082027105572138
 20
38.9557255834521285
 30
0.0
  0
VERTEX
  5
514
  8
LAYER_1
 62
     1
 10
180.1990507105574864
 20
38.0957935834518295
 30
0.0
  0
VERTEX
  5
515
  8
LAYER_1
 62
     1
 10
182.1739147105571135
 20
37.564804583451739
 30
0.0
  0
VERTEX
  5
516
  8
LAYER_1
 62
     1
 10
184.4255717105569943
 20
37.3972595834520618
 30
0.0
  0
VERTEX
  5
517
  8
LAYER_1
 62
     1
 10
186.4291847105573083
 20
37.5662875834520875
 30
0.0
  0
VERTEX
  5
518
  8
LAYER_1
 62
     1
 10
188.4135467105566022
 20
38.0048835834518215
 30
0.0
  0
VERTEX
  5
519
  8
LAYER_1
 62
     1
 10
190.3465617105566992
 20
38.6873735834517376
 30
0.0
  0
VERTEX
  5
51A
  8
LAYER_1
 62
     1
 10
192.1961377105571103
 20
39.5880865834517266
 30
0.0
  0
VERTEX
  5
51B
  8
LAYER_1
 62
     1
 10
193.9301807105564137
 20
40.6813505834518168
 30
0.0
  0
VERTEX
  5
51C
  8
LAYER_1
 62
     1
 10
195.3109776620358105
 20
41.778161792639473
 30
0.0
  0
VERTEX
  5
51D
  8
LAYER_1
 62
     1
 10
195.4051157105566858
 20
41.0389335834518008
 30
0.0
  0
VERTEX
  5
51E
  8
LAYER_1
 62
     1
 10
195.7539827105572101
 20
40.0990385834518221
 30
0.0
  0
VERTEX
  5
51F
  8
LAYER_1
 62
     1
 10
196.2576937105565946
 20
39.2706635834521123
 30
0.0
  0
VERTEX
  5
520
  8
LAYER_1
 62
     1
 10
196.925073710557001
 20
38.5802845834518777
 30
0.0
  0
VERTEX
  5
521
  8
LAYER_1
 62
     1
 10
197.7649487105568085
 20
38.0543765834519192
 30
0.0
  0
VERTEX
  5
522
  8
LAYER_1
 62
     1
 10
198.7861437105567859
 20
37.7194165834519026
 30
0.0
  0
VERTEX
  5
523
  8
LAYER_1
 62
     1
 10
199.997482710557108
 20
37.6018795834518116
 30
0.0
  0
VERTEX
  5
524
  8
LAYER_1
 62
     1
 10
201.2869127105570044
 20
37.6981555834521416
 30
0.0
  0
VERTEX
  5
525
  8
LAYER_1
 62
     1
 10
202.5338217105569925
 20
37.9741465834518905
 30
0.0
  0
VERTEX
  5
526
  8
LAYER_1
 62
     1
 10
203.7341977105567992
 20
38.4105975834519171
 30
0.0
  0
VERTEX
  5
527
  8
LAYER_1
 62
     1
 10
204.8840287105570042
 20
38.9882535834520922
 30
0.0
  0
VERTEX
  5
528
  8
LAYER_1
 62
     1
 10
207.0160107105565999
 20
40.4901585834518229
 30
0.0
  0
VERTEX
  5
529
  8
LAYER_1
 62
     1
 10
208.8976727105572877
 20
42.3258195834521231
 30
0.0
  0
VERTEX
  5
52A
  8
LAYER_1
 62
     1
 10
209.0842067105571118
 20
41.2235935834518088
 30
0.0
  0
VERTEX
  5
52B
  8
LAYER_1
 62
     1
 10
209.4400267105571061
 20
40.2344915834519199
 30
0.0
  0
VERTEX
  5
52C
  8
LAYER_1
 62
     1
 10
209.9675397105569914
 20
39.3689425834522808
 30
0.0
  0
VERTEX
  5
52D
  8
LAYER_1
 62
     1
 10
210.6691517105572871
 20
38.6373785834517705
 30
0.0
  0
VERTEX
  5
52E
  8
LAYER_1
 62
     1
 10
211.5472697105572024
 20
38.0502275834522692
 30
0.0
  0
VERTEX
  5
52F
  8
LAYER_1
 62
     1
 10
212.6043017105569106
 20
37.6179205834520118
 30
0.0
  0
VERTEX
  5
530
  8
LAYER_1
 62
     1
 10
213.8426537105571867
 20
37.3508885834519333
 30
0.0
  0
VERTEX
  5
531
  8
LAYER_1
 62
     1
 10
215.2647327105572117
 20
37.2595595834520665
 30
0.0
  0
VERTEX
  5
532
  8
LAYER_1
 62
     1
 10
216.860910710557107
 20
37.4172115834522785
 30
0.0
  0
VERTEX
  5
533
  8
LAYER_1
 62
     1
 10
218.445053710556806
 20
37.8660985834518371
 30
0.0
  0
VERTEX
  5
534
  8
LAYER_1
 62
     1
 10
219.9858717105568928
 20
38.5701165834517425
 30
0.0
  0
VERTEX
  5
535
  8
LAYER_1
 62
     1
 10
221.45207371055659
 20
39.4931635834524215
 30
0.0
  0
VERTEX
  5
536
  8
LAYER_1
 62
     1
 10
222.8123707105569906
 20
40.5991345834519066
 30
0.0
  0
VERTEX
  5
537
  8
LAYER_1
 62
     1
 10
224.0354727105570021
 20
41.8519265834519203
 30
0.0
  0
VERTEX
  5
538
  8
LAYER_1
 62
     1
 10
224.1524535649921859
 20
42.0031703967098267
 30
0.0
  0
VERTEX
  5
539
  8
LAYER_1
 62
     1
 10
224.2465757105570958
 20
41.6170595834521393
 30
0.0
  0
VERTEX
  5
53A
  8
LAYER_1
 62
     1
 10
224.8182157105570127
 20
40.3936845834518792
 30
0.0
  0
VERTEX
  5
53B
  8
LAYER_1
 62
     1
 10
225.597651710556903
 20
39.390943583452092
 30
0.0
  0
VERTEX
  5
53C
  8
LAYER_1
 62
     1
 10
226.5728487105567979
 20
38.609636583451902
 30
0.0
  0
VERTEX
  5
53D
  8
LAYER_1
 62
     1
 10
227.7317727105570953
 20
38.0505675834521
 30
0.0
  0
VERTEX
  5
53E
  8
LAYER_1
 62
     1
 10
229.0623887105564052
 20
37.7145375834523904
 30
0.0
  0
VERTEX
  5
53F
  8
LAYER_1
 62
     1
 10
230.5526617105566061
 20
37.6023495834521029
 30
0.0
  0
VERTEX
  5
540
  8
LAYER_1
 62
     1
 10
232.6706037105568043
 20
37.84758558345208
 30
0.0
  0
VERTEX
  5
541
  8
LAYER_1
 62
     1
 10
234.6850517105567064
 20
38.5116225834524286
 30
0.0
  0
VERTEX
  5
542
  8
LAYER_1
 62
     1
 10
236.556690710556893
 20
39.4869525834524069
 30
0.0
  0
VERTEX
  5
543
  8
LAYER_1
 62
     1
 10
238.2462077105572007
 20
40.6660655834521023
 30
0.0
  0
VERTEX
  5
544
  8
LAYER_1
 62
     1
 10
238.8804449347935872
 20
41.2170572279255722
 30
0.0
  0
VERTEX
  5
545
  8
LAYER_1
 62
     1
 10
238.9483837105568114
 20
40.9313945834523878
 30
0.0
  0
VERTEX
  5
546
  8
LAYER_1
 62
     1
 10
239.3994097105569097
 20
39.9392165834517527
 30
0.0
  0
VERTEX
  5
547
  8
LAYER_1
 62
     1
 10
240.0405817105572908
 20
39.0914535834521004
 30
0.0
  0
VERTEX
  5
548
  8
LAYER_1
 62
     1
 10
240.8775147105567953
 20
38.4041495834525222
 30
0.0
  0
VERTEX
  5
549
  8
LAYER_1
 62
     1
 10
241.9158247105573878
 20
37.8933525834520424
 30
0.0
  0
VERTEX
  5
54A
  8
LAYER_1
 62
     1
 10
243.161128710557108
 20
37.5751075834524428
 30
0.0
  0
VERTEX
  5
54B
  8
LAYER_1
 62
     1
 10
244.6190417105568997
 20
37.4654595834518815
 30
0.0
  0
VERTEX
  5
54C
  8
LAYER_1
 62
     1
 10
246.1593267105573091
 20
37.5974385834518827
 30
0.0
  0
VERTEX
  5
54D
  8
LAYER_1
 62
     1
 10
247.7244837105573083
 20
37.9821415834518277
 30
0.0
  0
VERTEX
  5
54E
  8
LAYER_1
 62
     1
 10
249.2751997105571888
 20
38.6027215834517321
 30
0.0
  0
VERTEX
  5
54F
  8
LAYER_1
 62
     1
 10
250.7721627105566995
 20
39.4423295834525334
 30
0.0
  0
VERTEX
  5
550
  8
LAYER_1
 62
     1
 10
252.1760607105568113
 20
40.4841165834524119
 30
0.0
  0
VERTEX
  5
551
  8
LAYER_1
 62
     1
 10
253.3430392261103918
 20
41.6103428447951131
 30
0.0
  0
VERTEX
  5
552
  8
LAYER_1
 62
     1
 10
253.6102767105570877
 20
41.1979355834521286
 30
0.0
  0
VERTEX
  5
553
  8
LAYER_1
 62
     1
 10
254.7091607105570006
 20
40.0058495834521111
 30
0.0
  0
VERTEX
  5
554
  8
LAYER_1
 62
     1
 10
255.9332047105563106
 20
39.0688955834524378
 30
0.0
  0
VERTEX
  5
555
  8
LAYER_1
 62
     1
 10
257.261546710556388
 20
38.3638065834524014
 30
0.0
  0
VERTEX
  5
556
  8
LAYER_1
 62
     1
 10
258.6733287105568024
 20
37.8673165834518315
 30
0.0
  0
VERTEX
  5
557
  8
LAYER_1
 62
     1
 10
260.1476897105570174
 20
37.5561575834524319
 30
0.0
  0
VERTEX
  5
558
  8
LAYER_1
 62
     1
 10
263.2007117105573002
 20
37.3967695834525031
 30
0.0
  0
VERTEX
  5
559
  8
LAYER_1
 62
     1
 10
265.1065787105566756
 20
37.5857115834525004
 30
0.0
  0
VERTEX
  5
55A
  8
LAYER_1
 62
     1
 10
266.9586907105569935
 20
37.9968905834524477
 30
0.0
  0
VERTEX
  5
55B
  8
LAYER_1
 62
     1
 10
268.7353857105568977
 20
38.6278995834523968
 30
0.0
  0
VERTEX
  5
55C
  8
LAYER_1
 62
     1
 10
270.4150007105570239
 20
39.476331583452513
 30
0.0
  0
VERTEX
  5
55D
  8
LAYER_1
 62
     1
 10
271.9758727105570983
 20
40.5397815834525019
 30
0.0
  0
VERTEX
  5
55E
  8
LAYER_1
 62
     1
 10
273.3963407105566716
 20
41.8158395834525294
 30
0.0
  0
VERTEX
  5
55F
  8
LAYER_1
 62
     1
 10
274.654740710557121
 20
43.3021015834525471
 30
0.0
  0
VERTEX
  5
560
  8
LAYER_1
 62
     1
 10
275.7294117105566897
 20
44.9961595834521333
 30
0.0
  0
VERTEX
  5
561
  8
LAYER_1
 62
     1
 10
276.4044177105564017
 20
46.5333675834524314
 30
0.0
  0
VERTEX
  5
562
  8
LAYER_1
 62
     1
 10
276.6622247105573251
 20
47.8972795834521321
 30
0.0
  0
VERTEX
  5
563
  8
LAYER_1
 62
     1
 10
276.6247827105570991
 20
48.9916195834519925
 30
0.0
  0
VERTEX
  5
564
  8
LAYER_1
 62
     1
 10
276.4140417105568872
 20
49.7201095834524196
 30
0.0
  0
VERTEX
  5
565
  8
LAYER_1
 62
     1
 10
275.9668937105566897
 20
50.4036665834519226
 30
0.0
  0
VERTEX
  5
566
  8
LAYER_1
 62
     1
 10
275.4042157105566844
 20
50.7213785834526192
 30
0.0
  0
VERTEX
  5
567
  8
LAYER_1
 62
     1
 10
274.8158627105569849
 20
50.5384555834518707
 30
0.0
  0
VERTEX
  5
568
  8
LAYER_1
 62
     1
 10
274.2916917105570178
 20
49.7201095834524196
 30
0.0
  0
VERTEX
  5
569
  8
LAYER_1
 62
     1
 10
273.2358657105572206
 20
47.3977145834526183
 30
0.0
  0
VERTEX
  5
56A
  8
LAYER_1
 62
     1
 10
271.9040457105568862
 20
45.4154955834525111
 30
0.0
  0
VERTEX
  5
56B
  8
LAYER_1
 62
     1
 10
270.2769787105568184
 20
43.7028515834521016
 30
0.0
  0
VERTEX
  5
56C
  8
LAYER_1
 62
     1
 10
268.3354117105570253
 20
42.1891795834525212
 30
0.0
  0
VERTEX
  5
56D
  8
LAYER_1
 62
     1
 10
268.825348710557023
 20
43.3862095834524411
 30
0.0
  0
VERTEX
  5
56E
  8
LAYER_1
 62
     1
 10
269.1740827105567746
 20
44.6795185834519017
 30
0.0
  0
VERTEX
  5
56F
  8
LAYER_1
 62
     1
 10
269.4992817105568861
 20
47.3238995834525369
 30
0.0
  0
VERTEX
  5
570
  8
LAYER_1
 62
     1
 10
269.43937871055698
 20
50.2325075834524881
 30
0.0
  0
VERTEX
  5
571
  8
LAYER_1
 62
     1
 10
269.1740857105568807
 20
53.3914365834519771
 30
0.0
  0
VERTEX
  5
572
  8
LAYER_1
 62
     1
 10
268.8831177105569168
 20
56.7685975834525465
 30
0.0
  0
VERTEX
  5
573
  8
LAYER_1
 62
     1
 10
268.7461917105571843
 20
60.3318995834524614
 30
0.0
  0
VERTEX
  5
574
  8
LAYER_1
 62
     1
 10
268.8831117105571025
 20
63.2073495834524621
 30
0.0
  0
VERTEX
  5
575
  8
LAYER_1
 62
     1
 10
270.017033710557314
 20
65.4612785834525539
 30
0.0
  0
VERTEX
  5
576
  8
LAYER_1
 62
     1
 10
270.259864710557224
 20
66.3230835834525436
 30
0.0
  0
VERTEX
  5
577
  8
LAYER_1
 62
     1
 10
270.3037247105569918
 20
67.0156035834525028
 30
0.0
  0
VERTEX
  5
578
  8
LAYER_1
 62
     1
 10
270.1614497105571786
 20
67.5444535834525368
 30
0.0
  0
VERTEX
  5
579
  8
LAYER_1
 62
     1
 10
269.8458787105573151
 20
67.915250583452007
 30
0.0
  0
VERTEX
  5
57A
  8
LAYER_1
 62
     1
 10
269.3698467105571126
 20
68.1336105834524233
 30
0.0
  0
VERTEX
  5
57B
  8
LAYER_1
 62
     1
 10
268.7461917105571843
 20
68.205149583452112
 30
0.0
  0
VERTEX
  5
57C
  8
LAYER_1
 62
     1
 10
267.9428187105571055
 20
68.1152905834526337
 30
0.0
  0
VERTEX
  5
57D
  8
LAYER_1
 62
     1
 10
267.0945197105568809
 20
67.8457145834520361
 30
0.0
  0
VERTEX
  5
57E
  8
LAYER_1
 62
     1
 10
266.2333837105567795
 20
67.3964235834521332
 30
0.0
  0
VERTEX
  5
57F
  8
LAYER_1
 62
     1
 10
265.3915017105571224
 20
66.7674195834524653
 30
0.0
  0
VERTEX
  5
580
  8
LAYER_1
 62
     1
 10
264.348510710556809
 20
65.7308505834520247
 30
0.0
  0
VERTEX
  5
581
  8
LAYER_1
 62
     1
 10
263.5686757105572156
 20
64.533819583452555
 30
0.0
  0
VERTEX
  5
582
  8
LAYER_1
 62
     1
 10
263.0327377105568871
 20
63.1185605834519876
 30
0.0
  0
VERTEX
  5
583
  8
LAYER_1
 62
     1
 10
262.7214417105572011
 20
61.427309583452022
 30
0.0
  0
VERTEX
  5
584
  8
LAYER_1
 62
     1
 10
259.6834007105570095
 20
56.6691285834519931
 30
0.0
  0
VERTEX
  5
585
  8
LAYER_1
 62
     1
 10
256.2859217105570906
 20
51.7055595834519792
 30
0.0
  0
VERTEX
  5
586
  8
LAYER_1
 62
     1
 10
255.9853267105571035
 20
52.6907885834524379
 30
0.0
  0
VERTEX
  5
587
  8
LAYER_1
 62
     1
 10
255.4215777105573011
 20
53.1689605834526375
 30
0.0
  0
VERTEX
  5
588
  8
LAYER_1
 62
     1
 10
254.63960371055731
 20
53.1208225834517265
 30
0.0
  0
VERTEX
  5
589
  8
LAYER_1
 62
     1
 10
253.6843317105569895
 20
52.5271195834519489
 30
0.0
  0
VERTEX
  5
58A
  8
LAYER_1
 62
     1
 10
252.7065917105570918
 20
51.4327805834524128
 30
0.0
  0
VERTEX
  5
58B
  8
LAYER_1
 62
     1
 10
252.024100710557093
 20
50.1394735834525065
 30
0.0
  0
VERTEX
  5
58C
  8
LAYER_1
 62
     1
 10
251.6240197105568939
 20
48.7049615834521177
 30
0.0
  0
VERTEX
  5
58D
  8
LAYER_1
 62
     1
 10
251.4935117105569873
 20
47.1870095834524292
 30
0.0
  0
VERTEX
  5
58E
  8
LAYER_1
 62
     1
 10
251.4935417105567126
 20
47.1869795834524979
 30
0.0
  0
VERTEX
  5
58F
  8
LAYER_1
 62
     1
 10
251.6777048459063053
 20
45.7347207675002068
 30
0.0
  0
VERTEX
  5
590
  8
LAYER_1
 62
     1
 10
249.7452407105571126
 20
43.0793845834524376
 30
0.0
  0
VERTEX
  5
591
  8
LAYER_1
 62
     1
 10
248.6119897105569976
 20
41.9008055834524171
 30
0.0
  0
VERTEX
  5
592
  8
LAYER_1
 62
     1
 10
247.4763327105573012
 20
40.9934035834523769
 30
0.0
  0
VERTEX
  5
593
  8
LAYER_1
 62
     1
 10
246.3647447105570905
 20
40.410130583451739
 30
0.0
  0
VERTEX
  5
594
  8
LAYER_1
 62
     1
 10
245.3037017105565099
 20
40.2039395834524313
 30
0.0
  0
VERTEX
  5
595
  8
LAYER_1
 62
     1
 10
244.8255327105570132
 20
40.3173315834525212
 30
0.0
  0
VERTEX
  5
596
  8
LAYER_1
 62
     1
 10
244.5078227105570079
 20
40.648949583452108
 30
0.0
  0
VERTEX
  5
597
  8
LAYER_1
 62
     1
 10
244.3313177105569878
 20
41.1859545834519096
 30
0.0
  0
VERTEX
  5
598
  8
LAYER_1
 62
     1
 10
244.2767617105573095
 20
41.9155095834521418
 30
0.0
  0
VERTEX
  5
599
  8
LAYER_1
 62
     1
 10
244.5249377105569124
 20
43.789688583452623
 30
0.0
  0
VERTEX
  5
59A
  8
LAYER_1
 62
     1
 10
245.2352417105568918
 20
46.0232895834524172
 30
0.0
  0
VERTEX
  5
59B
  8
LAYER_1
 62
     1
 10
246.4205067105563103
 20
48.4547975834524181
 30
0.0
  0
VERTEX
  5
59C
  8
LAYER_1
 62
     1
 10
247.9908777105572995
 20
51.3548535834516926
 30
0.0
  0
VERTEX
  5
59D
  8
LAYER_1
 62
     1
 10
249.5869227105571042
 20
54.2934275834522779
 30
0.0
  0
VERTEX
  5
59E
  8
LAYER_1
 62
     1
 10
250.8492117105566024
 20
56.8404895834524879
 30
0.0
  0
VERTEX
  5
59F
  8
LAYER_1
 62
     1
 10
251.4106857105566064
 20
58.0995665834524218
 30
0.0
  0
VERTEX
  5
5A0
  8
LAYER_1
 62
     1
 10
251.7723877105572967
 20
59.3008785834519898
 30
0.0
  0
VERTEX
  5
5A1
  8
LAYER_1
 62
     1
 10
251.9527697105569928
 20
60.4315885834525801
 30
0.0
  0
VERTEX
  5
5A2
  8
LAYER_1
 62
     1
 10
251.9702847105571095
 20
61.4788585834523786
 30
0.0
  0
VERTEX
  5
5A3
  8
LAYER_1
 62
     1
 10
251.8433827105569947
 20
62.4298525834517406
 30
0.0
  0
VERTEX
  5
5A4
  8
LAYER_1
 62
     1
 10
251.5905197105570039
 20
63.2717335834519119
 30
0.0
  0
VERTEX
  5
5A5
  8
LAYER_1
 62
     1
 10
250.7807117105570001
 20
64.5768095834521318
 30
0.0
  0
VERTEX
  5
5A6
  8
LAYER_1
 62
     1
 10
250.1217557105570108
 20
65.1277205834524011
 30
0.0
  0
VERTEX
  5
5A7
  8
LAYER_1
 62
     1
 10
249.4628007105567917
 20
65.2357645834520099
 30
0.0
  0
VERTEX
  5
5A8
  8
LAYER_1
 62
     1
 10
248.7781707105569922
 20
64.8945205834518219
 30
0.0
  0
VERTEX
  5
5A9
  8
LAYER_1
 62
     1
 10
248.0421917105568923
 20
64.0975695834521133
 30
0.0
  0
VERTEX
  5
5AA
  8
LAYER_1
 62
     1
 10
245.8663527105570097
 20
60.723623583452067
 30
0.0
  0
VERTEX
  5
5AB
  8
LAYER_1
 62
     1
 10
243.4209417105570026
 20
56.4125895834521174
 30
0.0
  0
VERTEX
  5
5AC
  8
LAYER_1
 62
     1
 10
241.1295727105566868
 20
51.8704955834520973
 30
0.0
  0
VERTEX
  5
5AD
  8
LAYER_1
 62
     1
 10
240.3059322219264118
 20
49.9157612986374417
 30
0.0
  0
VERTEX
  5
5AE
  8
LAYER_1
 62
     1
 10
240.2059417105573118
 20
49.7887995834519117
 30
0.0
  0
VERTEX
  5
5AF
  8
LAYER_1
 62
     1
 10
238.0322447105569097
 20
46.2223025834518779
 30
0.0
  0
VERTEX
  5
5B0
  8
LAYER_1
 62
     1
 10
236.8170277105571131
 20
44.6115495834522875
 30
0.0
  0
VERTEX
  5
5B1
  8
LAYER_1
 62
     1
 10
235.5504627105572979
 20
43.1821175834523814
 30
0.0
  0
VERTEX
  5
5B2
  8
LAYER_1
 62
     1
 10
234.2582247105573003
 20
41.9837465834518611
 30
0.0
  0
VERTEX
  5
5B3
  8
LAYER_1
 62
     1
 10
232.9659857105567085
 20
41.0661825834517771
 30
0.0
  0
VERTEX
  5
5B4
  8
LAYER_1
 62
     1
 10
231.6994207105570069
 20
40.479165583451838
 30
0.0
  0
VERTEX
  5
5B5
  8
LAYER_1
 62
     1
 10
230.484201710557187
 20
40.2724395834525097
 30
0.0
  0
VERTEX
  5
5B6
  8
LAYER_1
 62
     1
 10
229.9054747105573142
 20
40.4799675834520869
 30
0.0
  0
VERTEX
  5
5B7
  8
LAYER_1
 62
     1
 10
229.5000447105570913
 20
41.059764583452413
 30
0.0
  0
VERTEX
  5
5B8
  8
LAYER_1
 62
     1
 10
229.2614927105570928
 20
41.9476465834524035
 30
0.0
  0
VERTEX
  5
5B9
  8
LAYER_1
 62
     1
 10
229.1834017105568932
 20
43.0794295834520966
 30
0.0
  0
VERTEX
  5
5BA
  8
LAYER_1
 62
     1
 10
229.3438617105566095
 20
45.0006705834517717
 30
0.0
  0
VERTEX
  5
5BB
  8
LAYER_1
 62
     1
 10
229.7995697105567956
 20
47.1529755834524025
 30
0.0
  0
VERTEX
  5
5BC
  8
LAYER_1
 62
     1
 10
230.5120127105573999
 20
49.5106705834518834
 30
0.0
  0
VERTEX
  5
5BD
  8
LAYER_1
 62
     1
 10
231.4426817105569114
 20
52.0480795834519014
 30
0.0
  0
VERTEX
  5
5BE
  8
LAYER_1
 62
     1
 10
233.7561147105568011
 20
53.7444135834521077
 30
0.0
  0
VERTEX
  5
5BF
  8
LAYER_1
 62
     1
 10
236.1249067105570134
 20
55.77290258345203
 30
0.0
  0
VERTEX
  5
5C0
  8
LAYER_1
 62
     1
 10
238.4696307105573965
 20
58.0870095834525202
 30
0.0
  0
VERTEX
  5
5C1
  8
LAYER_1
 62
     1
 10
240.7108587105570052
 20
60.6401995834520378
 30
0.0
  0
VERTEX
  5
5C2
  8
LAYER_1
 62
     1
 10
242.7691657105571892
 20
63.3859375834521117
 30
0.0
  0
VERTEX
  5
5C3
  8
LAYER_1
 62
     1
 10
244.5651237105570033
 20
66.2776875834521206
 30
0.0
  0
VERTEX
  5
5C4
  8
LAYER_1
 62
     1
 10
246.0193047105570088
 20
69.2689125834519928
 30
0.0
  0
VERTEX
  5
5C5
  8
LAYER_1
 62
     1
 10
247.052281710556997
 20
72.3130795834521223
 30
0.0
  0
VERTEX
  5
5C6
  8
LAYER_1
 62
     1
 10
247.3860417105568956
 20
73.8278205834518531
 30
0.0
  0
VERTEX
  5
5C7
  8
LAYER_1
 62
     1
 10
247.4630617105570138
 20
75.1885195834519209
 30
0.0
  0
VERTEX
  5
5C8
  8
LAYER_1
 62
     1
 10
247.4629717105567011
 20
75.1885295834518956
 30
0.0
  0
VERTEX
  5
5C9
  8
LAYER_1
 62
     1
 10
247.3217667105570001
 20
76.5374655834521036
 30
0.0
  0
VERTEX
  5
5CA
  8
LAYER_1
 62
     1
 10
246.898152710557099
 20
77.8671445834520455
 30
0.0
  0
VERTEX
  5
5CB
  8
LAYER_1
 62
     1
 10
246.1921277105568038
 20
79.1069665834518219
 30
0.0
  0
VERTEX
  5
5CC
  8
LAYER_1
 62
     1
 10
245.2036917105567113
 20
80.1863295834525474
 30
0.0
  0
VERTEX
  5
5CD
  8
LAYER_1
 62
     1
 10
244.2387947105571868
 20
80.8142625834517503
 30
0.0
  0
VERTEX
  5
5CE
  8
LAYER_1
 62
     1
 10
243.2867317105572056
 20
80.8966335834525125
 30
0.0
  0
VERTEX
  5
5CF
  8
LAYER_1
 62
     1
 10
242.3346687105573096
 20
80.504042583452005
 30
0.0
  0
VERTEX
  5
5D0
  8
LAYER_1
 62
     1
 10
241.369771710557103
 20
79.707089583452543
 30
0.0
  0
VERTEX
  5
5D1
  8
LAYER_1
 62
     1
 10
238.8175177105565865
 20
76.8130585834524027
 30
0.0
  0
VERTEX
  5
5D2
  8
LAYER_1
 62
     1
 10
236.2403927105573871
 20
73.4737535834525488
 30
0.0
  0
VERTEX
  5
5D3
  8
LAYER_1
 62
     1
 10
233.7098027105571134
 20
69.7702045834520277
 30
0.0
  0
VERTEX
  5
5D4
  8
LAYER_1
 62
     1
 10
231.2971537105572111
 20
65.7834435834519127
 30
0.0
  0
VERTEX
  5
5D5
  8
LAYER_1
 62
     1
 10
229.0738507105571102
 20
61.5945005834520174
 30
0.0
  0
VERTEX
  5
5D6
  8
LAYER_1
 62
     1
 10
227.1112997105572049
 20
57.2844065834518616
 30
0.0
  0
VERTEX
  5
5D7
  8
LAYER_1
 62
     1
 10
225.480904710557013
 20
52.934192583452031
 30
0.0
  0
VERTEX
  5
5D8
  8
LAYER_1
 62
     1
 10
224.6000539453928866
 20
49.8401668726402178
 30
0.0
  0
SEQEND
  5
5D9
  8
LAYER_1
 62
     1
  0
POLYLINE
  5
253
  8
LAYER_1
 62
     1
 66
     1
 10
0.0
 20
0.0
 30
0.0
  0
VERTEX
  5
5DA
  8
LAYER_1
 62
     1
 10
224.6142157105572892
 20
49.8567065834520236
 30
0.0
  0
VERTEX
  5
5DB
  8
LAYER_1
 62
     1
 10
224.0280017105571062
 20
49.1720595834518619
 30
0.0
  0
VERTEX
  5
5DC
  8
LAYER_1
 62
     1
 10
222.0222537105568961
 20
45.9403925834517324
 30
0.0
  0
VERTEX
  5
5DD
  8
LAYER_1
 62
     1
 10
219.8432047105567904
 20
43.0360655834521069
 30
0.0
  0
VERTEX
  5
5DE
  8
LAYER_1
 62
     1
 10
218.7548827105572116
 20
41.8570855834517417
 30
0.0
  0
VERTEX
  5
5DF
  8
LAYER_1
 62
     1
 10
217.7026637105568057
 20
40.9404585834518997
 30
0.0
  0
VERTEX
  5
5E0
  8
LAYER_1
 62
     1
 10
216.7130247105569936
 20
40.3463555834517678
 30
0.0
  0
VERTEX
  5
5E1
  8
LAYER_1
 62
     1
 10
215.8124417105568966
 20
40.134949583452098
 30
0.0
  0
VERTEX
  5
5E2
  8
LAYER_1
 62
     1
 10
215.2337157105569929
 20
40.2611785834517235
 30
0.0
  0
VERTEX
  5
5E3
  8
LAYER_1
 62
     1
 10
214.8282897105571863
 20
40.6313055834517485
 30
0.0
  0
VERTEX
  5
5E4
  8
LAYER_1
 62
     1
 10
214.5897407105570096
 20
41.2324955834524118
 30
0.0
  0
VERTEX
  5
5E5
  8
LAYER_1
 62
     1
 10
214.511651710556805
 20
42.0519095834521224
 30
0.0
  0
VERTEX
  5
5E6
  8
LAYER_1
 62
     1
 10
214.6302587105570865
 20
43.1395625834518199
 30
0.0
  0
VERTEX
  5
5E7
  8
LAYER_1
 62
     1
 10
214.9598697105568021
 20
44.3732345834518895
 30
0.0
  0
VERTEX
  5
5E8
  8
LAYER_1
 62
     1
 10
216.0948557105566863
 20
47.1181715834518329
 30
0.0
  0
VERTEX
  5
5E9
  8
LAYER_1
 62
     1
 10
217.6021097105569027
 20
49.9658035834519225
 30
0.0
  0
VERTEX
  5
5EA
  8
LAYER_1
 62
     1
 10
219.1671317105571859
 20
52.5952095834517124
 30
0.0
  0
VERTEX
  5
5EB
  8
LAYER_1
 62
     1
 10
220.7770847105566929
 20
55.3979165834519875
 30
0.0
  0
VERTEX
  5
5EC
  8
LAYER_1
 62
     1
 10
221.9826757105572881
 20
57.8668645834518287
 30
0.0
  0
VERTEX
  5
5ED
  8
LAYER_1
 62
     1
 10
222.7389767105572957
 20
60.0277275834521191
 30
0.0
  0
VERTEX
  5
5EE
  8
LAYER_1
 62
     1
 10
223.0010617105565984
 20
61.9061795834522783
 30
0.0
  0
VERTEX
  5
5EF
  8
LAYER_1
 62
     1
 10
222.7443227105569861
 20
63.8916065834517823
 30
0.0
  0
VERTEX
  5
5F0
  8
LAYER_1
 62
     1
 10
222.4234007105571038
 20
64.7174415834521142
 30
0.0
  0
VERTEX
  5
5F1
  8
LAYER_1
 62
     1
 10
221.9741117105569117
 20
65.4662595834521426
 30
0.0
  0
VERTEX
  5
5F2
  8
LAYER_1
 62
     1
 10
221.313018710557003
 20
66.0760065834519992
 30
0.0
  0
VERTEX
  5
5F3
  8
LAYER_1
 62
     1
 10
220.5877407105566022
 20
66.1851165834517587
 30
0.0
  0
VERTEX
  5
5F4
  8
LAYER_1
 62
     1
 10
219.8367877105573029
 20
65.8321035834518256
 30
0.0
  0
VERTEX
  5
5F5
  8
LAYER_1
 62
     1
 10
219.0986717105566015
 20
65.05547958345187
 30
0.0
  0
VERTEX
  5
5F6
  8
LAYER_1
 62
     1
 10
217.3325387105570883
 20
62.4046775834520915
 30
0.0
  0
VERTEX
  5
5F7
  8
LAYER_1
 62
     1
 10
215.547150710557105
 20
59.1505495834519408
 30
0.0
  0
VERTEX
  5
5F8
  8
LAYER_1
 62
     1
 10
213.466515710557303
 20
55.25458658345201
 30
0.0
  0
VERTEX
  5
5F9
  8
LAYER_1
 62
     1
 10
210.8146417105571118
 20
50.678279583452067
 30
0.0
  0
VERTEX
  5
5FA
  8
LAYER_1
 62
     1
 10
208.2012817105571116
 20
46.7844505834518571
 30
0.0
  0
VERTEX
  5
5FB
  8
LAYER_1
 62
     1
 10
205.722707710556989
 20
43.5581395834520819
 30
0.0
  0
VERTEX
  5
5FC
  8
LAYER_1
 62
     1
 10
203.565052710557012
 20
41.3587735834519066
 30
0.0
  0
VERTEX
  5
5FD
  8
LAYER_1
 62
     1
 10
202.6647377105570058
 20
40.7565165834520187
 30
0.0
  0
VERTEX
  5
5FE
  8
LAYER_1
 62
     1
 10
201.9144517105569889
 20
40.5457795834521306
 30
0.0
  0
VERTEX
  5
5FF
  8
LAYER_1
 62
     1
 10
201.4285237105567035
 20
40.6599745834520192
 30
0.0
  0
VERTEX
  5
600
  8
LAYER_1
 62
     1
 10
201.095032710557291
 20
40.984371583451761
 30
0.0
  0
VERTEX
  5
601
  8
LAYER_1
 62
     1
 10
200.9059577105568906
 20
41.4916945834520376
 30
0.0
  0
VERTEX
  5
602
  8
LAYER_1
 62
     1
 10
200.8532727105570075
 20
42.1546645834520106
 30
0.0
  0
VERTEX
  5
603
  8
LAYER_1
 62
     1
 10
201.1249867105570104
 20
43.8384295834521112
 30
0.0
  0
VERTEX
  5
604
  8
LAYER_1
 62
     1
 10
201.8459917105568877
 20
45.8174395834521277
 30
0.0
  0
VERTEX
  5
605
  8
LAYER_1
 62
     1
 10
204.0122057105569979
 20
50.1498685834517275
 30
0.0
  0
VERTEX
  5
606
  8
LAYER_1
 62
     1
 10
206.4415707105569879
 20
54.7518705834520389
 30
0.0
  0
VERTEX
  5
607
  8
LAYER_1
 62
     1
 10
208.4216467105567858
 20
58.8917325834520327
 30
0.0
  0
VERTEX
  5
608
  8
LAYER_1
 62
     1
 10
209.0205627105574138
 20
60.5596995834520087
 30
0.0
  0
VERTEX
  5
609
  8
LAYER_1
 62
     1
 10
209.2399917105568079
 20
61.8377395834518069
 30
0.0
  0
VERTEX
  5
60A
  8
LAYER_1
 62
     1
 10
209.0089257105572926
 20
63.4380565834521803
 30
0.0
  0
VERTEX
  5
60B
  8
LAYER_1
 62
     1
 10
208.6912127105564991
 20
64.2350075834521022
 30
0.0
  0
VERTEX
  5
60C
  8
LAYER_1
 62
     1
 10
208.2130417105568938
 20
64.987029583452113
 30
0.0
  0
VERTEX
  5
60D
  8
LAYER_1
 62
     1
 10
207.5316187105572112
 20
65.5839445834517392
 30
0.0
  0
VERTEX
  5
60E
  8
LAYER_1
 62
     1
 10
206.7667587105572977
 20
65.8085905834517462
 30
0.0
  0
VERTEX
  5
60F
  8
LAYER_1
 62
     1
 10
205.9890627105571923
 20
65.6224565834518216
 30
0.0
  0
VERTEX
  5
610
  8
LAYER_1
 62
     1
 10
205.2691317105571045
 20
64.987029583452113
 30
0.0
  0
VERTEX
  5
611
  8
LAYER_1
 62
     1
 10
202.2460667105573862
 20
60.4064255834518775
 30
0.0
  0
VERTEX
  5
612
  8
LAYER_1
 62
     1
 10
199.6209407105569937
 20
55.8129865834517815
 30
0.0
  0
VERTEX
  5
613
  8
LAYER_1
 62
     1
 10
197.5092857105568953
 20
51.5276445834519876
 30
0.0
  0
VERTEX
  5
614
  8
LAYER_1
 62
     1
 10
196.4029368399611997
 20
48.7993209349193577
 30
0.0
  0
VERTEX
  5
615
  8
LAYER_1
 62
     1
 10
194.4650267105569981
 20
46.2011695834519074
 30
0.0
  0
VERTEX
  5
616
  8
LAYER_1
 62
     1
 10
193.0384027105569942
 20
44.6353465834520122
 30
0.0
  0
VERTEX
  5
617
  8
LAYER_1
 62
     1
 10
191.4858167105570885
 20
43.1994965834518325
 30
0.0
  0
VERTEX
  5
618
  8
LAYER_1
 62
     1
 10
189.8209077105564972
 20
41.962617583452122
 30
0.0
  0
VERTEX
  5
619
  8
LAYER_1
 62
     1
 10
188.0573147105571081
 20
40.9937065834517327
 30
0.0
  0
VERTEX
  5
61A
  8
LAYER_1
 62
     1
 10
186.2086767105570004
 20
40.3617605834518685
 30
0.0
  0
VERTEX
  5
61B
  8
LAYER_1
 62
     1
 10
184.2886337105568089
 20
40.1357795834518285
 30
0.0
  0
VERTEX
  5
61C
  8
LAYER_1
 62
     1
 10
183.5577377105568928
 20
40.2328575834518389
 30
0.0
  0
VERTEX
  5
61D
  8
LAYER_1
 62
     1
 10
182.9086767105569891
 20
40.5144645834517334
 30
0.0
  0
VERTEX
  5
61E
  8
LAYER_1
 62
     1
 10
182.3462647105567953
 20
40.9661595834519332
 30
0.0
  0
VERTEX
  5
61F
  8
LAYER_1
 62
     1
 10
181.8753147105570918
 20
41.5735005834518319
 30
0.0
  0
VERTEX
  5
620
  8
LAYER_1
 62
     1
 10
181.2270577105570908
 20
43.1973555834518876
 30
0.0
  0
VERTEX
  5
621
  8
LAYER_1
 62
     1
 10
181.0024137105573061
 20
45.2704995834517234
 30
0.0
  0
VERTEX
  5
622
  8
LAYER_1
 62
     1
 10
181.1564557105567985
 20
47.2388145834517985
 30
0.0
  0
VERTEX
  5
623
  8
LAYER_1
 62
     1
 10
181.618580710557012
 20
49.3098195834518123
 30
0.0
  0
VERTEX
  5
624
  8
LAYER_1
 62
     1
 10
182.8113347105571904
 20
48.64123258345181
 30
0.0
  0
VERTEX
  5
625
  8
LAYER_1
 62
     1
 10
184.0233437105567873
 20
48.1716185834518313
 30
0.0
  0
VERTEX
  5
626
  8
LAYER_1
 62
     1
 10
185.2481877105572892
 20
47.8945565834518305
 30
0.0
  0
VERTEX
  5
627
  8
LAYER_1
 62
     1
 10
186.4794507105563071
 20
47.8036295834517517
 30
0.0
  0
VERTEX
  5
628
  8
LAYER_1
 62
     1
 10
187.5914727105572126
 20
47.885363583452083
 30
0.0
  0
VERTEX
  5
629
  8
LAYER_1
 62
     1
 10
188.6651857105568979
 20
48.1205385834517614
 30
0.0
  0
VERTEX
  5
62A
  8
LAYER_1
 62
     1
 10
190.6792317105571897
 20
48.9910355834517688
 30
0.0
  0
VERTEX
  5
62B
  8
LAYER_1
 62
     1
 10
192.4846817105567141
 20
50.2947755834518304
 30
0.0
  0
VERTEX
  5
62C
  8
LAYER_1
 62
     1
 10
194.0446287105571912
 20
51.9114115834521428
 30
0.0
  0
VERTEX
  5
62D
  8
LAYER_1
 62
     1
 10
195.3221657105571865
 20
53.7206015834516322
 30
0.0
  0
VERTEX
  5
62E
  8
LAYER_1
 62
     1
 10
196.2803857105566863
 20
55.6019975834520821
 30
0.0
  0
VERTEX
  5
62F
  8
LAYER_1
 62
     1
 10
196.8823837105568089
 20
57.4352555834518625
 30
0.0
  0
VERTEX
  5
630
  8
LAYER_1
 62
     1
 10
197.091250710557091
 20
59.1000295834517004
 30
0.0
  0
VERTEX
  5
631
  8
LAYER_1
 62
     1
 10
197.0912017105571863
 20
59.1000095834520991
 30
0.0
  0
SEQEND
  5
632
  8
LAYER_1
 62
     1
  0
POLYLINE
  5
254
  8
LAYER_1
 62
     1
 66
     1
 10
0.0
 20
0.0
 30
0.0
 70
     1
  0
VERTEX
  5
633
  8
LAYER_1
 62
     1
 10
192.1393967105572074
 20
61.4916675834520987
 30
0.0
  0
VERTEX
  5
634
  8
LAYER_1
 62
     1
 10
192.1361867105572969
 20
60.9378115834521097
 30
0.0
  0
VERTEX
  5
635
  8
LAYER_1
 62
     1
 10
191.6483877105573868
 20
59.356743583451923
 30
0.0
  0
VERTEX
  5
636
  8
LAYER_1
 62
     1
 10
190.6471157105569034
 20
57.3905705834520106
 30
0.0
  0
VERTEX
  5
637
  8
LAYER_1
 62
     1
 10
189.2864117105571893
 20
55.3345395834519422
 30
0.0
  0
VERTEX
  5
638
  8
LAYER_1
 62
     1
 10
188.126820710557098
 20
53.9449555834519217
 30
0.0
  0
VERTEX
  5
639
  8
LAYER_1
 62
     1
 10
186.7875137105569934
 20
52.6901575834520983
 30
0.0
  0
VERTEX
  5
63A
  8
LAYER_1
 62
     1
 10
185.3968587105572112
 20
51.781952583452032
 30
0.0
  0
VERTEX
  5
63B
  8
LAYER_1
 62
     1
 10
184.7223907105571072
 20
51.5240125834517286
 30
0.0
  0
VERTEX
  5
63C
  8
LAYER_1
 62
     1
 10
184.0832217105570976
 20
51.4321495834516185
 30
0.0
  0
VERTEX
  5
63D
  8
LAYER_1
 62
     1
 10
183.3558017105573015
 20
51.5434035834521111
 30
0.0
  0
VERTEX
  5
63E
  8
LAYER_1
 62
     1
 10
182.5770317105568097
 20
51.9113895834516299
 30
0.0
  0
VERTEX
  5
63F
  8
LAYER_1
 62
     1
 10
183.8814377105570088
 20
54.2586555834520823
 30
0.0
  0
VERTEX
  5
640
  8
LAYER_1
 62
     1
 10
185.2845267105570883
 20
56.3507895834522827
 30
0.0
  0
VERTEX
  5
641
  8
LAYER_1
 62
     1
 10
186.7181037105573012
 20
58.1573045834518183
 30
0.0
  0
VERTEX
  5
642
  8
LAYER_1
 62
     1
 10
188.1139727105571069
 20
59.6477135834517114
 30
0.0
  0
VERTEX
  5
643
  8
LAYER_1
 62
     1
 10
189.4039387105570995
 20
60.7915275834520727
 30
0.0
  0
VERTEX
  5
644
  8
LAYER_1
 62
     1
 10
190.5198057105567102
 20
61.5582605834519967
 30
0.0
  0
VERTEX
  5
645
  8
LAYER_1
 62
     1
 10
191.3933787105571867
 20
61.9174235834518569
 30
0.0
  0
VERTEX
  5
646
  8
LAYER_1
 62
     1
 10
191.9564617105569084
 20
61.8385295834520932
 30
0.0
  0
VERTEX
  5
647
  8
LAYER_1
 62
     1
 10
191.9564717105571958
 20
61.8385295834520932
 30
0.0
  0
SEQEND
  5
648
  8
LAYER_1
 62
     1
  0
POLYLINE
  5
255
  8
LAYER_1
 62
     1
 66
     1
 10
0.0
 20
0.0
 30
0.0
 70
     1
  0
VERTEX
  5
649
  8
LAYER_1
 62
     1
 10
173.701493710556889
 20
54.6550605834520269
 30
0.0
  0
VERTEX
  5
64A
  8
LAYER_1
 62
     1
 10
173.0624617105571872
 20
55.2940925834517287
 30
0.0
  0
VERTEX
  5
64B
  8
LAYER_1
 62
     1
 10
172.2990727105569135
 20
55.8392555834518518
 30
0.0
  0
VERTEX
  5
64C
  8
LAYER_1
 62
     1
 10
171.4041057105571042
 20
56.2785155834520694
 30
0.0
  0
VERTEX
  5
64D
  8
LAYER_1
 62
     1
 10
170.3703407105570875
 20
56.599837583451631
 30
0.0
  0
VERTEX
  5
64E
  8
LAYER_1
 62
     1
 10
169.1905557105573052
 20
56.7911865834520313
 30
0.0
  0
VERTEX
  5
64F
  8
LAYER_1
 62
     1
 10
167.857531710556799
 20
56.8405295834516977
 30
0.0
  0
VERTEX
  5
650
  8
LAYER_1
 62
     1
 10
164.7082337105568968
 20
56.5923505834519887
 30
0.0
  0
VERTEX
  5
651
  8
LAYER_1
 62
     1
 10
161.3535417105570957
 20
56.0874395834520101
 30
0.0
  0
VERTEX
  5
652
  8
LAYER_1
 62
     1
 10
157.4254777105568053
 20
55.4199185834520378
 30
0.0
  0
VERTEX
  5
653
  8
LAYER_1
 62
     1
 10
153.3433717105571077
 20
55.0604895834517123
 30
0.0
  0
VERTEX
  5
654
  8
LAYER_1
 62
     1
 10
152.5046987105569087
 20
54.9374705834518267
 30
0.0
  0
VERTEX
  5
655
  8
LAYER_1
 62
     1
 10
152.0254567105569947
 20
54.5898075834519432
 30
0.0
  0
VERTEX
  5
656
  8
LAYER_1
 62
     1
 10
151.8799717105567879
 20
54.0495925834518331
 30
0.0
  0
VERTEX
  5
657
  8
LAYER_1
 62
     1
 10
152.0425717105570982
 20
53.3489195834518881
 30
0.0
  0
VERTEX
  5
658
  8
LAYER_1
 62
     1
 10
152.500282710557201
 20
52.581249583451708
 30
0.0
  0
VERTEX
  5
659
  8
LAYER_1
 62
     1
 10
153.0983977105564975
 20
51.8801705834519993
 30
0.0
  0
VERTEX
  5
65A
  8
LAYER_1
 62
     1
 10
153.8296947105567085
 20
51.2609265834517984
 30
0.0
  0
VERTEX
  5
65B
  8
LAYER_1
 62
     1
 10
154.6869537105571055
 20
50.7387625834520506
 30
0.0
  0
VERTEX
  5
65C
  8
LAYER_1
 62
     1
 10
155.6629547105571021
 20
50.3289205834520175
 30
0.0
  0
VERTEX
  5
65D
  8
LAYER_1
 62
     1
 10
156.7504747105571141
 20
50.04664558345155
 30
0.0
  0
VERTEX
  5
65E
  8
LAYER_1
 62
     1
 10
157.9422937105570952
 20
49.9071805834520177
 30
0.0
  0
VERTEX
  5
65F
  8
LAYER_1
 62
     1
 10
159.2311917105569137
 20
49.9257695834518174
 30
0.0
  0
VERTEX
  5
660
  8
LAYER_1
 62
     1
 10
164.0236017105571875
 20
50.6103995834519012
 30
0.0
  0
VERTEX
  5
661
  8
LAYER_1
 62
     1
 10
162.7455367105569906
 20
48.459964583451999
 30
0.0
  0
VERTEX
  5
662
  8
LAYER_1
 62
     1
 10
161.3471267105572906
 20
46.5389875834521192
 30
0.0
  0
VERTEX
  5
663
  8
LAYER_1
 62
     1
 10
159.862067710556687
 20
44.8651205834517981
 30
0.0
  0
VERTEX
  5
664
  8
LAYER_1
 62
     1
 10
158.3240557105569053
 20
43.4560135834520835
 30
0.0
  0
VERTEX
  5
665
  8
LAYER_1
 62
     1
 10
156.7667867105571133
 20
42.3293165834518206
 30
0.0
  0
VERTEX
  5
666
  8
LAYER_1
 62
     1
 10
155.2239567105565925
 20
41.5026795834518083
 30
0.0
  0
VERTEX
  5
667
  8
LAYER_1
 62
     1
 10
153.7292637105570918
 20
40.9937535834517277
 30
0.0
  0
VERTEX
  5
668
  8
LAYER_1
 62
     1
 10
152.316401710557102
 20
40.8201895834517785
 30
0.0
  0
VERTEX
  5
669
  8
LAYER_1
 62
     1
 10
151.5197157105567953
 20
40.9069715834520977
 30
0.0
  0
VERTEX
  5
66A
  8
LAYER_1
 62
     1
 10
150.7824007105571127
 20
41.1806885834517828
 30
0.0
  0
VERTEX
  5
66B
  8
LAYER_1
 62
     1
 10
150.1188987105570902
 20
41.661399583451832
 30
0.0
  0
VERTEX
  5
66C
  8
LAYER_1
 62
     1
 10
149.5436487105569938
 20
42.3691625834518319
 30
0.0
  0
VERTEX
  5
66D
  8
LAYER_1
 62
     1
 10
149.0710947105569062
 20
43.3240335834516301
 30
0.0
  0
VERTEX
  5
66E
  8
LAYER_1
 62
     1
 10
148.7156757105570932
 20
44.5460715834516208
 30
0.0
  0
VERTEX
  5
66F
  8
LAYER_1
 62
     1
 10
148.4918347105571002
 20
46.0553345834520016
 30
0.0
  0
VERTEX
  5
670
  8
LAYER_1
 62
     1
 10
148.4140117105569061
 20
47.8718795834517934
 30
0.0
  0
VERTEX
  5
671
  8
LAYER_1
 62
     1
 10
148.6739577105572039
 20
51.400934583451992
 30
0.0
  0
VERTEX
  5
672
  8
LAYER_1
 62
     1
 10
149.5179787105570028
 20
55.3086785834516306
 30
0.0
  0
VERTEX
  5
673
  8
LAYER_1
 62
     1
 10
150.1891047105571033
 20
57.3544135834518869
 30
0.0
  0
VERTEX
  5
674
  8
LAYER_1
 62
     1
 10
151.0423517105571136
 20
59.4346475834519126
 30
0.0
  0
VERTEX
  5
675
  8
LAYER_1
 62
     1
 10
152.0897567105569976
 20
61.5293225834517372
 30
0.0
  0
VERTEX
  5
676
  8
LAYER_1
 62
     1
 10
153.3433517105571866
 20
63.6183795834518691
 30
0.0
  0
VERTEX
  5
677
  8
LAYER_1
 62
     1
 10
155.8223267105568937
 20
66.9633095834520873
 30
0.0
  0
VERTEX
  5
678
  8
LAYER_1
 62
     1
 10
158.5411877105568124
 20
69.9287545834520188
 30
0.0
  0
VERTEX
  5
679
  8
LAYER_1
 62
     1
 10
161.3547187105569947
 20
72.4625615834518157
 30
0.0
  0
VERTEX
  5
67A
  8
LAYER_1
 62
     1
 10
164.1177027105570119
 20
74.5125825834518309
 30
0.0
  0
VERTEX
  5
67B
  8
LAYER_1
 62
     1
 10
166.6849247105573113
 20
76.0266645834517476
 30
0.0
  0
VERTEX
  5
67C
  8
LAYER_1
 62
     1
 10
168.9111677105568958
 20
76.9526585834520347
 30
0.0
  0
VERTEX
  5
67D
  8
LAYER_1
 62
     1
 10
170.6512157105572101
 20
77.238413583452143
 30
0.0
  0
VERTEX
  5
67E
  8
LAYER_1
 62
     1
 10
171.2935357105567959
 20
77.1249045834519933
 30
0.0
  0
VERTEX
  5
67F
  8
LAYER_1
 62
     1
 10
171.7598517105568874
 20
76.8317795834520894
 30
0.0
  0
VERTEX
  5
680
  8
LAYER_1
 62
     1
 10
171.975269710556887
 20
76.4912035834519202
 30
0.0
  0
VERTEX
  5
681
  8
LAYER_1
 62
     1
 10
172.0583067105565931
 20
76.0198535834518907
 30
0.0
  0
VERTEX
  5
682
  8
LAYER_1
 62
     1
 10
171.8368717105568919
 20
74.5981785834518405
 30
0.0
  0
VERTEX
  5
683
  8
LAYER_1
 62
     1
 10
171.1148007105570059
 20
72.393456583451993
 30
0.0
  0
VERTEX
  5
684
  8
LAYER_1
 62
     1
 10
169.9113517105562039
 20
69.2323895834521181
 30
0.0
  0
VERTEX
  5
685
  8
LAYER_1
 62
     1
 10
169.3978787105563981
 20
67.5036985834517509
 30
0.0
  0
VERTEX
  5
686
  8
LAYER_1
 62
     1
 10
169.2951847105570948
 20
66.2884795834519309
 30
0.0
  0
VERTEX
  5
687
  8
LAYER_1
 62
     1
 10
169.4973647105564112
 20
64.8315025834519929
 30
0.0
  0
VERTEX
  5
688
  8
LAYER_1
 62
     1
 10
170.0397197105569091
 20
63.6184245834519899
 30
0.0
  0
VERTEX
  5
689
  8
LAYER_1
 62
     1
 10
170.8259747105570057
 20
62.6107335834520811
 30
0.0
  0
VERTEX
  5
68A
  8
LAYER_1
 62
     1
 10
171.7598547105565956
 20
61.7699195834518306
 30
0.0
  0
VERTEX
  5
68B
  8
LAYER_1
 62
     1
 10
172.6455957105565062
 20
61.2970995834519812
 30
0.0
  0
VERTEX
  5
68C
  8
LAYER_1
 62
     1
 10
173.3516197105566903
 20
61.3249145834520206
 30
0.0
  0
VERTEX
  5
68D
  8
LAYER_1
 62
     1
 10
173.8779287105570859
 20
61.712159583451907
 30
0.0
  0
VERTEX
  5
68E
  8
LAYER_1
 62
     1
 10
174.2245247105568922
 20
62.317629583451648
 30
0.0
  0
VERTEX
  5
68F
  8
LAYER_1
 62
     1
 10
176.8261147105571069
 20
68.7531495834518864
 30
0.0
  0
VERTEX
  5
690
  8
LAYER_1
 62
     1
 10
177.5021867105575097
 20
70.7556925834518324
 30
0.0
  0
VERTEX
  5
691
  8
LAYER_1
 62
     1
 10
177.7161337105571022
 20
72.4501495834521165
 30
0.0
  0
VERTEX
  5
692
  8
LAYER_1
 62
     1
 10
177.5257207105572945
 20
74.0590295834521157
 30
0.0
  0
VERTEX
  5
693
  8
LAYER_1
 62
     1
 10
176.860346710556712
 20
75.9759935834521229
 30
0.0
  0
VERTEX
  5
694
  8
LAYER_1
 62
     1
 10
176.3054227105569964
 20
76.9858225834517498
 30
0.0
  0
VERTEX
  5
695
  8
LAYER_1
 62
     1
 10
175.5788057105569067
 20
77.9956525834518146
 30
0.0
  0
VERTEX
  5
696
  8
LAYER_1
 62
     1
 10
174.6628467105570905
 20
78.9798095834516829
 30
0.0
  0
VERTEX
  5
697
  8
LAYER_1
 62
     1
 10
173.5398937105570099
 20
79.9126195834519422
 30
0.0
  0
VERTEX
  5
698
  8
LAYER_1
 62
     1
 10
172.5717837105567867
 20
80.4624605834518434
 30
0.0
  0
VERTEX
  5
699
  8
LAYER_1
 62
     1
 10
171.4432137105569893
 20
80.8711005834518346
 30
0.0
  0
VERTEX
  5
69A
  8
LAYER_1
 62
     1
 10
170.1991137105569862
 20
81.125699583451933
 30
0.0
  0
VERTEX
  5
69B
  8
LAYER_1
 62
     1
 10
168.8844137105569985
 20
81.2134195834519232
 30
0.0
  0
VERTEX
  5
69C
  8
LAYER_1
 62
     1
 10
166.5652287105567098
 20
81.0593755834519243
 30
0.0
  0
VERTEX
  5
69D
  8
LAYER_1
 62
     1
 10
163.8866137105570999
 20
80.3918595834519465
 30
0.0
  0
VERTEX
  5
69E
  8
LAYER_1
 62
     1
 10
162.3687437105569984
 20
79.7729835834519463
 30
0.0
  0
VERTEX
  5
69F
  8
LAYER_1
 62
     1
 10
160.7358447105565062
 20
78.9260535834516759
 30
0.0
  0
VERTEX
  5
6A0
  8
LAYER_1
 62
     1
 10
157.2424947105573096
 20
76.5985745834517502
 30
0.0
  0
VERTEX
  5
6A1
  8
LAYER_1
 62
     1
 10
153.6416357105570967
 20
73.5105135834518251
 30
0.0
  0
VERTEX
  5
6A2
  8
LAYER_1
 62
     1
 10
151.8743517105565957
 20
71.7128565834518668
 30
0.0
  0
VERTEX
  5
6A3
  8
LAYER_1
 62
     1
 10
150.1683437105567975
 20
69.7629625834518947
 30
0.0
  0
VERTEX
  5
6A4
  8
LAYER_1
 62
     1
 10
148.5529957105570134
 20
67.6734675834518242
 30
0.0
  0
VERTEX
  5
6A5
  8
LAYER_1
 62
     1
 10
147.0576917105572079
 20
65.457009583451736
 30
0.0
  0
VERTEX
  5
6A6
  8
LAYER_1
 62
     1
 10
145.7118157105568059
 20
63.1262245834517373
 30
0.0
  0
VERTEX
  5
6A7
  8
LAYER_1
 62
     1
 10
144.5447527105563097
 20
60.693747583451902
 30
0.0
  0
VERTEX
  5
6A8
  8
LAYER_1
 62
     1
 10
143.5858877105575004
 20
58.172216583452041
 30
0.0
  0
VERTEX
  5
6A9
  8
LAYER_1
 62
     1
 10
142.8646027105569942
 20
55.574267583451828
 30
0.0
  0
VERTEX
  5
6AA
  8
LAYER_1
 62
     1
 10
142.4102837105573087
 20
52.9125365834520309
 30
0.0
  0
VERTEX
  5
6AB
  8
LAYER_1
 62
     1
 10
142.2523137105571038
 20
50.1996595834518686
 30
0.0
  0
VERTEX
  5
6AC
  8
LAYER_1
 62
     1
 10
142.3515317105569125
 20
48.1850815834517192
 30
0.0
  0
VERTEX
  5
6AD
  8
LAYER_1
 62
     1
 10
142.6352787105568893
 20
46.3935445834518916
 30
0.0
  0
VERTEX
  5
6AE
  8
LAYER_1
 62
     1
 10
143.0826957105570898
 20
44.8106055834518813
 30
0.0
  0
VERTEX
  5
6AF
  8
LAYER_1
 62
     1
 10
143.6729227105562074
 20
43.4218245834518797
 30
0.0
  0
VERTEX
  5
6B0
  8
LAYER_1
 62
     1
 10
144.385098710556889
 20
42.2127605834519883
 30
0.0
  0
VERTEX
  5
6B1
  8
LAYER_1
 62
     1
 10
145.1983637105568903
 20
41.1689725834518114
 30
0.0
  0
VERTEX
  5
6B2
  8
LAYER_1
 62
     1
 10
147.0447237105568945
 20
39.5194595834516278
 30
0.0
  0
VERTEX
  5
6B3
  8
LAYER_1
 62
     1
 10
148.672858710557108
 20
38.4839565834517927
 30
0.0
  0
VERTEX
  5
6B4
  8
LAYER_1
 62
     1
 10
150.3651797105569869
 20
37.8078835834518188
 30
0.0
  0
VERTEX
  5
6B5
  8
LAYER_1
 62
     1
 10
152.108847710557086
 20
37.4398925834516305
 30
0.0
  0
VERTEX
  5
6B6
  8
LAYER_1
 62
     1
 10
153.891023710557306
 20
37.3286395834518316
 30
0.0
  0
VERTEX
  5
6B7
  8
LAYER_1
 62
     1
 10
156.5525237105566134
 20
37.5511475834516588
 30
0.0
  0
VERTEX
  5
6B8
  8
LAYER_1
 62
     1
 10
158.957283710556311
 20
38.0817395834520696
 30
0.0
  0
VERTEX
  5
6B9
  8
LAYER_1
 62
     1
 10
160.4630667105568875
 20
38.6723655834517714
 30
0.0
  0
VERTEX
  5
6BA
  8
LAYER_1
 62
     1
 10
162.2488507105570932
 20
39.6874095834521015
 30
0.0
  0
VERTEX
  5
6BB
  8
LAYER_1
 62
     1
 10
164.1453517105568096
 20
41.0699055834518205
 30
0.0
  0
VERTEX
  5
6BC
  8
LAYER_1
 62
     1
 10
165.9832877105569082
 20
42.762890583451501
 30
0.0
  0
VERTEX
  5
6BD
  8
LAYER_1
 62
     1
 10
167.5933727105565083
 20
44.7094005834518313
 30
0.0
  0
VERTEX
  5
6BE
  8
LAYER_1
 62
     1
 10
168.8063227105571116
 20
46.852471583451802
 30
0.0
  0
VERTEX
  5
6BF
  8
LAYER_1
 62
     1
 10
169.2109707105572909
 20
47.9799155834520974
 30
0.0
  0
VERTEX
  5
6C0
  8
LAYER_1
 62
     1
 10
169.4528547105570908
 20
49.1351395834516325
 30
0.0
  0
VERTEX
  5
6C1
  8
LAYER_1
 62
     1
 10
169.5108117105569079
 20
50.311020583451743
 30
0.0
  0
VERTEX
  5
6C2
  8
LAYER_1
 62
     1
 10
169.3636837105568986
 20
51.5004395834519002
 30
0.0
  0
VERTEX
  5
6C3
  8
LAYER_1
 62
     1
 10
171.4603637105572886
 20
51.6116995834521433
 30
0.0
  0
VERTEX
  5
6C4
  8
LAYER_1
 62
     1
 10
173.1976137105567091
 20
51.568939583451872
 30
0.0
  0
VERTEX
  5
6C5
  8
LAYER_1
 62
     1
 10
174.2887407105571071
 20
51.6127965834519884
 30
0.0
  0
VERTEX
  5
6C6
  8
LAYER_1
 62
     1
 10
174.7893757105566124
 20
51.9198095834518583
 30
0.0
  0
VERTEX
  5
6C7
  8
LAYER_1
 62
     1
 10
174.8535607105567067
 20
52.4450505834520229
 30
0.0
  0
VERTEX
  5
6C8
  8
LAYER_1
 62
     1
 10
174.6353337105570915
 20
53.143589583452119
 30
0.0
  0
VERTEX
  5
6C9
  8
LAYER_1
 62
     1
 10
174.6353717105569103
 20
53.1435295834517021
 30
0.0
  0
SEQEND
  5
6CA
  8
LAYER_1
 62
     1
  0
POLYLINE
  5
256
  8
0
  6
CONTINUOUS
 62
     1
 66
     1
 10
0.0
 20
0.0
 30
0.0
 70
     1
  0
VERTEX
  5
6CB
  8
0
  6
CONTINUOUS
 62
     1
 10
381.5804437105562101
 20
143.2265032326436085
 30
0.0
 42
-0.4142135623730951
  0
VERTEX
  5
6CC
  8
0
  6
CONTINUOUS
 62
     1
 10
387.5804437105562101
 20
137.2265032326436085
 30
0.0
  0
VERTEX
  5
6CD
  8
0
  6
CONTINUOUS
 62
     1
 10
387.5804437105562101
 20
132.7265032326436085
 30
0.0
  0
VERTEX
  5
6CE
  8
0
  6
CONTINUOUS
 62
     1
 10
387.5804437105562101
 20
38.3865032326440314
 30
0.0
  0
VERTEX
  5
6CF
  8
0
  6
CONTINUOUS
 62
     1
 10
387.5804437105562101
 20
33.8865032326440172
 30
0.0
 42
-0.4142135623730951
  0
VERTEX
  5
6D0
  8
0
  6
CONTINUOUS
 62
     1
 10
381.5804437105562101
 20
27.8865032326439106
 30
0.0
  0
VERTEX
  5
6D1
  8
0
  6
CONTINUOUS
 62
     1
 10
377.0804437105562101
 20
27.8865032326439106
 30
0.0
  0
VERTEX
  5
6D2
  8
0
  6
CONTINUOUS
 62
     1
 10
305.3864473366696757
 20
27.8865032326439106
 30
0.0
  0
VERTEX
  5
6D3
  8
0
  6
CONTINUOUS
 62
     1
 10
225.235723071836901
 20
10.8499408675492006
 30
0.0
  0
VERTEX
  5
6D4
  8
0
  6
CONTINUOUS
 62
     1
 10
209.7104437105577119
 20
10.8499408675492006
 30
0.0
  0
VERTEX
  5
6D5
  8
0
  6
CONTINUOUS
 62
     1
 10
194.1851643492776986
 20
10.8499408675492006
 30
0.0
  0
VERTEX
  5
6D6
  8
0
  6
CONTINUOUS
 62
     1
 10
114.0344400844447961
 20
27.8865032326439106
 30
0.0
  0
VERTEX
  5
6D7
  8
0
  6
CONTINUOUS
 62
     1
 10
41.8416937105561431
 20
27.8865032326439106
 30
0.0
  0
VERTEX
  5
6D8
  8
0
  6
CONTINUOUS
 62
     1
 10
37.3416937105561431
 20
27.8865032326439106
 30
0.0
 42
-0.4142135623730978
  0
VERTEX
  5
6D9
  8
0
  6
CONTINUOUS
 62
     1
 10
31.3416937105561502
 20
33.8865032326440172
 30
0.0
  0
VERTEX
  5
6DA
  8
0
  6
CONTINUOUS
 62
     1
 10
31.3416937105561502
 20
38.3865032326440314
 30
0.0
  0
VERTEX
  5
6DB
  8
0
  6
CONTINUOUS
 62
     1
 10
31.3416937105561502
 20
137.2265032326436085
 30
0.0
 42
-0.4142135623730951
  0
VERTEX
  5
6DC
  8
0
  6
CONTINUOUS
 62
     1
 10
37.3416937105561431
 20
143.2265032326436085
 30
0.0
  0
VERTEX
  5
6DD
  8
0
  6
CONTINUOUS
 62
     1
 10
204.3604437105547049
 20
143.2265032326436085
 30
0.0
  0
VERTEX
  5
6DE
  8
0
  6
CONTINUOUS
 62
     1
 10
215.0604437105590137
 20
143.2265032326436085
 30
0.0
  0
VERTEX
  5
6DF
  8
0
  6
CONTINUOUS
 62
     1
 10
377.0804437105562101
 20
143.2265032326436085
 30
0.0
  0
SEQEND
  5
6E0
  8
0
  6
CONTINUOUS
 62
     1
  0
ENDSEC
  0
EOF
