  0
SECTION
  2
HEADER
  9
$ACADVER
  1
AC1009
  9
$INSBASE
 10
0.0
 20
0.0
 30
0.0
  9
$EXTMIN
 10
4.2148031380105939
 20
1.6556494464452309
 30
0.0
  9
$EXTMAX
 10
362.1811925855462846
 20
449.5086289881530206
 30
0.0
  9
$LIMMIN
 10
0.0
 20
0.0
  9
$LIMMAX
 10
12.0
 20
9.0
  9
$ORTHOMODE
 70
     0
  9
$REGENMODE
 70
     1
  9
$FILLMODE
 70
     1
  9
$QTEXTMODE
 70
     0
  9
$MIRRTEXT
 70
     0
  9
$DRAGMODE
 70
     2
  9
$LTSCALE
 40
1.0
  9
$OSMODE
 70
  2047
  9
$ATTMODE
 70
     1
  9
$TEXTSIZE
 40
0.2
  9
$TRACEWID
 40
0.05
  9
$TEXTSTYLE
  7
STANDARD
  9
$CLAYER
  8
0
  9
$CELTYPE
  6
BYLAYER
  9
$CECOLOR
 62
   256
  9
$DIMSCALE
 40
1.0
  9
$DIMASZ
 40
0.18
  9
$DIMEXO
 40
0.0625
  9
$DIMDLI
 40
0.38
  9
$DIMRND
 40
0.0
  9
$DIMDLE
 40
0.0
  9
$DIMEXE
 40
0.18
  9
$DIMTP
 40
0.0
  9
$DIMTM
 40
0.0
  9
$DIMTXT
 40
0.18
  9
$DIMCEN
 40
0.09
  9
$DIMTSZ
 40
0.0
  9
$DIMTOL
 70
     0
  9
$DIMLIM
 70
     0
  9
$DIMTIH
 70
     1
  9
$DIMTOH
 70
     1
  9
$DIMSE1
 70
     0
  9
$DIMSE2
 70
     0
  9
$DIMTAD
 70
     0
  9
$DIMZIN
 70
     0
  9
$DIMBLK
  1

  9
$DIMASO
 70
     1
  9
$DIMSHO
 70
     1
  9
$DIMPOST
  1

  9
$DIMAPOST
  1

  9
$DIMALT
 70
     0
  9
$DIMALTD
 70
     2
  9
$DIMALTF
 40
25.3999999999999986
  9
$DIMLFAC
 40
1.0
  9
$DIMTOFL
 70
     0
  9
$DIMTVP
 40
0.0
  9
$DIMTIX
 70
     0
  9
$DIMSOXD
 70
     0
  9
$DIMSAH
 70
     0
  9
$DIMBLK1
  1

  9
$DIMBLK2
  1

  9
$DIMSTYLE
  2
STANDARD
  9
$DIMCLRD
 70
     0
  9
$DIMCLRE
 70
     0
  9
$DIMCLRT
 70
     0
  9
$DIMTFAC
 40
1.0
  9
$DIMGAP
 40
0.09
  9
$LUNITS
 70
     2
  9
$LUPREC
 70
     4
  9
$SKETCHINC
 40
0.1
  9
$FILLETRAD
 40
0.0
  9
$AUNITS
 70
     0
  9
$AUPREC
 70
     0
  9
$MENU
  1
.
  9
$ELEVATION
 40
0.0
  9
$PELEVATION
 40
0.0
  9
$THICKNESS
 40
0.0
  9
$LIMCHECK
 70
     0
  9
$BLIPMODE
 70
     0
  9
$CHAMFERA
 40
0.0
  9
$CHAMFERB
 40
0.0
  9
$SKPOLY
 70
     0
  9
$TDCREATE
 40
2459370.6405787039548159
  9
$TDUPDATE
 40
2459370.6420601848512888
  9
$TDINDWG
 40
0.0014814815
  9
$TDUSRTIMER
 40
0.0014814815
  9
$USRTIMER
 70
     1
  9
$ANGBASE
 50
0.0
  9
$ANGDIR
 70
     0
  9
$PDMODE
 70
     0
  9
$PDSIZE
 40
0.0
  9
$PLINEWID
 40
0.0
  9
$COORDS
 70
     1
  9
$SPLFRAME
 70
     0
  9
$SPLINETYPE
 70
     6
  9
$SPLINESEGS
 70
     8
  9
$ATTDIA
 70
     1
  9
$ATTREQ
 70
     1
  9
$HANDLING
 70
     1
  9
$HANDSEED
  5
88D
  9
$SURFTAB1
 70
     6
  9
$SURFTAB2
 70
     6
  9
$SURFTYPE
 70
     6
  9
$SURFU
 70
     6
  9
$SURFV
 70
     6
  9
$UCSNAME
  2

  9
$UCSORG
 10
0.0
 20
0.0
 30
0.0
  9
$UCSXDIR
 10
1.0
 20
0.0
 30
0.0
  9
$UCSYDIR
 10
0.0
 20
1.0
 30
0.0
  9
$PUCSNAME
  2

  9
$PUCSORG
 10
0.0
 20
0.0
 30
0.0
  9
$PUCSXDIR
 10
1.0
 20
0.0
 30
0.0
  9
$PUCSYDIR
 10
0.0
 20
1.0
 30
0.0
  9
$USERI1
 70
     0
  9
$USERI2
 70
     0
  9
$USERI3
 70
     0
  9
$USERI4
 70
     0
  9
$USERI5
 70
     0
  9
$USERR1
 40
0.0
  9
$USERR2
 40
0.0
  9
$USERR3
 40
0.0
  9
$USERR4
 40
0.0
  9
$USERR5
 40
0.0
  9
$WORLDVIEW
 70
     1
  9
$SHADEDGE
 70
     3
  9
$SHADEDIF
 70
    70
  9
$TILEMODE
 70
     1
  9
$MAXACTVP
 70
    64
  9
$PLIMCHECK
 70
     0
  9
$PEXTMIN
 10
0.0
 20
0.0
 30
0.0
  9
$PEXTMAX
 10
0.0
 20
0.0
 30
0.0
  9
$PLIMMIN
 10
0.0
 20
0.0
  9
$PLIMMAX
 10
12.0
 20
9.0
  9
$UNITMODE
 70
     0
  9
$VISRETAIN
 70
     1
  9
$PLINEGEN
 70
     0
  9
$PSLTSCALE
 70
     1
  0
ENDSEC
  0
SECTION
  2
TABLES
  0
TABLE
  2
VPORT
 70
     1
  0
VPORT
  2
*ACTIVE
 70
     0
 10
0.0
 20
0.0
 11
1.0
 21
1.0
 12
208.6280692918305988
 22
199.0921432016714903
 13
0.0
 23
0.0
 14
0.5
 24
0.5
 15
0.5
 25
0.5
 16
0.0
 26
0.0
 36
1.0
 17
0.0
 27
0.0
 37
0.0
 40
634.7821250196162737
 41
1.832426550598476
 42
50.0
 43
0.0
 44
0.0
 50
0.0
 51
0.0
 71
     0
 72
  1000
 73
     1
 74
     3
 75
     0
 76
     1
 77
     0
 78
     0
  0
ENDTAB
  0
TABLE
  2
LTYPE
 70
     2
  0
LTYPE
  2
CONTINUOUS
 70
     0
  3
Solid line
 72
    65
 73
     0
 40
0.0
  0
ENDTAB
  0
TABLE
  2
LAYER
 70
     2
  0
LAYER
  2
0
 70
     0
 62
     7
  6
CONTINUOUS
  0
LAYER
  2
LAYER_1
 70
     0
 62
     7
  6
CONTINUOUS
  0
ENDTAB
  0
TABLE
  2
STYLE
 70
     2
  0
STYLE
  2
STANDARD
 70
     0
 40
0.0
 41
1.0
 50
0.0
 71
     0
 42
0.2
  3
txt
  4

  0
STYLE
  2
ANNOTATIVE
 70
     0
 40
0.0
 41
1.0
 50
0.0
 71
     0
 42
0.2
  3
txt
  4

  0
ENDTAB
  0
TABLE
  2
VIEW
 70
     1
  0
ENDTAB
  0
TABLE
  2
UCS
 70
     0
  0
ENDTAB
  0
TABLE
  2
APPID
 70
     8
  0
APPID
  2
ACAD
 70
     0
  0
APPID
  2
ACADANNOPO
 70
     0
  0
APPID
  2
ACADANNOTATIVE
 70
     0
  0
APPID
  2
ACAD_DSTYLE_DIMJAG
 70
     0
  0
APPID
  2
ACAD_DSTYLE_DIMTALN
 70
     0
  0
APPID
  2
ACAD_MLEADERVER
 70
     0
  0
APPID
  2
ACAD_NAV_VCDISPLAY
 70
     0
  0
APPID
  2
ACAD_EXEMPT_FROM_CAD_STANDARDS
 70
     0
  0
ENDTAB
  0
TABLE
  2
DIMSTYLE
 70
     4
  0
DIMSTYLE
  2
STANDARD
 70
     0
  3

  4

  5

  6

  7

 40
1.0
 41
0.18
 42
0.0625
 43
0.38
 44
0.18
 45
0.0
 46
0.0
 47
0.0
 48
0.0
140
0.18
141
0.09
142
0.0
143
25.3999999999999986
144
1.0
145
0.0
146
1.0
147
0.09
 71
     0
 72
     0
 73
     1
 74
     1
 75
     0
 76
     0
 77
     0
 78
     0
170
     0
171
     2
172
     0
173
     0
174
     0
175
     0
176
     0
177
     0
178
     0
  0
DIMSTYLE
  2
ANNOTATIVE
 70
     0
  3

  4

  5

  6

  7

 40
0.0
 41
0.18
 42
0.0625
 43
0.38
 44
0.18
 45
0.0
 46
0.0
 47
0.0
 48
0.0
140
0.18
141
0.09
142
0.0
143
25.3999999999999986
144
1.0
145
0.0
146
1.0
147
0.09
 71
     0
 72
     0
 73
     1
 74
     1
 75
     0
 76
     0
 77
     0
 78
     0
170
     0
171
     2
172
     0
173
     0
174
     0
175
     0
176
     0
177
     0
178
     0
  0
DIMSTYLE
  2
ISO-25
 70
     0
  3

  4

  5

  6

  7

 40
1.0
 41
2.5
 42
0.625
 43
3.75
 44
1.25
 45
0.0
 46
0.0
 47
0.0
 48
0.0
140
2.5
141
2.5
142
0.0
143
0.03937007874016
144
1.0
145
0.0
146
1.0
147
0.625
 71
     0
 72
     0
 73
     0
 74
     0
 75
     0
 76
     0
 77
     1
 78
     8
170
     0
171
     3
172
     1
173
     0
174
     0
175
     0
176
     0
177
     0
178
     0
  0
ENDTAB
  0
ENDSEC
  0
SECTION
  2
BLOCKS
  0
BLOCK
  8
0
  2
$MODEL_SPACE
 70
     0
 10
0.0
 20
0.0
 30
0.0
  3
$MODEL_SPACE
  1

  0
ENDBLK
  5
21
  8
0
  0
BLOCK
 67
     1
  8
0
  2
$PAPER_SPACE
 70
     0
 10
0.0
 20
0.0
 30
0.0
  3
$PAPER_SPACE
  1

  0
ENDBLK
  5
5B
 67
     1
  8
0
  0
ENDSEC
  0
SECTION
  2
ENTITIES
  0
POLYLINE
  5
253
  8
0
  6
CONTINUOUS
 62
     3
 66
     1
 10
0.0
 20
0.0
 30
0.0
 70
     1
  0
VERTEX
  5
5B5
  8
0
  6
CONTINUOUS
 62
     3
 10
180.0669475419946934
 20
398.4961055535708283
 30
0.0
  0
VERTEX
  5
5B6
  8
0
  6
CONTINUOUS
 62
     3
 10
103.267994248833304
 20
414.8202270054221117
 30
0.0
  0
VERTEX
  5
5B7
  8
0
  6
CONTINUOUS
 62
     3
 10
103.267994248833304
 20
414.8287718408864748
 30
0.0
 42
0.4142135623730951
  0
VERTEX
  5
5B8
  8
0
  6
CONTINUOUS
 62
     3
 10
101.767994248833304
 20
416.328771840886418
 30
0.0
  0
VERTEX
  5
5B9
  8
0
  6
CONTINUOUS
 62
     3
 10
84.7079942488333586
 20
416.3287718408867022
 30
0.0
 42
0.4142135623730951
  0
VERTEX
  5
5BA
  8
0
  6
CONTINUOUS
 62
     3
 10
83.2079942488332449
 20
414.8287718408864748
 30
0.0
  0
VERTEX
  5
5BB
  8
0
  6
CONTINUOUS
 62
     3
 10
83.2079942488332449
 20
414.1887718408863179
 30
0.0
  0
VERTEX
  5
5BC
  8
0
  6
CONTINUOUS
 62
     3
 10
47.0179942488333182
 20
414.1887718408866021
 30
0.0
 42
0.4142135623730951
  0
VERTEX
  5
5BD
  8
0
  6
CONTINUOUS
 62
     3
 10
45.5179942488333182
 20
412.6887718408864885
 30
0.0
  0
VERTEX
  5
5BE
  8
0
  6
CONTINUOUS
 62
     3
 10
45.5179942488333182
 20
395.1387718408863066
 30
0.0
  0
VERTEX
  5
5BF
  8
0
  6
CONTINUOUS
 62
     3
 10
42.8579942488332293
 20
395.1387718408864771
 30
0.0
 42
0.4142135623730951
  0
VERTEX
  5
5C0
  8
0
  6
CONTINUOUS
 62
     3
 10
41.3579942488334567
 20
393.6387718408864771
 30
0.0
  0
VERTEX
  5
5C1
  8
0
  6
CONTINUOUS
 62
     3
 10
41.3579942488334567
 20
376.0887718408865794
 30
0.0
  0
VERTEX
  5
5C2
  8
0
  6
CONTINUOUS
 62
     3
 10
38.7879942488334208
 20
376.0887718408865794
 30
0.0
 42
0.4142135623730951
  0
VERTEX
  5
5C3
  8
0
  6
CONTINUOUS
 62
     3
 10
37.2879942488333
 20
374.5887718408865226
 30
0.0
  0
VERTEX
  5
5C4
  8
0
  6
CONTINUOUS
 62
     3
 10
37.2879942488333
 20
357.0387718408865112
 30
0.0
  0
VERTEX
  5
5C5
  8
0
  6
CONTINUOUS
 62
     3
 10
34.6179942488332273
 20
357.0387718408865112
 30
0.0
 42
0.4142135623730951
  0
VERTEX
  5
5C6
  8
0
  6
CONTINUOUS
 62
     3
 10
33.1179942488332273
 20
355.5387718408865112
 30
0.0
  0
VERTEX
  5
5C7
  8
0
  6
CONTINUOUS
 62
     3
 10
33.1179942488332273
 20
319.4287718408864976
 30
0.0
 42
0.4142135623730951
  0
VERTEX
  5
5C8
  8
0
  6
CONTINUOUS
 62
     3
 10
34.6179942488332273
 20
317.9287718408864976
 30
0.0
  0
VERTEX
  5
5C9
  8
0
  6
CONTINUOUS
 62
     3
 10
61.21799424883325
 20
317.9287718408864976
 30
0.0
 42
0.4142135623730951
  0
VERTEX
  5
5CA
  8
0
  6
CONTINUOUS
 62
     3
 10
62.71799424883325
 20
319.4287718408864976
 30
0.0
  0
VERTEX
  5
5CB
  8
0
  6
CONTINUOUS
 62
     3
 10
62.71799424883325
 20
334.9787718408863952
 30
0.0
 42
-0.4142135623730951
  0
VERTEX
  5
5CC
  8
0
  6
CONTINUOUS
 62
     3
 10
64.71799424883325
 20
336.9787718408863952
 30
0.0
  0
VERTEX
  5
5CD
  8
0
  6
CONTINUOUS
 62
     3
 10
86.5564341281480694
 20
336.9787718408863952
 30
0.0
 42
-0.4769755326981583
  0
VERTEX
  5
5CE
  8
0
  6
CONTINUOUS
 62
     3
 10
88.512729329615766
 20
334.5629484592508902
 30
0.0
  0
VERTEX
  5
5CF
  8
0
  6
CONTINUOUS
 62
     3
 10
85.4577045113048541
 20
320.1901867138217881
 30
0.0
 42
0.4142135623730729
  0
VERTEX
  5
5D0
  8
0
  6
CONTINUOUS
 62
     3
 10
86.6130583761788131
 20
318.4110977764943868
 30
0.0
  0
VERTEX
  5
5D1
  8
0
  6
CONTINUOUS
 62
     3
 10
112.6122216036833947
 20
312.8848050345584966
 30
0.0
 42
0.4142135623730696
  0
VERTEX
  5
5D2
  8
0
  6
CONTINUOUS
 62
     3
 10
114.3913105410108955
 20
314.0401588994324129
 30
0.0
  0
VERTEX
  5
5D3
  8
0
  6
CONTINUOUS
 62
     3
 10
114.391989525539401
 20
314.043353270488808
 30
0.0
  0
VERTEX
  5
5D4
  8
0
  6
CONTINUOUS
 62
     3
 10
173.8062390241906883
 20
301.4144646828510758
 30
0.0
 42
0.4142135623730822
  0
VERTEX
  5
5D5
  8
0
  6
CONTINUOUS
 62
     3
 10
175.5853279615180895
 20
302.5698185477252196
 30
0.0
  0
VERTEX
  5
5D6
  8
0
  6
CONTINUOUS
 62
     3
 10
179.1323014068688906
 20
319.2570166162440728
 30
0.0
 42
0.4142135623731042
  0
VERTEX
  5
5D7
  8
0
  6
CONTINUOUS
 62
     3
 10
177.97694754199469
 20
321.0361055535713035
 30
0.0
  0
VERTEX
  5
5D8
  8
0
  6
CONTINUOUS
 62
     3
 10
170.3430707429195934
 20
322.6587361581953246
 30
0.0
  0
VERTEX
  5
5D9
  8
0
  6
CONTINUOUS
 62
     3
 10
173.9923014068685916
 20
339.8270166162437249
 30
0.0
 42
0.414213562373074
  0
VERTEX
  5
5DA
  8
0
  6
CONTINUOUS
 62
     3
 10
172.83694754199459
 20
341.606105553571183
 30
0.0
  0
VERTEX
  5
5DB
  8
0
  6
CONTINUOUS
 62
     3
 10
164.994013737005389
 20
343.273172596565189
 30
0.0
  0
VERTEX
  5
5DC
  8
0
  6
CONTINUOUS
 62
     3
 10
168.6423014068691089
 20
360.4370166162439091
 30
0.0
 42
0.4142135623731042
  0
VERTEX
  5
5DD
  8
0
  6
CONTINUOUS
 62
     3
 10
167.4869475419949936
 20
362.2161055535709124
 30
0.0
  0
VERTEX
  5
5DE
  8
0
  6
CONTINUOUS
 62
     3
 10
164.2943415643470075
 20
362.8947149029472143
 30
0.0
  0
VERTEX
  5
5DF
  8
0
  6
CONTINUOUS
 62
     3
 10
168.0456348233659014
 20
380.5431621188105282
 30
0.0
  0
VERTEX
  5
5E0
  8
0
  6
CONTINUOUS
 62
     3
 10
175.8962390241906917
 20
378.8744646828511122
 30
0.0
 42
0.4142135623731252
  0
VERTEX
  5
5E1
  8
0
  6
CONTINUOUS
 62
     3
 10
177.675327961517894
 20
380.0298185477249149
 30
0.0
  0
VERTEX
  5
5E2
  8
0
  6
CONTINUOUS
 62
     3
 10
181.2223014068690077
 20
396.7170166162439955
 30
0.0
 42
0.4142135623731252
  0
SEQEND
  5
5E3
  8
0
  6
CONTINUOUS
 62
     3
  0
POLYLINE
  5
254
  8
0
  6
CONTINUOUS
 62
     3
 66
     1
 10
0.0
 20
0.0
 30
0.0
 70
     1
  0
VERTEX
  5
5E4
  8
0
  6
CONTINUOUS
 62
     3
 10
38.3979942488332
 20
378.7187718408864043
 30
0.0
  0
VERTEX
  5
5E5
  8
0
  6
CONTINUOUS
 62
     3
 10
38.3979942488332
 20
396.2687718408864725
 30
0.0
  0
VERTEX
  5
5E6
  8
0
  6
CONTINUOUS
 62
     3
 10
41.0579942488335021
 20
396.2687718408864725
 30
0.0
 42
0.4142135623730951
  0
VERTEX
  5
5E7
  8
0
  6
CONTINUOUS
 62
     3
 10
42.5579942488335092
 20
397.7687718408861883
 30
0.0
  0
VERTEX
  5
5E8
  8
0
  6
CONTINUOUS
 62
     3
 10
42.5579942488331611
 20
414.8287718408864748
 30
0.0
 42
0.4142135623730951
  0
VERTEX
  5
5E9
  8
0
  6
CONTINUOUS
 62
     3
 10
41.0579942488335021
 20
416.328771840886418
 30
0.0
  0
VERTEX
  5
5EA
  8
0
  6
CONTINUOUS
 62
     3
 10
23.9979942488332192
 20
416.328771840886418
 30
0.0
 42
0.4142135623730951
  0
VERTEX
  5
5EB
  8
0
  6
CONTINUOUS
 62
     3
 10
22.4979942488332192
 20
414.8287718408864748
 30
0.0
  0
VERTEX
  5
5EC
  8
0
  6
CONTINUOUS
 62
     3
 10
22.4979942488332192
 20
397.2787718408865203
 30
0.0
  0
VERTEX
  5
5ED
  8
0
  6
CONTINUOUS
 62
     3
 10
19.837994248833251
 20
397.2787718408865203
 30
0.0
 42
0.4142135623730951
  0
VERTEX
  5
5EE
  8
0
  6
CONTINUOUS
 62
     3
 10
18.3379942488331409
 20
395.7787718408865203
 30
0.0
  0
VERTEX
  5
5EF
  8
0
  6
CONTINUOUS
 62
     3
 10
18.3379942488331409
 20
378.2287718408866226
 30
0.0
  0
VERTEX
  5
5F0
  8
0
  6
CONTINUOUS
 62
     3
 10
15.76799424883332
 20
378.2287718408866226
 30
0.0
 42
0.4142135623730951
  0
VERTEX
  5
5F1
  8
0
  6
CONTINUOUS
 62
     3
 10
14.26799424883332
 20
376.7287718408863952
 30
0.0
  0
VERTEX
  5
5F2
  8
0
  6
CONTINUOUS
 62
     3
 10
14.26799424883332
 20
359.6687718408865067
 30
0.0
 42
0.4142135623730951
  0
VERTEX
  5
5F3
  8
0
  6
CONTINUOUS
 62
     3
 10
15.76799424883332
 20
358.1687718408865067
 30
0.0
  0
VERTEX
  5
5F4
  8
0
  6
CONTINUOUS
 62
     3
 10
32.8279942488332566
 20
358.1687718408865067
 30
0.0
 42
0.4142135623730951
  0
VERTEX
  5
5F5
  8
0
  6
CONTINUOUS
 62
     3
 10
34.32799424883315
 20
359.6687718408865067
 30
0.0
  0
VERTEX
  5
5F6
  8
0
  6
CONTINUOUS
 62
     3
 10
34.32799424883315
 20
377.218771840886518
 30
0.0
  0
VERTEX
  5
5F7
  8
0
  6
CONTINUOUS
 62
     3
 10
36.8979942488334274
 20
377.218771840886518
 30
0.0
 42
0.4142135623730951
  0
SEQEND
  5
5F8
  8
0
  6
CONTINUOUS
 62
     3
  0
POLYLINE
  5
255
  8
0
  6
CONTINUOUS
 62
     3
 66
     1
 10
0.0
 20
0.0
 30
0.0
 70
     1
  0
VERTEX
  5
5F9
  8
0
  6
CONTINUOUS
 62
     3
 10
271.4929301214875181
 20
318.4110977764943868
 30
0.0
 42
0.4142135623731081
  0
VERTEX
  5
5FA
  8
0
  6
CONTINUOUS
 62
     3
 10
272.6482839863617187
 20
320.1901867138217881
 30
0.0
  0
VERTEX
  5
5FB
  8
0
  6
CONTINUOUS
 62
     3
 10
269.59325916805102
 20
334.5629484592508902
 30
0.0
 42
-0.4769755326981607
  0
VERTEX
  5
5FC
  8
0
  6
CONTINUOUS
 62
     3
 10
271.5495543695184892
 20
336.9787718408863952
 30
0.0
  0
VERTEX
  5
5FD
  8
0
  6
CONTINUOUS
 62
     3
 10
318.2935942488334717
 20
336.9787718408863952
 30
0.0
 42
-0.4142135623730951
  0
VERTEX
  5
5FE
  8
0
  6
CONTINUOUS
 62
     3
 10
320.2935942488334717
 20
334.9787718408863952
 30
0.0
  0
VERTEX
  5
5FF
  8
0
  6
CONTINUOUS
 62
     3
 10
320.2935942488334717
 20
319.3807718408863821
 30
0.0
 42
0.4142135623730951
  0
VERTEX
  5
600
  8
0
  6
CONTINUOUS
 62
     3
 10
321.7935942488334717
 20
317.8807718408864957
 30
0.0
  0
VERTEX
  5
601
  8
0
  6
CONTINUOUS
 62
     3
 10
348.3935942488337787
 20
317.8807718408863821
 30
0.0
 42
0.4142135623730951
  0
VERTEX
  5
602
  8
0
  6
CONTINUOUS
 62
     3
 10
349.8935942488328124
 20
319.3807718408863821
 30
0.0
  0
VERTEX
  5
603
  8
0
  6
CONTINUOUS
 62
     3
 10
349.8935942488328124
 20
336.9787718408863952
 30
0.0
  0
VERTEX
  5
604
  8
0
  6
CONTINUOUS
 62
     3
 10
352.0667442488330039
 20
336.9787718408866226
 30
0.0
 42
0.4142135623730951
  0
VERTEX
  5
605
  8
0
  6
CONTINUOUS
 62
     3
 10
353.5667442488331744
 20
338.4787718408866226
 30
0.0
  0
VERTEX
  5
606
  8
0
  6
CONTINUOUS
 62
     3
 10
353.5667442488334018
 20
355.5387718408865112
 30
0.0
 42
0.4142135623730951
  0
VERTEX
  5
607
  8
0
  6
CONTINUOUS
 62
     3
 10
352.0667442488330039
 20
357.0387718408865112
 30
0.0
  0
VERTEX
  5
608
  8
0
  6
CONTINUOUS
 62
     3
 10
349.3879942488331949
 20
357.0387718408865112
 30
0.0
  0
VERTEX
  5
609
  8
0
  6
CONTINUOUS
 62
     3
 10
349.3879942488331949
 20
374.5887718408865226
 30
0.0
 42
0.4142135623730951
  0
VERTEX
  5
60A
  8
0
  6
CONTINUOUS
 62
     3
 10
347.8879942488331949
 20
376.0887718408865226
 30
0.0
  0
VERTEX
  5
60B
  8
0
  6
CONTINUOUS
 62
     3
 10
345.127994248833204
 20
376.0887718408865794
 30
0.0
  0
VERTEX
  5
60C
  8
0
  6
CONTINUOUS
 62
     3
 10
345.127994248833204
 20
393.6387718408864771
 30
0.0
 42
0.4142135623730951
  0
VERTEX
  5
60D
  8
0
  6
CONTINUOUS
 62
     3
 10
343.627994248833204
 20
395.1387718408865908
 30
0.0
  0
VERTEX
  5
60E
  8
0
  6
CONTINUOUS
 62
     3
 10
340.9579942488334723
 20
395.1387718408863066
 30
0.0
  0
VERTEX
  5
60F
  8
0
  6
CONTINUOUS
 62
     3
 10
340.9579942488334723
 20
412.6887718408864885
 30
0.0
 42
0.4142135623730951
  0
VERTEX
  5
610
  8
0
  6
CONTINUOUS
 62
     3
 10
339.4579942488334723
 20
414.1887718408866021
 30
0.0
  0
VERTEX
  5
611
  8
0
  6
CONTINUOUS
 62
     3
 10
284.2279942488329993
 20
414.1887718408863179
 30
0.0
  0
VERTEX
  5
612
  8
0
  6
CONTINUOUS
 62
     3
 10
284.2279942488329993
 20
414.8287718408864748
 30
0.0
 42
0.4142135623730951
  0
VERTEX
  5
613
  8
0
  6
CONTINUOUS
 62
     3
 10
282.7279942488332267
 20
416.328771840886418
 30
0.0
  0
VERTEX
  5
614
  8
0
  6
CONTINUOUS
 62
     3
 10
264.1980227158189791
 20
416.328771840886418
 30
0.0
 42
0.0100084863468056
  0
VERTEX
  5
615
  8
0
  6
CONTINUOUS
 62
     3
 10
264.1379898405911035
 20
416.3275700440785272
 30
0.0
  0
VERTEX
  5
616
  8
0
  6
CONTINUOUS
 62
     3
 10
261.549897223623077
 20
416.2239065616817015
 30
0.0
 42
0.0423770652101923
  0
VERTEX
  5
617
  8
0
  6
CONTINUOUS
 62
     3
 10
261.2980625626245796
 20
416.1923297595905069
 30
0.0
  0
VERTEX
  5
618
  8
0
  6
CONTINUOUS
 62
     3
 10
187.3590409556717873
 20
400.4761055535709033
 30
0.0
 42
0.4142135623731125
  0
VERTEX
  5
619
  8
0
  6
CONTINUOUS
 62
     3
 10
186.2036870907978141
 20
398.6970166162436158
 30
0.0
  0
VERTEX
  5
61A
  8
0
  6
CONTINUOUS
 62
     3
 10
189.8540084438766939
 20
381.5236048692768804
 30
0.0
  0
VERTEX
  5
61B
  8
0
  6
CONTINUOUS
 62
     3
 10
182.0090409556717077
 20
379.8561055535710125
 30
0.0
 42
0.4142135623730782
  0
VERTEX
  5
61C
  8
0
  6
CONTINUOUS
 62
     3
 10
180.8536870907977914
 20
378.0770166162437818
 30
0.0
  0
VERTEX
  5
61D
  8
0
  6
CONTINUOUS
 62
     3
 10
184.4006605361487914
 20
361.3898185477252127
 30
0.0
 42
0.4142135623730779
  0
VERTEX
  5
61E
  8
0
  6
CONTINUOUS
 62
     3
 10
186.1797494734759084
 20
360.2344646828510122
 30
0.0
  0
VERTEX
  5
61F
  8
0
  6
CONTINUOUS
 62
     3
 10
189.372491802886401
 20
360.9131030146887156
 30
0.0
  0
VERTEX
  5
620
  8
0
  6
CONTINUOUS
 62
     3
 10
193.1219312869683904
 20
343.2733771242089915
 30
0.0
  0
VERTEX
  5
621
  8
0
  6
CONTINUOUS
 62
     3
 10
185.2694297546906057
 20
341.6042763979995129
 30
0.0
 42
0.4142135623731292
  0
VERTEX
  5
622
  8
0
  6
CONTINUOUS
 62
     3
 10
184.1140758898168031
 20
339.8251874606721117
 30
0.0
  0
VERTEX
  5
623
  8
0
  6
CONTINUOUS
 62
     3
 10
191.6232715788061967
 20
304.4971993242862141
 30
0.0
 42
0.4142135623730916
  0
VERTEX
  5
624
  8
0
  6
CONTINUOUS
 62
     3
 10
193.4023605161337969
 20
303.3418454594125819
 30
0.0
  0
VERTEX
  5
625
  8
0
  6
CONTINUOUS
 62
     3
 10
243.7155118146087887
 20
314.0362359062000905
 30
0.0
 42
0.4134306528507031
  0
VERTEX
  5
626
  8
0
  6
CONTINUOUS
 62
     3
 10
245.4937616494088104
 20
312.8848039197897037
 30
0.0
  0
SEQEND
  5
627
  8
0
  6
CONTINUOUS
 62
     3
  0
POLYLINE
  5
256
  8
0
  6
CONTINUOUS
 62
     3
 66
     1
 10
0.0
 20
0.0
 30
0.0
 70
     1
  0
VERTEX
  5
628
  8
0
  6
CONTINUOUS
 62
     3
 10
11.7979942488329499
 20
424.7987718408862179
 30
0.0
 42
0.4142135623730951
  0
VERTEX
  5
629
  8
0
  6
CONTINUOUS
 62
     3
 10
5.797994248832949
 20
418.7987718408862747
 30
0.0
  0
VERTEX
  5
62A
  8
0
  6
CONTINUOUS
 62
     3
 10
5.797994248832949
 20
414.2987718408862747
 30
0.0
  0
VERTEX
  5
62B
  8
0
  6
CONTINUOUS
 62
     3
 10
5.797994248832949
 20
319.9587718408865271
 30
0.0
  0
VERTEX
  5
62C
  8
0
  6
CONTINUOUS
 62
     3
 10
5.797994248832949
 20
315.4587718408865271
 30
0.0
 42
0.4142135623730951
  0
VERTEX
  5
62D
  8
0
  6
CONTINUOUS
 62
     3
 10
11.7979942488329499
 20
309.4587718408865271
 30
0.0
  0
VERTEX
  5
62E
  8
0
  6
CONTINUOUS
 62
     3
 10
16.2979942488329499
 20
309.4587718408865271
 30
0.0
  0
VERTEX
  5
62F
  8
0
  6
CONTINUOUS
 62
     3
 10
87.9919906227194843
 20
309.4587718408865271
 30
0.0
  0
VERTEX
  5
630
  8
0
  6
CONTINUOUS
 62
     3
 10
168.1427148875521027
 20
292.4222094757921013
 30
0.0
  0
VERTEX
  5
631
  8
0
  6
CONTINUOUS
 62
     3
 10
183.6679942488314055
 20
292.4222094757921013
 30
0.0
  0
VERTEX
  5
632
  8
0
  6
CONTINUOUS
 62
     3
 10
199.1932736101109924
 20
292.4222094757921013
 30
0.0
  0
VERTEX
  5
633
  8
0
  6
CONTINUOUS
 62
     3
 10
279.343997874943625
 20
309.4587718408865271
 30
0.0
  0
VERTEX
  5
634
  8
0
  6
CONTINUOUS
 62
     3
 10
351.5367442488326901
 20
309.4587718408865271
 30
0.0
  0
VERTEX
  5
635
  8
0
  6
CONTINUOUS
 62
     3
 10
356.0367442488326901
 20
309.4587718408865271
 30
0.0
 42
0.4142135623730982
  0
VERTEX
  5
636
  8
0
  6
CONTINUOUS
 62
     3
 10
362.0367442488326901
 20
315.4587718408865271
 30
0.0
  0
VERTEX
  5
637
  8
0
  6
CONTINUOUS
 62
     3
 10
362.0367442488326901
 20
319.9587718408865271
 30
0.0
  0
VERTEX
  5
638
  8
0
  6
CONTINUOUS
 62
     3
 10
362.0367442488326901
 20
418.7987718408862747
 30
0.0
 42
0.4142135623730959
  0
VERTEX
  5
639
  8
0
  6
CONTINUOUS
 62
     3
 10
356.0367442488328038
 20
424.7987718408862179
 30
0.0
  0
VERTEX
  5
63A
  8
0
  6
CONTINUOUS
 62
     3
 10
189.0179942488346114
 20
424.7987718408862179
 30
0.0
  0
VERTEX
  5
63B
  8
0
  6
CONTINUOUS
 62
     3
 10
178.3179942488295069
 20
424.7987718408862179
 30
0.0
  0
VERTEX
  5
63C
  8
0
  6
CONTINUOUS
 62
     3
 10
16.2979942488329499
 20
424.7987718408862179
 30
0.0
  0
SEQEND
  5
63D
  8
0
  6
CONTINUOUS
 62
     3
  0
POLYLINE
  5
257
  8
0
 62
     3
 66
     1
 10
0.0
 20
0.0
 30
0.0
 70
     1
  0
VERTEX
  5
63E
  8
0
 62
     3
 10
307.5758410165202008
 20
323.8532940174579835
 30
0.0
 42
0.4142135623730951
  0
VERTEX
  5
63F
  8
0
 62
     3
 10
308.5758410165202008
 20
324.8532940174582109
 30
0.0
  0
VERTEX
  5
640
  8
0
 62
     3
 10
308.5758410165202008
 20
332.3095588574690851
 30
0.0
 42
0.4142135623730951
  0
VERTEX
  5
641
  8
0
 62
     3
 10
307.5758410165202008
 20
333.3095588574691988
 30
0.0
  0
VERTEX
  5
642
  8
0
 62
     3
 10
283.575841023019791
 20
333.3095588574690851
 30
0.0
 42
0.4142135623730951
  0
VERTEX
  5
643
  8
0
 62
     3
 10
282.575841023019791
 20
332.3095588574690851
 30
0.0
  0
VERTEX
  5
644
  8
0
 62
     3
 10
282.575841023019791
 20
324.8532940174582109
 30
0.0
 42
0.4142135623730951
  0
VERTEX
  5
645
  8
0
 62
     3
 10
283.575841023019791
 20
323.8532940174579835
 30
0.0
  0
SEQEND
  5
646
  8
0
 62
     3
  0
CIRCLE
  5
258
  8
0
  6
CONTINUOUS
 62
     2
 10
356.2351339632846816
 20
181.6805590463426086
 30
0.0
 40
1.05
  0
CIRCLE
  5
259
  8
0
  6
CONTINUOUS
 62
     2
 10
356.2351339632846816
 20
285.8238599052413065
 30
0.0
 40
1.05
  0
CIRCLE
  5
25A
  8
0
  6
CONTINUOUS
 62
     2
 10
11.1930831043858507
 20
285.8238599052415907
 30
0.0
 40
1.05
  0
CIRCLE
  5
25B
  8
0
  6
CONTINUOUS
 62
     2
 10
11.1930831043858507
 20
181.6805590463426086
 30
0.0
 40
1.05
  0
CIRCLE
  5
25C
  8
0
  6
CONTINUOUS
 62
     2
 10
126.1930831043861048
 20
286.9222094757921013
 30
0.0
 40
1.05
  0
CIRCLE
  5
25D
  8
0
  6
CONTINUOUS
 62
     2
 10
241.2351339632847953
 20
286.9222094757921013
 30
0.0
 40
1.05
  0
CIRCLE
  5
25E
  8
0
  6
CONTINUOUS
 62
     2
 10
128.7996946488183028
 20
171.9655924965468898
 30
0.0
 40
1.05
  0
CIRCLE
  5
25F
  8
0
  6
CONTINUOUS
 62
     2
 10
238.1297724188499103
 20
171.9655924965468898
 30
0.0
 40
1.05
  0
POLYLINE
  5
260
  8
0
  6
CONTINUOUS
 62
     2
 66
     1
 10
0.0
 20
0.0
 30
0.0
 70
     1
  0
VERTEX
  5
647
  8
0
  6
CONTINUOUS
 62
     2
 10
178.1147335338324069
 20
282.422209475791874
 30
0.0
  0
VERTEX
  5
648
  8
0
  6
CONTINUOUS
 62
     2
 10
178.1147335338324069
 20
289.5941068090925796
 30
0.0
  0
VERTEX
  5
649
  8
0
  6
CONTINUOUS
 62
     2
 10
176.6931522971262041
 20
291.4222094757921013
 30
0.0
  0
VERTEX
  5
64A
  8
0
  6
CONTINUOUS
 62
     2
 10
175.9155257105012993
 20
291.4222094757921013
 30
0.0
  0
VERTEX
  5
64B
  8
0
  6
CONTINUOUS
 62
     2
 10
16.0947335338353916
 20
291.4222094757921013
 30
0.0
  0
VERTEX
  5
64C
  8
0
  6
CONTINUOUS
 62
     2
 10
11.5947335338353898
 20
291.4222094757921013
 30
0.0
 42
0.4142135623730951
  0
VERTEX
  5
64D
  8
0
  6
CONTINUOUS
 62
     2
 10
5.5947335338353952
 20
285.4222094757921013
 30
0.0
  0
VERTEX
  5
64E
  8
0
  6
CONTINUOUS
 62
     2
 10
5.5947335338353952
 20
280.9222094757921013
 30
0.0
  0
VERTEX
  5
64F
  8
0
  6
CONTINUOUS
 62
     2
 10
5.5947335338353952
 20
186.5822094757920979
 30
0.0
  0
VERTEX
  5
650
  8
0
  6
CONTINUOUS
 62
     2
 10
5.5947335338353952
 20
182.0822094757920979
 30
0.0
 42
0.4142135623730951
  0
VERTEX
  5
651
  8
0
  6
CONTINUOUS
 62
     2
 10
11.5947335338353898
 20
176.0822094757920979
 30
0.0
  0
VERTEX
  5
652
  8
0
  6
CONTINUOUS
 62
     2
 10
16.0947335338353916
 20
176.0822094757920979
 30
0.0
  0
VERTEX
  5
653
  8
0
  6
CONTINUOUS
 62
     2
 10
87.7887299077220433
 20
176.0822094757920979
 30
0.0
  0
VERTEX
  5
654
  8
0
  6
CONTINUOUS
 62
     2
 10
167.9394541725546901
 20
159.0456471106977858
 30
0.0
  0
VERTEX
  5
655
  8
0
  6
CONTINUOUS
 62
     2
 10
183.4647335338341918
 20
159.0456471106977858
 30
0.0
  0
VERTEX
  5
656
  8
0
  6
CONTINUOUS
 62
     2
 10
198.9900128951136082
 20
159.0456471106977858
 30
0.0
  0
VERTEX
  5
657
  8
0
  6
CONTINUOUS
 62
     2
 10
279.1407371599464113
 20
176.0822094757920979
 30
0.0
  0
VERTEX
  5
658
  8
0
  6
CONTINUOUS
 62
     2
 10
351.3334835338350217
 20
176.0822094757920979
 30
0.0
  0
VERTEX
  5
659
  8
0
  6
CONTINUOUS
 62
     2
 10
355.8334835338350217
 20
176.0822094757920979
 30
0.0
 42
0.4142135623730978
  0
VERTEX
  5
65A
  8
0
  6
CONTINUOUS
 62
     2
 10
361.8334835338350217
 20
182.0822094757922116
 30
0.0
  0
VERTEX
  5
65B
  8
0
  6
CONTINUOUS
 62
     2
 10
361.8334835338350217
 20
186.5822094757920979
 30
0.0
  0
VERTEX
  5
65C
  8
0
  6
CONTINUOUS
 62
     2
 10
361.8334835338357038
 20
285.4222094757921013
 30
0.0
 42
0.4142135623730951
  0
VERTEX
  5
65D
  8
0
  6
CONTINUOUS
 62
     2
 10
355.8334835338357038
 20
291.4222094757921013
 30
0.0
  0
VERTEX
  5
65E
  8
0
  6
CONTINUOUS
 62
     2
 10
191.6428362005366921
 20
291.4222094757921013
 30
0.0
  0
VERTEX
  5
65F
  8
0
  6
CONTINUOUS
 62
     2
 10
190.6428362005366921
 20
291.4222094757921013
 30
0.0
  0
VERTEX
  5
660
  8
0
  6
CONTINUOUS
 62
     2
 10
188.8147335338369999
 20
289.5941068090925796
 30
0.0
  0
VERTEX
  5
661
  8
0
  6
CONTINUOUS
 62
     2
 10
188.8147335338369999
 20
282.422209475791874
 30
0.0
  0
VERTEX
  5
662
  8
0
  6
CONTINUOUS
 62
     2
 10
351.3334835338350217
 20
282.422209475791874
 30
0.0
 42
-0.4142135623730728
  0
VERTEX
  5
663
  8
0
  6
CONTINUOUS
 62
     2
 10
352.8334835338357038
 20
280.9222094757921013
 30
0.0
  0
VERTEX
  5
664
  8
0
  6
CONTINUOUS
 62
     2
 10
352.8334835338350217
 20
186.5822094757920979
 30
0.0
 42
-0.4142135623730951
  0
VERTEX
  5
665
  8
0
  6
CONTINUOUS
 62
     2
 10
351.3334835338350217
 20
185.0822094757920979
 30
0.0
  0
VERTEX
  5
666
  8
0
  6
CONTINUOUS
 62
     2
 10
278.1947990425550756
 20
185.0822094757920979
 30
0.0
  0
VERTEX
  5
667
  8
0
  6
CONTINUOUS
 62
     2
 10
183.4647335338341918
 20
164.9467124644829994
 30
0.0
  0
VERTEX
  5
668
  8
0
  6
CONTINUOUS
 62
     2
 10
88.7346680251130948
 20
185.0822094757920979
 30
0.0
  0
VERTEX
  5
669
  8
0
  6
CONTINUOUS
 62
     2
 10
16.0947335338353916
 20
185.0822094757920979
 30
0.0
 42
-0.4142135623730951
  0
VERTEX
  5
66A
  8
0
  6
CONTINUOUS
 62
     2
 10
14.5947335338353898
 20
186.5822094757920979
 30
0.0
  0
VERTEX
  5
66B
  8
0
  6
CONTINUOUS
 62
     2
 10
14.5947335338353898
 20
280.9222094757921013
 30
0.0
 42
-0.4142135623730951
  0
VERTEX
  5
66C
  8
0
  6
CONTINUOUS
 62
     2
 10
16.0947335338353916
 20
282.422209475791874
 30
0.0
  0
SEQEND
  5
66D
  8
0
  6
CONTINUOUS
 62
     2
  0
CIRCLE
  5
261
  8
0
  6
CONTINUOUS
 62
     2
 10
356.2351339632842837
 20
49.3039966812483073
 30
0.0
 40
1.05
  0
CIRCLE
  5
262
  8
0
  6
CONTINUOUS
 62
     2
 10
356.2351339632842837
 20
153.447297540146991
 30
0.0
 40
1.05
  0
CIRCLE
  5
263
  8
0
  6
CONTINUOUS
 62
     2
 10
11.1930831043852201
 20
153.4472975401471899
 30
0.0
 40
1.05
  0
CIRCLE
  5
264
  8
0
  6
CONTINUOUS
 62
     2
 10
11.1930831043852201
 20
49.3039966812483073
 30
0.0
 40
1.05
  0
CIRCLE
  5
265
  8
0
  6
CONTINUOUS
 62
     2
 10
126.1930831043851953
 20
154.5456471106977858
 30
0.0
 40
1.05
  0
CIRCLE
  5
266
  8
0
  6
CONTINUOUS
 62
     2
 10
241.2351339632843974
 20
154.5456471106977858
 30
0.0
 40
1.05
  0
CIRCLE
  5
267
  8
0
  6
CONTINUOUS
 62
     2
 10
128.7996946488177059
 20
39.5890301314527875
 30
0.0
 40
1.05
  0
CIRCLE
  5
268
  8
0
  6
CONTINUOUS
 62
     2
 10
238.1297724188495124
 20
39.5890301314527875
 30
0.0
 40
1.05
  0
POLYLINE
  5
269
  8
0
  6
CONTINUOUS
 62
     2
 66
     1
 10
0.0
 20
0.0
 30
0.0
 70
     1
  0
VERTEX
  5
66E
  8
0
  6
CONTINUOUS
 62
     2
 10
11.5947335338349902
 20
158.0456471106977858
 30
0.0
 42
0.4142135623730951
  0
VERTEX
  5
66F
  8
0
  6
CONTINUOUS
 62
     2
 10
6.5947335338349973
 20
153.0456471106977858
 30
0.0
  0
VERTEX
  5
670
  8
0
  6
CONTINUOUS
 62
     2
 10
6.5947335338349973
 20
148.5456471106977858
 30
0.0
  0
VERTEX
  5
671
  8
0
  6
CONTINUOUS
 62
     2
 10
6.5947335338349973
 20
54.2056471106978606
 30
0.0
  0
VERTEX
  5
672
  8
0
  6
CONTINUOUS
 62
     2
 10
6.5947335338349973
 20
49.7056471106978677
 30
0.0
 42
0.4142135623730951
  0
VERTEX
  5
673
  8
0
  6
CONTINUOUS
 62
     2
 10
11.5947335338349902
 20
44.7056471106978606
 30
0.0
  0
VERTEX
  5
674
  8
0
  6
CONTINUOUS
 62
     2
 10
16.0947335338349902
 20
44.7056471106978606
 30
0.0
  0
VERTEX
  5
675
  8
0
  6
CONTINUOUS
 62
     2
 10
87.8938341429869894
 20
44.7056471106978606
 30
0.0
  0
VERTEX
  5
676
  8
0
  6
CONTINUOUS
 62
     2
 10
168.0445584078198067
 20
27.66908474560352
 30
0.0
  0
VERTEX
  5
677
  8
0
  6
CONTINUOUS
 62
     2
 10
183.4647335338333107
 20
27.66908474560352
 30
0.0
  0
VERTEX
  5
678
  8
0
  6
CONTINUOUS
 62
     2
 10
198.8849086598476106
 20
27.66908474560352
 30
0.0
  0
VERTEX
  5
679
  8
0
  6
CONTINUOUS
 62
     2
 10
279.0356329246803853
 20
44.7056471106978606
 30
0.0
  0
VERTEX
  5
67A
  8
0
  6
CONTINUOUS
 62
     2
 10
351.3334835338350217
 20
44.7056471106978606
 30
0.0
  0
VERTEX
  5
67B
  8
0
  6
CONTINUOUS
 62
     2
 10
355.8334835338350217
 20
44.7056471106978606
 30
0.0
 42
0.4142135623730984
  0
VERTEX
  5
67C
  8
0
  6
CONTINUOUS
 62
     2
 10
360.8334835338350217
 20
49.7056471106979103
 30
0.0
  0
VERTEX
  5
67D
  8
0
  6
CONTINUOUS
 62
     2
 10
360.8334835338350217
 20
54.2056471106978606
 30
0.0
  0
VERTEX
  5
67E
  8
0
  6
CONTINUOUS
 62
     2
 10
360.8334835338350217
 20
153.0456471106977858
 30
0.0
 42
0.4142135623730951
  0
VERTEX
  5
67F
  8
0
  6
CONTINUOUS
 62
     2
 10
355.8334835338350217
 20
158.0456471106977858
 30
0.0
  0
VERTEX
  5
680
  8
0
  6
CONTINUOUS
 62
     2
 10
188.814733533836403
 20
158.0456471106977858
 30
0.0
  0
VERTEX
  5
681
  8
0
  6
CONTINUOUS
 62
     2
 10
178.1147335338320943
 20
158.0456471106977858
 30
0.0
  0
VERTEX
  5
682
  8
0
  6
CONTINUOUS
 62
     2
 10
16.0947335338349902
 20
158.0456471106977858
 30
0.0
  0
SEQEND
  5
683
  8
0
  6
CONTINUOUS
 62
     2
  0
CIRCLE
  5
26C
  8
0
  6
CONTINUOUS
 62
     2
 10
326.7333336947459088
 20
134.4261012471287984
 30
0.0
 40
1.1000000000000001
  0
CIRCLE
  5
26D
  8
0
  6
CONTINUOUS
 62
     2
 10
183.7333336947459088
 20
134.4261012471287984
 30
0.0
 40
1.1000000000000001
  0
CIRCLE
  5
26E
  8
0
  6
CONTINUOUS
 62
     2
 10
40.7333336947459799
 20
134.4261012471287984
 30
0.0
 40
1.1000000000000001
  0
CIRCLE
  5
26F
  8
0
  6
CONTINUOUS
 62
     2
 10
82.8938341429869894
 20
57.7056471106978677
 30
0.0
 40
1.1000000000000001
  0
CIRCLE
  5
270
  8
0
  6
CONTINUOUS
 62
     2
 10
19.5947335338353383
 20
57.7056471106978819
 30
0.0
 40
1.1000000000000001
  0
CIRCLE
  5
271
  8
0
  6
CONTINUOUS
 62
     2
 10
347.8334835338350217
 20
57.7056471106978677
 30
0.0
 40
1.1000000000000001
  0
CIRCLE
  5
272
  8
0
  6
CONTINUOUS
 62
     2
 10
284.5343829246833138
 20
57.7056471106978819
 30
0.0
 40
1.1000000000000001
  0
POLYLINE
  5
273
  8
LAYER_1
 66
     1
 10
0.0
 20
0.0
 30
0.0
 70
     1
  0
VERTEX
  5
684
  8
LAYER_1
 10
132.3022055338342966
 20
56.4336734615064586
 30
0.0
  0
VERTEX
  5
685
  8
LAYER_1
 10
132.3022055338342966
 20
56.4336734615064586
 30
0.0
  0
VERTEX
  5
686
  8
LAYER_1
 10
131.8011665338341913
 20
56.5894534615063876
 30
0.0
  0
VERTEX
  5
687
  8
LAYER_1
 10
131.3747425338341088
 20
57.0380734615064
 30
0.0
  0
VERTEX
  5
688
  8
LAYER_1
 10
131.020526533834186
 20
57.7514524615064317
 30
0.0
  0
VERTEX
  5
689
  8
LAYER_1
 10
130.7361115338339062
 20
58.7015094615064328
 30
0.0
  0
VERTEX
  5
68A
  8
LAYER_1
 10
130.3670555338341899
 20
61.1993384615063505
 30
0.0
  0
VERTEX
  5
68B
  8
LAYER_1
 10
130.2483155338341874
 20
64.3069134615063547
 30
0.0
  0
VERTEX
  5
68C
  8
LAYER_1
 10
130.4537055338340963
 20
70.5370534615064742
 30
0.0
  0
VERTEX
  5
68D
  8
LAYER_1
 10
136.0676655338340026
 20
62.0476334615063507
 30
0.0
  0
VERTEX
  5
68E
  8
LAYER_1
 10
135.3445275338341105
 20
59.8129594615063098
 30
0.0
  0
VERTEX
  5
68F
  8
LAYER_1
 10
134.4416715338340111
 20
58.0339934615064692
 30
0.0
  0
VERTEX
  5
690
  8
LAYER_1
 10
133.4104475338340876
 20
56.8583574615063014
 30
0.0
  0
VERTEX
  5
691
  8
LAYER_1
 10
132.8627445338337907
 20
56.5429194615064219
 30
0.0
  0
SEQEND
  5
692
  8
LAYER_1
  0
POLYLINE
  5
274
  8
LAYER_1
 66
     1
 10
0.0
 20
0.0
 30
0.0
 70
     1
  0
VERTEX
  5
693
  8
LAYER_1
 10
142.8052055338339983
 20
84.5036734615063949
 30
0.0
  0
VERTEX
  5
694
  8
LAYER_1
 10
142.8052055338339983
 20
84.5036734615063949
 30
0.0
  0
VERTEX
  5
695
  8
LAYER_1
 10
142.5559575338340039
 20
85.8900474615063274
 30
0.0
  0
VERTEX
  5
696
  8
LAYER_1
 10
141.8895145338343866
 20
87.0710334615064028
 30
0.0
  0
VERTEX
  5
697
  8
LAYER_1
 10
140.9278235338346121
 20
87.8925894615063754
 30
0.0
  0
VERTEX
  5
698
  8
LAYER_1
 10
140.3743705338339112
 20
88.120443461506369
 30
0.0
  0
VERTEX
  5
699
  8
LAYER_1
 10
139.7928355338341078
 20
88.2006734615063976
 30
0.0
  0
VERTEX
  5
69A
  8
LAYER_1
 10
139.0806615338343022
 20
88.0908914615062884
 30
0.0
  0
VERTEX
  5
69B
  8
LAYER_1
 10
138.3957645338340967
 20
87.7845464615063236
 30
0.0
  0
VERTEX
  5
69C
  8
LAYER_1
 10
137.1912455338342909
 20
86.7201594615064266
 30
0.0
  0
VERTEX
  5
69D
  8
LAYER_1
 10
136.3461565338338914
 20
85.283504461506439
 30
0.0
  0
VERTEX
  5
69E
  8
LAYER_1
 10
136.1105475338339943
 20
84.5118244615063929
 30
0.0
  0
VERTEX
  5
69F
  8
LAYER_1
 10
136.0273755338338901
 20
83.7505734615063773
 30
0.0
  0
VERTEX
  5
6A0
  8
LAYER_1
 10
136.2145785338341
 20
82.4358704615063544
 30
0.0
  0
VERTEX
  5
6A1
  8
LAYER_1
 10
136.7547935338340892
 20
81.3458104615064599
 30
0.0
  0
VERTEX
  5
6A2
  8
LAYER_1
 10
137.6159285338341078
 20
80.6023454615064736
 30
0.0
  0
VERTEX
  5
6A3
  8
LAYER_1
 10
138.7658955338339126
 20
80.3274234615064131
 30
0.0
  0
VERTEX
  5
6A4
  8
LAYER_1
 10
139.5684615338342098
 20
80.4198214615063875
 30
0.0
  0
VERTEX
  5
6A5
  8
LAYER_1
 10
140.3212855338346117
 20
80.6815054615064469
 30
0.0
  0
VERTEX
  5
6A6
  8
LAYER_1
 10
141.0067165338340942
 20
81.0892084615063311
 30
0.0
  0
VERTEX
  5
6A7
  8
LAYER_1
 10
141.607104533833791
 20
81.6196634615063772
 30
0.0
  0
VERTEX
  5
6A8
  8
LAYER_1
 10
142.4821455338343128
 20
82.9557634615062796
 30
0.0
  0
VERTEX
  5
6A9
  8
LAYER_1
 10
142.721498533834108
 20
83.714875461506324
 30
0.0
  0
SEQEND
  5
6AA
  8
LAYER_1
  0
POLYLINE
  5
275
  8
LAYER_1
 66
     1
 10
0.0
 20
0.0
 30
0.0
 70
     1
  0
VERTEX
  5
6AB
  8
LAYER_1
 10
149.5461355338339899
 20
89.296103461506334
 30
0.0
  0
VERTEX
  5
6AC
  8
LAYER_1
 10
149.5461355338339899
 20
89.296103461506334
 30
0.0
  0
VERTEX
  5
6AD
  8
LAYER_1
 10
150.0189575338341115
 20
88.8949504615063262
 30
0.0
  0
VERTEX
  5
6AE
  8
LAYER_1
 10
150.9667415338342096
 20
87.5759684615063065
 30
0.0
  0
VERTEX
  5
6AF
  8
LAYER_1
 10
153.9277655338343891
 20
82.7236534615063448
 30
0.0
  0
VERTEX
  5
6B0
  8
LAYER_1
 10
157.051390533834109
 20
77.3749814615062803
 30
0.0
  0
VERTEX
  5
6B1
  8
LAYER_1
 10
159.1994155338340136
 20
73.4126834615062194
 30
0.0
  0
VERTEX
  5
6B2
  8
LAYER_1
 10
157.1091545338341007
 20
75.6088494615061961
 30
0.0
  0
VERTEX
  5
6B3
  8
LAYER_1
 10
155.262793533834099
 20
77.8371044615062715
 30
0.0
  0
VERTEX
  5
6B4
  8
LAYER_1
 10
153.6731685338343141
 20
80.0268494615062735
 30
0.0
  0
VERTEX
  5
6B5
  8
LAYER_1
 10
152.3531155338341136
 20
82.107483461506348
 30
0.0
  0
VERTEX
  5
6B6
  8
LAYER_1
 10
150.8747435338343053
 20
84.8385144615062643
 30
0.0
  0
VERTEX
  5
6B7
  8
LAYER_1
 10
149.9226805338340114
 20
87.0624924615062241
 30
0.0
  0
VERTEX
  5
6B8
  8
LAYER_1
 10
149.484089533834009
 20
88.6061204615063502
 30
0.0
  0
SEQEND
  5
6B9
  8
LAYER_1
  0
POLYLINE
  5
276
  8
LAYER_1
 66
     1
 10
0.0
 20
0.0
 30
0.0
  0
VERTEX
  5
6BA
  8
LAYER_1
 10
196.0839755338338932
 20
74.9191534615061414
 30
0.0
  0
VERTEX
  5
6BB
  8
LAYER_1
 10
196.2722485338341016
 20
76.2884124615061125
 30
0.0
  0
VERTEX
  5
6BC
  8
LAYER_1
 10
196.7686055338340054
 20
77.4522834615060844
 30
0.0
  0
VERTEX
  5
6BD
  8
LAYER_1
 10
197.5666275338342075
 20
78.4321604615060721
 30
0.0
  0
VERTEX
  5
6BE
  8
LAYER_1
 10
198.5315275338340086
 20
79.3350164615061146
 30
0.0
  0
VERTEX
  5
6BF
  8
LAYER_1
 10
201.0133155338342021
 20
81.0123534615060663
 30
0.0
  0
VERTEX
  5
6C0
  8
LAYER_1
 10
202.1087225338343956
 20
81.4402514615060937
 30
0.0
  0
VERTEX
  5
6C1
  8
LAYER_1
 10
203.4095255338339996
 20
81.5600634615061324
 30
0.0
  0
VERTEX
  5
6C2
  8
LAYER_1
 10
204.9654535338341077
 20
81.3899754615060544
 30
0.0
  0
VERTEX
  5
6C3
  8
LAYER_1
 10
206.6272845338341995
 20
80.8797124615061449
 30
0.0
  0
VERTEX
  5
6C4
  8
LAYER_1
 10
208.3533005338341013
 20
80.0292744615060769
 30
0.0
  0
VERTEX
  5
6C5
  8
LAYER_1
 10
210.1017795338339909
 20
78.8386604615061231
 30
0.0
  0
VERTEX
  5
6C6
  8
LAYER_1
 10
211.8310015338340122
 20
77.3078734615059773
 30
0.0
  0
VERTEX
  5
6C7
  8
LAYER_1
 10
213.4992465338341958
 20
75.4369104615061303
 30
0.0
  0
VERTEX
  5
6C8
  8
LAYER_1
 10
215.0647945338342026
 20
73.2257744615060062
 30
0.0
  0
VERTEX
  5
6C9
  8
LAYER_1
 10
216.4859255338344042
 20
70.6744634615060647
 30
0.0
  0
VERTEX
  5
6CA
  8
LAYER_1
 10
217.4240805338340863
 20
68.6355494615060593
 30
0.0
  0
VERTEX
  5
6CB
  8
LAYER_1
 10
218.0862455338343864
 20
66.6351464615060536
 30
0.0
  0
VERTEX
  5
6CC
  8
LAYER_1
 10
218.4788375338341098
 20
64.6860914615060381
 30
0.0
  0
VERTEX
  5
6CD
  8
LAYER_1
 10
218.6082755338339041
 20
62.8012234615060478
 30
0.0
  0
VERTEX
  5
6CE
  8
LAYER_1
 10
218.4458095338341934
 20
60.8140574615060601
 30
0.0
  0
VERTEX
  5
6CF
  8
LAYER_1
 10
217.9632265338345007
 20
58.9833404615059891
 30
0.0
  0
VERTEX
  5
6D0
  8
LAYER_1
 10
217.1677455338341076
 20
57.3435704615059905
 30
0.0
  0
VERTEX
  5
6D1
  8
LAYER_1
 10
216.0665875338343938
 20
55.9292474615060371
 30
0.0
  0
VERTEX
  5
6D2
  8
LAYER_1
 10
214.6669745338340931
 20
54.7748694615060927
 30
0.0
  0
VERTEX
  5
6D3
  8
LAYER_1
 10
212.9761265338339058
 20
53.9149374615060069
 30
0.0
  0
VERTEX
  5
6D4
  8
LAYER_1
 10
211.0012625338341934
 20
53.38394846150603
 30
0.0
  0
VERTEX
  5
6D5
  8
LAYER_1
 10
208.7496055338341137
 20
53.2164034615061325
 30
0.0
  0
VERTEX
  5
6D6
  8
LAYER_1
 10
206.7459925338339986
 20
53.3854314615061369
 30
0.0
  0
VERTEX
  5
6D7
  8
LAYER_1
 10
204.7616305338345057
 20
53.8240274615061196
 30
0.0
  0
VERTEX
  5
6D8
  8
LAYER_1
 10
202.8286155338344088
 20
54.5065174615060215
 30
0.0
  0
VERTEX
  5
6D9
  8
LAYER_1
 10
200.9790395338341966
 20
55.4072304615061384
 30
0.0
  0
VERTEX
  5
6DA
  8
LAYER_1
 10
199.2449965338344953
 20
56.5004944615061007
 30
0.0
  0
VERTEX
  5
6DB
  8
LAYER_1
 10
197.8641995823552122
 20
57.5973056706934727
 30
0.0
  0
VERTEX
  5
6DC
  8
LAYER_1
 10
197.7700615338341095
 20
56.8580774615060989
 30
0.0
  0
VERTEX
  5
6DD
  8
LAYER_1
 10
197.4211945338338126
 20
55.9181824615060989
 30
0.0
  0
VERTEX
  5
6DE
  8
LAYER_1
 10
196.9174835338342859
 20
55.0898074615060693
 30
0.0
  0
VERTEX
  5
6DF
  8
LAYER_1
 10
196.2501035338341069
 20
54.3994284615061829
 30
0.0
  0
VERTEX
  5
6E0
  8
LAYER_1
 10
195.4102285338342142
 20
53.8735204615060965
 30
0.0
  0
VERTEX
  5
6E1
  8
LAYER_1
 10
194.3890335338344073
 20
53.5385604615061723
 30
0.0
  0
VERTEX
  5
6E2
  8
LAYER_1
 10
193.1776945338341136
 20
53.4210234615061026
 30
0.0
  0
VERTEX
  5
6E3
  8
LAYER_1
 10
191.8882645338341888
 20
53.5172994615060986
 30
0.0
  0
VERTEX
  5
6E4
  8
LAYER_1
 10
190.6413555338340871
 20
53.7932904615060608
 30
0.0
  0
VERTEX
  5
6E5
  8
LAYER_1
 10
189.4409795338343088
 20
54.2297414615061086
 30
0.0
  0
VERTEX
  5
6E6
  8
LAYER_1
 10
188.291148533834189
 20
54.8073974615061488
 30
0.0
  0
VERTEX
  5
6E7
  8
LAYER_1
 10
186.1591665338345081
 20
56.3093024615061211
 30
0.0
  0
VERTEX
  5
6E8
  8
LAYER_1
 10
184.2775045338339055
 20
58.1449634615061868
 30
0.0
  0
VERTEX
  5
6E9
  8
LAYER_1
 10
184.0909705338341098
 20
57.0427374615062206
 30
0.0
  0
VERTEX
  5
6EA
  8
LAYER_1
 10
183.7351505338340871
 20
56.0536354615061967
 30
0.0
  0
VERTEX
  5
6EB
  8
LAYER_1
 10
183.2076375338340881
 20
55.1880864615062094
 30
0.0
  0
VERTEX
  5
6EC
  8
LAYER_1
 10
182.5060255338339061
 20
54.456522461506168
 30
0.0
  0
VERTEX
  5
6ED
  8
LAYER_1
 10
181.6279075338339908
 20
53.869371461506212
 30
0.0
  0
VERTEX
  5
6EE
  8
LAYER_1
 10
180.5708755338341973
 20
53.4370644615061892
 30
0.0
  0
VERTEX
  5
6EF
  8
LAYER_1
 10
179.3325235338340065
 20
53.1700324615062101
 30
0.0
  0
VERTEX
  5
6F0
  8
LAYER_1
 10
177.9104445338340099
 20
53.0787034615062367
 30
0.0
  0
VERTEX
  5
6F1
  8
LAYER_1
 10
176.3142665338340862
 20
53.2363554615062284
 30
0.0
  0
VERTEX
  5
6F2
  8
LAYER_1
 10
174.7301235338341883
 20
53.6852424615062418
 30
0.0
  0
VERTEX
  5
6F3
  8
LAYER_1
 10
173.1893055338341014
 20
54.3892604615062609
 30
0.0
  0
VERTEX
  5
6F4
  8
LAYER_1
 10
171.7231035338342906
 20
55.3123074615062578
 30
0.0
  0
VERTEX
  5
6F5
  8
LAYER_1
 10
170.3628065338340889
 20
56.4182784615062189
 30
0.0
  0
VERTEX
  5
6F6
  8
LAYER_1
 10
169.1397045338341911
 20
57.6710704615063108
 30
0.0
  0
VERTEX
  5
6F7
  8
LAYER_1
 10
169.0227236793990073
 20
57.8223142747637908
 30
0.0
  0
VERTEX
  5
6F8
  8
LAYER_1
 10
168.9286015338340974
 20
57.43620346150621
 30
0.0
  0
VERTEX
  5
6F9
  8
LAYER_1
 10
168.3569615338342942
 20
56.2128284615061702
 30
0.0
  0
VERTEX
  5
6FA
  8
LAYER_1
 10
167.5775255338342049
 20
55.2100874615061485
 30
0.0
  0
VERTEX
  5
6FB
  8
LAYER_1
 10
166.6023285338343953
 20
54.4287804615061717
 30
0.0
  0
VERTEX
  5
6FC
  8
LAYER_1
 10
165.4434045338340127
 20
53.8697114615062773
 30
0.0
  0
VERTEX
  5
6FD
  8
LAYER_1
 10
164.1127885338345038
 20
53.5336814615063474
 30
0.0
  0
VERTEX
  5
6FE
  8
LAYER_1
 10
162.6225155338343882
 20
53.4214934615062731
 30
0.0
  0
VERTEX
  5
6FF
  8
LAYER_1
 10
160.5045735338341899
 20
53.6667294615062573
 30
0.0
  0
VERTEX
  5
700
  8
LAYER_1
 10
158.4901255338342025
 20
54.330766461506272
 30
0.0
  0
VERTEX
  5
701
  8
LAYER_1
 10
156.6184865338343002
 20
55.3060964615062431
 30
0.0
  0
VERTEX
  5
702
  8
LAYER_1
 10
154.9289695338339925
 20
56.4852094615064004
 30
0.0
  0
VERTEX
  5
703
  8
LAYER_1
 10
154.2947323095976913
 20
57.0362011059798135
 30
0.0
  0
VERTEX
  5
704
  8
LAYER_1
 10
154.2267935338342113
 20
56.7505384615063377
 30
0.0
  0
VERTEX
  5
705
  8
LAYER_1
 10
153.775767533834113
 20
55.7583604615062569
 30
0.0
  0
VERTEX
  5
706
  8
LAYER_1
 10
153.1345955338339024
 20
54.9105974615062919
 30
0.0
  0
VERTEX
  5
707
  8
LAYER_1
 10
152.2976625338343979
 20
54.2232934615063371
 30
0.0
  0
VERTEX
  5
708
  8
LAYER_1
 10
151.2593525338338054
 20
53.7124964615063192
 30
0.0
  0
VERTEX
  5
709
  8
LAYER_1
 10
150.0140485338341136
 20
53.3942514615063999
 30
0.0
  0
VERTEX
  5
70A
  8
LAYER_1
 10
148.5561355338342082
 20
53.284603461506272
 30
0.0
  0
VERTEX
  5
70B
  8
LAYER_1
 10
147.0158505338339978
 20
53.4165824615062874
 30
0.0
  0
VERTEX
  5
70C
  8
LAYER_1
 10
145.4506935338339986
 20
53.8012854615063389
 30
0.0
  0
VERTEX
  5
70D
  8
LAYER_1
 10
143.8999775338340044
 20
54.4218654615062434
 30
0.0
  0
VERTEX
  5
70E
  8
LAYER_1
 10
142.4030145338344937
 20
55.2614734615064833
 30
0.0
  0
VERTEX
  5
70F
  8
LAYER_1
 10
140.9991165338344956
 20
56.303260461506369
 30
0.0
  0
VERTEX
  5
710
  8
LAYER_1
 10
139.8321380182808014
 20
57.4294867228492407
 30
0.0
  0
VERTEX
  5
711
  8
LAYER_1
 10
139.5649005338341908
 20
57.0170794615064125
 30
0.0
  0
VERTEX
  5
712
  8
LAYER_1
 10
138.4660165338341073
 20
55.8249934615064021
 30
0.0
  0
VERTEX
  5
713
  8
LAYER_1
 10
137.2419725338345131
 20
54.8880394615063878
 30
0.0
  0
VERTEX
  5
714
  8
LAYER_1
 10
135.9136305338346062
 20
54.1829504615063371
 30
0.0
  0
VERTEX
  5
715
  8
LAYER_1
 10
134.5018485338343908
 20
53.6864604615063428
 30
0.0
  0
VERTEX
  5
716
  8
LAYER_1
 10
133.0274875338342042
 20
53.3753014615063819
 30
0.0
  0
VERTEX
  5
717
  8
LAYER_1
 10
129.9744655338340067
 20
53.2159134615064602
 30
0.0
  0
VERTEX
  5
718
  8
LAYER_1
 10
128.0685985338342903
 20
53.4048554615064504
 30
0.0
  0
VERTEX
  5
719
  8
LAYER_1
 10
126.2164865338341997
 20
53.8160344615063906
 30
0.0
  0
VERTEX
  5
71A
  8
LAYER_1
 10
124.439791533834196
 20
54.4470434615064676
 30
0.0
  0
VERTEX
  5
71B
  8
LAYER_1
 10
122.7601765338340982
 20
55.2954754615064701
 30
0.0
  0
VERTEX
  5
71C
  8
LAYER_1
 10
121.1993045338340949
 20
56.358925461506459
 30
0.0
  0
VERTEX
  5
71D
  8
LAYER_1
 10
119.7788365338343937
 20
57.6349834615064722
 30
0.0
  0
VERTEX
  5
71E
  8
LAYER_1
 10
118.5204365338341006
 20
59.1212454615064971
 30
0.0
  0
VERTEX
  5
71F
  8
LAYER_1
 10
117.445765533834404
 20
60.8153034615064314
 30
0.0
  0
VERTEX
  5
720
  8
LAYER_1
 10
116.7707595338346067
 20
62.3525114615063885
 30
0.0
  0
VERTEX
  5
721
  8
LAYER_1
 10
116.5129525338338965
 20
63.7164234615064089
 30
0.0
  0
VERTEX
  5
722
  8
LAYER_1
 10
116.5503945338341936
 20
64.8107634615064114
 30
0.0
  0
VERTEX
  5
723
  8
LAYER_1
 10
116.761135533834107
 20
65.5392534615063767
 30
0.0
  0
VERTEX
  5
724
  8
LAYER_1
 10
117.208283533834404
 20
66.222810461506441
 30
0.0
  0
VERTEX
  5
725
  8
LAYER_1
 10
117.7709615338341962
 20
66.5405224615064697
 30
0.0
  0
VERTEX
  5
726
  8
LAYER_1
 10
118.3593145338341941
 20
66.3575994615063962
 30
0.0
  0
VERTEX
  5
727
  8
LAYER_1
 10
118.8834855338342038
 20
65.5392534615063767
 30
0.0
  0
VERTEX
  5
728
  8
LAYER_1
 10
119.9393115338341005
 20
63.2168584615064475
 30
0.0
  0
VERTEX
  5
729
  8
LAYER_1
 10
121.2711315338340938
 20
61.2346394615064611
 30
0.0
  0
VERTEX
  5
72A
  8
LAYER_1
 10
122.8981985338344032
 20
59.5219954615064069
 30
0.0
  0
VERTEX
  5
72B
  8
LAYER_1
 10
124.8397655338340968
 20
58.0083234615064569
 30
0.0
  0
VERTEX
  5
72C
  8
LAYER_1
 10
124.3498285338341987
 20
59.2053534615063981
 30
0.0
  0
VERTEX
  5
72D
  8
LAYER_1
 10
124.0010945338344044
 20
60.4986624615064201
 30
0.0
  0
VERTEX
  5
72E
  8
LAYER_1
 10
123.675895533834094
 20
63.143043461506501
 30
0.0
  0
VERTEX
  5
72F
  8
LAYER_1
 10
123.735798533834199
 20
66.0516514615064523
 30
0.0
  0
VERTEX
  5
730
  8
LAYER_1
 10
124.0010915338340993
 20
69.2105804615063676
 30
0.0
  0
VERTEX
  5
731
  8
LAYER_1
 10
124.2920595338341059
 20
72.5877414615063969
 30
0.0
  0
VERTEX
  5
732
  8
LAYER_1
 10
124.4289855338338953
 20
76.1510434615064185
 30
0.0
  0
VERTEX
  5
733
  8
LAYER_1
 10
124.2920655338340055
 20
79.0264934615064192
 30
0.0
  0
VERTEX
  5
734
  8
LAYER_1
 10
123.1581435338339929
 20
81.2804224615064754
 30
0.0
  0
VERTEX
  5
735
  8
LAYER_1
 10
122.9153125338338981
 20
82.1422274615065078
 30
0.0
  0
VERTEX
  5
736
  8
LAYER_1
 10
122.8714525338341019
 20
82.8347474615064527
 30
0.0
  0
VERTEX
  5
737
  8
LAYER_1
 10
123.0137275338339009
 20
83.3635974615064868
 30
0.0
  0
VERTEX
  5
738
  8
LAYER_1
 10
123.329298533834006
 20
83.7343944615063833
 30
0.0
  0
VERTEX
  5
739
  8
LAYER_1
 10
123.8053305338340948
 20
83.9527544615064585
 30
0.0
  0
VERTEX
  5
73A
  8
LAYER_1
 10
124.4289855338338953
 20
84.024293461506403
 30
0.0
  0
VERTEX
  5
73B
  8
LAYER_1
 10
125.2323585338341019
 20
83.9344344615064983
 30
0.0
  0
VERTEX
  5
73C
  8
LAYER_1
 10
126.0806575338340991
 20
83.6648584615064266
 30
0.0
  0
VERTEX
  5
73D
  8
LAYER_1
 10
126.9417935338343
 20
83.2155674615063958
 30
0.0
  0
VERTEX
  5
73E
  8
LAYER_1
 10
127.7836755338340993
 20
82.5865634615063868
 30
0.0
  0
VERTEX
  5
73F
  8
LAYER_1
 10
128.8266665338344978
 20
81.5499944615064294
 30
0.0
  0
VERTEX
  5
740
  8
LAYER_1
 10
129.6065015338340913
 20
80.3529634615062776
 30
0.0
  0
VERTEX
  5
741
  8
LAYER_1
 10
130.1424395338341071
 20
78.9377044615063852
 30
0.0
  0
VERTEX
  5
742
  8
LAYER_1
 10
130.4537355338339921
 20
77.2464534615064338
 30
0.0
  0
VERTEX
  5
743
  8
LAYER_1
 10
133.4917765338342122
 20
72.4882724615063836
 30
0.0
  0
VERTEX
  5
744
  8
LAYER_1
 10
136.8892555338339889
 20
67.524703461506391
 30
0.0
  0
VERTEX
  5
745
  8
LAYER_1
 10
137.1898505338340897
 20
68.5099324615063949
 30
0.0
  0
VERTEX
  5
746
  8
LAYER_1
 10
137.7535995338338921
 20
68.9881044615064809
 30
0.0
  0
VERTEX
  5
747
  8
LAYER_1
 10
138.5355735338339969
 20
68.9399664615063728
 30
0.0
  0
VERTEX
  5
748
  8
LAYER_1
 10
139.4908455338342037
 20
68.3462634615063394
 30
0.0
  0
VERTEX
  5
749
  8
LAYER_1
 10
140.4685855338341014
 20
67.2519244615063485
 30
0.0
  0
VERTEX
  5
74A
  8
LAYER_1
 10
141.1510765338339866
 20
65.9586174615064635
 30
0.0
  0
VERTEX
  5
74B
  8
LAYER_1
 10
141.5511575338341004
 20
64.5241054615064229
 30
0.0
  0
VERTEX
  5
74C
  8
LAYER_1
 10
141.6816655338340922
 20
63.0061534615063934
 30
0.0
  0
VERTEX
  5
74D
  8
LAYER_1
 10
141.6816355338343953
 20
63.0061234615063626
 30
0.0
  0
VERTEX
  5
74E
  8
LAYER_1
 10
141.4974723984848879
 20
61.5538646455541283
 30
0.0
  0
VERTEX
  5
74F
  8
LAYER_1
 10
143.4299365338341943
 20
58.8985284615063804
 30
0.0
  0
VERTEX
  5
750
  8
LAYER_1
 10
144.5631875338341104
 20
57.7199494615062676
 30
0.0
  0
VERTEX
  5
751
  8
LAYER_1
 10
145.6988445338338067
 20
56.8125474615063411
 30
0.0
  0
VERTEX
  5
752
  8
LAYER_1
 10
146.8104325338339891
 20
56.2292744615062574
 30
0.0
  0
VERTEX
  5
753
  8
LAYER_1
 10
147.8714755338343991
 20
56.0230834615062605
 30
0.0
  0
VERTEX
  5
754
  8
LAYER_1
 10
148.3496445338342085
 20
56.1364754615063504
 30
0.0
  0
VERTEX
  5
755
  8
LAYER_1
 10
148.6673545338342137
 20
56.4680934615062995
 30
0.0
  0
VERTEX
  5
756
  8
LAYER_1
 10
148.8438595338340917
 20
57.0050984615063001
 30
0.0
  0
VERTEX
  5
757
  8
LAYER_1
 10
148.8984155338339974
 20
57.7346534615063334
 30
0.0
  0
VERTEX
  5
758
  8
LAYER_1
 10
148.6502395338339966
 20
59.6088324615063385
 30
0.0
  0
VERTEX
  5
759
  8
LAYER_1
 10
147.9399355338341024
 20
61.8424334615063813
 30
0.0
  0
VERTEX
  5
75A
  8
LAYER_1
 10
146.7546705338345134
 20
64.2739414615063822
 30
0.0
  0
VERTEX
  5
75B
  8
LAYER_1
 10
145.1842995338338937
 20
67.1739974615063318
 30
0.0
  0
VERTEX
  5
75C
  8
LAYER_1
 10
143.588254533834089
 20
70.1125714615063487
 30
0.0
  0
VERTEX
  5
75D
  8
LAYER_1
 10
142.3259655338345908
 20
72.659633461506445
 30
0.0
  0
VERTEX
  5
75E
  8
LAYER_1
 10
141.7644915338343878
 20
73.9187104615063788
 30
0.0
  0
VERTEX
  5
75F
  8
LAYER_1
 10
141.4027895338340954
 20
75.120022461506295
 30
0.0
  0
VERTEX
  5
760
  8
LAYER_1
 10
141.2224075338340867
 20
76.2507324615064306
 30
0.0
  0
VERTEX
  5
761
  8
LAYER_1
 10
141.2048925338341121
 20
77.2980024615064565
 30
0.0
  0
VERTEX
  5
762
  8
LAYER_1
 10
141.3317945338341985
 20
78.2489964615063514
 30
0.0
  0
VERTEX
  5
763
  8
LAYER_1
 10
141.584657533834104
 20
79.0908774615063237
 30
0.0
  0
VERTEX
  5
764
  8
LAYER_1
 10
142.3944655338341079
 20
80.3959534615064229
 30
0.0
  0
VERTEX
  5
765
  8
LAYER_1
 10
143.0534215338340971
 20
80.9468644615063226
 30
0.0
  0
VERTEX
  5
766
  8
LAYER_1
 10
143.7123765338344015
 20
81.0549084615062867
 30
0.0
  0
VERTEX
  5
767
  8
LAYER_1
 10
144.3970065338342863
 20
80.7136644615063403
 30
0.0
  0
VERTEX
  5
768
  8
LAYER_1
 10
145.1329855338343009
 20
79.9167134615062764
 30
0.0
  0
VERTEX
  5
769
  8
LAYER_1
 10
147.3088245338342119
 20
76.5427674615063722
 30
0.0
  0
VERTEX
  5
76A
  8
LAYER_1
 10
149.7542355338341054
 20
72.2317334615062947
 30
0.0
  0
VERTEX
  5
76B
  8
LAYER_1
 10
152.0456045338343927
 20
67.6896394615062889
 30
0.0
  0
VERTEX
  5
76C
  8
LAYER_1
 10
152.8692450224648951
 20
65.7349051766915125
 30
0.0
  0
VERTEX
  5
76D
  8
LAYER_1
 10
152.9692355338339098
 20
65.6079434615063235
 30
0.0
  0
VERTEX
  5
76E
  8
LAYER_1
 10
155.1429325338343119
 20
62.041446461506311
 30
0.0
  0
VERTEX
  5
76F
  8
LAYER_1
 10
156.3581495338341085
 20
60.4306934615062374
 30
0.0
  0
VERTEX
  5
770
  8
LAYER_1
 10
157.62471453383381
 20
59.0012614615063313
 30
0.0
  0
VERTEX
  5
771
  8
LAYER_1
 10
158.9169525338338076
 20
57.8028904615061521
 30
0.0
  0
VERTEX
  5
772
  8
LAYER_1
 10
160.2091915338343995
 20
56.8853264615063097
 30
0.0
  0
VERTEX
  5
773
  8
LAYER_1
 10
161.4757565338341863
 20
56.2983094615062285
 30
0.0
  0
VERTEX
  5
774
  8
LAYER_1
 10
162.6909755338340915
 20
56.0915834615063531
 30
0.0
  0
VERTEX
  5
775
  8
LAYER_1
 10
163.2697025338339074
 20
56.2991114615062713
 30
0.0
  0
VERTEX
  5
776
  8
LAYER_1
 10
163.6751325338341871
 20
56.87890846150637
 30
0.0
  0
VERTEX
  5
777
  8
LAYER_1
 10
163.9136845338339867
 20
57.7667904615063392
 30
0.0
  0
VERTEX
  5
778
  8
LAYER_1
 10
163.9917755338342999
 20
58.8985734615061673
 30
0.0
  0
VERTEX
  5
779
  8
LAYER_1
 10
163.8313155338344131
 20
60.8198144615061693
 30
0.0
  0
VERTEX
  5
77A
  8
LAYER_1
 10
163.3756075338343123
 20
62.9721194615062529
 30
0.0
  0
VERTEX
  5
77B
  8
LAYER_1
 10
162.6631645338339069
 20
65.329814461506146
 30
0.0
  0
VERTEX
  5
77C
  8
LAYER_1
 10
161.7324955338341113
 20
67.8672234615061996
 30
0.0
  0
VERTEX
  5
77D
  8
LAYER_1
 10
159.4190625338343921
 20
69.5635574615062922
 30
0.0
  0
VERTEX
  5
77E
  8
LAYER_1
 10
157.0502705338342082
 20
71.5920464615062144
 30
0.0
  0
VERTEX
  5
77F
  8
LAYER_1
 10
154.7055465338337967
 20
73.9061534615063636
 30
0.0
  0
VERTEX
  5
780
  8
LAYER_1
 10
152.4643185338343017
 20
76.4593434615063074
 30
0.0
  0
VERTEX
  5
781
  8
LAYER_1
 10
150.4060115338338903
 20
79.2050814615062677
 30
0.0
  0
VERTEX
  5
782
  8
LAYER_1
 10
148.6100535338341047
 20
82.0968314615062837
 30
0.0
  0
VERTEX
  5
783
  8
LAYER_1
 10
147.1558725338342128
 20
85.0880564615062553
 30
0.0
  0
VERTEX
  5
784
  8
LAYER_1
 10
146.1228955338341109
 20
88.1322234615062854
 30
0.0
  0
VERTEX
  5
785
  8
LAYER_1
 10
145.7891355338340986
 20
89.6469644615062293
 30
0.0
  0
VERTEX
  5
786
  8
LAYER_1
 10
145.7121155338342078
 20
91.0076634615063256
 30
0.0
  0
VERTEX
  5
787
  8
LAYER_1
 10
145.7122055338342079
 20
91.0076734615062719
 30
0.0
  0
VERTEX
  5
788
  8
LAYER_1
 10
145.8534105338341931
 20
92.3566094615063946
 30
0.0
  0
VERTEX
  5
789
  8
LAYER_1
 10
146.2770245338344068
 20
93.6862884615063365
 30
0.0
  0
VERTEX
  5
78A
  8
LAYER_1
 10
146.9830495338343894
 20
94.926110461506326
 30
0.0
  0
VERTEX
  5
78B
  8
LAYER_1
 10
147.9714855338345956
 20
96.005473461506412
 30
0.0
  0
VERTEX
  5
78C
  8
LAYER_1
 10
148.9363825338340916
 20
96.6334064615063824
 30
0.0
  0
VERTEX
  5
78D
  8
LAYER_1
 10
149.8884455338339023
 20
96.7157774615063204
 30
0.0
  0
VERTEX
  5
78E
  8
LAYER_1
 10
150.8405085338339973
 20
96.3231864615063103
 30
0.0
  0
VERTEX
  5
78F
  8
LAYER_1
 10
151.8054055338340902
 20
95.5262334615062798
 30
0.0
  0
VERTEX
  5
790
  8
LAYER_1
 10
154.3576595338344077
 20
92.6322024615063242
 30
0.0
  0
VERTEX
  5
791
  8
LAYER_1
 10
156.9347845338338061
 20
89.2928974615062856
 30
0.0
  0
VERTEX
  5
792
  8
LAYER_1
 10
159.4653745338341082
 20
85.589348461506205
 30
0.0
  0
VERTEX
  5
793
  8
LAYER_1
 10
161.8780235338340958
 20
81.6025874615063032
 30
0.0
  0
VERTEX
  5
794
  8
LAYER_1
 10
164.1013265338341114
 20
77.4136444615062089
 30
0.0
  0
VERTEX
  5
795
  8
LAYER_1
 10
166.063877533833903
 20
73.1035504615062735
 30
0.0
  0
VERTEX
  5
796
  8
LAYER_1
 10
167.6942725338340949
 20
68.7533364615062226
 30
0.0
  0
VERTEX
  5
797
  8
LAYER_1
 10
168.5751232989981077
 20
65.6593107506940612
 30
0.0
  0
SEQEND
  5
798
  8
LAYER_1
  0
POLYLINE
  5
277
  8
LAYER_1
 66
     1
 10
0.0
 20
0.0
 30
0.0
  0
VERTEX
  5
799
  8
LAYER_1
 10
168.560961533833904
 20
65.6758504615063146
 30
0.0
  0
VERTEX
  5
79A
  8
LAYER_1
 10
169.147175533834087
 20
64.9912034615062737
 30
0.0
  0
VERTEX
  5
79B
  8
LAYER_1
 10
171.1529235338340129
 20
61.7595364615062365
 30
0.0
  0
VERTEX
  5
79C
  8
LAYER_1
 10
173.3319725338344028
 20
58.8552094615062913
 30
0.0
  0
VERTEX
  5
79D
  8
LAYER_1
 10
174.4202945338338111
 20
57.6762294615061393
 30
0.0
  0
VERTEX
  5
79E
  8
LAYER_1
 10
175.4725135338343023
 20
56.7596024615061978
 30
0.0
  0
VERTEX
  5
79F
  8
LAYER_1
 10
176.4621525338340859
 20
56.1654994615061867
 30
0.0
  0
VERTEX
  5
7A0
  8
LAYER_1
 10
177.3627355338342113
 20
55.9540934615061687
 30
0.0
  0
VERTEX
  5
7A1
  8
LAYER_1
 10
177.9414615338340866
 20
56.080322461506249
 30
0.0
  0
VERTEX
  5
7A2
  8
LAYER_1
 10
178.3468875338340069
 20
56.4504494615061603
 30
0.0
  0
VERTEX
  5
7A3
  8
LAYER_1
 10
178.585436533834212
 20
57.0516394615062623
 30
0.0
  0
VERTEX
  5
7A4
  8
LAYER_1
 10
178.6635255338343029
 20
57.8710534615061718
 30
0.0
  0
VERTEX
  5
7A5
  8
LAYER_1
 10
178.5449185338341067
 20
58.9587064615062388
 30
0.0
  0
VERTEX
  5
7A6
  8
LAYER_1
 10
178.2153075338343911
 20
60.1923784615062019
 30
0.0
  0
VERTEX
  5
7A7
  8
LAYER_1
 10
177.0803215338343932
 20
62.9373154615062376
 30
0.0
  0
VERTEX
  5
7A8
  8
LAYER_1
 10
175.5730675338342053
 20
65.7849474615062206
 30
0.0
  0
VERTEX
  5
7A9
  8
LAYER_1
 10
174.0080455338340073
 20
68.4143534615062379
 30
0.0
  0
VERTEX
  5
7AA
  8
LAYER_1
 10
172.3980925338345003
 20
71.2170604615061791
 30
0.0
  0
VERTEX
  5
7AB
  8
LAYER_1
 10
171.1925015338339051
 20
73.6860084615062192
 30
0.0
  0
VERTEX
  5
7AC
  8
LAYER_1
 10
170.4362005338340111
 20
75.8468714615061685
 30
0.0
  0
VERTEX
  5
7AD
  8
LAYER_1
 10
170.1741155338343958
 20
77.725323461506207
 30
0.0
  0
VERTEX
  5
7AE
  8
LAYER_1
 10
170.4308545338340934
 20
79.7107504615061657
 30
0.0
  0
VERTEX
  5
7AF
  8
LAYER_1
 10
170.7517765338340894
 20
80.5365854615062915
 30
0.0
  0
VERTEX
  5
7B0
  8
LAYER_1
 10
171.2010655338343099
 20
81.2854034615061778
 30
0.0
  0
VERTEX
  5
7B1
  8
LAYER_1
 10
171.8621585338341902
 20
81.8951504615061765
 30
0.0
  0
VERTEX
  5
7B2
  8
LAYER_1
 10
172.5874365338345058
 20
82.0042604615061492
 30
0.0
  0
VERTEX
  5
7B3
  8
LAYER_1
 10
173.3383895338338903
 20
81.6512474615062445
 30
0.0
  0
VERTEX
  5
7B4
  8
LAYER_1
 10
174.0765055338345917
 20
80.874623461506161
 30
0.0
  0
VERTEX
  5
7B5
  8
LAYER_1
 10
175.8426385338341049
 20
78.2238214615062759
 30
0.0
  0
VERTEX
  5
7B6
  8
LAYER_1
 10
177.6280265338340882
 20
74.9696934615062389
 30
0.0
  0
VERTEX
  5
7B7
  8
LAYER_1
 10
179.7086615338338902
 20
71.0737304615061873
 30
0.0
  0
VERTEX
  5
7B8
  8
LAYER_1
 10
182.3605355338341099
 20
66.4974234615062585
 30
0.0
  0
VERTEX
  5
7B9
  8
LAYER_1
 10
184.97389553383411
 20
62.6035944615061624
 30
0.0
  0
VERTEX
  5
7BA
  8
LAYER_1
 10
187.4524695338342042
 20
59.3772834615061313
 30
0.0
  0
VERTEX
  5
7BB
  8
LAYER_1
 10
189.6101245338342096
 20
57.1779174615062118
 30
0.0
  0
VERTEX
  5
7BC
  8
LAYER_1
 10
190.5104395338341021
 20
56.5756604615062031
 30
0.0
  0
VERTEX
  5
7BD
  8
LAYER_1
 10
191.2607255338340053
 20
56.3649234615060806
 30
0.0
  0
VERTEX
  5
7BE
  8
LAYER_1
 10
191.7466535338342055
 20
56.4791184615061965
 30
0.0
  0
VERTEX
  5
7BF
  8
LAYER_1
 10
192.0801445338337885
 20
56.8035154615060733
 30
0.0
  0
VERTEX
  5
7C0
  8
LAYER_1
 10
192.269219533834189
 20
57.3108384615061013
 30
0.0
  0
VERTEX
  5
7C1
  8
LAYER_1
 10
192.3219045338342141
 20
57.9738084615062021
 30
0.0
  0
VERTEX
  5
7C2
  8
LAYER_1
 10
192.0501905338342112
 20
59.657573461506189
 30
0.0
  0
VERTEX
  5
7C3
  8
LAYER_1
 10
191.3291855338339928
 20
61.6365834615061985
 30
0.0
  0
VERTEX
  5
7C4
  8
LAYER_1
 10
189.16297153383411
 20
65.9690124615061393
 30
0.0
  0
VERTEX
  5
7C5
  8
LAYER_1
 10
186.7336065338340916
 20
70.5710144615060955
 30
0.0
  0
VERTEX
  5
7C6
  8
LAYER_1
 10
184.7535305338344926
 20
74.7108764615061034
 30
0.0
  0
VERTEX
  5
7C7
  8
LAYER_1
 10
184.1546145338338079
 20
76.3788434615061647
 30
0.0
  0
VERTEX
  5
7C8
  8
LAYER_1
 10
183.9351855338341863
 20
77.6568834615061121
 30
0.0
  0
VERTEX
  5
7C9
  8
LAYER_1
 10
184.1662515338339858
 20
79.257200461506244
 30
0.0
  0
VERTEX
  5
7CA
  8
LAYER_1
 10
184.4839645338346088
 20
80.0541514615061374
 30
0.0
  0
VERTEX
  5
7CB
  8
LAYER_1
 10
184.9621355338341004
 20
80.8061734615061766
 30
0.0
  0
VERTEX
  5
7CC
  8
LAYER_1
 10
185.6435585338340104
 20
81.4030884615061154
 30
0.0
  0
VERTEX
  5
7CD
  8
LAYER_1
 10
186.4084185338340944
 20
81.6277344615061367
 30
0.0
  0
VERTEX
  5
7CE
  8
LAYER_1
 10
187.1861145338338872
 20
81.4416004615061127
 30
0.0
  0
VERTEX
  5
7CF
  8
LAYER_1
 10
187.9060455338340887
 20
80.8061734615061766
 30
0.0
  0
VERTEX
  5
7D0
  8
LAYER_1
 10
190.929110533833807
 20
76.2255694615061827
 30
0.0
  0
VERTEX
  5
7D1
  8
LAYER_1
 10
193.5542365338341995
 20
71.6321304615061933
 30
0.0
  0
VERTEX
  5
7D2
  8
LAYER_1
 10
195.6658915338340989
 20
67.3467884615060655
 30
0.0
  0
VERTEX
  5
7D3
  8
LAYER_1
 10
196.7722404044299083
 20
64.6184648129736274
 30
0.0
  0
VERTEX
  5
7D4
  8
LAYER_1
 10
198.7101505338341099
 20
62.0203134615060989
 30
0.0
  0
VERTEX
  5
7D5
  8
LAYER_1
 10
200.1367745338341138
 20
60.454490461506083
 30
0.0
  0
VERTEX
  5
7D6
  8
LAYER_1
 10
201.6893605338343036
 20
59.0186404615061093
 30
0.0
  0
VERTEX
  5
7D7
  8
LAYER_1
 10
203.3542695338346107
 20
57.7817614615060791
 30
0.0
  0
VERTEX
  5
7D8
  8
LAYER_1
 10
205.1178625338338861
 20
56.8128504615061374
 30
0.0
  0
VERTEX
  5
7D9
  8
LAYER_1
 10
206.9665005338341928
 20
56.18090446150606
 30
0.0
  0
VERTEX
  5
7DA
  8
LAYER_1
 10
208.8865435338341001
 20
55.9549234615061124
 30
0.0
  0
VERTEX
  5
7DB
  8
LAYER_1
 10
209.6174395338341867
 20
56.052001461506137
 30
0.0
  0
VERTEX
  5
7DC
  8
LAYER_1
 10
210.2665005338342041
 20
56.333608461506131
 30
0.0
  0
VERTEX
  5
7DD
  8
LAYER_1
 10
210.8289125338345116
 20
56.7853034615061176
 30
0.0
  0
VERTEX
  5
7DE
  8
LAYER_1
 10
211.2998625338343004
 20
57.3926444615060092
 30
0.0
  0
VERTEX
  5
7DF
  8
LAYER_1
 10
211.9481195338341024
 20
59.0164994615060721
 30
0.0
  0
VERTEX
  5
7E0
  8
LAYER_1
 10
212.1727635338338871
 20
61.0896434615060215
 30
0.0
  0
VERTEX
  5
7E1
  8
LAYER_1
 10
212.0187215338343947
 20
63.0579584615060895
 30
0.0
  0
VERTEX
  5
7E2
  8
LAYER_1
 10
211.5565965338342096
 20
65.1289634615061033
 30
0.0
  0
VERTEX
  5
7E3
  8
LAYER_1
 10
210.363842533834088
 20
64.4603764615061152
 30
0.0
  0
VERTEX
  5
7E4
  8
LAYER_1
 10
209.1518335338342069
 20
63.9907624615061295
 30
0.0
  0
VERTEX
  5
7E5
  8
LAYER_1
 10
207.9269895338339893
 20
63.7137004615061215
 30
0.0
  0
VERTEX
  5
7E6
  8
LAYER_1
 10
206.6957265338344882
 20
63.6227734615060498
 30
0.0
  0
VERTEX
  5
7E7
  8
LAYER_1
 10
205.583704533834009
 20
63.7045074615061466
 30
0.0
  0
VERTEX
  5
7E8
  8
LAYER_1
 10
204.50999153383421
 20
63.9396824615060666
 30
0.0
  0
VERTEX
  5
7E9
  8
LAYER_1
 10
202.4959455338338898
 20
64.8101794615060669
 30
0.0
  0
VERTEX
  5
7EA
  8
LAYER_1
 10
200.6904955338343939
 20
66.1139194615061285
 30
0.0
  0
VERTEX
  5
7EB
  8
LAYER_1
 10
199.130548533834002
 20
67.7305554615060998
 30
0.0
  0
VERTEX
  5
7EC
  8
LAYER_1
 10
197.8530115338340067
 20
69.539745461506044
 30
0.0
  0
VERTEX
  5
7ED
  8
LAYER_1
 10
196.894791533834109
 20
71.4211414615061528
 30
0.0
  0
VERTEX
  5
7EE
  8
LAYER_1
 10
196.2927935338341001
 20
73.2543994615061536
 30
0.0
  0
VERTEX
  5
7EF
  8
LAYER_1
 10
196.0839265338341022
 20
74.9191734615062046
 30
0.0
  0
VERTEX
  5
7F0
  8
LAYER_1
 10
196.0839755338338932
 20
74.9191534615061414
 30
0.0
  0
SEQEND
  5
7F1
  8
LAYER_1
  0
POLYLINE
  5
278
  8
LAYER_1
 66
     1
 10
0.0
 20
0.0
 30
0.0
 70
     1
  0
VERTEX
  5
7F2
  8
LAYER_1
 10
201.0357805338339006
 20
77.3108114615060629
 30
0.0
  0
VERTEX
  5
7F3
  8
LAYER_1
 10
201.038990533833811
 20
76.7569554615060383
 30
0.0
  0
VERTEX
  5
7F4
  8
LAYER_1
 10
201.5267895338340054
 20
75.1758874615061075
 30
0.0
  0
VERTEX
  5
7F5
  8
LAYER_1
 10
202.5280615338344035
 20
73.2097144615060529
 30
0.0
  0
VERTEX
  5
7F6
  8
LAYER_1
 10
203.8887655338340039
 20
71.1536834615060911
 30
0.0
  0
VERTEX
  5
7F7
  8
LAYER_1
 10
205.0483565338340952
 20
69.7640994615061061
 30
0.0
  0
VERTEX
  5
7F8
  8
LAYER_1
 10
206.3876635338343988
 20
68.5093014615060554
 30
0.0
  0
VERTEX
  5
7F9
  8
LAYER_1
 10
207.7783185338338967
 20
67.6010964615061027
 30
0.0
  0
VERTEX
  5
7FA
  8
LAYER_1
 10
208.4527865338341996
 20
67.3431564615061404
 30
0.0
  0
VERTEX
  5
7FB
  8
LAYER_1
 10
209.0919555338340956
 20
67.2512934615060374
 30
0.0
  0
VERTEX
  5
7FC
  8
LAYER_1
 10
209.8193755338340054
 20
67.362547461506054
 30
0.0
  0
VERTEX
  5
7FD
  8
LAYER_1
 10
210.5981455338344119
 20
67.7305334615061554
 30
0.0
  0
VERTEX
  5
7FE
  8
LAYER_1
 10
209.2937395338340991
 20
70.0777994615061175
 30
0.0
  0
VERTEX
  5
7FF
  8
LAYER_1
 10
207.8906505338341901
 20
72.1699334615061332
 30
0.0
  0
VERTEX
  5
800
  8
LAYER_1
 10
206.4570735338340057
 20
73.9764484615061235
 30
0.0
  0
VERTEX
  5
801
  8
LAYER_1
 10
205.0612045338342
 20
75.4668574615061232
 30
0.0
  0
VERTEX
  5
802
  8
LAYER_1
 10
203.7712385338342074
 20
76.6106714615061151
 30
0.0
  0
VERTEX
  5
803
  8
LAYER_1
 10
202.6553715338343125
 20
77.3774044615060745
 30
0.0
  0
VERTEX
  5
804
  8
LAYER_1
 10
201.7817985338344045
 20
77.736567461506155
 30
0.0
  0
VERTEX
  5
805
  8
LAYER_1
 10
201.2187155338343985
 20
77.6576734615061639
 30
0.0
  0
VERTEX
  5
806
  8
LAYER_1
 10
201.2187055338339974
 20
77.6576734615061639
 30
0.0
  0
SEQEND
  5
807
  8
LAYER_1
  0
POLYLINE
  5
279
  8
LAYER_1
 66
     1
 10
0.0
 20
0.0
 30
0.0
 70
     1
  0
VERTEX
  5
808
  8
LAYER_1
 10
219.4736835338341905
 20
70.4742044615061047
 30
0.0
  0
VERTEX
  5
809
  8
LAYER_1
 10
220.1127155338340913
 20
71.1132364615060339
 30
0.0
  0
VERTEX
  5
80A
  8
LAYER_1
 10
220.876104533834507
 20
71.6583994615060078
 30
0.0
  0
VERTEX
  5
80B
  8
LAYER_1
 10
221.77107153383389
 20
72.0976594615060264
 30
0.0
  0
VERTEX
  5
80C
  8
LAYER_1
 10
222.804836533834191
 20
72.4189814615060357
 30
0.0
  0
VERTEX
  5
80D
  8
LAYER_1
 10
223.9846215338340016
 20
72.6103304615059812
 30
0.0
  0
VERTEX
  5
80E
  8
LAYER_1
 10
225.3176455338343942
 20
72.6596734615060029
 30
0.0
  0
VERTEX
  5
80F
  8
LAYER_1
 10
228.4669435338342112
 20
72.4114944615059528
 30
0.0
  0
VERTEX
  5
810
  8
LAYER_1
 10
231.8216355338340975
 20
71.90658346150596
 30
0.0
  0
VERTEX
  5
811
  8
LAYER_1
 10
235.7496995338343879
 20
71.2390624615059949
 30
0.0
  0
VERTEX
  5
812
  8
LAYER_1
 10
239.8318055338341992
 20
70.8796334615059891
 30
0.0
  0
VERTEX
  5
813
  8
LAYER_1
 10
240.6704785338341992
 20
70.7566144615059045
 30
0.0
  0
VERTEX
  5
814
  8
LAYER_1
 10
241.1497205338341985
 20
70.4089514615058931
 30
0.0
  0
VERTEX
  5
815
  8
LAYER_1
 10
241.2952055338342063
 20
69.8687364615059039
 30
0.0
  0
VERTEX
  5
816
  8
LAYER_1
 10
241.1326055338342087
 20
69.1680634615058239
 30
0.0
  0
VERTEX
  5
817
  8
LAYER_1
 10
240.6748945338339922
 20
68.4003934615058853
 30
0.0
  0
VERTEX
  5
818
  8
LAYER_1
 10
240.0767795338346104
 20
67.6993144615059634
 30
0.0
  0
VERTEX
  5
819
  8
LAYER_1
 10
239.3454825338342005
 20
67.0800704615059828
 30
0.0
  0
VERTEX
  5
81A
  8
LAYER_1
 10
238.4882235338342014
 20
66.5579064615059792
 30
0.0
  0
VERTEX
  5
81B
  8
LAYER_1
 10
237.5122225338342048
 20
66.1480644615059816
 30
0.0
  0
VERTEX
  5
81C
  8
LAYER_1
 10
236.4247025338341075
 20
65.8657894615059547
 30
0.0
  0
VERTEX
  5
81D
  8
LAYER_1
 10
235.2328835338340127
 20
65.7263244615059818
 30
0.0
  0
VERTEX
  5
81E
  8
LAYER_1
 10
233.943985533834109
 20
65.7449134615060018
 30
0.0
  0
VERTEX
  5
81F
  8
LAYER_1
 10
229.1515755338342046
 20
66.4295434615059719
 30
0.0
  0
VERTEX
  5
820
  8
LAYER_1
 10
230.4296405338344016
 20
64.279108461505956
 30
0.0
  0
VERTEX
  5
821
  8
LAYER_1
 10
231.8280505338339026
 20
62.3581314615059483
 30
0.0
  0
VERTEX
  5
822
  8
LAYER_1
 10
233.3131095338343073
 20
60.6842644615059825
 30
0.0
  0
VERTEX
  5
823
  8
LAYER_1
 10
234.8511215338342026
 20
59.2751574615060335
 30
0.0
  0
VERTEX
  5
824
  8
LAYER_1
 10
236.4083905338341083
 20
58.1484604615059908
 30
0.0
  0
VERTEX
  5
825
  8
LAYER_1
 10
237.951220533834487
 20
57.3218234615059785
 30
0.0
  0
VERTEX
  5
826
  8
LAYER_1
 10
239.4459135338339024
 20
56.8128974615060116
 30
0.0
  0
VERTEX
  5
827
  8
LAYER_1
 10
240.858775533834006
 20
56.6393334615058492
 30
0.0
  0
VERTEX
  5
828
  8
LAYER_1
 10
241.6554615338341989
 20
56.7261154615059411
 30
0.0
  0
VERTEX
  5
829
  8
LAYER_1
 10
242.3927765338341089
 20
56.9998324615059602
 30
0.0
  0
VERTEX
  5
82A
  8
LAYER_1
 10
243.0562785338337903
 20
57.4805434615058815
 30
0.0
  0
VERTEX
  5
82B
  8
LAYER_1
 10
243.6315285338341994
 20
58.1883064615060093
 30
0.0
  0
VERTEX
  5
82C
  8
LAYER_1
 10
244.1040825338342017
 20
59.1431774615059069
 30
0.0
  0
VERTEX
  5
82D
  8
LAYER_1
 10
244.4595015338342137
 20
60.3652154615059118
 30
0.0
  0
VERTEX
  5
82E
  8
LAYER_1
 10
244.6833425338342067
 20
61.8744784615059515
 30
0.0
  0
VERTEX
  5
82F
  8
LAYER_1
 10
244.7611655338342018
 20
63.691023461505857
 30
0.0
  0
VERTEX
  5
830
  8
LAYER_1
 10
244.5012195338339893
 20
67.220078461505949
 30
0.0
  0
VERTEX
  5
831
  8
LAYER_1
 10
243.6571985338341904
 20
71.1278224615059287
 30
0.0
  0
VERTEX
  5
832
  8
LAYER_1
 10
242.9860725338338909
 20
73.1735574615058511
 30
0.0
  0
VERTEX
  5
833
  8
LAYER_1
 10
242.132825533834108
 20
75.2537914615058696
 30
0.0
  0
VERTEX
  5
834
  8
LAYER_1
 10
241.0854205338341956
 20
77.3484664615059216
 30
0.0
  0
VERTEX
  5
835
  8
LAYER_1
 10
239.8318255338342055
 20
79.4375234615058332
 30
0.0
  0
VERTEX
  5
836
  8
LAYER_1
 10
237.3528505338341859
 20
82.782453461506023
 30
0.0
  0
VERTEX
  5
837
  8
LAYER_1
 10
234.6339895338342103
 20
85.7478984615059687
 30
0.0
  0
VERTEX
  5
838
  8
LAYER_1
 10
231.8204585338341985
 20
88.2817054615059931
 30
0.0
  0
VERTEX
  5
839
  8
LAYER_1
 10
229.0574745338342098
 20
90.3317264615060083
 30
0.0
  0
VERTEX
  5
83A
  8
LAYER_1
 10
226.4902525338339103
 20
91.8458084615060386
 30
0.0
  0
VERTEX
  5
83B
  8
LAYER_1
 10
224.2640095338340984
 20
92.7718024615059562
 30
0.0
  0
VERTEX
  5
83C
  8
LAYER_1
 10
222.5239615338342105
 20
93.0575574615060646
 30
0.0
  0
VERTEX
  5
83D
  8
LAYER_1
 10
221.8816415338343973
 20
92.9440484615060711
 30
0.0
  0
VERTEX
  5
83E
  8
LAYER_1
 10
221.4153255338345048
 20
92.6509234615060393
 30
0.0
  0
VERTEX
  5
83F
  8
LAYER_1
 10
221.1999075338341072
 20
92.3103474615060975
 30
0.0
  0
VERTEX
  5
840
  8
LAYER_1
 10
221.1168705338344012
 20
91.8389974615060538
 30
0.0
  0
VERTEX
  5
841
  8
LAYER_1
 10
221.3383055338341876
 20
90.4173224615060036
 30
0.0
  0
VERTEX
  5
842
  8
LAYER_1
 10
222.0603765338341873
 20
88.2126004615060708
 30
0.0
  0
VERTEX
  5
843
  8
LAYER_1
 10
223.2638255338345914
 20
85.0515334615060539
 30
0.0
  0
VERTEX
  5
844
  8
LAYER_1
 10
223.7772985338345109
 20
83.3228424615060135
 30
0.0
  0
VERTEX
  5
845
  8
LAYER_1
 10
223.8799925338340984
 20
82.1076234615061082
 30
0.0
  0
VERTEX
  5
846
  8
LAYER_1
 10
223.6778125338344978
 20
80.6506464615060565
 30
0.0
  0
VERTEX
  5
847
  8
LAYER_1
 10
223.1354575338341135
 20
79.4375684615060607
 30
0.0
  0
VERTEX
  5
848
  8
LAYER_1
 10
222.3492025338341023
 20
78.4298774615060381
 30
0.0
  0
VERTEX
  5
849
  8
LAYER_1
 10
221.4153225338343987
 20
77.5890634615061288
 30
0.0
  0
VERTEX
  5
84A
  8
LAYER_1
 10
220.5295815338344028
 20
77.1162434615059169
 30
0.0
  0
VERTEX
  5
84B
  8
LAYER_1
 10
219.8235575338341903
 20
77.1440584615060629
 30
0.0
  0
VERTEX
  5
84C
  8
LAYER_1
 10
219.2972485338341073
 20
77.5313034615059564
 30
0.0
  0
VERTEX
  5
84D
  8
LAYER_1
 10
218.9506525338341021
 20
78.1367734615059533
 30
0.0
  0
VERTEX
  5
84E
  8
LAYER_1
 10
216.3490625338341999
 20
84.5722934615059643
 30
0.0
  0
VERTEX
  5
84F
  8
LAYER_1
 10
215.6729905338337971
 20
86.5748364615059955
 30
0.0
  0
VERTEX
  5
850
  8
LAYER_1
 10
215.4590435338342047
 20
88.2692934615060381
 30
0.0
  0
VERTEX
  5
851
  8
LAYER_1
 10
215.6494565338340124
 20
89.8781734615060373
 30
0.0
  0
VERTEX
  5
852
  8
LAYER_1
 10
216.3148305338345097
 20
91.7951374615060729
 30
0.0
  0
VERTEX
  5
853
  8
LAYER_1
 10
216.8697545338341968
 20
92.8049664615059982
 30
0.0
  0
VERTEX
  5
854
  8
LAYER_1
 10
217.5963715338340876
 20
93.8147964615060914
 30
0.0
  0
VERTEX
  5
855
  8
LAYER_1
 10
218.51233053383379
 20
94.7989534615059739
 30
0.0
  0
VERTEX
  5
856
  8
LAYER_1
 10
219.6352835338340981
 20
95.7317634615059774
 30
0.0
  0
VERTEX
  5
857
  8
LAYER_1
 10
220.6033935338344065
 20
96.2816044615059639
 30
0.0
  0
VERTEX
  5
858
  8
LAYER_1
 10
221.7319635338342039
 20
96.6902444615060972
 30
0.0
  0
VERTEX
  5
859
  8
LAYER_1
 10
222.9760635338340933
 20
96.9448434615059682
 30
0.0
  0
VERTEX
  5
85A
  8
LAYER_1
 10
224.2907635338343937
 20
97.0325634615059869
 30
0.0
  0
VERTEX
  5
85B
  8
LAYER_1
 10
226.6099485338345971
 20
96.8785194615059879
 30
0.0
  0
VERTEX
  5
85C
  8
LAYER_1
 10
229.2885635338340933
 20
96.2110034615060101
 30
0.0
  0
VERTEX
  5
85D
  8
LAYER_1
 10
230.8064335338341095
 20
95.5921274615060099
 30
0.0
  0
VERTEX
  5
85E
  8
LAYER_1
 10
232.439332533834488
 20
94.7451974615059385
 30
0.0
  0
VERTEX
  5
85F
  8
LAYER_1
 10
235.9326825338341109
 20
92.4177184615058849
 30
0.0
  0
VERTEX
  5
860
  8
LAYER_1
 10
239.5335415338342102
 20
89.3296574615060024
 30
0.0
  0
VERTEX
  5
861
  8
LAYER_1
 10
241.3008255338343986
 20
87.5320004615059446
 30
0.0
  0
VERTEX
  5
862
  8
LAYER_1
 10
243.0068335338343957
 20
85.5821064615058447
 30
0.0
  0
VERTEX
  5
863
  8
LAYER_1
 10
244.6221815338342935
 20
83.4926114615058736
 30
0.0
  0
VERTEX
  5
864
  8
LAYER_1
 10
246.1174855338342127
 20
81.276153461506027
 30
0.0
  0
VERTEX
  5
865
  8
LAYER_1
 10
247.4633615338341883
 20
78.9453684615059217
 30
0.0
  0
VERTEX
  5
866
  8
LAYER_1
 10
248.6304245338345993
 20
76.5128914615058591
 30
0.0
  0
VERTEX
  5
867
  8
LAYER_1
 10
249.5892895338338917
 20
73.9913604615059626
 30
0.0
  0
VERTEX
  5
868
  8
LAYER_1
 10
250.3105745338341137
 20
71.3934114615058775
 30
0.0
  0
VERTEX
  5
869
  8
LAYER_1
 10
250.7648935338339982
 20
68.7316804615058743
 30
0.0
  0
VERTEX
  5
86A
  8
LAYER_1
 10
250.9228635338342031
 20
66.0188034615059252
 30
0.0
  0
VERTEX
  5
86B
  8
LAYER_1
 10
250.8236455338343944
 20
64.0042254615059107
 30
0.0
  0
VERTEX
  5
86C
  8
LAYER_1
 10
250.5398985338341902
 20
62.2126884615058415
 30
0.0
  0
VERTEX
  5
86D
  8
LAYER_1
 10
250.0924815338339897
 20
60.6297494615059378
 30
0.0
  0
VERTEX
  5
86E
  8
LAYER_1
 10
249.5022545338345878
 20
59.2409684615058225
 30
0.0
  0
VERTEX
  5
86F
  8
LAYER_1
 10
248.7900785338341905
 20
58.0319044615059383
 30
0.0
  0
VERTEX
  5
870
  8
LAYER_1
 10
247.9768135338339903
 20
56.9881164615059888
 30
0.0
  0
VERTEX
  5
871
  8
LAYER_1
 10
246.1304535338342134
 20
55.338603461505933
 30
0.0
  0
VERTEX
  5
872
  8
LAYER_1
 10
244.5023185338341989
 20
54.3031004615058492
 30
0.0
  0
VERTEX
  5
873
  8
LAYER_1
 10
242.8099975338342915
 20
53.6270274615060032
 30
0.0
  0
VERTEX
  5
874
  8
LAYER_1
 10
241.0663295338339935
 20
53.2590364615059073
 30
0.0
  0
VERTEX
  5
875
  8
LAYER_1
 10
239.2841535338340009
 20
53.1477834615058882
 30
0.0
  0
VERTEX
  5
876
  8
LAYER_1
 10
236.6226535338344092
 20
53.3702914615059498
 30
0.0
  0
VERTEX
  5
877
  8
LAYER_1
 10
234.217893533834598
 20
53.9008834615060195
 30
0.0
  0
VERTEX
  5
878
  8
LAYER_1
 10
232.7121105338343057
 20
54.4915094615059488
 30
0.0
  0
VERTEX
  5
879
  8
LAYER_1
 10
230.9263265338341
 20
55.5065534615059519
 30
0.0
  0
VERTEX
  5
87A
  8
LAYER_1
 10
229.0298255338340994
 20
56.8890494615059978
 30
0.0
  0
VERTEX
  5
87B
  8
LAYER_1
 10
227.1918895338341997
 20
58.5820344615060336
 30
0.0
  0
VERTEX
  5
87C
  8
LAYER_1
 10
225.5818045338345996
 20
60.5285444615060015
 30
0.0
  0
VERTEX
  5
87D
  8
LAYER_1
 10
224.3688545338341953
 20
62.6716154615059722
 30
0.0
  0
VERTEX
  5
87E
  8
LAYER_1
 10
223.9642065338339876
 20
63.7990594615060473
 30
0.0
  0
VERTEX
  5
87F
  8
LAYER_1
 10
223.7223225338341024
 20
64.9542834615060229
 30
0.0
  0
VERTEX
  5
880
  8
LAYER_1
 10
223.6643655338340864
 20
66.1301644615060411
 30
0.0
  0
VERTEX
  5
881
  8
LAYER_1
 10
223.8114935338342093
 20
67.3195834615059709
 30
0.0
  0
VERTEX
  5
882
  8
LAYER_1
 10
221.7148135338339898
 20
67.4308434615061003
 30
0.0
  0
VERTEX
  5
883
  8
LAYER_1
 10
219.9775635338343989
 20
67.3880834615060564
 30
0.0
  0
VERTEX
  5
884
  8
LAYER_1
 10
218.886436533834086
 20
67.4319404615059454
 30
0.0
  0
VERTEX
  5
885
  8
LAYER_1
 10
218.3858015338344103
 20
67.7389534615060143
 30
0.0
  0
VERTEX
  5
886
  8
LAYER_1
 10
218.3216165338342023
 20
68.2641944615060936
 30
0.0
  0
VERTEX
  5
887
  8
LAYER_1
 10
218.539843533833988
 20
68.9627334615060761
 30
0.0
  0
VERTEX
  5
888
  8
LAYER_1
 10
218.5398055338341976
 20
68.9626734615060002
 30
0.0
  0
SEQEND
  5
889
  8
LAYER_1
  0
CIRCLE
  5
27A
  8
0
  6
CONTINUOUS
 62
     3
 10
17.0171086105995784
 20
320.6750932266057248
 30
0.0
 40
0.9
  0
CIRCLE
  5
27B
  8
0
  6
CONTINUOUS
 62
     3
 10
17.0192468350984001
 20
325.176105429654001
 30
0.0
 40
0.9
  0
CIRCLE
  5
27C
  8
0
  6
CONTINUOUS
 62
     3
 10
17.0192473860917808
 20
329.674998129378821
 30
0.0
 40
0.9
  0
ENDSEC
  0
EOF
