  0
SECTION
  2
HEADER
  9
$ACADVER
  1
AC1009
  9
$INSBASE
 10
0.0
 20
0.0
 30
0.0
  9
$EXTMIN
 10
11.0121948206462204
 20
14.7467730983784193
 30
0.0
  9
$EXTMAX
 10
360.8509448206467027
 20
140.7888926612712055
 30
0.0
  9
$LIMMIN
 10
0.0
 20
0.0
  9
$LIMMAX
 10
12.0
 20
9.0
  9
$ORTHOMODE
 70
     0
  9
$REGENMODE
 70
     1
  9
$FILLMODE
 70
     1
  9
$QTEXTMODE
 70
     0
  9
$MIRRTEXT
 70
     0
  9
$DRAGMODE
 70
     2
  9
$LTSCALE
 40
1.0
  9
$OSMODE
 70
  2047
  9
$ATTMODE
 70
     1
  9
$TEXTSIZE
 40
0.2
  9
$TRACEWID
 40
0.05
  9
$TEXTSTYLE
  7
STANDARD
  9
$CLAYER
  8
0
  9
$CELTYPE
  6
BYLAYER
  9
$CECOLOR
 62
   256
  9
$DIMSCALE
 40
1.0
  9
$DIMASZ
 40
0.18
  9
$DIMEXO
 40
0.0625
  9
$DIMDLI
 40
0.38
  9
$DIMRND
 40
0.0
  9
$DIMDLE
 40
0.0
  9
$DIMEXE
 40
0.18
  9
$DIMTP
 40
0.0
  9
$DIMTM
 40
0.0
  9
$DIMTXT
 40
0.18
  9
$DIMCEN
 40
0.09
  9
$DIMTSZ
 40
0.0
  9
$DIMTOL
 70
     0
  9
$DIMLIM
 70
     0
  9
$DIMTIH
 70
     1
  9
$DIMTOH
 70
     1
  9
$DIMSE1
 70
     0
  9
$DIMSE2
 70
     0
  9
$DIMTAD
 70
     0
  9
$DIMZIN
 70
     0
  9
$DIMBLK
  1

  9
$DIMASO
 70
     1
  9
$DIMSHO
 70
     1
  9
$DIMPOST
  1

  9
$DIMAPOST
  1

  9
$DIMALT
 70
     0
  9
$DIMALTD
 70
     2
  9
$DIMALTF
 40
25.3999999999999986
  9
$DIMLFAC
 40
1.0
  9
$DIMTOFL
 70
     0
  9
$DIMTVP
 40
0.0
  9
$DIMTIX
 70
     0
  9
$DIMSOXD
 70
     0
  9
$DIMSAH
 70
     0
  9
$DIMBLK1
  1

  9
$DIMBLK2
  1

  9
$DIMSTYLE
  2
STANDARD
  9
$DIMCLRD
 70
     0
  9
$DIMCLRE
 70
     0
  9
$DIMCLRT
 70
     0
  9
$DIMTFAC
 40
1.0
  9
$DIMGAP
 40
0.09
  9
$LUNITS
 70
     2
  9
$LUPREC
 70
     4
  9
$SKETCHINC
 40
0.1
  9
$FILLETRAD
 40
0.0
  9
$AUNITS
 70
     0
  9
$AUPREC
 70
     0
  9
$MENU
  1
.
  9
$ELEVATION
 40
0.0
  9
$PELEVATION
 40
0.0
  9
$THICKNESS
 40
0.0
  9
$LIMCHECK
 70
     0
  9
$BLIPMODE
 70
     0
  9
$CHAMFERA
 40
0.0
  9
$CHAMFERB
 40
0.0
  9
$SKPOLY
 70
     0
  9
$TDCREATE
 40
2459393.0943634258583188
  9
$TDUPDATE
 40
2459411.3749189819209278
  9
$TDINDWG
 40
0.0008101852
  9
$TDUSRTIMER
 40
0.0008101852
  9
$USRTIMER
 70
     1
  9
$ANGBASE
 50
0.0
  9
$ANGDIR
 70
     0
  9
$PDMODE
 70
     0
  9
$PDSIZE
 40
0.0
  9
$PLINEWID
 40
0.0
  9
$COORDS
 70
     1
  9
$SPLFRAME
 70
     0
  9
$SPLINETYPE
 70
     6
  9
$SPLINESEGS
 70
     8
  9
$ATTDIA
 70
     1
  9
$ATTREQ
 70
     1
  9
$HANDLING
 70
     1
  9
$HANDSEED
  5
137A
  9
$SURFTAB1
 70
     6
  9
$SURFTAB2
 70
     6
  9
$SURFTYPE
 70
     6
  9
$SURFU
 70
     6
  9
$SURFV
 70
     6
  9
$UCSNAME
  2

  9
$UCSORG
 10
0.0
 20
0.0
 30
0.0
  9
$UCSXDIR
 10
1.0
 20
0.0
 30
0.0
  9
$UCSYDIR
 10
0.0
 20
1.0
 30
0.0
  9
$PUCSNAME
  2

  9
$PUCSORG
 10
0.0
 20
0.0
 30
0.0
  9
$PUCSXDIR
 10
1.0
 20
0.0
 30
0.0
  9
$PUCSYDIR
 10
0.0
 20
1.0
 30
0.0
  9
$USERI1
 70
     0
  9
$USERI2
 70
     0
  9
$USERI3
 70
     0
  9
$USERI4
 70
     0
  9
$USERI5
 70
     0
  9
$USERR1
 40
0.0
  9
$USERR2
 40
0.0
  9
$USERR3
 40
0.0
  9
$USERR4
 40
0.0
  9
$USERR5
 40
0.0
  9
$WORLDVIEW
 70
     1
  9
$SHADEDGE
 70
     3
  9
$SHADEDIF
 70
    70
  9
$TILEMODE
 70
     1
  9
$MAXACTVP
 70
    64
  9
$PLIMCHECK
 70
     0
  9
$PEXTMIN
 10
0.0
 20
0.0
 30
0.0
  9
$PEXTMAX
 10
0.0
 20
0.0
 30
0.0
  9
$PLIMMIN
 10
0.0
 20
0.0
  9
$PLIMMAX
 10
12.0
 20
9.0
  9
$UNITMODE
 70
     0
  9
$VISRETAIN
 70
     1
  9
$PLINEGEN
 70
     0
  9
$PSLTSCALE
 70
     1
  0
ENDSEC
  0
SECTION
  2
TABLES
  0
TABLE
  2
VPORT
 70
     1
  0
VPORT
  2
*ACTIVE
 70
     0
 10
0.0
 20
0.0
 11
1.0
 21
1.0
 12
173.3425794989288988
 22
5.6844660857912848
 13
0.0
 23
0.0
 14
0.5
 24
0.5
 15
0.5
 25
0.5
 16
0.0
 26
0.0
 36
1.0
 17
0.0
 27
0.0
 37
0.0
 40
334.0156114801561102
 41
1.8711111111111101
 42
50.0
 43
0.0
 44
0.0
 50
0.0
 51
0.0
 71
     0
 72
  1000
 73
     1
 74
     3
 75
     0
 76
     1
 77
     0
 78
     0
  0
ENDTAB
  0
TABLE
  2
LTYPE
 70
     1
  0
LTYPE
  2
CONTINUOUS
 70
     0
  3
Solid line
 72
    65
 73
     0
 40
0.0
  0
ENDTAB
  0
TABLE
  2
LAYER
 70
     1
  0
LAYER
  2
0
 70
     0
 62
     7
  6
CONTINUOUS
  0
ENDTAB
  0
TABLE
  2
STYLE
 70
     2
  0
STYLE
  2
STANDARD
 70
     0
 40
0.0
 41
1.0
 50
0.0
 71
     0
 42
0.2
  3
txt
  4

  0
STYLE
  2
ANNOTATIVE
 70
     0
 40
0.0
 41
1.0
 50
0.0
 71
     0
 42
0.2
  3
txt
  4

  0
ENDTAB
  0
TABLE
  2
VIEW
 70
     0
  0
ENDTAB
  0
TABLE
  2
UCS
 70
     0
  0
ENDTAB
  0
TABLE
  2
APPID
 70
     7
  0
APPID
  2
ACAD
 70
     0
  0
APPID
  2
ACADANNOTATIVE
 70
     0
  0
APPID
  2
ACADANNOPO
 70
     0
  0
APPID
  2
ACAD_DSTYLE_DIMJAG
 70
     0
  0
APPID
  2
ACAD_DSTYLE_DIMTALN
 70
     0
  0
APPID
  2
ACAD_MLEADERVER
 70
     0
  0
APPID
  2
ACAD_NAV_VCDISPLAY
 70
     0
  0
ENDTAB
  0
TABLE
  2
DIMSTYLE
 70
     3
  0
DIMSTYLE
  2
STANDARD
 70
     0
  3

  4

  5

  6

  7

 40
1.0
 41
0.18
 42
0.0625
 43
0.38
 44
0.18
 45
0.0
 46
0.0
 47
0.0
 48
0.0
140
0.18
141
0.09
142
0.0
143
25.3999999999999986
144
1.0
145
0.0
146
1.0
147
0.09
 71
     0
 72
     0
 73
     1
 74
     1
 75
     0
 76
     0
 77
     0
 78
     0
170
     0
171
     2
172
     0
173
     0
174
     0
175
     0
176
     0
177
     0
178
     0
  0
DIMSTYLE
  2
ANNOTATIVE
 70
     0
  3

  4

  5

  6

  7

 40
0.0
 41
0.18
 42
0.0625
 43
0.38
 44
0.18
 45
0.0
 46
0.0
 47
0.0
 48
0.0
140
0.18
141
0.09
142
0.0
143
25.3999999999999986
144
1.0
145
0.0
146
1.0
147
0.09
 71
     0
 72
     0
 73
     1
 74
     1
 75
     0
 76
     0
 77
     0
 78
     0
170
     0
171
     2
172
     0
173
     0
174
     0
175
     0
176
     0
177
     0
178
     0
  0
DIMSTYLE
  2
ISO-25
 70
     0
  3

  4

  5

  6

  7

 40
1.0
 41
2.5
 42
0.625
 43
3.75
 44
1.25
 45
0.0
 46
0.0
 47
0.0
 48
0.0
140
2.5
141
2.5
142
0.0
143
0.03937007874016
144
1.0
145
0.0
146
1.0
147
0.625
 71
     0
 72
     0
 73
     0
 74
     0
 75
     0
 76
     0
 77
     1
 78
     8
170
     0
171
     3
172
     1
173
     0
174
     0
175
     0
176
     0
177
     0
178
     0
  0
ENDTAB
  0
ENDSEC
  0
SECTION
  2
BLOCKS
  0
BLOCK
  8
0
  2
$MODEL_SPACE
 70
     0
 10
0.0
 20
0.0
 30
0.0
  3
$MODEL_SPACE
  1

  0
ENDBLK
  5
1010
  8
0
  0
BLOCK
 67
     1
  8
0
  2
$PAPER_SPACE
 70
     0
 10
0.0
 20
0.0
 30
0.0
  3
$PAPER_SPACE
  1

  0
ENDBLK
  5
100C
 67
     1
  8
0
  0
ENDSEC
  0
SECTION
  2
ENTITIES
  0
POLYLINE
  5
27E
  8
0
  6
CONTINUOUS
 62
     1
 66
     1
 10
0.0
 20
0.0
 30
0.0
 70
     1
  0
VERTEX
  5
1030
  8
0
  6
CONTINUOUS
 62
     1
 10
176.8864622607734134
 20
37.788455721501812
 30
0.0
  0
VERTEX
  5
1031
  8
0
  6
CONTINUOUS
 62
     1
 10
162.8206997622214089
 20
40.7782258354613916
 30
0.0
 42
0.4142135623730718
  0
VERTEX
  5
1032
  8
0
  6
CONTINUOUS
 62
     1
 10
161.6346404706702913
 20
40.0079899255451892
 30
0.0
  0
VERTEX
  5
1033
  8
0
  6
CONTINUOUS
 62
     1
 10
159.1397001808564085
 20
28.2702187167394712
 30
0.0
 42
0.4142135623731082
  0
VERTEX
  5
1034
  8
0
  6
CONTINUOUS
 62
     1
 10
159.9099360907721916
 20
27.0841594251879911
 30
0.0
  0
VERTEX
  5
1035
  8
0
  6
CONTINUOUS
 62
     1
 10
173.9756985893253045
 20
24.0943893112286212
 30
0.0
 42
0.4142135623731316
  0
VERTEX
  5
1036
  8
0
  6
CONTINUOUS
 62
     1
 10
175.1617578808763938
 20
24.8646252211447205
 30
0.0
  0
VERTEX
  5
1037
  8
0
  6
CONTINUOUS
 62
     1
 10
177.6566981706891966
 20
36.6023964299503319
 30
0.0
 42
0.4142135623731081
  0
SEQEND
  5
1038
  8
0
  6
CONTINUOUS
 62
     1
  0
POLYLINE
  5
27F
  8
0
  6
CONTINUOUS
 62
     1
 66
     1
 10
0.0
 20
0.0
 30
0.0
 70
     1
  0
VERTEX
  5
1039
  8
0
  6
CONTINUOUS
 62
     1
 10
123.8722296783481056
 20
35.7618363406104365
 30
0.0
  0
VERTEX
  5
103A
  8
0
  6
CONTINUOUS
 62
     1
 10
128.7629676820133966
 20
34.7222778865225408
 30
0.0
 42
0.0236362162189824
  0
VERTEX
  5
103B
  8
0
  6
CONTINUOUS
 62
     1
 10
128.8562198592995003
 20
34.7070206372799319
 30
0.0
 42
0.4141704366929254
  0
VERTEX
  5
103C
  8
0
  6
CONTINUOUS
 62
     1
 10
129.6264863720543872
 20
33.5211053729062911
 30
0.0
  0
VERTEX
  5
103D
  8
0
  6
CONTINUOUS
 62
     1
 10
131.8250525574023868
 20
33.0537857039448824
 30
0.0
 42
0.0240240556255289
  0
VERTEX
  5
103E
  8
0
  6
CONTINUOUS
 62
     1
 10
131.917927380519302
 20
33.0293296010418302
 30
0.0
  0
VERTEX
  5
103F
  8
0
  6
CONTINUOUS
 62
     1
 10
143.6556985893255955
 20
30.5343893112286793
 30
0.0
 42
0.4142135623730824
  0
VERTEX
  5
1040
  8
0
  6
CONTINUOUS
 62
     1
 10
144.8417578808760027
 20
31.3046252211447715
 30
0.0
  0
VERTEX
  5
1041
  8
0
  6
CONTINUOUS
 62
     1
 10
144.8442659849432914
 20
31.3164249230533294
 30
0.0
 42
0.0248928629650061
  0
VERTEX
  5
1042
  8
0
  6
CONTINUOUS
 62
     1
 10
144.9404513022479932
 20
31.2909183930544401
 30
0.0
  0
VERTEX
  5
1043
  8
0
  6
CONTINUOUS
 62
     1
 10
147.1115105267261072
 20
30.8294455091172601
 30
0.0
 42
0.0298424820520141
  0
VERTEX
  5
1044
  8
0
  6
CONTINUOUS
 62
     1
 10
147.2264817934683947
 20
30.7977368106467218
 30
0.0
  0
VERTEX
  5
1045
  8
0
  6
CONTINUOUS
 62
     1
 10
152.1172197971364142
 20
29.7581783565582398
 30
0.0
 42
0.4142135623731571
  0
VERTEX
  5
1046
  8
0
  6
CONTINUOUS
 62
     1
 10
153.3032790886873045
 20
30.5284142664743392
 30
0.0
  0
VERTEX
  5
1047
  8
0
  6
CONTINUOUS
 62
     1
 10
156.0061310693183998
 20
43.244333076013632
 30
0.0
 42
0.4142135623727938
  0
VERTEX
  5
1048
  8
0
  6
CONTINUOUS
 62
     1
 10
155.235895159402304
 20
44.4303923675649983
 30
0.0
  0
VERTEX
  5
1049
  8
0
  6
CONTINUOUS
 62
     1
 10
153.064835934949997
 20
44.891865251496597
 30
0.0
 42
0.0298424820536643
  0
VERTEX
  5
104A
  8
0
  6
CONTINUOUS
 62
     1
 10
152.9498646681952891
 20
44.9235739499712423
 30
0.0
  0
VERTEX
  5
104B
  8
0
  6
CONTINUOUS
 62
     1
 10
148.0591266645160999
 20
45.9631324040619873
 30
0.0
 42
0.4142135623740356
  0
VERTEX
  5
104C
  8
0
  6
CONTINUOUS
 62
     1
 10
146.8730673729635896
 20
45.1928964941466873
 30
0.0
  0
VERTEX
  5
104D
  8
0
  6
CONTINUOUS
 62
     1
 10
146.6626475780790884
 20
44.2029491915027535
 30
0.0
 42
0.0248928629654563
  0
VERTEX
  5
104E
  8
0
  6
CONTINUOUS
 62
     1
 10
146.5664622607733065
 20
44.2284557215018594
 30
0.0
  0
VERTEX
  5
104F
  8
0
  6
CONTINUOUS
 62
     1
 10
144.3678960754241984
 20
44.6957753904637229
 30
0.0
 42
0.0240240556246659
  0
VERTEX
  5
1050
  8
0
  6
CONTINUOUS
 62
     1
 10
144.2750212523073969
 20
44.7202314933665619
 30
0.0
  0
VERTEX
  5
1051
  8
0
  6
CONTINUOUS
 62
     1
 10
132.5372500435032919
 20
47.2151717831795921
 30
0.0
 42
0.0236362134955536
  0
VERTEX
  5
1052
  8
0
  6
CONTINUOUS
 62
     1
 10
132.4439978770354003
 20
47.2304290311735713
 30
0.0
  0
VERTEX
  5
1053
  8
0
  6
CONTINUOUS
 62
     1
 10
132.6518789541974002
 20
48.2084326059787216
 30
0.0
 42
0.4142135623728282
  0
VERTEX
  5
1054
  8
0
  6
CONTINUOUS
 62
     1
 10
131.8816430442813896
 20
49.3944918975299814
 30
0.0
  0
VERTEX
  5
1055
  8
0
  6
CONTINUOUS
 62
     1
 10
129.7105838198172023
 20
49.8559647814638609
 30
0.0
 42
0.0298424820589184
  0
VERTEX
  5
1056
  8
0
  6
CONTINUOUS
 62
     1
 10
129.5956125530640861
 20
49.8876734799382504
 30
0.0
  0
VERTEX
  5
1057
  8
0
  6
CONTINUOUS
 62
     1
 10
124.704874549394404
 20
50.9272319340273185
 30
0.0
 42
0.414213562373473
  0
VERTEX
  5
1058
  8
0
  6
CONTINUOUS
 62
     1
 10
123.5188152578434995
 20
50.1569960241113293
 30
0.0
  0
VERTEX
  5
1059
  8
0
  6
CONTINUOUS
 62
     1
 10
120.8159632772124041
 20
37.4410772145720401
 30
0.0
 42
0.4142135623723204
  0
VERTEX
  5
105A
  8
0
  6
CONTINUOUS
 62
     1
 10
121.5861991871282015
 20
36.2550179230206666
 30
0.0
  0
VERTEX
  5
105B
  8
0
  6
CONTINUOUS
 62
     1
 10
123.7572584115823986
 20
35.7935450390887198
 30
0.0
 42
0.0298424820624604
  0
SEQEND
  5
105C
  8
0
  6
CONTINUOUS
 62
     1
  0
POLYLINE
  5
280
  8
0
  6
CONTINUOUS
 62
     1
 66
     1
 10
0.0
 20
0.0
 30
0.0
 70
     1
  0
VERTEX
  5
105D
  8
0
  6
CONTINUOUS
 62
     1
 10
343.9101948206424026
 20
94.2488929595038059
 30
0.0
  0
VERTEX
  5
105E
  8
0
  6
CONTINUOUS
 62
     1
 10
338.9101948206433121
 20
94.2488929595037064
 30
0.0
 42
0.4142135623735843
  0
VERTEX
  5
105F
  8
0
  6
CONTINUOUS
 62
     1
 10
337.9101948206443922
 20
93.248892959503678
 30
0.0
  0
VERTEX
  5
1060
  8
0
  6
CONTINUOUS
 62
     1
 10
337.9101948206433121
 20
80.2488929595036922
 30
0.0
 42
0.4142135623730307
  0
VERTEX
  5
1061
  8
0
  6
CONTINUOUS
 62
     1
 10
338.9101948206433121
 20
79.2488929595040332
 30
0.0
  0
VERTEX
  5
1062
  8
0
  6
CONTINUOUS
 62
     1
 10
343.9101948206424026
 20
79.2488929595041327
 30
0.0
 42
0.4142135623731618
  0
VERTEX
  5
1063
  8
0
  6
CONTINUOUS
 62
     1
 10
344.9101948206424026
 20
80.2488929595040048
 30
0.0
  0
VERTEX
  5
1064
  8
0
  6
CONTINUOUS
 62
     1
 10
344.9101948206424026
 20
93.2488929595041327
 30
0.0
 42
0.4142135623727583
  0
SEQEND
  5
1065
  8
0
  6
CONTINUOUS
 62
     1
  0
POLYLINE
  5
281
  8
0
  6
CONTINUOUS
 62
     1
 66
     1
 10
0.0
 20
0.0
 30
0.0
 70
     1
  0
VERTEX
  5
1066
  8
0
  6
CONTINUOUS
 62
     1
 10
308.9791948206515144
 20
114.3488923630397949
 30
0.0
  0
VERTEX
  5
1067
  8
0
  6
CONTINUOUS
 62
     1
 10
313.9791948206503207
 20
114.3488923630397949
 30
0.0
 42
0.4142135623735967
  0
VERTEX
  5
1068
  8
0
  6
CONTINUOUS
 62
     1
 10
314.9791948206491838
 20
115.3488923630397949
 30
0.0
  0
VERTEX
  5
1069
  8
0
  6
CONTINUOUS
 62
     1
 10
314.9791948206491838
 20
116.3488926612718046
 30
0.0
  0
VERTEX
  5
106A
  8
0
  6
CONTINUOUS
 62
     1
 10
331.8551948206521161
 20
116.3488926612718046
 30
0.0
  0
VERTEX
  5
106B
  8
0
  6
CONTINUOUS
 62
     1
 10
331.8551948206521161
 20
115.3488923630395959
 30
0.0
 42
0.4142135623727877
  0
VERTEX
  5
106C
  8
0
  6
CONTINUOUS
 62
     1
 10
332.8551948206520024
 20
114.3488923630396954
 30
0.0
  0
VERTEX
  5
106D
  8
0
  6
CONTINUOUS
 62
     1
 10
337.8551948206493876
 20
114.3488923630397949
 30
0.0
 42
0.4142135623720363
  0
VERTEX
  5
106E
  8
0
  6
CONTINUOUS
 62
     1
 10
338.8551948206513771
 20
115.3488923630397949
 30
0.0
  0
VERTEX
  5
106F
  8
0
  6
CONTINUOUS
 62
     1
 10
338.8551948206502971
 20
116.3488926612718046
 30
0.0
  0
VERTEX
  5
1070
  8
0
  6
CONTINUOUS
 62
     1
 10
338.9421948206464208
 20
116.3488926612718046
 30
0.0
 42
0.4142135623731475
  0
VERTEX
  5
1071
  8
0
  6
CONTINUOUS
 62
     1
 10
339.9421948206464208
 20
117.3488926612718046
 30
0.0
  0
VERTEX
  5
1072
  8
0
  6
CONTINUOUS
 62
     1
 10
339.9421948206464208
 20
129.3488926612718046
 30
0.0
 42
0.4142135623731421
  0
VERTEX
  5
1073
  8
0
  6
CONTINUOUS
 62
     1
 10
338.9421948206464208
 20
130.3488926612718046
 30
0.0
  0
VERTEX
  5
1074
  8
0
  6
CONTINUOUS
 62
     1
 10
307.89219482064658
 20
130.3488926612718046
 30
0.0
 42
0.414213562373084
  0
VERTEX
  5
1075
  8
0
  6
CONTINUOUS
 62
     1
 10
306.89219482064658
 20
129.3488926612718046
 30
0.0
  0
VERTEX
  5
1076
  8
0
  6
CONTINUOUS
 62
     1
 10
306.89219482064658
 20
117.3488926612718046
 30
0.0
 42
0.41421356237308
  0
VERTEX
  5
1077
  8
0
  6
CONTINUOUS
 62
     1
 10
307.89219482064658
 20
116.3488926612717052
 30
0.0
  0
VERTEX
  5
1078
  8
0
  6
CONTINUOUS
 62
     1
 10
307.9791948206515144
 20
116.3488926612718046
 30
0.0
  0
VERTEX
  5
1079
  8
0
  6
CONTINUOUS
 62
     1
 10
307.9791948206515144
 20
115.3488923630395959
 30
0.0
 42
0.4142135623727877
  0
SEQEND
  5
107A
  8
0
  6
CONTINUOUS
 62
     1
  0
POLYLINE
  5
282
  8
0
  6
CONTINUOUS
 62
     1
 66
     1
 10
0.0
 20
0.0
 30
0.0
 70
     1
  0
VERTEX
  5
107B
  8
0
  6
CONTINUOUS
 62
     1
 10
320.0341948206412894
 20
94.2488929595035643
 30
0.0
  0
VERTEX
  5
107C
  8
0
  6
CONTINUOUS
 62
     1
 10
315.0341948206444727
 20
94.2488929595035643
 30
0.0
 42
0.4142135623720192
  0
VERTEX
  5
107D
  8
0
  6
CONTINUOUS
 62
     1
 10
314.0341948206424263
 20
93.2488929595035358
 30
0.0
  0
VERTEX
  5
107E
  8
0
  6
CONTINUOUS
 62
     1
 10
314.0341948206433926
 20
80.2488929595035501
 30
0.0
 42
0.4142135623733948
  0
VERTEX
  5
107F
  8
0
  6
CONTINUOUS
 62
     1
 10
315.0341948206444727
 20
79.2488929595028537
 30
0.0
  0
VERTEX
  5
1080
  8
0
  6
CONTINUOUS
 62
     1
 10
320.0341948206403799
 20
79.2488929595028537
 30
0.0
 42
0.4142135623731534
  0
VERTEX
  5
1081
  8
0
  6
CONTINUOUS
 62
     1
 10
321.0341948206403799
 20
80.2488929595037632
 30
0.0
  0
VERTEX
  5
1082
  8
0
  6
CONTINUOUS
 62
     1
 10
321.0341948206403799
 20
93.2488929595038059
 30
0.0
 42
0.41421356237276
  0
SEQEND
  5
1083
  8
0
  6
CONTINUOUS
 62
     1
  0
POLYLINE
  5
283
  8
0
  6
CONTINUOUS
 62
     1
 66
     1
 10
0.0
 20
0.0
 30
0.0
 70
     1
  0
VERTEX
  5
1084
  8
0
  6
CONTINUOUS
 62
     1
 10
230.2634846006712905
 20
49.3940503516171177
 30
0.0
  0
VERTEX
  5
1085
  8
0
  6
CONTINUOUS
 62
     1
 10
225.3727465970031005
 20
48.3544918975284332
 30
0.0
 42
0.4142135623735812
  0
VERTEX
  5
1086
  8
0
  6
CONTINUOUS
 62
     1
 10
224.6025106870872889
 20
47.1684326059769319
 30
0.0
  0
VERTEX
  5
1087
  8
0
  6
CONTINUOUS
 62
     1
 10
227.3053626677184127
 20
34.4525137964374295
 30
0.0
 42
0.4142135623729507
  0
VERTEX
  5
1088
  8
0
  6
CONTINUOUS
 62
     1
 10
228.491421959269303
 20
33.6822778865216677
 30
0.0
  0
VERTEX
  5
1089
  8
0
  6
CONTINUOUS
 62
     1
 10
233.3821599629374077
 20
34.7218363406102526
 30
0.0
 42
0.414213562373134
  0
VERTEX
  5
108A
  8
0
  6
CONTINUOUS
 62
     1
 10
234.1523958728533046
 20
35.9078956321614129
 30
0.0
  0
VERTEX
  5
108B
  8
0
  6
CONTINUOUS
 62
     1
 10
231.4495438922222093
 20
48.6238144417011426
 30
0.0
 42
0.4142135623727932
  0
SEQEND
  5
108C
  8
0
  6
CONTINUOUS
 62
     1
  0
POLYLINE
  5
284
  8
0
  6
CONTINUOUS
 62
     1
 66
     1
 10
0.0
 20
0.0
 30
0.0
 70
     1
  0
VERTEX
  5
108D
  8
0
  6
CONTINUOUS
 62
     1
 10
205.1371698441502076
 20
28.7181783565558888
 30
0.0
  0
VERTEX
  5
108E
  8
0
  6
CONTINUOUS
 62
     1
 10
210.0279078478154986
 20
29.7577368106437987
 30
0.0
 42
0.4142135623731364
  0
VERTEX
  5
108F
  8
0
  6
CONTINUOUS
 62
     1
 10
210.7981437577313955
 20
30.9437961021961989
 30
0.0
  0
VERTEX
  5
1090
  8
0
  6
CONTINUOUS
 62
     1
 10
208.0952917771012949
 20
43.6597149117357972
 30
0.0
 42
0.41421356237278
  0
VERTEX
  5
1091
  8
0
  6
CONTINUOUS
 62
     1
 10
206.909232485549694
 20
44.4299508216518078
 30
0.0
  0
VERTEX
  5
1092
  8
0
  6
CONTINUOUS
 62
     1
 10
202.018494481884801
 20
43.3903923675637628
 30
0.0
  0
VERTEX
  5
1093
  8
0
  6
CONTINUOUS
 62
     1
 10
194.4222645989462137
 20
41.775763861991102
 30
0.0
 42
0.4142135623730895
  0
VERTEX
  5
1094
  8
0
  6
CONTINUOUS
 62
     1
 10
193.2669107340720132
 20
39.9966749246637008
 30
0.0
  0
VERTEX
  5
1095
  8
0
  6
CONTINUOUS
 62
     1
 10
195.7618510238854128
 20
28.2589037158577483
 30
0.0
 42
0.4142135623730919
  0
VERTEX
  5
1096
  8
0
  6
CONTINUOUS
 62
     1
 10
197.5409399612127004
 20
27.1035498509836614
 30
0.0
  0
SEQEND
  5
1097
  8
0
  6
CONTINUOUS
 62
     1
  0
POLYLINE
  5
285
  8
0
  6
CONTINUOUS
 62
     1
 66
     1
 10
0.0
 20
0.0
 30
0.0
 70
     1
  0
VERTEX
  5
1098
  8
0
  6
CONTINUOUS
 62
     1
 10
42.634194820651409
 20
57.1988923630401587
 30
0.0
  0
VERTEX
  5
1099
  8
0
  6
CONTINUOUS
 62
     1
 10
47.6341948206502721
 20
57.1988923630401587
 30
0.0
 42
0.4142135623730898
  0
VERTEX
  5
109A
  8
0
  6
CONTINUOUS
 62
     1
 10
48.6341948206502792
 20
58.1988923630399384
 30
0.0
  0
VERTEX
  5
109B
  8
0
  6
CONTINUOUS
 62
     1
 10
48.6341948206502792
 20
71.1988923630399171
 30
0.0
 42
0.4142135623734128
  0
VERTEX
  5
109C
  8
0
  6
CONTINUOUS
 62
     1
 10
47.6341948206502721
 20
72.1988923630396897
 30
0.0
  0
VERTEX
  5
109D
  8
0
  6
CONTINUOUS
 62
     1
 10
42.634194820651409
 20
72.1988923630396897
 30
0.0
 42
0.4142135623731753
  0
VERTEX
  5
109E
  8
0
  6
CONTINUOUS
 62
     1
 10
41.6341948206514019
 20
71.1988923630396755
 30
0.0
  0
VERTEX
  5
109F
  8
0
  6
CONTINUOUS
 62
     1
 10
41.6341948206514019
 20
58.198892363039711
 30
0.0
 42
0.4142135623731502
  0
SEQEND
  5
10A0
  8
0
  6
CONTINUOUS
 62
     1
  0
POLYLINE
  5
286
  8
0
  6
CONTINUOUS
 62
     1
 66
     1
 10
0.0
 20
0.0
 30
0.0
 70
     1
  0
VERTEX
  5
10A1
  8
0
  6
CONTINUOUS
 62
     1
 10
66.5101948206520746
 20
57.1988923630399384
 30
0.0
  0
VERTEX
  5
10A2
  8
0
  6
CONTINUOUS
 62
     1
 10
71.5101948206493603
 20
57.1988923630399384
 30
0.0
 42
0.4142135623733302
  0
VERTEX
  5
10A3
  8
0
  6
CONTINUOUS
 62
     1
 10
72.5101948206502556
 20
58.1988923630408479
 30
0.0
  0
VERTEX
  5
10A4
  8
0
  6
CONTINUOUS
 62
     1
 10
72.5101948206502556
 20
71.1988923630408408
 30
0.0
 42
0.4142135623728349
  0
VERTEX
  5
10A5
  8
0
  6
CONTINUOUS
 62
     1
 10
71.5101948206493603
 20
72.1988923630406134
 30
0.0
  0
VERTEX
  5
10A6
  8
0
  6
CONTINUOUS
 62
     1
 10
66.5101948206534246
 20
72.1988923630406134
 30
0.0
 42
0.414213562373168
  0
VERTEX
  5
10A7
  8
0
  6
CONTINUOUS
 62
     1
 10
65.5101948206520888
 20
71.1988923630396755
 30
0.0
  0
VERTEX
  5
10A8
  8
0
  6
CONTINUOUS
 62
     1
 10
65.5101948206520888
 20
58.198892363039711
 30
0.0
 42
0.4142135623727871
  0
SEQEND
  5
10A9
  8
0
  6
CONTINUOUS
 62
     1
  0
POLYLINE
  5
287
  8
0
  6
CONTINUOUS
 62
     1
 66
     1
 10
0.0
 20
0.0
 30
0.0
 70
     1
  0
VERTEX
  5
10AA
  8
0
  6
CONTINUOUS
 62
     1
 10
312.3571948206463844
 20
72.19889266127187
 30
0.0
  0
VERTEX
  5
10AB
  8
0
  6
CONTINUOUS
 62
     1
 10
312.3571948206463844
 20
60.1988926612717918
 30
0.0
 42
0.4142135623731117
  0
VERTEX
  5
10AC
  8
0
  6
CONTINUOUS
 62
     1
 10
313.3571948206463844
 20
59.1988926612717776
 30
0.0
  0
VERTEX
  5
10AD
  8
0
  6
CONTINUOUS
 62
     1
 10
313.4441948206513757
 20
59.1988926612717776
 30
0.0
  0
VERTEX
  5
10AE
  8
0
  6
CONTINUOUS
 62
     1
 10
313.4441948206513757
 20
58.1988923630396116
 30
0.0
 42
0.4142135623727163
  0
VERTEX
  5
10AF
  8
0
  6
CONTINUOUS
 62
     1
 10
314.4441948206513757
 20
57.1988923630398105
 30
0.0
  0
VERTEX
  5
10B0
  8
0
  6
CONTINUOUS
 62
     1
 10
319.4441948206505231
 20
57.1988923630399384
 30
0.0
 42
0.4142135623735446
  0
VERTEX
  5
10B1
  8
0
  6
CONTINUOUS
 62
     1
 10
320.4441948206492725
 20
58.1988923630399384
 30
0.0
  0
VERTEX
  5
10B2
  8
0
  6
CONTINUOUS
 62
     1
 10
320.4441948206492725
 20
59.1988926612717776
 30
0.0
  0
VERTEX
  5
10B3
  8
0
  6
CONTINUOUS
 62
     1
 10
334.8821948206467027
 20
59.1988926612717776
 30
0.0
 42
0.4142135623731038
  0
VERTEX
  5
10B4
  8
0
  6
CONTINUOUS
 62
     1
 10
335.8821948206467027
 20
60.1988926612717918
 30
0.0
  0
VERTEX
  5
10B5
  8
0
  6
CONTINUOUS
 62
     1
 10
335.8821948206467027
 20
72.19889266127187
 30
0.0
 42
0.4142135623731263
  0
VERTEX
  5
10B6
  8
0
  6
CONTINUOUS
 62
     1
 10
334.8821948206467027
 20
73.19889266127187
 30
0.0
  0
VERTEX
  5
10B7
  8
0
  6
CONTINUOUS
 62
     1
 10
313.3571948206463844
 20
73.19889266127187
 30
0.0
 42
0.4142135623731451
  0
SEQEND
  5
10B8
  8
0
  6
CONTINUOUS
 62
     1
  0
POLYLINE
  5
288
  8
0
  6
CONTINUOUS
 62
     1
 66
     1
 10
0.0
 20
0.0
 30
0.0
 70
     1
  0
VERTEX
  5
10B9
  8
0
  6
CONTINUOUS
 62
     1
 10
338.3201948206536258
 20
72.1988923630403718
 30
0.0
 42
0.4142135623732619
  0
VERTEX
  5
10BA
  8
0
  6
CONTINUOUS
 62
     1
 10
337.3201948206536258
 20
71.1988923630396755
 30
0.0
  0
VERTEX
  5
10BB
  8
0
  6
CONTINUOUS
 62
     1
 10
337.3201948206522047
 20
58.1988923630396116
 30
0.0
 42
0.4142135623727163
  0
VERTEX
  5
10BC
  8
0
  6
CONTINUOUS
 62
     1
 10
338.3201948206523184
 20
57.1988923630398105
 30
0.0
  0
VERTEX
  5
10BD
  8
0
  6
CONTINUOUS
 62
     1
 10
343.320194820649192
 20
57.1988923630399384
 30
0.0
 42
0.4142135623720797
  0
VERTEX
  5
10BE
  8
0
  6
CONTINUOUS
 62
     1
 10
344.3201948206504994
 20
58.1988923630399384
 30
0.0
  0
VERTEX
  5
10BF
  8
0
  6
CONTINUOUS
 62
     1
 10
344.3201948206504994
 20
59.1988926612717776
 30
0.0
  0
VERTEX
  5
10C0
  8
0
  6
CONTINUOUS
 62
     1
 10
351.5509448206462935
 20
59.1988926612717776
 30
0.0
 42
0.4142135623730659
  0
VERTEX
  5
10C1
  8
0
  6
CONTINUOUS
 62
     1
 10
352.5509448206462935
 20
60.1988926612718771
 30
0.0
  0
VERTEX
  5
10C2
  8
0
  6
CONTINUOUS
 62
     1
 10
352.5509448206462935
 20
72.19889266127187
 30
0.0
 42
0.4142135623730659
  0
VERTEX
  5
10C3
  8
0
  6
CONTINUOUS
 62
     1
 10
351.5509448206462935
 20
73.19889266127187
 30
0.0
  0
VERTEX
  5
10C4
  8
0
  6
CONTINUOUS
 62
     1
 10
339.5509448206462935
 20
73.19889266127187
 30
0.0
 42
0.4142136497229438
  0
VERTEX
  5
10C5
  8
0
  6
CONTINUOUS
 62
     1
 10
338.5509448206462935
 20
72.1988923630403718
 30
0.0
  0
SEQEND
  5
10C6
  8
0
  6
CONTINUOUS
 62
     1
  0
POLYLINE
  5
289
  8
0
  6
CONTINUOUS
 62
     1
 66
     1
 10
0.0
 20
0.0
 30
0.0
 70
     1
  0
VERTEX
  5
10C7
  8
0
  6
CONTINUOUS
 62
     1
 10
32.3121948206462974
 20
94.3888926612718251
 30
0.0
  0
VERTEX
  5
10C8
  8
0
  6
CONTINUOUS
 62
     1
 10
20.312194820646301
 20
94.3888926612718251
 30
0.0
 42
0.4142135623731112
  0
VERTEX
  5
10C9
  8
0
  6
CONTINUOUS
 62
     1
 10
19.312194820646301
 20
93.3888926612718251
 30
0.0
  0
VERTEX
  5
10CA
  8
0
  6
CONTINUOUS
 62
     1
 10
19.312194820646301
 20
81.3888926612718251
 30
0.0
 42
0.4142135623730854
  0
VERTEX
  5
10CB
  8
0
  6
CONTINUOUS
 62
     1
 10
20.312194820646301
 20
80.3888926612718251
 30
0.0
  0
VERTEX
  5
10CC
  8
0
  6
CONTINUOUS
 62
     1
 10
32.3121948206462974
 20
80.3888926612718251
 30
0.0
 42
0.4142135623730809
  0
VERTEX
  5
10CD
  8
0
  6
CONTINUOUS
 62
     1
 10
33.3121948206462974
 20
81.3888926612718251
 30
0.0
  0
VERTEX
  5
10CE
  8
0
  6
CONTINUOUS
 62
     1
 10
33.3121948206462974
 20
93.3888926612718251
 30
0.0
 42
0.4142135623730802
  0
SEQEND
  5
10CF
  8
0
  6
CONTINUOUS
 62
     1
  0
POLYLINE
  5
28A
  8
0
  6
CONTINUOUS
 62
     1
 66
     1
 10
0.0
 20
0.0
 30
0.0
 70
     1
  0
VERTEX
  5
10D0
  8
0
  6
CONTINUOUS
 62
     1
 10
63.0721948206462883
 20
73.19889266127187
 30
0.0
  0
VERTEX
  5
10D1
  8
0
  6
CONTINUOUS
 62
     1
 10
51.0721948206462812
 20
73.19889266127187
 30
0.0
 42
0.4142135623731213
  0
VERTEX
  5
10D2
  8
0
  6
CONTINUOUS
 62
     1
 10
50.0721948206462883
 20
72.1988926612717847
 30
0.0
  0
VERTEX
  5
10D3
  8
0
  6
CONTINUOUS
 62
     1
 10
50.0721948206462883
 20
60.1988926612717918
 30
0.0
 42
0.4142135623731046
  0
VERTEX
  5
10D4
  8
0
  6
CONTINUOUS
 62
     1
 10
51.0721948206462812
 20
59.1988926612717776
 30
0.0
  0
VERTEX
  5
10D5
  8
0
  6
CONTINUOUS
 62
     1
 10
63.0721948206462883
 20
59.1988926612717776
 30
0.0
 42
0.4142135623730826
  0
VERTEX
  5
10D6
  8
0
  6
CONTINUOUS
 62
     1
 10
64.0721948206462883
 20
60.1988926612717918
 30
0.0
  0
VERTEX
  5
10D7
  8
0
  6
CONTINUOUS
 62
     1
 10
64.0721948206462883
 20
72.19889266127187
 30
0.0
 42
0.4142135623731014
  0
SEQEND
  5
10D8
  8
0
  6
CONTINUOUS
 62
     1
  0
POLYLINE
  5
28B
  8
0
  6
CONTINUOUS
 62
     1
 66
     1
 10
0.0
 20
0.0
 30
0.0
 70
     1
  0
VERTEX
  5
10D9
  8
0
  6
CONTINUOUS
 62
     1
 10
36.3821948206466885
 20
113.4388926612715949
 30
0.0
  0
VERTEX
  5
10DA
  8
0
  6
CONTINUOUS
 62
     1
 10
24.3821948206466885
 20
113.4388926612715949
 30
0.0
 42
0.4142135623730906
  0
VERTEX
  5
10DB
  8
0
  6
CONTINUOUS
 62
     1
 10
23.3821948206466885
 20
112.4388926612715949
 30
0.0
  0
VERTEX
  5
10DC
  8
0
  6
CONTINUOUS
 62
     1
 10
23.3821948206466885
 20
100.4388926612715949
 30
0.0
 42
0.4142135623731141
  0
VERTEX
  5
10DD
  8
0
  6
CONTINUOUS
 62
     1
 10
24.3821948206466885
 20
99.4388926612716659
 30
0.0
  0
VERTEX
  5
10DE
  8
0
  6
CONTINUOUS
 62
     1
 10
36.3821948206466885
 20
99.4388926612716659
 30
0.0
 42
0.4142135623730911
  0
VERTEX
  5
10DF
  8
0
  6
CONTINUOUS
 62
     1
 10
37.3821948206466885
 20
100.4388926612715949
 30
0.0
  0
VERTEX
  5
10E0
  8
0
  6
CONTINUOUS
 62
     1
 10
37.3821948206466885
 20
112.4388926612715949
 30
0.0
 42
0.4142135623730824
  0
SEQEND
  5
10E1
  8
0
  6
CONTINUOUS
 62
     1
  0
POLYLINE
  5
28C
  8
0
  6
CONTINUOUS
 62
     1
 66
     1
 10
0.0
 20
0.0
 30
0.0
 70
     1
  0
VERTEX
  5
10E2
  8
0
  6
CONTINUOUS
 62
     1
 10
40.5421948206460883
 20
132.488892661271791
 30
0.0
  0
VERTEX
  5
10E3
  8
0
  6
CONTINUOUS
 62
     1
 10
28.5421948206460883
 20
132.488892661271791
 30
0.0
 42
0.4142135623730955
  0
VERTEX
  5
10E4
  8
0
  6
CONTINUOUS
 62
     1
 10
27.5421948206460883
 20
131.488892661271791
 30
0.0
  0
VERTEX
  5
10E5
  8
0
  6
CONTINUOUS
 62
     1
 10
27.5421948206460883
 20
119.4888926612718052
 30
0.0
 42
0.4142135623731224
  0
VERTEX
  5
10E6
  8
0
  6
CONTINUOUS
 62
     1
 10
28.5421948206460883
 20
118.4888926612718052
 30
0.0
  0
VERTEX
  5
10E7
  8
0
  6
CONTINUOUS
 62
     1
 10
40.5421948206460883
 20
118.4888926612718052
 30
0.0
 42
0.4142135623730895
  0
VERTEX
  5
10E8
  8
0
  6
CONTINUOUS
 62
     1
 10
41.5421948206460883
 20
119.4888926612718052
 30
0.0
  0
VERTEX
  5
10E9
  8
0
  6
CONTINUOUS
 62
     1
 10
41.5421948206460883
 20
131.488892661271791
 30
0.0
 42
0.4142135623730951
  0
SEQEND
  5
10EA
  8
0
  6
CONTINUOUS
 62
     1
  0
POLYLINE
  5
28D
  8
0
  6
CONTINUOUS
 62
     1
 66
     1
 10
0.0
 20
0.0
 30
0.0
 70
     1
  0
VERTEX
  5
10EB
  8
0
  6
CONTINUOUS
 62
     1
 10
55.9321948206464086
 20
54.1488926612718302
 30
0.0
  0
VERTEX
  5
10EC
  8
0
  6
CONTINUOUS
 62
     1
 10
43.9321948206464015
 20
54.1488926612718302
 30
0.0
 42
0.4142135623731159
  0
VERTEX
  5
10ED
  8
0
  6
CONTINUOUS
 62
     1
 10
42.9321948206464228
 20
53.1488926612717023
 30
0.0
  0
VERTEX
  5
10EE
  8
0
  6
CONTINUOUS
 62
     1
 10
42.9321948206464228
 20
41.1488926612716881
 30
0.0
 42
0.4142135623730721
  0
VERTEX
  5
10EF
  8
0
  6
CONTINUOUS
 62
     1
 10
43.9321948206464015
 20
40.1488926612717023
 30
0.0
  0
VERTEX
  5
10F0
  8
0
  6
CONTINUOUS
 62
     1
 10
55.9321948206464086
 20
40.1488926612717023
 30
0.0
 42
0.4142135623730764
  0
VERTEX
  5
10F1
  8
0
  6
CONTINUOUS
 62
     1
 10
56.9321948206464086
 20
41.1488926612718231
 30
0.0
  0
VERTEX
  5
10F2
  8
0
  6
CONTINUOUS
 62
     1
 10
56.9321948206464086
 20
53.1488926612718231
 30
0.0
 42
0.4142135623730888
  0
SEQEND
  5
10F3
  8
0
  6
CONTINUOUS
 62
     1
  0
POLYLINE
  5
28E
  8
0
  6
CONTINUOUS
 62
     1
 66
     1
 10
0.0
 20
0.0
 30
0.0
 70
     1
  0
VERTEX
  5
10F4
  8
0
  6
CONTINUOUS
 62
     1
 10
299.1621948206465049
 20
73.19889266127187
 30
0.0
  0
VERTEX
  5
10F5
  8
0
  6
CONTINUOUS
 62
     1
 10
287.1621948206465049
 20
73.19889266127187
 30
0.0
 42
0.4142135623730659
  0
VERTEX
  5
10F6
  8
0
  6
CONTINUOUS
 62
     1
 10
286.1621948206463912
 20
72.19889266127187
 30
0.0
  0
VERTEX
  5
10F7
  8
0
  6
CONTINUOUS
 62
     1
 10
286.1621948206463912
 20
60.1988926612717918
 30
0.0
 42
0.4142135623730534
  0
VERTEX
  5
10F8
  8
0
  6
CONTINUOUS
 62
     1
 10
287.1621948206465049
 20
59.1988926612717776
 30
0.0
  0
VERTEX
  5
10F9
  8
0
  6
CONTINUOUS
 62
     1
 10
299.1621948206465049
 20
59.1988926612717776
 30
0.0
 42
0.41421356237312
  0
VERTEX
  5
10FA
  8
0
  6
CONTINUOUS
 62
     1
 10
300.1621948206463912
 20
60.1988926612717918
 30
0.0
  0
VERTEX
  5
10FB
  8
0
  6
CONTINUOUS
 62
     1
 10
300.1621948206463912
 20
72.19889266127187
 30
0.0
 42
0.4142135623731221
  0
SEQEND
  5
10FC
  8
0
  6
CONTINUOUS
 62
     1
  0
POLYLINE
  5
28F
  8
0
  6
CONTINUOUS
 62
     1
 66
     1
 10
0.0
 20
0.0
 30
0.0
 70
     1
  0
VERTEX
  5
10FD
  8
0
  6
CONTINUOUS
 62
     1
 10
343.107794820646518
 20
54.1008926612717076
 30
0.0
  0
VERTEX
  5
10FE
  8
0
  6
CONTINUOUS
 62
     1
 10
331.1077948206464043
 20
54.1008926612718213
 30
0.0
 42
0.4142135623730493
  0
VERTEX
  5
10FF
  8
0
  6
CONTINUOUS
 62
     1
 10
330.107794820646518
 20
53.1008926612717076
 30
0.0
  0
VERTEX
  5
1100
  8
0
  6
CONTINUOUS
 62
     1
 10
330.107794820646518
 20
41.1008926612717076
 30
0.0
 42
0.4142135623730784
  0
VERTEX
  5
1101
  8
0
  6
CONTINUOUS
 62
     1
 10
331.1077948206464043
 20
40.1008926612716934
 30
0.0
  0
VERTEX
  5
1102
  8
0
  6
CONTINUOUS
 62
     1
 10
343.107794820646518
 20
40.1008926612716934
 30
0.0
 42
0.4142135623730703
  0
VERTEX
  5
1103
  8
0
  6
CONTINUOUS
 62
     1
 10
344.1077948206474275
 20
41.1008926612718071
 30
0.0
  0
VERTEX
  5
1104
  8
0
  6
CONTINUOUS
 62
     1
 10
344.1077948206474275
 20
53.1008926612718213
 30
0.0
 42
0.4142135623730659
  0
SEQEND
  5
1105
  8
0
  6
CONTINUOUS
 62
     1
  0
POLYLINE
  5
290
  8
0
  6
CONTINUOUS
 62
     1
 66
     1
 10
0.0
 20
0.0
 30
0.0
 70
     1
  0
VERTEX
  5
1106
  8
0
  6
CONTINUOUS
 62
     1
 10
304.5221948206461207
 20
92.2488926612718245
 30
0.0
  0
VERTEX
  5
1107
  8
0
  6
CONTINUOUS
 62
     1
 10
292.5221948206461207
 20
92.2488926612718245
 30
0.0
 42
0.4142135623730659
  0
VERTEX
  5
1108
  8
0
  6
CONTINUOUS
 62
     1
 10
291.5221948206461207
 20
91.2488926612718245
 30
0.0
  0
VERTEX
  5
1109
  8
0
  6
CONTINUOUS
 62
     1
 10
291.5221948206461207
 20
79.2488926612718387
 30
0.0
 42
0.414213562373064
  0
VERTEX
  5
110A
  8
0
  6
CONTINUOUS
 62
     1
 10
292.5221948206461207
 20
78.2488926612718387
 30
0.0
  0
VERTEX
  5
110B
  8
0
  6
CONTINUOUS
 62
     1
 10
304.5221948206461207
 20
78.2488926612718387
 30
0.0
 42
0.4142135623730721
  0
VERTEX
  5
110C
  8
0
  6
CONTINUOUS
 62
     1
 10
305.5221948206461207
 20
79.2488926612718387
 30
0.0
  0
VERTEX
  5
110D
  8
0
  6
CONTINUOUS
 62
     1
 10
305.5221948206461207
 20
91.2488926612718245
 30
0.0
 42
0.4142135623730659
  0
SEQEND
  5
110E
  8
0
  6
CONTINUOUS
 62
     1
  0
POLYLINE
  5
291
  8
0
  6
CONTINUOUS
 62
     1
 66
     1
 10
0.0
 20
0.0
 30
0.0
 70
     1
  0
VERTEX
  5
110F
  8
0
  6
CONTINUOUS
 62
     1
 10
335.4721948206463935
 20
92.2488926612718245
 30
0.0
  0
VERTEX
  5
1110
  8
0
  6
CONTINUOUS
 62
     1
 10
323.4721948206463935
 20
92.2488926612718245
 30
0.0
 42
0.4142135623730659
  0
VERTEX
  5
1111
  8
0
  6
CONTINUOUS
 62
     1
 10
322.4721948206463935
 20
91.2488926612718245
 30
0.0
  0
VERTEX
  5
1112
  8
0
  6
CONTINUOUS
 62
     1
 10
322.4721948206463935
 20
79.2488926612718387
 30
0.0
 42
0.414213562373064
  0
VERTEX
  5
1113
  8
0
  6
CONTINUOUS
 62
     1
 10
323.4721948206463935
 20
78.2488926612718387
 30
0.0
  0
VERTEX
  5
1114
  8
0
  6
CONTINUOUS
 62
     1
 10
335.4721948206463935
 20
78.2488926612718387
 30
0.0
 42
0.4142135623731304
  0
VERTEX
  5
1115
  8
0
  6
CONTINUOUS
 62
     1
 10
336.4721948206463935
 20
79.2488926612718387
 30
0.0
  0
VERTEX
  5
1116
  8
0
  6
CONTINUOUS
 62
     1
 10
336.4721948206463935
 20
91.2488926612718245
 30
0.0
 42
0.4142135623731242
  0
SEQEND
  5
1117
  8
0
  6
CONTINUOUS
 62
     1
  0
POLYLINE
  5
292
  8
0
  6
CONTINUOUS
 62
     1
 66
     1
 10
0.0
 20
0.0
 30
0.0
 70
     1
  0
VERTEX
  5
1118
  8
0
  6
CONTINUOUS
 62
     1
 10
280.112194820646323
 20
73.19889266127187
 30
0.0
  0
VERTEX
  5
1119
  8
0
  6
CONTINUOUS
 62
     1
 10
268.112194820646323
 20
73.19889266127187
 30
0.0
 42
0.4142135623730808
  0
VERTEX
  5
111A
  8
0
  6
CONTINUOUS
 62
     1
 10
267.1121948206462093
 20
72.19889266127187
 30
0.0
  0
VERTEX
  5
111B
  8
0
  6
CONTINUOUS
 62
     1
 10
267.1121948206462093
 20
60.1988926612717918
 30
0.0
 42
0.4142135623730659
  0
VERTEX
  5
111C
  8
0
  6
CONTINUOUS
 62
     1
 10
268.112194820646323
 20
59.1988926612717776
 30
0.0
  0
VERTEX
  5
111D
  8
0
  6
CONTINUOUS
 62
     1
 10
280.112194820646323
 20
59.1988926612717776
 30
0.0
 42
0.4142135623730744
  0
VERTEX
  5
111E
  8
0
  6
CONTINUOUS
 62
     1
 10
281.112194820646323
 20
60.1988926612718771
 30
0.0
  0
VERTEX
  5
111F
  8
0
  6
CONTINUOUS
 62
     1
 10
281.112194820646323
 20
72.19889266127187
 30
0.0
 42
0.4142135623730703
  0
SEQEND
  5
1120
  8
0
  6
CONTINUOUS
 62
     1
  0
POLYLINE
  5
293
  8
0
  6
CONTINUOUS
 62
     1
 66
     1
 10
0.0
 20
0.0
 30
0.0
 70
     1
  0
VERTEX
  5
1121
  8
0
  6
CONTINUOUS
 62
     1
 10
295.4821948206463844
 20
111.2988926612716938
 30
0.0
  0
VERTEX
  5
1122
  8
0
  6
CONTINUOUS
 62
     1
 10
283.4821948206463844
 20
111.2988926612717933
 30
0.0
 42
0.4142135623731091
  0
VERTEX
  5
1123
  8
0
  6
CONTINUOUS
 62
     1
 10
282.4821948206463844
 20
110.2988926612716938
 30
0.0
  0
VERTEX
  5
1124
  8
0
  6
CONTINUOUS
 62
     1
 10
282.4821948206463844
 20
98.2988926612716654
 30
0.0
 42
0.4142135623731054
  0
VERTEX
  5
1125
  8
0
  6
CONTINUOUS
 62
     1
 10
283.4821948206463844
 20
97.2988926612716938
 30
0.0
  0
VERTEX
  5
1126
  8
0
  6
CONTINUOUS
 62
     1
 10
295.4821948206463844
 20
97.2988926612716938
 30
0.0
 42
0.4142135623730898
  0
VERTEX
  5
1127
  8
0
  6
CONTINUOUS
 62
     1
 10
296.4821948206463844
 20
98.2988926612716654
 30
0.0
  0
VERTEX
  5
1128
  8
0
  6
CONTINUOUS
 62
     1
 10
296.4821948206463844
 20
110.2988926612716938
 30
0.0
 42
0.4142135623730847
  0
SEQEND
  5
1129
  8
0
  6
CONTINUOUS
 62
     1
  0
POLYLINE
  5
294
  8
0
  6
CONTINUOUS
 62
     1
 66
     1
 10
0.0
 20
0.0
 30
0.0
 70
     1
  0
VERTEX
  5
112A
  8
0
  6
CONTINUOUS
 62
     1
 10
285.4721948206463935
 20
92.2488926612718245
 30
0.0
  0
VERTEX
  5
112B
  8
0
  6
CONTINUOUS
 62
     1
 10
273.4721948206463935
 20
92.2488926612718245
 30
0.0
 42
0.4142135623731038
  0
VERTEX
  5
112C
  8
0
  6
CONTINUOUS
 62
     1
 10
272.4721948206463935
 20
91.2488926612718245
 30
0.0
  0
VERTEX
  5
112D
  8
0
  6
CONTINUOUS
 62
     1
 10
272.4721948206463935
 20
79.2488926612718387
 30
0.0
 42
0.4142135623730992
  0
VERTEX
  5
112E
  8
0
  6
CONTINUOUS
 62
     1
 10
273.4721948206463935
 20
78.2488926612718387
 30
0.0
  0
VERTEX
  5
112F
  8
0
  6
CONTINUOUS
 62
     1
 10
285.4721948206463935
 20
78.2488926612718387
 30
0.0
 42
0.4142135623730869
  0
VERTEX
  5
1130
  8
0
  6
CONTINUOUS
 62
     1
 10
286.4721948206463935
 20
79.2488926612718387
 30
0.0
  0
VERTEX
  5
1131
  8
0
  6
CONTINUOUS
 62
     1
 10
286.4721948206463935
 20
91.2488926612718245
 30
0.0
 42
0.4142135623730826
  0
SEQEND
  5
1132
  8
0
  6
CONTINUOUS
 62
     1
  0
POLYLINE
  5
295
  8
0
  6
CONTINUOUS
 62
     1
 66
     1
 10
0.0
 20
0.0
 30
0.0
 70
     1
  0
VERTEX
  5
1133
  8
0
  6
CONTINUOUS
 62
     1
 10
314.5321948206461116
 20
111.2988926612716938
 30
0.0
  0
VERTEX
  5
1134
  8
0
  6
CONTINUOUS
 62
     1
 10
302.5321948206461116
 20
111.2988926612717933
 30
0.0
 42
0.4142135623731261
  0
VERTEX
  5
1135
  8
0
  6
CONTINUOUS
 62
     1
 10
301.5321948206461116
 20
110.2988926612716938
 30
0.0
  0
VERTEX
  5
1136
  8
0
  6
CONTINUOUS
 62
     1
 10
301.5321948206461116
 20
98.2988926612716654
 30
0.0
 42
0.4142135623731221
  0
VERTEX
  5
1137
  8
0
  6
CONTINUOUS
 62
     1
 10
302.5321948206461116
 20
97.2988926612716938
 30
0.0
  0
VERTEX
  5
1138
  8
0
  6
CONTINUOUS
 62
     1
 10
314.5321948206461116
 20
97.2988926612716938
 30
0.0
 42
0.4142135623730733
  0
VERTEX
  5
1139
  8
0
  6
CONTINUOUS
 62
     1
 10
315.5321948206461116
 20
98.2988926612716654
 30
0.0
  0
VERTEX
  5
113A
  8
0
  6
CONTINUOUS
 62
     1
 10
315.5321948206461116
 20
110.2988926612716938
 30
0.0
 42
0.414213562373068
  0
SEQEND
  5
113B
  8
0
  6
CONTINUOUS
 62
     1
  0
POLYLINE
  5
296
  8
0
  6
CONTINUOUS
 62
     1
 66
     1
 10
0.0
 20
0.0
 30
0.0
 70
     1
  0
VERTEX
  5
113C
  8
0
  6
CONTINUOUS
 62
     1
 10
276.8521948206462753
 20
112.3588926612716961
 30
0.0
  0
VERTEX
  5
113D
  8
0
  6
CONTINUOUS
 62
     1
 10
264.8521948206462753
 20
112.3588926612716961
 30
0.0
 42
0.414213562373064
  0
VERTEX
  5
113E
  8
0
  6
CONTINUOUS
 62
     1
 10
263.8521948206462753
 20
111.3588926612717955
 30
0.0
  0
VERTEX
  5
113F
  8
0
  6
CONTINUOUS
 62
     1
 10
263.8521948206462753
 20
99.358892661271824
 30
0.0
 42
0.414213562373068
  0
VERTEX
  5
1140
  8
0
  6
CONTINUOUS
 62
     1
 10
264.8521948206462753
 20
98.3588926612718382
 30
0.0
  0
VERTEX
  5
1141
  8
0
  6
CONTINUOUS
 62
     1
 10
276.8521948206462753
 20
98.3588926612718382
 30
0.0
 42
0.414213562373093
  0
VERTEX
  5
1142
  8
0
  6
CONTINUOUS
 62
     1
 10
277.8521948206462753
 20
99.358892661271824
 30
0.0
  0
VERTEX
  5
1143
  8
0
  6
CONTINUOUS
 62
     1
 10
277.8521948206462753
 20
111.3588926612717955
 30
0.0
 42
0.4142135623730925
  0
SEQEND
  5
1144
  8
0
  6
CONTINUOUS
 62
     1
  0
POLYLINE
  5
297
  8
0
  6
CONTINUOUS
 62
     1
 66
     1
 10
0.0
 20
0.0
 30
0.0
 70
     1
  0
VERTEX
  5
1145
  8
0
  6
CONTINUOUS
 62
     1
 10
338.3521948206462753
 20
111.2988926612716938
 30
0.0
  0
VERTEX
  5
1146
  8
0
  6
CONTINUOUS
 62
     1
 10
326.3521948206462753
 20
111.2988926612717933
 30
0.0
 42
0.4142135623730847
  0
VERTEX
  5
1147
  8
0
  6
CONTINUOUS
 62
     1
 10
325.3521948206462753
 20
110.2988926612716938
 30
0.0
  0
VERTEX
  5
1148
  8
0
  6
CONTINUOUS
 62
     1
 10
325.3521948206462753
 20
98.2988926612716654
 30
0.0
 42
0.4142135623730816
  0
VERTEX
  5
1149
  8
0
  6
CONTINUOUS
 62
     1
 10
326.3521948206462753
 20
97.2988926612716938
 30
0.0
  0
VERTEX
  5
114A
  8
0
  6
CONTINUOUS
 62
     1
 10
338.3521948206462753
 20
97.2988926612716938
 30
0.0
 42
0.4142135623731294
  0
VERTEX
  5
114B
  8
0
  6
CONTINUOUS
 62
     1
 10
339.3521948206462753
 20
98.2988926612716654
 30
0.0
  0
VERTEX
  5
114C
  8
0
  6
CONTINUOUS
 62
     1
 10
339.3521948206462753
 20
110.2988926612716938
 30
0.0
 42
0.4142135623731252
  0
SEQEND
  5
114D
  8
0
  6
CONTINUOUS
 62
     1
  0
POLYLINE
  5
298
  8
0
  6
CONTINUOUS
 62
     1
 66
     1
 10
0.0
 20
0.0
 30
0.0
 70
     1
  0
VERTEX
  5
114E
  8
0
  6
CONTINUOUS
 62
     1
 10
300.8421948206462844
 20
130.3488926612718046
 30
0.0
  0
VERTEX
  5
114F
  8
0
  6
CONTINUOUS
 62
     1
 10
288.8421948206462844
 20
130.3488926612718046
 30
0.0
 42
0.4142135623730665
  0
VERTEX
  5
1150
  8
0
  6
CONTINUOUS
 62
     1
 10
287.8421948206462844
 20
129.3488926612718046
 30
0.0
  0
VERTEX
  5
1151
  8
0
  6
CONTINUOUS
 62
     1
 10
287.8421948206462844
 20
117.3488926612717052
 30
0.0
 42
0.4142135623730612
  0
VERTEX
  5
1152
  8
0
  6
CONTINUOUS
 62
     1
 10
288.8421948206462844
 20
116.3488926612717052
 30
0.0
  0
VERTEX
  5
1153
  8
0
  6
CONTINUOUS
 62
     1
 10
300.8421948206462844
 20
116.3488926612718046
 30
0.0
 42
0.4142135623731278
  0
VERTEX
  5
1154
  8
0
  6
CONTINUOUS
 62
     1
 10
301.8421948206462844
 20
117.3488926612718046
 30
0.0
  0
VERTEX
  5
1155
  8
0
  6
CONTINUOUS
 62
     1
 10
301.8421948206462844
 20
129.3488926612718046
 30
0.0
 42
0.4142135623731411
  0
SEQEND
  5
1156
  8
0
  6
CONTINUOUS
 62
     1
  0
POLYLINE
  5
299
  8
0
  6
CONTINUOUS
 62
     1
 66
     1
 10
0.0
 20
0.0
 30
0.0
 70
     1
  0
VERTEX
  5
1157
  8
0
  6
CONTINUOUS
 62
     1
 10
282.2121948206464026
 20
132.488892661271791
 30
0.0
  0
VERTEX
  5
1158
  8
0
  6
CONTINUOUS
 62
     1
 10
270.2121948206464026
 20
132.488892661271791
 30
0.0
 42
0.4142135623730896
  0
VERTEX
  5
1159
  8
0
  6
CONTINUOUS
 62
     1
 10
269.2121948206464026
 20
131.488892661271791
 30
0.0
  0
VERTEX
  5
115A
  8
0
  6
CONTINUOUS
 62
     1
 10
269.2121948206464026
 20
119.4888926612718052
 30
0.0
 42
0.4142135623730879
  0
VERTEX
  5
115B
  8
0
  6
CONTINUOUS
 62
     1
 10
270.2121948206464026
 20
118.4888926612718052
 30
0.0
  0
VERTEX
  5
115C
  8
0
  6
CONTINUOUS
 62
     1
 10
282.2121948206464026
 20
118.4888926612718052
 30
0.0
 42
0.4142135623730903
  0
VERTEX
  5
115D
  8
0
  6
CONTINUOUS
 62
     1
 10
283.2121948206464026
 20
119.4888926612718052
 30
0.0
  0
VERTEX
  5
115E
  8
0
  6
CONTINUOUS
 62
     1
 10
283.2121948206464026
 20
131.488892661271791
 30
0.0
 42
0.4142135623730839
  0
SEQEND
  5
115F
  8
0
  6
CONTINUOUS
 62
     1
  0
POLYLINE
  5
29A
  8
0
  6
CONTINUOUS
 62
     1
 66
     1
 10
0.0
 20
0.0
 30
0.0
 70
     1
  0
VERTEX
  5
1160
  8
0
  6
CONTINUOUS
 62
     1
 10
94.0221948206460922
 20
73.19889266127187
 30
0.0
  0
VERTEX
  5
1161
  8
0
  6
CONTINUOUS
 62
     1
 10
82.0221948206460922
 20
73.19889266127187
 30
0.0
 42
0.4142135623731076
  0
VERTEX
  5
1162
  8
0
  6
CONTINUOUS
 62
     1
 10
81.0221948206461065
 20
72.19889266127187
 30
0.0
  0
VERTEX
  5
1163
  8
0
  6
CONTINUOUS
 62
     1
 10
81.0221948206461065
 20
60.1988926612717918
 30
0.0
 42
0.4142135623730808
  0
VERTEX
  5
1164
  8
0
  6
CONTINUOUS
 62
     1
 10
82.0221948206460922
 20
59.1988926612717776
 30
0.0
  0
VERTEX
  5
1165
  8
0
  6
CONTINUOUS
 62
     1
 10
94.0221948206460922
 20
59.1988926612717776
 30
0.0
 42
0.4142135623730826
  0
VERTEX
  5
1166
  8
0
  6
CONTINUOUS
 62
     1
 10
95.022194820646078
 20
60.1988926612717918
 30
0.0
  0
VERTEX
  5
1167
  8
0
  6
CONTINUOUS
 62
     1
 10
95.022194820646078
 20
72.19889266127187
 30
0.0
 42
0.4142135623730951
  0
SEQEND
  5
1168
  8
0
  6
CONTINUOUS
 62
     1
  0
POLYLINE
  5
29B
  8
0
  6
CONTINUOUS
 62
     1
 66
     1
 10
0.0
 20
0.0
 30
0.0
 70
     1
  0
VERTEX
  5
1169
  8
0
  6
CONTINUOUS
 62
     1
 10
63.5621948206462974
 20
130.3488926612718046
 30
0.0
  0
VERTEX
  5
116A
  8
0
  6
CONTINUOUS
 62
     1
 10
51.5621948206462974
 20
130.3488926612718046
 30
0.0
 42
0.4142135623731076
  0
VERTEX
  5
116B
  8
0
  6
CONTINUOUS
 62
     1
 10
50.5621948206462974
 20
129.3488926612718046
 30
0.0
  0
VERTEX
  5
116C
  8
0
  6
CONTINUOUS
 62
     1
 10
50.5621948206462974
 20
117.3488926612718046
 30
0.0
 42
0.4142135623731081
  0
VERTEX
  5
116D
  8
0
  6
CONTINUOUS
 62
     1
 10
51.5621948206462974
 20
116.3488926612718046
 30
0.0
  0
VERTEX
  5
116E
  8
0
  6
CONTINUOUS
 62
     1
 10
63.5621948206462974
 20
116.3488926612718046
 30
0.0
 42
0.4142135623730879
  0
VERTEX
  5
116F
  8
0
  6
CONTINUOUS
 62
     1
 10
64.5621948206462832
 20
117.3488926612718046
 30
0.0
  0
VERTEX
  5
1170
  8
0
  6
CONTINUOUS
 62
     1
 10
64.5621948206462832
 20
129.3488926612718046
 30
0.0
 42
0.414213562373093
  0
SEQEND
  5
1171
  8
0
  6
CONTINUOUS
 62
     1
  0
POLYLINE
  5
29C
  8
0
  6
CONTINUOUS
 62
     1
 66
     1
 10
0.0
 20
0.0
 30
0.0
 70
     1
  0
VERTEX
  5
1172
  8
0
  6
CONTINUOUS
 62
     1
 10
82.6121948206462662
 20
130.3488926612718046
 30
0.0
  0
VERTEX
  5
1173
  8
0
  6
CONTINUOUS
 62
     1
 10
70.612194820646252
 20
130.3488926612718046
 30
0.0
 42
0.4142135623731063
  0
VERTEX
  5
1174
  8
0
  6
CONTINUOUS
 62
     1
 10
69.612194820646252
 20
129.3488926612718046
 30
0.0
  0
VERTEX
  5
1175
  8
0
  6
CONTINUOUS
 62
     1
 10
69.612194820646252
 20
117.3488926612718046
 30
0.0
 42
0.4142135623731039
  0
VERTEX
  5
1176
  8
0
  6
CONTINUOUS
 62
     1
 10
70.612194820646252
 20
116.3488926612718046
 30
0.0
  0
VERTEX
  5
1177
  8
0
  6
CONTINUOUS
 62
     1
 10
82.6121948206462662
 20
116.3488926612718046
 30
0.0
 42
0.4142135623730904
  0
VERTEX
  5
1178
  8
0
  6
CONTINUOUS
 62
     1
 10
83.6121948206462235
 20
117.3488926612718046
 30
0.0
  0
VERTEX
  5
1179
  8
0
  6
CONTINUOUS
 62
     1
 10
83.6121948206462235
 20
129.3488926612718046
 30
0.0
 42
0.4142135623730968
  0
SEQEND
  5
117A
  8
0
  6
CONTINUOUS
 62
     1
  0
POLYLINE
  5
29D
  8
0
  6
CONTINUOUS
 62
     1
 66
     1
 10
0.0
 20
0.0
 30
0.0
 70
     1
  0
VERTEX
  5
117B
  8
0
  6
CONTINUOUS
 62
     1
 10
101.2521948206460962
 20
132.488892661271791
 30
0.0
  0
VERTEX
  5
117C
  8
0
  6
CONTINUOUS
 62
     1
 10
89.2521948206461246
 20
132.488892661271791
 30
0.0
 42
0.4142135623730943
  0
VERTEX
  5
117D
  8
0
  6
CONTINUOUS
 62
     1
 10
88.2521948206461246
 20
131.488892661271791
 30
0.0
  0
VERTEX
  5
117E
  8
0
  6
CONTINUOUS
 62
     1
 10
88.2521948206461246
 20
119.4888926612718052
 30
0.0
 42
0.4142135623731049
  0
VERTEX
  5
117F
  8
0
  6
CONTINUOUS
 62
     1
 10
89.2521948206461246
 20
118.4888926612718052
 30
0.0
  0
VERTEX
  5
1180
  8
0
  6
CONTINUOUS
 62
     1
 10
101.2521948206460962
 20
118.4888926612718052
 30
0.0
 42
0.4142135623730809
  0
VERTEX
  5
1181
  8
0
  6
CONTINUOUS
 62
     1
 10
102.2521948206460962
 20
119.4888926612718052
 30
0.0
  0
VERTEX
  5
1182
  8
0
  6
CONTINUOUS
 62
     1
 10
102.2521948206460962
 20
131.488892661271791
 30
0.0
 42
0.4142135623730865
  0
SEQEND
  5
1183
  8
0
  6
CONTINUOUS
 62
     1
  0
POLYLINE
  5
29E
  8
0
  6
CONTINUOUS
 62
     1
 66
     1
 10
0.0
 20
0.0
 30
0.0
 70
     1
  0
VERTEX
  5
1184
  8
0
  6
CONTINUOUS
 62
     1
 10
87.9721948206463793
 20
111.2988926612716938
 30
0.0
  0
VERTEX
  5
1185
  8
0
  6
CONTINUOUS
 62
     1
 10
75.9721948206463651
 20
111.2988926612717933
 30
0.0
 42
0.414213562373093
  0
VERTEX
  5
1186
  8
0
  6
CONTINUOUS
 62
     1
 10
74.9721948206463935
 20
110.2988926612716938
 30
0.0
  0
VERTEX
  5
1187
  8
0
  6
CONTINUOUS
 62
     1
 10
74.9721948206463935
 20
98.2988926612716654
 30
0.0
 42
0.4142135623730919
  0
VERTEX
  5
1188
  8
0
  6
CONTINUOUS
 62
     1
 10
75.9721948206463651
 20
97.2988926612716938
 30
0.0
  0
VERTEX
  5
1189
  8
0
  6
CONTINUOUS
 62
     1
 10
87.9721948206463793
 20
97.2988926612716938
 30
0.0
 42
0.4142135623730888
  0
VERTEX
  5
118A
  8
0
  6
CONTINUOUS
 62
     1
 10
88.9721948206463935
 20
98.2988926612716654
 30
0.0
  0
VERTEX
  5
118B
  8
0
  6
CONTINUOUS
 62
     1
 10
88.9721948206463935
 20
110.2988926612716938
 30
0.0
 42
0.4142135623730935
  0
SEQEND
  5
118C
  8
0
  6
CONTINUOUS
 62
     1
  0
POLYLINE
  5
29F
  8
0
  6
CONTINUOUS
 62
     1
 66
     1
 10
0.0
 20
0.0
 30
0.0
  0
VERTEX
  5
118D
  8
0
  6
CONTINUOUS
 62
     1
 10
57.7121948206463884
 20
92.2488926612718245
 30
0.0
  0
VERTEX
  5
118E
  8
0
  6
CONTINUOUS
 62
     1
 10
45.7121948206463884
 20
92.2488926612718245
 30
0.0
 42
0.4142135623730836
  0
VERTEX
  5
118F
  8
0
  6
CONTINUOUS
 62
     1
 10
44.7121948206463884
 20
91.2488926612718245
 30
0.0
  0
VERTEX
  5
1190
  8
0
  6
CONTINUOUS
 62
     1
 10
44.7121948206463884
 20
79.2488926612718387
 30
0.0
 42
0.4142135623730808
  0
VERTEX
  5
1191
  8
0
  6
CONTINUOUS
 62
     1
 10
45.7121948206463884
 20
78.2488926612718387
 30
0.0
  0
VERTEX
  5
1192
  8
0
  6
CONTINUOUS
 62
     1
 10
57.7121948206463884
 20
78.2488926612718387
 30
0.0
  0
SEQEND
  5
1193
  8
0
  6
CONTINUOUS
 62
     1
  0
POLYLINE
  5
2A0
  8
0
  6
CONTINUOUS
 62
     1
 66
     1
 10
0.0
 20
0.0
 30
0.0
 70
     1
  0
VERTEX
  5
1194
  8
0
  6
CONTINUOUS
 62
     1
 10
64.1621948206464197
 20
111.2988926612716938
 30
0.0
  0
VERTEX
  5
1195
  8
0
  6
CONTINUOUS
 62
     1
 10
52.1621948206464268
 20
111.2988926612717933
 30
0.0
 42
0.4142135623731091
  0
VERTEX
  5
1196
  8
0
  6
CONTINUOUS
 62
     1
 10
51.1621948206464268
 20
110.2988926612716938
 30
0.0
  0
VERTEX
  5
1197
  8
0
  6
CONTINUOUS
 62
     1
 10
51.1621948206464268
 20
98.2988926612716654
 30
0.0
 42
0.4142135623731086
  0
VERTEX
  5
1198
  8
0
  6
CONTINUOUS
 62
     1
 10
52.1621948206464268
 20
97.2988926612716938
 30
0.0
  0
VERTEX
  5
1199
  8
0
  6
CONTINUOUS
 62
     1
 10
64.1621948206464197
 20
97.2988926612716938
 30
0.0
 42
0.4142135623730879
  0
VERTEX
  5
119A
  8
0
  6
CONTINUOUS
 62
     1
 10
65.1621948206464054
 20
98.2988926612716654
 30
0.0
  0
VERTEX
  5
119B
  8
0
  6
CONTINUOUS
 62
     1
 10
65.1621948206464054
 20
110.2988926612716938
 30
0.0
 42
0.4142135623730951
  0
SEQEND
  5
119C
  8
0
  6
CONTINUOUS
 62
     1
  0
POLYLINE
  5
2A1
  8
0
  6
CONTINUOUS
 62
     1
 66
     1
 10
0.0
 20
0.0
 30
0.0
 70
     1
  0
VERTEX
  5
119D
  8
0
  6
CONTINUOUS
 62
     1
 10
88.6721948206464106
 20
92.2488926612718245
 30
0.0
  0
VERTEX
  5
119E
  8
0
  6
CONTINUOUS
 62
     1
 10
76.6721948206464106
 20
92.2488926612718245
 30
0.0
 42
0.4142135623730911
  0
VERTEX
  5
119F
  8
0
  6
CONTINUOUS
 62
     1
 10
75.6721948206464106
 20
91.2488926612718245
 30
0.0
  0
VERTEX
  5
11A0
  8
0
  6
CONTINUOUS
 62
     1
 10
75.6721948206464106
 20
79.2488926612718387
 30
0.0
 42
0.4142135623730888
  0
VERTEX
  5
11A1
  8
0
  6
CONTINUOUS
 62
     1
 10
76.6721948206464106
 20
78.2488926612718387
 30
0.0
  0
VERTEX
  5
11A2
  8
0
  6
CONTINUOUS
 62
     1
 10
88.6721948206464106
 20
78.2488926612718387
 30
0.0
 42
0.4142135623730847
  0
VERTEX
  5
11A3
  8
0
  6
CONTINUOUS
 62
     1
 10
89.6721948206463964
 20
79.2488926612718387
 30
0.0
  0
VERTEX
  5
11A4
  8
0
  6
CONTINUOUS
 62
     1
 10
89.6721948206463964
 20
91.2488926612718245
 30
0.0
 42
0.4142135623730951
  0
SEQEND
  5
11A5
  8
0
  6
CONTINUOUS
 62
     1
  0
POLYLINE
  5
2A2
  8
0
  6
CONTINUOUS
 62
     1
 66
     1
 10
0.0
 20
0.0
 30
0.0
 70
     1
  0
VERTEX
  5
11A6
  8
0
  6
CONTINUOUS
 62
     1
 10
123.076462260773198
 20
127.1284557215018935
 30
0.0
  0
VERTEX
  5
11A7
  8
0
  6
CONTINUOUS
 62
     1
 10
111.3386910519681976
 20
129.623396011315009
 30
0.0
 42
0.4142135623731141
  0
VERTEX
  5
11A8
  8
0
  6
CONTINUOUS
 62
     1
 10
110.1526317604161989
 20
128.8531601013989984
 30
0.0
  0
VERTEX
  5
11A9
  8
0
  6
CONTINUOUS
 62
     1
 10
107.6576914706033961
 20
117.1153888925932023
 30
0.0
 42
0.4142135623730951
  0
VERTEX
  5
11AA
  8
0
  6
CONTINUOUS
 62
     1
 10
108.4279273805194066
 20
115.9293296010416014
 30
0.0
  0
VERTEX
  5
11AB
  8
0
  6
CONTINUOUS
 62
     1
 10
120.1656985893253022
 20
113.4343893112285002
 30
0.0
 42
0.4142135623731356
  0
VERTEX
  5
11AC
  8
0
  6
CONTINUOUS
 62
     1
 10
121.3517578808759936
 20
114.204625221144596
 30
0.0
  0
VERTEX
  5
11AD
  8
0
  6
CONTINUOUS
 62
     1
 10
123.8466981706891943
 20
125.9423964299503069
 30
0.0
 42
0.4142135623731324
  0
SEQEND
  5
11AE
  8
0
  6
CONTINUOUS
 62
     1
  0
POLYLINE
  5
2A3
  8
0
  6
CONTINUOUS
 62
     1
 66
     1
 10
0.0
 20
0.0
 30
0.0
 70
     1
  0
VERTEX
  5
11AF
  8
0
  6
CONTINUOUS
 62
     1
 10
109.7964622607731968
 20
110.4784557215018026
 30
0.0
  0
VERTEX
  5
11B0
  8
0
  6
CONTINUOUS
 62
     1
 10
98.0586910519682817
 20
112.9733960113150033
 30
0.0
 42
0.4142135623731173
  0
VERTEX
  5
11B1
  8
0
  6
CONTINUOUS
 62
     1
 10
96.8726317604166809
 20
112.2031601013987938
 30
0.0
  0
VERTEX
  5
11B2
  8
0
  6
CONTINUOUS
 62
     1
 10
94.3776914706034091
 20
100.4653888925930971
 30
0.0
 42
0.4142135623731062
  0
VERTEX
  5
11B3
  8
0
  6
CONTINUOUS
 62
     1
 10
95.1479273805194339
 20
99.279329601041681
 30
0.0
  0
VERTEX
  5
11B4
  8
0
  6
CONTINUOUS
 62
     1
 10
106.8856985893253011
 20
96.7843893112285514
 30
0.0
 42
0.41421356237313
  0
VERTEX
  5
11B5
  8
0
  6
CONTINUOUS
 62
     1
 10
108.0717578808760067
 20
97.5546252211447751
 30
0.0
  0
VERTEX
  5
11B6
  8
0
  6
CONTINUOUS
 62
     1
 10
110.5666981706893068
 20
109.2923964299502018
 30
0.0
 42
0.4142135623731507
  0
SEQEND
  5
11B7
  8
0
  6
CONTINUOUS
 62
     1
  0
POLYLINE
  5
2A4
  8
0
  6
CONTINUOUS
 62
     1
 66
     1
 10
0.0
 20
0.0
 30
0.0
 70
     1
  0
VERTEX
  5
11B8
  8
0
  6
CONTINUOUS
 62
     1
 10
111.0364622607733054
 20
50.2484557215018484
 30
0.0
  0
VERTEX
  5
11B9
  8
0
  6
CONTINUOUS
 62
     1
 10
99.2986910519682908
 20
52.7433960113149922
 30
0.0
 42
0.4142135623731507
  0
VERTEX
  5
11BA
  8
0
  6
CONTINUOUS
 62
     1
 10
98.1126317604162637
 20
51.9731601013988893
 30
0.0
  0
VERTEX
  5
11BB
  8
0
  6
CONTINUOUS
 62
     1
 10
95.6176914706036882
 20
40.2353888925932708
 30
0.0
 42
0.4142135623730641
  0
VERTEX
  5
11BC
  8
0
  6
CONTINUOUS
 62
     1
 10
96.3879273805194288
 20
39.0493296010416913
 30
0.0
  0
VERTEX
  5
11BD
  8
0
  6
CONTINUOUS
 62
     1
 10
108.1256985893253955
 20
36.5543893112285474
 30
0.0
 42
0.4142135623731162
  0
VERTEX
  5
11BE
  8
0
  6
CONTINUOUS
 62
     1
 10
109.311757880876101
 20
37.3246252211446432
 30
0.0
  0
VERTEX
  5
11BF
  8
0
  6
CONTINUOUS
 62
     1
 10
111.8066981706893017
 20
49.0623964299502475
 30
0.0
 42
0.414213562373117
  0
SEQEND
  5
11C0
  8
0
  6
CONTINUOUS
 62
     1
  0
POLYLINE
  5
2A5
  8
0
  6
CONTINUOUS
 62
     1
 66
     1
 10
0.0
 20
0.0
 30
0.0
 70
     1
  0
VERTEX
  5
11C1
  8
0
  6
CONTINUOUS
 62
     1
 10
115.8464622607732935
 20
70.2384557215018503
 30
0.0
  0
VERTEX
  5
11C2
  8
0
  6
CONTINUOUS
 62
     1
 10
104.1086910519681936
 20
72.7333960113150795
 30
0.0
 42
0.4142135623731184
  0
VERTEX
  5
11C3
  8
0
  6
CONTINUOUS
 62
     1
 10
102.9226317604161949
 20
71.9631601013988984
 30
0.0
  0
VERTEX
  5
11C4
  8
0
  6
CONTINUOUS
 62
     1
 10
100.4276914706034063
 20
60.2253888925933012
 30
0.0
 42
0.4142135623730567
  0
VERTEX
  5
11C5
  8
0
  6
CONTINUOUS
 62
     1
 10
101.1979273805194026
 20
59.039329601041679
 30
0.0
  0
VERTEX
  5
11C6
  8
0
  6
CONTINUOUS
 62
     1
 10
112.9356985893252983
 20
56.5443893112285494
 30
0.0
 42
0.4142135623731162
  0
VERTEX
  5
11C7
  8
0
  6
CONTINUOUS
 62
     1
 10
114.1217578808765012
 20
57.3146252211447589
 30
0.0
  0
VERTEX
  5
11C8
  8
0
  6
CONTINUOUS
 62
     1
 10
116.6166981706892045
 20
69.0523964299503632
 30
0.0
 42
0.4142135623731189
  0
SEQEND
  5
11C9
  8
0
  6
CONTINUOUS
 62
     1
  0
POLYLINE
  5
2A6
  8
0
  6
CONTINUOUS
 62
     1
 66
     1
 10
0.0
 20
0.0
 30
0.0
 70
     1
  0
VERTEX
  5
11CA
  8
0
  6
CONTINUOUS
 62
     1
 10
110.4964622607733986
 20
90.848455721501864
 30
0.0
  0
VERTEX
  5
11CB
  8
0
  6
CONTINUOUS
 62
     1
 10
98.7586910519674319
 20
93.3433960113148657
 30
0.0
 42
0.4142135623731073
  0
VERTEX
  5
11CC
  8
0
  6
CONTINUOUS
 62
     1
 10
97.5726317604160442
 20
92.5731601013990257
 30
0.0
  0
VERTEX
  5
11CD
  8
0
  6
CONTINUOUS
 62
     1
 10
95.0776914706032414
 20
80.8353888925931727
 30
0.0
 42
0.414213562373078
  0
VERTEX
  5
11CE
  8
0
  6
CONTINUOUS
 62
     1
 10
95.8479273805194509
 20
79.6493296010415861
 30
0.0
  0
VERTEX
  5
11CF
  8
0
  6
CONTINUOUS
 62
     1
 10
107.5856985893254034
 20
77.1543893112285417
 30
0.0
 42
0.4142135623731159
  0
VERTEX
  5
11D0
  8
0
  6
CONTINUOUS
 62
     1
 10
108.7717578808759953
 20
77.9246252211446517
 30
0.0
  0
VERTEX
  5
11D1
  8
0
  6
CONTINUOUS
 62
     1
 10
111.2666981706903044
 20
89.6623964299502347
 30
0.0
 42
0.4142135623731232
  0
SEQEND
  5
11D2
  8
0
  6
CONTINUOUS
 62
     1
  0
POLYLINE
  5
2A7
  8
0
  6
CONTINUOUS
 62
     1
 66
     1
 10
0.0
 20
0.0
 30
0.0
 70
     1
  0
VERTEX
  5
11D3
  8
0
  6
CONTINUOUS
 62
     1
 10
141.7101740547520023
 20
123.167738011423495
 30
0.0
  0
VERTEX
  5
11D4
  8
0
  6
CONTINUOUS
 62
     1
 10
129.9724028459473004
 20
125.6626783012365962
 30
0.0
 42
0.4142135623731033
  0
VERTEX
  5
11D5
  8
0
  6
CONTINUOUS
 62
     1
 10
128.7863435543955006
 20
124.8924423913206994
 30
0.0
  0
VERTEX
  5
11D6
  8
0
  6
CONTINUOUS
 62
     1
 10
126.2914032645823994
 20
113.1546711825148037
 30
0.0
 42
0.4142135623731002
  0
VERTEX
  5
11D7
  8
0
  6
CONTINUOUS
 62
     1
 10
127.0616391744983957
 20
111.9686118909633024
 30
0.0
  0
VERTEX
  5
11D8
  8
0
  6
CONTINUOUS
 62
     1
 10
138.7994103833044051
 20
109.4736716011502011
 30
0.0
 42
0.4142135623731076
  0
VERTEX
  5
11D9
  8
0
  6
CONTINUOUS
 62
     1
 10
139.9854696748554943
 20
110.2439075110661975
 30
0.0
  0
VERTEX
  5
11DA
  8
0
  6
CONTINUOUS
 62
     1
 10
142.4804099646692066
 20
121.9816787198717947
 30
0.0
 42
0.4142135623731356
  0
SEQEND
  5
11DB
  8
0
  6
CONTINUOUS
 62
     1
  0
POLYLINE
  5
2A8
  8
0
  6
CONTINUOUS
 62
     1
 66
     1
 10
0.0
 20
0.0
 30
0.0
 70
     1
  0
VERTEX
  5
11DC
  8
0
  6
CONTINUOUS
 62
     1
 10
128.4301740547520865
 20
106.5177380114235035
 30
0.0
  0
VERTEX
  5
11DD
  8
0
  6
CONTINUOUS
 62
     1
 10
116.6924028459474982
 20
109.0126783012367042
 30
0.0
 42
0.41421356237311
  0
VERTEX
  5
11DE
  8
0
  6
CONTINUOUS
 62
     1
 10
115.5063435543954995
 20
108.2424423913205942
 30
0.0
  0
VERTEX
  5
11DF
  8
0
  6
CONTINUOUS
 62
     1
 10
113.0114032645821993
 20
96.5046711825150538
 30
0.0
 42
0.4142135623730832
  0
VERTEX
  5
11E0
  8
0
  6
CONTINUOUS
 62
     1
 10
113.781639174498693
 20
95.3186118909634388
 30
0.0
  0
VERTEX
  5
11E1
  8
0
  6
CONTINUOUS
 62
     1
 10
125.5194103833044039
 20
92.8236716011501812
 30
0.0
 42
0.4142135623731247
  0
VERTEX
  5
11E2
  8
0
  6
CONTINUOUS
 62
     1
 10
126.7054696748551947
 20
93.593907511066277
 30
0.0
  0
VERTEX
  5
11E3
  8
0
  6
CONTINUOUS
 62
     1
 10
129.2004099646694897
 20
105.3316787198720021
 30
0.0
 42
0.414213562373143
  0
SEQEND
  5
11E4
  8
0
  6
CONTINUOUS
 62
     1
  0
POLYLINE
  5
2A9
  8
0
  6
CONTINUOUS
 62
     1
 66
     1
 10
0.0
 20
0.0
 30
0.0
 70
     1
  0
VERTEX
  5
11E5
  8
0
  6
CONTINUOUS
 62
     1
 10
129.130174054753212
 20
86.8877380114234938
 30
0.0
  0
VERTEX
  5
11E6
  8
0
  6
CONTINUOUS
 62
     1
 10
117.3924028459474016
 20
89.3826783012366093
 30
0.0
 42
0.4142135623731301
  0
VERTEX
  5
11E7
  8
0
  6
CONTINUOUS
 62
     1
 10
116.2063435543953034
 20
88.6124423913206556
 30
0.0
  0
VERTEX
  5
11E8
  8
0
  6
CONTINUOUS
 62
     1
 10
113.7114032645820032
 20
76.8746711825150442
 30
0.0
 42
0.4142135623730597
  0
VERTEX
  5
11E9
  8
0
  6
CONTINUOUS
 62
     1
 10
114.4816391744981985
 20
75.6886118909633439
 30
0.0
  0
VERTEX
  5
11EA
  8
0
  6
CONTINUOUS
 62
     1
 10
126.2194103833047052
 20
73.1936716011503137
 30
0.0
 42
0.4142135623731333
  0
VERTEX
  5
11EB
  8
0
  6
CONTINUOUS
 62
     1
 10
127.4054696748555955
 20
73.9639075110662532
 30
0.0
  0
VERTEX
  5
11EC
  8
0
  6
CONTINUOUS
 62
     1
 10
129.9004099646681993
 20
85.701678719871893
 30
0.0
 42
0.4142135623731162
  0
SEQEND
  5
11ED
  8
0
  6
CONTINUOUS
 62
     1
  0
POLYLINE
  5
2AA
  8
0
  6
CONTINUOUS
 62
     1
 66
     1
 10
0.0
 20
0.0
 30
0.0
 70
     1
  0
VERTEX
  5
11EE
  8
0
  6
CONTINUOUS
 62
     1
 10
134.4801740547520126
 20
66.2777380114235939
 30
0.0
  0
VERTEX
  5
11EF
  8
0
  6
CONTINUOUS
 62
     1
 10
122.7424028459464012
 20
68.7726783012367378
 30
0.0
 42
0.4142135623731062
  0
VERTEX
  5
11F0
  8
0
  6
CONTINUOUS
 62
     1
 10
121.5563435543953972
 20
68.0024423913206419
 30
0.0
  0
VERTEX
  5
11F1
  8
0
  6
CONTINUOUS
 62
     1
 10
119.0614032645823954
 20
56.2646711825150376
 30
0.0
 42
0.4142135623730641
  0
VERTEX
  5
11F2
  8
0
  6
CONTINUOUS
 62
     1
 10
119.831639174498406
 20
55.0786118909634368
 30
0.0
  0
VERTEX
  5
11F3
  8
0
  6
CONTINUOUS
 62
     1
 10
131.5694103833043869
 20
52.5836716011502787
 30
0.0
 42
0.4142135623731162
  0
VERTEX
  5
11F4
  8
0
  6
CONTINUOUS
 62
     1
 10
132.7554696748555045
 20
53.3539075110664029
 30
0.0
  0
VERTEX
  5
11F5
  8
0
  6
CONTINUOUS
 62
     1
 10
135.2504099646683073
 20
65.0916787198721067
 30
0.0
 42
0.414213562373086
  0
SEQEND
  5
11F6
  8
0
  6
CONTINUOUS
 62
     1
  0
POLYLINE
  5
2AB
  8
0
  6
CONTINUOUS
 62
     1
 66
     1
 10
0.0
 20
0.0
 30
0.0
 70
     1
  0
VERTEX
  5
11F7
  8
0
  6
CONTINUOUS
 62
     1
 10
160.3438858487313894
 20
119.2070203013452954
 30
0.0
  0
VERTEX
  5
11F8
  8
0
  6
CONTINUOUS
 62
     1
 10
148.6061146399262043
 20
121.7019605911583966
 30
0.0
 42
0.4142135623731325
  0
VERTEX
  5
11F9
  8
0
  6
CONTINUOUS
 62
     1
 10
147.4200553483740066
 20
120.9317246812422013
 30
0.0
  0
VERTEX
  5
11FA
  8
0
  6
CONTINUOUS
 62
     1
 10
144.925115058561488
 20
109.1939534724366041
 30
0.0
 42
0.4142135623730682
  0
VERTEX
  5
11FB
  8
0
  6
CONTINUOUS
 62
     1
 10
145.6953509684771859
 20
108.0078941808850033
 30
0.0
  0
VERTEX
  5
11FC
  8
0
  6
CONTINUOUS
 62
     1
 10
157.4331221772833089
 20
105.512953891071902
 30
0.0
 42
0.4142135623731232
  0
VERTEX
  5
11FD
  8
0
  6
CONTINUOUS
 62
     1
 10
158.6191814688343129
 20
106.2831898009879978
 30
0.0
  0
VERTEX
  5
11FE
  8
0
  6
CONTINUOUS
 62
     1
 10
161.1141217586473999
 20
118.0209610097935951
 30
0.0
 42
0.4142135623730982
  0
SEQEND
  5
11FF
  8
0
  6
CONTINUOUS
 62
     1
  0
POLYLINE
  5
2AC
  8
0
  6
CONTINUOUS
 62
     1
 66
     1
 10
0.0
 20
0.0
 30
0.0
 70
     1
  0
VERTEX
  5
1200
  8
0
  6
CONTINUOUS
 62
     1
 10
147.0638858487313883
 20
102.5570203013452044
 30
0.0
  0
VERTEX
  5
1201
  8
0
  6
CONTINUOUS
 62
     1
 10
135.3261146399264021
 20
105.0519605911583056
 30
0.0
 42
0.4142135623731165
  0
VERTEX
  5
1202
  8
0
  6
CONTINUOUS
 62
     1
 10
134.1400553483740055
 20
104.2817246812421956
 30
0.0
  0
VERTEX
  5
1203
  8
0
  6
CONTINUOUS
 62
     1
 10
131.6451150585612879
 20
92.5439534724366695
 30
0.0
 42
0.4142135623730819
  0
VERTEX
  5
1204
  8
0
  6
CONTINUOUS
 62
     1
 10
132.4153509684772985
 20
91.3578941808850544
 30
0.0
  0
VERTEX
  5
1205
  8
0
  6
CONTINUOUS
 62
     1
 10
144.1531221772835067
 20
88.8629538910720242
 30
0.0
 42
0.4142135623731359
  0
VERTEX
  5
1206
  8
0
  6
CONTINUOUS
 62
     1
 10
145.339181468834397
 20
89.6331898009880348
 30
0.0
  0
VERTEX
  5
1207
  8
0
  6
CONTINUOUS
 62
     1
 10
147.8341217586479956
 20
101.3709610097936036
 30
0.0
 42
0.4142135623731411
  0
SEQEND
  5
1208
  8
0
  6
CONTINUOUS
 62
     1
  0
POLYLINE
  5
2AD
  8
0
  6
CONTINUOUS
 62
     1
 66
     1
 10
0.0
 20
0.0
 30
0.0
 70
     1
  0
VERTEX
  5
1209
  8
0
  6
CONTINUOUS
 62
     1
 10
147.7638858487312064
 20
82.9270203013452232
 30
0.0
  0
VERTEX
  5
120A
  8
0
  6
CONTINUOUS
 62
     1
 10
136.0261146399263907
 20
85.4219605911582534
 30
0.0
 42
0.4142135623730992
  0
VERTEX
  5
120B
  8
0
  6
CONTINUOUS
 62
     1
 10
134.840055348374392
 20
84.6517246812422854
 30
0.0
  0
VERTEX
  5
120C
  8
0
  6
CONTINUOUS
 62
     1
 10
132.345115058561305
 20
72.913953472436674
 30
0.0
 42
0.4142135623731364
  0
VERTEX
  5
120D
  8
0
  6
CONTINUOUS
 62
     1
 10
133.1153509684772871
 20
71.7278941808852011
 30
0.0
  0
VERTEX
  5
120E
  8
0
  6
CONTINUOUS
 62
     1
 10
144.8531221772832112
 20
69.2329538910719293
 30
0.0
 42
0.4142135623731289
  0
VERTEX
  5
120F
  8
0
  6
CONTINUOUS
 62
     1
 10
146.0391814688341867
 20
70.0031898009881388
 30
0.0
  0
VERTEX
  5
1210
  8
0
  6
CONTINUOUS
 62
     1
 10
148.5341217586477001
 20
81.7409610097936365
 30
0.0
 42
0.4142135623731104
  0
SEQEND
  5
1211
  8
0
  6
CONTINUOUS
 62
     1
  0
POLYLINE
  5
2AE
  8
0
  6
CONTINUOUS
 62
     1
 66
     1
 10
0.0
 20
0.0
 30
0.0
 70
     1
  0
VERTEX
  5
1212
  8
0
  6
CONTINUOUS
 62
     1
 10
153.1138858487313996
 20
62.3170203013453587
 30
0.0
  0
VERTEX
  5
1213
  8
0
  6
CONTINUOUS
 62
     1
 10
141.3761146399259019
 20
64.8119605911583676
 30
0.0
 42
0.4142135623731062
  0
VERTEX
  5
1214
  8
0
  6
CONTINUOUS
 62
     1
 10
140.1900553483739884
 20
64.0417246812423997
 30
0.0
  0
VERTEX
  5
1215
  8
0
  6
CONTINUOUS
 62
     1
 10
137.695115058561214
 20
52.3039534724366675
 30
0.0
 42
0.4142135623730749
  0
VERTEX
  5
1216
  8
0
  6
CONTINUOUS
 62
     1
 10
138.4653509684773951
 20
51.1178941808850524
 30
0.0
  0
VERTEX
  5
1217
  8
0
  6
CONTINUOUS
 62
     1
 10
150.2031221772832907
 20
48.6229538910720223
 30
0.0
 42
0.4142135623731244
  0
VERTEX
  5
1218
  8
0
  6
CONTINUOUS
 62
     1
 10
151.3891814688342095
 20
49.3931898009880186
 30
0.0
  0
VERTEX
  5
1219
  8
0
  6
CONTINUOUS
 62
     1
 10
153.8841217586474102
 20
61.1309610097937366
 30
0.0
 42
0.4142135623731066
  0
SEQEND
  5
121A
  8
0
  6
CONTINUOUS
 62
     1
  0
POLYLINE
  5
2AF
  8
0
  6
CONTINUOUS
 62
     1
 66
     1
 10
0.0
 20
0.0
 30
0.0
 70
     1
  0
VERTEX
  5
121B
  8
0
  6
CONTINUOUS
 62
     1
 10
178.9775976427104069
 20
115.2463025912669963
 30
0.0
  0
VERTEX
  5
121C
  8
0
  6
CONTINUOUS
 62
     1
 10
167.2398264339051934
 20
117.741242881079998
 30
0.0
 42
0.4142135623731414
  0
VERTEX
  5
121D
  8
0
  6
CONTINUOUS
 62
     1
 10
166.0537671423533084
 20
116.9710069711641012
 30
0.0
  0
VERTEX
  5
121E
  8
0
  6
CONTINUOUS
 62
     1
 10
163.5588268525401077
 20
105.2332357623581061
 30
0.0
 42
0.4142135623730774
  0
VERTEX
  5
121F
  8
0
  6
CONTINUOUS
 62
     1
 10
164.3290627624560045
 20
104.0471764708065052
 30
0.0
  0
VERTEX
  5
1220
  8
0
  6
CONTINUOUS
 62
     1
 10
176.0668339712622981
 20
101.5522361809935035
 30
0.0
 42
0.4142135623731182
  0
VERTEX
  5
1221
  8
0
  6
CONTINUOUS
 62
     1
 10
177.2528932628133873
 20
102.3224720909096987
 30
0.0
  0
VERTEX
  5
1222
  8
0
  6
CONTINUOUS
 62
     1
 10
179.7478335526263891
 20
114.0602432997153954
 30
0.0
 42
0.4142135623731461
  0
SEQEND
  5
1223
  8
0
  6
CONTINUOUS
 62
     1
  0
POLYLINE
  5
2B0
  8
0
  6
CONTINUOUS
 62
     1
 66
     1
 10
0.0
 20
0.0
 30
0.0
 70
     1
  0
VERTEX
  5
1224
  8
0
  6
CONTINUOUS
 62
     1
 10
165.6975976427100079
 20
98.5963025912669622
 30
0.0
  0
VERTEX
  5
1225
  8
0
  6
CONTINUOUS
 62
     1
 10
153.9598264339049933
 20
101.0912428810802055
 30
0.0
 42
0.4142135623731097
  0
VERTEX
  5
1226
  8
0
  6
CONTINUOUS
 62
     1
 10
152.7737671423533925
 20
100.321006971163996
 30
0.0
  0
VERTEX
  5
1227
  8
0
  6
CONTINUOUS
 62
     1
 10
150.2788268525401065
 20
88.5832357623582993
 30
0.0
 42
0.4142135623730673
  0
VERTEX
  5
1228
  8
0
  6
CONTINUOUS
 62
     1
 10
151.0490627624560034
 20
87.3971764708066843
 30
0.0
  0
VERTEX
  5
1229
  8
0
  6
CONTINUOUS
 62
     1
 10
162.786833971262098
 20
84.9022361809936683
 30
0.0
 42
0.414213562373152
  0
VERTEX
  5
122A
  8
0
  6
CONTINUOUS
 62
     1
 10
163.9728932628131872
 20
85.6724720909096504
 30
0.0
  0
VERTEX
  5
122B
  8
0
  6
CONTINUOUS
 62
     1
 10
166.4678335526267006
 20
97.4102432997153471
 30
0.0
 42
0.4142135623731692
  0
SEQEND
  5
122C
  8
0
  6
CONTINUOUS
 62
     1
  0
POLYLINE
  5
2B1
  8
0
  6
CONTINUOUS
 62
     1
 66
     1
 10
0.0
 20
0.0
 30
0.0
 70
     1
  0
VERTEX
  5
122D
  8
0
  6
CONTINUOUS
 62
     1
 10
166.3975976427113892
 20
78.9663025912668672
 30
0.0
  0
VERTEX
  5
122E
  8
0
  6
CONTINUOUS
 62
     1
 10
154.6598264339052946
 20
81.4612428810801248
 30
0.0
 42
0.4142135623731335
  0
VERTEX
  5
122F
  8
0
  6
CONTINUOUS
 62
     1
 10
153.4737671423534096
 20
80.6910069711640148
 30
0.0
  0
VERTEX
  5
1230
  8
0
  6
CONTINUOUS
 62
     1
 10
150.9788268525404078
 20
68.9532357623584176
 30
0.0
 42
0.4142135623731182
  0
VERTEX
  5
1231
  8
0
  6
CONTINUOUS
 62
     1
 10
151.7490627624563047
 20
67.7671764708068025
 30
0.0
  0
VERTEX
  5
1232
  8
0
  6
CONTINUOUS
 62
     1
 10
163.4868339712618877
 20
65.2722361809936729
 30
0.0
 42
0.4142135623730808
  0
VERTEX
  5
1233
  8
0
  6
CONTINUOUS
 62
     1
 10
164.6728932628134032
 20
66.0424720909097687
 30
0.0
  0
VERTEX
  5
1234
  8
0
  6
CONTINUOUS
 62
     1
 10
167.1678335526262913
 20
77.7802432997154796
 30
0.0
 42
0.4142135623731398
  0
SEQEND
  5
1235
  8
0
  6
CONTINUOUS
 62
     1
  0
POLYLINE
  5
2B2
  8
0
  6
CONTINUOUS
 62
     1
 66
     1
 10
0.0
 20
0.0
 30
0.0
 70
     1
  0
VERTEX
  5
1236
  8
0
  6
CONTINUOUS
 62
     1
 10
171.7475976427103035
 20
58.3563025912669673
 30
0.0
  0
VERTEX
  5
1237
  8
0
  6
CONTINUOUS
 62
     1
 10
160.0098264339042089
 20
60.8512428810801183
 30
0.0
 42
0.4142135623731588
  0
VERTEX
  5
1238
  8
0
  6
CONTINUOUS
 62
     1
 10
158.8237671423532902
 20
60.0810069711640224
 30
0.0
  0
VERTEX
  5
1239
  8
0
  6
CONTINUOUS
 62
     1
 10
156.3288268525400895
 20
48.3432357623582973
 30
0.0
 42
0.4142135623730527
  0
VERTEX
  5
123A
  8
0
  6
CONTINUOUS
 62
     1
 10
157.0990627624559011
 20
47.1571764708068102
 30
0.0
  0
VERTEX
  5
123B
  8
0
  6
CONTINUOUS
 62
     1
 10
168.8368339712623936
 20
44.6622361809936521
 30
0.0
 42
0.4142135623730951
  0
VERTEX
  5
123C
  8
0
  6
CONTINUOUS
 62
     1
 10
170.0228932628133975
 20
45.4324720909098829
 30
0.0
  0
VERTEX
  5
123D
  8
0
  6
CONTINUOUS
 62
     1
 10
172.5178335526263993
 20
57.1702432997153593
 30
0.0
 42
0.4142135623731088
  0
SEQEND
  5
123E
  8
0
  6
CONTINUOUS
 62
     1
  0
POLYLINE
  5
2B3
  8
0
  6
CONTINUOUS
 62
     1
 66
     1
 10
0.0
 20
0.0
 30
0.0
 70
     1
  0
VERTEX
  5
123F
  8
0
  6
CONTINUOUS
 62
     1
 10
254.7656985893252966
 20
110.9933960113148999
 30
0.0
  0
VERTEX
  5
1240
  8
0
  6
CONTINUOUS
 62
     1
 10
243.0279273805194862
 20
108.4984557215018981
 30
0.0
 42
0.4142135623730498
  0
VERTEX
  5
1241
  8
0
  6
CONTINUOUS
 62
     1
 10
242.2576914706033051
 20
107.3123964299501978
 30
0.0
  0
VERTEX
  5
1242
  8
0
  6
CONTINUOUS
 62
     1
 10
244.7526317604163921
 20
95.5746252211446148
 30
0.0
 42
0.4142135623731046
  0
VERTEX
  5
1243
  8
0
  6
CONTINUOUS
 62
     1
 10
245.9386910519681919
 20
94.8043893112286469
 30
0.0
  0
VERTEX
  5
1244
  8
0
  6
CONTINUOUS
 62
     1
 10
257.6764622607734054
 20
97.2993296010416771
 30
0.0
 42
0.4142135623729788
  0
VERTEX
  5
1245
  8
0
  6
CONTINUOUS
 62
     1
 10
258.4466981706904107
 20
98.4853888925932779
 30
0.0
  0
VERTEX
  5
1246
  8
0
  6
CONTINUOUS
 62
     1
 10
255.9517578808763858
 20
110.223160101398804
 30
0.0
 42
0.4142135623730516
  0
SEQEND
  5
1247
  8
0
  6
CONTINUOUS
 62
     1
  0
POLYLINE
  5
2B4
  8
0
  6
CONTINUOUS
 62
     1
 66
     1
 10
0.0
 20
0.0
 30
0.0
 70
     1
  0
VERTEX
  5
1248
  8
0
  6
CONTINUOUS
 62
     1
 10
260.1256985893252249
 20
131.6033960113149988
 30
0.0
  0
VERTEX
  5
1249
  8
0
  6
CONTINUOUS
 62
     1
 10
248.3879273805193861
 20
129.1084557215017128
 30
0.0
 42
0.4142135623730804
  0
VERTEX
  5
124A
  8
0
  6
CONTINUOUS
 62
     1
 10
247.6176914706036882
 20
127.9223964299501972
 30
0.0
  0
VERTEX
  5
124B
  8
0
  6
CONTINUOUS
 62
     1
 10
250.1126317604162921
 20
116.1846252211445005
 30
0.0
 42
0.4142135623731095
  0
VERTEX
  5
124C
  8
0
  6
CONTINUOUS
 62
     1
 10
251.2986910519682908
 20
115.4143893112285042
 30
0.0
  0
VERTEX
  5
124D
  8
0
  6
CONTINUOUS
 62
     1
 10
263.0364622607733054
 20
117.9093296010416054
 30
0.0
 42
0.41421356237308
  0
VERTEX
  5
124E
  8
0
  6
CONTINUOUS
 62
     1
 10
263.8066981706907086
 20
119.0953888925933057
 30
0.0
  0
VERTEX
  5
124F
  8
0
  6
CONTINUOUS
 62
     1
 10
261.3117578808760868
 20
130.833160101398903
 30
0.0
 42
0.4142135623730563
  0
SEQEND
  5
1250
  8
0
  6
CONTINUOUS
 62
     1
  0
POLYLINE
  5
2B5
  8
0
  6
CONTINUOUS
 62
     1
 66
     1
 10
0.0
 20
0.0
 30
0.0
 70
     1
  0
VERTEX
  5
1251
  8
0
  6
CONTINUOUS
 62
     1
 10
263.3856985893252158
 20
93.3433960113148657
 30
0.0
  0
VERTEX
  5
1252
  8
0
  6
CONTINUOUS
 62
     1
 10
251.6479273805194055
 20
90.8484557215017645
 30
0.0
 42
0.4142135623730928
  0
VERTEX
  5
1253
  8
0
  6
CONTINUOUS
 62
     1
 10
250.8776914706035086
 20
89.6623964299502347
 30
0.0
  0
VERTEX
  5
1254
  8
0
  6
CONTINUOUS
 62
     1
 10
253.3726317604167093
 20
77.9246252211446517
 30
0.0
 42
0.4142135623731197
  0
VERTEX
  5
1255
  8
0
  6
CONTINUOUS
 62
     1
 10
254.5586910519683101
 20
77.1543893112285417
 30
0.0
  0
VERTEX
  5
1256
  8
0
  6
CONTINUOUS
 62
     1
 10
266.2964622607732963
 20
79.649329601041714
 30
0.0
 42
0.4142135623730563
  0
VERTEX
  5
1257
  8
0
  6
CONTINUOUS
 62
     1
 10
267.0666981706892784
 20
80.8353888925931727
 30
0.0
  0
VERTEX
  5
1258
  8
0
  6
CONTINUOUS
 62
     1
 10
264.5717578808760777
 20
92.5731601013990257
 30
0.0
 42
0.4142135623730307
  0
SEQEND
  5
1259
  8
0
  6
CONTINUOUS
 62
     1
  0
POLYLINE
  5
2B6
  8
0
  6
CONTINUOUS
 62
     1
 66
     1
 10
0.0
 20
0.0
 30
0.0
 70
     1
  0
VERTEX
  5
125A
  8
0
  6
CONTINUOUS
 62
     1
 10
258.0256985893253159
 20
72.7333960113149942
 30
0.0
  0
VERTEX
  5
125B
  8
0
  6
CONTINUOUS
 62
     1
 10
246.2879273805195055
 20
70.2384557215018503
 30
0.0
 42
0.4142135623730824
  0
VERTEX
  5
125C
  8
0
  6
CONTINUOUS
 62
     1
 10
245.517691470603296
 20
69.0523964299502495
 30
0.0
  0
VERTEX
  5
125D
  8
0
  6
CONTINUOUS
 62
     1
 10
248.0126317604164115
 20
57.3146252211446523
 30
0.0
 42
0.4142135623731062
  0
VERTEX
  5
125E
  8
0
  6
CONTINUOUS
 62
     1
 10
249.1986910519682112
 20
56.5443893112285494
 30
0.0
  0
VERTEX
  5
125F
  8
0
  6
CONTINUOUS
 62
     1
 10
260.9364622607733963
 20
59.039329601041679
 30
0.0
 42
0.4142135623731073
  0
VERTEX
  5
1260
  8
0
  6
CONTINUOUS
 62
     1
 10
261.7066981706892079
 20
60.2253888925933012
 30
0.0
  0
VERTEX
  5
1261
  8
0
  6
CONTINUOUS
 62
     1
 10
259.2117578808764051
 20
71.9631601013988984
 30
0.0
 42
0.4142135623730824
  0
SEQEND
  5
1262
  8
0
  6
CONTINUOUS
 62
     1
  0
POLYLINE
  5
2B7
  8
0
  6
CONTINUOUS
 62
     1
 66
     1
 10
0.0
 20
0.0
 30
0.0
 70
     1
  0
VERTEX
  5
1263
  8
0
  6
CONTINUOUS
 62
     1
 10
262.8356985893252045
 20
52.743396011315113
 30
0.0
  0
VERTEX
  5
1264
  8
0
  6
CONTINUOUS
 62
     1
 10
251.0979273805195078
 20
50.2484557215018484
 30
0.0
 42
0.4142135623730729
  0
VERTEX
  5
1265
  8
0
  6
CONTINUOUS
 62
     1
 10
250.3276914706032983
 20
49.0623964299502475
 30
0.0
  0
VERTEX
  5
1266
  8
0
  6
CONTINUOUS
 62
     1
 10
252.8226317604163
 20
37.3246252211446432
 30
0.0
 42
0.4142135623730911
  0
VERTEX
  5
1267
  8
0
  6
CONTINUOUS
 62
     1
 10
254.0086910519680998
 20
36.5543893112285474
 30
0.0
  0
VERTEX
  5
1268
  8
0
  6
CONTINUOUS
 62
     1
 10
265.7464622607733986
 20
39.0493296010417978
 30
0.0
 42
0.4142135623730789
  0
VERTEX
  5
1269
  8
0
  6
CONTINUOUS
 62
     1
 10
266.5166981706890965
 20
40.2353888925933987
 30
0.0
  0
VERTEX
  5
126A
  8
0
  6
CONTINUOUS
 62
     1
 10
264.0217578808761232
 20
51.9731601013990101
 30
0.0
 42
0.4142135623731122
  0
SEQEND
  5
126B
  8
0
  6
CONTINUOUS
 62
     1
  0
POLYLINE
  5
2B8
  8
0
  6
CONTINUOUS
 62
     1
 66
     1
 10
0.0
 20
0.0
 30
0.0
 70
     1
  0
VERTEX
  5
126C
  8
0
  6
CONTINUOUS
 62
     1
 10
222.4256985893244121
 20
45.68339601131526
 30
0.0
  0
VERTEX
  5
126D
  8
0
  6
CONTINUOUS
 62
     1
 10
210.6879273805193975
 20
43.1884557215019029
 30
0.0
 42
0.4142135623731106
  0
VERTEX
  5
126E
  8
0
  6
CONTINUOUS
 62
     1
 10
209.9176914706033017
 20
42.0023964299503021
 30
0.0
  0
VERTEX
  5
126F
  8
0
  6
CONTINUOUS
 62
     1
 10
212.4126317604161898
 20
30.2646252211445912
 30
0.0
 42
0.4142135623730373
  0
VERTEX
  5
1270
  8
0
  6
CONTINUOUS
 62
     1
 10
213.5986910519683022
 20
29.4943893112285913
 30
0.0
  0
VERTEX
  5
1271
  8
0
  6
CONTINUOUS
 62
     1
 10
225.3364622607743968
 20
31.9893296010420798
 30
0.0
 42
0.4142135623730809
  0
VERTEX
  5
1272
  8
0
  6
CONTINUOUS
 62
     1
 10
226.1066981706902084
 20
33.1753888925936735
 30
0.0
  0
VERTEX
  5
1273
  8
0
  6
CONTINUOUS
 62
     1
 10
223.6117578808762971
 20
44.9131601013991713
 30
0.0
 42
0.4142135623731033
  0
SEQEND
  5
1274
  8
0
  6
CONTINUOUS
 62
     1
  0
POLYLINE
  5
2B9
  8
0
  6
CONTINUOUS
 62
     1
 66
     1
 10
0.0
 20
0.0
 30
0.0
 70
     1
  0
VERTEX
  5
1275
  8
0
  6
CONTINUOUS
 62
     1
 10
241.4919867953464063
 20
127.6426783012366997
 30
0.0
  0
VERTEX
  5
1276
  8
0
  6
CONTINUOUS
 62
     1
 10
229.754215586540397
 20
125.147738011423499
 30
0.0
 42
0.4142135623730718
  0
VERTEX
  5
1277
  8
0
  6
CONTINUOUS
 62
     1
 10
228.9839796766243865
 20
123.9616787198717986
 30
0.0
  0
VERTEX
  5
1278
  8
0
  6
CONTINUOUS
 62
     1
 10
231.4789199664375019
 20
112.2239075110663009
 30
0.0
 42
0.4142135623731131
  0
VERTEX
  5
1279
  8
0
  6
CONTINUOUS
 62
     1
 10
232.6649792579895006
 20
111.4536716011503046
 30
0.0
  0
VERTEX
  5
127A
  8
0
  6
CONTINUOUS
 62
     1
 10
244.4027504667942878
 20
113.9486118909633063
 30
0.0
 42
0.41421356237305
  0
VERTEX
  5
127B
  8
0
  6
CONTINUOUS
 62
     1
 10
245.1729863767100994
 20
115.134671182514893
 30
0.0
  0
VERTEX
  5
127C
  8
0
  6
CONTINUOUS
 62
     1
 10
242.6780460868972966
 20
126.8724423913206039
 30
0.0
 42
0.4142135623730347
  0
SEQEND
  5
127D
  8
0
  6
CONTINUOUS
 62
     1
  0
POLYLINE
  5
2BA
  8
0
  6
CONTINUOUS
 62
     1
 66
     1
 10
0.0
 20
0.0
 30
0.0
 70
     1
  0
VERTEX
  5
127E
  8
0
  6
CONTINUOUS
 62
     1
 10
236.1319867953465064
 20
107.0326783012366008
 30
0.0
  0
VERTEX
  5
127F
  8
0
  6
CONTINUOUS
 62
     1
 10
224.3942155865402981
 20
104.5377380114234001
 30
0.0
 42
0.4142135623730884
  0
VERTEX
  5
1280
  8
0
  6
CONTINUOUS
 62
     1
 10
223.6239796766242875
 20
103.3516787198717992
 30
0.0
  0
VERTEX
  5
1281
  8
0
  6
CONTINUOUS
 62
     1
 10
226.118919966437204
 20
91.6139075110663725
 30
0.0
 42
0.4142135623730911
  0
VERTEX
  5
1282
  8
0
  6
CONTINUOUS
 62
     1
 10
227.3049792579896007
 20
90.8436716011501346
 30
0.0
  0
VERTEX
  5
1283
  8
0
  6
CONTINUOUS
 62
     1
 10
239.0427504667952974
 20
93.3386118909634348
 30
0.0
 42
0.4142135623730454
  0
VERTEX
  5
1284
  8
0
  6
CONTINUOUS
 62
     1
 10
239.8129863767103984
 20
94.5246711825150356
 30
0.0
  0
VERTEX
  5
1285
  8
0
  6
CONTINUOUS
 62
     1
 10
237.3180460868973967
 20
106.2624423913206044
 30
0.0
 42
0.4142135623730705
  0
SEQEND
  5
1286
  8
0
  6
CONTINUOUS
 62
     1
  0
POLYLINE
  5
2BB
  8
0
  6
CONTINUOUS
 62
     1
 66
     1
 10
0.0
 20
0.0
 30
0.0
 70
     1
  0
VERTEX
  5
1287
  8
0
  6
CONTINUOUS
 62
     1
 10
244.751986795346312
 20
89.3826783012366093
 30
0.0
  0
VERTEX
  5
1288
  8
0
  6
CONTINUOUS
 62
     1
 10
233.0142155865401037
 20
86.8877380114234938
 30
0.0
 42
0.4142135623730699
  0
VERTEX
  5
1289
  8
0
  6
CONTINUOUS
 62
     1
 10
232.2439796766244058
 20
85.701678719871893
 30
0.0
  0
VERTEX
  5
128A
  8
0
  6
CONTINUOUS
 62
     1
 10
234.7389199664372086
 20
73.9639075110662532
 30
0.0
 42
0.4142135623731122
  0
VERTEX
  5
128B
  8
0
  6
CONTINUOUS
 62
     1
 10
235.9249792579890084
 20
73.1936716011503137
 30
0.0
  0
VERTEX
  5
128C
  8
0
  6
CONTINUOUS
 62
     1
 10
247.6627504667943072
 20
75.6886118909633439
 30
0.0
 42
0.4142135623730693
  0
VERTEX
  5
128D
  8
0
  6
CONTINUOUS
 62
     1
 10
248.4329863767100903
 20
76.8746711825150442
 30
0.0
  0
VERTEX
  5
128E
  8
0
  6
CONTINUOUS
 62
     1
 10
245.9380460868972875
 20
88.6124423913206556
 30
0.0
 42
0.4142135623730547
  0
SEQEND
  5
128F
  8
0
  6
CONTINUOUS
 62
     1
  0
POLYLINE
  5
2BC
  8
0
  6
CONTINUOUS
 62
     1
 66
     1
 10
0.0
 20
0.0
 30
0.0
 70
     1
  0
VERTEX
  5
1290
  8
0
  6
CONTINUOUS
 62
     1
 10
239.3919867953464973
 20
68.7726783012367378
 30
0.0
  0
VERTEX
  5
1291
  8
0
  6
CONTINUOUS
 62
     1
 10
227.6542155865406016
 20
66.2777380114234802
 30
0.0
 42
0.4142135623731344
  0
VERTEX
  5
1292
  8
0
  6
CONTINUOUS
 62
     1
 10
226.8839796766243069
 20
65.0916787198719931
 30
0.0
  0
VERTEX
  5
1293
  8
0
  6
CONTINUOUS
 62
     1
 10
229.3789199664373086
 20
53.3539075110664029
 30
0.0
 42
0.4142135623730819
  0
VERTEX
  5
1294
  8
0
  6
CONTINUOUS
 62
     1
 10
230.5649792579893074
 20
52.5836716011502787
 30
0.0
  0
VERTEX
  5
1295
  8
0
  6
CONTINUOUS
 62
     1
 10
242.3027504667946062
 20
55.0786118909634368
 30
0.0
 42
0.4142135623730959
  0
VERTEX
  5
1296
  8
0
  6
CONTINUOUS
 62
     1
 10
243.0729863767103893
 20
56.2646711825150376
 30
0.0
  0
VERTEX
  5
1297
  8
0
  6
CONTINUOUS
 62
     1
 10
240.578046086898496
 20
68.0024423913206419
 30
0.0
 42
0.4142135623730653
  0
SEQEND
  5
1298
  8
0
  6
CONTINUOUS
 62
     1
  0
POLYLINE
  5
2BD
  8
0
  6
CONTINUOUS
 62
     1
 66
     1
 10
0.0
 20
0.0
 30
0.0
 70
     1
  0
VERTEX
  5
1299
  8
0
  6
CONTINUOUS
 62
     1
 10
222.8582750013673035
 20
123.6819605911582016
 30
0.0
  0
VERTEX
  5
129A
  8
0
  6
CONTINUOUS
 62
     1
 10
211.1205037925610952
 20
121.1870203013452993
 30
0.0
 42
0.4142135623731119
  0
VERTEX
  5
129B
  8
0
  6
CONTINUOUS
 62
     1
 10
210.3502678826453973
 20
120.0009610097936985
 30
0.0
  0
VERTEX
  5
129C
  8
0
  6
CONTINUOUS
 62
     1
 10
212.8452081724585128
 20
108.2631898009878029
 30
0.0
 42
0.4142135623731131
  0
VERTEX
  5
129D
  8
0
  6
CONTINUOUS
 62
     1
 10
214.0312674640103978
 20
107.492953891071906
 30
0.0
  0
VERTEX
  5
129E
  8
0
  6
CONTINUOUS
 62
     1
 10
225.7690386728154976
 20
109.9878941808848936
 30
0.0
 42
0.4142135623730903
  0
VERTEX
  5
129F
  8
0
  6
CONTINUOUS
 62
     1
 10
226.5392745827323893
 20
111.1739534724365939
 30
0.0
  0
VERTEX
  5
12A0
  8
0
  6
CONTINUOUS
 62
     1
 10
224.0443342929193022
 20
122.9117246812422053
 30
0.0
 42
0.4142135623730482
  0
SEQEND
  5
12A1
  8
0
  6
CONTINUOUS
 62
     1
  0
POLYLINE
  5
2BE
  8
0
  6
CONTINUOUS
 62
     1
 66
     1
 10
0.0
 20
0.0
 30
0.0
 70
     1
  0
VERTEX
  5
12A2
  8
0
  6
CONTINUOUS
 62
     1
 10
217.4982750013672046
 20
103.0719605911583017
 30
0.0
  0
VERTEX
  5
12A3
  8
0
  6
CONTINUOUS
 62
     1
 10
205.7605037925609111
 20
100.577020301345101
 30
0.0
 42
0.4142135623730879
  0
VERTEX
  5
12A4
  8
0
  6
CONTINUOUS
 62
     1
 10
204.9902678826454974
 20
99.3909610097937275
 30
0.0
  0
VERTEX
  5
12A5
  8
0
  6
CONTINUOUS
 62
     1
 10
207.4852081724584991
 20
87.6531898009878745
 30
0.0
 42
0.4142135623730905
  0
VERTEX
  5
12A6
  8
0
  6
CONTINUOUS
 62
     1
 10
208.6712674640102989
 20
86.8829538910720061
 30
0.0
  0
VERTEX
  5
12A7
  8
0
  6
CONTINUOUS
 62
     1
 10
220.4090386728159956
 20
89.377894180885022
 30
0.0
 42
0.4142135623730482
  0
VERTEX
  5
12A8
  8
0
  6
CONTINUOUS
 62
     1
 10
221.1792745827322051
 20
90.5639534724366371
 30
0.0
  0
VERTEX
  5
12A9
  8
0
  6
CONTINUOUS
 62
     1
 10
218.6843342929194023
 20
102.3017246812422059
 30
0.0
 42
0.414213562373061
  0
SEQEND
  5
12AA
  8
0
  6
CONTINUOUS
 62
     1
  0
POLYLINE
  5
2BF
  8
0
  6
CONTINUOUS
 62
     1
 66
     1
 10
0.0
 20
0.0
 30
0.0
 70
     1
  0
VERTEX
  5
12AB
  8
0
  6
CONTINUOUS
 62
     1
 10
226.1182750013672944
 20
85.4219605911582534
 30
0.0
  0
VERTEX
  5
12AC
  8
0
  6
CONTINUOUS
 62
     1
 10
214.3805037925613135
 20
82.9270203013452232
 30
0.0
 42
0.4142135623730523
  0
VERTEX
  5
12AD
  8
0
  6
CONTINUOUS
 62
     1
 10
213.610267882645303
 20
81.7409610097936365
 30
0.0
  0
VERTEX
  5
12AE
  8
0
  6
CONTINUOUS
 62
     1
 10
216.1052081724585037
 20
70.0031898009879114
 30
0.0
 42
0.4142135623731125
  0
VERTEX
  5
12AF
  8
0
  6
CONTINUOUS
 62
     1
 10
217.2912674640103887
 20
69.2329538910719293
 30
0.0
  0
VERTEX
  5
12B0
  8
0
  6
CONTINUOUS
 62
     1
 10
229.0290386728154886
 20
71.7278941808850732
 30
0.0
 42
0.4142135623730809
  0
VERTEX
  5
12B1
  8
0
  6
CONTINUOUS
 62
     1
 10
229.7992745827324086
 20
72.9139534724365603
 30
0.0
  0
VERTEX
  5
12B2
  8
0
  6
CONTINUOUS
 62
     1
 10
227.3043342929182131
 20
84.6517246812422854
 30
0.0
 42
0.4142135623730335
  0
SEQEND
  5
12B3
  8
0
  6
CONTINUOUS
 62
     1
  0
POLYLINE
  5
2C0
  8
0
  6
CONTINUOUS
 62
     1
 66
     1
 10
0.0
 20
0.0
 30
0.0
 70
     1
  0
VERTEX
  5
12B4
  8
0
  6
CONTINUOUS
 62
     1
 10
220.7582750013671102
 20
64.8119605911582255
 30
0.0
  0
VERTEX
  5
12B5
  8
0
  6
CONTINUOUS
 62
     1
 10
209.0205037925611862
 20
62.3170203013451172
 30
0.0
 42
0.4142135623731073
  0
VERTEX
  5
12B6
  8
0
  6
CONTINUOUS
 62
     1
 10
208.250267882645403
 20
61.1309610097937366
 30
0.0
  0
VERTEX
  5
12B7
  8
0
  6
CONTINUOUS
 62
     1
 10
210.7452081724582058
 20
49.3931898009880186
 30
0.0
 42
0.4142135623730445
  0
VERTEX
  5
12B8
  8
0
  6
CONTINUOUS
 62
     1
 10
211.9312674640102898
 20
48.6229538910719228
 30
0.0
  0
VERTEX
  5
12B9
  8
0
  6
CONTINUOUS
 62
     1
 10
223.6690386728153896
 20
51.1178941808850524
 30
0.0
 42
0.414213562373099
  0
VERTEX
  5
12BA
  8
0
  6
CONTINUOUS
 62
     1
 10
224.4392745827325086
 20
52.3039534724366675
 30
0.0
  0
VERTEX
  5
12BB
  8
0
  6
CONTINUOUS
 62
     1
 10
221.9443342929193079
 20
64.0417246812422718
 30
0.0
 42
0.4142135623730693
  0
SEQEND
  5
12BC
  8
0
  6
CONTINUOUS
 62
     1
  0
POLYLINE
  5
2C1
  8
0
  6
CONTINUOUS
 62
     1
 66
     1
 10
0.0
 20
0.0
 30
0.0
 70
     1
  0
VERTEX
  5
12BD
  8
0
  6
CONTINUOUS
 62
     1
 10
204.2245632073885133
 20
119.721242881080002
 30
0.0
  0
VERTEX
  5
12BE
  8
0
  6
CONTINUOUS
 62
     1
 10
192.486791998582305
 20
117.2263025912667018
 30
0.0
 42
0.4142135623731193
  0
VERTEX
  5
12BF
  8
0
  6
CONTINUOUS
 62
     1
 10
191.7165560886660955
 20
116.0402432997152005
 30
0.0
  0
VERTEX
  5
12C0
  8
0
  6
CONTINUOUS
 62
     1
 10
194.2114963784792963
 20
104.3024720909094043
 30
0.0
 42
0.4142135623730982
  0
VERTEX
  5
12C1
  8
0
  6
CONTINUOUS
 62
     1
 10
195.3975556700314087
 20
103.5322361809933938
 30
0.0
  0
VERTEX
  5
12C2
  8
0
  6
CONTINUOUS
 62
     1
 10
207.1353268788361959
 20
106.0271764708066939
 30
0.0
 42
0.4142135623730688
  0
VERTEX
  5
12C3
  8
0
  6
CONTINUOUS
 62
     1
 10
207.9055627887524054
 20
107.2132357623581953
 30
0.0
  0
VERTEX
  5
12C4
  8
0
  6
CONTINUOUS
 62
     1
 10
205.4106224989394036
 20
118.9510069711638067
 30
0.0
 42
0.4142135623730605
  0
SEQEND
  5
12C5
  8
0
  6
CONTINUOUS
 62
     1
  0
POLYLINE
  5
2C2
  8
0
  6
CONTINUOUS
 62
     1
 66
     1
 10
0.0
 20
0.0
 30
0.0
 70
     1
  0
VERTEX
  5
12C6
  8
0
  6
CONTINUOUS
 62
     1
 10
198.8645632073883007
 20
99.1112428810799742
 30
0.0
  0
VERTEX
  5
12C7
  8
0
  6
CONTINUOUS
 62
     1
 10
187.1267919985822061
 20
96.616302591266944
 30
0.0
 42
0.4142135623731307
  0
VERTEX
  5
12C8
  8
0
  6
CONTINUOUS
 62
     1
 10
186.3565560886663945
 20
95.4302432997153431
 30
0.0
  0
VERTEX
  5
12C9
  8
0
  6
CONTINUOUS
 62
     1
 10
188.8514963784791973
 20
83.692472090909618
 30
0.0
 42
0.4142135623731082
  0
VERTEX
  5
12CA
  8
0
  6
CONTINUOUS
 62
     1
 10
190.0375556700315087
 20
82.9222361809936501
 30
0.0
  0
VERTEX
  5
12CB
  8
0
  6
CONTINUOUS
 62
     1
 10
201.7753268788362959
 20
85.4171764708066803
 30
0.0
 42
0.4142135623730779
  0
VERTEX
  5
12CC
  8
0
  6
CONTINUOUS
 62
     1
 10
202.5455627887521075
 20
86.6032357623582669
 30
0.0
  0
VERTEX
  5
12CD
  8
0
  6
CONTINUOUS
 62
     1
 10
200.0506224989395037
 20
98.3410069711639068
 30
0.0
 42
0.4142135623730703
  0
SEQEND
  5
12CE
  8
0
  6
CONTINUOUS
 62
     1
  0
POLYLINE
  5
2C3
  8
0
  6
CONTINUOUS
 62
     1
 66
     1
 10
0.0
 20
0.0
 30
0.0
 70
     1
  0
VERTEX
  5
12CF
  8
0
  6
CONTINUOUS
 62
     1
 10
207.4845632073885042
 20
81.461242881079869
 30
0.0
  0
VERTEX
  5
12D0
  8
0
  6
CONTINUOUS
 62
     1
 10
195.7467919985820117
 20
78.9663025912668672
 30
0.0
 42
0.414213562373076
  0
VERTEX
  5
12D1
  8
0
  6
CONTINUOUS
 62
     1
 10
194.9765560886660865
 20
77.7802432997153801
 30
0.0
  0
VERTEX
  5
12D2
  8
0
  6
CONTINUOUS
 62
     1
 10
197.4714963784792872
 20
66.0424720909095413
 30
0.0
 42
0.4142135623730697
  0
VERTEX
  5
12D3
  8
0
  6
CONTINUOUS
 62
     1
 10
198.6575556700313996
 20
65.272236180993545
 30
0.0
  0
VERTEX
  5
12D4
  8
0
  6
CONTINUOUS
 62
     1
 10
210.3953268788361868
 20
67.7671764708068025
 30
0.0
 42
0.4142135623730854
  0
VERTEX
  5
12D5
  8
0
  6
CONTINUOUS
 62
     1
 10
211.1655627887523963
 20
68.9532357623583039
 30
0.0
  0
VERTEX
  5
12D6
  8
0
  6
CONTINUOUS
 62
     1
 10
208.6706224989393945
 20
80.6910069711639011
 30
0.0
 42
0.4142135623730694
  0
SEQEND
  5
12D7
  8
0
  6
CONTINUOUS
 62
     1
  0
POLYLINE
  5
2C4
  8
0
  6
CONTINUOUS
 62
     1
 66
     1
 10
0.0
 20
0.0
 30
0.0
 70
     1
  0
VERTEX
  5
12D8
  8
0
  6
CONTINUOUS
 62
     1
 10
202.1245632073882916
 20
60.8512428810799975
 30
0.0
  0
VERTEX
  5
12D9
  8
0
  6
CONTINUOUS
 62
     1
 10
190.386791998582396
 20
58.3563025912668678
 30
0.0
 42
0.4142135623731325
  0
VERTEX
  5
12DA
  8
0
  6
CONTINUOUS
 62
     1
 10
189.6165560886664139
 20
57.1702432997153593
 30
0.0
  0
VERTEX
  5
12DB
  8
0
  6
CONTINUOUS
 62
     1
 10
192.1114963784793019
 20
45.4324720909096413
 30
0.0
 42
0.4142135623730911
  0
VERTEX
  5
12DC
  8
0
  6
CONTINUOUS
 62
     1
 10
193.2975556700314996
 20
44.6622361809936521
 30
0.0
  0
VERTEX
  5
12DD
  8
0
  6
CONTINUOUS
 62
     1
 10
205.0353268788362868
 20
47.1571764708066823
 30
0.0
 42
0.4142135623730903
  0
VERTEX
  5
12DE
  8
0
  6
CONTINUOUS
 62
     1
 10
205.8055627887520984
 20
48.3432357623582973
 30
0.0
  0
VERTEX
  5
12DF
  8
0
  6
CONTINUOUS
 62
     1
 10
203.3106224989394946
 20
60.0810069711640224
 30
0.0
 42
0.414213562373072
  0
SEQEND
  5
12E0
  8
0
  6
CONTINUOUS
 62
     1
  0
POLYLINE
  5
2C5
  8
0
  6
CONTINUOUS
 62
     1
 66
     1
 10
0.0
 20
0.0
 30
0.0
  0
VERTEX
  5
12E1
  8
0
  6
CONTINUOUS
 62
     1
 10
50.4745148206464265
 20
78.2488926612717108
 30
0.0
  0
VERTEX
  5
12E2
  8
0
  6
CONTINUOUS
 62
     1
 10
62.4745148206464407
 20
78.2488926612717108
 30
0.0
 42
0.4142135623730857
  0
VERTEX
  5
12E3
  8
0
  6
CONTINUOUS
 62
     1
 10
63.4745148206464194
 20
79.2488926612718387
 30
0.0
  0
VERTEX
  5
12E4
  8
0
  6
CONTINUOUS
 62
     1
 10
63.4745148206464194
 20
91.248892661271725
 30
0.0
 42
0.4142135623730888
  0
VERTEX
  5
12E5
  8
0
  6
CONTINUOUS
 62
     1
 10
62.4745148206464407
 20
92.248892661271725
 30
0.0
  0
VERTEX
  5
12E6
  8
0
  6
CONTINUOUS
 62
     1
 10
50.4745148206464265
 20
92.248892661271725
 30
0.0
  0
SEQEND
  5
12E7
  8
0
  6
CONTINUOUS
 62
     1
  0
POLYLINE
  5
2C6
  8
0
  6
CONTINUOUS
 62
     1
 66
     1
 10
0.0
 20
0.0
 30
0.0
 70
     1
  0
VERTEX
  5
12E8
  8
0
  6
CONTINUOUS
 62
     1
 10
318.0900415867096171
 20
40.7734148379104226
 30
0.0
  0
VERTEX
  5
12E9
  8
0
  6
CONTINUOUS
 62
     1
 10
278.0900415962090051
 20
40.7734148379104226
 30
0.0
  0
VERTEX
  5
12EA
  8
0
  6
CONTINUOUS
 62
     1
 10
278.0900415962090051
 20
54.7734148349109091
 30
0.0
  0
VERTEX
  5
12EB
  8
0
  6
CONTINUOUS
 62
     1
 10
318.0900415867096171
 20
54.7734148349113568
 30
0.0
  0
SEQEND
  5
12EC
  8
0
  6
CONTINUOUS
 62
     1
  0
CIRCLE
  5
2C7
  8
0
  6
CONTINUOUS
 62
     1
 10
46.3984217201844089
 20
116.2052406808403049
 30
0.0
 40
1.1000000000000001
  0
CIRCLE
  5
2C8
  8
0
  6
CONTINUOUS
 62
     1
 10
35.2859325192935529
 20
56.67388520714848
 30
0.0
 40
1.1000000000000001
  0
CIRCLE
  5
2C9
  8
0
  6
CONTINUOUS
 62
     1
 10
97.1985396143143845
 20
55.8801646396356233
 30
0.0
 40
1.1000000000000001
  0
CIRCLE
  5
2CA
  8
0
  6
CONTINUOUS
 62
     1
 10
113.8670717195913937
 20
111.4427538030563056
 30
0.0
 40
1.1000000000000001
  0
CIRCLE
  5
2CB
  8
0
  6
CONTINUOUS
 62
     1
 10
184.7784206185995117
 20
105.9488459977616941
 30
0.0
 40
1.1000000000000001
  0
CIRCLE
  5
2CC
  8
0
  6
CONTINUOUS
 62
     1
 10
185.3046948206462048
 20
30.4801549673663992
 30
0.0
 40
1.1000000000000001
  0
CIRCLE
  5
2CD
  8
0
  6
CONTINUOUS
 62
     1
 10
265.473420600722477
 20
55.8801549569026434
 30
0.0
 40
1.1000000000000001
  0
CIRCLE
  5
2CE
  8
0
  6
CONTINUOUS
 62
     1
 10
259.9170717257321144
 20
112.2363283413343993
 30
0.0
 40
1.1000000000000001
  0
CIRCLE
  5
2CF
  8
0
  6
CONTINUOUS
 62
     1
 10
342.4670718557435976
 20
113.8238414473216977
 30
0.0
 40
1.1000000000000001
  0
CIRCLE
  5
2D0
  8
0
  6
CONTINUOUS
 62
     1
 10
322.6235216207404051
 20
53.4988963910515167
 30
0.0
 40
1.1000000000000001
  0
POLYLINE
  5
2D1
  8
0
  6
CONTINUOUS
 62
     1
 66
     1
 10
0.0
 20
0.0
 30
0.0
 70
     1
  0
VERTEX
  5
12ED
  8
0
  6
CONTINUOUS
 62
     1
 10
229.9525952500960955
 20
134.7888926612712055
 30
0.0
 42
-0.4142135623731011
  0
VERTEX
  5
12EE
  8
0
  6
CONTINUOUS
 62
     1
 10
228.2525952500967037
 20
136.4888926612713078
 30
0.0
  0
VERTEX
  5
12EF
  8
0
  6
CONTINUOUS
 62
     1
 10
228.2525952500967037
 20
139.4888926612713078
 30
0.0
 42
0.4142135623730873
  0
VERTEX
  5
12F0
  8
0
  6
CONTINUOUS
 62
     1
 10
226.9525952500960955
 20
140.7888926612712055
 30
0.0
  0
VERTEX
  5
12F1
  8
0
  6
CONTINUOUS
 62
     1
 10
144.9105443911973907
 20
140.7888926612712055
 30
0.0
 42
0.4142135623730873
  0
VERTEX
  5
12F2
  8
0
  6
CONTINUOUS
 62
     1
 10
143.6105443911974078
 20
139.4888926612713078
 30
0.0
  0
VERTEX
  5
12F3
  8
0
  6
CONTINUOUS
 62
     1
 10
143.6105443911974078
 20
136.4888926612713078
 30
0.0
 42
-0.4142135623731011
  0
VERTEX
  5
12F4
  8
0
  6
CONTINUOUS
 62
     1
 10
141.9105443911973907
 20
134.7888926612712055
 30
0.0
  0
VERTEX
  5
12F5
  8
0
  6
CONTINUOUS
 62
     1
 10
114.9105443911974049
 20
134.7888926612712055
 30
0.0
 42
-0.4142135623731011
  0
VERTEX
  5
12F6
  8
0
  6
CONTINUOUS
 62
     1
 10
113.2105443911974021
 20
136.4888926612713078
 30
0.0
  0
VERTEX
  5
12F7
  8
0
  6
CONTINUOUS
 62
     1
 10
113.2105443911974021
 20
139.4888926612713078
 30
0.0
 42
0.4142135623730873
  0
VERTEX
  5
12F8
  8
0
  6
CONTINUOUS
 62
     1
 10
111.9105443911974049
 20
140.7888926612712055
 30
0.0
  0
VERTEX
  5
12F9
  8
0
  6
CONTINUOUS
 62
     1
 10
29.9105443911974298
 20
140.7888926612712055
 30
0.0
 42
0.4142135623730873
  0
VERTEX
  5
12FA
  8
0
  6
CONTINUOUS
 62
     1
 10
28.6105443911974788
 20
139.4888926612713078
 30
0.0
  0
VERTEX
  5
12FB
  8
0
  6
CONTINUOUS
 62
     1
 10
28.6105443911974788
 20
136.4888926612713078
 30
0.0
 42
-0.4142135623731011
  0
VERTEX
  5
12FC
  8
0
  6
CONTINUOUS
 62
     1
 10
26.9105443911974298
 20
134.7888926612712055
 30
0.0
  0
VERTEX
  5
12FD
  8
0
  6
CONTINUOUS
 62
     1
 10
18.312194820646301
 20
134.7888926612712055
 30
0.0
 42
0.4142135623730873
  0
VERTEX
  5
12FE
  8
0
  6
CONTINUOUS
 62
     1
 10
17.0121948206461084
 20
133.4888926612713078
 30
0.0
  0
VERTEX
  5
12FF
  8
0
  6
CONTINUOUS
 62
     1
 10
17.0121948206461084
 20
124.8905430907207972
 30
0.0
 42
-0.4142135623731011
  0
VERTEX
  5
1300
  8
0
  6
CONTINUOUS
 62
     1
 10
15.3121948206462992
 20
123.1905430907207943
 30
0.0
  0
VERTEX
  5
1301
  8
0
  6
CONTINUOUS
 62
     1
 10
12.3121948206464094
 20
123.1905430907207943
 30
0.0
 42
0.4142135623730873
  0
VERTEX
  5
1302
  8
0
  6
CONTINUOUS
 62
     1
 10
11.0121948206462292
 20
121.8905430907207972
 30
0.0
  0
VERTEX
  5
1303
  8
0
  6
CONTINUOUS
 62
     1
 10
11.0121948206462292
 20
53.6188926612717367
 30
0.0
 42
0.4142135623730895
  0
VERTEX
  5
1304
  8
0
  6
CONTINUOUS
 62
     1
 10
12.8121948206464005
 20
51.8188926612717822
 30
0.0
  0
VERTEX
  5
1305
  8
0
  6
CONTINUOUS
 62
     1
 10
18.7821948206461009
 20
51.8188926612717822
 30
0.0
 42
-0.4142135623731659
  0
VERTEX
  5
1306
  8
0
  6
CONTINUOUS
 62
     1
 10
21.9821948206463702
 20
48.6188926612709409
 30
0.0
  0
VERTEX
  5
1307
  8
0
  6
CONTINUOUS
 62
     1
 10
21.9821948206441
 20
39.6488926612718231
 30
0.0
 42
0.4142135623731544
  0
VERTEX
  5
1308
  8
0
  6
CONTINUOUS
 62
     1
 10
23.782194820644051
 20
37.8488926612715275
 30
0.0
  0
VERTEX
  5
1309
  8
0
  6
CONTINUOUS
 62
     1
 10
26.9105443911974298
 20
37.8488926612715275
 30
0.0
 42
-0.4142135623731011
  0
VERTEX
  5
130A
  8
0
  6
CONTINUOUS
 62
     1
 10
28.6105443911974788
 20
36.1488926612714891
 30
0.0
  0
VERTEX
  5
130B
  8
0
  6
CONTINUOUS
 62
     1
 10
28.6105443911974788
 20
33.148892661271482
 30
0.0
 42
0.4142135623730873
  0
VERTEX
  5
130C
  8
0
  6
CONTINUOUS
 62
     1
 10
29.9105443911974298
 20
31.8488926612714209
 30
0.0
  0
VERTEX
  5
130D
  8
0
  6
CONTINUOUS
 62
     1
 10
90.342524747383365
 20
31.8488926612714209
 30
0.0
  0
VERTEX
  5
130E
  8
0
  6
CONTINUOUS
 62
     1
 10
114.6074353254579989
 20
26.6912266995654015
 30
0.0
 42
0.4142135623730919
  0
VERTEX
  5
130F
  8
0
  6
CONTINUOUS
 62
     1
 10
116.149312404475296
 20
27.692533382456201
 30
0.0
  0
VERTEX
  5
1310
  8
0
  6
CONTINUOUS
 62
     1
 10
116.7730474769291931
 20
30.6269761846576891
 30
0.0
 42
-0.4142135623730863
  0
VERTEX
  5
1311
  8
0
  6
CONTINUOUS
 62
     1
 10
118.7893482725661016
 20
31.9363772315150598
 30
0.0
  0
VERTEX
  5
1312
  8
0
  6
CONTINUOUS
 62
     1
 10
145.1993334923795942
 20
26.3227615794355714
 30
0.0
 42
-0.4142135623730906
  0
VERTEX
  5
1313
  8
0
  6
CONTINUOUS
 62
     1
 10
146.5087345392360021
 20
24.3064607837978883
 30
0.0
  0
VERTEX
  5
1314
  8
0
  6
CONTINUOUS
 62
     1
 10
145.884999466783313
 20
21.3720179815964109
 30
0.0
 42
0.4142135623731285
  0
VERTEX
  5
1315
  8
0
  6
CONTINUOUS
 62
     1
 10
146.8863061496743114
 20
19.8301409025793909
 30
0.0
  0
VERTEX
  5
1316
  8
0
  6
CONTINUOUS
 62
     1
 10
170.8016713788721006
 20
14.7467730983784193
 30
0.0
  0
VERTEX
  5
1317
  8
0
  6
CONTINUOUS
 62
     1
 10
200.5627182624180875
 20
14.7467730983784193
 30
0.0
  0
VERTEX
  5
1318
  8
0
  6
CONTINUOUS
 62
     1
 10
224.478083491616502
 20
19.8301409025795117
 30
0.0
 42
0.4142135623731387
  0
VERTEX
  5
1319
  8
0
  6
CONTINUOUS
 62
     1
 10
225.4793901745084099
 20
21.372017981596521
 30
0.0
  0
VERTEX
  5
131A
  8
0
  6
CONTINUOUS
 62
     1
 10
224.8556551020541008
 20
24.3064607837980091
 30
0.0
 42
-0.4142135623730827
  0
VERTEX
  5
131B
  8
0
  6
CONTINUOUS
 62
     1
 10
226.1650561489115034
 20
26.3227615794355714
 30
0.0
  0
VERTEX
  5
131C
  8
0
  6
CONTINUOUS
 62
     1
 10
252.5750413687242997
 20
31.9363772315149497
 30
0.0
 42
-0.4142135623730903
  0
VERTEX
  5
131D
  8
0
  6
CONTINUOUS
 62
     1
 10
254.5913421643622883
 20
30.6269761846576891
 30
0.0
  0
VERTEX
  5
131E
  8
0
  6
CONTINUOUS
 62
     1
 10
255.21507723681529
 20
27.6925333824563111
 30
0.0
 42
0.4142135623731091
  0
VERTEX
  5
131F
  8
0
  6
CONTINUOUS
 62
     1
 10
256.7569543158325018
 20
26.6912266995654015
 30
0.0
  0
VERTEX
  5
1320
  8
0
  6
CONTINUOUS
 62
     1
 10
281.0218648939084005
 20
31.8488926612714209
 30
0.0
  0
VERTEX
  5
1321
  8
0
  6
CONTINUOUS
 62
     1
 10
341.9525952500961239
 20
31.8488926612714209
 30
0.0
 42
0.4142135623730873
  0
VERTEX
  5
1322
  8
0
  6
CONTINUOUS
 62
     1
 10
343.2525952500967037
 20
33.148892661271482
 30
0.0
  0
VERTEX
  5
1323
  8
0
  6
CONTINUOUS
 62
     1
 10
343.2525952500967037
 20
36.1488926612714891
 30
0.0
 42
-0.4142135623731011
  0
VERTEX
  5
1324
  8
0
  6
CONTINUOUS
 62
     1
 10
344.9525952500961239
 20
37.8488926612715275
 30
0.0
  0
VERTEX
  5
1325
  8
0
  6
CONTINUOUS
 62
     1
 10
353.5509448206462935
 20
37.8488926612715275
 30
0.0
 42
0.4142135623730873
  0
VERTEX
  5
1326
  8
0
  6
CONTINUOUS
 62
     1
 10
354.8509448206467027
 20
39.1488926612714678
 30
0.0
  0
VERTEX
  5
1327
  8
0
  6
CONTINUOUS
 62
     1
 10
354.8509448206467027
 20
47.7472422318219216
 30
0.0
 42
-0.4142135623731011
  0
VERTEX
  5
1328
  8
0
  6
CONTINUOUS
 62
     1
 10
356.5509448206462935
 20
49.4472422318219813
 30
0.0
  0
VERTEX
  5
1329
  8
0
  6
CONTINUOUS
 62
     1
 10
359.5509448206462935
 20
49.4472422318218605
 30
0.0
 42
0.4142135623730873
  0
VERTEX
  5
132A
  8
0
  6
CONTINUOUS
 62
     1
 10
360.8509448206467027
 20
50.7472422318219429
 30
0.0
  0
VERTEX
  5
132B
  8
0
  6
CONTINUOUS
 62
     1
 10
360.8509448206467027
 20
121.8905430907205982
 30
0.0
 42
0.4142135623730873
  0
VERTEX
  5
132C
  8
0
  6
CONTINUOUS
 62
     1
 10
359.5509448206462935
 20
123.1905430907205954
 30
0.0
  0
VERTEX
  5
132D
  8
0
  6
CONTINUOUS
 62
     1
 10
356.5509448206462935
 20
123.1905430907205954
 30
0.0
 42
-0.4142135623731011
  0
VERTEX
  5
132E
  8
0
  6
CONTINUOUS
 62
     1
 10
354.8509448206467027
 20
124.8905430907205982
 30
0.0
  0
VERTEX
  5
132F
  8
0
  6
CONTINUOUS
 62
     1
 10
354.8509448206467027
 20
133.4888926612713078
 30
0.0
 42
0.414213562373049
  0
VERTEX
  5
1330
  8
0
  6
CONTINUOUS
 62
     1
 10
353.5509448206462935
 20
134.7888926612712055
 30
0.0
  0
VERTEX
  5
1331
  8
0
  6
CONTINUOUS
 62
     1
 10
344.9525952500961239
 20
134.7888926612712055
 30
0.0
 42
-0.4142135623731011
  0
VERTEX
  5
1332
  8
0
  6
CONTINUOUS
 62
     1
 10
343.2525952500967037
 20
136.4888926612713078
 30
0.0
  0
VERTEX
  5
1333
  8
0
  6
CONTINUOUS
 62
     1
 10
343.2525952500967037
 20
139.4888926612713078
 30
0.0
 42
0.4142135623730873
  0
VERTEX
  5
1334
  8
0
  6
CONTINUOUS
 62
     1
 10
341.9525952500961239
 20
140.7888926612712055
 30
0.0
  0
VERTEX
  5
1335
  8
0
  6
CONTINUOUS
 62
     1
 10
259.9525952500961239
 20
140.7888926612712055
 30
0.0
 42
0.4142135623730873
  0
VERTEX
  5
1336
  8
0
  6
CONTINUOUS
 62
     1
 10
258.6525952500961125
 20
139.4888926612713078
 30
0.0
  0
VERTEX
  5
1337
  8
0
  6
CONTINUOUS
 62
     1
 10
258.6525952500961125
 20
136.4888926612713078
 30
0.0
 42
-0.4142135623731011
  0
VERTEX
  5
1338
  8
0
  6
CONTINUOUS
 62
     1
 10
256.9525952500961239
 20
134.7888926612712055
 30
0.0
  0
SEQEND
  5
1339
  8
0
  6
CONTINUOUS
 62
     1
  0
ENDSEC
  0
EOF
