  0
SECTION
  2
HEADER
  9
$ACADVER
  1
AC1009
  9
$INSBASE
 10
0.0
 20
0.0
 30
0.0
  9
$EXTMIN
 10
4.3805479725668022
 20
2.4287430399932139
 30
0.0
  9
$EXTMAX
 10
354.2192979725672899
 20
128.4708626028862
 30
0.0
  9
$LIMMIN
 10
0.0
 20
0.0
  9
$LIMMAX
 10
12.0
 20
9.0
  9
$ORTHOMODE
 70
     0
  9
$REGENMODE
 70
     1
  9
$FILLMODE
 70
     1
  9
$QTEXTMODE
 70
     0
  9
$MIRRTEXT
 70
     0
  9
$DRAGMODE
 70
     2
  9
$LTSCALE
 40
1.0
  9
$OSMODE
 70
  2047
  9
$ATTMODE
 70
     1
  9
$TEXTSIZE
 40
0.2
  9
$TRACEWID
 40
0.05
  9
$TEXTSTYLE
  7
STANDARD
  9
$CLAYER
  8
0
  9
$CELTYPE
  6
BYLAYER
  9
$CECOLOR
 62
   256
  9
$DIMSCALE
 40
1.0
  9
$DIMASZ
 40
0.18
  9
$DIMEXO
 40
0.0625
  9
$DIMDLI
 40
0.38
  9
$DIMRND
 40
0.0
  9
$DIMDLE
 40
0.0
  9
$DIMEXE
 40
0.18
  9
$DIMTP
 40
0.0
  9
$DIMTM
 40
0.0
  9
$DIMTXT
 40
0.18
  9
$DIMCEN
 40
0.09
  9
$DIMTSZ
 40
0.0
  9
$DIMTOL
 70
     0
  9
$DIMLIM
 70
     0
  9
$DIMTIH
 70
     1
  9
$DIMTOH
 70
     1
  9
$DIMSE1
 70
     0
  9
$DIMSE2
 70
     0
  9
$DIMTAD
 70
     0
  9
$DIMZIN
 70
     0
  9
$DIMBLK
  1

  9
$DIMASO
 70
     1
  9
$DIMSHO
 70
     1
  9
$DIMPOST
  1

  9
$DIMAPOST
  1

  9
$DIMALT
 70
     0
  9
$DIMALTD
 70
     2
  9
$DIMALTF
 40
25.3999999999999986
  9
$DIMLFAC
 40
1.0
  9
$DIMTOFL
 70
     0
  9
$DIMTVP
 40
0.0
  9
$DIMTIX
 70
     0
  9
$DIMSOXD
 70
     0
  9
$DIMSAH
 70
     0
  9
$DIMBLK1
  1

  9
$DIMBLK2
  1

  9
$DIMSTYLE
  2
STANDARD
  9
$DIMCLRD
 70
     0
  9
$DIMCLRE
 70
     0
  9
$DIMCLRT
 70
     0
  9
$DIMTFAC
 40
1.0
  9
$DIMGAP
 40
0.09
  9
$LUNITS
 70
     2
  9
$LUPREC
 70
     4
  9
$SKETCHINC
 40
0.1
  9
$FILLETRAD
 40
0.0
  9
$AUNITS
 70
     0
  9
$AUPREC
 70
     0
  9
$MENU
  1
.
  9
$ELEVATION
 40
0.0
  9
$PELEVATION
 40
0.0
  9
$THICKNESS
 40
0.0
  9
$LIMCHECK
 70
     0
  9
$BLIPMODE
 70
     0
  9
$CHAMFERA
 40
0.0
  9
$CHAMFERB
 40
0.0
  9
$SKPOLY
 70
     0
  9
$TDCREATE
 40
2459370.6422453708946705
  9
$TDUPDATE
 40
2459370.6425231480970979
  9
$TDINDWG
 40
0.0002777778
  9
$TDUSRTIMER
 40
0.0002777778
  9
$USRTIMER
 70
     1
  9
$ANGBASE
 50
0.0
  9
$ANGDIR
 70
     0
  9
$PDMODE
 70
     0
  9
$PDSIZE
 40
0.0
  9
$PLINEWID
 40
0.0
  9
$COORDS
 70
     1
  9
$SPLFRAME
 70
     0
  9
$SPLINETYPE
 70
     6
  9
$SPLINESEGS
 70
     8
  9
$ATTDIA
 70
     1
  9
$ATTREQ
 70
     1
  9
$HANDLING
 70
     1
  9
$HANDSEED
  5
939
  9
$SURFTAB1
 70
     6
  9
$SURFTAB2
 70
     6
  9
$SURFTYPE
 70
     6
  9
$SURFU
 70
     6
  9
$SURFV
 70
     6
  9
$UCSNAME
  2

  9
$UCSORG
 10
0.0
 20
0.0
 30
0.0
  9
$UCSXDIR
 10
1.0
 20
0.0
 30
0.0
  9
$UCSYDIR
 10
0.0
 20
1.0
 30
0.0
  9
$PUCSNAME
  2

  9
$PUCSORG
 10
0.0
 20
0.0
 30
0.0
  9
$PUCSXDIR
 10
1.0
 20
0.0
 30
0.0
  9
$PUCSYDIR
 10
0.0
 20
1.0
 30
0.0
  9
$USERI1
 70
     0
  9
$USERI2
 70
     0
  9
$USERI3
 70
     0
  9
$USERI4
 70
     0
  9
$USERI5
 70
     0
  9
$USERR1
 40
0.0
  9
$USERR2
 40
0.0
  9
$USERR3
 40
0.0
  9
$USERR4
 40
0.0
  9
$USERR5
 40
0.0
  9
$WORLDVIEW
 70
     1
  9
$SHADEDGE
 70
     3
  9
$SHADEDIF
 70
    70
  9
$TILEMODE
 70
     1
  9
$MAXACTVP
 70
    64
  9
$PLIMCHECK
 70
     0
  9
$PEXTMIN
 10
0.0
 20
0.0
 30
0.0
  9
$PEXTMAX
 10
0.0
 20
0.0
 30
0.0
  9
$PLIMMIN
 10
0.0
 20
0.0
  9
$PLIMMAX
 10
12.0
 20
9.0
  9
$UNITMODE
 70
     0
  9
$VISRETAIN
 70
     1
  9
$PLINEGEN
 70
     0
  9
$PSLTSCALE
 70
     1
  0
ENDSEC
  0
SECTION
  2
TABLES
  0
TABLE
  2
VPORT
 70
     1
  0
VPORT
  2
*ACTIVE
 70
     0
 10
0.0
 20
0.0
 11
1.0
 21
1.0
 12
98.0563711038930705
 22
74.9431597353787851
 13
0.0
 23
0.0
 14
0.5
 24
0.5
 15
0.5
 25
0.5
 16
0.0
 26
0.0
 36
1.0
 17
0.0
 27
0.0
 37
0.0
 40
305.3133667558956859
 41
1.832426550598476
 42
50.0
 43
0.0
 44
0.0
 50
0.0
 51
0.0
 71
     0
 72
  1000
 73
     1
 74
     3
 75
     0
 76
     1
 77
     0
 78
     0
  0
ENDTAB
  0
TABLE
  2
LTYPE
 70
     1
  0
LTYPE
  2
CONTINUOUS
 70
     0
  3
Solid line
 72
    65
 73
     0
 40
0.0
  0
ENDTAB
  0
TABLE
  2
LAYER
 70
     1
  0
LAYER
  2
0
 70
     0
 62
     7
  6
CONTINUOUS
  0
ENDTAB
  0
TABLE
  2
STYLE
 70
     2
  0
STYLE
  2
STANDARD
 70
     0
 40
0.0
 41
1.0
 50
0.0
 71
     0
 42
0.2
  3
txt
  4

  0
STYLE
  2
ANNOTATIVE
 70
     0
 40
0.0
 41
1.0
 50
0.0
 71
     0
 42
0.2
  3
txt
  4

  0
ENDTAB
  0
TABLE
  2
VIEW
 70
     1
  0
ENDTAB
  0
TABLE
  2
UCS
 70
     0
  0
ENDTAB
  0
TABLE
  2
APPID
 70
     7
  0
APPID
  2
ACAD
 70
     0
  0
APPID
  2
ACADANNOPO
 70
     0
  0
APPID
  2
ACADANNOTATIVE
 70
     0
  0
APPID
  2
ACAD_DSTYLE_DIMJAG
 70
     0
  0
APPID
  2
ACAD_DSTYLE_DIMTALN
 70
     0
  0
APPID
  2
ACAD_MLEADERVER
 70
     0
  0
APPID
  2
ACAD_NAV_VCDISPLAY
 70
     0
  0
ENDTAB
  0
TABLE
  2
DIMSTYLE
 70
     3
  0
DIMSTYLE
  2
STANDARD
 70
     0
  3

  4

  5

  6

  7

 40
1.0
 41
0.18
 42
0.0625
 43
0.38
 44
0.18
 45
0.0
 46
0.0
 47
0.0
 48
0.0
140
0.18
141
0.09
142
0.0
143
25.3999999999999986
144
1.0
145
0.0
146
1.0
147
0.09
 71
     0
 72
     0
 73
     1
 74
     1
 75
     0
 76
     0
 77
     0
 78
     0
170
     0
171
     2
172
     0
173
     0
174
     0
175
     0
176
     0
177
     0
178
     0
  0
DIMSTYLE
  2
ANNOTATIVE
 70
     0
  3

  4

  5

  6

  7

 40
0.0
 41
0.18
 42
0.0625
 43
0.38
 44
0.18
 45
0.0
 46
0.0
 47
0.0
 48
0.0
140
0.18
141
0.09
142
0.0
143
25.3999999999999986
144
1.0
145
0.0
146
1.0
147
0.09
 71
     0
 72
     0
 73
     1
 74
     1
 75
     0
 76
     0
 77
     0
 78
     0
170
     0
171
     2
172
     0
173
     0
174
     0
175
     0
176
     0
177
     0
178
     0
  0
DIMSTYLE
  2
ISO-25
 70
     0
  3

  4

  5

  6

  7

 40
1.0
 41
2.5
 42
0.625
 43
3.75
 44
1.25
 45
0.0
 46
0.0
 47
0.0
 48
0.0
140
2.5
141
2.5
142
0.0
143
0.03937007874016
144
1.0
145
0.0
146
1.0
147
0.625
 71
     0
 72
     0
 73
     0
 74
     0
 75
     0
 76
     0
 77
     1
 78
     8
170
     0
171
     3
172
     1
173
     0
174
     0
175
     0
176
     0
177
     0
178
     0
  0
ENDTAB
  0
ENDSEC
  0
SECTION
  2
BLOCKS
  0
BLOCK
  8
0
  2
$MODEL_SPACE
 70
     0
 10
0.0
 20
0.0
 30
0.0
  3
$MODEL_SPACE
  1

  0
ENDBLK
  5
21
  8
0
  0
BLOCK
 67
     1
  8
0
  2
$PAPER_SPACE
 70
     0
 10
0.0
 20
0.0
 30
0.0
  3
$PAPER_SPACE
  1

  0
ENDBLK
  5
5B
 67
     1
  8
0
  0
ENDSEC
  0
SECTION
  2
ENTITIES
  0
POLYLINE
  5
27C
  8
0
  6
CONTINUOUS
 62
     1
 66
     1
 10
0.0
 20
0.0
 30
0.0
 70
     1
  0
VERTEX
  5
631
  8
0
  6
CONTINUOUS
 62
     1
 10
170.2548154126940005
 20
25.4704256631166892
 30
0.0
  0
VERTEX
  5
632
  8
0
  6
CONTINUOUS
 62
     1
 10
156.1890529141421098
 20
28.4601957770761693
 30
0.0
 42
0.4142135623730718
  0
VERTEX
  5
633
  8
0
  6
CONTINUOUS
 62
     1
 10
155.0029936225909069
 20
27.6899598671600806
 30
0.0
  0
VERTEX
  5
634
  8
0
  6
CONTINUOUS
 62
     1
 10
152.5080533327769956
 20
15.9521886583543608
 30
0.0
 42
0.4142135623731082
  0
VERTEX
  5
635
  8
0
  6
CONTINUOUS
 62
     1
 10
153.2782892426926935
 20
14.7661293668028097
 30
0.0
  0
VERTEX
  5
636
  8
0
  6
CONTINUOUS
 62
     1
 10
167.3440517412458064
 20
11.7763592528434309
 30
0.0
 42
0.4142135623731316
  0
VERTEX
  5
637
  8
0
  6
CONTINUOUS
 62
     1
 10
168.5301110327970093
 20
12.5465951627595302
 30
0.0
  0
VERTEX
  5
638
  8
0
  6
CONTINUOUS
 62
     1
 10
171.0250513226098121
 20
24.2843663715651417
 30
0.0
 42
0.4142135623731081
  0
SEQEND
  5
639
  8
0
  6
CONTINUOUS
 62
     1
  0
POLYLINE
  5
27D
  8
0
  6
CONTINUOUS
 62
     1
 66
     1
 10
0.0
 20
0.0
 30
0.0
 70
     1
  0
VERTEX
  5
63A
  8
0
  6
CONTINUOUS
 62
     1
 10
117.2405828302685933
 20
23.4438062822252107
 30
0.0
  0
VERTEX
  5
63B
  8
0
  6
CONTINUOUS
 62
     1
 10
122.131320833933998
 20
22.4042478281373008
 30
0.0
 42
0.0236362162189824
  0
VERTEX
  5
63C
  8
0
  6
CONTINUOUS
 62
     1
 10
122.2245730112201016
 20
22.3889905788947594
 30
0.0
 42
0.4141704366929254
  0
VERTEX
  5
63D
  8
0
  6
CONTINUOUS
 62
     1
 10
122.9948395239750027
 20
21.2030753145211008
 30
0.0
  0
VERTEX
  5
63E
  8
0
  6
CONTINUOUS
 62
     1
 10
125.1934057093230024
 20
20.7357556455596388
 30
0.0
 42
0.0240240556255289
  0
VERTEX
  5
63F
  8
0
  6
CONTINUOUS
 62
     1
 10
125.2862805324399034
 20
20.7112995426565796
 30
0.0
  0
VERTEX
  5
640
  8
0
  6
CONTINUOUS
 62
     1
 10
137.0240517412460974
 20
18.216359252843489
 30
0.0
 42
0.4142135623730824
  0
VERTEX
  5
641
  8
0
  6
CONTINUOUS
 62
     1
 10
138.2101110327965898
 20
18.9865951627595315
 30
0.0
  0
VERTEX
  5
642
  8
0
  6
CONTINUOUS
 62
     1
 10
138.2126191368639923
 20
18.9983948646681604
 30
0.0
 42
0.0248928629650061
  0
VERTEX
  5
643
  8
0
  6
CONTINUOUS
 62
     1
 10
138.3088044541686088
 20
18.9728883346691788
 30
0.0
  0
VERTEX
  5
644
  8
0
  6
CONTINUOUS
 62
     1
 10
140.4798636786466943
 20
18.5114154507320592
 30
0.0
 42
0.0298424820520141
  0
VERTEX
  5
645
  8
0
  6
CONTINUOUS
 62
     1
 10
140.5948349453888966
 20
18.4797067522615315
 30
0.0
  0
VERTEX
  5
646
  8
0
  6
CONTINUOUS
 62
     1
 10
145.4855729490570013
 20
17.4401482981730709
 30
0.0
 42
0.4142135623731571
  0
VERTEX
  5
647
  8
0
  6
CONTINUOUS
 62
     1
 10
146.6716322406078916
 20
18.2103842080890885
 30
0.0
  0
VERTEX
  5
648
  8
0
  6
CONTINUOUS
 62
     1
 10
149.3744842212389869
 20
30.9263030176285092
 30
0.0
 42
0.4142135623727938
  0
VERTEX
  5
649
  8
0
  6
CONTINUOUS
 62
     1
 10
148.6042483113230048
 20
32.1123623091798081
 30
0.0
  0
VERTEX
  5
64A
  8
0
  6
CONTINUOUS
 62
     1
 10
146.4331890868706125
 20
32.5738351931114281
 30
0.0
 42
0.0298424820536643
  0
VERTEX
  5
64B
  8
0
  6
CONTINUOUS
 62
     1
 10
146.318217820115791
 20
32.6055438915860591
 30
0.0
  0
VERTEX
  5
64C
  8
0
  6
CONTINUOUS
 62
     1
 10
141.4274798164366018
 20
33.6451023456768468
 30
0.0
 42
0.4142135623740356
  0
VERTEX
  5
64D
  8
0
  6
CONTINUOUS
 62
     1
 10
140.2414205248840915
 20
32.8748664357614615
 30
0.0
  0
VERTEX
  5
64E
  8
0
  6
CONTINUOUS
 62
     1
 10
140.0310007299995902
 20
31.8849191331176307
 30
0.0
 42
0.0248928629654563
  0
VERTEX
  5
64F
  8
0
  6
CONTINUOUS
 62
     1
 10
139.9348154126938937
 20
31.9104256631167509
 30
0.0
  0
VERTEX
  5
650
  8
0
  6
CONTINUOUS
 62
     1
 10
137.7362492273447003
 20
32.3777453320784971
 30
0.0
 42
0.0240240556246659
  0
VERTEX
  5
651
  8
0
  6
CONTINUOUS
 62
     1
 10
137.6433744042280125
 20
32.4022014349814427
 30
0.0
  0
VERTEX
  5
652
  8
0
  6
CONTINUOUS
 62
     1
 10
125.9056031954237937
 20
34.8971417247944018
 30
0.0
 42
0.0236362134955536
  0
VERTEX
  5
653
  8
0
  6
CONTINUOUS
 62
     1
 10
125.8123510289560016
 20
34.9123989727884023
 30
0.0
  0
VERTEX
  5
654
  8
0
  6
CONTINUOUS
 62
     1
 10
126.0202321061180015
 20
35.8904025475934887
 30
0.0
 42
0.4142135623728282
  0
VERTEX
  5
655
  8
0
  6
CONTINUOUS
 62
     1
 10
125.2499961962020052
 20
37.0764618391447982
 30
0.0
  0
VERTEX
  5
656
  8
0
  6
CONTINUOUS
 62
     1
 10
123.0789369717378037
 20
37.5379347230787417
 30
0.0
 42
0.0298424820589184
  0
VERTEX
  5
657
  8
0
  6
CONTINUOUS
 62
     1
 10
122.9639657049846022
 20
37.5696434215531596
 30
0.0
  0
VERTEX
  5
658
  8
0
  6
CONTINUOUS
 62
     1
 10
118.0732277013150053
 20
38.6092018756422135
 30
0.0
 42
0.414213562373473
  0
VERTEX
  5
659
  8
0
  6
CONTINUOUS
 62
     1
 10
116.8871684097641008
 20
37.8389659657262101
 30
0.0
  0
VERTEX
  5
65A
  8
0
  6
CONTINUOUS
 62
     1
 10
114.1843164291330055
 20
25.1230471561868605
 30
0.0
 42
0.4142135623723204
  0
VERTEX
  5
65B
  8
0
  6
CONTINUOUS
 62
     1
 10
114.9545523390488029
 20
23.9369878646354302
 30
0.0
  0
VERTEX
  5
65C
  8
0
  6
CONTINUOUS
 62
     1
 10
117.125611563503
 20
23.4755149807035508
 30
0.0
 42
0.0298424820624604
  0
SEQEND
  5
65D
  8
0
  6
CONTINUOUS
 62
     1
  0
POLYLINE
  5
27E
  8
0
  6
CONTINUOUS
 62
     1
 66
     1
 10
0.0
 20
0.0
 30
0.0
 70
     1
  0
VERTEX
  5
65E
  8
0
  6
CONTINUOUS
 62
     1
 10
337.2785479725628761
 20
81.930862901118644
 30
0.0
  0
VERTEX
  5
65F
  8
0
  6
CONTINUOUS
 62
     1
 10
332.2785479725637856
 20
81.9308629011185303
 30
0.0
 42
0.4142135623735843
  0
VERTEX
  5
660
  8
0
  6
CONTINUOUS
 62
     1
 10
331.2785479725649793
 20
80.9308629011185445
 30
0.0
  0
VERTEX
  5
661
  8
0
  6
CONTINUOUS
 62
     1
 10
331.2785479725638993
 20
67.9308629011185303
 30
0.0
 42
0.4142135623730307
  0
VERTEX
  5
662
  8
0
  6
CONTINUOUS
 62
     1
 10
332.2785479725637856
 20
66.930862901118843
 30
0.0
  0
VERTEX
  5
663
  8
0
  6
CONTINUOUS
 62
     1
 10
337.2785479725628761
 20
66.930862901118914
 30
0.0
 42
0.4142135623731618
  0
VERTEX
  5
664
  8
0
  6
CONTINUOUS
 62
     1
 10
338.2785479725629898
 20
67.930862901118843
 30
0.0
  0
VERTEX
  5
665
  8
0
  6
CONTINUOUS
 62
     1
 10
338.2785479725629898
 20
80.9308629011189282
 30
0.0
 42
0.4142135623727582
  0
SEQEND
  5
666
  8
0
  6
CONTINUOUS
 62
     1
  0
POLYLINE
  5
27F
  8
0
  6
CONTINUOUS
 62
     1
 66
     1
 10
0.0
 20
0.0
 30
0.0
 70
     1
  0
VERTEX
  5
667
  8
0
  6
CONTINUOUS
 62
     1
 10
302.3475479725719879
 20
102.0308623046546046
 30
0.0
  0
VERTEX
  5
668
  8
0
  6
CONTINUOUS
 62
     1
 10
307.3475479725709079
 20
102.0308623046546046
 30
0.0
 42
0.4142135623735967
  0
VERTEX
  5
669
  8
0
  6
CONTINUOUS
 62
     1
 10
308.3475479725697141
 20
103.0308623046547041
 30
0.0
  0
VERTEX
  5
66A
  8
0
  6
CONTINUOUS
 62
     1
 10
308.3475479725697141
 20
104.0308626028866001
 30
0.0
  0
VERTEX
  5
66B
  8
0
  6
CONTINUOUS
 62
     1
 10
325.2235479725725895
 20
104.0308626028866001
 30
0.0
  0
VERTEX
  5
66C
  8
0
  6
CONTINUOUS
 62
     1
 10
325.2235479725725895
 20
103.0308623046543062
 30
0.0
 42
0.4142135623727877
  0
VERTEX
  5
66D
  8
0
  6
CONTINUOUS
 62
     1
 10
326.2235479725727032
 20
102.0308623046545051
 30
0.0
  0
VERTEX
  5
66E
  8
0
  6
CONTINUOUS
 62
     1
 10
331.2235479725699179
 20
102.0308623046546046
 30
0.0
 42
0.4142135623720363
  0
VERTEX
  5
66F
  8
0
  6
CONTINUOUS
 62
     1
 10
332.2235479725720211
 20
103.0308623046547041
 30
0.0
  0
VERTEX
  5
670
  8
0
  6
CONTINUOUS
 62
     1
 10
332.2235479725708274
 20
104.0308626028866001
 30
0.0
  0
VERTEX
  5
671
  8
0
  6
CONTINUOUS
 62
     1
 10
332.3105479725668943
 20
104.0308626028866001
 30
0.0
 42
0.4142135623731475
  0
VERTEX
  5
672
  8
0
  6
CONTINUOUS
 62
     1
 10
333.3105479725670079
 20
105.0308626028866001
 30
0.0
  0
VERTEX
  5
673
  8
0
  6
CONTINUOUS
 62
     1
 10
333.3105479725670079
 20
117.0308626028866001
 30
0.0
 42
0.4142135623731421
  0
VERTEX
  5
674
  8
0
  6
CONTINUOUS
 62
     1
 10
332.3105479725668943
 20
118.0308626028866001
 30
0.0
  0
VERTEX
  5
675
  8
0
  6
CONTINUOUS
 62
     1
 10
301.260547972567224
 20
118.0308626028866001
 30
0.0
 42
0.414213562373084
  0
VERTEX
  5
676
  8
0
  6
CONTINUOUS
 62
     1
 10
300.260547972567224
 20
117.0308626028866001
 30
0.0
  0
VERTEX
  5
677
  8
0
  6
CONTINUOUS
 62
     1
 10
300.260547972567224
 20
105.0308626028866001
 30
0.0
 42
0.41421356237308
  0
VERTEX
  5
678
  8
0
  6
CONTINUOUS
 62
     1
 10
301.260547972567224
 20
104.0308626028865007
 30
0.0
  0
VERTEX
  5
679
  8
0
  6
CONTINUOUS
 62
     1
 10
301.3475479725719879
 20
104.0308626028866001
 30
0.0
  0
VERTEX
  5
67A
  8
0
  6
CONTINUOUS
 62
     1
 10
301.3475479725719879
 20
103.0308623046544056
 30
0.0
 42
0.4142135623727877
  0
SEQEND
  5
67B
  8
0
  6
CONTINUOUS
 62
     1
  0
POLYLINE
  5
280
  8
0
  6
CONTINUOUS
 62
     1
 66
     1
 10
0.0
 20
0.0
 30
0.0
 70
     1
  0
VERTEX
  5
67C
  8
0
  6
CONTINUOUS
 62
     1
 10
313.4025479725618197
 20
81.9308629011184451
 30
0.0
  0
VERTEX
  5
67D
  8
0
  6
CONTINUOUS
 62
     1
 10
308.402547972565003
 20
81.9308629011184451
 30
0.0
 42
0.4142135623720192
  0
VERTEX
  5
67E
  8
0
  6
CONTINUOUS
 62
     1
 10
307.4025479725630134
 20
80.9308629011184451
 30
0.0
  0
VERTEX
  5
67F
  8
0
  6
CONTINUOUS
 62
     1
 10
307.4025479725638093
 20
67.9308629011183314
 30
0.0
 42
0.4142135623733948
  0
VERTEX
  5
680
  8
0
  6
CONTINUOUS
 62
     1
 10
308.402547972565003
 20
66.9308629011177345
 30
0.0
  0
VERTEX
  5
681
  8
0
  6
CONTINUOUS
 62
     1
 10
313.4025479725609102
 20
66.9308629011177345
 30
0.0
 42
0.4142135623731534
  0
VERTEX
  5
682
  8
0
  6
CONTINUOUS
 62
     1
 10
314.4025479725609102
 20
67.930862901118644
 30
0.0
  0
VERTEX
  5
683
  8
0
  6
CONTINUOUS
 62
     1
 10
314.4025479725609102
 20
80.930862901118644
 30
0.0
 42
0.41421356237276
  0
SEQEND
  5
684
  8
0
  6
CONTINUOUS
 62
     1
  0
POLYLINE
  5
281
  8
0
  6
CONTINUOUS
 62
     1
 66
     1
 10
0.0
 20
0.0
 30
0.0
 70
     1
  0
VERTEX
  5
685
  8
0
  6
CONTINUOUS
 62
     1
 10
223.6318377525919061
 20
37.076020293231899
 30
0.0
  0
VERTEX
  5
686
  8
0
  6
CONTINUOUS
 62
     1
 10
218.7410997489236024
 20
36.0364618391432501
 30
0.0
 42
0.4142135623735812
  0
VERTEX
  5
687
  8
0
  6
CONTINUOUS
 62
     1
 10
217.9708638390079045
 20
34.8504025475917487
 30
0.0
  0
VERTEX
  5
688
  8
0
  6
CONTINUOUS
 62
     1
 10
220.6737158196388862
 20
22.1344837380522499
 30
0.0
 42
0.4142135623729507
  0
VERTEX
  5
689
  8
0
  6
CONTINUOUS
 62
     1
 10
221.8597751111898901
 20
21.3642478281364383
 30
0.0
  0
VERTEX
  5
68A
  8
0
  6
CONTINUOUS
 62
     1
 10
226.7505131148579096
 20
22.4038062822250197
 30
0.0
 42
0.4142135623731339
  0
VERTEX
  5
68B
  8
0
  6
CONTINUOUS
 62
     1
 10
227.5207490247738917
 20
23.5898655737762901
 30
0.0
  0
VERTEX
  5
68C
  8
0
  6
CONTINUOUS
 62
     1
 10
224.8178970441427964
 20
36.3057843833160305
 30
0.0
 42
0.4142135623727932
  0
SEQEND
  5
68D
  8
0
  6
CONTINUOUS
 62
     1
  0
POLYLINE
  5
282
  8
0
  6
CONTINUOUS
 62
     1
 66
     1
 10
0.0
 20
0.0
 30
0.0
 70
     1
  0
VERTEX
  5
68E
  8
0
  6
CONTINUOUS
 62
     1
 10
200.2775856374701959
 20
32.1119207632666317
 30
0.0
  0
VERTEX
  5
68F
  8
0
  6
CONTINUOUS
 62
     1
 10
195.3868476338041944
 20
31.0723623091783701
 30
0.0
 42
0.4142135623719997
  0
VERTEX
  5
690
  8
0
  6
CONTINUOUS
 62
     1
 10
194.6166117238863933
 20
29.8863030176265383
 30
0.0
  0
VERTEX
  5
691
  8
0
  6
CONTINUOUS
 62
     1
 10
197.3194637045180002
 20
17.1703842080870892
 30
0.0
 42
0.4142135623734013
  0
VERTEX
  5
692
  8
0
  6
CONTINUOUS
 62
     1
 10
198.5055229960707095
 20
16.4001482981706488
 30
0.0
  0
VERTEX
  5
693
  8
0
  6
CONTINUOUS
 62
     1
 10
203.3962609997360005
 20
17.4397067522586795
 30
0.0
 42
0.4142135623731364
  0
VERTEX
  5
694
  8
0
  6
CONTINUOUS
 62
     1
 10
204.166496909652011
 20
18.6257660438110193
 30
0.0
  0
VERTEX
  5
695
  8
0
  6
CONTINUOUS
 62
     1
 10
201.4636449290219105
 20
31.3416848533506887
 30
0.0
 42
0.41421356237278
  0
SEQEND
  5
696
  8
0
  6
CONTINUOUS
 62
     1
  0
POLYLINE
  5
283
  8
0
  6
CONTINUOUS
 62
     1
 66
     1
 10
0.0
 20
0.0
 30
0.0
 70
     1
  0
VERTEX
  5
697
  8
0
  6
CONTINUOUS
 62
     1
 10
36.002547972571989
 20
44.8808623046550323
 30
0.0
  0
VERTEX
  5
698
  8
0
  6
CONTINUOUS
 62
     1
 10
41.0025479725708522
 20
44.8808623046550323
 30
0.0
 42
0.4142135623730898
  0
VERTEX
  5
699
  8
0
  6
CONTINUOUS
 62
     1
 10
42.0025479725708522
 20
45.880862304654741
 30
0.0
  0
VERTEX
  5
69A
  8
0
  6
CONTINUOUS
 62
     1
 10
42.0025479725708522
 20
58.8808623046547979
 30
0.0
 42
0.4142135623734128
  0
VERTEX
  5
69B
  8
0
  6
CONTINUOUS
 62
     1
 10
41.0025479725708522
 20
59.8808623046545208
 30
0.0
  0
VERTEX
  5
69C
  8
0
  6
CONTINUOUS
 62
     1
 10
36.002547972571989
 20
59.8808623046544923
 30
0.0
 42
0.4142135623731753
  0
VERTEX
  5
69D
  8
0
  6
CONTINUOUS
 62
     1
 10
35.002547972571989
 20
58.8808623046545208
 30
0.0
  0
VERTEX
  5
69E
  8
0
  6
CONTINUOUS
 62
     1
 10
35.002547972571989
 20
45.8808623046545492
 30
0.0
 42
0.4142135623731502
  0
SEQEND
  5
69F
  8
0
  6
CONTINUOUS
 62
     1
  0
POLYLINE
  5
284
  8
0
  6
CONTINUOUS
 62
     1
 66
     1
 10
0.0
 20
0.0
 30
0.0
 70
     1
  0
VERTEX
  5
6A0
  8
0
  6
CONTINUOUS
 62
     1
 10
59.8785479725726475
 20
44.8808623046547481
 30
0.0
  0
VERTEX
  5
6A1
  8
0
  6
CONTINUOUS
 62
     1
 10
64.878547972569919
 20
44.8808623046547481
 30
0.0
 42
0.4142135623733302
  0
VERTEX
  5
6A2
  8
0
  6
CONTINUOUS
 62
     1
 10
65.8785479725708285
 20
45.8808623046556718
 30
0.0
  0
VERTEX
  5
6A3
  8
0
  6
CONTINUOUS
 62
     1
 10
65.8785479725708285
 20
58.8808623046556434
 30
0.0
 42
0.4142135623728349
  0
VERTEX
  5
6A4
  8
0
  6
CONTINUOUS
 62
     1
 10
64.878547972569919
 20
59.8808623046553876
 30
0.0
  0
VERTEX
  5
6A5
  8
0
  6
CONTINUOUS
 62
     1
 10
59.8785479725740117
 20
59.8808623046553876
 30
0.0
 42
0.414213562373168
  0
VERTEX
  5
6A6
  8
0
  6
CONTINUOUS
 62
     1
 10
58.8785479725726475
 20
58.8808623046545208
 30
0.0
  0
VERTEX
  5
6A7
  8
0
  6
CONTINUOUS
 62
     1
 10
58.8785479725726475
 20
45.8808623046545492
 30
0.0
 42
0.4142135623727871
  0
SEQEND
  5
6A8
  8
0
  6
CONTINUOUS
 62
     1
  0
POLYLINE
  5
285
  8
0
  6
CONTINUOUS
 62
     1
 66
     1
 10
0.0
 20
0.0
 30
0.0
 70
     1
  0
VERTEX
  5
6A9
  8
0
  6
CONTINUOUS
 62
     1
 10
305.7255479725669147
 20
59.8808626028866584
 30
0.0
  0
VERTEX
  5
6AA
  8
0
  6
CONTINUOUS
 62
     1
 10
305.7255479725669147
 20
47.8808626028865731
 30
0.0
 42
0.4142135623731117
  0
VERTEX
  5
6AB
  8
0
  6
CONTINUOUS
 62
     1
 10
306.7255479725669147
 20
46.8808626028865731
 30
0.0
  0
VERTEX
  5
6AC
  8
0
  6
CONTINUOUS
 62
     1
 10
306.812547972571906
 20
46.8808626028865731
 30
0.0
  0
VERTEX
  5
6AD
  8
0
  6
CONTINUOUS
 62
     1
 10
306.812547972571906
 20
45.8808623046543929
 30
0.0
 42
0.4142135623727163
  0
VERTEX
  5
6AE
  8
0
  6
CONTINUOUS
 62
     1
 10
307.812547972571906
 20
44.8808623046546487
 30
0.0
  0
VERTEX
  5
6AF
  8
0
  6
CONTINUOUS
 62
     1
 10
312.8125479725709965
 20
44.8808623046546771
 30
0.0
 42
0.4142135623735446
  0
VERTEX
  5
6B0
  8
0
  6
CONTINUOUS
 62
     1
 10
313.8125479725699165
 20
45.8808623046546913
 30
0.0
  0
VERTEX
  5
6B1
  8
0
  6
CONTINUOUS
 62
     1
 10
313.8125479725699165
 20
46.8808626028865731
 30
0.0
  0
VERTEX
  5
6B2
  8
0
  6
CONTINUOUS
 62
     1
 10
328.2505479725671762
 20
46.8808626028865731
 30
0.0
 42
0.4142135623731037
  0
VERTEX
  5
6B3
  8
0
  6
CONTINUOUS
 62
     1
 10
329.2505479725671762
 20
47.8808626028865731
 30
0.0
  0
VERTEX
  5
6B4
  8
0
  6
CONTINUOUS
 62
     1
 10
329.2505479725671762
 20
59.8808626028866584
 30
0.0
 42
0.4142135623731263
  0
VERTEX
  5
6B5
  8
0
  6
CONTINUOUS
 62
     1
 10
328.2505479725671762
 20
60.8808626028866513
 30
0.0
  0
VERTEX
  5
6B6
  8
0
  6
CONTINUOUS
 62
     1
 10
306.7255479725669147
 20
60.8808626028866513
 30
0.0
 42
0.4142135623731451
  0
SEQEND
  5
6B7
  8
0
  6
CONTINUOUS
 62
     1
  0
POLYLINE
  5
286
  8
0
  6
CONTINUOUS
 62
     1
 66
     1
 10
0.0
 20
0.0
 30
0.0
 70
     1
  0
VERTEX
  5
6B8
  8
0
  6
CONTINUOUS
 62
     1
 10
331.6885479725740993
 20
59.8808623046552881
 30
0.0
 42
0.4142135623732619
  0
VERTEX
  5
6B9
  8
0
  6
CONTINUOUS
 62
     1
 10
330.688547972574213
 20
58.8808623046544923
 30
0.0
  0
VERTEX
  5
6BA
  8
0
  6
CONTINUOUS
 62
     1
 10
330.6885479725727919
 20
45.8808623046543929
 30
0.0
 42
0.4142135623727163
  0
VERTEX
  5
6BB
  8
0
  6
CONTINUOUS
 62
     1
 10
331.6885479725727919
 20
44.8808623046546487
 30
0.0
  0
VERTEX
  5
6BC
  8
0
  6
CONTINUOUS
 62
     1
 10
336.6885479725698929
 20
44.8808623046546771
 30
0.0
 42
0.4142135623720797
  0
VERTEX
  5
6BD
  8
0
  6
CONTINUOUS
 62
     1
 10
337.6885479725709729
 20
45.8808623046546913
 30
0.0
  0
VERTEX
  5
6BE
  8
0
  6
CONTINUOUS
 62
     1
 10
337.6885479725709729
 20
46.8808626028865731
 30
0.0
  0
VERTEX
  5
6BF
  8
0
  6
CONTINUOUS
 62
     1
 10
344.9192979725668238
 20
46.8808626028865731
 30
0.0
 42
0.4142135623730659
  0
VERTEX
  5
6C0
  8
0
  6
CONTINUOUS
 62
     1
 10
345.9192979725668238
 20
47.8808626028866584
 30
0.0
  0
VERTEX
  5
6C1
  8
0
  6
CONTINUOUS
 62
     1
 10
345.9192979725668238
 20
59.8808626028866584
 30
0.0
 42
0.4142135623730659
  0
VERTEX
  5
6C2
  8
0
  6
CONTINUOUS
 62
     1
 10
344.9192979725668238
 20
60.8808626028866513
 30
0.0
  0
VERTEX
  5
6C3
  8
0
  6
CONTINUOUS
 62
     1
 10
332.9192979725668238
 20
60.8808626028866513
 30
0.0
 42
0.4142136497229438
  0
VERTEX
  5
6C4
  8
0
  6
CONTINUOUS
 62
     1
 10
331.9192979725668238
 20
59.8808623046552881
 30
0.0
  0
SEQEND
  5
6C5
  8
0
  6
CONTINUOUS
 62
     1
  0
POLYLINE
  5
287
  8
0
  6
CONTINUOUS
 62
     1
 66
     1
 10
0.0
 20
0.0
 30
0.0
 70
     1
  0
VERTEX
  5
6C6
  8
0
  6
CONTINUOUS
 62
     1
 10
25.6805479725668704
 20
82.070862602886649
 30
0.0
  0
VERTEX
  5
6C7
  8
0
  6
CONTINUOUS
 62
     1
 10
13.6805479725668704
 20
82.070862602886649
 30
0.0
 42
0.4142135623731112
  0
VERTEX
  5
6C8
  8
0
  6
CONTINUOUS
 62
     1
 10
12.6805479725668704
 20
81.070862602886649
 30
0.0
  0
VERTEX
  5
6C9
  8
0
  6
CONTINUOUS
 62
     1
 10
12.6805479725668704
 20
69.0708626028866348
 30
0.0
 42
0.4142135623730854
  0
VERTEX
  5
6CA
  8
0
  6
CONTINUOUS
 62
     1
 10
13.6805479725668704
 20
68.070862602886649
 30
0.0
  0
VERTEX
  5
6CB
  8
0
  6
CONTINUOUS
 62
     1
 10
25.6805479725668704
 20
68.070862602886649
 30
0.0
 42
0.4142135623730809
  0
VERTEX
  5
6CC
  8
0
  6
CONTINUOUS
 62
     1
 10
26.6805479725668704
 20
69.0708626028866348
 30
0.0
  0
VERTEX
  5
6CD
  8
0
  6
CONTINUOUS
 62
     1
 10
26.6805479725668704
 20
81.070862602886649
 30
0.0
 42
0.4142135623730802
  0
SEQEND
  5
6CE
  8
0
  6
CONTINUOUS
 62
     1
  0
POLYLINE
  5
288
  8
0
  6
CONTINUOUS
 62
     1
 66
     1
 10
0.0
 20
0.0
 30
0.0
 70
     1
  0
VERTEX
  5
6CF
  8
0
  6
CONTINUOUS
 62
     1
 10
56.4405479725668613
 20
60.8808626028866513
 30
0.0
  0
VERTEX
  5
6D0
  8
0
  6
CONTINUOUS
 62
     1
 10
44.4405479725668471
 20
60.8808626028866513
 30
0.0
 42
0.4142135623731213
  0
VERTEX
  5
6D1
  8
0
  6
CONTINUOUS
 62
     1
 10
43.4405479725668613
 20
59.8808626028865874
 30
0.0
  0
VERTEX
  5
6D2
  8
0
  6
CONTINUOUS
 62
     1
 10
43.4405479725668613
 20
47.8808626028865731
 30
0.0
 42
0.4142135623731046
  0
VERTEX
  5
6D3
  8
0
  6
CONTINUOUS
 62
     1
 10
44.4405479725668471
 20
46.8808626028865731
 30
0.0
  0
VERTEX
  5
6D4
  8
0
  6
CONTINUOUS
 62
     1
 10
56.4405479725668613
 20
46.8808626028865731
 30
0.0
 42
0.4142135623730826
  0
VERTEX
  5
6D5
  8
0
  6
CONTINUOUS
 62
     1
 10
57.4405479725668613
 20
47.8808626028865731
 30
0.0
  0
VERTEX
  5
6D6
  8
0
  6
CONTINUOUS
 62
     1
 10
57.4405479725668613
 20
59.8808626028866584
 30
0.0
 42
0.4142135623731014
  0
SEQEND
  5
6D7
  8
0
  6
CONTINUOUS
 62
     1
  0
POLYLINE
  5
289
  8
0
  6
CONTINUOUS
 62
     1
 66
     1
 10
0.0
 20
0.0
 30
0.0
 70
     1
  0
VERTEX
  5
6D8
  8
0
  6
CONTINUOUS
 62
     1
 10
29.7505479725672615
 20
101.1208626028865041
 30
0.0
  0
VERTEX
  5
6D9
  8
0
  6
CONTINUOUS
 62
     1
 10
17.7505479725672615
 20
101.1208626028865041
 30
0.0
 42
0.4142135623730906
  0
VERTEX
  5
6DA
  8
0
  6
CONTINUOUS
 62
     1
 10
16.7505479725672615
 20
100.1208626028865041
 30
0.0
  0
VERTEX
  5
6DB
  8
0
  6
CONTINUOUS
 62
     1
 10
16.7505479725672615
 20
88.1208626028865041
 30
0.0
 42
0.4142135623731141
  0
VERTEX
  5
6DC
  8
0
  6
CONTINUOUS
 62
     1
 10
17.7505479725672615
 20
87.1208626028865183
 30
0.0
  0
VERTEX
  5
6DD
  8
0
  6
CONTINUOUS
 62
     1
 10
29.7505479725672615
 20
87.1208626028865183
 30
0.0
 42
0.4142135623730911
  0
VERTEX
  5
6DE
  8
0
  6
CONTINUOUS
 62
     1
 10
30.7505479725672615
 20
88.1208626028865041
 30
0.0
  0
VERTEX
  5
6DF
  8
0
  6
CONTINUOUS
 62
     1
 10
30.7505479725672615
 20
100.1208626028865041
 30
0.0
 42
0.4142135623730824
  0
SEQEND
  5
6E0
  8
0
  6
CONTINUOUS
 62
     1
  0
POLYLINE
  5
28A
  8
0
  6
CONTINUOUS
 62
     1
 66
     1
 10
0.0
 20
0.0
 30
0.0
 70
     1
  0
VERTEX
  5
6E1
  8
0
  6
CONTINUOUS
 62
     1
 10
33.9105479725666612
 20
120.1708626028866007
 30
0.0
  0
VERTEX
  5
6E2
  8
0
  6
CONTINUOUS
 62
     1
 10
21.9105479725666612
 20
120.1708626028866007
 30
0.0
 42
0.4142135623730955
  0
VERTEX
  5
6E3
  8
0
  6
CONTINUOUS
 62
     1
 10
20.9105479725666612
 20
119.1708626028866007
 30
0.0
  0
VERTEX
  5
6E4
  8
0
  6
CONTINUOUS
 62
     1
 10
20.9105479725666612
 20
107.1708626028866007
 30
0.0
 42
0.4142135623731224
  0
VERTEX
  5
6E5
  8
0
  6
CONTINUOUS
 62
     1
 10
21.9105479725666612
 20
106.1708626028866007
 30
0.0
  0
VERTEX
  5
6E6
  8
0
  6
CONTINUOUS
 62
     1
 10
33.9105479725666612
 20
106.1708626028866007
 30
0.0
 42
0.4142135623730895
  0
VERTEX
  5
6E7
  8
0
  6
CONTINUOUS
 62
     1
 10
34.9105479725666612
 20
107.1708626028866007
 30
0.0
  0
VERTEX
  5
6E8
  8
0
  6
CONTINUOUS
 62
     1
 10
34.9105479725666612
 20
119.1708626028866007
 30
0.0
 42
0.4142135623730951
  0
SEQEND
  5
6E9
  8
0
  6
CONTINUOUS
 62
     1
  0
POLYLINE
  5
28B
  8
0
  6
CONTINUOUS
 62
     1
 66
     1
 10
0.0
 20
0.0
 30
0.0
 70
     1
  0
VERTEX
  5
6EA
  8
0
  6
CONTINUOUS
 62
     1
 10
49.3005479725669886
 20
41.8308626028866613
 30
0.0
  0
VERTEX
  5
6EB
  8
0
  6
CONTINUOUS
 62
     1
 10
37.3005479725669886
 20
41.8308626028866613
 30
0.0
 42
0.4142135623731159
  0
VERTEX
  5
6EC
  8
0
  6
CONTINUOUS
 62
     1
 10
36.3005479725669886
 20
40.8308626028865689
 30
0.0
  0
VERTEX
  5
6ED
  8
0
  6
CONTINUOUS
 62
     1
 10
36.3005479725669886
 20
28.8308626028866009
 30
0.0
 42
0.4142135623730721
  0
VERTEX
  5
6EE
  8
0
  6
CONTINUOUS
 62
     1
 10
37.3005479725669886
 20
27.8308626028865902
 30
0.0
  0
VERTEX
  5
6EF
  8
0
  6
CONTINUOUS
 62
     1
 10
49.3005479725669886
 20
27.8308626028865902
 30
0.0
 42
0.4142135623730764
  0
VERTEX
  5
6F0
  8
0
  6
CONTINUOUS
 62
     1
 10
50.3005479725669886
 20
28.8308626028866506
 30
0.0
  0
VERTEX
  5
6F1
  8
0
  6
CONTINUOUS
 62
     1
 10
50.3005479725669886
 20
40.830862602886647
 30
0.0
 42
0.4142135623730888
  0
SEQEND
  5
6F2
  8
0
  6
CONTINUOUS
 62
     1
  0
POLYLINE
  5
28C
  8
0
  6
CONTINUOUS
 62
     1
 66
     1
 10
0.0
 20
0.0
 30
0.0
 70
     1
  0
VERTEX
  5
6F3
  8
0
  6
CONTINUOUS
 62
     1
 10
292.5305479725669784
 20
60.8808626028866513
 30
0.0
  0
VERTEX
  5
6F4
  8
0
  6
CONTINUOUS
 62
     1
 10
280.5305479725669784
 20
60.8808626028866513
 30
0.0
 42
0.4142135623730659
  0
VERTEX
  5
6F5
  8
0
  6
CONTINUOUS
 62
     1
 10
279.5305479725669784
 20
59.8808626028866584
 30
0.0
  0
VERTEX
  5
6F6
  8
0
  6
CONTINUOUS
 62
     1
 10
279.5305479725669784
 20
47.8808626028865731
 30
0.0
 42
0.4142135623730534
  0
VERTEX
  5
6F7
  8
0
  6
CONTINUOUS
 62
     1
 10
280.5305479725669784
 20
46.8808626028865731
 30
0.0
  0
VERTEX
  5
6F8
  8
0
  6
CONTINUOUS
 62
     1
 10
292.5305479725669784
 20
46.8808626028865731
 30
0.0
 42
0.41421356237312
  0
VERTEX
  5
6F9
  8
0
  6
CONTINUOUS
 62
     1
 10
293.5305479725669784
 20
47.8808626028865731
 30
0.0
  0
VERTEX
  5
6FA
  8
0
  6
CONTINUOUS
 62
     1
 10
293.5305479725669784
 20
59.8808626028866584
 30
0.0
 42
0.4142135623731221
  0
SEQEND
  5
6FB
  8
0
  6
CONTINUOUS
 62
     1
  0
POLYLINE
  5
28D
  8
0
  6
CONTINUOUS
 62
     1
 66
     1
 10
0.0
 20
0.0
 30
0.0
 70
     1
  0
VERTEX
  5
6FC
  8
0
  6
CONTINUOUS
 62
     1
 10
336.4761479725669915
 20
41.7828626028865671
 30
0.0
  0
VERTEX
  5
6FD
  8
0
  6
CONTINUOUS
 62
     1
 10
324.4761479725669915
 20
41.7828626028866594
 30
0.0
 42
0.4142135623730493
  0
VERTEX
  5
6FE
  8
0
  6
CONTINUOUS
 62
     1
 10
323.4761479725669915
 20
40.7828626028865671
 30
0.0
  0
VERTEX
  5
6FF
  8
0
  6
CONTINUOUS
 62
     1
 10
323.4761479725669915
 20
28.782862602886599
 30
0.0
 42
0.4142135623730784
  0
VERTEX
  5
700
  8
0
  6
CONTINUOUS
 62
     1
 10
324.4761479725669915
 20
27.7828626028865813
 30
0.0
  0
VERTEX
  5
701
  8
0
  6
CONTINUOUS
 62
     1
 10
336.4761479725669915
 20
27.7828626028865813
 30
0.0
 42
0.4142135623730703
  0
VERTEX
  5
702
  8
0
  6
CONTINUOUS
 62
     1
 10
337.476147972567901
 20
28.7828626028866417
 30
0.0
  0
VERTEX
  5
703
  8
0
  6
CONTINUOUS
 62
     1
 10
337.476147972567901
 20
40.7828626028866594
 30
0.0
 42
0.4142135623730659
  0
SEQEND
  5
704
  8
0
  6
CONTINUOUS
 62
     1
  0
POLYLINE
  5
28E
  8
0
  6
CONTINUOUS
 62
     1
 66
     1
 10
0.0
 20
0.0
 30
0.0
 70
     1
  0
VERTEX
  5
705
  8
0
  6
CONTINUOUS
 62
     1
 10
297.8905479725665941
 20
79.9308626028866627
 30
0.0
  0
VERTEX
  5
706
  8
0
  6
CONTINUOUS
 62
     1
 10
285.8905479725667078
 20
79.9308626028866627
 30
0.0
 42
0.4142135623730659
  0
VERTEX
  5
707
  8
0
  6
CONTINUOUS
 62
     1
 10
284.8905479725667078
 20
78.9308626028866627
 30
0.0
  0
VERTEX
  5
708
  8
0
  6
CONTINUOUS
 62
     1
 10
284.8905479725667078
 20
66.9308626028866627
 30
0.0
 42
0.414213562373064
  0
VERTEX
  5
709
  8
0
  6
CONTINUOUS
 62
     1
 10
285.8905479725667078
 20
65.9308626028866058
 30
0.0
  0
VERTEX
  5
70A
  8
0
  6
CONTINUOUS
 62
     1
 10
297.8905479725665941
 20
65.9308626028866058
 30
0.0
 42
0.4142135623730721
  0
VERTEX
  5
70B
  8
0
  6
CONTINUOUS
 62
     1
 10
298.8905479725667078
 20
66.9308626028866627
 30
0.0
  0
VERTEX
  5
70C
  8
0
  6
CONTINUOUS
 62
     1
 10
298.8905479725667078
 20
78.9308626028866627
 30
0.0
 42
0.4142135623730659
  0
SEQEND
  5
70D
  8
0
  6
CONTINUOUS
 62
     1
  0
POLYLINE
  5
28F
  8
0
  6
CONTINUOUS
 62
     1
 66
     1
 10
0.0
 20
0.0
 30
0.0
 70
     1
  0
VERTEX
  5
70E
  8
0
  6
CONTINUOUS
 62
     1
 10
328.8405479725669238
 20
79.9308626028866627
 30
0.0
  0
VERTEX
  5
70F
  8
0
  6
CONTINUOUS
 62
     1
 10
316.8405479725669238
 20
79.9308626028866627
 30
0.0
 42
0.4142135623730659
  0
VERTEX
  5
710
  8
0
  6
CONTINUOUS
 62
     1
 10
315.8405479725669238
 20
78.9308626028866627
 30
0.0
  0
VERTEX
  5
711
  8
0
  6
CONTINUOUS
 62
     1
 10
315.8405479725669238
 20
66.9308626028866627
 30
0.0
 42
0.414213562373064
  0
VERTEX
  5
712
  8
0
  6
CONTINUOUS
 62
     1
 10
316.8405479725669238
 20
65.9308626028866058
 30
0.0
  0
VERTEX
  5
713
  8
0
  6
CONTINUOUS
 62
     1
 10
328.8405479725669238
 20
65.9308626028866058
 30
0.0
 42
0.4142135623731304
  0
VERTEX
  5
714
  8
0
  6
CONTINUOUS
 62
     1
 10
329.8405479725669238
 20
66.9308626028866627
 30
0.0
  0
VERTEX
  5
715
  8
0
  6
CONTINUOUS
 62
     1
 10
329.8405479725669238
 20
78.9308626028866627
 30
0.0
 42
0.4142135623731242
  0
SEQEND
  5
716
  8
0
  6
CONTINUOUS
 62
     1
  0
POLYLINE
  5
290
  8
0
  6
CONTINUOUS
 62
     1
 66
     1
 10
0.0
 20
0.0
 30
0.0
 70
     1
  0
VERTEX
  5
717
  8
0
  6
CONTINUOUS
 62
     1
 10
273.4805479725667965
 20
60.8808626028866513
 30
0.0
  0
VERTEX
  5
718
  8
0
  6
CONTINUOUS
 62
     1
 10
261.4805479725667965
 20
60.8808626028866513
 30
0.0
 42
0.4142135623730808
  0
VERTEX
  5
719
  8
0
  6
CONTINUOUS
 62
     1
 10
260.4805479725667965
 20
59.8808626028866584
 30
0.0
  0
VERTEX
  5
71A
  8
0
  6
CONTINUOUS
 62
     1
 10
260.4805479725667965
 20
47.8808626028865731
 30
0.0
 42
0.4142135623730659
  0
VERTEX
  5
71B
  8
0
  6
CONTINUOUS
 62
     1
 10
261.4805479725667965
 20
46.8808626028865731
 30
0.0
  0
VERTEX
  5
71C
  8
0
  6
CONTINUOUS
 62
     1
 10
273.4805479725667965
 20
46.8808626028865731
 30
0.0
 42
0.4142135623730744
  0
VERTEX
  5
71D
  8
0
  6
CONTINUOUS
 62
     1
 10
274.4805479725667965
 20
47.8808626028866584
 30
0.0
  0
VERTEX
  5
71E
  8
0
  6
CONTINUOUS
 62
     1
 10
274.4805479725667965
 20
59.8808626028866584
 30
0.0
 42
0.4142135623730703
  0
SEQEND
  5
71F
  8
0
  6
CONTINUOUS
 62
     1
  0
POLYLINE
  5
291
  8
0
  6
CONTINUOUS
 62
     1
 66
     1
 10
0.0
 20
0.0
 30
0.0
 70
     1
  0
VERTEX
  5
720
  8
0
  6
CONTINUOUS
 62
     1
 10
288.8505479725669147
 20
98.9808626028865319
 30
0.0
  0
VERTEX
  5
721
  8
0
  6
CONTINUOUS
 62
     1
 10
276.8505479725669147
 20
98.9808626028866456
 30
0.0
 42
0.4142135623731091
  0
VERTEX
  5
722
  8
0
  6
CONTINUOUS
 62
     1
 10
275.8505479725669147
 20
97.9808626028865461
 30
0.0
  0
VERTEX
  5
723
  8
0
  6
CONTINUOUS
 62
     1
 10
275.8505479725669147
 20
85.9808626028865319
 30
0.0
 42
0.4142135623731054
  0
VERTEX
  5
724
  8
0
  6
CONTINUOUS
 62
     1
 10
276.8505479725669147
 20
84.9808626028865319
 30
0.0
  0
VERTEX
  5
725
  8
0
  6
CONTINUOUS
 62
     1
 10
288.8505479725669147
 20
84.9808626028865319
 30
0.0
 42
0.4142135623730898
  0
VERTEX
  5
726
  8
0
  6
CONTINUOUS
 62
     1
 10
289.8505479725669147
 20
85.9808626028865319
 30
0.0
  0
VERTEX
  5
727
  8
0
  6
CONTINUOUS
 62
     1
 10
289.8505479725669147
 20
97.9808626028865461
 30
0.0
 42
0.4142135623730847
  0
SEQEND
  5
728
  8
0
  6
CONTINUOUS
 62
     1
  0
POLYLINE
  5
292
  8
0
  6
CONTINUOUS
 62
     1
 66
     1
 10
0.0
 20
0.0
 30
0.0
 70
     1
  0
VERTEX
  5
729
  8
0
  6
CONTINUOUS
 62
     1
 10
278.8405479725669238
 20
79.9308626028866627
 30
0.0
  0
VERTEX
  5
72A
  8
0
  6
CONTINUOUS
 62
     1
 10
266.8405479725669238
 20
79.9308626028866627
 30
0.0
 42
0.4142135623731037
  0
VERTEX
  5
72B
  8
0
  6
CONTINUOUS
 62
     1
 10
265.8405479725669238
 20
78.9308626028866627
 30
0.0
  0
VERTEX
  5
72C
  8
0
  6
CONTINUOUS
 62
     1
 10
265.8405479725669238
 20
66.9308626028866627
 30
0.0
 42
0.4142135623730992
  0
VERTEX
  5
72D
  8
0
  6
CONTINUOUS
 62
     1
 10
266.8405479725669238
 20
65.9308626028866058
 30
0.0
  0
VERTEX
  5
72E
  8
0
  6
CONTINUOUS
 62
     1
 10
278.8405479725669238
 20
65.9308626028866058
 30
0.0
 42
0.4142135623730869
  0
VERTEX
  5
72F
  8
0
  6
CONTINUOUS
 62
     1
 10
279.8405479725669238
 20
66.9308626028866627
 30
0.0
  0
VERTEX
  5
730
  8
0
  6
CONTINUOUS
 62
     1
 10
279.8405479725669238
 20
78.9308626028866627
 30
0.0
 42
0.4142135623730826
  0
SEQEND
  5
731
  8
0
  6
CONTINUOUS
 62
     1
  0
POLYLINE
  5
293
  8
0
  6
CONTINUOUS
 62
     1
 66
     1
 10
0.0
 20
0.0
 30
0.0
 70
     1
  0
VERTEX
  5
732
  8
0
  6
CONTINUOUS
 62
     1
 10
307.900547972566585
 20
98.9808626028865319
 30
0.0
  0
VERTEX
  5
733
  8
0
  6
CONTINUOUS
 62
     1
 10
295.900547972566585
 20
98.9808626028866456
 30
0.0
 42
0.4142135623731261
  0
VERTEX
  5
734
  8
0
  6
CONTINUOUS
 62
     1
 10
294.900547972566585
 20
97.9808626028865461
 30
0.0
  0
VERTEX
  5
735
  8
0
  6
CONTINUOUS
 62
     1
 10
294.900547972566585
 20
85.9808626028865319
 30
0.0
 42
0.4142135623731221
  0
VERTEX
  5
736
  8
0
  6
CONTINUOUS
 62
     1
 10
295.900547972566585
 20
84.9808626028865319
 30
0.0
  0
VERTEX
  5
737
  8
0
  6
CONTINUOUS
 62
     1
 10
307.900547972566585
 20
84.9808626028865319
 30
0.0
 42
0.4142135623730733
  0
VERTEX
  5
738
  8
0
  6
CONTINUOUS
 62
     1
 10
308.900547972566585
 20
85.9808626028865319
 30
0.0
  0
VERTEX
  5
739
  8
0
  6
CONTINUOUS
 62
     1
 10
308.900547972566585
 20
97.9808626028865461
 30
0.0
 42
0.414213562373068
  0
SEQEND
  5
73A
  8
0
  6
CONTINUOUS
 62
     1
  0
POLYLINE
  5
294
  8
0
  6
CONTINUOUS
 62
     1
 66
     1
 10
0.0
 20
0.0
 30
0.0
 70
     1
  0
VERTEX
  5
73B
  8
0
  6
CONTINUOUS
 62
     1
 10
270.2205479725668056
 20
100.0408626028865058
 30
0.0
  0
VERTEX
  5
73C
  8
0
  6
CONTINUOUS
 62
     1
 10
258.2205479725668056
 20
100.0408626028865058
 30
0.0
 42
0.414213562373064
  0
VERTEX
  5
73D
  8
0
  6
CONTINUOUS
 62
     1
 10
257.2205479725668056
 20
99.0408626028866337
 30
0.0
  0
VERTEX
  5
73E
  8
0
  6
CONTINUOUS
 62
     1
 10
257.2205479725668056
 20
87.0408626028866479
 30
0.0
 42
0.414213562373068
  0
VERTEX
  5
73F
  8
0
  6
CONTINUOUS
 62
     1
 10
258.2205479725668056
 20
86.0408626028866479
 30
0.0
  0
VERTEX
  5
740
  8
0
  6
CONTINUOUS
 62
     1
 10
270.2205479725668056
 20
86.0408626028866479
 30
0.0
 42
0.414213562373093
  0
VERTEX
  5
741
  8
0
  6
CONTINUOUS
 62
     1
 10
271.2205479725668056
 20
87.0408626028866479
 30
0.0
  0
VERTEX
  5
742
  8
0
  6
CONTINUOUS
 62
     1
 10
271.2205479725668056
 20
99.0408626028866337
 30
0.0
 42
0.4142135623730925
  0
SEQEND
  5
743
  8
0
  6
CONTINUOUS
 62
     1
  0
POLYLINE
  5
295
  8
0
  6
CONTINUOUS
 62
     1
 66
     1
 10
0.0
 20
0.0
 30
0.0
 70
     1
  0
VERTEX
  5
744
  8
0
  6
CONTINUOUS
 62
     1
 10
331.7205479725668056
 20
98.9808626028865319
 30
0.0
  0
VERTEX
  5
745
  8
0
  6
CONTINUOUS
 62
     1
 10
319.7205479725668056
 20
98.9808626028866456
 30
0.0
 42
0.4142135623730847
  0
VERTEX
  5
746
  8
0
  6
CONTINUOUS
 62
     1
 10
318.7205479725668056
 20
97.9808626028865461
 30
0.0
  0
VERTEX
  5
747
  8
0
  6
CONTINUOUS
 62
     1
 10
318.7205479725668056
 20
85.9808626028865319
 30
0.0
 42
0.4142135623730816
  0
VERTEX
  5
748
  8
0
  6
CONTINUOUS
 62
     1
 10
319.7205479725668056
 20
84.9808626028865319
 30
0.0
  0
VERTEX
  5
749
  8
0
  6
CONTINUOUS
 62
     1
 10
331.7205479725668056
 20
84.9808626028865319
 30
0.0
 42
0.4142135623731294
  0
VERTEX
  5
74A
  8
0
  6
CONTINUOUS
 62
     1
 10
332.7205479725668056
 20
85.9808626028865319
 30
0.0
  0
VERTEX
  5
74B
  8
0
  6
CONTINUOUS
 62
     1
 10
332.7205479725668056
 20
97.9808626028865461
 30
0.0
 42
0.4142135623731252
  0
SEQEND
  5
74C
  8
0
  6
CONTINUOUS
 62
     1
  0
POLYLINE
  5
296
  8
0
  6
CONTINUOUS
 62
     1
 66
     1
 10
0.0
 20
0.0
 30
0.0
 70
     1
  0
VERTEX
  5
74D
  8
0
  6
CONTINUOUS
 62
     1
 10
294.2105479725668147
 20
118.0308626028866001
 30
0.0
  0
VERTEX
  5
74E
  8
0
  6
CONTINUOUS
 62
     1
 10
282.2105479725668147
 20
118.0308626028866001
 30
0.0
 42
0.4142135623730664
  0
VERTEX
  5
74F
  8
0
  6
CONTINUOUS
 62
     1
 10
281.2105479725668147
 20
117.0308626028866001
 30
0.0
  0
VERTEX
  5
750
  8
0
  6
CONTINUOUS
 62
     1
 10
281.2105479725668147
 20
105.0308626028865007
 30
0.0
 42
0.4142135623730612
  0
VERTEX
  5
751
  8
0
  6
CONTINUOUS
 62
     1
 10
282.2105479725668147
 20
104.0308626028865007
 30
0.0
  0
VERTEX
  5
752
  8
0
  6
CONTINUOUS
 62
     1
 10
294.2105479725668147
 20
104.0308626028866001
 30
0.0
 42
0.4142135623731278
  0
VERTEX
  5
753
  8
0
  6
CONTINUOUS
 62
     1
 10
295.2105479725668147
 20
105.0308626028866001
 30
0.0
  0
VERTEX
  5
754
  8
0
  6
CONTINUOUS
 62
     1
 10
295.2105479725668147
 20
117.0308626028866001
 30
0.0
 42
0.4142135623731411
  0
SEQEND
  5
755
  8
0
  6
CONTINUOUS
 62
     1
  0
POLYLINE
  5
297
  8
0
  6
CONTINUOUS
 62
     1
 66
     1
 10
0.0
 20
0.0
 30
0.0
 70
     1
  0
VERTEX
  5
756
  8
0
  6
CONTINUOUS
 62
     1
 10
275.5805479725668761
 20
120.1708626028866007
 30
0.0
  0
VERTEX
  5
757
  8
0
  6
CONTINUOUS
 62
     1
 10
263.5805479725668761
 20
120.1708626028866007
 30
0.0
 42
0.4142135623730896
  0
VERTEX
  5
758
  8
0
  6
CONTINUOUS
 62
     1
 10
262.5805479725669898
 20
119.1708626028866007
 30
0.0
  0
VERTEX
  5
759
  8
0
  6
CONTINUOUS
 62
     1
 10
262.5805479725669898
 20
107.1708626028866007
 30
0.0
 42
0.4142135623730879
  0
VERTEX
  5
75A
  8
0
  6
CONTINUOUS
 62
     1
 10
263.5805479725668761
 20
106.1708626028866007
 30
0.0
  0
VERTEX
  5
75B
  8
0
  6
CONTINUOUS
 62
     1
 10
275.5805479725668761
 20
106.1708626028866007
 30
0.0
 42
0.4142135623730903
  0
VERTEX
  5
75C
  8
0
  6
CONTINUOUS
 62
     1
 10
276.5805479725668761
 20
107.1708626028866007
 30
0.0
  0
VERTEX
  5
75D
  8
0
  6
CONTINUOUS
 62
     1
 10
276.5805479725668761
 20
119.1708626028866007
 30
0.0
 42
0.4142135623730839
  0
SEQEND
  5
75E
  8
0
  6
CONTINUOUS
 62
     1
  0
POLYLINE
  5
298
  8
0
  6
CONTINUOUS
 62
     1
 66
     1
 10
0.0
 20
0.0
 30
0.0
 70
     1
  0
VERTEX
  5
75F
  8
0
  6
CONTINUOUS
 62
     1
 10
87.3905479725666936
 20
60.8808626028866513
 30
0.0
  0
VERTEX
  5
760
  8
0
  6
CONTINUOUS
 62
     1
 10
75.3905479725666652
 20
60.8808626028866513
 30
0.0
 42
0.4142135623731076
  0
VERTEX
  5
761
  8
0
  6
CONTINUOUS
 62
     1
 10
74.3905479725666794
 20
59.8808626028866584
 30
0.0
  0
VERTEX
  5
762
  8
0
  6
CONTINUOUS
 62
     1
 10
74.3905479725666794
 20
47.8808626028865731
 30
0.0
 42
0.4142135623730808
  0
VERTEX
  5
763
  8
0
  6
CONTINUOUS
 62
     1
 10
75.3905479725666652
 20
46.8808626028865731
 30
0.0
  0
VERTEX
  5
764
  8
0
  6
CONTINUOUS
 62
     1
 10
87.3905479725666936
 20
46.8808626028865731
 30
0.0
 42
0.4142135623730826
  0
VERTEX
  5
765
  8
0
  6
CONTINUOUS
 62
     1
 10
88.3905479725666794
 20
47.8808626028865731
 30
0.0
  0
VERTEX
  5
766
  8
0
  6
CONTINUOUS
 62
     1
 10
88.3905479725666794
 20
59.8808626028866584
 30
0.0
 42
0.4142135623730951
  0
SEQEND
  5
767
  8
0
  6
CONTINUOUS
 62
     1
  0
POLYLINE
  5
299
  8
0
  6
CONTINUOUS
 62
     1
 66
     1
 10
0.0
 20
0.0
 30
0.0
 70
     1
  0
VERTEX
  5
768
  8
0
  6
CONTINUOUS
 62
     1
 10
56.9305479725668704
 20
118.0308626028866001
 30
0.0
  0
VERTEX
  5
769
  8
0
  6
CONTINUOUS
 62
     1
 10
44.9305479725668704
 20
118.0308626028866001
 30
0.0
 42
0.4142135623731076
  0
VERTEX
  5
76A
  8
0
  6
CONTINUOUS
 62
     1
 10
43.9305479725668704
 20
117.0308626028866001
 30
0.0
  0
VERTEX
  5
76B
  8
0
  6
CONTINUOUS
 62
     1
 10
43.9305479725668704
 20
105.0308626028866001
 30
0.0
 42
0.4142135623731081
  0
VERTEX
  5
76C
  8
0
  6
CONTINUOUS
 62
     1
 10
44.9305479725668704
 20
104.0308626028866001
 30
0.0
  0
VERTEX
  5
76D
  8
0
  6
CONTINUOUS
 62
     1
 10
56.9305479725668704
 20
104.0308626028866001
 30
0.0
 42
0.4142135623730879
  0
VERTEX
  5
76E
  8
0
  6
CONTINUOUS
 62
     1
 10
57.9305479725668704
 20
105.0308626028866001
 30
0.0
  0
VERTEX
  5
76F
  8
0
  6
CONTINUOUS
 62
     1
 10
57.9305479725668704
 20
117.0308626028866001
 30
0.0
 42
0.414213562373093
  0
SEQEND
  5
770
  8
0
  6
CONTINUOUS
 62
     1
  0
POLYLINE
  5
29A
  8
0
  6
CONTINUOUS
 62
     1
 66
     1
 10
0.0
 20
0.0
 30
0.0
 70
     1
  0
VERTEX
  5
771
  8
0
  6
CONTINUOUS
 62
     1
 10
75.9805479725668249
 20
118.0308626028866001
 30
0.0
  0
VERTEX
  5
772
  8
0
  6
CONTINUOUS
 62
     1
 10
63.980547972566832
 20
118.0308626028866001
 30
0.0
 42
0.4142135623731063
  0
VERTEX
  5
773
  8
0
  6
CONTINUOUS
 62
     1
 10
62.9805479725668178
 20
117.0308626028866001
 30
0.0
  0
VERTEX
  5
774
  8
0
  6
CONTINUOUS
 62
     1
 10
62.9805479725668178
 20
105.0308626028866001
 30
0.0
 42
0.4142135623731039
  0
VERTEX
  5
775
  8
0
  6
CONTINUOUS
 62
     1
 10
63.980547972566832
 20
104.0308626028866001
 30
0.0
  0
VERTEX
  5
776
  8
0
  6
CONTINUOUS
 62
     1
 10
75.9805479725668249
 20
104.0308626028866001
 30
0.0
 42
0.4142135623730904
  0
VERTEX
  5
777
  8
0
  6
CONTINUOUS
 62
     1
 10
76.9805479725668249
 20
105.0308626028866001
 30
0.0
  0
VERTEX
  5
778
  8
0
  6
CONTINUOUS
 62
     1
 10
76.9805479725668249
 20
117.0308626028866001
 30
0.0
 42
0.4142135623730968
  0
SEQEND
  5
779
  8
0
  6
CONTINUOUS
 62
     1
  0
POLYLINE
  5
29B
  8
0
  6
CONTINUOUS
 62
     1
 66
     1
 10
0.0
 20
0.0
 30
0.0
 70
     1
  0
VERTEX
  5
77A
  8
0
  6
CONTINUOUS
 62
     1
 10
94.6205479725666834
 20
120.1708626028866007
 30
0.0
  0
VERTEX
  5
77B
  8
0
  6
CONTINUOUS
 62
     1
 10
82.6205479725666976
 20
120.1708626028866007
 30
0.0
 42
0.4142135623730943
  0
VERTEX
  5
77C
  8
0
  6
CONTINUOUS
 62
     1
 10
81.6205479725666976
 20
119.1708626028866007
 30
0.0
  0
VERTEX
  5
77D
  8
0
  6
CONTINUOUS
 62
     1
 10
81.6205479725666976
 20
107.1708626028866007
 30
0.0
 42
0.4142135623731049
  0
VERTEX
  5
77E
  8
0
  6
CONTINUOUS
 62
     1
 10
82.6205479725666976
 20
106.1708626028866007
 30
0.0
  0
VERTEX
  5
77F
  8
0
  6
CONTINUOUS
 62
     1
 10
94.6205479725666834
 20
106.1708626028866007
 30
0.0
 42
0.4142135623730809
  0
VERTEX
  5
780
  8
0
  6
CONTINUOUS
 62
     1
 10
95.6205479725666834
 20
107.1708626028866007
 30
0.0
  0
VERTEX
  5
781
  8
0
  6
CONTINUOUS
 62
     1
 10
95.6205479725666834
 20
119.1708626028866007
 30
0.0
 42
0.4142135623730865
  0
SEQEND
  5
782
  8
0
  6
CONTINUOUS
 62
     1
  0
POLYLINE
  5
29C
  8
0
  6
CONTINUOUS
 62
     1
 66
     1
 10
0.0
 20
0.0
 30
0.0
 70
     1
  0
VERTEX
  5
783
  8
0
  6
CONTINUOUS
 62
     1
 10
81.3405479725669522
 20
98.9808626028865319
 30
0.0
  0
VERTEX
  5
784
  8
0
  6
CONTINUOUS
 62
     1
 10
69.3405479725669522
 20
98.9808626028866456
 30
0.0
 42
0.414213562373093
  0
VERTEX
  5
785
  8
0
  6
CONTINUOUS
 62
     1
 10
68.3405479725669522
 20
97.9808626028865461
 30
0.0
  0
VERTEX
  5
786
  8
0
  6
CONTINUOUS
 62
     1
 10
68.3405479725669522
 20
85.9808626028865319
 30
0.0
 42
0.4142135623730919
  0
VERTEX
  5
787
  8
0
  6
CONTINUOUS
 62
     1
 10
69.3405479725669522
 20
84.9808626028865319
 30
0.0
  0
VERTEX
  5
788
  8
0
  6
CONTINUOUS
 62
     1
 10
81.3405479725669522
 20
84.9808626028865319
 30
0.0
 42
0.4142135623730888
  0
VERTEX
  5
789
  8
0
  6
CONTINUOUS
 62
     1
 10
82.340547972566938
 20
85.9808626028865319
 30
0.0
  0
VERTEX
  5
78A
  8
0
  6
CONTINUOUS
 62
     1
 10
82.340547972566938
 20
97.9808626028865461
 30
0.0
 42
0.4142135623730935
  0
SEQEND
  5
78B
  8
0
  6
CONTINUOUS
 62
     1
  0
POLYLINE
  5
29D
  8
0
  6
CONTINUOUS
 62
     1
 66
     1
 10
0.0
 20
0.0
 30
0.0
  0
VERTEX
  5
78C
  8
0
  6
CONTINUOUS
 62
     1
 10
51.0805479725669613
 20
79.9308626028866627
 30
0.0
  0
VERTEX
  5
78D
  8
0
  6
CONTINUOUS
 62
     1
 10
39.0805479725669613
 20
79.9308626028866627
 30
0.0
 42
0.4142135623730836
  0
VERTEX
  5
78E
  8
0
  6
CONTINUOUS
 62
     1
 10
38.0805479725669613
 20
78.9308626028866627
 30
0.0
  0
VERTEX
  5
78F
  8
0
  6
CONTINUOUS
 62
     1
 10
38.0805479725669613
 20
66.9308626028866627
 30
0.0
 42
0.4142135623730808
  0
VERTEX
  5
790
  8
0
  6
CONTINUOUS
 62
     1
 10
39.0805479725669613
 20
65.9308626028866058
 30
0.0
  0
VERTEX
  5
791
  8
0
  6
CONTINUOUS
 62
     1
 10
51.0805479725669613
 20
65.9308626028866058
 30
0.0
  0
SEQEND
  5
792
  8
0
  6
CONTINUOUS
 62
     1
  0
POLYLINE
  5
29E
  8
0
  6
CONTINUOUS
 62
     1
 66
     1
 10
0.0
 20
0.0
 30
0.0
 70
     1
  0
VERTEX
  5
793
  8
0
  6
CONTINUOUS
 62
     1
 10
57.5305479725670068
 20
98.9808626028865319
 30
0.0
  0
VERTEX
  5
794
  8
0
  6
CONTINUOUS
 62
     1
 10
45.5305479725670068
 20
98.9808626028866456
 30
0.0
 42
0.4142135623731091
  0
VERTEX
  5
795
  8
0
  6
CONTINUOUS
 62
     1
 10
44.5305479725669997
 20
97.9808626028865461
 30
0.0
  0
VERTEX
  5
796
  8
0
  6
CONTINUOUS
 62
     1
 10
44.5305479725669997
 20
85.9808626028865319
 30
0.0
 42
0.4142135623731086
  0
VERTEX
  5
797
  8
0
  6
CONTINUOUS
 62
     1
 10
45.5305479725670068
 20
84.9808626028865319
 30
0.0
  0
VERTEX
  5
798
  8
0
  6
CONTINUOUS
 62
     1
 10
57.5305479725670068
 20
84.9808626028865319
 30
0.0
 42
0.4142135623730879
  0
VERTEX
  5
799
  8
0
  6
CONTINUOUS
 62
     1
 10
58.5305479725669997
 20
85.9808626028865319
 30
0.0
  0
VERTEX
  5
79A
  8
0
  6
CONTINUOUS
 62
     1
 10
58.5305479725669997
 20
97.9808626028865461
 30
0.0
 42
0.4142135623730951
  0
SEQEND
  5
79B
  8
0
  6
CONTINUOUS
 62
     1
  0
POLYLINE
  5
29F
  8
0
  6
CONTINUOUS
 62
     1
 66
     1
 10
0.0
 20
0.0
 30
0.0
 70
     1
  0
VERTEX
  5
79C
  8
0
  6
CONTINUOUS
 62
     1
 10
82.0405479725669977
 20
79.9308626028866627
 30
0.0
  0
VERTEX
  5
79D
  8
0
  6
CONTINUOUS
 62
     1
 10
70.0405479725669835
 20
79.9308626028866627
 30
0.0
 42
0.4142135623730911
  0
VERTEX
  5
79E
  8
0
  6
CONTINUOUS
 62
     1
 10
69.0405479725669977
 20
78.9308626028866627
 30
0.0
  0
VERTEX
  5
79F
  8
0
  6
CONTINUOUS
 62
     1
 10
69.0405479725669977
 20
66.9308626028866627
 30
0.0
 42
0.4142135623730888
  0
VERTEX
  5
7A0
  8
0
  6
CONTINUOUS
 62
     1
 10
70.0405479725669835
 20
65.9308626028866058
 30
0.0
  0
VERTEX
  5
7A1
  8
0
  6
CONTINUOUS
 62
     1
 10
82.0405479725669977
 20
65.9308626028866058
 30
0.0
 42
0.4142135623730847
  0
VERTEX
  5
7A2
  8
0
  6
CONTINUOUS
 62
     1
 10
83.0405479725669977
 20
66.9308626028866627
 30
0.0
  0
VERTEX
  5
7A3
  8
0
  6
CONTINUOUS
 62
     1
 10
83.0405479725669977
 20
78.9308626028866627
 30
0.0
 42
0.4142135623730951
  0
SEQEND
  5
7A4
  8
0
  6
CONTINUOUS
 62
     1
  0
POLYLINE
  5
2A0
  8
0
  6
CONTINUOUS
 62
     1
 66
     1
 10
0.0
 20
0.0
 30
0.0
 70
     1
  0
VERTEX
  5
7A5
  8
0
  6
CONTINUOUS
 62
     1
 10
116.4448154126938988
 20
114.8104256631167033
 30
0.0
  0
VERTEX
  5
7A6
  8
0
  6
CONTINUOUS
 62
     1
 10
104.707044203888799
 20
117.3053659529298045
 30
0.0
 42
0.4142135623731141
  0
VERTEX
  5
7A7
  8
0
  6
CONTINUOUS
 62
     1
 10
103.5209849123368002
 20
116.5351300430136945
 30
0.0
  0
VERTEX
  5
7A8
  8
0
  6
CONTINUOUS
 62
     1
 10
101.0260446225239974
 20
104.7973588342080973
 30
0.0
 42
0.4142135623730951
  0
VERTEX
  5
7A9
  8
0
  6
CONTINUOUS
 62
     1
 10
101.7962805324398943
 20
103.6112995426564964
 30
0.0
  0
VERTEX
  5
7AA
  8
0
  6
CONTINUOUS
 62
     1
 10
113.5340517412459036
 20
101.1163592528432957
 30
0.0
 42
0.4142135623731356
  0
VERTEX
  5
7AB
  8
0
  6
CONTINUOUS
 62
     1
 10
114.7201110327965949
 20
101.8865951627594058
 30
0.0
  0
VERTEX
  5
7AC
  8
0
  6
CONTINUOUS
 62
     1
 10
117.2150513226097956
 20
113.6243663715651024
 30
0.0
 42
0.4142135623731324
  0
SEQEND
  5
7AD
  8
0
  6
CONTINUOUS
 62
     1
  0
POLYLINE
  5
2A1
  8
0
  6
CONTINUOUS
 62
     1
 66
     1
 10
0.0
 20
0.0
 30
0.0
 70
     1
  0
VERTEX
  5
7AE
  8
0
  6
CONTINUOUS
 62
     1
 10
103.1648154126938977
 20
98.160425663116655
 30
0.0
  0
VERTEX
  5
7AF
  8
0
  6
CONTINUOUS
 62
     1
 10
91.4270442038888547
 20
100.6553659529297988
 30
0.0
 42
0.4142135623731173
  0
VERTEX
  5
7B0
  8
0
  6
CONTINUOUS
 62
     1
 10
90.240984912337268
 20
99.8851300430136462
 30
0.0
  0
VERTEX
  5
7B1
  8
0
  6
CONTINUOUS
 62
     1
 10
87.7460446225240105
 20
88.1473588342080632
 30
0.0
 42
0.4142135623731062
  0
VERTEX
  5
7B2
  8
0
  6
CONTINUOUS
 62
     1
 10
88.5162805324399926
 20
86.9612995426565192
 30
0.0
  0
VERTEX
  5
7B3
  8
0
  6
CONTINUOUS
 62
     1
 10
100.2540517412459025
 20
84.4663592528434322
 30
0.0
 42
0.41421356237313
  0
VERTEX
  5
7B4
  8
0
  6
CONTINUOUS
 62
     1
 10
101.4401110327965938
 20
85.2365951627595564
 30
0.0
  0
VERTEX
  5
7B5
  8
0
  6
CONTINUOUS
 62
     1
 10
103.935051322609894
 20
96.9743663715651252
 30
0.0
 42
0.4142135623731507
  0
SEQEND
  5
7B6
  8
0
  6
CONTINUOUS
 62
     1
  0
POLYLINE
  5
2A2
  8
0
  6
CONTINUOUS
 62
     1
 66
     1
 10
0.0
 20
0.0
 30
0.0
 70
     1
  0
VERTEX
  5
7B7
  8
0
  6
CONTINUOUS
 62
     1
 10
104.4048154126939068
 20
37.9304256631167291
 30
0.0
  0
VERTEX
  5
7B8
  8
0
  6
CONTINUOUS
 62
     1
 10
92.667044203888878
 20
40.4253659529298233
 30
0.0
 42
0.4142135623731507
  0
VERTEX
  5
7B9
  8
0
  6
CONTINUOUS
 62
     1
 10
91.4809849123368224
 20
39.6551300430137772
 30
0.0
  0
VERTEX
  5
7BA
  8
0
  6
CONTINUOUS
 62
     1
 10
88.986044622524247
 20
27.9173588342081196
 30
0.0
 42
0.4142135623730641
  0
VERTEX
  5
7BB
  8
0
  6
CONTINUOUS
 62
     1
 10
89.7562805324399875
 20
26.731299542656501
 30
0.0
  0
VERTEX
  5
7BC
  8
0
  6
CONTINUOUS
 62
     1
 10
101.4940517412458973
 20
24.2363592528434211
 30
0.0
 42
0.4142135623731162
  0
VERTEX
  5
7BD
  8
0
  6
CONTINUOUS
 62
     1
 10
102.6801110327966029
 20
25.0065951627594707
 30
0.0
  0
VERTEX
  5
7BE
  8
0
  6
CONTINUOUS
 62
     1
 10
105.1750513226099031
 20
36.7443663715651283
 30
0.0
 42
0.414213562373117
  0
SEQEND
  5
7BF
  8
0
  6
CONTINUOUS
 62
     1
  0
POLYLINE
  5
2A3
  8
0
  6
CONTINUOUS
 62
     1
 66
     1
 10
0.0
 20
0.0
 30
0.0
 70
     1
  0
VERTEX
  5
7C0
  8
0
  6
CONTINUOUS
 62
     1
 10
109.2148154126937953
 20
57.9204256631167169
 30
0.0
  0
VERTEX
  5
7C1
  8
0
  6
CONTINUOUS
 62
     1
 10
97.4770442038888234
 20
60.4153659529298679
 30
0.0
 42
0.4142135623731184
  0
VERTEX
  5
7C2
  8
0
  6
CONTINUOUS
 62
     1
 10
96.2909849123367536
 20
59.6451300430137579
 30
0.0
  0
VERTEX
  5
7C3
  8
0
  6
CONTINUOUS
 62
     1
 10
93.796044622523965
 20
47.9073588342080967
 30
0.0
 42
0.4142135623730567
  0
VERTEX
  5
7C4
  8
0
  6
CONTINUOUS
 62
     1
 10
94.5662805324399329
 20
46.7212995426565172
 30
0.0
  0
VERTEX
  5
7C5
  8
0
  6
CONTINUOUS
 62
     1
 10
106.3040517412458996
 20
44.2263592528434231
 30
0.0
 42
0.4142135623731162
  0
VERTEX
  5
7C6
  8
0
  6
CONTINUOUS
 62
     1
 10
107.4901110327970031
 20
44.9965951627595118
 30
0.0
  0
VERTEX
  5
7C7
  8
0
  6
CONTINUOUS
 62
     1
 10
109.9850513226098059
 20
56.7343663715652085
 30
0.0
 42
0.4142135623731189
  0
SEQEND
  5
7C8
  8
0
  6
CONTINUOUS
 62
     1
  0
POLYLINE
  5
2A4
  8
0
  6
CONTINUOUS
 62
     1
 66
     1
 10
0.0
 20
0.0
 30
0.0
 70
     1
  0
VERTEX
  5
7C9
  8
0
  6
CONTINUOUS
 62
     1
 10
103.8648154126939005
 20
78.5304256631167164
 30
0.0
  0
VERTEX
  5
7CA
  8
0
  6
CONTINUOUS
 62
     1
 10
92.1270442038880049
 20
81.0253659529297181
 30
0.0
 42
0.4142135623731073
  0
VERTEX
  5
7CB
  8
0
  6
CONTINUOUS
 62
     1
 10
90.9409849123366456
 20
80.2551300430138639
 30
0.0
  0
VERTEX
  5
7CC
  8
0
  6
CONTINUOUS
 62
     1
 10
88.4460446225238144
 20
68.5173588342080393
 30
0.0
 42
0.414213562373078
  0
VERTEX
  5
7CD
  8
0
  6
CONTINUOUS
 62
     1
 10
89.2162805324400381
 20
67.3312995426564385
 30
0.0
  0
VERTEX
  5
7CE
  8
0
  6
CONTINUOUS
 62
     1
 10
100.9540517412460048
 20
64.8363592528433514
 30
0.0
 42
0.4142135623731159
  0
VERTEX
  5
7CF
  8
0
  6
CONTINUOUS
 62
     1
 10
102.1401110327965966
 20
65.606595162759433
 30
0.0
  0
VERTEX
  5
7D0
  8
0
  6
CONTINUOUS
 62
     1
 10
104.6350513226108063
 20
77.3443663715651155
 30
0.0
 42
0.4142135623731232
  0
SEQEND
  5
7D1
  8
0
  6
CONTINUOUS
 62
     1
  0
POLYLINE
  5
2A5
  8
0
  6
CONTINUOUS
 62
     1
 66
     1
 10
0.0
 20
0.0
 30
0.0
 70
     1
  0
VERTEX
  5
7D2
  8
0
  6
CONTINUOUS
 62
     1
 10
135.0785272066727032
 20
110.8497079530383047
 30
0.0
  0
VERTEX
  5
7D3
  8
0
  6
CONTINUOUS
 62
     1
 10
123.3407559978679018
 20
113.3446482428515054
 30
0.0
 42
0.4142135623731033
  0
VERTEX
  5
7D4
  8
0
  6
CONTINUOUS
 62
     1
 10
122.1546967063160025
 20
112.5744123329354949
 30
0.0
  0
VERTEX
  5
7D5
  8
0
  6
CONTINUOUS
 62
     1
 10
119.6597564165030008
 20
100.8366411241295992
 30
0.0
 42
0.4142135623731002
  0
VERTEX
  5
7D6
  8
0
  6
CONTINUOUS
 62
     1
 10
120.4299923264189971
 20
99.6505818325781547
 30
0.0
  0
VERTEX
  5
7D7
  8
0
  6
CONTINUOUS
 62
     1
 10
132.1677635352249069
 20
97.1556415427650961
 30
0.0
 42
0.4142135623731076
  0
VERTEX
  5
7D8
  8
0
  6
CONTINUOUS
 62
     1
 10
133.3538228267761099
 20
97.9258774526811067
 30
0.0
  0
VERTEX
  5
7D9
  8
0
  6
CONTINUOUS
 62
     1
 10
135.8487631165897938
 20
109.6636486614868033
 30
0.0
 42
0.4142135623731356
  0
SEQEND
  5
7DA
  8
0
  6
CONTINUOUS
 62
     1
  0
POLYLINE
  5
2A6
  8
0
  6
CONTINUOUS
 62
     1
 66
     1
 10
0.0
 20
0.0
 30
0.0
 70
     1
  0
VERTEX
  5
7DB
  8
0
  6
CONTINUOUS
 62
     1
 10
121.7985272066727021
 20
94.1997079530383417
 30
0.0
  0
VERTEX
  5
7DC
  8
0
  6
CONTINUOUS
 62
     1
 10
110.0607559978680996
 20
96.6946482428515139
 30
0.0
 42
0.41421356237311
  0
VERTEX
  5
7DD
  8
0
  6
CONTINUOUS
 62
     1
 10
108.8746967063161009
 20
95.9244123329354466
 30
0.0
  0
VERTEX
  5
7DE
  8
0
  6
CONTINUOUS
 62
     1
 10
106.3797564165028007
 20
84.1866411241298351
 30
0.0
 42
0.4142135623730832
  0
VERTEX
  5
7DF
  8
0
  6
CONTINUOUS
 62
     1
 10
107.1499923264191949
 20
83.0005818325782343
 30
0.0
  0
VERTEX
  5
7E0
  8
0
  6
CONTINUOUS
 62
     1
 10
118.8877635352250053
 20
80.5056415427650478
 30
0.0
 42
0.4142135623731247
  0
VERTEX
  5
7E1
  8
0
  6
CONTINUOUS
 62
     1
 10
120.0738228267758956
 20
81.2758774526811436
 30
0.0
  0
VERTEX
  5
7E2
  8
0
  6
CONTINUOUS
 62
     1
 10
122.5687631165901053
 20
93.0136486614868545
 30
0.0
 42
0.414213562373143
  0
SEQEND
  5
7E3
  8
0
  6
CONTINUOUS
 62
     1
  0
POLYLINE
  5
2A7
  8
0
  6
CONTINUOUS
 62
     1
 66
     1
 10
0.0
 20
0.0
 30
0.0
 70
     1
  0
VERTEX
  5
7E4
  8
0
  6
CONTINUOUS
 62
     1
 10
122.4985272066738986
 20
74.5697079530383462
 30
0.0
  0
VERTEX
  5
7E5
  8
0
  6
CONTINUOUS
 62
     1
 10
110.7607559978679035
 20
77.0646482428515185
 30
0.0
 42
0.4142135623731301
  0
VERTEX
  5
7E6
  8
0
  6
CONTINUOUS
 62
     1
 10
109.5746967063159047
 20
76.2944123329354511
 30
0.0
  0
VERTEX
  5
7E7
  8
0
  6
CONTINUOUS
 62
     1
 10
107.0797564165026046
 20
64.5566411241298397
 30
0.0
 42
0.4142135623730597
  0
VERTEX
  5
7E8
  8
0
  6
CONTINUOUS
 62
     1
 10
107.8499923264187998
 20
63.3705818325782317
 30
0.0
  0
VERTEX
  5
7E9
  8
0
  6
CONTINUOUS
 62
     1
 10
119.5877635352252071
 20
60.8756415427651305
 30
0.0
 42
0.4142135623731333
  0
VERTEX
  5
7EA
  8
0
  6
CONTINUOUS
 62
     1
 10
120.7738228267761968
 20
61.6458774526811695
 30
0.0
  0
VERTEX
  5
7EB
  8
0
  6
CONTINUOUS
 62
     1
 10
123.2687631165887012
 20
73.3836486614867169
 30
0.0
 42
0.4142135623731162
  0
SEQEND
  5
7EC
  8
0
  6
CONTINUOUS
 62
     1
  0
POLYLINE
  5
2A8
  8
0
  6
CONTINUOUS
 62
     1
 66
     1
 10
0.0
 20
0.0
 30
0.0
 70
     1
  0
VERTEX
  5
7ED
  8
0
  6
CONTINUOUS
 62
     1
 10
127.8485272066726992
 20
53.9597079530384178
 30
0.0
  0
VERTEX
  5
7EE
  8
0
  6
CONTINUOUS
 62
     1
 10
116.110755997866903
 20
56.454648242851512
 30
0.0
 42
0.4142135623731062
  0
VERTEX
  5
7EF
  8
0
  6
CONTINUOUS
 62
     1
 10
114.9246967063159985
 20
55.6844123329354375
 30
0.0
  0
VERTEX
  5
7F0
  8
0
  6
CONTINUOUS
 62
     1
 10
112.4297564165029968
 20
43.9466411241297976
 30
0.0
 42
0.4142135623730641
  0
VERTEX
  5
7F1
  8
0
  6
CONTINUOUS
 62
     1
 10
113.1999923264189931
 20
42.7605818325781968
 30
0.0
  0
VERTEX
  5
7F2
  8
0
  6
CONTINUOUS
 62
     1
 10
124.937763535224903
 20
40.2656415427651027
 30
0.0
 42
0.4142135623731162
  0
VERTEX
  5
7F3
  8
0
  6
CONTINUOUS
 62
     1
 10
126.1238228267761059
 20
41.0358774526811985
 30
0.0
  0
VERTEX
  5
7F4
  8
0
  6
CONTINUOUS
 62
     1
 10
128.6187631165888945
 20
52.7736486614868809
 30
0.0
 42
0.414213562373086
  0
SEQEND
  5
7F5
  8
0
  6
CONTINUOUS
 62
     1
  0
POLYLINE
  5
2A9
  8
0
  6
CONTINUOUS
 62
     1
 66
     1
 10
0.0
 20
0.0
 30
0.0
 70
     1
  0
VERTEX
  5
7F6
  8
0
  6
CONTINUOUS
 62
     1
 10
153.712239000652005
 20
106.8889902429601051
 30
0.0
  0
VERTEX
  5
7F7
  8
0
  6
CONTINUOUS
 62
     1
 10
141.9744677918469051
 20
109.3839305327732063
 30
0.0
 42
0.4142135623731325
  0
VERTEX
  5
7F8
  8
0
  6
CONTINUOUS
 62
     1
 10
140.7884085002945938
 20
108.6136946228570963
 30
0.0
  0
VERTEX
  5
7F9
  8
0
  6
CONTINUOUS
 62
     1
 10
138.2934682104819899
 20
96.8759234140514423
 30
0.0
 42
0.4142135623730682
  0
VERTEX
  5
7FA
  8
0
  6
CONTINUOUS
 62
     1
 10
139.0637041203978015
 20
95.6898641224998414
 30
0.0
  0
VERTEX
  5
7FB
  8
0
  6
CONTINUOUS
 62
     1
 10
150.8014753292040098
 20
93.1949238326867544
 30
0.0
 42
0.4142135623731232
  0
VERTEX
  5
7FC
  8
0
  6
CONTINUOUS
 62
     1
 10
151.9875346207549001
 20
93.9651597426028502
 30
0.0
  0
VERTEX
  5
7FD
  8
0
  6
CONTINUOUS
 62
     1
 10
154.4824749105679018
 20
105.7029309514084048
 30
0.0
 42
0.4142135623730982
  0
SEQEND
  5
7FE
  8
0
  6
CONTINUOUS
 62
     1
  0
POLYLINE
  5
2AA
  8
0
  6
CONTINUOUS
 62
     1
 66
     1
 10
0.0
 20
0.0
 30
0.0
 70
     1
  0
VERTEX
  5
7FF
  8
0
  6
CONTINUOUS
 62
     1
 10
140.4322390006520038
 20
90.2389902429600568
 30
0.0
  0
VERTEX
  5
800
  8
0
  6
CONTINUOUS
 62
     1
 10
128.694467791846904
 20
92.7339305327732575
 30
0.0
 42
0.4142135623731165
  0
VERTEX
  5
801
  8
0
  6
CONTINUOUS
 62
     1
 10
127.5084085002947063
 20
91.9636946228571048
 30
0.0
  0
VERTEX
  5
802
  8
0
  6
CONTINUOUS
 62
     1
 10
125.013468210481804
 20
80.225923414051465
 30
0.0
 42
0.4142135623730819
  0
VERTEX
  5
803
  8
0
  6
CONTINUOUS
 62
     1
 10
125.7837041203978004
 20
79.0398641224998642
 30
0.0
  0
VERTEX
  5
804
  8
0
  6
CONTINUOUS
 62
     1
 10
137.5214753292040086
 20
76.5449238326868624
 30
0.0
 42
0.4142135623731359
  0
VERTEX
  5
805
  8
0
  6
CONTINUOUS
 62
     1
 10
138.7075346207548989
 20
77.3151597426029298
 30
0.0
  0
VERTEX
  5
806
  8
0
  6
CONTINUOUS
 62
     1
 10
141.2024749105686112
 20
89.0529309514084275
 30
0.0
 42
0.4142135623731411
  0
SEQEND
  5
807
  8
0
  6
CONTINUOUS
 62
     1
  0
POLYLINE
  5
2AB
  8
0
  6
CONTINUOUS
 62
     1
 66
     1
 10
0.0
 20
0.0
 30
0.0
 70
     1
  0
VERTEX
  5
808
  8
0
  6
CONTINUOUS
 62
     1
 10
141.1322390006517935
 20
70.6089902429601182
 30
0.0
  0
VERTEX
  5
809
  8
0
  6
CONTINUOUS
 62
     1
 10
129.3944677918470063
 20
73.1039305327731199
 30
0.0
 42
0.4142135623730992
  0
VERTEX
  5
80A
  8
0
  6
CONTINUOUS
 62
     1
 10
128.2084085002948939
 20
72.3336946228571378
 30
0.0
  0
VERTEX
  5
80B
  8
0
  6
CONTINUOUS
 62
     1
 10
125.7134682104819063
 20
60.5959234140514909
 30
0.0
 42
0.4142135623731364
  0
VERTEX
  5
80C
  8
0
  6
CONTINUOUS
 62
     1
 10
126.4837041203979027
 20
59.4098641224999398
 30
0.0
  0
VERTEX
  5
80D
  8
0
  6
CONTINUOUS
 62
     1
 10
138.2214753292037983
 20
56.9149238326868101
 30
0.0
 42
0.4142135623731289
  0
VERTEX
  5
80E
  8
0
  6
CONTINUOUS
 62
     1
 10
139.4075346207546886
 20
57.6851597426029201
 30
0.0
  0
VERTEX
  5
80F
  8
0
  6
CONTINUOUS
 62
     1
 10
141.9024749105682019
 20
69.4229309514085031
 30
0.0
 42
0.4142135623731104
  0
SEQEND
  5
810
  8
0
  6
CONTINUOUS
 62
     1
  0
POLYLINE
  5
2AC
  8
0
  6
CONTINUOUS
 62
     1
 66
     1
 10
0.0
 20
0.0
 30
0.0
 70
     1
  0
VERTEX
  5
811
  8
0
  6
CONTINUOUS
 62
     1
 10
146.4822390006519015
 20
49.9989902429600903
 30
0.0
  0
VERTEX
  5
812
  8
0
  6
CONTINUOUS
 62
     1
 10
134.7444677918464038
 20
52.4939305327731915
 30
0.0
 42
0.4142135623731062
  0
VERTEX
  5
813
  8
0
  6
CONTINUOUS
 62
     1
 10
133.558408500294604
 20
51.7236946228571526
 30
0.0
  0
VERTEX
  5
814
  8
0
  6
CONTINUOUS
 62
     1
 10
131.0634682104818012
 20
39.9859234140514772
 30
0.0
 42
0.4142135623730749
  0
VERTEX
  5
815
  8
0
  6
CONTINUOUS
 62
     1
 10
131.8337041203980107
 20
38.7998641224999474
 30
0.0
  0
VERTEX
  5
816
  8
0
  6
CONTINUOUS
 62
     1
 10
143.5714753292039916
 20
36.3049238326868107
 30
0.0
 42
0.4142135623731244
  0
VERTEX
  5
817
  8
0
  6
CONTINUOUS
 62
     1
 10
144.7575346207549103
 20
37.0751597426028994
 30
0.0
  0
VERTEX
  5
818
  8
0
  6
CONTINUOUS
 62
     1
 10
147.252474910567912
 20
48.8129309514085108
 30
0.0
 42
0.4142135623731066
  0
SEQEND
  5
819
  8
0
  6
CONTINUOUS
 62
     1
  0
POLYLINE
  5
2AD
  8
0
  6
CONTINUOUS
 62
     1
 66
     1
 10
0.0
 20
0.0
 30
0.0
 70
     1
  0
VERTEX
  5
81A
  8
0
  6
CONTINUOUS
 62
     1
 10
172.3459507946309941
 20
102.928272532881806
 30
0.0
  0
VERTEX
  5
81B
  8
0
  6
CONTINUOUS
 62
     1
 10
160.6081795858256953
 20
105.4232128226947935
 30
0.0
 42
0.4142135623731414
  0
VERTEX
  5
81C
  8
0
  6
CONTINUOUS
 62
     1
 10
159.4221202942738955
 20
104.6529769127788967
 30
0.0
  0
VERTEX
  5
81D
  8
0
  6
CONTINUOUS
 62
     1
 10
156.9271800044606096
 20
92.9152057039730437
 30
0.0
 42
0.4142135623730774
  0
VERTEX
  5
81E
  8
0
  6
CONTINUOUS
 62
     1
 10
157.6974159143765917
 20
91.7291464124214428
 30
0.0
  0
VERTEX
  5
81F
  8
0
  6
CONTINUOUS
 62
     1
 10
169.4351871231828
 20
89.2342061226084411
 30
0.0
 42
0.4142135623731182
  0
VERTEX
  5
820
  8
0
  6
CONTINUOUS
 62
     1
 10
170.6212464147338892
 20
90.0044420325245369
 30
0.0
  0
VERTEX
  5
821
  8
0
  6
CONTINUOUS
 62
     1
 10
173.1161867045470046
 20
101.7422132413302052
 30
0.0
 42
0.4142135623731461
  0
SEQEND
  5
822
  8
0
  6
CONTINUOUS
 62
     1
  0
POLYLINE
  5
2AE
  8
0
  6
CONTINUOUS
 62
     1
 66
     1
 10
0.0
 20
0.0
 30
0.0
 70
     1
  0
VERTEX
  5
823
  8
0
  6
CONTINUOUS
 62
     1
 10
159.0659507946305951
 20
86.2782725328817435
 30
0.0
  0
VERTEX
  5
824
  8
0
  6
CONTINUOUS
 62
     1
 10
147.3281795858254952
 20
88.7732128226950437
 30
0.0
 42
0.4142135623731097
  0
VERTEX
  5
825
  8
0
  6
CONTINUOUS
 62
     1
 10
146.1421202942738944
 20
88.0029769127789336
 30
0.0
  0
VERTEX
  5
826
  8
0
  6
CONTINUOUS
 62
     1
 10
143.6471800044606937
 20
76.2652057039731233
 30
0.0
 42
0.4142135623730673
  0
VERTEX
  5
827
  8
0
  6
CONTINUOUS
 62
     1
 10
144.4174159143765905
 20
75.0791464124215508
 30
0.0
  0
VERTEX
  5
828
  8
0
  6
CONTINUOUS
 62
     1
 10
156.1551871231825999
 20
72.5842061226085491
 30
0.0
 42
0.414213562373152
  0
VERTEX
  5
829
  8
0
  6
CONTINUOUS
 62
     1
 10
157.3412464147336891
 20
73.3544420325245312
 30
0.0
  0
VERTEX
  5
82A
  8
0
  6
CONTINUOUS
 62
     1
 10
159.8361867045472025
 20
85.0922132413302137
 30
0.0
 42
0.4142135623731692
  0
SEQEND
  5
82B
  8
0
  6
CONTINUOUS
 62
     1
  0
POLYLINE
  5
2AF
  8
0
  6
CONTINUOUS
 62
     1
 66
     1
 10
0.0
 20
0.0
 30
0.0
 70
     1
  0
VERTEX
  5
82C
  8
0
  6
CONTINUOUS
 62
     1
 10
159.7659507946320048
 20
66.6482725328817196
 30
0.0
  0
VERTEX
  5
82D
  8
0
  6
CONTINUOUS
 62
     1
 10
148.0281795858257965
 20
69.1432128226949487
 30
0.0
 42
0.4142135623731335
  0
VERTEX
  5
82E
  8
0
  6
CONTINUOUS
 62
     1
 10
146.8421202942739967
 20
68.3729769127788529
 30
0.0
  0
VERTEX
  5
82F
  8
0
  6
CONTINUOUS
 62
     1
 10
144.3471800044609097
 20
56.6352057039731704
 30
0.0
 42
0.4142135623731182
  0
VERTEX
  5
830
  8
0
  6
CONTINUOUS
 62
     1
 10
145.1174159143768918
 20
55.4491464124216478
 30
0.0
  0
VERTEX
  5
831
  8
0
  6
CONTINUOUS
 62
     1
 10
156.8551871231823895
 20
52.954206122608511
 30
0.0
 42
0.4142135623730808
  0
VERTEX
  5
832
  8
0
  6
CONTINUOUS
 62
     1
 10
158.0412464147339904
 20
53.7244420325245926
 30
0.0
  0
VERTEX
  5
833
  8
0
  6
CONTINUOUS
 62
     1
 10
160.5361867045467932
 20
65.4622132413302751
 30
0.0
 42
0.4142135623731398
  0
SEQEND
  5
834
  8
0
  6
CONTINUOUS
 62
     1
  0
POLYLINE
  5
2B0
  8
0
  6
CONTINUOUS
 62
     1
 66
     1
 10
0.0
 20
0.0
 30
0.0
 70
     1
  0
VERTEX
  5
835
  8
0
  6
CONTINUOUS
 62
     1
 10
165.1159507946310043
 20
46.0382725328817912
 30
0.0
  0
VERTEX
  5
836
  8
0
  6
CONTINUOUS
 62
     1
 10
153.378179585824796
 20
48.5332128226949422
 30
0.0
 42
0.4142135623731588
  0
VERTEX
  5
837
  8
0
  6
CONTINUOUS
 62
     1
 10
152.1921202942739058
 20
47.7629769127789032
 30
0.0
  0
VERTEX
  5
838
  8
0
  6
CONTINUOUS
 62
     1
 10
149.6971800044605914
 20
36.0252057039731781
 30
0.0
 42
0.4142135623730527
  0
VERTEX
  5
839
  8
0
  6
CONTINUOUS
 62
     1
 10
150.4674159143766019
 20
34.8391464124216412
 30
0.0
  0
VERTEX
  5
83A
  8
0
  6
CONTINUOUS
 62
     1
 10
162.2051871231830091
 20
32.34420612260854
 30
0.0
 42
0.4142135623730951
  0
VERTEX
  5
83B
  8
0
  6
CONTINUOUS
 62
     1
 10
163.3912464147338994
 20
33.1144420325246429
 30
0.0
  0
VERTEX
  5
83C
  8
0
  6
CONTINUOUS
 62
     1
 10
165.8861867045469864
 20
44.8522132413301975
 30
0.0
 42
0.4142135623731088
  0
SEQEND
  5
83D
  8
0
  6
CONTINUOUS
 62
     1
  0
POLYLINE
  5
2B1
  8
0
  6
CONTINUOUS
 62
     1
 66
     1
 10
0.0
 20
0.0
 30
0.0
 70
     1
  0
VERTEX
  5
83E
  8
0
  6
CONTINUOUS
 62
     1
 10
248.1340517412457984
 20
98.6753659529297238
 30
0.0
  0
VERTEX
  5
83F
  8
0
  6
CONTINUOUS
 62
     1
 10
236.3962805324401018
 20
96.1804256631167931
 30
0.0
 42
0.4142135623730498
  0
VERTEX
  5
840
  8
0
  6
CONTINUOUS
 62
     1
 10
235.6260446225238923
 20
94.9943663715651496
 30
0.0
  0
VERTEX
  5
841
  8
0
  6
CONTINUOUS
 62
     1
 10
238.120984912336894
 20
83.2565951627594529
 30
0.0
 42
0.4142135623731046
  0
VERTEX
  5
842
  8
0
  6
CONTINUOUS
 62
     1
 10
239.3070442038886938
 20
82.4863592528434566
 30
0.0
  0
VERTEX
  5
843
  8
0
  6
CONTINUOUS
 62
     1
 10
251.0448154126939926
 20
84.981299542656501
 30
0.0
 42
0.4142135623729788
  0
VERTEX
  5
844
  8
0
  6
CONTINUOUS
 62
     1
 10
251.8150513226109126
 20
86.1673588342081445
 30
0.0
  0
VERTEX
  5
845
  8
0
  6
CONTINUOUS
 62
     1
 10
249.3201110327970014
 20
97.905130043013628
 30
0.0
 42
0.4142135623730516
  0
SEQEND
  5
846
  8
0
  6
CONTINUOUS
 62
     1
  0
POLYLINE
  5
2B2
  8
0
  6
CONTINUOUS
 62
     1
 66
     1
 10
0.0
 20
0.0
 30
0.0
 70
     1
  0
VERTEX
  5
847
  8
0
  6
CONTINUOUS
 62
     1
 10
253.4940517412456984
 20
119.2853659529297943
 30
0.0
  0
VERTEX
  5
848
  8
0
  6
CONTINUOUS
 62
     1
 10
241.7562805324400017
 20
116.7904256631165936
 30
0.0
 42
0.4142135623730804
  0
VERTEX
  5
849
  8
0
  6
CONTINUOUS
 62
     1
 10
240.9860446225243038
 20
115.6043663715651064
 30
0.0
  0
VERTEX
  5
84A
  8
0
  6
CONTINUOUS
 62
     1
 10
243.480984912336794
 20
103.866595162759296
 30
0.0
 42
0.4142135623731095
  0
VERTEX
  5
84B
  8
0
  6
CONTINUOUS
 62
     1
 10
244.6670442038889064
 20
103.0963592528432997
 30
0.0
  0
VERTEX
  5
84C
  8
0
  6
CONTINUOUS
 62
     1
 10
256.4048154126938925
 20
105.5912995426564009
 30
0.0
 42
0.41421356237308
  0
VERTEX
  5
84D
  8
0
  6
CONTINUOUS
 62
     1
 10
257.1750513226111821
 20
106.7773588342080018
 30
0.0
  0
VERTEX
  5
84E
  8
0
  6
CONTINUOUS
 62
     1
 10
254.6801110327967024
 20
118.5151300430136985
 30
0.0
 42
0.4142135623730563
  0
SEQEND
  5
84F
  8
0
  6
CONTINUOUS
 62
     1
  0
POLYLINE
  5
2B3
  8
0
  6
CONTINUOUS
 62
     1
 66
     1
 10
0.0
 20
0.0
 30
0.0
 70
     1
  0
VERTEX
  5
850
  8
0
  6
CONTINUOUS
 62
     1
 10
256.7540517412456893
 20
81.0253659529297181
 30
0.0
  0
VERTEX
  5
851
  8
0
  6
CONTINUOUS
 62
     1
 10
245.0162805324399926
 20
78.5304256631166311
 30
0.0
 42
0.4142135623730928
  0
VERTEX
  5
852
  8
0
  6
CONTINUOUS
 62
     1
 10
244.2460446225240105
 20
77.3443663715651155
 30
0.0
  0
VERTEX
  5
853
  8
0
  6
CONTINUOUS
 62
     1
 10
246.7409849123372965
 20
65.606595162759433
 30
0.0
 42
0.4142135623731197
  0
VERTEX
  5
854
  8
0
  6
CONTINUOUS
 62
     1
 10
247.9270442038888973
 20
64.8363592528433514
 30
0.0
  0
VERTEX
  5
855
  8
0
  6
CONTINUOUS
 62
     1
 10
259.6648154126938834
 20
67.3312995426565521
 30
0.0
 42
0.4142135623730563
  0
VERTEX
  5
856
  8
0
  6
CONTINUOUS
 62
     1
 10
260.4350513226099224
 20
68.5173588342080393
 30
0.0
  0
VERTEX
  5
857
  8
0
  6
CONTINUOUS
 62
     1
 10
257.940111032796608
 20
80.2551300430138639
 30
0.0
 42
0.4142135623730307
  0
SEQEND
  5
858
  8
0
  6
CONTINUOUS
 62
     1
  0
POLYLINE
  5
2B4
  8
0
  6
CONTINUOUS
 62
     1
 66
     1
 10
0.0
 20
0.0
 30
0.0
 70
     1
  0
VERTEX
  5
859
  8
0
  6
CONTINUOUS
 62
     1
 10
251.3940517412457893
 20
60.4153659529298181
 30
0.0
  0
VERTEX
  5
85A
  8
0
  6
CONTINUOUS
 62
     1
 10
239.6562805324400927
 20
57.9204256631167169
 30
0.0
 42
0.4142135623730823
  0
VERTEX
  5
85B
  8
0
  6
CONTINUOUS
 62
     1
 10
238.8860446225239116
 20
56.734366371565109
 30
0.0
  0
VERTEX
  5
85C
  8
0
  6
CONTINUOUS
 62
     1
 10
241.3809849123369133
 20
44.996595162759462
 30
0.0
 42
0.4142135623731062
  0
VERTEX
  5
85D
  8
0
  6
CONTINUOUS
 62
     1
 10
242.5670442038887131
 20
44.2263592528433733
 30
0.0
  0
VERTEX
  5
85E
  8
0
  6
CONTINUOUS
 62
     1
 10
254.3048154126940119
 20
46.7212995426565172
 30
0.0
 42
0.4142135623731073
  0
VERTEX
  5
85F
  8
0
  6
CONTINUOUS
 62
     1
 10
255.0750513226097951
 20
47.9073588342080967
 30
0.0
  0
VERTEX
  5
860
  8
0
  6
CONTINUOUS
 62
     1
 10
252.5801110327969923
 20
59.6451300430137579
 30
0.0
 42
0.4142135623730823
  0
SEQEND
  5
861
  8
0
  6
CONTINUOUS
 62
     1
  0
POLYLINE
  5
2B5
  8
0
  6
CONTINUOUS
 62
     1
 66
     1
 10
0.0
 20
0.0
 30
0.0
 70
     1
  0
VERTEX
  5
862
  8
0
  6
CONTINUOUS
 62
     1
 10
256.2040517412456779
 20
40.4253659529299085
 30
0.0
  0
VERTEX
  5
863
  8
0
  6
CONTINUOUS
 62
     1
 10
244.4662805324400949
 20
37.9304256631166794
 30
0.0
 42
0.4142135623730729
  0
VERTEX
  5
864
  8
0
  6
CONTINUOUS
 62
     1
 10
243.6960446225238002
 20
36.7443663715650572
 30
0.0
  0
VERTEX
  5
865
  8
0
  6
CONTINUOUS
 62
     1
 10
246.1909849123368872
 20
25.0065951627594707
 30
0.0
 42
0.4142135623730911
  0
VERTEX
  5
866
  8
0
  6
CONTINUOUS
 62
     1
 10
247.377044203888687
 20
24.2363592528434211
 30
0.0
  0
VERTEX
  5
867
  8
0
  6
CONTINUOUS
 62
     1
 10
259.1148154126938721
 20
26.7312995426566715
 30
0.0
 42
0.4142135623730789
  0
VERTEX
  5
868
  8
0
  6
CONTINUOUS
 62
     1
 10
259.8850513226096837
 20
27.9173588342082191
 30
0.0
  0
VERTEX
  5
869
  8
0
  6
CONTINUOUS
 62
     1
 10
257.3901110327965966
 20
39.6551300430138625
 30
0.0
 42
0.4142135623731122
  0
SEQEND
  5
86A
  8
0
  6
CONTINUOUS
 62
     1
  0
POLYLINE
  5
2B6
  8
0
  6
CONTINUOUS
 62
     1
 66
     1
 10
0.0
 20
0.0
 30
0.0
 70
     1
  0
VERTEX
  5
86B
  8
0
  6
CONTINUOUS
 62
     1
 10
215.7940517412449992
 20
33.3653659529300768
 30
0.0
  0
VERTEX
  5
86C
  8
0
  6
CONTINUOUS
 62
     1
 10
204.0562805324400131
 20
30.87042566311667
 30
0.0
 42
0.4142135623731106
  0
VERTEX
  5
86D
  8
0
  6
CONTINUOUS
 62
     1
 10
203.2860446225240025
 20
29.6843663715650585
 30
0.0
  0
VERTEX
  5
86E
  8
0
  6
CONTINUOUS
 62
     1
 10
205.7809849123368053
 20
17.9465951627594507
 30
0.0
 42
0.4142135623730373
  0
VERTEX
  5
86F
  8
0
  6
CONTINUOUS
 62
     1
 10
206.9670442038888041
 20
17.1763592528434117
 30
0.0
  0
VERTEX
  5
870
  8
0
  6
CONTINUOUS
 62
     1
 10
218.7048154126950124
 20
19.6712995426569108
 30
0.0
 42
0.4142135623730809
  0
VERTEX
  5
871
  8
0
  6
CONTINUOUS
 62
     1
 10
219.4750513226107955
 20
20.8573588342084406
 30
0.0
  0
VERTEX
  5
872
  8
0
  6
CONTINUOUS
 62
     1
 10
216.980111032796799
 20
32.5951300430140591
 30
0.0
 42
0.4142135623731033
  0
SEQEND
  5
873
  8
0
  6
CONTINUOUS
 62
     1
  0
POLYLINE
  5
2B7
  8
0
  6
CONTINUOUS
 62
     1
 66
     1
 10
0.0
 20
0.0
 30
0.0
 70
     1
  0
VERTEX
  5
874
  8
0
  6
CONTINUOUS
 62
     1
 10
234.8603399472669082
 20
115.3246482428514952
 30
0.0
  0
VERTEX
  5
875
  8
0
  6
CONTINUOUS
 62
     1
 10
223.1225687384608989
 20
112.8297079530382945
 30
0.0
 42
0.4142135623730718
  0
VERTEX
  5
876
  8
0
  6
CONTINUOUS
 62
     1
 10
222.352332828545002
 20
111.6436486614866936
 30
0.0
  0
VERTEX
  5
877
  8
0
  6
CONTINUOUS
 62
     1
 10
224.8472731183580038
 20
99.9058774526810822
 30
0.0
 42
0.4142135623731131
  0
VERTEX
  5
878
  8
0
  6
CONTINUOUS
 62
     1
 10
226.0333324099100878
 20
99.1356415427650717
 30
0.0
  0
VERTEX
  5
879
  8
0
  6
CONTINUOUS
 62
     1
 10
237.7711036187149034
 20
101.6305818325781019
 30
0.0
 42
0.41421356237305
  0
VERTEX
  5
87A
  8
0
  6
CONTINUOUS
 62
     1
 10
238.5413395286306013
 20
102.8166411241297027
 30
0.0
  0
VERTEX
  5
87B
  8
0
  6
CONTINUOUS
 62
     1
 10
236.0463992388177985
 20
114.5544123329353994
 30
0.0
 42
0.4142135623730347
  0
SEQEND
  5
87C
  8
0
  6
CONTINUOUS
 62
     1
  0
POLYLINE
  5
2B8
  8
0
  6
CONTINUOUS
 62
     1
 66
     1
 10
0.0
 20
0.0
 30
0.0
 70
     1
  0
VERTEX
  5
87D
  8
0
  6
CONTINUOUS
 62
     1
 10
229.5003399472670083
 20
94.7146482428514389
 30
0.0
  0
VERTEX
  5
87E
  8
0
  6
CONTINUOUS
 62
     1
 10
217.7625687384608
 20
92.2197079530383519
 30
0.0
 42
0.4142135623730884
  0
VERTEX
  5
87F
  8
0
  6
CONTINUOUS
 62
     1
 10
216.9923328285447894
 20
91.0336486614867511
 30
0.0
  0
VERTEX
  5
880
  8
0
  6
CONTINUOUS
 62
     1
 10
219.4872731183579049
 20
79.2958774526811396
 30
0.0
 42
0.4142135623730911
  0
VERTEX
  5
881
  8
0
  6
CONTINUOUS
 62
     1
 10
220.6733324099101878
 20
78.5256415427650438
 30
0.0
  0
VERTEX
  5
882
  8
0
  6
CONTINUOUS
 62
     1
 10
232.4111036187159129
 20
81.0205818325782161
 30
0.0
 42
0.4142135623730454
  0
VERTEX
  5
883
  8
0
  6
CONTINUOUS
 62
     1
 10
233.181339528631014
 20
82.2066411241298454
 30
0.0
  0
VERTEX
  5
884
  8
0
  6
CONTINUOUS
 62
     1
 10
230.6863992388178985
 20
93.9444123329354568
 30
0.0
 42
0.4142135623730705
  0
SEQEND
  5
885
  8
0
  6
CONTINUOUS
 62
     1
  0
POLYLINE
  5
2B9
  8
0
  6
CONTINUOUS
 62
     1
 66
     1
 10
0.0
 20
0.0
 30
0.0
 70
     1
  0
VERTEX
  5
886
  8
0
  6
CONTINUOUS
 62
     1
 10
238.1203399472668991
 20
77.0646482428514616
 30
0.0
  0
VERTEX
  5
887
  8
0
  6
CONTINUOUS
 62
     1
 10
226.3825687384606908
 20
74.5697079530383462
 30
0.0
 42
0.4142135623730699
  0
VERTEX
  5
888
  8
0
  6
CONTINUOUS
 62
     1
 10
225.6123328285449929
 20
73.3836486614867169
 30
0.0
  0
VERTEX
  5
889
  8
0
  6
CONTINUOUS
 62
     1
 10
228.1072731183577957
 20
61.6458774526811126
 30
0.0
 42
0.4142135623731122
  0
VERTEX
  5
88A
  8
0
  6
CONTINUOUS
 62
     1
 10
229.2933324099095955
 20
60.8756415427650879
 30
0.0
  0
VERTEX
  5
88B
  8
0
  6
CONTINUOUS
 62
     1
 10
241.0311036187148943
 20
63.3705818325782317
 30
0.0
 42
0.4142135623730693
  0
VERTEX
  5
88C
  8
0
  6
CONTINUOUS
 62
     1
 10
241.8013395286305922
 20
64.5566411241298397
 30
0.0
  0
VERTEX
  5
88D
  8
0
  6
CONTINUOUS
 62
     1
 10
239.3063992388177894
 20
76.2944123329354511
 30
0.0
 42
0.4142135623730547
  0
SEQEND
  5
88E
  8
0
  6
CONTINUOUS
 62
     1
  0
POLYLINE
  5
2BA
  8
0
  6
CONTINUOUS
 62
     1
 66
     1
 10
0.0
 20
0.0
 30
0.0
 70
     1
  0
VERTEX
  5
88F
  8
0
  6
CONTINUOUS
 62
     1
 10
232.7603399472669992
 20
56.454648242851512
 30
0.0
  0
VERTEX
  5
890
  8
0
  6
CONTINUOUS
 62
     1
 10
221.0225687384613025
 20
53.9597079530383681
 30
0.0
 42
0.4142135623731344
  0
VERTEX
  5
891
  8
0
  6
CONTINUOUS
 62
     1
 10
220.2523328285448088
 20
52.773648661486817
 30
0.0
  0
VERTEX
  5
892
  8
0
  6
CONTINUOUS
 62
     1
 10
222.7472731183578958
 20
41.0358774526811274
 30
0.0
 42
0.4142135623730819
  0
VERTEX
  5
893
  8
0
  6
CONTINUOUS
 62
     1
 10
223.9333324099098945
 20
40.2656415427651027
 30
0.0
  0
VERTEX
  5
894
  8
0
  6
CONTINUOUS
 62
     1
 10
235.6711036187151933
 20
42.7605818325781968
 30
0.0
 42
0.4142135623730959
  0
VERTEX
  5
895
  8
0
  6
CONTINUOUS
 62
     1
 10
236.4413395286308912
 20
43.9466411241297976
 30
0.0
  0
VERTEX
  5
896
  8
0
  6
CONTINUOUS
 62
     1
 10
233.9463992388191116
 20
55.6844123329354375
 30
0.0
 42
0.4142135623730653
  0
SEQEND
  5
897
  8
0
  6
CONTINUOUS
 62
     1
  0
POLYLINE
  5
2BB
  8
0
  6
CONTINUOUS
 62
     1
 66
     1
 10
0.0
 20
0.0
 30
0.0
 70
     1
  0
VERTEX
  5
898
  8
0
  6
CONTINUOUS
 62
     1
 10
216.2266281532878907
 20
111.3639305327730966
 30
0.0
  0
VERTEX
  5
899
  8
0
  6
CONTINUOUS
 62
     1
 10
204.4888569444817108
 20
108.8689902429600949
 30
0.0
 42
0.4142135623731119
  0
VERTEX
  5
89A
  8
0
  6
CONTINUOUS
 62
     1
 10
203.7186210345658992
 20
107.682930951408494
 30
0.0
  0
VERTEX
  5
89B
  8
0
  6
CONTINUOUS
 62
     1
 10
206.2135613243792136
 20
95.945159742602641
 30
0.0
 42
0.4142135623731131
  0
VERTEX
  5
89C
  8
0
  6
CONTINUOUS
 62
     1
 10
207.3996206159310134
 20
95.1749238326867442
 30
0.0
  0
VERTEX
  5
89D
  8
0
  6
CONTINUOUS
 62
     1
 10
219.1373918247361132
 20
97.6698641224998454
 30
0.0
 42
0.4142135623730903
  0
VERTEX
  5
89E
  8
0
  6
CONTINUOUS
 62
     1
 10
219.9076277346528911
 20
98.8559234140514604
 30
0.0
  0
VERTEX
  5
89F
  8
0
  6
CONTINUOUS
 62
     1
 10
217.4126874448398894
 20
110.5936946228571003
 30
0.0
 42
0.4142135623730482
  0
SEQEND
  5
8A0
  8
0
  6
CONTINUOUS
 62
     1
  0
POLYLINE
  5
2BC
  8
0
  6
CONTINUOUS
 62
     1
 66
     1
 10
0.0
 20
0.0
 30
0.0
 70
     1
  0
VERTEX
  5
8A1
  8
0
  6
CONTINUOUS
 62
     1
 10
210.8666281532877065
 20
90.753930532773154
 30
0.0
  0
VERTEX
  5
8A2
  8
0
  6
CONTINUOUS
 62
     1
 10
199.1288569444814982
 20
88.2589902429599533
 30
0.0
 42
0.4142135623730879
  0
VERTEX
  5
8A3
  8
0
  6
CONTINUOUS
 62
     1
 10
198.3586210345659993
 20
87.0729309514085514
 30
0.0
  0
VERTEX
  5
8A4
  8
0
  6
CONTINUOUS
 62
     1
 10
200.8535613243790863
 20
75.3351597426027411
 30
0.0
 42
0.4142135623730905
  0
VERTEX
  5
8A5
  8
0
  6
CONTINUOUS
 62
     1
 10
202.0396206159308861
 20
74.5649238326868442
 30
0.0
  0
VERTEX
  5
8A6
  8
0
  6
CONTINUOUS
 62
     1
 10
213.7773918247366112
 20
77.059864122499846
 30
0.0
 42
0.4142135623730482
  0
VERTEX
  5
8A7
  8
0
  6
CONTINUOUS
 62
     1
 10
214.5476277346527922
 20
78.2459234140514468
 30
0.0
  0
VERTEX
  5
8A8
  8
0
  6
CONTINUOUS
 62
     1
 10
212.0526874448399894
 20
89.9836946228570582
 30
0.0
 42
0.414213562373061
  0
SEQEND
  5
8A9
  8
0
  6
CONTINUOUS
 62
     1
  0
POLYLINE
  5
2BD
  8
0
  6
CONTINUOUS
 62
     1
 66
     1
 10
0.0
 20
0.0
 30
0.0
 70
     1
  0
VERTEX
  5
8AA
  8
0
  6
CONTINUOUS
 62
     1
 10
219.4866281532877963
 20
73.1039305327731199
 30
0.0
  0
VERTEX
  5
8AB
  8
0
  6
CONTINUOUS
 62
     1
 10
207.7488569444819007
 20
70.6089902429600329
 30
0.0
 42
0.4142135623730523
  0
VERTEX
  5
8AC
  8
0
  6
CONTINUOUS
 62
     1
 10
206.9786210345658901
 20
69.4229309514084321
 30
0.0
  0
VERTEX
  5
8AD
  8
0
  6
CONTINUOUS
 62
     1
 10
209.4735613243792045
 20
57.685159742602707
 30
0.0
 42
0.4142135623731125
  0
VERTEX
  5
8AE
  8
0
  6
CONTINUOUS
 62
     1
 10
210.6596206159310043
 20
56.9149238326867604
 30
0.0
  0
VERTEX
  5
8AF
  8
0
  6
CONTINUOUS
 62
     1
 10
222.3973918247359904
 20
59.40986412249989
 30
0.0
 42
0.4142135623730809
  0
VERTEX
  5
8B0
  8
0
  6
CONTINUOUS
 62
     1
 10
223.1676277346529105
 20
60.5959234140514624
 30
0.0
  0
VERTEX
  5
8B1
  8
0
  6
CONTINUOUS
 62
     1
 10
220.6726874448388003
 20
72.3336946228570525
 30
0.0
 42
0.4142135623730335
  0
SEQEND
  5
8B2
  8
0
  6
CONTINUOUS
 62
     1
  0
POLYLINE
  5
2BE
  8
0
  6
CONTINUOUS
 62
     1
 66
     1
 10
0.0
 20
0.0
 30
0.0
 70
     1
  0
VERTEX
  5
8B3
  8
0
  6
CONTINUOUS
 62
     1
 10
214.1266281532876974
 20
52.4939305327731134
 30
0.0
  0
VERTEX
  5
8B4
  8
0
  6
CONTINUOUS
 62
     1
 10
202.3888569444818017
 20
49.9989902429599908
 30
0.0
 42
0.4142135623731073
  0
VERTEX
  5
8B5
  8
0
  6
CONTINUOUS
 62
     1
 10
201.6186210345659902
 20
48.8129309514085108
 30
0.0
  0
VERTEX
  5
8B6
  8
0
  6
CONTINUOUS
 62
     1
 10
204.113561324378793
 20
37.0751597426027928
 30
0.0
 42
0.4142135623730445
  0
VERTEX
  5
8B7
  8
0
  6
CONTINUOUS
 62
     1
 10
205.2996206159309054
 20
36.3049238326867467
 30
0.0
  0
VERTEX
  5
8B8
  8
0
  6
CONTINUOUS
 62
     1
 10
217.0373918247358915
 20
38.7998641224998693
 30
0.0
 42
0.414213562373099
  0
VERTEX
  5
8B9
  8
0
  6
CONTINUOUS
 62
     1
 10
217.8076277346530105
 20
39.9859234140514772
 30
0.0
  0
VERTEX
  5
8BA
  8
0
  6
CONTINUOUS
 62
     1
 10
215.3126874448400088
 20
51.7236946228571099
 30
0.0
 42
0.4142135623730693
  0
SEQEND
  5
8BB
  8
0
  6
CONTINUOUS
 62
     1
  0
POLYLINE
  5
2BF
  8
0
  6
CONTINUOUS
 62
     1
 66
     1
 10
0.0
 20
0.0
 30
0.0
 70
     1
  0
VERTEX
  5
8BC
  8
0
  6
CONTINUOUS
 62
     1
 10
197.5929163593089868
 20
107.4032128226947975
 30
0.0
  0
VERTEX
  5
8BD
  8
0
  6
CONTINUOUS
 62
     1
 10
185.8551451505028922
 20
104.9082725328815968
 30
0.0
 42
0.4142135623731193
  0
VERTEX
  5
8BE
  8
0
  6
CONTINUOUS
 62
     1
 10
185.0849092405865974
 20
103.7222132413300955
 30
0.0
  0
VERTEX
  5
8BF
  8
0
  6
CONTINUOUS
 62
     1
 10
187.5798495303999118
 20
91.9844420325242424
 30
0.0
 42
0.4142135623730982
  0
VERTEX
  5
8C0
  8
0
  6
CONTINUOUS
 62
     1
 10
188.7659088219519106
 20
91.2142061226084309
 30
0.0
  0
VERTEX
  5
8C1
  8
0
  6
CONTINUOUS
 62
     1
 10
200.5036800307568114
 20
93.7091464124215037
 30
0.0
 42
0.4142135623730688
  0
VERTEX
  5
8C2
  8
0
  6
CONTINUOUS
 62
     1
 10
201.2739159406729925
 20
94.8952057039730335
 30
0.0
  0
VERTEX
  5
8C3
  8
0
  6
CONTINUOUS
 62
     1
 10
198.7789756508599055
 20
106.6329769127786022
 30
0.0
 42
0.4142135623730605
  0
SEQEND
  5
8C4
  8
0
  6
CONTINUOUS
 62
     1
  0
POLYLINE
  5
2C0
  8
0
  6
CONTINUOUS
 62
     1
 66
     1
 10
0.0
 20
0.0
 30
0.0
 70
     1
  0
VERTEX
  5
8C5
  8
0
  6
CONTINUOUS
 62
     1
 10
192.2329163593088879
 20
86.7932128226947555
 30
0.0
  0
VERTEX
  5
8C6
  8
0
  6
CONTINUOUS
 62
     1
 10
180.495145150502708
 20
84.2982725328817253
 30
0.0
 42
0.4142135623731307
  0
VERTEX
  5
8C7
  8
0
  6
CONTINUOUS
 62
     1
 10
179.7249092405870101
 20
83.1122132413301244
 30
0.0
  0
VERTEX
  5
8C8
  8
0
  6
CONTINUOUS
 62
     1
 10
182.2198495303998129
 20
71.3744420325244562
 30
0.0
 42
0.4142135623731082
  0
VERTEX
  5
8C9
  8
0
  6
CONTINUOUS
 62
     1
 10
183.4059088219520106
 20
70.6042061226084456
 30
0.0
  0
VERTEX
  5
8CA
  8
0
  6
CONTINUOUS
 62
     1
 10
195.1436800307569115
 20
73.0991464124215327
 30
0.0
 42
0.4142135623730779
  0
VERTEX
  5
8CB
  8
0
  6
CONTINUOUS
 62
     1
 10
195.9139159406726094
 20
74.2852057039731335
 30
0.0
  0
VERTEX
  5
8CC
  8
0
  6
CONTINUOUS
 62
     1
 10
193.4189756508600055
 20
86.0229769127787165
 30
0.0
 42
0.4142135623730703
  0
SEQEND
  5
8CD
  8
0
  6
CONTINUOUS
 62
     1
  0
POLYLINE
  5
2C1
  8
0
  6
CONTINUOUS
 62
     1
 66
     1
 10
0.0
 20
0.0
 30
0.0
 70
     1
  0
VERTEX
  5
8CE
  8
0
  6
CONTINUOUS
 62
     1
 10
200.8529163593090061
 20
69.1432128226947214
 30
0.0
  0
VERTEX
  5
8CF
  8
0
  6
CONTINUOUS
 62
     1
 10
189.1151451505025989
 20
66.6482725328816343
 30
0.0
 42
0.414213562373076
  0
VERTEX
  5
8D0
  8
0
  6
CONTINUOUS
 62
     1
 10
188.3449092405865883
 20
65.462213241330204
 30
0.0
  0
VERTEX
  5
8D1
  8
0
  6
CONTINUOUS
 62
     1
 10
190.8398495303999027
 20
53.7244420325244292
 30
0.0
 42
0.4142135623730697
  0
VERTEX
  5
8D2
  8
0
  6
CONTINUOUS
 62
     1
 10
192.0259088219519015
 20
52.9542061226084328
 30
0.0
  0
VERTEX
  5
8D3
  8
0
  6
CONTINUOUS
 62
     1
 10
203.7636800307568024
 20
55.4491464124215767
 30
0.0
 42
0.4142135623730854
  0
VERTEX
  5
8D4
  8
0
  6
CONTINUOUS
 62
     1
 10
204.5339159406730118
 20
56.6352057039731491
 30
0.0
  0
VERTEX
  5
8D5
  8
0
  6
CONTINUOUS
 62
     1
 10
202.0389756508598964
 20
68.3729769127787677
 30
0.0
 42
0.4142135623730694
  0
SEQEND
  5
8D6
  8
0
  6
CONTINUOUS
 62
     1
  0
POLYLINE
  5
2C2
  8
0
  6
CONTINUOUS
 62
     1
 66
     1
 10
0.0
 20
0.0
 30
0.0
 70
     1
  0
VERTEX
  5
8D7
  8
0
  6
CONTINUOUS
 62
     1
 10
195.4929163593089072
 20
48.5332128226948285
 30
0.0
  0
VERTEX
  5
8D8
  8
0
  6
CONTINUOUS
 62
     1
 10
183.7551451505028979
 20
46.0382725328816775
 30
0.0
 42
0.4142135623731325
  0
VERTEX
  5
8D9
  8
0
  6
CONTINUOUS
 62
     1
 10
182.9849092405868873
 20
44.8522132413301335
 30
0.0
  0
VERTEX
  5
8DA
  8
0
  6
CONTINUOUS
 62
     1
 10
185.4798495304000028
 20
33.1144420325244226
 30
0.0
 42
0.4142135623730911
  0
VERTEX
  5
8DB
  8
0
  6
CONTINUOUS
 62
     1
 10
186.6659088219520015
 20
32.3442061226084334
 30
0.0
  0
VERTEX
  5
8DC
  8
0
  6
CONTINUOUS
 62
     1
 10
198.4036800307569024
 20
34.8391464124215702
 30
0.0
 42
0.4142135623730903
  0
VERTEX
  5
8DD
  8
0
  6
CONTINUOUS
 62
     1
 10
199.1739159406726003
 20
36.0252057039731213
 30
0.0
  0
VERTEX
  5
8DE
  8
0
  6
CONTINUOUS
 62
     1
 10
196.6789756508599964
 20
47.7629769127787824
 30
0.0
 42
0.414213562373072
  0
SEQEND
  5
8DF
  8
0
  6
CONTINUOUS
 62
     1
  0
POLYLINE
  5
2C3
  8
0
  6
CONTINUOUS
 62
     1
 66
     1
 10
0.0
 20
0.0
 30
0.0
  0
VERTEX
  5
8E0
  8
0
  6
CONTINUOUS
 62
     1
 10
43.8428679725670065
 20
65.9308626028865206
 30
0.0
  0
VERTEX
  5
8E1
  8
0
  6
CONTINUOUS
 62
     1
 10
55.8428679725670065
 20
65.9308626028865206
 30
0.0
 42
0.4142135623730857
  0
VERTEX
  5
8E2
  8
0
  6
CONTINUOUS
 62
     1
 10
56.8428679725669994
 20
66.9308626028866627
 30
0.0
  0
VERTEX
  5
8E3
  8
0
  6
CONTINUOUS
 62
     1
 10
56.8428679725669994
 20
78.9308626028865206
 30
0.0
 42
0.4142135623730888
  0
VERTEX
  5
8E4
  8
0
  6
CONTINUOUS
 62
     1
 10
55.8428679725670065
 20
79.9308626028865206
 30
0.0
  0
VERTEX
  5
8E5
  8
0
  6
CONTINUOUS
 62
     1
 10
43.8428679725670065
 20
79.9308626028865206
 30
0.0
  0
SEQEND
  5
8E6
  8
0
  6
CONTINUOUS
 62
     1
  0
POLYLINE
  5
2C4
  8
0
  6
CONTINUOUS
 62
     1
 66
     1
 10
0.0
 20
0.0
 30
0.0
 70
     1
  0
VERTEX
  5
8E7
  8
0
  6
CONTINUOUS
 62
     1
 10
311.4583947386300906
 20
28.4553847795252501
 30
0.0
  0
VERTEX
  5
8E8
  8
0
  6
CONTINUOUS
 62
     1
 10
271.4583947481294786
 20
28.4553847795252501
 30
0.0
  0
VERTEX
  5
8E9
  8
0
  6
CONTINUOUS
 62
     1
 10
271.4583947481294786
 20
42.4553847765257402
 30
0.0
  0
VERTEX
  5
8EA
  8
0
  6
CONTINUOUS
 62
     1
 10
311.4583947386300906
 20
42.4553847765261807
 30
0.0
  0
SEQEND
  5
8EB
  8
0
  6
CONTINUOUS
 62
     1
  0
CIRCLE
  5
2C5
  8
0
  6
CONTINUOUS
 62
     1
 10
39.7667748721050032
 20
103.8872106224551004
 30
0.0
 40
1.1000000000000001
  0
CIRCLE
  5
2C6
  8
0
  6
CONTINUOUS
 62
     1
 10
28.6542856712141187
 20
44.3558551487632968
 30
0.0
 40
1.1000000000000001
  0
CIRCLE
  5
2C7
  8
0
  6
CONTINUOUS
 62
     1
 10
90.5668927662349148
 20
43.5621345812504401
 30
0.0
 40
1.1000000000000001
  0
CIRCLE
  5
2C8
  8
0
  6
CONTINUOUS
 62
     1
 10
107.2354248715119951
 20
99.124723744671229
 30
0.0
 40
1.1000000000000001
  0
CIRCLE
  5
2C9
  8
0
  6
CONTINUOUS
 62
     1
 10
178.1467737705200989
 20
93.6308159393765038
 30
0.0
 40
1.1000000000000001
  0
CIRCLE
  5
2CA
  8
0
  6
CONTINUOUS
 62
     1
 10
178.6730479725669056
 20
18.1621249089812302
 30
0.0
 40
1.1000000000000001
  0
CIRCLE
  5
2CB
  8
0
  6
CONTINUOUS
 62
     1
 10
258.8417737526430074
 20
43.5621248985174603
 30
0.0
 40
1.1000000000000001
  0
CIRCLE
  5
2CC
  8
0
  6
CONTINUOUS
 62
     1
 10
253.2854248776527015
 20
99.9182982829493227
 30
0.0
 40
1.1000000000000001
  0
CIRCLE
  5
2CD
  8
0
  6
CONTINUOUS
 62
     1
 10
335.8354250076641847
 20
101.5058113889363938
 30
0.0
 40
1.1000000000000001
  0
CIRCLE
  5
2CE
  8
0
  6
CONTINUOUS
 62
     1
 10
315.9918747726608785
 20
41.1808663326663407
 30
0.0
 40
1.1000000000000001
  0
POLYLINE
  5
2CF
  8
0
  6
CONTINUOUS
 62
     1
 66
     1
 10
0.0
 20
0.0
 30
0.0
 70
     1
  0
VERTEX
  5
8EC
  8
0
  6
CONTINUOUS
 62
     1
 10
223.3209484020165974
 20
122.4708626028861005
 30
0.0
 42
-0.4142135623731011
  0
VERTEX
  5
8ED
  8
0
  6
CONTINUOUS
 62
     1
 10
221.6209484020172056
 20
124.1708626028861033
 30
0.0
  0
VERTEX
  5
8EE
  8
0
  6
CONTINUOUS
 62
     1
 10
221.6209484020172056
 20
127.1708626028861033
 30
0.0
 42
0.4142135623730873
  0
VERTEX
  5
8EF
  8
0
  6
CONTINUOUS
 62
     1
 10
220.3209484020165974
 20
128.4708626028860863
 30
0.0
  0
VERTEX
  5
8F0
  8
0
  6
CONTINUOUS
 62
     1
 10
138.2788975431180063
 20
128.4708626028860863
 30
0.0
 42
0.4142135623730873
  0
VERTEX
  5
8F1
  8
0
  6
CONTINUOUS
 62
     1
 10
136.9788975431179949
 20
127.1708626028861033
 30
0.0
  0
VERTEX
  5
8F2
  8
0
  6
CONTINUOUS
 62
     1
 10
136.9788975431179949
 20
124.1708626028861033
 30
0.0
 42
-0.4142135623731011
  0
VERTEX
  5
8F3
  8
0
  6
CONTINUOUS
 62
     1
 10
135.2788975431180063
 20
122.4708626028861005
 30
0.0
  0
VERTEX
  5
8F4
  8
0
  6
CONTINUOUS
 62
     1
 10
108.2788975431180063
 20
122.4708626028861005
 30
0.0
 42
-0.4142135623731011
  0
VERTEX
  5
8F5
  8
0
  6
CONTINUOUS
 62
     1
 10
106.578897543117904
 20
124.1708626028861033
 30
0.0
  0
VERTEX
  5
8F6
  8
0
  6
CONTINUOUS
 62
     1
 10
106.578897543117904
 20
127.1708626028861033
 30
0.0
 42
0.4142135623730873
  0
VERTEX
  5
8F7
  8
0
  6
CONTINUOUS
 62
     1
 10
105.2788975431180063
 20
128.4708626028860863
 30
0.0
  0
VERTEX
  5
8F8
  8
0
  6
CONTINUOUS
 62
     1
 10
23.2788975431180098
 20
128.4708626028860863
 30
0.0
 42
0.4142135623730873
  0
VERTEX
  5
8F9
  8
0
  6
CONTINUOUS
 62
     1
 10
21.9788975431180518
 20
127.1708626028861033
 30
0.0
  0
VERTEX
  5
8FA
  8
0
  6
CONTINUOUS
 62
     1
 10
21.9788975431180518
 20
124.1708626028861033
 30
0.0
 42
-0.4142135623731011
  0
VERTEX
  5
8FB
  8
0
  6
CONTINUOUS
 62
     1
 10
20.2788975431180098
 20
122.4708626028861005
 30
0.0
  0
VERTEX
  5
8FC
  8
0
  6
CONTINUOUS
 62
     1
 10
11.6805479725668704
 20
122.4708626028861005
 30
0.0
 42
0.4142135623730873
  0
VERTEX
  5
8FD
  8
0
  6
CONTINUOUS
 62
     1
 10
10.3805479725666903
 20
121.1708626028860039
 30
0.0
  0
VERTEX
  5
8FE
  8
0
  6
CONTINUOUS
 62
     1
 10
10.3805479725666903
 20
112.5725130323357064
 30
0.0
 42
-0.4142135623731011
  0
VERTEX
  5
8FF
  8
0
  6
CONTINUOUS
 62
     1
 10
8.6805479725668704
 20
110.8725130323357035
 30
0.0
  0
VERTEX
  5
900
  8
0
  6
CONTINUOUS
 62
     1
 10
5.6805479725669841
 20
110.8725130323357035
 30
0.0
 42
0.4142135623730873
  0
VERTEX
  5
901
  8
0
  6
CONTINUOUS
 62
     1
 10
4.3805479725668022
 20
109.5725130323357064
 30
0.0
  0
VERTEX
  5
902
  8
0
  6
CONTINUOUS
 62
     1
 10
4.3805479725668022
 20
41.3008626028865535
 30
0.0
 42
0.4142135623730895
  0
VERTEX
  5
903
  8
0
  6
CONTINUOUS
 62
     1
 10
6.1805479725669841
 20
39.5008626028865493
 30
0.0
  0
VERTEX
  5
904
  8
0
  6
CONTINUOUS
 62
     1
 10
12.1505479725666703
 20
39.5008626028865493
 30
0.0
 42
-0.4142135623731659
  0
VERTEX
  5
905
  8
0
  6
CONTINUOUS
 62
     1
 10
15.3505479725669396
 20
36.3008626028857933
 30
0.0
  0
VERTEX
  5
906
  8
0
  6
CONTINUOUS
 62
     1
 10
15.3505479725646694
 20
27.3308626028866684
 30
0.0
 42
0.4142135623731544
  0
VERTEX
  5
907
  8
0
  6
CONTINUOUS
 62
     1
 10
17.1505479725646204
 20
25.5308626028862697
 30
0.0
  0
VERTEX
  5
908
  8
0
  6
CONTINUOUS
 62
     1
 10
20.2788975431180098
 20
25.5308626028862697
 30
0.0
 42
-0.4142135623731011
  0
VERTEX
  5
909
  8
0
  6
CONTINUOUS
 62
     1
 10
21.9788975431180518
 20
23.8308626028862705
 30
0.0
  0
VERTEX
  5
90A
  8
0
  6
CONTINUOUS
 62
     1
 10
21.9788975431180518
 20
20.8308626028862705
 30
0.0
 42
0.4142135623730873
  0
VERTEX
  5
90B
  8
0
  6
CONTINUOUS
 62
     1
 10
23.2788975431180098
 20
19.5308626028862591
 30
0.0
  0
VERTEX
  5
90C
  8
0
  6
CONTINUOUS
 62
     1
 10
83.710877899303938
 20
19.5308626028862591
 30
0.0
  0
VERTEX
  5
90D
  8
0
  6
CONTINUOUS
 62
     1
 10
107.9757884773786003
 20
14.3731966411801899
 30
0.0
 42
0.4142135623730919
  0
VERTEX
  5
90E
  8
0
  6
CONTINUOUS
 62
     1
 10
109.5176655563958974
 20
15.3745033240710001
 30
0.0
  0
VERTEX
  5
90F
  8
0
  6
CONTINUOUS
 62
     1
 10
110.141400628849695
 20
18.3089461262725308
 30
0.0
 42
-0.4142135623730863
  0
VERTEX
  5
910
  8
0
  6
CONTINUOUS
 62
     1
 10
112.1577014244866035
 20
19.6183471731298198
 30
0.0
  0
VERTEX
  5
911
  8
0
  6
CONTINUOUS
 62
     1
 10
138.5676866443000961
 20
14.0047315210504308
 30
0.0
 42
-0.4142135623730906
  0
VERTEX
  5
912
  8
0
  6
CONTINUOUS
 62
     1
 10
139.8770876911565892
 20
11.9884307254127407
 30
0.0
  0
VERTEX
  5
913
  8
0
  6
CONTINUOUS
 62
     1
 10
139.2533526187039001
 20
9.0539879232112881
 30
0.0
 42
0.4142135623731285
  0
VERTEX
  5
914
  8
0
  6
CONTINUOUS
 62
     1
 10
140.2546593015948986
 20
7.5121108441942752
 30
0.0
  0
VERTEX
  5
915
  8
0
  6
CONTINUOUS
 62
     1
 10
164.1700245307926025
 20
2.4287430399932139
 30
0.0
  0
VERTEX
  5
916
  8
0
  6
CONTINUOUS
 62
     1
 10
193.9310714143385894
 20
2.4287430399932139
 30
0.0
  0
VERTEX
  5
917
  8
0
  6
CONTINUOUS
 62
     1
 10
217.8464366435370039
 20
7.5121108441942956
 30
0.0
 42
0.4142135623731387
  0
VERTEX
  5
918
  8
0
  6
CONTINUOUS
 62
     1
 10
218.8477433264289971
 20
9.0539879232113432
 30
0.0
  0
VERTEX
  5
919
  8
0
  6
CONTINUOUS
 62
     1
 10
218.2240082539746027
 20
11.9884307254127993
 30
0.0
 42
-0.4142135623730827
  0
VERTEX
  5
91A
  8
0
  6
CONTINUOUS
 62
     1
 10
219.5334093008320053
 20
14.0047315210504397
 30
0.0
  0
VERTEX
  5
91B
  8
0
  6
CONTINUOUS
 62
     1
 10
245.9433945206448016
 20
19.6183471731297985
 30
0.0
 42
-0.4142135623730902
  0
VERTEX
  5
91C
  8
0
  6
CONTINUOUS
 62
     1
 10
247.9596953162829038
 20
18.3089461262724811
 30
0.0
  0
VERTEX
  5
91D
  8
0
  6
CONTINUOUS
 62
     1
 10
248.5834303887357919
 20
15.3745033240710693
 30
0.0
 42
0.4142135623731091
  0
VERTEX
  5
91E
  8
0
  6
CONTINUOUS
 62
     1
 10
250.1253074677530037
 20
14.3731966411801899
 30
0.0
  0
VERTEX
  5
91F
  8
0
  6
CONTINUOUS
 62
     1
 10
274.390218045828874
 20
19.5308626028862413
 30
0.0
  0
VERTEX
  5
920
  8
0
  6
CONTINUOUS
 62
     1
 10
335.3209484020165974
 20
19.5308626028862591
 30
0.0
 42
0.4142135623730873
  0
VERTEX
  5
921
  8
0
  6
CONTINUOUS
 62
     1
 10
336.6209484020171772
 20
20.8308626028862705
 30
0.0
  0
VERTEX
  5
922
  8
0
  6
CONTINUOUS
 62
     1
 10
336.6209484020171772
 20
23.8308626028862705
 30
0.0
 42
-0.4142135623731011
  0
VERTEX
  5
923
  8
0
  6
CONTINUOUS
 62
     1
 10
338.3209484020165974
 20
25.5308626028862697
 30
0.0
  0
VERTEX
  5
924
  8
0
  6
CONTINUOUS
 62
     1
 10
346.9192979725668238
 20
25.5308626028862697
 30
0.0
 42
0.4142135623730873
  0
VERTEX
  5
925
  8
0
  6
CONTINUOUS
 62
     1
 10
348.2192979725671762
 20
26.8308626028862918
 30
0.0
  0
VERTEX
  5
926
  8
0
  6
CONTINUOUS
 62
     1
 10
348.2192979725671762
 20
35.4292121734367598
 30
0.0
 42
-0.4142135623731011
  0
VERTEX
  5
927
  8
0
  6
CONTINUOUS
 62
     1
 10
349.9192979725668238
 20
37.1292121734367484
 30
0.0
  0
VERTEX
  5
928
  8
0
  6
CONTINUOUS
 62
     1
 10
352.9192979725668238
 20
37.12921217343672
 30
0.0
 42
0.4142135623730873
  0
VERTEX
  5
929
  8
0
  6
CONTINUOUS
 62
     1
 10
354.2192979725672899
 20
38.4292121734367313
 30
0.0
  0
VERTEX
  5
92A
  8
0
  6
CONTINUOUS
 62
     1
 10
354.2192979725672899
 20
109.5725130323353937
 30
0.0
 42
0.4142135623730873
  0
VERTEX
  5
92B
  8
0
  6
CONTINUOUS
 62
     1
 10
352.9192979725668238
 20
110.8725130323355046
 30
0.0
  0
VERTEX
  5
92C
  8
0
  6
CONTINUOUS
 62
     1
 10
349.9192979725668238
 20
110.8725130323355046
 30
0.0
 42
-0.4142135623731011
  0
VERTEX
  5
92D
  8
0
  6
CONTINUOUS
 62
     1
 10
348.2192979725671762
 20
112.5725130323354932
 30
0.0
  0
VERTEX
  5
92E
  8
0
  6
CONTINUOUS
 62
     1
 10
348.2192979725671762
 20
121.1708626028860039
 30
0.0
 42
0.414213562373049
  0
VERTEX
  5
92F
  8
0
  6
CONTINUOUS
 62
     1
 10
346.9192979725668238
 20
122.4708626028862
 30
0.0
  0
VERTEX
  5
930
  8
0
  6
CONTINUOUS
 62
     1
 10
338.3209484020165974
 20
122.4708626028861005
 30
0.0
 42
-0.4142135623731011
  0
VERTEX
  5
931
  8
0
  6
CONTINUOUS
 62
     1
 10
336.6209484020171772
 20
124.1708626028861033
 30
0.0
  0
VERTEX
  5
932
  8
0
  6
CONTINUOUS
 62
     1
 10
336.6209484020171772
 20
127.1708626028861033
 30
0.0
 42
0.4142135623730873
  0
VERTEX
  5
933
  8
0
  6
CONTINUOUS
 62
     1
 10
335.3209484020165974
 20
128.4708626028860863
 30
0.0
  0
VERTEX
  5
934
  8
0
  6
CONTINUOUS
 62
     1
 10
253.3209484020165974
 20
128.4708626028860863
 30
0.0
 42
0.4142135623730873
  0
VERTEX
  5
935
  8
0
  6
CONTINUOUS
 62
     1
 10
252.0209484020166997
 20
127.1708626028861033
 30
0.0
  0
VERTEX
  5
936
  8
0
  6
CONTINUOUS
 62
     1
 10
252.0209484020166997
 20
124.1708626028861033
 30
0.0
 42
-0.4142135623731011
  0
VERTEX
  5
937
  8
0
  6
CONTINUOUS
 62
     1
 10
250.3209484020165974
 20
122.4708626028861005
 30
0.0
  0
SEQEND
  5
938
  8
0
  6
CONTINUOUS
 62
     1
  0
ENDSEC
  0
EOF
