  0
SECTION
  2
HEADER
  9
$ACADVER
  1
AC1009
  9
$INSBASE
 10
0.0
 20
0.0
 30
0.0
  9
$EXTMIN
 10
13.0099570031117597
 20
11.3069607056277501
 30
0.0
  9
$EXTMAX
 10
740.8775515768727473
 20
920.1918690927144553
 30
0.0
  9
$LIMMIN
 10
0.0
 20
0.0
  9
$LIMMAX
 10
12.0
 20
9.0
  9
$ORTHOMODE
 70
     0
  9
$REGENMODE
 70
     1
  9
$FILLMODE
 70
     1
  9
$QTEXTMODE
 70
     0
  9
$MIRRTEXT
 70
     0
  9
$DRAGMODE
 70
     2
  9
$LTSCALE
 40
1.0
  9
$OSMODE
 70
  2047
  9
$ATTMODE
 70
     1
  9
$TEXTSIZE
 40
0.2
  9
$TRACEWID
 40
0.05
  9
$TEXTSTYLE
  7
STANDARD
  9
$CLAYER
  8
0
  9
$CELTYPE
  6
BYLAYER
  9
$CECOLOR
 62
   256
  9
$DIMSCALE
 40
1.0
  9
$DIMASZ
 40
0.18
  9
$DIMEXO
 40
0.0625
  9
$DIMDLI
 40
0.38
  9
$DIMRND
 40
0.0
  9
$DIMDLE
 40
0.0
  9
$DIMEXE
 40
0.18
  9
$DIMTP
 40
0.0
  9
$DIMTM
 40
0.0
  9
$DIMTXT
 40
0.18
  9
$DIMCEN
 40
0.09
  9
$DIMTSZ
 40
0.0
  9
$DIMTOL
 70
     0
  9
$DIMLIM
 70
     0
  9
$DIMTIH
 70
     1
  9
$DIMTOH
 70
     1
  9
$DIMSE1
 70
     0
  9
$DIMSE2
 70
     0
  9
$DIMTAD
 70
     0
  9
$DIMZIN
 70
     0
  9
$DIMBLK
  1

  9
$DIMASO
 70
     1
  9
$DIMSHO
 70
     1
  9
$DIMPOST
  1

  9
$DIMAPOST
  1

  9
$DIMALT
 70
     0
  9
$DIMALTD
 70
     2
  9
$DIMALTF
 40
25.3999999999999986
  9
$DIMLFAC
 40
1.0
  9
$DIMTOFL
 70
     0
  9
$DIMTVP
 40
0.0
  9
$DIMTIX
 70
     0
  9
$DIMSOXD
 70
     0
  9
$DIMSAH
 70
     0
  9
$DIMBLK1
  1

  9
$DIMBLK2
  1

  9
$DIMSTYLE
  2
STANDARD
  9
$DIMCLRD
 70
     0
  9
$DIMCLRE
 70
     0
  9
$DIMCLRT
 70
     0
  9
$DIMTFAC
 40
1.0
  9
$DIMGAP
 40
0.09
  9
$LUNITS
 70
     2
  9
$LUPREC
 70
     4
  9
$SKETCHINC
 40
0.1
  9
$FILLETRAD
 40
0.0
  9
$AUNITS
 70
     0
  9
$AUPREC
 70
     0
  9
$MENU
  1
.
  9
$ELEVATION
 40
0.0
  9
$PELEVATION
 40
0.0
  9
$THICKNESS
 40
0.0
  9
$LIMCHECK
 70
     0
  9
$BLIPMODE
 70
     0
  9
$CHAMFERA
 40
0.0
  9
$CHAMFERB
 40
0.0
  9
$SKPOLY
 70
     0
  9
$TDCREATE
 40
2459370.6363541670143604
  9
$TDUPDATE
 40
2459370.640335647854954
  9
$TDINDWG
 40
0.0039814815
  9
$TDUSRTIMER
 40
0.0039814815
  9
$USRTIMER
 70
     1
  9
$ANGBASE
 50
0.0
  9
$ANGDIR
 70
     0
  9
$PDMODE
 70
     0
  9
$PDSIZE
 40
0.0
  9
$PLINEWID
 40
0.0
  9
$COORDS
 70
     1
  9
$SPLFRAME
 70
     0
  9
$SPLINETYPE
 70
     6
  9
$SPLINESEGS
 70
     8
  9
$ATTDIA
 70
     1
  9
$ATTREQ
 70
     1
  9
$HANDLING
 70
     1
  9
$HANDSEED
  5
8BC
  9
$SURFTAB1
 70
     6
  9
$SURFTAB2
 70
     6
  9
$SURFTYPE
 70
     6
  9
$SURFU
 70
     6
  9
$SURFV
 70
     6
  9
$UCSNAME
  2

  9
$UCSORG
 10
0.0
 20
0.0
 30
0.0
  9
$UCSXDIR
 10
1.0
 20
0.0
 30
0.0
  9
$UCSYDIR
 10
0.0
 20
1.0
 30
0.0
  9
$PUCSNAME
  2

  9
$PUCSORG
 10
0.0
 20
0.0
 30
0.0
  9
$PUCSXDIR
 10
1.0
 20
0.0
 30
0.0
  9
$PUCSYDIR
 10
0.0
 20
1.0
 30
0.0
  9
$USERI1
 70
     0
  9
$USERI2
 70
     0
  9
$USERI3
 70
     0
  9
$USERI4
 70
     0
  9
$USERI5
 70
     0
  9
$USERR1
 40
0.0
  9
$USERR2
 40
0.0
  9
$USERR3
 40
0.0
  9
$USERR4
 40
0.0
  9
$USERR5
 40
0.0
  9
$WORLDVIEW
 70
     1
  9
$SHADEDGE
 70
     3
  9
$SHADEDIF
 70
    70
  9
$TILEMODE
 70
     1
  9
$MAXACTVP
 70
    64
  9
$PLIMCHECK
 70
     0
  9
$PEXTMIN
 10
0.0
 20
0.0
 30
0.0
  9
$PEXTMAX
 10
0.0
 20
0.0
 30
0.0
  9
$PLIMMIN
 10
0.0
 20
0.0
  9
$PLIMMAX
 10
12.0
 20
9.0
  9
$UNITMODE
 70
     0
  9
$VISRETAIN
 70
     1
  9
$PLINEGEN
 70
     0
  9
$PSLTSCALE
 70
     1
  0
ENDSEC
  0
SECTION
  2
TABLES
  0
TABLE
  2
VPORT
 70
     1
  0
VPORT
  2
*ACTIVE
 70
     0
 10
0.0
 20
0.0
 11
1.0
 21
1.0
 12
448.4403885197053796
 22
201.7158239054512023
 13
0.0
 23
0.0
 14
0.5
 24
0.5
 15
0.5
 25
0.5
 16
0.0
 26
0.0
 36
1.0
 17
0.0
 27
0.0
 37
0.0
 40
673.7296432277478289
 41
1.832426550598476
 42
50.0
 43
0.0
 44
0.0
 50
0.0
 51
0.0
 71
     0
 72
  1000
 73
     1
 74
     3
 75
     0
 76
     1
 77
     0
 78
     0
  0
ENDTAB
  0
TABLE
  2
LTYPE
 70
     2
  0
LTYPE
  2
CONTINUOUS
 70
     0
  3
Solid line
 72
    65
 73
     0
 40
0.0
  0
ENDTAB
  0
TABLE
  2
LAYER
 70
     1
  0
LAYER
  2
0
 70
     0
 62
     7
  6
CONTINUOUS
  0
ENDTAB
  0
TABLE
  2
STYLE
 70
     2
  0
STYLE
  2
STANDARD
 70
     0
 40
0.0
 41
1.0
 50
0.0
 71
     0
 42
0.2
  3
txt
  4

  0
STYLE
  2
ANNOTATIVE
 70
     0
 40
0.0
 41
1.0
 50
0.0
 71
     0
 42
0.2
  3
txt
  4

  0
ENDTAB
  0
TABLE
  2
VIEW
 70
     1
  0
ENDTAB
  0
TABLE
  2
UCS
 70
     0
  0
ENDTAB
  0
TABLE
  2
APPID
 70
     8
  0
APPID
  2
ACAD
 70
     0
  0
APPID
  2
ACADANNOPO
 70
     0
  0
APPID
  2
ACADANNOTATIVE
 70
     0
  0
APPID
  2
ACAD_DSTYLE_DIMJAG
 70
     0
  0
APPID
  2
ACAD_DSTYLE_DIMTALN
 70
     0
  0
APPID
  2
ACAD_MLEADERVER
 70
     0
  0
APPID
  2
ACAD_NAV_VCDISPLAY
 70
     0
  0
APPID
  2
ACAD_EXEMPT_FROM_CAD_STANDARDS
 70
     0
  0
ENDTAB
  0
TABLE
  2
DIMSTYLE
 70
     4
  0
DIMSTYLE
  2
STANDARD
 70
     0
  3

  4

  5

  6

  7

 40
1.0
 41
0.18
 42
0.0625
 43
0.38
 44
0.18
 45
0.0
 46
0.0
 47
0.0
 48
0.0
140
0.18
141
0.09
142
0.0
143
25.3999999999999986
144
1.0
145
0.0
146
1.0
147
0.09
 71
     0
 72
     0
 73
     1
 74
     1
 75
     0
 76
     0
 77
     0
 78
     0
170
     0
171
     2
172
     0
173
     0
174
     0
175
     0
176
     0
177
     0
178
     0
  0
DIMSTYLE
  2
ANNOTATIVE
 70
     0
  3

  4

  5

  6

  7

 40
0.0
 41
0.18
 42
0.0625
 43
0.38
 44
0.18
 45
0.0
 46
0.0
 47
0.0
 48
0.0
140
0.18
141
0.09
142
0.0
143
25.3999999999999986
144
1.0
145
0.0
146
1.0
147
0.09
 71
     0
 72
     0
 73
     1
 74
     1
 75
     0
 76
     0
 77
     0
 78
     0
170
     0
171
     2
172
     0
173
     0
174
     0
175
     0
176
     0
177
     0
178
     0
  0
DIMSTYLE
  2
ISO-25
 70
     0
  3

  4

  5

  6

  7

 40
1.0
 41
2.5
 42
0.625
 43
3.75
 44
1.25
 45
0.0
 46
0.0
 47
0.0
 48
0.0
140
2.5
141
2.5
142
0.0
143
0.03937007874016
144
1.0
145
0.0
146
1.0
147
0.625
 71
     0
 72
     0
 73
     0
 74
     0
 75
     0
 76
     0
 77
     1
 78
     8
170
     0
171
     3
172
     1
173
     0
174
     0
175
     0
176
     0
177
     0
178
     0
  0
ENDTAB
  0
ENDSEC
  0
SECTION
  2
BLOCKS
  0
BLOCK
  8
0
  2
$MODEL_SPACE
 70
     0
 10
0.0
 20
0.0
 30
0.0
  3
$MODEL_SPACE
  1

  0
ENDBLK
  5
21
  8
0
  0
BLOCK
 67
     1
  8
0
  2
$PAPER_SPACE
 70
     0
 10
0.0
 20
0.0
 30
0.0
  3
$PAPER_SPACE
  1

  0
ENDBLK
  5
5B
 67
     1
  8
0
  0
ENDSEC
  0
SECTION
  2
ENTITIES
  0
POLYLINE
  5
2B0
  8
0
  6
CONTINUOUS
 62
     3
 66
     1
 10
0.0
 20
0.0
 30
0.0
 70
     1
  0
VERTEX
  5
62C
  8
0
  6
CONTINUOUS
 62
     3
 10
189.7603842705389923
 20
414.9202836778562755
 30
0.0
  0
VERTEX
  5
62D
  8
0
  6
CONTINUOUS
 62
     3
 10
112.9614309773775034
 20
431.2444051297076157
 30
0.0
  0
VERTEX
  5
62E
  8
0
  6
CONTINUOUS
 62
     3
 10
112.9614309773775034
 20
431.2529499651722062
 30
0.0
 42
0.4142135623730951
  0
VERTEX
  5
62F
  8
0
  6
CONTINUOUS
 62
     3
 10
111.4614309773775034
 20
432.7529499651720926
 30
0.0
  0
VERTEX
  5
630
  8
0
  6
CONTINUOUS
 62
     3
 10
94.401430977377629
 20
432.7529499651723199
 30
0.0
 42
0.4142135623730951
  0
VERTEX
  5
631
  8
0
  6
CONTINUOUS
 62
     3
 10
92.901430977377629
 20
431.2529499651722062
 30
0.0
  0
VERTEX
  5
632
  8
0
  6
CONTINUOUS
 62
     3
 10
92.901430977377629
 20
430.6129499651722199
 30
0.0
  0
VERTEX
  5
633
  8
0
  6
CONTINUOUS
 62
     3
 10
56.7114309773775105
 20
430.6129499651721062
 30
0.0
 42
0.4142135623730951
  0
VERTEX
  5
634
  8
0
  6
CONTINUOUS
 62
     3
 10
55.2114309773775176
 20
429.1129499651721062
 30
0.0
  0
VERTEX
  5
635
  8
0
  6
CONTINUOUS
 62
     3
 10
55.2114309773775176
 20
411.5629499651719243
 30
0.0
  0
VERTEX
  5
636
  8
0
  6
CONTINUOUS
 62
     3
 10
52.5514309773775494
 20
411.5629499651719243
 30
0.0
 42
0.4142135623730951
  0
VERTEX
  5
637
  8
0
  6
CONTINUOUS
 62
     3
 10
51.0514309773776915
 20
410.0629499651722085
 30
0.0
  0
VERTEX
  5
638
  8
0
  6
CONTINUOUS
 62
     3
 10
51.0514309773776915
 20
392.5129499651721972
 30
0.0
  0
VERTEX
  5
639
  8
0
  6
CONTINUOUS
 62
     3
 10
48.4814309773777907
 20
392.5129499651721972
 30
0.0
 42
0.4142135623730951
  0
VERTEX
  5
63A
  8
0
  6
CONTINUOUS
 62
     3
 10
46.9814309773775207
 20
391.0129499651721972
 30
0.0
  0
VERTEX
  5
63B
  8
0
  6
CONTINUOUS
 62
     3
 10
46.9814309773775207
 20
373.4629499651722995
 30
0.0
  0
VERTEX
  5
63C
  8
0
  6
CONTINUOUS
 62
     3
 10
44.3114309773774195
 20
373.4629499651722995
 30
0.0
 42
0.4142135623730951
  0
VERTEX
  5
63D
  8
0
  6
CONTINUOUS
 62
     3
 10
42.8114309773774195
 20
371.9629499651720153
 30
0.0
  0
VERTEX
  5
63E
  8
0
  6
CONTINUOUS
 62
     3
 10
42.8114309773776185
 20
335.8529499651720016
 30
0.0
 42
0.4142135623730951
  0
VERTEX
  5
63F
  8
0
  6
CONTINUOUS
 62
     3
 10
44.3114309773774195
 20
334.3529499651721721
 30
0.0
  0
VERTEX
  5
640
  8
0
  6
CONTINUOUS
 62
     3
 10
70.9114309773775631
 20
334.3529499651721721
 30
0.0
 42
0.4142135623730951
  0
VERTEX
  5
641
  8
0
  6
CONTINUOUS
 62
     3
 10
72.4114309773775631
 20
335.8529499651720016
 30
0.0
  0
VERTEX
  5
642
  8
0
  6
CONTINUOUS
 62
     3
 10
72.4114309773775631
 20
351.4029499651717856
 30
0.0
 42
-0.4142135623730951
  0
VERTEX
  5
643
  8
0
  6
CONTINUOUS
 62
     3
 10
74.4114309773775631
 20
353.4029499651718993
 30
0.0
  0
VERTEX
  5
644
  8
0
  6
CONTINUOUS
 62
     3
 10
96.249870856692354
 20
353.4029499651718993
 30
0.0
 42
-0.4769755326981583
  0
VERTEX
  5
645
  8
0
  6
CONTINUOUS
 62
     3
 10
98.2061660581600648
 20
350.9871265835362806
 30
0.0
  0
VERTEX
  5
646
  8
0
  6
CONTINUOUS
 62
     3
 10
95.1511412398490961
 20
336.6143648381071785
 30
0.0
 42
0.4142135623730729
  0
VERTEX
  5
647
  8
0
  6
CONTINUOUS
 62
     3
 10
96.306495104723183
 20
334.8352759007798909
 30
0.0
  0
VERTEX
  5
648
  8
0
  6
CONTINUOUS
 62
     3
 10
122.305658332227793
 20
329.3089831588437733
 30
0.0
 42
0.4142135623730696
  0
VERTEX
  5
649
  8
0
  6
CONTINUOUS
 62
     3
 10
124.0847472695550948
 20
330.4643370237178033
 30
0.0
  0
VERTEX
  5
64A
  8
0
  6
CONTINUOUS
 62
     3
 10
124.0854262540835009
 20
330.4675313947744257
 30
0.0
  0
VERTEX
  5
64B
  8
0
  6
CONTINUOUS
 62
     3
 10
183.4996757527349018
 20
317.8386428071366936
 30
0.0
 42
0.4142135623730822
  0
VERTEX
  5
64C
  8
0
  6
CONTINUOUS
 62
     3
 10
185.2787646900623031
 20
318.9939966720107236
 30
0.0
  0
VERTEX
  5
64D
  8
0
  6
CONTINUOUS
 62
     3
 10
188.8257381354131041
 20
335.6811947405295768
 30
0.0
 42
0.4142135623731042
  0
VERTEX
  5
64E
  8
0
  6
CONTINUOUS
 62
     3
 10
187.6703842705389036
 20
337.4602836778569781
 30
0.0
  0
VERTEX
  5
64F
  8
0
  6
CONTINUOUS
 62
     3
 10
180.036507471463807
 20
339.0829142824807718
 30
0.0
  0
VERTEX
  5
650
  8
0
  6
CONTINUOUS
 62
     3
 10
183.6857381354130041
 20
356.2511947405293995
 30
0.0
 42
0.414213562373074
  0
VERTEX
  5
651
  8
0
  6
CONTINUOUS
 62
     3
 10
182.5303842705390025
 20
358.0302836778569144
 30
0.0
  0
VERTEX
  5
652
  8
0
  6
CONTINUOUS
 62
     3
 10
174.6874504655496878
 20
359.6973507208505225
 30
0.0
  0
VERTEX
  5
653
  8
0
  6
CONTINUOUS
 62
     3
 10
178.3357381354130951
 20
376.8611947405294131
 30
0.0
 42
0.4142135623731042
  0
VERTEX
  5
654
  8
0
  6
CONTINUOUS
 62
     3
 10
177.1803842705390082
 20
378.6402836778564733
 30
0.0
  0
VERTEX
  5
655
  8
0
  6
CONTINUOUS
 62
     3
 10
173.9877782928911927
 20
379.3188930272326047
 30
0.0
  0
VERTEX
  5
656
  8
0
  6
CONTINUOUS
 62
     3
 10
177.7390715519102002
 20
396.9673402430959754
 30
0.0
  0
VERTEX
  5
657
  8
0
  6
CONTINUOUS
 62
     3
 10
185.5896757527347916
 20
395.2986428071365026
 30
0.0
 42
0.4142135623731252
  0
VERTEX
  5
658
  8
0
  6
CONTINUOUS
 62
     3
 10
187.3687646900621928
 20
396.4539966720104758
 30
0.0
  0
VERTEX
  5
659
  8
0
  6
CONTINUOUS
 62
     3
 10
190.9157381354131076
 20
413.1411947405292722
 30
0.0
 42
0.4142135623731252
  0
SEQEND
  5
65A
  8
0
  6
CONTINUOUS
 62
     3
  0
POLYLINE
  5
2B1
  8
0
  6
CONTINUOUS
 62
     3
 66
     1
 10
0.0
 20
0.0
 30
0.0
 70
     1
  0
VERTEX
  5
65B
  8
0
  6
CONTINUOUS
 62
     3
 10
48.0914309773774207
 20
395.1429499651720221
 30
0.0
  0
VERTEX
  5
65C
  8
0
  6
CONTINUOUS
 62
     3
 10
48.0914309773774207
 20
412.6929499651720903
 30
0.0
  0
VERTEX
  5
65D
  8
0
  6
CONTINUOUS
 62
     3
 10
50.7514309773776802
 20
412.6929499651720903
 30
0.0
 42
0.4142135623730951
  0
VERTEX
  5
65E
  8
0
  6
CONTINUOUS
 62
     3
 10
52.2514309773776802
 20
414.1929499651719198
 30
0.0
  0
VERTEX
  5
65F
  8
0
  6
CONTINUOUS
 62
     3
 10
52.2514309773775096
 20
431.2529499651722062
 30
0.0
 42
0.4142135623730951
  0
VERTEX
  5
660
  8
0
  6
CONTINUOUS
 62
     3
 10
50.7514309773776802
 20
432.7529499651720926
 30
0.0
  0
VERTEX
  5
661
  8
0
  6
CONTINUOUS
 62
     3
 10
33.6914309773775074
 20
432.7529499651720926
 30
0.0
 42
0.4142135623730951
  0
VERTEX
  5
662
  8
0
  6
CONTINUOUS
 62
     3
 10
32.1914309773775074
 20
431.2529499651722062
 30
0.0
  0
VERTEX
  5
663
  8
0
  6
CONTINUOUS
 62
     3
 10
32.1914309773775074
 20
413.7029499651720812
 30
0.0
  0
VERTEX
  5
664
  8
0
  6
CONTINUOUS
 62
     3
 10
29.5314309773776813
 20
413.7029499651720812
 30
0.0
 42
0.4142135623730951
  0
VERTEX
  5
665
  8
0
  6
CONTINUOUS
 62
     3
 10
28.0314309773774291
 20
412.2029499651720243
 30
0.0
  0
VERTEX
  5
666
  8
0
  6
CONTINUOUS
 62
     3
 10
28.0314309773774291
 20
394.6529499651721835
 30
0.0
  0
VERTEX
  5
667
  8
0
  6
CONTINUOUS
 62
     3
 10
25.4614309773775211
 20
394.6529499651721835
 30
0.0
 42
0.4142135623730951
  0
VERTEX
  5
668
  8
0
  6
CONTINUOUS
 62
     3
 10
23.9614309773775211
 20
393.1529499651717856
 30
0.0
  0
VERTEX
  5
669
  8
0
  6
CONTINUOUS
 62
     3
 10
23.9614309773775211
 20
376.0929499651720107
 30
0.0
 42
0.4142135623730951
  0
VERTEX
  5
66A
  8
0
  6
CONTINUOUS
 62
     3
 10
25.4614309773775211
 20
374.5929499651721812
 30
0.0
  0
VERTEX
  5
66B
  8
0
  6
CONTINUOUS
 62
     3
 10
42.5214309773775199
 20
374.5929499651721812
 30
0.0
 42
0.4142135623730951
  0
VERTEX
  5
66C
  8
0
  6
CONTINUOUS
 62
     3
 10
44.0214309773774275
 20
376.0929499651720107
 30
0.0
  0
VERTEX
  5
66D
  8
0
  6
CONTINUOUS
 62
     3
 10
44.0214309773774275
 20
393.6429499651720221
 30
0.0
  0
VERTEX
  5
66E
  8
0
  6
CONTINUOUS
 62
     3
 10
46.5914309773776267
 20
393.6429499651720221
 30
0.0
 42
0.4142135623730951
  0
SEQEND
  5
66F
  8
0
  6
CONTINUOUS
 62
     3
  0
POLYLINE
  5
2B2
  8
0
  6
CONTINUOUS
 62
     3
 66
     1
 10
0.0
 20
0.0
 30
0.0
 70
     1
  0
VERTEX
  5
670
  8
0
  6
CONTINUOUS
 62
     3
 10
281.186366850031618
 20
334.8352759007798909
 30
0.0
 42
0.4142135623731081
  0
VERTEX
  5
671
  8
0
  6
CONTINUOUS
 62
     3
 10
282.3417207149061028
 20
336.6143648381071785
 30
0.0
  0
VERTEX
  5
672
  8
0
  6
CONTINUOUS
 62
     3
 10
279.2866958965951767
 20
350.9871265835362806
 30
0.0
 42
-0.4769755326981607
  0
VERTEX
  5
673
  8
0
  6
CONTINUOUS
 62
     3
 10
281.2429910980628165
 20
353.4029499651718993
 30
0.0
  0
VERTEX
  5
674
  8
0
  6
CONTINUOUS
 62
     3
 10
327.9870309773776853
 20
353.4029499651718993
 30
0.0
 42
-0.4142135623730951
  0
VERTEX
  5
675
  8
0
  6
CONTINUOUS
 62
     3
 10
329.9870309773775716
 20
351.4029499651717856
 30
0.0
  0
VERTEX
  5
676
  8
0
  6
CONTINUOUS
 62
     3
 10
329.9870309773775716
 20
335.8049499651718861
 30
0.0
 42
0.4142135623730951
  0
VERTEX
  5
677
  8
0
  6
CONTINUOUS
 62
     3
 10
331.4870309773776853
 20
334.3049499651722272
 30
0.0
  0
VERTEX
  5
678
  8
0
  6
CONTINUOUS
 62
     3
 10
358.0870309773778217
 20
334.3049499651722272
 30
0.0
 42
0.4142135623730951
  0
VERTEX
  5
679
  8
0
  6
CONTINUOUS
 62
     3
 10
359.5870309773771965
 20
335.8049499651718861
 30
0.0
  0
VERTEX
  5
67A
  8
0
  6
CONTINUOUS
 62
     3
 10
359.5870309773771965
 20
353.4029499651718993
 30
0.0
  0
VERTEX
  5
67B
  8
0
  6
CONTINUOUS
 62
     3
 10
361.760180977377388
 20
353.4029499651721835
 30
0.0
 42
0.4142135623730951
  0
VERTEX
  5
67C
  8
0
  6
CONTINUOUS
 62
     3
 10
363.260180977377388
 20
354.9029499651722972
 30
0.0
  0
VERTEX
  5
67D
  8
0
  6
CONTINUOUS
 62
     3
 10
363.2601809773776722
 20
371.9629499651720153
 30
0.0
 42
0.4142135623730951
  0
VERTEX
  5
67E
  8
0
  6
CONTINUOUS
 62
     3
 10
361.760180977377388
 20
373.4629499651722995
 30
0.0
  0
VERTEX
  5
67F
  8
0
  6
CONTINUOUS
 62
     3
 10
359.081430977377579
 20
373.4629499651722995
 30
0.0
  0
VERTEX
  5
680
  8
0
  6
CONTINUOUS
 62
     3
 10
359.081430977377579
 20
391.0129499651721972
 30
0.0
 42
0.4142135623730951
  0
VERTEX
  5
681
  8
0
  6
CONTINUOUS
 62
     3
 10
357.581430977377579
 20
392.5129499651720266
 30
0.0
  0
VERTEX
  5
682
  8
0
  6
CONTINUOUS
 62
     3
 10
354.8214309773774744
 20
392.5129499651721972
 30
0.0
  0
VERTEX
  5
683
  8
0
  6
CONTINUOUS
 62
     3
 10
354.8214309773774744
 20
410.0629499651722085
 30
0.0
 42
0.4142135623730951
  0
VERTEX
  5
684
  8
0
  6
CONTINUOUS
 62
     3
 10
353.3214309773775881
 20
411.5629499651722085
 30
0.0
  0
VERTEX
  5
685
  8
0
  6
CONTINUOUS
 62
     3
 10
350.6514309773775153
 20
411.5629499651719243
 30
0.0
  0
VERTEX
  5
686
  8
0
  6
CONTINUOUS
 62
     3
 10
350.6514309773775153
 20
429.1129499651721062
 30
0.0
 42
0.4142135623730951
  0
VERTEX
  5
687
  8
0
  6
CONTINUOUS
 62
     3
 10
349.1514309773776858
 20
430.6129499651721062
 30
0.0
  0
VERTEX
  5
688
  8
0
  6
CONTINUOUS
 62
     3
 10
293.9214309773776108
 20
430.6129499651722199
 30
0.0
  0
VERTEX
  5
689
  8
0
  6
CONTINUOUS
 62
     3
 10
293.9214309773776108
 20
431.2529499651722062
 30
0.0
 42
0.4142135623730951
  0
VERTEX
  5
68A
  8
0
  6
CONTINUOUS
 62
     3
 10
292.4214309773774971
 20
432.7529499651720926
 30
0.0
  0
VERTEX
  5
68B
  8
0
  6
CONTINUOUS
 62
     3
 10
273.8914594443634769
 20
432.7529499651720926
 30
0.0
 42
0.0100084863468056
  0
VERTEX
  5
68C
  8
0
  6
CONTINUOUS
 62
     3
 10
273.8314265691354876
 20
432.7517481683640881
 30
0.0
  0
VERTEX
  5
68D
  8
0
  6
CONTINUOUS
 62
     3
 10
271.2433339521674043
 20
432.6480846859672056
 30
0.0
 42
0.0423770652101923
  0
VERTEX
  5
68E
  8
0
  6
CONTINUOUS
 62
     3
 10
270.9914992911686227
 20
432.6165078838761247
 30
0.0
  0
VERTEX
  5
68F
  8
0
  6
CONTINUOUS
 62
     3
 10
197.0524776842160861
 20
416.9002836778565211
 30
0.0
 42
0.4142135623731125
  0
VERTEX
  5
690
  8
0
  6
CONTINUOUS
 62
     3
 10
195.8971238193423119
 20
415.1211947405291198
 30
0.0
  0
VERTEX
  5
691
  8
0
  6
CONTINUOUS
 62
     3
 10
199.5474451724209075
 20
397.9477829935623276
 30
0.0
  0
VERTEX
  5
692
  8
0
  6
CONTINUOUS
 62
     3
 10
191.7024776842158929
 20
396.2802836778566871
 30
0.0
 42
0.4142135623730782
  0
VERTEX
  5
693
  8
0
  6
CONTINUOUS
 62
     3
 10
190.5471238193420902
 20
394.5011947405293995
 30
0.0
  0
VERTEX
  5
694
  8
0
  6
CONTINUOUS
 62
     3
 10
194.0940972646930049
 20
377.8139966720104894
 30
0.0
 42
0.4142135623730779
  0
VERTEX
  5
695
  8
0
  6
CONTINUOUS
 62
     3
 10
195.8731862020202925
 20
376.6586428071365162
 30
0.0
  0
VERTEX
  5
696
  8
0
  6
CONTINUOUS
 62
     3
 10
199.0659285314305862
 20
377.3372811389743902
 30
0.0
  0
VERTEX
  5
697
  8
0
  6
CONTINUOUS
 62
     3
 10
202.8153680155126892
 20
359.6975552484943819
 30
0.0
  0
VERTEX
  5
698
  8
0
  6
CONTINUOUS
 62
     3
 10
194.9628664832349898
 20
358.0284545222850738
 30
0.0
 42
0.4142135623731292
  0
VERTEX
  5
699
  8
0
  6
CONTINUOUS
 62
     3
 10
193.8075126183611019
 20
356.2493655849575021
 30
0.0
  0
VERTEX
  5
69A
  8
0
  6
CONTINUOUS
 62
     3
 10
201.3167083073506092
 20
320.9213774485717749
 30
0.0
 42
0.4142135623730916
  0
VERTEX
  5
69B
  8
0
  6
CONTINUOUS
 62
     3
 10
203.0957972446780957
 20
319.7660235836978018
 30
0.0
  0
VERTEX
  5
69C
  8
0
  6
CONTINUOUS
 62
     3
 10
253.4089485431530875
 20
330.4604140304857083
 30
0.0
 42
0.4134306528507031
  0
VERTEX
  5
69D
  8
0
  6
CONTINUOUS
 62
     3
 10
255.1871983779531945
 20
329.3089820440750941
 30
0.0
  0
SEQEND
  5
69E
  8
0
  6
CONTINUOUS
 62
     3
  0
POLYLINE
  5
2B3
  8
0
  6
CONTINUOUS
 62
     3
 66
     1
 10
0.0
 20
0.0
 30
0.0
 70
     1
  0
VERTEX
  5
69F
  8
0
  6
CONTINUOUS
 62
     3
 10
21.4914309773770107
 20
442.2229499651721767
 30
0.0
 42
0.4142135623730951
  0
VERTEX
  5
6A0
  8
0
  6
CONTINUOUS
 62
     3
 10
14.4914309773770107
 20
435.2229499651721767
 30
0.0
  0
VERTEX
  5
6A1
  8
0
  6
CONTINUOUS
 62
     3
 10
14.4914309773770107
 20
430.7229499651721767
 30
0.0
  0
VERTEX
  5
6A2
  8
0
  6
CONTINUOUS
 62
     3
 10
14.4914309773770107
 20
336.3829499651719175
 30
0.0
  0
VERTEX
  5
6A3
  8
0
  6
CONTINUOUS
 62
     3
 10
14.4914309773770107
 20
331.8829499651719175
 30
0.0
 42
0.4142135623730951
  0
VERTEX
  5
6A4
  8
0
  6
CONTINUOUS
 62
     3
 10
21.4914309773770107
 20
324.8829499651719175
 30
0.0
  0
VERTEX
  5
6A5
  8
0
  6
CONTINUOUS
 62
     3
 10
25.9914309773770391
 20
324.8829499651719175
 30
0.0
  0
VERTEX
  5
6A6
  8
0
  6
CONTINUOUS
 62
     3
 10
97.5803231159979418
 20
324.8829499651719175
 30
0.0
  0
VERTEX
  5
6A7
  8
0
  6
CONTINUOUS
 62
     3
 10
177.7310473808306028
 20
307.8463876000776054
 30
0.0
  0
VERTEX
  5
6A8
  8
0
  6
CONTINUOUS
 62
     3
 10
193.3614309773759032
 20
307.8463876000776054
 30
0.0
  0
VERTEX
  5
6A9
  8
0
  6
CONTINUOUS
 62
     3
 10
208.99181457392109
 20
307.8463876000776054
 30
0.0
  0
VERTEX
  5
6AA
  8
0
  6
CONTINUOUS
 62
     3
 10
289.1425388387539215
 20
324.8829499651719175
 30
0.0
  0
VERTEX
  5
6AB
  8
0
  6
CONTINUOUS
 62
     3
 10
361.2301809773766763
 20
324.8829499651719175
 30
0.0
  0
VERTEX
  5
6AC
  8
0
  6
CONTINUOUS
 62
     3
 10
365.7301809773766763
 20
324.8829499651719175
 30
0.0
 42
0.4142135623730974
  0
VERTEX
  5
6AD
  8
0
  6
CONTINUOUS
 62
     3
 10
372.7301809773766763
 20
331.8829499651722017
 30
0.0
  0
VERTEX
  5
6AE
  8
0
  6
CONTINUOUS
 62
     3
 10
372.7301809773766763
 20
336.3829499651719175
 30
0.0
  0
VERTEX
  5
6AF
  8
0
  6
CONTINUOUS
 62
     3
 10
372.7301809773770742
 20
435.2229499651721767
 30
0.0
 42
0.4142135623730951
  0
VERTEX
  5
6B0
  8
0
  6
CONTINUOUS
 62
     3
 10
365.7301809773770742
 20
442.2229499651721767
 30
0.0
  0
VERTEX
  5
6B1
  8
0
  6
CONTINUOUS
 62
     3
 10
198.7114309773789103
 20
442.2229499651721767
 30
0.0
  0
VERTEX
  5
6B2
  8
0
  6
CONTINUOUS
 62
     3
 10
188.0114309773740899
 20
442.2229499651721767
 30
0.0
  0
VERTEX
  5
6B3
  8
0
  6
CONTINUOUS
 62
     3
 10
25.9914309773770391
 20
442.2229499651721767
 30
0.0
  0
SEQEND
  5
6B4
  8
0
  6
CONTINUOUS
 62
     3
  0
CIRCLE
  5
2B4
  8
0
  6
CONTINUOUS
 62
     3
 10
366.1318314068262794
 20
331.4812995357223144
 30
0.0
 40
1.6000000000000001
  0
CIRCLE
  5
2B5
  8
0
  6
CONTINUOUS
 62
     3
 10
366.1318314068262794
 20
435.6246003946210976
 30
0.0
 40
1.6000000000000001
  0
CIRCLE
  5
2B6
  8
0
  6
CONTINUOUS
 62
     3
 10
21.0897805479275213
 20
435.6246003946210976
 30
0.0
 40
1.6000000000000001
  0
CIRCLE
  5
2B7
  8
0
  6
CONTINUOUS
 62
     3
 10
21.0897805479275213
 20
331.4812995357223144
 30
0.0
 40
1.6000000000000001
  0
CIRCLE
  5
2B8
  8
0
  6
CONTINUOUS
 62
     3
 10
136.0897805479274894
 20
436.7229499651714946
 30
0.0
 40
1.6000000000000001
  0
CIRCLE
  5
2B9
  8
0
  6
CONTINUOUS
 62
     3
 10
251.1318314068265067
 20
436.7229499651714946
 30
0.0
 40
1.6000000000000001
  0
CIRCLE
  5
2BA
  8
0
  6
CONTINUOUS
 62
     3
 10
138.6963920923599005
 20
321.7663329859270789
 30
0.0
 40
1.6000000000000001
  0
CIRCLE
  5
2BB
  8
0
  6
CONTINUOUS
 62
     3
 10
248.0264698623915081
 20
321.7663329859270789
 30
0.0
 40
1.6000000000000001
  0
POLYLINE
  5
2BC
  8
0
  6
CONTINUOUS
 62
     3
 66
     1
 10
0.0
 20
0.0
 30
0.0
 70
     1
  0
VERTEX
  5
6B5
  8
0
  6
CONTINUOUS
 62
     3
 10
325.7692777434396021
 20
338.007472141810922
 30
0.0
  0
VERTEX
  5
6B6
  8
0
  6
CONTINUOUS
 62
     3
 10
285.7692777529396153
 20
338.007472141810922
 30
0.0
  0
VERTEX
  5
6B7
  8
0
  6
CONTINUOUS
 62
     3
 10
285.7692777529396153
 20
352.0074721388115222
 30
0.0
  0
VERTEX
  5
6B8
  8
0
  6
CONTINUOUS
 62
     3
 10
325.7692777434396021
 20
352.0074721388119201
 30
0.0
  0
SEQEND
  5
6B9
  8
0
  6
CONTINUOUS
 62
     3
  0
POLYLINE
  5
2BD
  8
0
  6
CONTINUOUS
 62
     3
 66
     1
 10
0.0
 20
0.0
 30
0.0
  0
VERTEX
  5
6BA
  8
0
  6
CONTINUOUS
 62
     3
 10
415.4501809773774994
 20
414.4225862745769859
 30
0.0
  0
VERTEX
  5
6BB
  8
0
  6
CONTINUOUS
 62
     3
 10
415.4501809773774994
 20
413.8129499651718106
 30
0.0
  0
VERTEX
  5
6BC
  8
0
  6
CONTINUOUS
 62
     3
 10
412.7901809773773039
 20
413.8129499651719811
 30
0.0
 42
0.4142135623730951
  0
VERTEX
  5
6BD
  8
0
  6
CONTINUOUS
 62
     3
 10
411.2901809773778155
 20
412.3129499651719811
 30
0.0
  0
VERTEX
  5
6BE
  8
0
  6
CONTINUOUS
 62
     3
 10
411.2901809773778155
 20
394.7629499651721972
 30
0.0
  0
VERTEX
  5
6BF
  8
0
  6
CONTINUOUS
 62
     3
 10
408.7201809773775949
 20
394.7629499651721972
 30
0.0
 42
0.4142135623730951
  0
VERTEX
  5
6C0
  8
0
  6
CONTINUOUS
 62
     3
 10
407.2201809773774812
 20
393.2629499651721972
 30
0.0
  0
VERTEX
  5
6C1
  8
0
  6
CONTINUOUS
 62
     3
 10
407.2201809773774812
 20
375.7129499651722995
 30
0.0
  0
VERTEX
  5
6C2
  8
0
  6
CONTINUOUS
 62
     3
 10
404.5501809773774085
 20
375.7129499651722995
 30
0.0
 42
0.4142135623730951
  0
VERTEX
  5
6C3
  8
0
  6
CONTINUOUS
 62
     3
 10
403.0501809773775221
 20
374.2129499651721858
 30
0.0
  0
VERTEX
  5
6C4
  8
0
  6
CONTINUOUS
 62
     3
 10
403.0501809773775221
 20
357.8509766867273925
 30
0.0
  0
SEQEND
  5
6C5
  8
0
  6
CONTINUOUS
 62
     3
  0
POLYLINE
  5
2BE
  8
0
  6
CONTINUOUS
 62
     3
 66
     1
 10
0.0
 20
0.0
 30
0.0
 70
     1
  0
VERTEX
  5
6C6
  8
0
  6
CONTINUOUS
 62
     3
 10
408.3301809773773243
 20
397.3929499651721926
 30
0.0
  0
VERTEX
  5
6C7
  8
0
  6
CONTINUOUS
 62
     3
 10
408.3301809773773243
 20
414.9429499651720903
 30
0.0
  0
VERTEX
  5
6C8
  8
0
  6
CONTINUOUS
 62
     3
 10
410.9901809773775767
 20
414.9429499651720903
 30
0.0
 42
0.4142135623730951
  0
VERTEX
  5
6C9
  8
0
  6
CONTINUOUS
 62
     3
 10
412.4901809773775767
 20
416.4429499651720903
 30
0.0
  0
VERTEX
  5
6CA
  8
0
  6
CONTINUOUS
 62
     3
 10
412.4901809773775767
 20
433.5029499651722062
 30
0.0
 42
0.4142135623730951
  0
VERTEX
  5
6CB
  8
0
  6
CONTINUOUS
 62
     3
 10
410.9901809773775767
 20
435.0029499651720926
 30
0.0
  0
VERTEX
  5
6CC
  8
0
  6
CONTINUOUS
 62
     3
 10
393.9301809773775744
 20
435.0029499651720926
 30
0.0
 42
0.4142135623730951
  0
VERTEX
  5
6CD
  8
0
  6
CONTINUOUS
 62
     3
 10
392.4301809773775744
 20
433.5029499651722062
 30
0.0
  0
VERTEX
  5
6CE
  8
0
  6
CONTINUOUS
 62
     3
 10
392.4301809773775744
 20
415.9529499651720812
 30
0.0
  0
VERTEX
  5
6CF
  8
0
  6
CONTINUOUS
 62
     3
 10
389.7701809773777768
 20
415.9529499651720812
 30
0.0
 42
0.4142135623730951
  0
VERTEX
  5
6D0
  8
0
  6
CONTINUOUS
 62
     3
 10
388.2701809773773221
 20
414.4529499651720812
 30
0.0
  0
VERTEX
  5
6D1
  8
0
  6
CONTINUOUS
 62
     3
 10
388.2701809773773221
 20
396.9029499651721835
 30
0.0
  0
VERTEX
  5
6D2
  8
0
  6
CONTINUOUS
 62
     3
 10
385.7001809773776131
 20
396.9029499651721835
 30
0.0
 42
0.4142135623730951
  0
VERTEX
  5
6D3
  8
0
  6
CONTINUOUS
 62
     3
 10
384.2001809773776131
 20
395.402949965172013
 30
0.0
  0
VERTEX
  5
6D4
  8
0
  6
CONTINUOUS
 62
     3
 10
384.2001809773776131
 20
378.3429499651722949
 30
0.0
 42
0.4142135623730951
  0
VERTEX
  5
6D5
  8
0
  6
CONTINUOUS
 62
     3
 10
385.7001809773776131
 20
376.8429499651721812
 30
0.0
  0
VERTEX
  5
6D6
  8
0
  6
CONTINUOUS
 62
     3
 10
402.760180977377388
 20
376.8429499651721812
 30
0.0
 42
0.4142135623730951
  0
VERTEX
  5
6D7
  8
0
  6
CONTINUOUS
 62
     3
 10
404.2601809773775017
 20
378.3429499651722949
 30
0.0
  0
VERTEX
  5
6D8
  8
0
  6
CONTINUOUS
 62
     3
 10
404.2601809773775017
 20
395.8929499651720221
 30
0.0
  0
VERTEX
  5
6D9
  8
0
  6
CONTINUOUS
 62
     3
 10
406.8301809773774949
 20
395.8929499651720221
 30
0.0
 42
0.4142135623730951
  0
SEQEND
  5
6DA
  8
0
  6
CONTINUOUS
 62
     3
  0
POLYLINE
  5
2BF
  8
0
  6
CONTINUOUS
 62
     3
 66
     1
 10
0.0
 20
0.0
 30
0.0
  0
VERTEX
  5
6DB
  8
0
  6
CONTINUOUS
 62
     3
 10
710.890180977377554
 20
414.9311210990002792
 30
0.0
  0
VERTEX
  5
6DC
  8
0
  6
CONTINUOUS
 62
     3
 10
710.890180977377554
 20
431.3629499651723904
 30
0.0
 42
0.4142135623730951
  0
VERTEX
  5
6DD
  8
0
  6
CONTINUOUS
 62
     3
 10
709.390180977377895
 20
432.8629499651723904
 30
0.0
  0
VERTEX
  5
6DE
  8
0
  6
CONTINUOUS
 62
     3
 10
654.1601809773776495
 20
432.8629499651721062
 30
0.0
  0
VERTEX
  5
6DF
  8
0
  6
CONTINUOUS
 62
     3
 10
654.1601809773776495
 20
433.5029499651722062
 30
0.0
 42
0.4142135623730951
  0
VERTEX
  5
6E0
  8
0
  6
CONTINUOUS
 62
     3
 10
652.6601809773776495
 20
435.0029499651720926
 30
0.0
  0
VERTEX
  5
6E1
  8
0
  6
CONTINUOUS
 62
     3
 10
634.130209444363345
 20
435.0029499651720926
 30
0.0
 42
0.0100084863468056
  0
VERTEX
  5
6E2
  8
0
  6
CONTINUOUS
 62
     3
 10
634.0701765691353557
 20
435.0017481683643723
 30
0.0
  0
VERTEX
  5
6E3
  8
0
  6
CONTINUOUS
 62
     3
 10
631.4820839521672724
 20
434.8980846859673761
 30
0.0
 42
0.0423770652101923
  0
VERTEX
  5
6E4
  8
0
  6
CONTINUOUS
 62
     3
 10
631.230249291168775
 20
434.8665078838758973
 30
0.0
  0
VERTEX
  5
6E5
  8
0
  6
CONTINUOUS
 62
     3
 10
557.291227684215869
 20
419.1502836778566916
 30
0.0
 42
0.4142135623731125
  0
VERTEX
  5
6E6
  8
0
  6
CONTINUOUS
 62
     3
 10
556.1358738193421232
 20
417.3711947405291198
 30
0.0
  0
VERTEX
  5
6E7
  8
0
  6
CONTINUOUS
 62
     3
 10
559.786195172421003
 20
400.1977829935623845
 30
0.0
  0
VERTEX
  5
6E8
  8
0
  6
CONTINUOUS
 62
     3
 10
551.941227684216301
 20
398.5302836778565165
 30
0.0
 42
0.4142135623730782
  0
VERTEX
  5
6E9
  8
0
  6
CONTINUOUS
 62
     3
 10
550.7858738193418731
 20
396.7511947405295132
 30
0.0
  0
VERTEX
  5
6EA
  8
0
  6
CONTINUOUS
 62
     3
 10
554.3328472646927594
 20
380.0639966720106031
 30
0.0
 42
0.4142135623730779
  0
VERTEX
  5
6EB
  8
0
  6
CONTINUOUS
 62
     3
 10
556.1119362020200469
 20
378.9086428071365731
 30
0.0
  0
VERTEX
  5
6EC
  8
0
  6
CONTINUOUS
 62
     3
 10
559.3046785314306817
 20
379.5872811389745038
 30
0.0
  0
VERTEX
  5
6ED
  8
0
  6
CONTINUOUS
 62
     3
 10
563.0541180155125858
 20
361.9475552484946093
 30
0.0
  0
VERTEX
  5
6EE
  8
0
  6
CONTINUOUS
 62
     3
 10
555.2016164832349432
 20
360.278454522285017
 30
0.0
 42
0.4142135623731292
  0
VERTEX
  5
6EF
  8
0
  6
CONTINUOUS
 62
     3
 10
554.0462626183608563
 20
358.4993655849577863
 30
0.0
  0
VERTEX
  5
6F0
  8
0
  6
CONTINUOUS
 62
     3
 10
561.5554583073508184
 20
323.1713774485716044
 30
0.0
 42
0.4142135623730916
  0
VERTEX
  5
6F1
  8
0
  6
CONTINUOUS
 62
     3
 10
563.3345472446777649
 20
322.016023583698086
 30
0.0
  0
VERTEX
  5
6F2
  8
0
  6
CONTINUOUS
 62
     3
 10
613.6476985431529556
 20
332.710414030485822
 30
0.0
 42
0.4134306528507031
  0
VERTEX
  5
6F3
  8
0
  6
CONTINUOUS
 62
     3
 10
615.4259483779529774
 20
331.5589820440753215
 30
0.0
  0
VERTEX
  5
6F4
  8
0
  6
CONTINUOUS
 62
     3
 10
641.4251168500315998
 20
337.0852759007801751
 30
0.0
 42
0.4142135623731108
  0
VERTEX
  5
6F5
  8
0
  6
CONTINUOUS
 62
     3
 10
642.5804707149061414
 20
338.8643648381071785
 30
0.0
  0
VERTEX
  5
6F6
  8
0
  6
CONTINUOUS
 62
     3
 10
639.525445896595329
 20
353.237126583536508
 30
0.0
 42
-0.4769755326981607
  0
VERTEX
  5
6F7
  8
0
  6
CONTINUOUS
 62
     3
 10
641.481741098062912
 20
355.6529499651716719
 30
0.0
  0
VERTEX
  5
6F8
  8
0
  6
CONTINUOUS
 62
     3
 10
688.2257809773775534
 20
355.6529499651716719
 30
0.0
 42
-0.2773646726269662
  0
VERTEX
  5
6F9
  8
0
  6
CONTINUOUS
 62
     3
 10
689.9918160923750747
 20
354.5916298747235942
 30
0.0
 42
-0.2773646726269662
  0
SEQEND
  5
6FA
  8
0
  6
CONTINUOUS
 62
     3
  0
POLYLINE
  5
2C0
  8
0
  6
CONTINUOUS
 62
     3
 66
     1
 10
0.0
 20
0.0
 30
0.0
 70
     1
  0
VERTEX
  5
6FB
  8
0
  6
CONTINUOUS
 62
     3
 10
381.7301809773769037
 20
445.4729499651721198
 30
0.0
 42
0.4142135623730951
  0
VERTEX
  5
6FC
  8
0
  6
CONTINUOUS
 62
     3
 10
373.7301809773769037
 20
437.4729499651721198
 30
0.0
  0
VERTEX
  5
6FD
  8
0
  6
CONTINUOUS
 62
     3
 10
373.7301809773769037
 20
432.9729499651721198
 30
0.0
  0
VERTEX
  5
6FE
  8
0
  6
CONTINUOUS
 62
     3
 10
373.7301809773769037
 20
338.6329499651719743
 30
0.0
  0
VERTEX
  5
6FF
  8
0
  6
CONTINUOUS
 62
     3
 10
373.7301809773769037
 20
334.1329499651719743
 30
0.0
 42
0.4142135623730951
  0
VERTEX
  5
700
  8
0
  6
CONTINUOUS
 62
     3
 10
381.7301809773769037
 20
326.1329499651719743
 30
0.0
  0
VERTEX
  5
701
  8
0
  6
CONTINUOUS
 62
     3
 10
386.2301809773769037
 20
326.1329499651719743
 30
0.0
  0
VERTEX
  5
702
  8
0
  6
CONTINUOUS
 62
     3
 10
457.7139688807321818
 20
326.1329499651719743
 30
0.0
  0
VERTEX
  5
703
  8
0
  6
CONTINUOUS
 62
     3
 10
537.8646931455648428
 20
309.0963876000777191
 30
0.0
  0
VERTEX
  5
704
  8
0
  6
CONTINUOUS
 62
     3
 10
553.6001809773757714
 20
309.0963876000777191
 30
0.0
  0
VERTEX
  5
705
  8
0
  6
CONTINUOUS
 62
     3
 10
569.3356688091869273
 20
309.0963876000777191
 30
0.0
  0
VERTEX
  5
706
  8
0
  6
CONTINUOUS
 62
     3
 10
649.4863930740194746
 20
326.1329499651719743
 30
0.0
  0
VERTEX
  5
707
  8
0
  6
CONTINUOUS
 62
     3
 10
721.4689309773768855
 20
326.1329499651719743
 30
0.0
  0
VERTEX
  5
708
  8
0
  6
CONTINUOUS
 62
     3
 10
725.9689309773768855
 20
326.1329499651719743
 30
0.0
 42
0.4142135623730973
  0
VERTEX
  5
709
  8
0
  6
CONTINUOUS
 62
     3
 10
733.9689309773768855
 20
334.132949965172088
 30
0.0
  0
VERTEX
  5
70A
  8
0
  6
CONTINUOUS
 62
     3
 10
733.9689309773768855
 20
338.6329499651719743
 30
0.0
  0
VERTEX
  5
70B
  8
0
  6
CONTINUOUS
 62
     3
 10
733.9689309773768855
 20
437.4729499651721198
 30
0.0
 42
0.4142135623730951
  0
VERTEX
  5
70C
  8
0
  6
CONTINUOUS
 62
     3
 10
725.9689309773768855
 20
445.4729499651721198
 30
0.0
  0
VERTEX
  5
70D
  8
0
  6
CONTINUOUS
 62
     3
 10
558.9501809773788636
 20
445.4729499651721198
 30
0.0
  0
VERTEX
  5
70E
  8
0
  6
CONTINUOUS
 62
     3
 10
548.2501809773743844
 20
445.4729499651721198
 30
0.0
  0
VERTEX
  5
70F
  8
0
  6
CONTINUOUS
 62
     3
 10
386.2301809773769037
 20
445.4729499651721198
 30
0.0
  0
SEQEND
  5
710
  8
0
  6
CONTINUOUS
 62
     3
  0
CIRCLE
  5
2C1
  8
0
  6
CONTINUOUS
 62
     3
 10
726.3705814068264317
 20
333.7312995357223144
 30
0.0
 40
1.6000000000000001
  0
CIRCLE
  5
2C2
  8
0
  6
CONTINUOUS
 62
     3
 10
726.3705814068264317
 20
437.874600394621325
 30
0.0
 40
1.6000000000000001
  0
CIRCLE
  5
2C3
  8
0
  6
CONTINUOUS
 62
     3
 10
381.3285305479274143
 20
437.874600394621325
 30
0.0
 40
1.6000000000000001
  0
CIRCLE
  5
2C4
  8
0
  6
CONTINUOUS
 62
     3
 10
381.3285305479274143
 20
333.7312995357223144
 30
0.0
 40
1.6000000000000001
  0
CIRCLE
  5
2C5
  8
0
  6
CONTINUOUS
 62
     3
 10
496.3285305479274143
 20
438.9729499651720062
 30
0.0
 40
1.6000000000000001
  0
CIRCLE
  5
2C6
  8
0
  6
CONTINUOUS
 62
     3
 10
611.3705814068264317
 20
438.9729499651720062
 30
0.0
 40
1.6000000000000001
  0
CIRCLE
  5
2C7
  8
0
  6
CONTINUOUS
 62
     3
 10
498.9351420923599107
 20
324.016332985926681
 30
0.0
 40
1.6000000000000001
  0
CIRCLE
  5
2C8
  8
0
  6
CONTINUOUS
 62
     3
 10
608.265219862391632
 20
324.016332985926681
 30
0.0
 40
1.6000000000000001
  0
POLYLINE
  5
2C9
  8
0
  6
CONTINUOUS
 62
     3
 66
     1
 10
0.0
 20
0.0
 30
0.0
 70
     1
  0
VERTEX
  5
711
  8
0
  6
CONTINUOUS
 62
     3
 10
686.0080277434396976
 20
340.2574721418110926
 30
0.0
  0
VERTEX
  5
712
  8
0
  6
CONTINUOUS
 62
     3
 10
646.0080277529398245
 20
340.2574721418110926
 30
0.0
  0
VERTEX
  5
713
  8
0
  6
CONTINUOUS
 62
     3
 10
646.0080277529398245
 20
354.2574721388114085
 30
0.0
  0
VERTEX
  5
714
  8
0
  6
CONTINUOUS
 62
     3
 10
686.0080277434396976
 20
354.2574721388119201
 30
0.0
  0
SEQEND
  5
715
  8
0
  6
CONTINUOUS
 62
     3
  0
ARC
  5
2CA
  8
0
  6
CONTINUOUS
 62
     3
 10
414.3164078769142975
 20
415.6892979847406764
 30
0.0
 40
1.7
 50
48.1697966898039382
 51
311.8302033101961115
  0
ARC
  5
2CB
  8
0
  6
CONTINUOUS
 62
     3
 10
403.2039186760238749
 20
356.1579425110491002
 30
0.0
 40
1.7
 50
95.1885718463046402
 51
264.8114281536953172
  0
ARC
  5
2CC
  8
0
  6
CONTINUOUS
 62
     3
 10
690.5415077774712245
 20
352.9829536949521867
 30
0.0
 40
1.7
 50
108.865522103187601
 51
259.2967911038085163
  0
ARC
  5
2CD
  8
0
  6
CONTINUOUS
 62
     3
 10
710.3850580124734506
 20
413.3078987512222966
 30
0.0
 40
1.7
 50
17.2828422840550786
 51
72.7146251001391306
  0
CIRCLE
  5
2CE
  8
0
  6
CONTINUOUS
 62
     3
 10
552.6964067753299332
 20
405.432903301662293
 30
0.0
 40
1.7
  0
CIRCLE
  5
2CF
  8
0
  6
CONTINUOUS
 62
     3
 10
553.2226809773768537
 20
329.9642122712668879
 30
0.0
 40
1.7
  0
POLYLINE
  5
2D0
  8
0
  6
CONTINUOUS
 62
     1
 66
     1
 10
0.0
 20
0.0
 30
0.0
 70
     1
  0
VERTEX
  5
716
  8
0
  6
CONTINUOUS
 62
     1
 10
22.0099570031117615
 20
302.9908095284388878
 30
0.0
 42
0.4142135623730951
  0
VERTEX
  5
717
  8
0
  6
CONTINUOUS
 62
     1
 10
13.0099570031117597
 20
293.9908095284390015
 30
0.0
  0
VERTEX
  5
718
  8
0
  6
CONTINUOUS
 62
     1
 10
13.0099570031117597
 20
289.4908095284388878
 30
0.0
  0
VERTEX
  5
719
  8
0
  6
CONTINUOUS
 62
     1
 10
13.0099570031117597
 20
195.1508095284391118
 30
0.0
  0
VERTEX
  5
71A
  8
0
  6
CONTINUOUS
 62
     1
 10
13.0099570031117597
 20
190.6508095284391118
 30
0.0
 42
0.4142135623730951
  0
VERTEX
  5
71B
  8
0
  6
CONTINUOUS
 62
     1
 10
22.0099570031117615
 20
181.6508095284391118
 30
0.0
  0
VERTEX
  5
71C
  8
0
  6
CONTINUOUS
 62
     1
 10
26.5099570031117686
 20
181.6508095284391118
 30
0.0
  0
VERTEX
  5
71D
  8
0
  6
CONTINUOUS
 62
     1
 10
97.8886406712010455
 20
181.6508095284391118
 30
0.0
  0
VERTEX
  5
71E
  8
0
  6
CONTINUOUS
 62
     1
 10
178.0393649360335928
 20
164.6142471633447997
 30
0.0
  0
VERTEX
  5
71F
  8
0
  6
CONTINUOUS
 62
     1
 10
193.8799570031106043
 20
164.6142471633447997
 30
0.0
  0
VERTEX
  5
720
  8
0
  6
CONTINUOUS
 62
     1
 10
209.7205490701873885
 20
164.6142471633447997
 30
0.0
  0
VERTEX
  5
721
  8
0
  6
CONTINUOUS
 62
     1
 10
289.871273335020021
 20
181.6508095284391118
 30
0.0
  0
VERTEX
  5
722
  8
0
  6
CONTINUOUS
 62
     1
 10
361.7487070031115195
 20
181.6508095284391118
 30
0.0
  0
VERTEX
  5
723
  8
0
  6
CONTINUOUS
 62
     1
 10
366.2487070031115195
 20
181.6508095284391118
 30
0.0
 42
0.4142135623730969
  0
VERTEX
  5
724
  8
0
  6
CONTINUOUS
 62
     1
 10
375.2487070031115195
 20
190.6508095284391118
 30
0.0
  0
VERTEX
  5
725
  8
0
  6
CONTINUOUS
 62
     1
 10
375.2487070031115195
 20
195.1508095284391118
 30
0.0
  0
VERTEX
  5
726
  8
0
  6
CONTINUOUS
 62
     1
 10
375.2487070031115763
 20
293.9908095284390015
 30
0.0
 42
0.4142135623730951
  0
VERTEX
  5
727
  8
0
  6
CONTINUOUS
 62
     1
 10
366.2487070031115763
 20
302.9908095284388878
 30
0.0
  0
VERTEX
  5
728
  8
0
  6
CONTINUOUS
 62
     1
 10
199.2299570031136113
 20
302.9908095284388878
 30
0.0
  0
VERTEX
  5
729
  8
0
  6
CONTINUOUS
 62
     1
 10
188.529957003108791
 20
302.9908095284388878
 30
0.0
  0
VERTEX
  5
72A
  8
0
  6
CONTINUOUS
 62
     1
 10
26.5099570031117686
 20
302.9908095284388878
 30
0.0
  0
SEQEND
  5
72B
  8
0
  6
CONTINUOUS
 62
     1
  0
CIRCLE
  5
2D1
  8
0
  6
CONTINUOUS
 62
     1
 10
366.6503574325610089
 20
190.2491590989895087
 30
0.0
 40
1.05
  0
CIRCLE
  5
2D2
  8
0
  6
CONTINUOUS
 62
     1
 10
366.6503574325610089
 20
294.3924599578884909
 30
0.0
 40
1.05
  0
CIRCLE
  5
2D3
  8
0
  6
CONTINUOUS
 62
     1
 10
21.6083065736621904
 20
294.3924599578886045
 30
0.0
 40
1.05
  0
CIRCLE
  5
2D4
  8
0
  6
CONTINUOUS
 62
     1
 10
21.6083065736621904
 20
190.2491590989895087
 30
0.0
 40
1.05
  0
CIRCLE
  5
2D5
  8
0
  6
CONTINUOUS
 62
     1
 10
136.6083065736623041
 20
295.4908095284388878
 30
0.0
 40
1.05
  0
CIRCLE
  5
2D6
  8
0
  6
CONTINUOUS
 62
     1
 10
251.6503574325612931
 20
295.4908095284388878
 30
0.0
 40
1.05
  0
CIRCLE
  5
2D7
  8
0
  6
CONTINUOUS
 62
     1
 10
139.2149181180944879
 20
180.534192549193989
 30
0.0
 40
1.05
  0
CIRCLE
  5
2D8
  8
0
  6
CONTINUOUS
 62
     1
 10
248.5449958881264934
 20
180.534192549193989
 30
0.0
 40
1.05
  0
POLYLINE
  5
2D9
  8
0
  6
CONTINUOUS
 62
     1
 66
     1
 10
0.0
 20
0.0
 30
0.0
 70
     1
  0
VERTEX
  5
72C
  8
0
  6
CONTINUOUS
 62
     1
 10
26.5099570031117686
 20
193.6508095284391118
 30
0.0
  0
VERTEX
  5
72D
  8
0
  6
CONTINUOUS
 62
     1
 10
31.9799570031090887
 20
193.6508095284391118
 30
0.0
  0
VERTEX
  5
72E
  8
0
  6
CONTINUOUS
 62
     1
 10
35.1083065736621904
 20
193.6508095284391118
 30
0.0
 42
-0.4142135623730951
  0
VERTEX
  5
72F
  8
0
  6
CONTINUOUS
 62
     1
 10
36.6083065736623112
 20
192.1508095284391118
 30
0.0
  0
VERTEX
  5
730
  8
0
  6
CONTINUOUS
 62
     1
 10
36.6083065736623112
 20
189.1508095284391118
 30
0.0
 42
0.4142135623730951
  0
VERTEX
  5
731
  8
0
  6
CONTINUOUS
 62
     1
 10
38.1083065736621904
 20
187.6508095284391118
 30
0.0
  0
VERTEX
  5
732
  8
0
  6
CONTINUOUS
 62
     1
 10
98.5192660827951556
 20
187.6508095284391118
 30
0.0
  0
VERTEX
  5
733
  8
0
  6
CONTINUOUS
 62
     1
 10
122.7636151697602003
 20
182.4975140465861898
 30
0.0
 42
0.4142135623730865
  0
VERTEX
  5
734
  8
0
  6
CONTINUOUS
 62
     1
 10
124.5427041070874026
 20
183.6528679114601914
 30
0.0
  0
VERTEX
  5
735
  8
0
  6
CONTINUOUS
 62
     1
 10
125.1664391795409017
 20
186.5873107136617932
 30
0.0
 42
-0.4142135623730904
  0
VERTEX
  5
736
  8
0
  6
CONTINUOUS
 62
     1
 10
126.9455281168682035
 20
187.7426645785359085
 30
0.0
  0
VERTEX
  5
737
  8
0
  6
CONTINUOUS
 62
     1
 10
153.3555133366810139
 20
182.1290489264565053
 30
0.0
 42
-0.4142135623731026
  0
VERTEX
  5
738
  8
0
  6
CONTINUOUS
 62
     1
 10
154.5108672015551008
 20
180.3499599891291041
 30
0.0
  0
VERTEX
  5
739
  8
0
  6
CONTINUOUS
 62
     1
 10
153.8871321291017011
 20
177.4155171869275023
 30
0.0
 42
0.4142135623730998
  0
VERTEX
  5
73A
  8
0
  6
CONTINUOUS
 62
     1
 10
155.042485993975788
 20
175.6364282496003
 30
0.0
  0
VERTEX
  5
73B
  8
0
  6
CONTINUOUS
 62
     1
 10
178.9784127142843886
 20
170.5486899655460036
 30
0.0
  0
VERTEX
  5
73C
  8
0
  6
CONTINUOUS
 62
     1
 10
208.7815012919367064
 20
170.5486899655460036
 30
0.0
  0
VERTEX
  5
73D
  8
0
  6
CONTINUOUS
 62
     1
 10
232.7174280122453922
 20
175.6364282496004989
 30
0.0
 42
0.4142135623731023
  0
VERTEX
  5
73E
  8
0
  6
CONTINUOUS
 62
     1
 10
233.8727818771195075
 20
177.4155171869277865
 30
0.0
  0
VERTEX
  5
73F
  8
0
  6
CONTINUOUS
 62
     1
 10
233.2490468046659942
 20
180.3499599891291041
 30
0.0
 42
-0.4142135623731002
  0
VERTEX
  5
740
  8
0
  6
CONTINUOUS
 62
     1
 10
234.4044006695401094
 20
182.1290489264565053
 30
0.0
  0
VERTEX
  5
741
  8
0
  6
CONTINUOUS
 62
     1
 10
260.8143858893529909
 20
187.7426645785359085
 30
0.0
 42
-0.4142135623731005
  0
VERTEX
  5
742
  8
0
  6
CONTINUOUS
 62
     1
 10
262.5934748266803922
 20
186.5873107136615943
 30
0.0
  0
VERTEX
  5
743
  8
0
  6
CONTINUOUS
 62
     1
 10
263.2172098991334792
 20
183.6528679114603904
 30
0.0
 42
0.4142135623730998
  0
VERTEX
  5
744
  8
0
  6
CONTINUOUS
 62
     1
 10
264.9962988364608805
 20
182.4975140465861898
 30
0.0
  0
VERTEX
  5
745
  8
0
  6
CONTINUOUS
 62
     1
 10
289.2406479234264225
 20
187.6508095284391118
 30
0.0
  0
VERTEX
  5
746
  8
0
  6
CONTINUOUS
 62
     1
 10
350.1503574325610089
 20
187.6508095284391118
 30
0.0
 42
0.4142135623730951
  0
VERTEX
  5
747
  8
0
  6
CONTINUOUS
 62
     1
 10
351.6503574325611794
 20
189.1508095284391118
 30
0.0
  0
VERTEX
  5
748
  8
0
  6
CONTINUOUS
 62
     1
 10
351.6503574325611794
 20
192.1508095284391118
 30
0.0
 42
-0.4142135623730951
  0
VERTEX
  5
749
  8
0
  6
CONTINUOUS
 62
     1
 10
353.1503574325611794
 20
193.6508095284391118
 30
0.0
  0
VERTEX
  5
74A
  8
0
  6
CONTINUOUS
 62
     1
 10
361.7487070031115195
 20
193.6508095284391118
 30
0.0
 42
0.4142135623730951
  0
VERTEX
  5
74B
  8
0
  6
CONTINUOUS
 62
     1
 10
363.2487070031115195
 20
195.1508095284391118
 30
0.0
  0
VERTEX
  5
74C
  8
0
  6
CONTINUOUS
 62
     1
 10
363.2487070031115195
 20
203.7491590989895087
 30
0.0
 42
-0.4142135623730968
  0
VERTEX
  5
74D
  8
0
  6
CONTINUOUS
 62
     1
 10
364.7487070031115763
 20
205.2491590989895087
 30
0.0
  0
VERTEX
  5
74E
  8
0
  6
CONTINUOUS
 62
     1
 10
367.7487070031115195
 20
205.2491590989895087
 30
0.0
 42
0.4142135623730966
  0
VERTEX
  5
74F
  8
0
  6
CONTINUOUS
 62
     1
 10
369.2487070031115763
 20
206.7491590989895087
 30
0.0
  0
VERTEX
  5
750
  8
0
  6
CONTINUOUS
 62
     1
 10
369.2487070031115763
 20
277.8924599578884909
 30
0.0
 42
0.4142135623730951
  0
VERTEX
  5
751
  8
0
  6
CONTINUOUS
 62
     1
 10
367.7487070031115195
 20
279.3924599578884909
 30
0.0
  0
VERTEX
  5
752
  8
0
  6
CONTINUOUS
 62
     1
 10
364.7487070031115763
 20
279.3924599578884909
 30
0.0
 42
-0.4142135623730951
  0
VERTEX
  5
753
  8
0
  6
CONTINUOUS
 62
     1
 10
363.2487070031115763
 20
280.8924599578884909
 30
0.0
  0
VERTEX
  5
754
  8
0
  6
CONTINUOUS
 62
     1
 10
363.2487070031115763
 20
289.4908095284388878
 30
0.0
 42
0.4142135623730728
  0
VERTEX
  5
755
  8
0
  6
CONTINUOUS
 62
     1
 10
361.7487070031115195
 20
290.9908095284388878
 30
0.0
  0
VERTEX
  5
756
  8
0
  6
CONTINUOUS
 62
     1
 10
353.1503574325611794
 20
290.9908095284388878
 30
0.0
 42
-0.4142135623730951
  0
VERTEX
  5
757
  8
0
  6
CONTINUOUS
 62
     1
 10
351.6503574325611794
 20
292.4908095284390015
 30
0.0
  0
VERTEX
  5
758
  8
0
  6
CONTINUOUS
 62
     1
 10
351.6503574325611794
 20
295.4908095284388878
 30
0.0
 42
0.4142135623730951
  0
VERTEX
  5
759
  8
0
  6
CONTINUOUS
 62
     1
 10
350.1503574325610089
 20
296.9908095284390015
 30
0.0
  0
VERTEX
  5
75A
  8
0
  6
CONTINUOUS
 62
     1
 10
268.1503574325612931
 20
296.9908095284390015
 30
0.0
 42
0.4142135623730951
  0
VERTEX
  5
75B
  8
0
  6
CONTINUOUS
 62
     1
 10
266.6503574325612931
 20
295.4908095284388878
 30
0.0
  0
VERTEX
  5
75C
  8
0
  6
CONTINUOUS
 62
     1
 10
266.6503574325612931
 20
292.4908095284390015
 30
0.0
 42
-0.4142135623730951
  0
VERTEX
  5
75D
  8
0
  6
CONTINUOUS
 62
     1
 10
265.1503574325612931
 20
290.9908095284388878
 30
0.0
  0
VERTEX
  5
75E
  8
0
  6
CONTINUOUS
 62
     1
 10
238.1503574325612931
 20
290.9908095284388878
 30
0.0
 42
-0.4142135623730951
  0
VERTEX
  5
75F
  8
0
  6
CONTINUOUS
 62
     1
 10
236.6503574325612931
 20
292.4908095284390015
 30
0.0
  0
VERTEX
  5
760
  8
0
  6
CONTINUOUS
 62
     1
 10
236.6503574325612931
 20
295.4908095284388878
 30
0.0
 42
0.4142135623730951
  0
VERTEX
  5
761
  8
0
  6
CONTINUOUS
 62
     1
 10
235.1503574325612931
 20
296.9908095284390015
 30
0.0
  0
VERTEX
  5
762
  8
0
  6
CONTINUOUS
 62
     1
 10
153.1083065736623041
 20
296.9908095284390015
 30
0.0
 42
0.4142135623730951
  0
VERTEX
  5
763
  8
0
  6
CONTINUOUS
 62
     1
 10
151.6083065736623041
 20
295.4908095284388878
 30
0.0
  0
VERTEX
  5
764
  8
0
  6
CONTINUOUS
 62
     1
 10
151.6083065736623041
 20
292.4908095284390015
 30
0.0
 42
-0.4142135623730951
  0
VERTEX
  5
765
  8
0
  6
CONTINUOUS
 62
     1
 10
150.1083065736623041
 20
290.9908095284388878
 30
0.0
  0
VERTEX
  5
766
  8
0
  6
CONTINUOUS
 62
     1
 10
123.1083065736623041
 20
290.9908095284388878
 30
0.0
 42
-0.4142135623730951
  0
VERTEX
  5
767
  8
0
  6
CONTINUOUS
 62
     1
 10
121.6083065736623041
 20
292.4908095284390015
 30
0.0
  0
VERTEX
  5
768
  8
0
  6
CONTINUOUS
 62
     1
 10
121.6083065736623041
 20
295.4908095284388878
 30
0.0
 42
0.4142135623730951
  0
VERTEX
  5
769
  8
0
  6
CONTINUOUS
 62
     1
 10
120.1083065736623041
 20
296.9908095284390015
 30
0.0
  0
VERTEX
  5
76A
  8
0
  6
CONTINUOUS
 62
     1
 10
38.1083065736621904
 20
296.9908095284390015
 30
0.0
 42
0.4142135623730951
  0
VERTEX
  5
76B
  8
0
  6
CONTINUOUS
 62
     1
 10
36.6083065736623112
 20
295.4908095284388878
 30
0.0
  0
VERTEX
  5
76C
  8
0
  6
CONTINUOUS
 62
     1
 10
36.6083065736623112
 20
292.4908095284390015
 30
0.0
 42
-0.4142135623730951
  0
VERTEX
  5
76D
  8
0
  6
CONTINUOUS
 62
     1
 10
35.1083065736621904
 20
290.9908095284388878
 30
0.0
  0
VERTEX
  5
76E
  8
0
  6
CONTINUOUS
 62
     1
 10
26.5099570031117686
 20
290.9908095284388878
 30
0.0
 42
0.4142135623730951
  0
VERTEX
  5
76F
  8
0
  6
CONTINUOUS
 62
     1
 10
25.0099570031117686
 20
289.4908095284388878
 30
0.0
  0
VERTEX
  5
770
  8
0
  6
CONTINUOUS
 62
     1
 10
25.0099570031117686
 20
280.8924599578886045
 30
0.0
 42
-0.4142135623730951
  0
VERTEX
  5
771
  8
0
  6
CONTINUOUS
 62
     1
 10
23.5099570031117686
 20
279.3924599578886045
 30
0.0
  0
VERTEX
  5
772
  8
0
  6
CONTINUOUS
 62
     1
 10
20.5099570031117615
 20
279.3924599578886045
 30
0.0
 42
0.4142135623730951
  0
VERTEX
  5
773
  8
0
  6
CONTINUOUS
 62
     1
 10
19.0099570031117615
 20
277.8924599578886045
 30
0.0
  0
VERTEX
  5
774
  8
0
  6
CONTINUOUS
 62
     1
 10
19.0099570031117615
 20
209.6208095284393949
 30
0.0
 42
0.4142135623730951
  0
VERTEX
  5
775
  8
0
  6
CONTINUOUS
 62
     1
 10
21.0099570031117686
 20
207.6208095284393949
 30
0.0
  0
VERTEX
  5
776
  8
0
  6
CONTINUOUS
 62
     1
 10
23.5099570031117686
 20
207.6208095284393949
 30
0.0
 42
-0.4142135623730951
  0
VERTEX
  5
777
  8
0
  6
CONTINUOUS
 62
     1
 10
25.0099570031117686
 20
206.1208095284393949
 30
0.0
  0
VERTEX
  5
778
  8
0
  6
CONTINUOUS
 62
     1
 10
25.0099570031117686
 20
205.2491590989895087
 30
0.0
  0
VERTEX
  5
779
  8
0
  6
CONTINUOUS
 62
     1
 10
25.0099570031117686
 20
195.1508095284391118
 30
0.0
 42
0.4142135623730951
  0
SEQEND
  5
77A
  8
0
  6
CONTINUOUS
 62
     1
  0
POLYLINE
  5
2DA
  8
0
  6
CONTINUOUS
 62
     2
 66
     1
 10
0.0
 20
0.0
 30
0.0
  0
VERTEX
  5
77B
  8
0
  6
CONTINUOUS
 62
     2
 10
198.6401431113393983
 20
146.0795320503972903
 30
0.0
  0
VERTEX
  5
77C
  8
0
  6
CONTINUOUS
 62
     2
 10
361.158893111337477
 20
146.0795320503972903
 30
0.0
 42
-0.4142135623730728
  0
VERTEX
  5
77D
  8
0
  6
CONTINUOUS
 62
     2
 10
362.658893111337477
 20
144.5795320503972903
 30
0.0
  0
VERTEX
  5
77E
  8
0
  6
CONTINUOUS
 62
     2
 10
362.658893111337477
 20
50.2395320503972584
 30
0.0
 42
-0.4142135623730951
  0
VERTEX
  5
77F
  8
0
  6
CONTINUOUS
 62
     2
 10
361.158893111337477
 20
48.7395320503972513
 30
0.0
  0
VERTEX
  5
780
  8
0
  6
CONTINUOUS
 62
     2
 10
288.0202086200571898
 20
48.7395320503972513
 30
0.0
  0
VERTEX
  5
781
  8
0
  6
CONTINUOUS
 62
     2
 10
193.290143111336306
 20
28.6040350390882203
 30
0.0
  0
VERTEX
  5
782
  8
0
  6
CONTINUOUS
 62
     2
 10
98.5600776026153369
 20
48.7395320503972513
 30
0.0
  0
VERTEX
  5
783
  8
0
  6
CONTINUOUS
 62
     2
 10
25.9201431113374099
 20
48.7395320503972513
 30
0.0
 42
-0.4142135623730951
  0
VERTEX
  5
784
  8
0
  6
CONTINUOUS
 62
     2
 10
24.4201431113373602
 20
50.2395320503972584
 30
0.0
  0
VERTEX
  5
785
  8
0
  6
CONTINUOUS
 62
     2
 10
24.4201431113373602
 20
144.5795320503972903
 30
0.0
 42
-0.4142135623730951
  0
VERTEX
  5
786
  8
0
  6
CONTINUOUS
 62
     2
 10
25.9201431113374099
 20
146.0795320503972903
 30
0.0
  0
VERTEX
  5
787
  8
0
  6
CONTINUOUS
 62
     2
 10
187.9401431113346064
 20
146.0795320503972903
 30
0.0
  0
SEQEND
  5
788
  8
0
  6
CONTINUOUS
 62
     2
  0
POLYLINE
  5
2DB
  8
0
  6
CONTINUOUS
 62
     2
 66
     1
 10
0.0
 20
0.0
 30
0.0
  0
VERTEX
  5
789
  8
0
  6
CONTINUOUS
 62
     2
 10
184.9633087013775139
 20
157.0795320503972903
 30
0.0
  0
VERTEX
  5
78A
  8
0
  6
CONTINUOUS
 62
     2
 10
25.9201431113374099
 20
157.0795320503972903
 30
0.0
  0
VERTEX
  5
78B
  8
0
  6
CONTINUOUS
 62
     2
 10
21.4201431113373495
 20
157.0795320503972903
 30
0.0
 42
0.4142135623730951
  0
VERTEX
  5
78C
  8
0
  6
CONTINUOUS
 62
     2
 10
13.4201431113375804
 20
149.0795320503972903
 30
0.0
  0
VERTEX
  5
78D
  8
0
  6
CONTINUOUS
 62
     2
 10
13.4201431113375804
 20
144.5795320503972903
 30
0.0
  0
VERTEX
  5
78E
  8
0
  6
CONTINUOUS
 62
     2
 10
13.4201431113375804
 20
50.2395320503972584
 30
0.0
  0
VERTEX
  5
78F
  8
0
  6
CONTINUOUS
 62
     2
 10
13.4201431113375804
 20
45.7395320503972584
 30
0.0
 42
0.4142135623730951
  0
VERTEX
  5
790
  8
0
  6
CONTINUOUS
 62
     2
 10
21.4201431113373495
 20
37.7395320503972584
 30
0.0
  0
VERTEX
  5
791
  8
0
  6
CONTINUOUS
 62
     2
 10
25.9201431113374099
 20
37.7395320503972584
 30
0.0
  0
VERTEX
  5
792
  8
0
  6
CONTINUOUS
 62
     2
 10
97.403931014692688
 20
37.7395320503972584
 30
0.0
  0
VERTEX
  5
793
  8
0
  6
CONTINUOUS
 62
     2
 10
177.5546552795254058
 20
20.7029696853029996
 30
0.0
  0
VERTEX
  5
794
  8
0
  6
CONTINUOUS
 62
     2
 10
193.290143111336306
 20
20.7029696853029996
 30
0.0
  0
VERTEX
  5
795
  8
0
  6
CONTINUOUS
 62
     2
 10
209.0256309431474904
 20
20.7029696853029996
 30
0.0
  0
VERTEX
  5
796
  8
0
  6
CONTINUOUS
 62
     2
 10
289.1763552079801798
 20
37.7395320503972584
 30
0.0
  0
VERTEX
  5
797
  8
0
  6
CONTINUOUS
 62
     2
 10
361.158893111337477
 20
37.7395320503972584
 30
0.0
  0
VERTEX
  5
798
  8
0
  6
CONTINUOUS
 62
     2
 10
365.658893111337477
 20
37.7395320503972584
 30
0.0
 42
0.4142135623730973
  0
VERTEX
  5
799
  8
0
  6
CONTINUOUS
 62
     2
 10
373.658893111337477
 20
45.7395320503974219
 30
0.0
  0
VERTEX
  5
79A
  8
0
  6
CONTINUOUS
 62
     2
 10
373.658893111337477
 20
50.2395320503972584
 30
0.0
  0
VERTEX
  5
79B
  8
0
  6
CONTINUOUS
 62
     2
 10
373.658893111337477
 20
149.0795320503972903
 30
0.0
 42
0.4142135623730951
  0
VERTEX
  5
79C
  8
0
  6
CONTINUOUS
 62
     2
 10
365.658893111337477
 20
157.0795320503972903
 30
0.0
  0
VERTEX
  5
79D
  8
0
  6
CONTINUOUS
 62
     2
 10
202.4682457780384937
 20
157.0795320503972903
 30
0.0
  0
SEQEND
  5
79E
  8
0
  6
CONTINUOUS
 62
     2
  0
LINE
  5
2DC
  8
0
  6
CONTINUOUS
 62
     2
 10
198.6401431113393983
 20
146.0795320503972903
 30
0.0
 11
198.6401431113393983
 21
153.251429383697797
 31
0.0
  0
LINE
  5
2DD
  8
0
  6
CONTINUOUS
 62
     2
 10
187.9401431113346064
 20
146.0795320503972903
 30
0.0
 11
187.9401431113346064
 21
153.2514293836979107
 31
0.0
  0
CIRCLE
  5
2DE
  8
0
  6
CONTINUOUS
 62
     2
 10
366.06054354078708
 20
45.3378816209477691
 30
0.0
 40
1.05
  0
CIRCLE
  5
2DF
  8
0
  6
CONTINUOUS
 62
     2
 10
366.06054354078708
 20
149.4811824798466944
 30
0.0
 40
1.05
  0
CIRCLE
  5
2E0
  8
0
  6
CONTINUOUS
 62
     2
 10
21.0184926818878601
 20
149.4811824798468081
 30
0.0
 40
1.05
  0
CIRCLE
  5
2E1
  8
0
  6
CONTINUOUS
 62
     2
 10
21.0184926818878601
 20
45.3378816209477691
 30
0.0
 40
1.05
  0
CIRCLE
  5
2E2
  8
0
  6
CONTINUOUS
 62
     2
 10
136.0184926818878068
 20
150.5795320503972903
 30
0.0
 40
1.05
  0
CIRCLE
  5
2E3
  8
0
  6
CONTINUOUS
 62
     2
 10
251.0605435407873927
 20
150.5795320503972903
 30
0.0
 40
1.05
  0
CIRCLE
  5
2E4
  8
0
  6
CONTINUOUS
 62
     2
 10
138.6251042263207012
 20
35.6229150711522493
 30
0.0
 40
1.05
  0
CIRCLE
  5
2E5
  8
0
  6
CONTINUOUS
 62
     2
 10
247.955181996352195
 20
35.6229150711522493
 30
0.0
 40
1.05
  0
LINE
  5
2E6
  8
0
  6
CONTINUOUS
 62
     2
 10
198.6401431113393983
 20
153.2514293836979107
 30
0.0
 11
202.4682457780384937
 21
157.0795320503972903
 31
0.0
  0
LINE
  5
2E7
  8
0
  6
CONTINUOUS
 62
     2
 10
187.9401431113346064
 20
153.2514293836979107
 30
0.0
 11
184.9633087013775139
 21
157.0795320503972903
 31
0.0
  0
POLYLINE
  5
2E8
  8
0
  6
CONTINUOUS
 62
     2
 66
     1
 10
0.0
 20
0.0
 30
0.0
  0
VERTEX
  5
79F
  8
0
  6
CONTINUOUS
 62
     2
 10
558.8788931113391527
 20
148.329532050397205
 30
0.0
  0
VERTEX
  5
7A0
  8
0
  6
CONTINUOUS
 62
     2
 10
721.3976431113371746
 20
148.329532050397205
 30
0.0
 42
-0.4142135623730728
  0
VERTEX
  5
7A1
  8
0
  6
CONTINUOUS
 62
     2
 10
722.8976431113376293
 20
146.829532050397205
 30
0.0
  0
VERTEX
  5
7A2
  8
0
  6
CONTINUOUS
 62
     2
 10
722.8976431113370609
 20
52.4895320503973224
 30
0.0
 42
-0.4142135623730951
  0
VERTEX
  5
7A3
  8
0
  6
CONTINUOUS
 62
     2
 10
721.3976431113371746
 20
50.9895320503973082
 30
0.0
  0
VERTEX
  5
7A4
  8
0
  6
CONTINUOUS
 62
     2
 10
648.2589586200572285
 20
50.9895320503973082
 30
0.0
  0
VERTEX
  5
7A5
  8
0
  6
CONTINUOUS
 62
     2
 10
553.5288931113360604
 20
30.8540350390882203
 30
0.0
  0
VERTEX
  5
7A6
  8
0
  6
CONTINUOUS
 62
     2
 10
458.7988276026151198
 20
50.9895320503973082
 30
0.0
  0
VERTEX
  5
7A7
  8
0
  6
CONTINUOUS
 62
     2
 10
386.158893111337477
 20
50.9895320503973082
 30
0.0
 42
-0.4142135623730951
  0
VERTEX
  5
7A8
  8
0
  6
CONTINUOUS
 62
     2
 10
384.658893111337477
 20
52.4895320503973224
 30
0.0
  0
VERTEX
  5
7A9
  8
0
  6
CONTINUOUS
 62
     2
 10
384.658893111337477
 20
146.829532050397205
 30
0.0
 42
-0.4142135623730951
  0
VERTEX
  5
7AA
  8
0
  6
CONTINUOUS
 62
     2
 10
386.158893111337477
 20
148.329532050397205
 30
0.0
  0
VERTEX
  5
7AB
  8
0
  6
CONTINUOUS
 62
     2
 10
548.1788931113344461
 20
148.329532050397205
 30
0.0
  0
SEQEND
  5
7AC
  8
0
  6
CONTINUOUS
 62
     2
  0
LINE
  5
2E9
  8
0
  6
CONTINUOUS
 62
     2
 10
558.8788931113391527
 20
148.329532050397205
 30
0.0
 11
558.8788931113391527
 21
155.5014293836977117
 31
0.0
  0
LINE
  5
2EA
  8
0
  6
CONTINUOUS
 62
     2
 10
548.1788931113344461
 20
148.329532050397205
 30
0.0
 11
548.1788931113344461
 21
155.5014293836979107
 31
0.0
  0
CIRCLE
  5
2EB
  8
0
  6
CONTINUOUS
 62
     2
 10
726.2992935407867208
 20
47.587881620947762
 30
0.0
 40
1.05
  0
CIRCLE
  5
2EC
  8
0
  6
CONTINUOUS
 62
     2
 10
726.2992935407867208
 20
151.7311824798464954
 30
0.0
 40
1.05
  0
CIRCLE
  5
2ED
  8
0
  6
CONTINUOUS
 62
     2
 10
381.2572426818878739
 20
151.7311824798468081
 30
0.0
 40
1.05
  0
CIRCLE
  5
2EE
  8
0
  6
CONTINUOUS
 62
     2
 10
381.2572426818878739
 20
47.587881620947762
 30
0.0
 40
1.05
  0
CIRCLE
  5
2EF
  8
0
  6
CONTINUOUS
 62
     2
 10
496.2572426818878739
 20
152.829532050397205
 30
0.0
 40
1.05
  0
CIRCLE
  5
2F0
  8
0
  6
CONTINUOUS
 62
     2
 10
611.2992935407871755
 20
152.829532050397205
 30
0.0
 40
1.05
  0
CIRCLE
  5
2F1
  8
0
  6
CONTINUOUS
 62
     2
 10
498.8638542263204272
 20
37.8729150711523133
 30
0.0
 40
1.05
  0
CIRCLE
  5
2F2
  8
0
  6
CONTINUOUS
 62
     2
 10
608.1939319963518074
 20
37.8729150711523133
 30
0.0
 40
1.05
  0
LINE
  5
2F3
  8
0
  6
CONTINUOUS
 62
     2
 10
558.8788931113391527
 20
155.5014293836979107
 30
0.0
 11
561.7069957780386176
 21
158.329532050397205
 31
0.0
  0
LINE
  5
2F4
  8
0
  6
CONTINUOUS
 62
     2
 10
548.1788931113344461
 20
155.5014293836979107
 30
0.0
 11
545.9796852880031111
 21
158.3295320503970913
 31
0.0
  0
POLYLINE
  5
2F5
  8
0
  6
CONTINUOUS
 62
     2
 66
     1
 10
0.0
 20
0.0
 30
0.0
  0
VERTEX
  5
7AD
  8
0
  6
CONTINUOUS
 62
     2
 10
545.9796852880034521
 20
158.329532050397205
 30
0.0
  0
VERTEX
  5
7AE
  8
0
  6
CONTINUOUS
 62
     2
 10
386.158893111337477
 20
158.329532050397205
 30
0.0
  0
VERTEX
  5
7AF
  8
0
  6
CONTINUOUS
 62
     2
 10
381.658893111337477
 20
158.329532050397205
 30
0.0
 42
0.4142135623730951
  0
VERTEX
  5
7B0
  8
0
  6
CONTINUOUS
 62
     2
 10
374.658893111337477
 20
151.329532050397205
 30
0.0
  0
VERTEX
  5
7B1
  8
0
  6
CONTINUOUS
 62
     2
 10
374.658893111337477
 20
146.829532050397205
 30
0.0
  0
VERTEX
  5
7B2
  8
0
  6
CONTINUOUS
 62
     2
 10
374.658893111337477
 20
52.4895320503973224
 30
0.0
  0
VERTEX
  5
7B3
  8
0
  6
CONTINUOUS
 62
     2
 10
374.658893111337477
 20
47.9895320503973082
 30
0.0
 42
0.4142135623730951
  0
VERTEX
  5
7B4
  8
0
  6
CONTINUOUS
 62
     2
 10
381.658893111337477
 20
40.9895320503973082
 30
0.0
  0
VERTEX
  5
7B5
  8
0
  6
CONTINUOUS
 62
     2
 10
386.158893111337477
 20
40.9895320503973082
 30
0.0
  0
VERTEX
  5
7B6
  8
0
  6
CONTINUOUS
 62
     2
 10
457.7477852499583264
 20
40.9895320503973082
 30
0.0
  0
VERTEX
  5
7B7
  8
0
  6
CONTINUOUS
 62
     2
 10
537.8985095147909306
 20
23.9529696853029499
 30
0.0
  0
VERTEX
  5
7B8
  8
0
  6
CONTINUOUS
 62
     2
 10
553.5288931113360604
 20
23.9529696853029996
 30
0.0
  0
VERTEX
  5
7B9
  8
0
  6
CONTINUOUS
 62
     2
 10
569.1592767078814177
 20
23.9529696853029996
 30
0.0
  0
VERTEX
  5
7BA
  8
0
  6
CONTINUOUS
 62
     2
 10
649.310000972714306
 20
40.9895320503973721
 30
0.0
  0
VERTEX
  5
7BB
  8
0
  6
CONTINUOUS
 62
     2
 10
721.3976431113371746
 20
40.9895320503973082
 30
0.0
  0
VERTEX
  5
7BC
  8
0
  6
CONTINUOUS
 62
     2
 10
725.8976431113371746
 20
40.9895320503973082
 30
0.0
 42
0.4142135623730973
  0
VERTEX
  5
7BD
  8
0
  6
CONTINUOUS
 62
     2
 10
732.8976431113370609
 20
47.989532050397429
 30
0.0
  0
VERTEX
  5
7BE
  8
0
  6
CONTINUOUS
 62
     2
 10
732.8976431113370609
 20
52.4895320503973224
 30
0.0
  0
VERTEX
  5
7BF
  8
0
  6
CONTINUOUS
 62
     2
 10
732.8976431113376293
 20
151.329532050397205
 30
0.0
 42
0.4142135623730951
  0
VERTEX
  5
7C0
  8
0
  6
CONTINUOUS
 62
     2
 10
725.8976431113376293
 20
158.329532050397205
 30
0.0
  0
VERTEX
  5
7C1
  8
0
  6
CONTINUOUS
 62
     2
 10
561.7069957780389586
 20
158.329532050397205
 30
0.0
  0
SEQEND
  5
7C2
  8
0
  6
CONTINUOUS
 62
     2
  0
POLYLINE
  5
2F6
  8
0
  6
CONTINUOUS
 62
     3
 66
     1
 10
0.0
 20
0.0
 30
0.0
  0
VERTEX
  5
7C3
  8
0
  6
CONTINUOUS
 62
     3
 10
403.0501809773775221
 20
354.4649083353705805
 30
0.0
  0
VERTEX
  5
7C4
  8
0
  6
CONTINUOUS
 62
     3
 10
403.0501809773775221
 20
338.1029499651721153
 30
0.0
 42
0.4142135623730951
  0
VERTEX
  5
7C5
  8
0
  6
CONTINUOUS
 62
     3
 10
404.5501809773774085
 20
336.6029499651721153
 30
0.0
  0
VERTEX
  5
7C6
  8
0
  6
CONTINUOUS
 62
     3
 10
431.1501809773773743
 20
336.6029499651721153
 30
0.0
 42
0.4142135623730951
  0
VERTEX
  5
7C7
  8
0
  6
CONTINUOUS
 62
     3
 10
432.650180977377488
 20
338.1029499651721153
 30
0.0
  0
VERTEX
  5
7C8
  8
0
  6
CONTINUOUS
 62
     3
 10
432.650180977377488
 20
353.652949965172013
 30
0.0
 42
-0.4142135623730951
  0
VERTEX
  5
7C9
  8
0
  6
CONTINUOUS
 62
     3
 10
434.6501809773773743
 20
355.6529499651716719
 30
0.0
  0
VERTEX
  5
7CA
  8
0
  6
CONTINUOUS
 62
     3
 10
456.4886208566921937
 20
355.6529499651716719
 30
0.0
 42
-0.4769755326981583
  0
VERTEX
  5
7CB
  8
0
  6
CONTINUOUS
 62
     3
 10
458.4449160581597766
 20
353.237126583536508
 30
0.0
  0
VERTEX
  5
7CC
  8
0
  6
CONTINUOUS
 62
     3
 10
455.3898912398491916
 20
338.8643648381071785
 30
0.0
 42
0.4142135623730729
  0
VERTEX
  5
7CD
  8
0
  6
CONTINUOUS
 62
     3
 10
456.5452451047231079
 20
337.0852759007801751
 30
0.0
  0
VERTEX
  5
7CE
  8
0
  6
CONTINUOUS
 62
     3
 10
482.5444083322278743
 20
331.558983158844228
 30
0.0
 42
0.4142135623730696
  0
VERTEX
  5
7CF
  8
0
  6
CONTINUOUS
 62
     3
 10
484.3234972695552187
 20
332.714337023717917
 30
0.0
  0
VERTEX
  5
7D0
  8
0
  6
CONTINUOUS
 62
     3
 10
484.3241762540832838
 20
332.7175313947744257
 30
0.0
  0
VERTEX
  5
7D1
  8
0
  6
CONTINUOUS
 62
     3
 10
543.73842575273477
 20
320.0886428071365799
 30
0.0
 42
0.4142135623730822
  0
VERTEX
  5
7D2
  8
0
  6
CONTINUOUS
 62
     3
 10
545.5175146900620575
 20
321.2439966720107236
 30
0.0
  0
VERTEX
  5
7D3
  8
0
  6
CONTINUOUS
 62
     3
 10
549.0644881354132849
 20
337.9311947405296905
 30
0.0
 42
0.4142135623731042
  0
VERTEX
  5
7D4
  8
0
  6
CONTINUOUS
 62
     3
 10
547.909134270539198
 20
339.7102836778568076
 30
0.0
  0
VERTEX
  5
7D5
  8
0
  6
CONTINUOUS
 62
     3
 10
540.2752574714637603
 20
341.3329142824811129
 30
0.0
  0
VERTEX
  5
7D6
  8
0
  6
CONTINUOUS
 62
     3
 10
543.9244881354131849
 20
358.5011947405291721
 30
0.0
 42
0.414213562373074
  0
VERTEX
  5
7D7
  8
0
  6
CONTINUOUS
 62
     3
 10
542.769134270539098
 20
360.2802836778568008
 30
0.0
  0
VERTEX
  5
7D8
  8
0
  6
CONTINUOUS
 62
     3
 10
534.9262004655495275
 20
361.9473507208509204
 30
0.0
  0
VERTEX
  5
7D9
  8
0
  6
CONTINUOUS
 62
     3
 10
538.5744881354130484
 20
379.1111947405295268
 30
0.0
 42
0.4142135623731042
  0
VERTEX
  5
7DA
  8
0
  6
CONTINUOUS
 62
     3
 10
537.4191342705390753
 20
380.890283677856587
 30
0.0
  0
VERTEX
  5
7DB
  8
0
  6
CONTINUOUS
 62
     3
 10
534.2265282928913166
 20
381.5688930272326047
 30
0.0
  0
VERTEX
  5
7DC
  8
0
  6
CONTINUOUS
 62
     3
 10
537.9778215519102105
 20
399.2173402430959754
 30
0.0
  0
VERTEX
  5
7DD
  8
0
  6
CONTINUOUS
 62
     3
 10
545.8284257527350292
 20
397.5486428071365026
 30
0.0
 42
0.4142135623731252
  0
VERTEX
  5
7DE
  8
0
  6
CONTINUOUS
 62
     3
 10
547.6075146900623167
 20
398.7039966720107032
 30
0.0
  0
VERTEX
  5
7DF
  8
0
  6
CONTINUOUS
 62
     3
 10
551.1544881354132031
 20
415.3911947405296132
 30
0.0
 42
0.4142135623731252
  0
VERTEX
  5
7E0
  8
0
  6
CONTINUOUS
 62
     3
 10
549.9991342705391162
 20
417.1702836778563892
 30
0.0
  0
VERTEX
  5
7E1
  8
0
  6
CONTINUOUS
 62
     3
 10
473.2001809773776131
 20
433.4944051297076157
 30
0.0
  0
VERTEX
  5
7E2
  8
0
  6
CONTINUOUS
 62
     3
 10
473.2001809773776131
 20
433.5029499651722062
 30
0.0
 42
0.4142135623730951
  0
VERTEX
  5
7E3
  8
0
  6
CONTINUOUS
 62
     3
 10
471.7001809773774994
 20
435.0029499651720926
 30
0.0
  0
VERTEX
  5
7E4
  8
0
  6
CONTINUOUS
 62
     3
 10
454.6401809773777245
 20
435.0029499651723768
 30
0.0
 42
0.4142135623730951
  0
VERTEX
  5
7E5
  8
0
  6
CONTINUOUS
 62
     3
 10
453.1401809773773834
 20
433.5029499651722062
 30
0.0
  0
VERTEX
  5
7E6
  8
0
  6
CONTINUOUS
 62
     3
 10
453.1401809773773834
 20
432.8629499651721062
 30
0.0
  0
VERTEX
  5
7E7
  8
0
  6
CONTINUOUS
 62
     3
 10
416.9501809773776131
 20
432.8629499651723904
 30
0.0
 42
0.4142135623730951
  0
VERTEX
  5
7E8
  8
0
  6
CONTINUOUS
 62
     3
 10
415.4501809773774994
 20
431.3629499651723904
 30
0.0
  0
VERTEX
  5
7E9
  8
0
  6
CONTINUOUS
 62
     3
 10
415.4501809773774994
 20
416.9560096949044237
 30
0.0
  0
SEQEND
  5
7EA
  8
0
  6
CONTINUOUS
 62
     3
  0
POLYLINE
  5
2F7
  8
0
  6
CONTINUOUS
 62
     3
 66
     1
 10
0.0
 20
0.0
 30
0.0
  0
VERTEX
  5
7EB
  8
0
  6
CONTINUOUS
 62
     3
 10
690.2257809773777808
 20
351.3125296207414863
 30
0.0
  0
VERTEX
  5
7EC
  8
0
  6
CONTINUOUS
 62
     3
 10
690.2257809773777808
 20
338.0549499651721135
 30
0.0
 42
0.4142135623730951
  0
VERTEX
  5
7ED
  8
0
  6
CONTINUOUS
 62
     3
 10
691.7257809773775534
 20
336.5549499651722272
 30
0.0
  0
VERTEX
  5
7EE
  8
0
  6
CONTINUOUS
 62
     3
 10
718.3257809773776899
 20
336.5549499651721135
 30
0.0
 42
0.4142135623730951
  0
VERTEX
  5
7EF
  8
0
  6
CONTINUOUS
 62
     3
 10
719.8257809773774625
 20
338.0549499651721135
 30
0.0
  0
VERTEX
  5
7F0
  8
0
  6
CONTINUOUS
 62
     3
 10
719.8257809773774625
 20
355.6529499651716719
 30
0.0
  0
VERTEX
  5
7F1
  8
0
  6
CONTINUOUS
 62
     3
 10
721.9989309773775403
 20
355.6529499651721835
 30
0.0
 42
0.4142135623730951
  0
VERTEX
  5
7F2
  8
0
  6
CONTINUOUS
 62
     3
 10
723.4989309773775403
 20
357.1529499651721835
 30
0.0
  0
VERTEX
  5
7F3
  8
0
  6
CONTINUOUS
 62
     3
 10
723.4989309773775403
 20
374.2129499651721858
 30
0.0
 42
0.4142135623730951
  0
VERTEX
  5
7F4
  8
0
  6
CONTINUOUS
 62
     3
 10
721.9989309773775403
 20
375.7129499651722995
 30
0.0
  0
VERTEX
  5
7F5
  8
0
  6
CONTINUOUS
 62
     3
 10
719.320180977377504
 20
375.7129499651722995
 30
0.0
  0
VERTEX
  5
7F6
  8
0
  6
CONTINUOUS
 62
     3
 10
719.320180977377504
 20
393.2629499651721972
 30
0.0
 42
0.4142135623730951
  0
VERTEX
  5
7F7
  8
0
  6
CONTINUOUS
 62
     3
 10
717.8201809773773903
 20
394.7629499651721972
 30
0.0
  0
VERTEX
  5
7F8
  8
0
  6
CONTINUOUS
 62
     3
 10
715.0601809773777404
 20
394.7629499651721972
 30
0.0
  0
VERTEX
  5
7F9
  8
0
  6
CONTINUOUS
 62
     3
 10
715.0601809773777404
 20
412.3129499651719811
 30
0.0
 42
0.4142135623730951
  0
VERTEX
  5
7FA
  8
0
  6
CONTINUOUS
 62
     3
 10
713.5601809773777404
 20
413.8129499651723791
 30
0.0
  0
VERTEX
  5
7FB
  8
0
  6
CONTINUOUS
 62
     3
 10
712.0083026863560463
 20
413.8129499651719811
 30
0.0
  0
SEQEND
  5
7FC
  8
0
  6
CONTINUOUS
 62
     3
  0
LINE
  5
2F8
  8
0
  6
CONTINUOUS
 62
     6
 10
531.2570943296404948
 20
89.3295320503972334
 30
0.0
 11
531.2570943296404948
 21
98.8295320503972334
 31
0.0
  0
ARC
  5
2F9
  8
0
  6
CONTINUOUS
 62
     6
 10
528.7570943296404948
 20
98.8295320503972334
 30
0.0
 40
2.5
 50
0.0
 51
90.0
  0
LINE
  5
2FA
  8
0
  6
CONTINUOUS
 62
     6
 10
460.4579937204889006
 20
101.329532050397205
 30
0.0
 11
528.7570943296404948
 21
101.329532050397205
 31
0.0
  0
LINE
  5
2FB
  8
0
  6
CONTINUOUS
 62
     6
 10
457.9579937204890143
 20
98.8295320503972334
 30
0.0
 11
457.9579937204890143
 21
89.3295320503972334
 31
0.0
  0
ARC
  5
2FC
  8
0
  6
CONTINUOUS
 62
     6
 10
460.4579937204889006
 20
98.8295320503972334
 30
0.0
 40
2.5
 50
90.0
 51
180.0
  0
LINE
  5
2FD
  8
0
  6
CONTINUOUS
 62
     6
 10
463.957993720489128
 20
83.3295320503972334
 30
0.0
 11
525.2570943296403811
 21
83.3295320503972334
 31
0.0
  0
ARC
  5
2FE
  8
0
  6
CONTINUOUS
 62
     6
 10
525.2570943296403811
 20
89.3295320503972334
 30
0.0
 40
6.0
 50
270.0
 51
0.0
  0
ARC
  5
2FF
  8
0
  6
CONTINUOUS
 62
     6
 10
463.957993720489128
 20
89.3295320503972334
 30
0.0
 40
6.0
 50
180.0
 51
270.0
  0
CIRCLE
  5
300
  8
0
  6
CONTINUOUS
 62
     6
 10
526.2570943296403811
 20
96.3295320503972334
 30
0.0
 40
1.1000000000000001
  0
CIRCLE
  5
301
  8
0
  6
CONTINUOUS
 62
     6
 10
462.957993720489128
 20
96.3295320503972334
 30
0.0
 40
1.1000000000000001
  0
POLYLINE
  5
302
  8
0
  6
CONTINUOUS
 62
     6
 66
     1
 10
0.0
 20
0.0
 30
0.0
 70
     1
  0
VERTEX
  5
7FD
  8
0
  6
CONTINUOUS
 62
     6
 10
384.658893111337477
 20
103.329532050397205
 30
0.0
  0
VERTEX
  5
7FE
  8
0
  6
CONTINUOUS
 62
     6
 10
384.658893111337477
 20
114.3295320503971055
 30
0.0
 42
-0.4142135623730951
  0
VERTEX
  5
7FF
  8
0
  6
CONTINUOUS
 62
     6
 10
390.658893111337477
 20
120.329532050397205
 30
0.0
  0
VERTEX
  5
800
  8
0
  6
CONTINUOUS
 62
     6
 10
704.6588931113371927
 20
120.329532050397205
 30
0.0
 42
-0.4142135623730951
  0
VERTEX
  5
801
  8
0
  6
CONTINUOUS
 62
     6
 10
710.6588931113370791
 20
114.3295320503971055
 30
0.0
  0
VERTEX
  5
802
  8
0
  6
CONTINUOUS
 62
     6
 10
710.6588931113370791
 20
103.329532050397205
 30
0.0
 42
-0.4142135623730951
  0
VERTEX
  5
803
  8
0
  6
CONTINUOUS
 62
     6
 10
708.6588931113371927
 20
101.329532050397205
 30
0.0
  0
VERTEX
  5
804
  8
0
  6
CONTINUOUS
 62
     6
 10
386.658893111337477
 20
101.329532050397205
 30
0.0
 42
-0.4142135623730951
  0
SEQEND
  5
805
  8
0
  6
CONTINUOUS
 62
     6
  0
POLYLINE
  5
303
  8
0
  6
CONTINUOUS
 62
     6
 66
     1
 10
0.0
 20
0.0
 30
0.0
 70
     1
  0
VERTEX
  5
806
  8
0
  6
CONTINUOUS
 62
     6
 10
384.658893111337477
 20
122.329532050397205
 30
0.0
  0
VERTEX
  5
807
  8
0
  6
CONTINUOUS
 62
     6
 10
384.658893111337477
 20
125.329532050397205
 30
0.0
  0
VERTEX
  5
808
  8
0
  6
CONTINUOUS
 62
     6
 10
384.658893111337477
 20
140.329532050397205
 30
0.0
 42
-0.4142135623730951
  0
VERTEX
  5
809
  8
0
  6
CONTINUOUS
 62
     6
 10
392.658893111337477
 20
148.329532050397205
 30
0.0
  0
VERTEX
  5
80A
  8
0
  6
CONTINUOUS
 62
     6
 10
706.6588931113371927
 20
148.329532050397205
 30
0.0
 42
-0.4142135623730951
  0
VERTEX
  5
80B
  8
0
  6
CONTINUOUS
 62
     6
 10
714.6588931113370791
 20
140.329532050397205
 30
0.0
  0
VERTEX
  5
80C
  8
0
  6
CONTINUOUS
 62
     6
 10
714.6588931113370791
 20
125.329532050397205
 30
0.0
  0
VERTEX
  5
80D
  8
0
  6
CONTINUOUS
 62
     6
 10
714.6588931113370791
 20
122.329532050397205
 30
0.0
 42
-0.4142135623730951
  0
VERTEX
  5
80E
  8
0
  6
CONTINUOUS
 62
     6
 10
712.6588931113371927
 20
120.329532050397205
 30
0.0
  0
VERTEX
  5
80F
  8
0
  6
CONTINUOUS
 62
     6
 10
568.2934903281575316
 20
120.329532050397205
 30
0.0
  0
VERTEX
  5
810
  8
0
  6
CONTINUOUS
 62
     6
 10
386.658893111337477
 20
120.329532050397205
 30
0.0
 42
-0.4142135623730951
  0
SEQEND
  5
811
  8
0
  6
CONTINUOUS
 62
     6
  0
POLYLINE
  5
304
  8
0
  6
CONTINUOUS
 62
     6
 66
     1
 10
0.0
 20
0.0
 30
0.0
 70
     1
  0
VERTEX
  5
812
  8
0
  6
CONTINUOUS
 62
     6
 10
24.4201431113373602
 20
65.0795320503972334
 30
0.0
  0
VERTEX
  5
813
  8
0
  6
CONTINUOUS
 62
     6
 10
24.4201431113373602
 20
73.0795320503972334
 30
0.0
  0
VERTEX
  5
814
  8
0
  6
CONTINUOUS
 62
     6
 10
24.4201431113373602
 20
90.0795320503972334
 30
0.0
 42
-0.4142135623730951
  0
VERTEX
  5
815
  8
0
  6
CONTINUOUS
 62
     6
 10
34.4201431113374099
 20
100.079532050397205
 30
0.0
  0
VERTEX
  5
816
  8
0
  6
CONTINUOUS
 62
     6
 10
348.4201431113372109
 20
100.079532050397205
 30
0.0
 42
-0.4142135623730951
  0
VERTEX
  5
817
  8
0
  6
CONTINUOUS
 62
     6
 10
358.4201431113370973
 20
90.0795320503972334
 30
0.0
  0
VERTEX
  5
818
  8
0
  6
CONTINUOUS
 62
     6
 10
358.4201431113370973
 20
73.0795320503972334
 30
0.0
  0
VERTEX
  5
819
  8
0
  6
CONTINUOUS
 62
     6
 10
358.4201431113370973
 20
65.0795320503972334
 30
0.0
 42
-0.4142135623730951
  0
VERTEX
  5
81A
  8
0
  6
CONTINUOUS
 62
     6
 10
356.4201431113370973
 20
63.0795320503972334
 30
0.0
  0
VERTEX
  5
81B
  8
0
  6
CONTINUOUS
 62
     6
 10
210.054740328157493
 20
63.0795320503972334
 30
0.0
  0
VERTEX
  5
81C
  8
0
  6
CONTINUOUS
 62
     6
 10
26.4201431113374099
 20
63.0795320503972334
 30
0.0
 42
-0.4142135623730951
  0
SEQEND
  5
81D
  8
0
  6
CONTINUOUS
 62
     6
  0
POLYLINE
  5
305
  8
0
  6
CONTINUOUS
 62
     6
 66
     1
 10
0.0
 20
0.0
 30
0.0
 70
     1
  0
VERTEX
  5
81E
  8
0
  6
CONTINUOUS
 62
     6
 10
24.4201431113373602
 20
102.079532050397205
 30
0.0
  0
VERTEX
  5
81F
  8
0
  6
CONTINUOUS
 62
     6
 10
24.4201431113373602
 20
115.0795320503973045
 30
0.0
  0
VERTEX
  5
820
  8
0
  6
CONTINUOUS
 62
     6
 10
24.4201431113373602
 20
134.0795320503972903
 30
0.0
 42
-0.4142135623730951
  0
VERTEX
  5
821
  8
0
  6
CONTINUOUS
 62
     6
 10
36.4201431113374099
 20
146.0795320503972903
 30
0.0
  0
VERTEX
  5
822
  8
0
  6
CONTINUOUS
 62
     6
 10
350.4201431113372109
 20
146.0795320503972903
 30
0.0
 42
-0.4142135623730951
  0
VERTEX
  5
823
  8
0
  6
CONTINUOUS
 62
     6
 10
362.4201431113370973
 20
134.0795320503972903
 30
0.0
  0
VERTEX
  5
824
  8
0
  6
CONTINUOUS
 62
     6
 10
362.4201431113370973
 20
115.0795320503973045
 30
0.0
  0
VERTEX
  5
825
  8
0
  6
CONTINUOUS
 62
     6
 10
362.4201431113370973
 20
102.0795320503971055
 30
0.0
 42
-0.4142135623730951
  0
VERTEX
  5
826
  8
0
  6
CONTINUOUS
 62
     6
 10
360.4201431113369836
 20
100.0795320503971055
 30
0.0
  0
VERTEX
  5
827
  8
0
  6
CONTINUOUS
 62
     6
 10
212.054740328157493
 20
100.079532050397205
 30
0.0
  0
VERTEX
  5
828
  8
0
  6
CONTINUOUS
 62
     6
 10
26.4201431113374099
 20
100.079532050397205
 30
0.0
 42
-0.4142135623730951
  0
SEQEND
  5
829
  8
0
  6
CONTINUOUS
 62
     6
  0
CIRCLE
  5
306
  8
0
  6
CONTINUOUS
 62
     6
 10
193.4201431113372962
 20
130.5795320503972903
 30
0.0
 40
1.1000000000000001
  0
CIRCLE
  5
307
  8
0
  6
CONTINUOUS
 62
     6
 10
336.4201431113372109
 20
130.5795320503972903
 30
0.0
 40
1.1000000000000001
  0
CIRCLE
  5
308
  8
0
  6
CONTINUOUS
 62
     6
 10
50.4201431113374028
 20
130.5795320503972903
 30
0.0
 40
1.1000000000000001
  0
CIRCLE
  5
309
  8
0
  6
CONTINUOUS
 62
     6
 10
191.4201431113372962
 20
86.5795320503972192
 30
0.0
 40
1.1000000000000001
  0
CIRCLE
  5
30A
  8
0
  6
CONTINUOUS
 62
     6
 10
334.4201431113372109
 20
86.5795320503972192
 30
0.0
 40
1.1000000000000001
  0
CIRCLE
  5
30B
  8
0
  6
CONTINUOUS
 62
     6
 10
48.4201431113374099
 20
86.5795320503972192
 30
0.0
 40
1.1000000000000001
  0
CIRCLE
  5
30C
  8
0
  6
CONTINUOUS
 62
     6
 10
549.6588931113373064
 20
136.829532050397205
 30
0.0
 40
1.1000000000000001
  0
CIRCLE
  5
30D
  8
0
  6
CONTINUOUS
 62
     6
 10
692.6588931113370791
 20
136.829532050397205
 30
0.0
 40
1.1000000000000001
  0
CIRCLE
  5
30E
  8
0
  6
CONTINUOUS
 62
     6
 10
406.658893111337477
 20
136.829532050397205
 30
0.0
 40
1.1000000000000001
  0
CIRCLE
  5
30F
  8
0
  6
CONTINUOUS
 62
     6
 10
547.6588931113374201
 20
110.829532050397205
 30
0.0
 40
1.1000000000000001
  0
CIRCLE
  5
310
  8
0
  6
CONTINUOUS
 62
     6
 10
690.6588931113371927
 20
110.829532050397205
 30
0.0
 40
1.1000000000000001
  0
CIRCLE
  5
311
  8
0
  6
CONTINUOUS
 62
     6
 10
404.6588931113374201
 20
110.829532050397205
 30
0.0
 40
1.1000000000000001
  0
LINE
  5
312
  8
0
  6
CONTINUOUS
 62
     6
 10
457.9579937204890143
 20
89.3295320503972334
 30
0.0
 11
457.9579937204890143
 21
98.8295320503972334
 31
0.0
  0
ARC
  5
313
  8
0
  6
CONTINUOUS
 62
     6
 10
455.4579937204890143
 20
98.8295320503972334
 30
0.0
 40
2.5
 50
0.0
 51
90.0
  0
LINE
  5
314
  8
0
  6
CONTINUOUS
 62
     6
 10
387.158893111337477
 20
101.329532050397205
 30
0.0
 11
455.4579937204890143
 21
101.329532050397205
 31
0.0
  0
LINE
  5
315
  8
0
  6
CONTINUOUS
 62
     6
 10
384.658893111337477
 20
98.8295320503972334
 30
0.0
 11
384.658893111337477
 21
89.3295320503972334
 31
0.0
  0
ARC
  5
316
  8
0
  6
CONTINUOUS
 62
     6
 10
387.158893111337477
 20
98.8295320503972334
 30
0.0
 40
2.5
 50
90.0
 51
180.0
  0
LINE
  5
317
  8
0
  6
CONTINUOUS
 62
     6
 10
390.658893111337477
 20
83.3295320503972334
 30
0.0
 11
451.9579937204889006
 21
83.3295320503972334
 31
0.0
  0
ARC
  5
318
  8
0
  6
CONTINUOUS
 62
     6
 10
451.9579937204889006
 20
89.3295320503972334
 30
0.0
 40
6.0
 50
270.0
 51
0.0
  0
ARC
  5
319
  8
0
  6
CONTINUOUS
 62
     6
 10
390.658893111337477
 20
89.3295320503972334
 30
0.0
 40
6.0
 50
180.0
 51
270.0
  0
CIRCLE
  5
31A
  8
0
  6
CONTINUOUS
 62
     6
 10
452.9579937204890143
 20
96.3295320503972334
 30
0.0
 40
1.1000000000000001
  0
CIRCLE
  5
31B
  8
0
  6
CONTINUOUS
 62
     6
 10
389.658893111337477
 20
96.3295320503972334
 30
0.0
 40
1.1000000000000001
  0
LINE
  5
31C
  8
0
  6
CONTINUOUS
 62
     1
 10
353.1503574325611794
 20
290.9908095284388878
 30
0.0
 11
265.1503574325612931
 21
290.9908095284388878
 31
0.0
  0
LINE
  5
31D
  8
0
  6
CONTINUOUS
 62
     1
 10
238.1503574325612931
 20
290.9908095284388878
 30
0.0
 11
150.1083065736623041
 21
290.9908095284388878
 31
0.0
  0
LINE
  5
31E
  8
0
  6
CONTINUOUS
 62
     1
 10
123.1083065736623041
 20
290.9908095284388878
 30
0.0
 11
35.1083065736621904
 21
290.9908095284388878
 31
0.0
  0
LINE
  5
31F
  8
0
  6
CONTINUOUS
 62
     1
 10
25.0099570031117686
 20
280.8924599578886045
 30
0.0
 11
25.0099570031115697
 21
206.1208095284393949
 31
0.0
  0
LINE
  5
320
  8
0
  6
CONTINUOUS
 62
     1
 10
363.2487070031115763
 20
280.8924599578884909
 30
0.0
 11
363.2487070031115195
 21
203.7491590989897929
 31
0.0
  0
POLYLINE
  5
321
  8
0
  6
CONTINUOUS
 62
     1
 66
     1
 10
0.0
 20
0.0
 30
0.0
  0
VERTEX
  5
82A
  8
0
  6
CONTINUOUS
 62
     1
 10
353.1503574325611794
 20
193.6508095284391118
 30
0.0
  0
VERTEX
  5
82B
  8
0
  6
CONTINUOUS
 62
     1
 10
292.6462603667625899
 20
194.5087383689640887
 30
0.0
  0
VERTEX
  5
82C
  8
0
  6
CONTINUOUS
 62
     1
 10
260.8143858893529909
 20
187.7426645785359085
 30
0.0
  0
SEQEND
  5
82D
  8
0
  6
CONTINUOUS
 62
     1
  0
POLYLINE
  5
322
  8
0
  6
CONTINUOUS
 62
     1
 66
     1
 10
0.0
 20
0.0
 30
0.0
  0
VERTEX
  5
82E
  8
0
  6
CONTINUOUS
 62
     1
 10
153.3555133366810139
 20
182.1290489264565053
 30
0.0
  0
VERTEX
  5
82F
  8
0
  6
CONTINUOUS
 62
     1
 10
193.8799570031096096
 20
173.5153125171300985
 30
0.0
  0
VERTEX
  5
830
  8
0
  6
CONTINUOUS
 62
     1
 10
234.4044006695401094
 20
182.1290489264565053
 30
0.0
  0
SEQEND
  5
831
  8
0
  6
CONTINUOUS
 62
     1
  0
POLYLINE
  5
323
  8
0
  6
CONTINUOUS
 62
     1
 66
     1
 10
0.0
 20
0.0
 30
0.0
  0
VERTEX
  5
832
  8
0
  6
CONTINUOUS
 62
     1
 10
126.9455281168682035
 20
187.7426645785359085
 30
0.0
  0
VERTEX
  5
833
  8
0
  6
CONTINUOUS
 62
     1
 10
99.1498914943860541
 20
193.6508095284391118
 30
0.0
  0
VERTEX
  5
834
  8
0
  6
CONTINUOUS
 62
     1
 10
35.1083065736621904
 20
193.6508095284391118
 30
0.0
  0
SEQEND
  5
835
  8
0
  6
CONTINUOUS
 62
     1
  0
POLYLINE
  5
324
  8
0
  6
CONTINUOUS
 62
     1
 66
     1
 10
0.0
 20
0.0
 30
0.0
 70
     1
  0
VERTEX
  5
836
  8
0
  6
CONTINUOUS
 62
     1
 10
385.2487070031115763
 20
305.240809528439172
 30
0.0
 42
0.4142135623730951
  0
VERTEX
  5
837
  8
0
  6
CONTINUOUS
 62
     1
 10
376.2487070031115763
 20
296.2408095284390015
 30
0.0
  0
VERTEX
  5
838
  8
0
  6
CONTINUOUS
 62
     1
 10
376.2487070031115763
 20
291.7408095284391152
 30
0.0
  0
VERTEX
  5
839
  8
0
  6
CONTINUOUS
 62
     1
 10
376.2487070031115763
 20
197.4008095284391118
 30
0.0
  0
VERTEX
  5
83A
  8
0
  6
CONTINUOUS
 62
     1
 10
376.2487070031115763
 20
192.9008095284391118
 30
0.0
 42
0.4142135623730951
  0
VERTEX
  5
83B
  8
0
  6
CONTINUOUS
 62
     1
 10
385.2487070031115763
 20
183.9008095284391118
 30
0.0
  0
VERTEX
  5
83C
  8
0
  6
CONTINUOUS
 62
     1
 10
389.7487070031115763
 20
183.9008095284391118
 30
0.0
  0
VERTEX
  5
83D
  8
0
  6
CONTINUOUS
 62
     1
 10
461.1273906712008852
 20
183.9008095284391118
 30
0.0
  0
VERTEX
  5
83E
  8
0
  6
CONTINUOUS
 62
     1
 10
541.2781149360333757
 20
166.8642471633449134
 30
0.0
  0
VERTEX
  5
83F
  8
0
  6
CONTINUOUS
 62
     1
 10
557.1187070031103303
 20
166.8642471633449134
 30
0.0
  0
VERTEX
  5
840
  8
0
  6
CONTINUOUS
 62
     1
 10
572.9592990701870576
 20
166.8642471633449134
 30
0.0
  0
VERTEX
  5
841
  8
0
  6
CONTINUOUS
 62
     1
 10
653.1100233350198323
 20
183.9008095284391118
 30
0.0
  0
VERTEX
  5
842
  8
0
  6
CONTINUOUS
 62
     1
 10
724.9874570031113308
 20
183.9008095284391118
 30
0.0
  0
VERTEX
  5
843
  8
0
  6
CONTINUOUS
 62
     1
 10
729.4874570031113308
 20
183.9008095284391118
 30
0.0
 42
0.4142135623730969
  0
VERTEX
  5
844
  8
0
  6
CONTINUOUS
 62
     1
 10
738.4874570031113308
 20
192.9008095284391118
 30
0.0
  0
VERTEX
  5
845
  8
0
  6
CONTINUOUS
 62
     1
 10
738.4874570031113308
 20
197.4008095284391118
 30
0.0
  0
VERTEX
  5
846
  8
0
  6
CONTINUOUS
 62
     1
 10
738.4874570031114445
 20
296.2408095284390015
 30
0.0
 42
0.4142135623730951
  0
VERTEX
  5
847
  8
0
  6
CONTINUOUS
 62
     1
 10
729.4874570031114445
 20
305.240809528439172
 30
0.0
  0
VERTEX
  5
848
  8
0
  6
CONTINUOUS
 62
     1
 10
562.4687070031134226
 20
305.240809528439172
 30
0.0
  0
VERTEX
  5
849
  8
0
  6
CONTINUOUS
 62
     1
 10
551.7687070031088297
 20
305.240809528439172
 30
0.0
  0
VERTEX
  5
84A
  8
0
  6
CONTINUOUS
 62
     1
 10
389.7487070031115763
 20
305.240809528439172
 30
0.0
  0
SEQEND
  5
84B
  8
0
  6
CONTINUOUS
 62
     1
  0
CIRCLE
  5
325
  8
0
  6
CONTINUOUS
 62
     1
 10
729.889107432560877
 20
192.499159098989594
 30
0.0
 40
1.05
  0
CIRCLE
  5
326
  8
0
  6
CONTINUOUS
 62
     1
 10
729.889107432560877
 20
296.6424599578883772
 30
0.0
 40
1.05
  0
CIRCLE
  5
327
  8
0
  6
CONTINUOUS
 62
     1
 10
384.847056573662087
 20
296.6424599578887182
 30
0.0
 40
1.05
  0
CIRCLE
  5
328
  8
0
  6
CONTINUOUS
 62
     1
 10
384.847056573662087
 20
192.499159098989594
 30
0.0
 40
1.05
  0
CIRCLE
  5
329
  8
0
  6
CONTINUOUS
 62
     1
 10
499.847056573662087
 20
297.7408095284391152
 30
0.0
 40
1.05
  0
CIRCLE
  5
32A
  8
0
  6
CONTINUOUS
 62
     1
 10
614.8891074325611044
 20
297.7408095284391152
 30
0.0
 40
1.05
  0
CIRCLE
  5
32B
  8
0
  6
CONTINUOUS
 62
     1
 10
502.4536681180942992
 20
182.784192549193989
 30
0.0
 40
1.05
  0
CIRCLE
  5
32C
  8
0
  6
CONTINUOUS
 62
     1
 10
611.7837458881263046
 20
182.784192549193989
 30
0.0
 40
1.05
  0
POLYLINE
  5
32D
  8
0
  6
CONTINUOUS
 62
     1
 66
     1
 10
0.0
 20
0.0
 30
0.0
 70
     1
  0
VERTEX
  5
84C
  8
0
  6
CONTINUOUS
 62
     1
 10
389.7487070031115763
 20
195.9008095284391118
 30
0.0
  0
VERTEX
  5
84D
  8
0
  6
CONTINUOUS
 62
     1
 10
395.2187070031088751
 20
195.9008095284391118
 30
0.0
  0
VERTEX
  5
84E
  8
0
  6
CONTINUOUS
 62
     1
 10
398.347056573662087
 20
195.9008095284391118
 30
0.0
 42
-0.4142135623730951
  0
VERTEX
  5
84F
  8
0
  6
CONTINUOUS
 62
     1
 10
399.847056573662087
 20
194.4008095284391118
 30
0.0
  0
VERTEX
  5
850
  8
0
  6
CONTINUOUS
 62
     1
 10
399.847056573662087
 20
191.4008095284391118
 30
0.0
 42
0.4142135623730951
  0
VERTEX
  5
851
  8
0
  6
CONTINUOUS
 62
     1
 10
401.3470565736619733
 20
189.9008095284391118
 30
0.0
  0
VERTEX
  5
852
  8
0
  6
CONTINUOUS
 62
     1
 10
461.7580160827948248
 20
189.9008095284391118
 30
0.0
  0
VERTEX
  5
853
  8
0
  6
CONTINUOUS
 62
     1
 10
486.0023651697597984
 20
184.7475140465863035
 30
0.0
 42
0.4142135623730865
  0
VERTEX
  5
854
  8
0
  6
CONTINUOUS
 62
     1
 10
487.7814541070873133
 20
185.9028679114601914
 30
0.0
  0
VERTEX
  5
855
  8
0
  6
CONTINUOUS
 62
     1
 10
488.4051891795406277
 20
188.8373107136617932
 30
0.0
 42
-0.4142135623730904
  0
VERTEX
  5
856
  8
0
  6
CONTINUOUS
 62
     1
 10
490.1842781168679153
 20
189.9926645785359085
 30
0.0
  0
VERTEX
  5
857
  8
0
  6
CONTINUOUS
 62
     1
 10
516.5942633366807968
 20
184.3790489264565906
 30
0.0
 42
-0.4142135623731026
  0
VERTEX
  5
858
  8
0
  6
CONTINUOUS
 62
     1
 10
517.7496172015548836
 20
182.5999599891291041
 30
0.0
  0
VERTEX
  5
859
  8
0
  6
CONTINUOUS
 62
     1
 10
517.1258821291014556
 20
179.6655171869277865
 30
0.0
 42
0.4142135623730998
  0
VERTEX
  5
85A
  8
0
  6
CONTINUOUS
 62
     1
 10
518.2812359939755424
 20
177.8864282496004137
 30
0.0
  0
VERTEX
  5
85B
  8
0
  6
CONTINUOUS
 62
     1
 10
542.2171627142843136
 20
172.7986899655460036
 30
0.0
  0
VERTEX
  5
85C
  8
0
  6
CONTINUOUS
 62
     1
 10
572.0202512919365745
 20
172.7986899655460036
 30
0.0
  0
VERTEX
  5
85D
  8
0
  6
CONTINUOUS
 62
     1
 10
595.9561780122450045
 20
177.8864282496004137
 30
0.0
 42
0.4142135623731023
  0
VERTEX
  5
85E
  8
0
  6
CONTINUOUS
 62
     1
 10
597.1115318771190914
 20
179.6655171869277865
 30
0.0
  0
VERTEX
  5
85F
  8
0
  6
CONTINUOUS
 62
     1
 10
596.4877968046656633
 20
182.5999599891291041
 30
0.0
 42
-0.4142135623731002
  0
VERTEX
  5
860
  8
0
  6
CONTINUOUS
 62
     1
 10
597.6431506695397502
 20
184.3790489264567043
 30
0.0
  0
VERTEX
  5
861
  8
0
  6
CONTINUOUS
 62
     1
 10
624.0531358893528022
 20
189.9926645785359085
 30
0.0
 42
-0.4142135623731005
  0
VERTEX
  5
862
  8
0
  6
CONTINUOUS
 62
     1
 10
625.8322248266802035
 20
188.8373107136617932
 30
0.0
  0
VERTEX
  5
863
  8
0
  6
CONTINUOUS
 62
     1
 10
626.4559598991334042
 20
185.902867911460504
 30
0.0
 42
0.4142135623730998
  0
VERTEX
  5
864
  8
0
  6
CONTINUOUS
 62
     1
 10
628.2350488364605781
 20
184.7475140465863035
 30
0.0
  0
VERTEX
  5
865
  8
0
  6
CONTINUOUS
 62
     1
 10
652.4793979234260632
 20
189.9008095284391118
 30
0.0
  0
VERTEX
  5
866
  8
0
  6
CONTINUOUS
 62
     1
 10
713.3891074325607633
 20
189.9008095284391118
 30
0.0
 42
0.4142135623730951
  0
VERTEX
  5
867
  8
0
  6
CONTINUOUS
 62
     1
 10
714.8891074325607633
 20
191.4008095284391118
 30
0.0
  0
VERTEX
  5
868
  8
0
  6
CONTINUOUS
 62
     1
 10
714.8891074325607633
 20
194.4008095284391118
 30
0.0
 42
-0.4142135623730951
  0
VERTEX
  5
869
  8
0
  6
CONTINUOUS
 62
     1
 10
716.389107432560877
 20
195.9008095284391118
 30
0.0
  0
VERTEX
  5
86A
  8
0
  6
CONTINUOUS
 62
     1
 10
724.9874570031113308
 20
195.9008095284391118
 30
0.0
 42
0.4142135623730951
  0
VERTEX
  5
86B
  8
0
  6
CONTINUOUS
 62
     1
 10
726.4874570031113308
 20
197.4008095284391118
 30
0.0
  0
VERTEX
  5
86C
  8
0
  6
CONTINUOUS
 62
     1
 10
726.4874570031113308
 20
205.9991590989897077
 30
0.0
 42
-0.4142135623730968
  0
VERTEX
  5
86D
  8
0
  6
CONTINUOUS
 62
     1
 10
727.9874570031113308
 20
207.4991590989897077
 30
0.0
  0
VERTEX
  5
86E
  8
0
  6
CONTINUOUS
 62
     1
 10
730.9874570031113308
 20
207.4991590989897077
 30
0.0
 42
0.4142135623730966
  0
VERTEX
  5
86F
  8
0
  6
CONTINUOUS
 62
     1
 10
732.4874570031113308
 20
208.9991590989897077
 30
0.0
  0
VERTEX
  5
870
  8
0
  6
CONTINUOUS
 62
     1
 10
732.4874570031113308
 20
280.1424599578883772
 30
0.0
 42
0.4142135623730951
  0
VERTEX
  5
871
  8
0
  6
CONTINUOUS
 62
     1
 10
730.9874570031113308
 20
281.6424599578884909
 30
0.0
  0
VERTEX
  5
872
  8
0
  6
CONTINUOUS
 62
     1
 10
727.9874570031115582
 20
281.6424599578884909
 30
0.0
 42
-0.4142135623730951
  0
VERTEX
  5
873
  8
0
  6
CONTINUOUS
 62
     1
 10
726.4874570031114445
 20
283.1424599578883772
 30
0.0
  0
VERTEX
  5
874
  8
0
  6
CONTINUOUS
 62
     1
 10
726.4874570031114445
 20
291.7408095284391152
 30
0.0
 42
0.4142135623730728
  0
VERTEX
  5
875
  8
0
  6
CONTINUOUS
 62
     1
 10
724.9874570031113308
 20
293.2408095284391152
 30
0.0
  0
VERTEX
  5
876
  8
0
  6
CONTINUOUS
 62
     1
 10
716.389107432560877
 20
293.2408095284391152
 30
0.0
 42
-0.4142135623730951
  0
VERTEX
  5
877
  8
0
  6
CONTINUOUS
 62
     1
 10
714.8891074325607633
 20
294.7408095284391152
 30
0.0
  0
VERTEX
  5
878
  8
0
  6
CONTINUOUS
 62
     1
 10
714.8891074325607633
 20
297.7408095284391152
 30
0.0
 42
0.4142135623730951
  0
VERTEX
  5
879
  8
0
  6
CONTINUOUS
 62
     1
 10
713.3891074325607633
 20
299.2408095284391152
 30
0.0
  0
VERTEX
  5
87A
  8
0
  6
CONTINUOUS
 62
     1
 10
631.3891074325611044
 20
299.2408095284391152
 30
0.0
 42
0.4142135623730951
  0
VERTEX
  5
87B
  8
0
  6
CONTINUOUS
 62
     1
 10
629.8891074325609907
 20
297.7408095284391152
 30
0.0
  0
VERTEX
  5
87C
  8
0
  6
CONTINUOUS
 62
     1
 10
629.8891074325609907
 20
294.7408095284391152
 30
0.0
 42
-0.4142135623730951
  0
VERTEX
  5
87D
  8
0
  6
CONTINUOUS
 62
     1
 10
628.3891074325611044
 20
293.2408095284391152
 30
0.0
  0
VERTEX
  5
87E
  8
0
  6
CONTINUOUS
 62
     1
 10
601.3891074325611044
 20
293.2408095284391152
 30
0.0
 42
-0.4142135623730951
  0
VERTEX
  5
87F
  8
0
  6
CONTINUOUS
 62
     1
 10
599.8891074325609907
 20
294.7408095284391152
 30
0.0
  0
VERTEX
  5
880
  8
0
  6
CONTINUOUS
 62
     1
 10
599.8891074325609907
 20
297.7408095284391152
 30
0.0
 42
0.4142135623730951
  0
VERTEX
  5
881
  8
0
  6
CONTINUOUS
 62
     1
 10
598.3891074325611044
 20
299.2408095284391152
 30
0.0
  0
VERTEX
  5
882
  8
0
  6
CONTINUOUS
 62
     1
 10
516.3470565736620301
 20
299.2408095284391152
 30
0.0
 42
0.4142135623730951
  0
VERTEX
  5
883
  8
0
  6
CONTINUOUS
 62
     1
 10
514.8470565736620301
 20
297.7408095284391152
 30
0.0
  0
VERTEX
  5
884
  8
0
  6
CONTINUOUS
 62
     1
 10
514.8470565736620301
 20
294.7408095284391152
 30
0.0
 42
-0.4142135623730951
  0
VERTEX
  5
885
  8
0
  6
CONTINUOUS
 62
     1
 10
513.3470565736620301
 20
293.2408095284391152
 30
0.0
  0
VERTEX
  5
886
  8
0
  6
CONTINUOUS
 62
     1
 10
486.3470565736619733
 20
293.2408095284391152
 30
0.0
 42
-0.4142135623730951
  0
VERTEX
  5
887
  8
0
  6
CONTINUOUS
 62
     1
 10
484.8470565736619733
 20
294.7408095284391152
 30
0.0
  0
VERTEX
  5
888
  8
0
  6
CONTINUOUS
 62
     1
 10
484.8470565736619733
 20
297.7408095284391152
 30
0.0
 42
0.4142135623730951
  0
VERTEX
  5
889
  8
0
  6
CONTINUOUS
 62
     1
 10
483.347056573662087
 20
299.2408095284391152
 30
0.0
  0
VERTEX
  5
88A
  8
0
  6
CONTINUOUS
 62
     1
 10
401.3470565736619733
 20
299.2408095284391152
 30
0.0
 42
0.4142135623730951
  0
VERTEX
  5
88B
  8
0
  6
CONTINUOUS
 62
     1
 10
399.847056573662087
 20
297.7408095284391152
 30
0.0
  0
VERTEX
  5
88C
  8
0
  6
CONTINUOUS
 62
     1
 10
399.847056573662087
 20
294.7408095284391152
 30
0.0
 42
-0.4142135623730951
  0
VERTEX
  5
88D
  8
0
  6
CONTINUOUS
 62
     1
 10
398.347056573662087
 20
293.2408095284391152
 30
0.0
  0
VERTEX
  5
88E
  8
0
  6
CONTINUOUS
 62
     1
 10
389.7487070031115763
 20
293.2408095284391152
 30
0.0
 42
0.4142135623730951
  0
VERTEX
  5
88F
  8
0
  6
CONTINUOUS
 62
     1
 10
388.2487070031115763
 20
291.7408095284391152
 30
0.0
  0
VERTEX
  5
890
  8
0
  6
CONTINUOUS
 62
     1
 10
388.2487070031115763
 20
283.1424599578887182
 30
0.0
 42
-0.4142135623730951
  0
VERTEX
  5
891
  8
0
  6
CONTINUOUS
 62
     1
 10
386.7487070031115763
 20
281.6424599578886045
 30
0.0
  0
VERTEX
  5
892
  8
0
  6
CONTINUOUS
 62
     1
 10
383.7487070031115763
 20
281.6424599578886045
 30
0.0
 42
0.4142135623730951
  0
VERTEX
  5
893
  8
0
  6
CONTINUOUS
 62
     1
 10
382.2487070031115763
 20
280.1424599578887182
 30
0.0
  0
VERTEX
  5
894
  8
0
  6
CONTINUOUS
 62
     1
 10
382.2487070031115763
 20
211.8708095284395085
 30
0.0
 42
0.4142135623730951
  0
VERTEX
  5
895
  8
0
  6
CONTINUOUS
 62
     1
 10
384.2487070031115763
 20
209.8708095284395085
 30
0.0
  0
VERTEX
  5
896
  8
0
  6
CONTINUOUS
 62
     1
 10
386.7487070031115763
 20
209.8708095284395085
 30
0.0
 42
-0.4142135623730951
  0
VERTEX
  5
897
  8
0
  6
CONTINUOUS
 62
     1
 10
388.2487070031115763
 20
208.3708095284395085
 30
0.0
  0
VERTEX
  5
898
  8
0
  6
CONTINUOUS
 62
     1
 10
388.2487070031115763
 20
207.4991590989895087
 30
0.0
  0
VERTEX
  5
899
  8
0
  6
CONTINUOUS
 62
     1
 10
388.2487070031115763
 20
197.4008095284391118
 30
0.0
 42
0.4142135623730951
  0
SEQEND
  5
89A
  8
0
  6
CONTINUOUS
 62
     1
  0
LINE
  5
32E
  8
0
  6
CONTINUOUS
 62
     1
 10
716.389107432560877
 20
293.2408095284391152
 30
0.0
 11
628.3891074325611044
 21
293.2408095284391152
 31
0.0
  0
LINE
  5
32F
  8
0
  6
CONTINUOUS
 62
     1
 10
601.3891074325611044
 20
293.2408095284391152
 30
0.0
 11
513.3470565736620301
 21
293.2408095284391152
 31
0.0
  0
LINE
  5
330
  8
0
  6
CONTINUOUS
 62
     1
 10
486.3470565736619733
 20
293.2408095284391152
 30
0.0
 11
398.347056573662087
 21
293.2408095284391152
 31
0.0
  0
LINE
  5
331
  8
0
  6
CONTINUOUS
 62
     1
 10
388.2487070031115763
 20
283.1424599578887182
 30
0.0
 11
388.2487070031112921
 21
208.3708095284395085
 31
0.0
  0
LINE
  5
332
  8
0
  6
CONTINUOUS
 62
     1
 10
726.4874570031114445
 20
283.1424599578883772
 30
0.0
 11
726.4874570031113308
 21
205.9991590989897077
 31
0.0
  0
POLYLINE
  5
333
  8
0
  6
CONTINUOUS
 62
     1
 66
     1
 10
0.0
 20
0.0
 30
0.0
  0
VERTEX
  5
89B
  8
0
  6
CONTINUOUS
 62
     1
 10
716.389107432560877
 20
195.9008095284391118
 30
0.0
  0
VERTEX
  5
89C
  8
0
  6
CONTINUOUS
 62
     1
 10
655.8850103667623443
 20
196.7587383689640887
 30
0.0
  0
VERTEX
  5
89D
  8
0
  6
CONTINUOUS
 62
     1
 10
624.0531358893528022
 20
189.9926645785359085
 30
0.0
  0
SEQEND
  5
89E
  8
0
  6
CONTINUOUS
 62
     1
  0
POLYLINE
  5
334
  8
0
  6
CONTINUOUS
 62
     1
 66
     1
 10
0.0
 20
0.0
 30
0.0
  0
VERTEX
  5
89F
  8
0
  6
CONTINUOUS
 62
     1
 10
516.5942633366807968
 20
184.3790489264565906
 30
0.0
  0
VERTEX
  5
8A0
  8
0
  6
CONTINUOUS
 62
     1
 10
557.1187070031093072
 20
175.7653125171300985
 30
0.0
  0
VERTEX
  5
8A1
  8
0
  6
CONTINUOUS
 62
     1
 10
597.6431506695397502
 20
184.3790489264565906
 30
0.0
  0
SEQEND
  5
8A2
  8
0
  6
CONTINUOUS
 62
     1
  0
POLYLINE
  5
335
  8
0
  6
CONTINUOUS
 62
     1
 66
     1
 10
0.0
 20
0.0
 30
0.0
  0
VERTEX
  5
8A3
  8
0
  6
CONTINUOUS
 62
     1
 10
490.1842781168679153
 20
189.9926645785359085
 30
0.0
  0
VERTEX
  5
8A4
  8
0
  6
CONTINUOUS
 62
     1
 10
462.3886414943858085
 20
195.9008095284391118
 30
0.0
  0
VERTEX
  5
8A5
  8
0
  6
CONTINUOUS
 62
     1
 10
398.347056573662087
 20
195.9008095284391118
 30
0.0
  0
SEQEND
  5
8A6
  8
0
  6
CONTINUOUS
 62
     1
  0
POLYLINE
  5
336
  8
0
  6
CONTINUOUS
 62
     3
 66
     1
 10
0.0
 20
0.0
 30
0.0
 70
     1
  0
VERTEX
  5
8A7
  8
0
  6
CONTINUOUS
 62
     3
 10
390.449295339143589
 20
337.1947969055626118
 30
0.0
  0
VERTEX
  5
8A8
  8
0
  6
CONTINUOUS
 62
     3
 10
390.449295339143589
 20
352.503650698992999
 30
0.0
  0
VERTEX
  5
8A9
  8
0
  6
CONTINUOUS
 62
     3
 10
386.9514341146360152
 20
352.503650698992999
 30
0.0
  0
VERTEX
  5
8AA
  8
0
  6
CONTINUOUS
 62
     3
 10
383.449295339143589
 20
352.503650698992999
 30
0.0
  0
VERTEX
  5
8AB
  8
0
  6
CONTINUOUS
 62
     3
 10
383.449295339143589
 20
337.1947969055626118
 30
0.0
  0
VERTEX
  5
8AC
  8
0
  6
CONTINUOUS
 62
     3
 10
383.449295339143589
 20
335.1947969055626118
 30
0.0
  0
VERTEX
  5
8AD
  8
0
  6
CONTINUOUS
 62
     3
 10
386.949295339143589
 20
335.1947969055626118
 30
0.0
  0
VERTEX
  5
8AE
  8
0
  6
CONTINUOUS
 62
     3
 10
390.449295339143589
 20
335.1947969055626118
 30
0.0
  0
SEQEND
  5
8AF
  8
0
  6
CONTINUOUS
 62
     3
  0
POLYLINE
  5
337
  8
0
  6
CONTINUOUS
 62
     3
 66
     1
 10
0.0
 20
0.0
 30
0.0
 70
     1
  0
VERTEX
  5
8B0
  8
0
  6
CONTINUOUS
 62
     3
 10
30.2105453391438417
 20
334.9447969055626118
 30
0.0
  0
VERTEX
  5
8B1
  8
0
  6
CONTINUOUS
 62
     3
 10
30.2105453391438417
 20
350.2536506989924874
 30
0.0
  0
VERTEX
  5
8B2
  8
0
  6
CONTINUOUS
 62
     3
 10
26.7126841146360903
 20
350.2536506989924874
 30
0.0
  0
VERTEX
  5
8B3
  8
0
  6
CONTINUOUS
 62
     3
 10
23.210545339143831
 20
350.2536506989924874
 30
0.0
  0
VERTEX
  5
8B4
  8
0
  6
CONTINUOUS
 62
     3
 10
23.210545339143831
 20
334.9447969055626118
 30
0.0
  0
VERTEX
  5
8B5
  8
0
  6
CONTINUOUS
 62
     3
 10
23.210545339143831
 20
332.9447969055626118
 30
0.0
  0
VERTEX
  5
8B6
  8
0
  6
CONTINUOUS
 62
     3
 10
26.7105453391438417
 20
332.9447969055626118
 30
0.0
  0
VERTEX
  5
8B7
  8
0
  6
CONTINUOUS
 62
     3
 10
30.2105453391438417
 20
332.9447969055626118
 30
0.0
  0
SEQEND
  5
8B8
  8
0
  6
CONTINUOUS
 62
     3
  0
LINE
  5
342
  8
0
 10
373.658893111337477
 20
99.6595320503972744
 30
0.0
 11
374.658893111337477
 21
99.6595320503972744
 31
0.0
  0
LINE
  5
345
  8
0
 10
199.2299570031136113
 20
302.9908095284388878
 30
0.0
 11
199.2299570031136113
 21
303.9908095284388878
 31
0.0
  0
ENDSEC
  0
EOF
