  0
SECTION
  2
HEADER
  9
$ACADVER
  1
AC1009
  9
$INSBASE
 10
0.0
 20
0.0
 30
0.0
  9
$EXTMIN
 10
-594.8454431690386173
 20
-187.3659133239744961
 30
0.0
  9
$EXTMAX
 10
1369.5945920574311003
 20
1014.4708391522830198
 30
0.0
  9
$LIMMIN
 10
0.0
 20
0.0
  9
$LIMMAX
 10
12.0
 20
9.0
  9
$ORTHOMODE
 70
     0
  9
$REGENMODE
 70
     1
  9
$FILLMODE
 70
     1
  9
$QTEXTMODE
 70
     0
  9
$MIRRTEXT
 70
     0
  9
$DRAGMODE
 70
     2
  9
$LTSCALE
 40
1.0
  9
$OSMODE
 70
  2047
  9
$ATTMODE
 70
     1
  9
$TEXTSIZE
 40
8.0
  9
$TRACEWID
 40
0.05
  9
$TEXTSTYLE
  7
STANDARD
  9
$CLAYER
  8
0
  9
$CELTYPE
  6
CONTINUOUS
  9
$CECOLOR
 62
     2
  9
$DIMSCALE
 40
1.0
  9
$DIMASZ
 40
0.18
  9
$DIMEXO
 40
0.0625
  9
$DIMDLI
 40
0.38
  9
$DIMRND
 40
0.0
  9
$DIMDLE
 40
0.0
  9
$DIMEXE
 40
0.18
  9
$DIMTP
 40
0.0
  9
$DIMTM
 40
0.0
  9
$DIMTXT
 40
0.18
  9
$DIMCEN
 40
0.09
  9
$DIMTSZ
 40
0.0
  9
$DIMTOL
 70
     0
  9
$DIMLIM
 70
     0
  9
$DIMTIH
 70
     1
  9
$DIMTOH
 70
     1
  9
$DIMSE1
 70
     0
  9
$DIMSE2
 70
     0
  9
$DIMTAD
 70
     0
  9
$DIMZIN
 70
     0
  9
$DIMBLK
  1

  9
$DIMASO
 70
     1
  9
$DIMSHO
 70
     1
  9
$DIMPOST
  1

  9
$DIMAPOST
  1

  9
$DIMALT
 70
     0
  9
$DIMALTD
 70
     2
  9
$DIMALTF
 40
25.3999999999999986
  9
$DIMLFAC
 40
1.0
  9
$DIMTOFL
 70
     0
  9
$DIMTVP
 40
0.0
  9
$DIMTIX
 70
     0
  9
$DIMSOXD
 70
     0
  9
$DIMSAH
 70
     0
  9
$DIMBLK1
  1

  9
$DIMBLK2
  1

  9
$DIMSTYLE
  2
ISO-25
  9
$DIMCLRD
 70
     0
  9
$DIMCLRE
 70
     0
  9
$DIMCLRT
 70
     0
  9
$DIMTFAC
 40
1.0
  9
$DIMGAP
 40
0.09
  9
$LUNITS
 70
     2
  9
$LUPREC
 70
     4
  9
$SKETCHINC
 40
0.1
  9
$FILLETRAD
 40
1.5
  9
$AUNITS
 70
     0
  9
$AUPREC
 70
     0
  9
$MENU
  1
.
  9
$ELEVATION
 40
0.0
  9
$PELEVATION
 40
0.0
  9
$THICKNESS
 40
0.0
  9
$LIMCHECK
 70
     0
  9
$BLIPMODE
 70
     0
  9
$CHAMFERA
 40
0.0
  9
$CHAMFERB
 40
0.0
  9
$SKPOLY
 70
     0
  9
$TDCREATE
 40
2458485.5053356480784714
  9
$TDUPDATE
 40
2459379.8279166668653488
  9
$TDINDWG
 40
1.8545254630000001
  9
$TDUSRTIMER
 40
1.8545254630000001
  9
$USRTIMER
 70
     1
  9
$ANGBASE
 50
0.0
  9
$ANGDIR
 70
     0
  9
$PDMODE
 70
     0
  9
$PDSIZE
 40
0.0
  9
$PLINEWID
 40
0.0
  9
$COORDS
 70
     1
  9
$SPLFRAME
 70
     0
  9
$SPLINETYPE
 70
     6
  9
$SPLINESEGS
 70
     8
  9
$ATTDIA
 70
     1
  9
$ATTREQ
 70
     1
  9
$HANDLING
 70
     1
  9
$HANDSEED
  5
4912C
  9
$SURFTAB1
 70
     6
  9
$SURFTAB2
 70
     6
  9
$SURFTYPE
 70
     6
  9
$SURFU
 70
     6
  9
$SURFV
 70
     6
  9
$UCSNAME
  2

  9
$UCSORG
 10
0.0
 20
0.0
 30
0.0
  9
$UCSXDIR
 10
1.0
 20
0.0
 30
0.0
  9
$UCSYDIR
 10
0.0
 20
1.0
 30
0.0
  9
$PUCSNAME
  2

  9
$PUCSORG
 10
0.0
 20
0.0
 30
0.0
  9
$PUCSXDIR
 10
1.0
 20
0.0
 30
0.0
  9
$PUCSYDIR
 10
0.0
 20
1.0
 30
0.0
  9
$USERI1
 70
     0
  9
$USERI2
 70
     0
  9
$USERI3
 70
     0
  9
$USERI4
 70
     0
  9
$USERI5
 70
     0
  9
$USERR1
 40
0.0
  9
$USERR2
 40
0.0
  9
$USERR3
 40
0.0
  9
$USERR4
 40
0.0
  9
$USERR5
 40
0.0
  9
$WORLDVIEW
 70
     1
  9
$SHADEDGE
 70
     3
  9
$SHADEDIF
 70
    70
  9
$TILEMODE
 70
     1
  9
$MAXACTVP
 70
    64
  9
$PLIMCHECK
 70
     0
  9
$PEXTMIN
 10
1.0000000000000000E+20
 20
1.0000000000000000E+20
 30
1.0000000000000000E+20
  9
$PEXTMAX
 10
-1.0000000000000000E+20
 20
-1.0000000000000000E+20
 30
-1.0000000000000000E+20
  9
$PLIMMIN
 10
0.0
 20
0.0
  9
$PLIMMAX
 10
12.0
 20
9.0
  9
$UNITMODE
 70
     0
  9
$VISRETAIN
 70
     1
  9
$PLINEGEN
 70
     0
  9
$PSLTSCALE
 70
     1
  0
ENDSEC
  0
SECTION
  2
TABLES
  0
TABLE
  2
VPORT
 70
     1
  0
VPORT
  2
*ACTIVE
 70
     0
 10
0.0
 20
0.0
 11
1.0
 21
1.0
 12
751.6392571547139596
 22
791.3565339945371306
 13
0.0
 23
0.0
 14
10.0
 24
10.0
 15
10.0
 25
10.0
 16
0.0
 26
0.0
 36
1.0
 17
0.0
 27
0.0
 37
0.0
 40
914.6979957928380145
 41
1.8711111111111109
 42
50.0
 43
0.0
 44
0.0
 50
0.0
 51
0.0
 71
     0
 72
   100
 73
     1
 74
     3
 75
     0
 76
     0
 77
     0
 78
     0
  0
ENDTAB
  0
TABLE
  2
LTYPE
 70
     2
  0
LTYPE
  2
CONTINUOUS
 70
     0
  3
Solid line
 72
    65
 73
     0
 40
0.0
  0
ENDTAB
  0
TABLE
  2
LAYER
 70
     6
  0
LAYER
  2
0
 70
     0
 62
     7
  6
CONTINUOUS
  0
LAYER
  2
PDF_GEOMETRY
 70
     0
 62
     7
  6
CONTINUOUS
  0
LAYER
  2
PDF2_GEOMETRY
 70
     0
 62
     7
  6
CONTINUOUS
  0
LAYER
  2
BLACK
 70
     0
 62
     7
  6
CONTINUOUS
  0
LAYER
  2
OLED
 70
     0
 62
     7
  6
CONTINUOUS
  0
LAYER
  2
LAYER_1
 70
     0
 62
     7
  6
CONTINUOUS
  0
ENDTAB
  0
TABLE
  2
STYLE
 70
     2
  0
STYLE
  2
STANDARD
 70
     0
 40
0.0
 41
1.0
 50
0.0
 71
     0
 42
8.0
  3
txt
  4

  0
STYLE
  2
ANNOTATIVE
 70
     0
 40
0.0
 41
1.0
 50
0.0
 71
     0
 42
0.2
  3
txt
  4

  0
ENDTAB
  0
TABLE
  2
VIEW
 70
     3
  0
ENDTAB
  0
TABLE
  2
UCS
 70
     0
  0
ENDTAB
  0
TABLE
  2
APPID
 70
     5
  0
APPID
  2
ACAD
 70
     0
  0
APPID
  2
ACADANNOTATIVE
 70
     0
  0
APPID
  2
ACAD_EXEMPT_FROM_CAD_STANDARDS
 70
     0
  0
APPID
  2
ACAD_NAV_VCDISPLAY
 70
     0
  0
APPID
  2
ACAD_MLEADERVER
 70
     0
  0
ENDTAB
  0
TABLE
  2
DIMSTYLE
 70
     4
  0
DIMSTYLE
  2
STANDARD
 70
     0
  3

  4

  5

  6

  7

 40
1.0
 41
0.18
 42
0.0625
 43
0.38
 44
0.18
 45
0.0
 46
0.0
 47
0.0
 48
0.0
140
0.18
141
0.09
142
0.0
143
25.3999999999999986
144
1.0
145
0.0
146
1.0
147
0.09
 71
     0
 72
     0
 73
     1
 74
     1
 75
     0
 76
     0
 77
     0
 78
     0
170
     0
171
     2
172
     0
173
     0
174
     0
175
     0
176
     0
177
     0
178
     0
  0
DIMSTYLE
  2
ANNOTATIVE
 70
     0
  3

  4

  5

  6

  7

 40
1.0
 41
0.18
 42
0.0625
 43
0.38
 44
0.18
 45
0.0
 46
0.0
 47
0.0
 48
0.0
140
0.18
141
0.09
142
0.0
143
25.3999999999999986
144
1.0
145
0.0
146
1.0
147
0.09
 71
     0
 72
     0
 73
     1
 74
     1
 75
     0
 76
     0
 77
     0
 78
     0
170
     0
171
     2
172
     0
173
     0
174
     0
175
     0
176
     0
177
     0
178
     0
  0
DIMSTYLE
  2
ISO-25
 70
     0
  3

  4

  5

  6

  7

 40
1.0
 41
2.5
 42
0.625
 43
3.75
 44
1.25
 45
0.0
 46
0.0
 47
0.0
 48
0.0
140
2.5
141
2.5
142
0.0
143
0.03937007874016
144
1.0
145
0.0
146
1.0
147
0.625
 71
     0
 72
     0
 73
     0
 74
     0
 75
     0
 76
     0
 77
     1
 78
     8
170
     0
171
     3
172
     1
173
     0
174
     0
175
     0
176
     0
177
     0
178
     0
  0
ENDTAB
  0
ENDSEC
  0
SECTION
  2
BLOCKS
  0
BLOCK
  8
0
  2
$MODEL_SPACE
 70
     0
 10
0.0
 20
0.0
 30
0.0
  3
$MODEL_SPACE
  1

  0
ENDBLK
  5
46C76
  8
0
  0
BLOCK
 67
     1
  8
0
  2
$PAPER_SPACE
 70
     0
 10
0.0
 20
0.0
 30
0.0
  3
$PAPER_SPACE
  1

  0
ENDBLK
  5
46C72
 67
     1
  8
0
  0
BLOCK
  8
0
 62
     6
  2
A$CDA3EF928
 70
     0
 10
0.0
 20
0.0
 30
0.0
  3
A$CDA3EF928
  1

  0
LINE
  5
44A7D
  8
LAYER_1
 10
21.1000200000000007
 20
19.6539999999999999
 30
0.0
 11
21.5281799999999883
 21
19.7403469999999999
 31
0.0
  0
LINE
  5
44A7E
  8
LAYER_1
 10
21.5281799999999883
 20
19.7403469999999999
 30
0.0
 11
21.8778630000000014
 21
19.975988000000001
 31
0.0
  0
LINE
  5
44A7F
  8
LAYER_1
 10
21.8778630000000014
 20
19.975988000000001
 30
0.0
 11
22.1136789999999905
 21
20.3255530000000206
 31
0.0
  0
LINE
  5
44A80
  8
LAYER_1
 10
22.1136789999999905
 20
20.3255530000000206
 30
0.0
 11
22.2002399999999902
 21
20.7536699999999996
 31
0.0
  0
LINE
  5
44A81
  8
LAYER_1
 10
22.2002399999999902
 20
20.7536699999999996
 30
0.0
 11
22.1165519999999987
 21
21.1747430000000101
 31
0.0
  0
LINE
  5
44A82
  8
LAYER_1
 10
22.1165519999999987
 20
21.1747430000000101
 30
0.0
 11
21.8780609999999989
 21
21.5317139999999902
 31
0.0
  0
LINE
  5
44A83
  8
LAYER_1
 10
21.8780609999999989
 20
21.5317139999999902
 30
0.0
 11
21.5210919999999888
 21
21.7702090000000013
 31
0.0
  0
LINE
  5
44A84
  8
LAYER_1
 10
21.5210919999999888
 20
21.7702090000000013
 30
0.0
 11
21.1000200000000007
 21
21.8539000000000101
 31
0.0
  0
LINE
  5
44A85
  8
LAYER_1
 10
21.1000200000000007
 20
21.8539000000000101
 30
0.0
 11
20.6718970000000013
 21
21.7673409999999983
 31
0.0
  0
LINE
  5
44A86
  8
LAYER_1
 10
20.6718970000000013
 20
21.7673409999999983
 30
0.0
 11
20.3223279999999988
 21
21.5315230000000106
 31
0.0
  0
LINE
  5
44A87
  8
LAYER_1
 10
20.3223279999999988
 20
21.5315230000000106
 30
0.0
 11
20.0866849999999992
 21
21.1818360000000112
 31
0.0
  0
LINE
  5
44A88
  8
LAYER_1
 10
20.0866849999999992
 20
21.1818360000000112
 30
0.0
 11
20.0003399999999907
 21
20.7536699999999996
 31
0.0
  0
LINE
  5
44A89
  8
LAYER_1
 10
20.0003399999999907
 20
20.7536699999999996
 30
0.0
 11
20.0868460000000013
 21
20.3256840000000096
 31
0.0
  0
LINE
  5
44A8A
  8
LAYER_1
 10
20.0868460000000013
 20
20.3256840000000096
 30
0.0
 11
20.3225260000000105
 21
19.9761789999999984
 31
0.0
  0
LINE
  5
44A8B
  8
LAYER_1
 10
20.3225260000000105
 20
19.9761789999999984
 30
0.0
 11
20.672032999999999
 21
19.7405019999999993
 31
0.0
  0
LINE
  5
44A8C
  8
LAYER_1
 10
20.672032999999999
 20
19.7405019999999993
 30
0.0
 11
21.1000200000000007
 21
19.6539999999999999
 31
0.0
  0
LINE
  5
44A8D
  8
LAYER_1
 10
21.1000200000000007
 20
19.6539999999999999
 30
0.0
 11
21.1000200000000007
 21
19.6539999999999999
 31
0.0
  0
LINE
  5
44A8E
  8
LAYER_1
 10
2.1001200000000031
 20
19.6539999999999999
 30
0.0
 11
2.5282830000000001
 21
19.7403440000000003
 31
0.0
  0
LINE
  5
44A8F
  8
LAYER_1
 10
2.5282830000000001
 20
19.7403440000000003
 30
0.0
 11
2.8779689999999918
 21
19.9759850000000085
 31
0.0
  0
LINE
  5
44A90
  8
LAYER_1
 10
2.8779689999999918
 20
19.9759850000000085
 30
0.0
 11
3.1137879999999991
 21
20.3255510000000115
 31
0.0
  0
LINE
  5
44A91
  8
LAYER_1
 10
3.1137879999999991
 20
20.3255510000000115
 30
0.0
 11
3.2003499999999989
 21
20.7536699999999996
 31
0.0
  0
LINE
  5
44A92
  8
LAYER_1
 10
3.2003499999999989
 20
20.7536699999999996
 30
0.0
 11
3.1166620000000038
 21
21.174745999999999
 31
0.0
  0
LINE
  5
44A93
  8
LAYER_1
 10
3.1166620000000038
 20
21.174745999999999
 30
0.0
 11
2.878167000000003
 21
21.5317170000000004
 31
0.0
  0
LINE
  5
44A94
  8
LAYER_1
 10
2.878167000000003
 20
21.5317170000000004
 30
0.0
 11
2.521196000000002
 21
21.7702120000000185
 31
0.0
  0
LINE
  5
44A95
  8
LAYER_1
 10
2.521196000000002
 20
21.7702120000000185
 30
0.0
 11
2.1001200000000031
 21
21.8539000000000101
 31
0.0
  0
LINE
  5
44A96
  8
LAYER_1
 10
2.1001200000000031
 20
21.8539000000000101
 30
0.0
 11
1.679044000000004
 21
21.7702120000000185
 31
0.0
  0
LINE
  5
44A97
  8
LAYER_1
 10
1.679044000000004
 20
21.7702120000000185
 30
0.0
 11
1.3220730000000021
 21
21.5317170000000004
 31
0.0
  0
LINE
  5
44A98
  8
LAYER_1
 10
1.3220730000000021
 20
21.5317170000000004
 30
0.0
 11
1.083578000000001
 21
21.174745999999999
 31
0.0
  0
LINE
  5
44A99
  8
LAYER_1
 10
1.083578000000001
 20
21.174745999999999
 30
0.0
 11
0.9998899999999936
 21
20.7536699999999996
 31
0.0
  0
LINE
  5
44A9A
  8
LAYER_1
 10
0.9998899999999936
 20
20.7536699999999996
 30
0.0
 11
1.0864519999999931
 21
20.3255510000000115
 31
0.0
  0
LINE
  5
44A9B
  8
LAYER_1
 10
1.0864519999999931
 20
20.3255510000000115
 30
0.0
 11
1.3222709999999991
 21
19.9759850000000085
 31
0.0
  0
LINE
  5
44A9C
  8
LAYER_1
 10
1.3222709999999991
 20
19.9759850000000085
 30
0.0
 11
1.671957000000005
 21
19.7403440000000003
 31
0.0
  0
LINE
  5
44A9D
  8
LAYER_1
 10
1.671957000000005
 20
19.7403440000000003
 30
0.0
 11
2.1001200000000031
 21
19.6539999999999999
 31
0.0
  0
LINE
  5
44A9E
  8
LAYER_1
 10
2.1001200000000031
 20
19.6539999999999999
 30
0.0
 11
2.1001200000000031
 21
19.6539999999999999
 31
0.0
  0
LINE
  5
44A9F
  8
LAYER_1
 10
19.4750200000000007
 20
16.6540000000000106
 30
0.0
 11
19.8960919999999888
 21
16.7376910000000017
 31
0.0
  0
LINE
  5
44AA0
  8
LAYER_1
 10
19.8960919999999888
 20
16.7376910000000017
 30
0.0
 11
20.2530609999999989
 21
16.9761859999999984
 31
0.0
  0
LINE
  5
44AA1
  8
LAYER_1
 10
20.2530609999999989
 20
16.9761859999999984
 30
0.0
 11
20.4915519999999987
 21
17.3331570000000106
 31
0.0
  0
LINE
  5
44AA2
  8
LAYER_1
 10
20.4915519999999987
 20
17.3331570000000106
 30
0.0
 11
20.5752399999999902
 21
17.7542300000000104
 31
0.0
  0
LINE
  5
44AA3
  8
LAYER_1
 10
20.5752399999999902
 20
17.7542300000000104
 30
0.0
 11
20.4886789999999905
 21
18.1823470000000107
 31
0.0
  0
LINE
  5
44AA4
  8
LAYER_1
 10
20.4886789999999905
 20
18.1823470000000107
 30
0.0
 11
20.2528630000000085
 21
18.531912000000009
 31
0.0
  0
LINE
  5
44AA5
  8
LAYER_1
 10
20.2528630000000085
 20
18.531912000000009
 30
0.0
 11
19.9031799999999883
 21
18.7675530000000101
 31
0.0
  0
LINE
  5
44AA6
  8
LAYER_1
 10
19.9031799999999883
 20
18.7675530000000101
 30
0.0
 11
19.4750200000000007
 21
18.8539000000000101
 31
0.0
  0
LINE
  5
44AA7
  8
LAYER_1
 10
19.4750200000000007
 20
18.8539000000000101
 30
0.0
 11
19.047032999999999
 21
18.767398
 31
0.0
  0
LINE
  5
44AA8
  8
LAYER_1
 10
19.047032999999999
 20
18.767398
 30
0.0
 11
18.6975260000000105
 21
18.531721000000001
 31
0.0
  0
LINE
  5
44AA9
  8
LAYER_1
 10
18.6975260000000105
 20
18.531721000000001
 30
0.0
 11
18.4618460000000013
 21
18.1822160000000004
 31
0.0
  0
LINE
  5
44AAA
  8
LAYER_1
 10
18.4618460000000013
 20
18.1822160000000004
 30
0.0
 11
18.3753399999999907
 21
17.7542300000000104
 31
0.0
  0
LINE
  5
44AAB
  8
LAYER_1
 10
18.3753399999999907
 20
17.7542300000000104
 30
0.0
 11
18.4616849999999992
 21
17.3260639999999917
 31
0.0
  0
LINE
  5
44AAC
  8
LAYER_1
 10
18.4616849999999992
 20
17.3260639999999917
 30
0.0
 11
18.6973279999999988
 21
16.97637700000001
 31
0.0
  0
LINE
  5
44AAD
  8
LAYER_1
 10
18.6973279999999988
 20
16.97637700000001
 30
0.0
 11
19.0468970000000013
 21
16.7405590000000188
 31
0.0
  0
LINE
  5
44AAE
  8
LAYER_1
 10
19.0468970000000013
 20
16.7405590000000188
 30
0.0
 11
19.4750200000000007
 21
16.6540000000000106
 31
0.0
  0
LINE
  5
44AAF
  8
LAYER_1
 10
19.4750200000000007
 20
16.6540000000000106
 30
0.0
 11
19.4750200000000007
 21
16.6540000000000106
 31
0.0
  0
LINE
  5
44AB0
  8
LAYER_1
 10
3.7251200000000031
 20
16.6540000000000106
 30
0.0
 11
4.1461960000000033
 21
16.7376879999999915
 31
0.0
  0
LINE
  5
44AB1
  8
LAYER_1
 10
4.1461960000000033
 20
16.7376879999999915
 30
0.0
 11
4.503167000000003
 21
16.9761830000000202
 31
0.0
  0
LINE
  5
44AB2
  8
LAYER_1
 10
4.503167000000003
 20
16.9761830000000202
 30
0.0
 11
4.7416620000000052
 21
17.3331540000000111
 31
0.0
  0
LINE
  5
44AB3
  8
LAYER_1
 10
4.7416620000000052
 20
17.3331540000000111
 30
0.0
 11
4.8253500000000003
 21
17.7542300000000104
 31
0.0
  0
LINE
  5
44AB4
  8
LAYER_1
 10
4.8253500000000003
 20
17.7542300000000104
 30
0.0
 11
4.7387879999999987
 21
18.1823489999999985
 31
0.0
  0
LINE
  5
44AB5
  8
LAYER_1
 10
4.7387879999999987
 20
18.1823489999999985
 30
0.0
 11
4.5029689999999931
 21
18.5319150000000015
 31
0.0
  0
LINE
  5
44AB6
  8
LAYER_1
 10
4.5029689999999931
 20
18.5319150000000015
 30
0.0
 11
4.1532830000000001
 21
18.767555999999999
 31
0.0
  0
LINE
  5
44AB7
  8
LAYER_1
 10
4.1532830000000001
 20
18.767555999999999
 30
0.0
 11
3.7251200000000031
 21
18.8539000000000101
 31
0.0
  0
LINE
  5
44AB8
  8
LAYER_1
 10
3.7251200000000031
 20
18.8539000000000101
 30
0.0
 11
3.2969599999999981
 21
18.7675530000000101
 31
0.0
  0
LINE
  5
44AB9
  8
LAYER_1
 10
3.2969599999999981
 20
18.7675530000000101
 30
0.0
 11
2.9472769999999979
 21
18.531912000000009
 31
0.0
  0
LINE
  5
44ABA
  8
LAYER_1
 10
2.9472769999999979
 20
18.531912000000009
 30
0.0
 11
2.711460999999999
 21
18.1823470000000107
 31
0.0
  0
LINE
  5
44ABB
  8
LAYER_1
 10
2.711460999999999
 20
18.1823470000000107
 30
0.0
 11
2.62490000000001
 21
17.7542300000000104
 31
0.0
  0
LINE
  5
44ABC
  8
LAYER_1
 10
2.62490000000001
 20
17.7542300000000104
 30
0.0
 11
2.7085880000000042
 21
17.3331570000000106
 31
0.0
  0
LINE
  5
44ABD
  8
LAYER_1
 10
2.7085880000000042
 20
17.3331570000000106
 30
0.0
 11
2.9470790000000009
 21
16.9761859999999984
 31
0.0
  0
LINE
  5
44ABE
  8
LAYER_1
 10
2.9470790000000009
 20
16.9761859999999984
 30
0.0
 11
3.304048000000007
 21
16.7376910000000017
 31
0.0
  0
LINE
  5
44ABF
  8
LAYER_1
 10
3.304048000000007
 20
16.7376910000000017
 30
0.0
 11
3.7251200000000031
 21
16.6540000000000106
 31
0.0
  0
LINE
  5
44AC0
  8
LAYER_1
 10
3.7251200000000031
 20
16.6540000000000106
 30
0.0
 11
3.7251200000000031
 21
16.6540000000000106
 31
0.0
  0
LINE
  5
44AC1
  8
LAYER_1
 10
22.0999200000000009
 20
15.4540000000000006
 30
0.0
 11
22.520991999999989
 21
15.5376909999999793
 31
0.0
  0
LINE
  5
44AC2
  8
LAYER_1
 10
22.520991999999989
 20
15.5376909999999793
 30
0.0
 11
22.8779609999999991
 21
15.7761859999999992
 31
0.0
  0
LINE
  5
44AC3
  8
LAYER_1
 10
22.8779609999999991
 20
15.7761859999999992
 30
0.0
 11
23.1164519999999989
 21
16.1331570000000113
 31
0.0
  0
LINE
  5
44AC4
  8
LAYER_1
 10
23.1164519999999989
 20
16.1331570000000113
 30
0.0
 11
23.2001400000000011
 21
16.5542300000000218
 31
0.0
  0
LINE
  5
44AC5
  8
LAYER_1
 10
23.2001400000000011
 20
16.5542300000000218
 30
0.0
 11
23.1135790000000014
 21
16.9823470000000007
 31
0.0
  0
LINE
  5
44AC6
  8
LAYER_1
 10
23.1135790000000014
 20
16.9823470000000007
 30
0.0
 11
22.8777630000000016
 21
17.3319120000000204
 31
0.0
  0
LINE
  5
44AC7
  8
LAYER_1
 10
22.8777630000000016
 20
17.3319120000000204
 30
0.0
 11
22.5280799999999992
 21
17.5675530000000002
 31
0.0
  0
LINE
  5
44AC8
  8
LAYER_1
 10
22.5280799999999992
 20
17.5675530000000002
 30
0.0
 11
22.0999200000000009
 21
17.6539000000000108
 31
0.0
  0
LINE
  5
44AC9
  8
LAYER_1
 10
22.0999200000000009
 20
17.6539000000000108
 30
0.0
 11
21.6719329999999992
 21
17.5673980000000114
 31
0.0
  0
LINE
  5
44ACA
  8
LAYER_1
 10
21.6719329999999992
 20
17.5673980000000114
 30
0.0
 11
21.3224260000000108
 21
17.3317210000000017
 31
0.0
  0
LINE
  5
44ACB
  8
LAYER_1
 10
21.3224260000000108
 20
17.3317210000000017
 30
0.0
 11
21.0867460000000015
 21
16.9822159999999904
 31
0.0
  0
LINE
  5
44ACC
  8
LAYER_1
 10
21.0867460000000015
 20
16.9822159999999904
 30
0.0
 11
21.0002399999999909
 21
16.5542300000000218
 31
0.0
  0
LINE
  5
44ACD
  8
LAYER_1
 10
21.0002399999999909
 20
16.5542300000000218
 30
0.0
 11
21.0865849999999995
 21
16.1260639999999995
 31
0.0
  0
LINE
  5
44ACE
  8
LAYER_1
 10
21.0865849999999995
 20
16.1260639999999995
 30
0.0
 11
21.3222279999999991
 21
15.7763770000000108
 31
0.0
  0
LINE
  5
44ACF
  8
LAYER_1
 10
21.3222279999999991
 20
15.7763770000000108
 30
0.0
 11
21.6717970000000015
 21
15.5405590000000107
 31
0.0
  0
LINE
  5
44AD0
  8
LAYER_1
 10
21.6717970000000015
 20
15.5405590000000107
 30
0.0
 11
22.0999200000000009
 21
15.4540000000000006
 31
0.0
  0
LINE
  5
44AD1
  8
LAYER_1
 10
22.0999200000000009
 20
15.4540000000000006
 30
0.0
 11
22.0999200000000009
 21
15.4540000000000006
 31
0.0
  0
LINE
  5
44AD2
  8
LAYER_1
 10
1.1002200000000071
 20
15.4540000000000006
 30
0.0
 11
1.528342999999992
 21
15.5405590000000107
 31
0.0
  0
LINE
  5
44AD3
  8
LAYER_1
 10
1.528342999999992
 20
15.5405590000000107
 30
0.0
 11
1.877912000000008
 21
15.7763770000000108
 31
0.0
  0
LINE
  5
44AD4
  8
LAYER_1
 10
1.877912000000008
 20
15.7763770000000108
 30
0.0
 11
2.1135550000000038
 21
16.1260639999999995
 31
0.0
  0
LINE
  5
44AD5
  8
LAYER_1
 10
2.1135550000000038
 20
16.1260639999999995
 30
0.0
 11
2.1998999999999991
 21
16.5542300000000218
 31
0.0
  0
LINE
  5
44AD6
  8
LAYER_1
 10
2.1998999999999991
 20
16.5542300000000218
 30
0.0
 11
2.1133939999999991
 21
16.9822159999999904
 31
0.0
  0
LINE
  5
44AD7
  8
LAYER_1
 10
2.1133939999999991
 20
16.9822159999999904
 30
0.0
 11
1.8777139999999961
 21
17.3317210000000017
 31
0.0
  0
LINE
  5
44AD8
  8
LAYER_1
 10
1.8777139999999961
 20
17.3317210000000017
 30
0.0
 11
1.5282069999999941
 21
17.5673980000000114
 31
0.0
  0
LINE
  5
44AD9
  8
LAYER_1
 10
1.5282069999999941
 20
17.5673980000000114
 30
0.0
 11
1.1002200000000071
 21
17.6539000000000108
 31
0.0
  0
LINE
  5
44ADA
  8
LAYER_1
 10
1.1002200000000071
 20
17.6539000000000108
 30
0.0
 11
0.6720600000000019
 21
17.5675530000000002
 31
0.0
  0
LINE
  5
44ADB
  8
LAYER_1
 10
0.6720600000000019
 20
17.5675530000000002
 30
0.0
 11
0.3223769999999888
 21
17.3319120000000204
 31
0.0
  0
LINE
  5
44ADC
  8
LAYER_1
 10
0.3223769999999888
 20
17.3319120000000204
 30
0.0
 11
0.0865610000000032
 21
16.9823470000000007
 31
0.0
  0
LINE
  5
44ADD
  8
LAYER_1
 10
0.0865610000000032
 20
16.9823470000000007
 30
0.0
 11
0.0
 21
16.5542300000000218
 31
0.0
  0
LINE
  5
44ADE
  8
LAYER_1
 10
0.0
 20
16.5542300000000218
 30
0.0
 11
0.0836880000000093
 21
16.1331570000000113
 31
0.0
  0
LINE
  5
44ADF
  8
LAYER_1
 10
0.0836880000000093
 20
16.1331570000000113
 30
0.0
 11
0.3221789999999913
 21
15.7761859999999992
 31
0.0
  0
LINE
  5
44AE0
  8
LAYER_1
 10
0.3221789999999913
 20
15.7761859999999992
 30
0.0
 11
0.6791479999999979
 21
15.5376909999999793
 31
0.0
  0
LINE
  5
44AE1
  8
LAYER_1
 10
0.6791479999999979
 20
15.5376909999999793
 30
0.0
 11
1.1002200000000071
 21
15.4540000000000006
 31
0.0
  0
LINE
  5
44AE2
  8
LAYER_1
 10
1.1002200000000071
 20
15.4540000000000006
 30
0.0
 11
1.1002200000000071
 21
15.4540000000000006
 31
0.0
  0
LINE
  5
44AE3
  8
LAYER_1
 10
21.1000200000000007
 20
11.6540000000000106
 30
0.0
 11
21.4748449999999984
 21
11.7212999999999994
 31
0.0
  0
LINE
  5
44AE4
  8
LAYER_1
 10
21.4748449999999984
 20
11.7212999999999994
 30
0.0
 11
21.8502229999999997
 21
11.6540000000000106
 31
0.0
  0
LINE
  5
44AE5
  8
LAYER_1
 10
21.8502229999999997
 20
11.6540000000000106
 30
0.0
 11
22.2783429999999889
 21
11.740558
 31
0.0
  0
LINE
  5
44AE6
  8
LAYER_1
 10
22.2783429999999889
 20
11.740558
 30
0.0
 11
22.627911000000001
 21
11.9763730000000095
 31
0.0
  0
LINE
  5
44AE7
  8
LAYER_1
 10
22.627911000000001
 20
11.9763730000000095
 30
0.0
 11
22.8635550000000016
 21
12.32605700000002
 31
0.0
  0
LINE
  5
44AE8
  8
LAYER_1
 10
22.8635550000000016
 20
12.32605700000002
 30
0.0
 11
22.9499029999999884
 21
12.7542200000000001
 31
0.0
  0
LINE
  5
44AE9
  8
LAYER_1
 10
22.9499029999999884
 20
12.7542200000000001
 30
0.0
 11
22.8633999999999986
 21
13.1822090000000092
 31
0.0
  0
LINE
  5
44AEA
  8
LAYER_1
 10
22.8633999999999986
 20
13.1822090000000092
 30
0.0
 11
22.6277210000000117
 21
13.5317179999999997
 31
0.0
  0
LINE
  5
44AEB
  8
LAYER_1
 10
22.6277210000000117
 20
13.5317179999999997
 30
0.0
 11
22.2782120000000106
 21
13.7673970000000008
 31
0.0
  0
LINE
  5
44AEC
  8
LAYER_1
 10
22.2782120000000106
 20
13.7673970000000008
 30
0.0
 11
21.8502229999999997
 21
13.8539000000000101
 31
0.0
  0
LINE
  5
44AED
  8
LAYER_1
 10
21.8502229999999997
 20
13.8539000000000101
 30
0.0
 11
21.4759479999999989
 21
13.7872000000000092
 31
0.0
  0
LINE
  5
44AEE
  8
LAYER_1
 10
21.4759479999999989
 20
13.7872000000000092
 30
0.0
 11
21.1000200000000007
 21
13.8539000000000101
 31
0.0
  0
LINE
  5
44AEF
  8
LAYER_1
 10
21.1000200000000007
 20
13.8539000000000101
 30
0.0
 11
20.6720310000000005
 21
13.7673970000000008
 31
0.0
  0
LINE
  5
44AF0
  8
LAYER_1
 10
20.6720310000000005
 20
13.7673970000000008
 30
0.0
 11
20.3225220000000206
 21
13.5317179999999997
 31
0.0
  0
LINE
  5
44AF1
  8
LAYER_1
 10
20.3225220000000206
 20
13.5317179999999997
 30
0.0
 11
20.0868429999999982
 21
13.1822090000000092
 31
0.0
  0
LINE
  5
44AF2
  8
LAYER_1
 10
20.0868429999999982
 20
13.1822090000000092
 30
0.0
 11
20.0003399999999907
 21
12.7542200000000001
 31
0.0
  0
LINE
  5
44AF3
  8
LAYER_1
 10
20.0003399999999907
 20
12.7542200000000001
 30
0.0
 11
20.0866880000000094
 21
12.32605700000002
 31
0.0
  0
LINE
  5
44AF4
  8
LAYER_1
 10
20.0866880000000094
 20
12.32605700000002
 30
0.0
 11
20.3223319999999994
 21
11.9763730000000095
 31
0.0
  0
LINE
  5
44AF5
  8
LAYER_1
 10
20.3223319999999994
 20
11.9763730000000095
 30
0.0
 11
20.6719000000000115
 21
11.740558
 31
0.0
  0
LINE
  5
44AF6
  8
LAYER_1
 10
20.6719000000000115
 20
11.740558
 30
0.0
 11
21.1000200000000007
 21
11.6540000000000106
 31
0.0
  0
LINE
  5
44AF7
  8
LAYER_1
 10
21.1000200000000007
 20
11.6540000000000106
 30
0.0
 11
21.1000200000000007
 21
11.6540000000000106
 31
0.0
  0
LINE
  5
44AF8
  8
LAYER_1
 10
1.349919999999996
 20
11.6540000000000106
 30
0.0
 11
1.724194999999993
 21
11.7212999999999994
 31
0.0
  0
LINE
  5
44AF9
  8
LAYER_1
 10
1.724194999999993
 20
11.7212999999999994
 30
0.0
 11
2.1001230000000102
 21
11.6540000000000106
 31
0.0
  0
LINE
  5
44AFA
  8
LAYER_1
 10
2.1001230000000102
 20
11.6540000000000106
 30
0.0
 11
2.521196000000002
 21
11.7376879999999897
 31
0.0
  0
LINE
  5
44AFB
  8
LAYER_1
 10
2.521196000000002
 20
11.7376879999999897
 30
0.0
 11
2.878167000000003
 21
11.9761790000000108
 31
0.0
  0
LINE
  5
44AFC
  8
LAYER_1
 10
2.878167000000003
 20
11.9761790000000108
 30
0.0
 11
3.1166620000000038
 21
12.3331480000000102
 31
0.0
  0
LINE
  5
44AFD
  8
LAYER_1
 10
3.1166620000000038
 20
12.3331480000000102
 30
0.0
 11
3.2003529999999909
 21
12.7542200000000001
 31
0.0
  0
LINE
  5
44AFE
  8
LAYER_1
 10
3.2003529999999909
 20
12.7542200000000001
 30
0.0
 11
3.1137939999999982
 21
13.1823429999999995
 31
0.0
  0
LINE
  5
44AFF
  8
LAYER_1
 10
3.1137939999999982
 20
13.1823429999999995
 30
0.0
 11
2.8779760000000021
 21
13.5319120000000197
 31
0.0
  0
LINE
  5
44B00
  8
LAYER_1
 10
2.8779760000000021
 20
13.5319120000000197
 30
0.0
 11
2.528289
 21
13.7675550000000104
 31
0.0
  0
LINE
  5
44B01
  8
LAYER_1
 10
2.528289
 20
13.7675550000000104
 30
0.0
 11
2.1001230000000102
 21
13.8539000000000101
 31
0.0
  0
LINE
  5
44B02
  8
LAYER_1
 10
2.1001230000000102
 20
13.8539000000000101
 30
0.0
 11
1.7258479999999981
 21
13.7872000000000092
 31
0.0
  0
LINE
  5
44B03
  8
LAYER_1
 10
1.7258479999999981
 20
13.7872000000000092
 30
0.0
 11
1.349919999999996
 21
13.8539000000000101
 31
0.0
  0
LINE
  5
44B04
  8
LAYER_1
 10
1.349919999999996
 20
13.8539000000000101
 30
0.0
 11
0.9219310000000008
 21
13.7673970000000008
 31
0.0
  0
LINE
  5
44B05
  8
LAYER_1
 10
0.9219310000000008
 20
13.7673970000000008
 30
0.0
 11
0.5724220000000031
 21
13.5317179999999997
 31
0.0
  0
LINE
  5
44B06
  8
LAYER_1
 10
0.5724220000000031
 20
13.5317179999999997
 30
0.0
 11
0.3367429999999985
 21
13.1822090000000092
 31
0.0
  0
LINE
  5
44B07
  8
LAYER_1
 10
0.3367429999999985
 20
13.1822090000000092
 30
0.0
 11
0.2502399999999909
 21
12.7542200000000001
 31
0.0
  0
LINE
  5
44B08
  8
LAYER_1
 10
0.2502399999999909
 20
12.7542200000000001
 30
0.0
 11
0.3365880000000061
 21
12.32605700000002
 31
0.0
  0
LINE
  5
44B09
  8
LAYER_1
 10
0.3365880000000061
 20
12.32605700000002
 30
0.0
 11
0.5722319999999999
 21
11.9763730000000095
 31
0.0
  0
LINE
  5
44B0A
  8
LAYER_1
 10
0.5722319999999999
 20
11.9763730000000095
 30
0.0
 11
0.9218000000000046
 21
11.740558
 31
0.0
  0
LINE
  5
44B0B
  8
LAYER_1
 10
0.9218000000000046
 20
11.740558
 30
0.0
 11
1.349919999999996
 21
11.6540000000000106
 31
0.0
  0
LINE
  5
44B0C
  8
LAYER_1
 10
1.349919999999996
 20
11.6540000000000106
 30
0.0
 11
1.349919999999996
 21
11.6540000000000106
 31
0.0
  0
LINE
  5
44B0D
  8
LAYER_1
 10
19.4750200000000007
 20
6.6540000000000088
 30
0.0
 11
19.8960900000000009
 21
6.7376899999999988
 31
0.0
  0
LINE
  5
44B0E
  8
LAYER_1
 10
19.8960900000000009
 20
6.7376899999999988
 30
0.0
 11
20.2530569999999983
 21
6.9761830000000202
 31
0.0
  0
LINE
  5
44B0F
  8
LAYER_1
 10
20.2530569999999983
 20
6.9761830000000202
 30
0.0
 11
20.4915500000000002
 21
7.3331500000000034
 31
0.0
  0
LINE
  5
44B10
  8
LAYER_1
 10
20.4915500000000002
 20
7.3331500000000034
 30
0.0
 11
20.5752399999999902
 21
7.7542200000000019
 31
0.0
  0
LINE
  5
44B11
  8
LAYER_1
 10
20.5752399999999902
 20
7.7542200000000019
 30
0.0
 11
20.4915519999999987
 21
8.1752929999999964
 31
0.0
  0
LINE
  5
44B12
  8
LAYER_1
 10
20.4915519999999987
 20
8.1752929999999964
 30
0.0
 11
20.2530609999999989
 21
8.5322639999999961
 31
0.0
  0
LINE
  5
44B13
  8
LAYER_1
 10
20.2530609999999989
 20
8.5322639999999961
 30
0.0
 11
19.8960919999999888
 21
8.7707590000000124
 31
0.0
  0
LINE
  5
44B14
  8
LAYER_1
 10
19.8960919999999888
 20
8.7707590000000124
 30
0.0
 11
19.4750200000000007
 21
8.8544499999999982
 31
0.0
  0
LINE
  5
44B15
  8
LAYER_1
 10
19.4750200000000007
 20
8.8544499999999982
 30
0.0
 11
19.0468970000000013
 21
8.7678909999999899
 31
0.0
  0
LINE
  5
44B16
  8
LAYER_1
 10
19.0468970000000013
 20
8.7678909999999899
 30
0.0
 11
18.6973279999999988
 21
8.5320730000000111
 31
0.0
  0
LINE
  5
44B17
  8
LAYER_1
 10
18.6973279999999988
 20
8.5320730000000111
 30
0.0
 11
18.4616849999999992
 21
8.1823860000000224
 31
0.0
  0
LINE
  5
44B18
  8
LAYER_1
 10
18.4616849999999992
 20
8.1823860000000224
 30
0.0
 11
18.3753399999999907
 21
7.7542200000000019
 31
0.0
  0
LINE
  5
44B19
  8
LAYER_1
 10
18.3753399999999907
 20
7.7542200000000019
 30
0.0
 11
18.4616879999999988
 21
7.3260570000000191
 31
0.0
  0
LINE
  5
44B1A
  8
LAYER_1
 10
18.4616879999999988
 20
7.3260570000000191
 30
0.0
 11
18.6973319999999994
 21
6.9763730000000077
 31
0.0
  0
LINE
  5
44B1B
  8
LAYER_1
 10
18.6973319999999994
 20
6.9763730000000077
 30
0.0
 11
19.0469000000000115
 21
6.7405580000000072
 31
0.0
  0
LINE
  5
44B1C
  8
LAYER_1
 10
19.0469000000000115
 20
6.7405580000000072
 30
0.0
 11
19.4750200000000007
 21
6.6540000000000088
 31
0.0
  0
LINE
  5
44B1D
  8
LAYER_1
 10
19.4750200000000007
 20
6.6540000000000088
 30
0.0
 11
19.4750200000000007
 21
6.6540000000000088
 31
0.0
  0
LINE
  5
44B1E
  8
LAYER_1
 10
3.7251200000000031
 20
6.6540000000000088
 30
0.0
 11
4.1461929999999949
 21
6.7376879999999906
 31
0.0
  0
LINE
  5
44B1F
  8
LAYER_1
 10
4.1461929999999949
 20
6.7376879999999906
 30
0.0
 11
4.5031639999999982
 21
6.9761790000000161
 31
0.0
  0
LINE
  5
44B20
  8
LAYER_1
 10
4.5031639999999982
 20
6.9761790000000161
 30
0.0
 11
4.7416589999999967
 21
7.3331480000000084
 31
0.0
  0
LINE
  5
44B21
  8
LAYER_1
 10
4.7416589999999967
 20
7.3331480000000084
 30
0.0
 11
4.8253500000000003
 21
7.7542200000000019
 31
0.0
  0
LINE
  5
44B22
  8
LAYER_1
 10
4.8253500000000003
 20
7.7542200000000019
 30
0.0
 11
4.7416620000000052
 21
8.175296000000003
 31
0.0
  0
LINE
  5
44B23
  8
LAYER_1
 10
4.7416620000000052
 20
8.175296000000003
 30
0.0
 11
4.503167000000003
 21
8.5322670000000027
 31
0.0
  0
LINE
  5
44B24
  8
LAYER_1
 10
4.503167000000003
 20
8.5322670000000027
 30
0.0
 11
4.1461960000000033
 21
8.770762000000019
 31
0.0
  0
LINE
  5
44B25
  8
LAYER_1
 10
4.1461960000000033
 20
8.770762000000019
 30
0.0
 11
3.7251200000000031
 21
8.8544499999999982
 31
0.0
  0
LINE
  5
44B26
  8
LAYER_1
 10
3.7251200000000031
 20
8.8544499999999982
 30
0.0
 11
3.304048000000007
 21
8.7707590000000124
 31
0.0
  0
LINE
  5
44B27
  8
LAYER_1
 10
3.304048000000007
 20
8.7707590000000124
 30
0.0
 11
2.9470790000000009
 21
8.5322639999999961
 31
0.0
  0
LINE
  5
44B28
  8
LAYER_1
 10
2.9470790000000009
 20
8.5322639999999961
 30
0.0
 11
2.7085880000000042
 21
8.1752929999999964
 31
0.0
  0
LINE
  5
44B29
  8
LAYER_1
 10
2.7085880000000042
 20
8.1752929999999964
 30
0.0
 11
2.62490000000001
 21
7.7542200000000019
 31
0.0
  0
LINE
  5
44B2A
  8
LAYER_1
 10
2.62490000000001
 20
7.7542200000000019
 30
0.0
 11
2.7085900000000001
 21
7.3331500000000034
 31
0.0
  0
LINE
  5
44B2B
  8
LAYER_1
 10
2.7085900000000001
 20
7.3331500000000034
 30
0.0
 11
2.947083000000005
 21
6.9761830000000202
 31
0.0
  0
LINE
  5
44B2C
  8
LAYER_1
 10
2.947083000000005
 20
6.9761830000000202
 30
0.0
 11
3.3040500000000019
 21
6.7376899999999988
 31
0.0
  0
LINE
  5
44B2D
  8
LAYER_1
 10
3.3040500000000019
 20
6.7376899999999988
 30
0.0
 11
3.7251200000000031
 21
6.6540000000000088
 31
0.0
  0
LINE
  5
44B2E
  8
LAYER_1
 10
3.7251200000000031
 20
6.6540000000000088
 30
0.0
 11
3.7251200000000031
 21
6.6540000000000088
 31
0.0
  0
LINE
  5
44B2F
  8
LAYER_1
 10
20.4975199999999909
 20
0.0
 30
0.0
 11
20.9185930000000013
 21
0.0836880000000093
 31
0.0
  0
LINE
  5
44B30
  8
LAYER_1
 10
20.9185930000000013
 20
0.0836880000000093
 30
0.0
 11
21.2755639999999886
 21
0.3221790000000055
 31
0.0
  0
LINE
  5
44B31
  8
LAYER_1
 10
21.2755639999999886
 20
0.3221790000000055
 30
0.0
 11
21.5140589999999996
 21
0.6791479999999979
 31
0.0
  0
LINE
  5
44B32
  8
LAYER_1
 10
21.5140589999999996
 20
0.6791479999999979
 30
0.0
 11
21.5977500000000084
 21
1.1002200000000071
 31
0.0
  0
LINE
  5
44B33
  8
LAYER_1
 10
21.5977500000000084
 20
1.1002200000000071
 30
0.0
 11
21.5111910000000002
 21
1.5283430000000049
 31
0.0
  0
LINE
  5
44B34
  8
LAYER_1
 10
21.5111910000000002
 20
1.5283430000000049
 30
0.0
 11
21.2753729999999983
 21
1.877912000000008
 31
0.0
  0
LINE
  5
44B35
  8
LAYER_1
 10
21.2753729999999983
 20
1.877912000000008
 30
0.0
 11
20.9256859999999989
 21
2.1135550000000038
 31
0.0
  0
LINE
  5
44B36
  8
LAYER_1
 10
20.9256859999999989
 20
2.1135550000000038
 30
0.0
 11
20.4975199999999909
 21
2.1998999999999991
 31
0.0
  0
LINE
  5
44B37
  8
LAYER_1
 10
20.4975199999999909
 20
2.1998999999999991
 30
0.0
 11
20.0695340000000009
 21
2.1133939999999991
 31
0.0
  0
LINE
  5
44B38
  8
LAYER_1
 10
20.0695340000000009
 20
2.1133939999999991
 30
0.0
 11
19.7200289999999789
 21
1.8777140000000101
 31
0.0
  0
LINE
  5
44B39
  8
LAYER_1
 10
19.7200289999999789
 20
1.8777140000000101
 30
0.0
 11
19.4843520000000012
 21
1.5282069999999941
 31
0.0
  0
LINE
  5
44B3A
  8
LAYER_1
 10
19.4843520000000012
 20
1.5282069999999941
 30
0.0
 11
19.3978499999999983
 21
1.1002200000000071
 31
0.0
  0
LINE
  5
44B3B
  8
LAYER_1
 10
19.3978499999999983
 20
1.1002200000000071
 30
0.0
 11
19.4841970000000018
 21
0.6720600000000019
 31
0.0
  0
LINE
  5
44B3C
  8
LAYER_1
 10
19.4841970000000018
 20
0.6720600000000019
 30
0.0
 11
19.71983800000001
 21
0.322377000000003
 31
0.0
  0
LINE
  5
44B3D
  8
LAYER_1
 10
19.71983800000001
 20
0.322377000000003
 30
0.0
 11
20.0694030000000012
 21
0.0865610000000032
 31
0.0
  0
LINE
  5
44B3E
  8
LAYER_1
 10
20.0694030000000012
 20
0.0865610000000032
 30
0.0
 11
20.4975199999999909
 21
0.0
 31
0.0
  0
LINE
  5
44B3F
  8
LAYER_1
 10
20.4975199999999909
 20
0.0
 30
0.0
 11
20.4975199999999909
 21
0.0
 31
0.0
  0
LINE
  5
44B40
  8
LAYER_1
 10
2.7175200000000062
 20
0.0
 30
0.0
 11
3.1385930000000002
 21
0.0836880000000093
 31
0.0
  0
LINE
  5
44B41
  8
LAYER_1
 10
3.1385930000000002
 20
0.0836880000000093
 30
0.0
 11
3.4955639999999999
 21
0.3221790000000055
 31
0.0
  0
LINE
  5
44B42
  8
LAYER_1
 10
3.4955639999999999
 20
0.3221790000000055
 30
0.0
 11
3.7340590000000011
 21
0.6791479999999979
 31
0.0
  0
LINE
  5
44B43
  8
LAYER_1
 10
3.7340590000000011
 20
0.6791479999999979
 30
0.0
 11
3.817750000000002
 21
1.1002200000000071
 31
0.0
  0
LINE
  5
44B44
  8
LAYER_1
 10
3.817750000000002
 20
1.1002200000000071
 30
0.0
 11
3.731190999999995
 21
1.5283430000000049
 31
0.0
  0
LINE
  5
44B45
  8
LAYER_1
 10
3.731190999999995
 20
1.5283430000000049
 30
0.0
 11
3.495372999999999
 21
1.877912000000008
 31
0.0
  0
LINE
  5
44B46
  8
LAYER_1
 10
3.495372999999999
 20
1.877912000000008
 30
0.0
 11
3.145685999999996
 21
2.1135550000000038
 31
0.0
  0
LINE
  5
44B47
  8
LAYER_1
 10
3.145685999999996
 20
2.1135550000000038
 30
0.0
 11
2.7175200000000062
 21
2.1998999999999991
 31
0.0
  0
LINE
  5
44B48
  8
LAYER_1
 10
2.7175200000000062
 20
2.1998999999999991
 30
0.0
 11
2.289534000000002
 21
2.1133939999999991
 31
0.0
  0
LINE
  5
44B49
  8
LAYER_1
 10
2.289534000000002
 20
2.1133939999999991
 30
0.0
 11
1.940028999999994
 21
1.8777140000000101
 31
0.0
  0
LINE
  5
44B4A
  8
LAYER_1
 10
1.940028999999994
 20
1.8777140000000101
 30
0.0
 11
1.7043520000000001
 21
1.5282069999999941
 31
0.0
  0
LINE
  5
44B4B
  8
LAYER_1
 10
1.7043520000000001
 20
1.5282069999999941
 30
0.0
 11
1.617850000000004
 21
1.1002200000000071
 31
0.0
  0
LINE
  5
44B4C
  8
LAYER_1
 10
1.617850000000004
 20
1.1002200000000071
 30
0.0
 11
1.7041970000000071
 21
0.6720600000000019
 31
0.0
  0
LINE
  5
44B4D
  8
LAYER_1
 10
1.7041970000000071
 20
0.6720600000000019
 30
0.0
 11
1.9398380000000071
 21
0.322377000000003
 31
0.0
  0
LINE
  5
44B4E
  8
LAYER_1
 10
1.9398380000000071
 20
0.322377000000003
 30
0.0
 11
2.2894029999999921
 21
0.0865610000000032
 31
0.0
  0
LINE
  5
44B4F
  8
LAYER_1
 10
2.2894029999999921
 20
0.0865610000000032
 30
0.0
 11
2.7175200000000062
 21
0.0
 31
0.0
  0
LINE
  5
44B50
  8
LAYER_1
 10
2.7175200000000062
 20
0.0
 30
0.0
 11
2.7175200000000062
 21
0.0
 31
0.0
  0
ENDBLK
  5
44B52
  8
0
 62
     6
  0
BLOCK
  8
0
 62
     6
  2
A$C316E33FA
 70
     0
 10
0.0
 20
0.0
 30
0.0
  3
A$C316E33FA
  1

  0
POLYLINE
  5
44CD2
  8
0
  6
CONTINUOUS
 62
     1
 66
     1
 10
0.0
 20
0.0
 30
0.0
 70
     1
  0
VERTEX
  5
48FB4
  8
0
  6
CONTINUOUS
 62
     1
 10
6.250000000000056
 20
20.0300494035462613
 30
0.0
  0
VERTEX
  5
48FB5
  8
0
  6
CONTINUOUS
 62
     1
 10
13.2600000000000495
 20
20.0300494035462613
 30
0.0
 42
-0.3333333333333495
  0
VERTEX
  5
48FB6
  8
0
  6
CONTINUOUS
 62
     1
 10
14.2200000000000308
 20
19.3100494035462695
 30
0.0
  0
VERTEX
  5
48FB7
  8
0
  6
CONTINUOUS
 62
     1
 10
15.1300000000000008
 20
16.1900494035462401
 30
0.0
 42
0.7499999999999944
  0
VERTEX
  5
48FB8
  8
0
  6
CONTINUOUS
 62
     1
 10
20.8900000000000396
 20
16.1900494035463396
 30
0.0
  0
VERTEX
  5
48FB9
  8
0
  6
CONTINUOUS
 62
     1
 10
21.8000000000000114
 20
19.3100494035462695
 30
0.0
 42
-0.3333333333333353
  0
VERTEX
  5
48FBA
  8
0
  6
CONTINUOUS
 62
     1
 10
22.7599999999999909
 20
20.0300494035462613
 30
0.0
  0
VERTEX
  5
48FBB
  8
0
  6
CONTINUOUS
 62
     1
 10
73.8649841290767313
 20
20.0300494035462613
 30
0.0
 42
-0.0524077792830481
  0
VERTEX
  5
48FBC
  8
0
  6
CONTINUOUS
 62
     1
 10
74.9045425831655791
 20
19.9207874072153004
 30
0.0
  0
VERTEX
  5
48FBD
  8
0
  6
CONTINUOUS
 62
     1
 10
117.124051549216901
 20
10.9467537459949291
 30
0.0
 42
-0.3333333333333317
  0
VERTEX
  5
48FBE
  8
0
  6
CONTINUOUS
 62
     1
 10
117.9133768285326056
 20
10.0428922502815006
 30
0.0
  0
VERTEX
  5
48FBF
  8
0
  6
CONTINUOUS
 62
     1
 10
118.1548066698487958
 20
6.8018720973478111
 30
0.0
 42
0.7499999999999977
  0
VERTEX
  5
48FC0
  8
0
  6
CONTINUOUS
 62
     1
 10
123.7889368500757001
 20
5.6043007582376312
 30
0.0
  0
VERTEX
  5
48FC1
  8
0
  6
CONTINUOUS
 62
     1
 10
125.3277356420947939
 20
8.4669216338829294
 30
0.0
 42
-0.3333333333333482
  0
VERTEX
  5
48FC2
  8
0
  6
CONTINUOUS
 62
     1
 10
126.4164537561882042
 20
8.9715926832262216
 30
0.0
  0
VERTEX
  5
48FC3
  8
0
  6
CONTINUOUS
 62
     1
 10
168.1104415459113
 20
0.1092619963309431
 30
0.0
 42
0.1051042352656717
  0
VERTEX
  5
48FC4
  8
0
  6
CONTINUOUS
 62
     1
 10
170.1895584540887114
 20
0.1092619963309716
 30
0.0
  0
VERTEX
  5
48FC5
  8
0
  6
CONTINUOUS
 62
     1
 10
211.8835462438117077
 20
8.9715926832262411
 30
0.0
 42
-0.3333333333333534
  0
VERTEX
  5
48FC6
  8
0
  6
CONTINUOUS
 62
     1
 10
212.9722643579050896
 20
8.4669216338828761
 30
0.0
  0
VERTEX
  5
48FC7
  8
0
  6
CONTINUOUS
 62
     1
 10
214.5110631499242118
 20
5.6043007582375131
 30
0.0
 42
0.7500000000000046
  0
VERTEX
  5
48FC8
  8
0
  6
CONTINUOUS
 62
     1
 10
220.145193330150903
 20
6.8018720973479132
 30
0.0
  0
VERTEX
  5
48FC9
  8
0
  6
CONTINUOUS
 62
     1
 10
220.3866231714673063
 20
10.0428922502814402
 30
0.0
 42
-0.3333333333333194
  0
VERTEX
  5
48FCA
  8
0
  6
CONTINUOUS
 62
     1
 10
221.1759484507830109
 20
10.9467537459948794
 30
0.0
  0
VERTEX
  5
48FCB
  8
0
  6
CONTINUOUS
 62
     1
 10
263.1696351715797277
 20
19.8727874072153305
 30
0.0
 42
-0.0524077792830493
  0
VERTEX
  5
48FCC
  8
0
  6
CONTINUOUS
 62
     1
 10
264.2091936256683198
 20
19.9820494035462808
 30
0.0
  0
VERTEX
  5
48FCD
  8
0
  6
CONTINUOUS
 62
     1
 10
316.0527500000001169
 20
19.9820494035463199
 30
0.0
 42
-0.3333333333333131
  0
VERTEX
  5
48FCE
  8
0
  6
CONTINUOUS
 62
     1
 10
317.0127499999999827
 20
19.2620494035462713
 30
0.0
  0
VERTEX
  5
48FCF
  8
0
  6
CONTINUOUS
 62
     1
 10
317.9087499999999977
 20
16.1900494035462188
 30
0.0
 42
0.749999999999996
  0
VERTEX
  5
48FD0
  8
0
  6
CONTINUOUS
 62
     1
 10
323.6687499999999886
 20
16.1900494035463112
 30
0.0
  0
VERTEX
  5
48FD1
  8
0
  6
CONTINUOUS
 62
     1
 10
324.5647500000000036
 20
19.2620494035462784
 30
0.0
 42
-0.3333333333333093
  0
VERTEX
  5
48FD2
  8
0
  6
CONTINUOUS
 62
     1
 10
325.5247499999999832
 20
19.9820494035462808
 30
0.0
  0
VERTEX
  5
48FD3
  8
0
  6
CONTINUOUS
 62
     1
 10
333.3845364376267071
 20
19.9820494035462808
 30
0.0
 42
0.1989123673796876
  0
VERTEX
  5
48FD4
  8
0
  6
CONTINUOUS
 62
     1
 10
334.0916432188134877
 20
20.2749426223596991
 30
0.0
  0
VERTEX
  5
48FD5
  8
0
  6
CONTINUOUS
 62
     1
 10
338.5058567811864805
 20
24.6891561847327701
 30
0.0
 42
0.1989123673796423
  0
VERTEX
  5
48FD6
  8
0
  6
CONTINUOUS
 62
     1
 10
338.7987499999999272
 20
25.3962629659192913
 30
0.0
  0
VERTEX
  5
48FD7
  8
0
  6
CONTINUOUS
 62
     1
 10
338.7987499999999841
 20
112.5158358411730006
 30
0.0
 42
0.198912367379664
  0
VERTEX
  5
48FD8
  8
0
  6
CONTINUOUS
 62
     1
 10
338.5058567811864805
 20
113.2229426223595965
 30
0.0
  0
VERTEX
  5
48FD9
  8
0
  6
CONTINUOUS
 62
     1
 10
334.0916432188133172
 20
117.6371561847328024
 30
0.0
 42
0.1989123673797242
  0
VERTEX
  5
48FDA
  8
0
  6
CONTINUOUS
 62
     1
 10
333.3845364376267071
 20
117.9300494035462066
 30
0.0
  0
VERTEX
  5
48FDB
  8
0
  6
CONTINUOUS
 62
     1
 10
325.5387499999998795
 20
117.9300494035462066
 30
0.0
 42
-0.3333333333333786
  0
VERTEX
  5
48FDC
  8
0
  6
CONTINUOUS
 62
     1
 10
324.5787500000001273
 20
118.6500494035462054
 30
0.0
  0
VERTEX
  5
48FDD
  8
0
  6
CONTINUOUS
 62
     1
 10
323.6687499999999886
 20
121.7700494035461958
 30
0.0
 42
0.7499999999999691
  0
VERTEX
  5
48FDE
  8
0
  6
CONTINUOUS
 62
     1
 10
317.9087499999999977
 20
121.7700494035461958
 30
0.0
  0
VERTEX
  5
48FDF
  8
0
  6
CONTINUOUS
 62
     1
 10
316.9987499999999727
 20
118.6500494035462054
 30
0.0
 42
-0.3333333333333345
  0
VERTEX
  5
48FE0
  8
0
  6
CONTINUOUS
 62
     1
 10
316.0387499999998795
 20
117.9300494035462066
 30
0.0
  0
VERTEX
  5
48FE1
  8
0
  6
CONTINUOUS
 62
     1
 10
246.2458203102868026
 20
117.9300494035462066
 30
0.0
  0
VERTEX
  5
48FE2
  8
0
  6
CONTINUOUS
 62
     1
 10
214.2329845121062988
 20
111.125511096978002
 30
0.0
 42
-0.3333333333333699
  0
VERTEX
  5
48FE3
  8
0
  6
CONTINUOUS
 62
     1
 10
213.1442663980130021
 20
111.6301821463212036
 30
0.0
  0
VERTEX
  5
48FE4
  8
0
  6
CONTINUOUS
 62
     1
 10
211.6054676059939084
 20
114.4928030219665942
 30
0.0
 42
0.7500000000000067
  0
VERTEX
  5
48FE5
  8
0
  6
CONTINUOUS
 62
     1
 10
205.9713374257671887
 20
113.2952316828562971
 30
0.0
  0
VERTEX
  5
48FE6
  8
0
  6
CONTINUOUS
 62
     1
 10
205.7299075844508138
 20
110.0542115299225969
 30
0.0
 42
-0.333333333333315
  0
VERTEX
  5
48FE7
  8
0
  6
CONTINUOUS
 62
     1
 10
204.9405823051351945
 20
109.1503500342091968
 30
0.0
  0
VERTEX
  5
48FE8
  8
0
  6
CONTINUOUS
 62
     1
 10
164.7453278824341112
 20
100.6065849586681935
 30
0.0
 42
-0.105104235265693
  0
VERTEX
  5
48FE9
  8
0
  6
CONTINUOUS
 62
     1
 10
164.3295045007984072
 20
100.6065849586681935
 30
0.0
  0
VERTEX
  5
48FEA
  8
0
  6
CONTINUOUS
 62
     1
 10
132.0402146502497089
 20
107.4698853880675955
 30
0.0
 42
-0.3333333333333223
  0
VERTEX
  5
48FEB
  8
0
  6
CONTINUOUS
 62
     1
 10
131.2508893709340896
 20
108.3737468837809956
 30
0.0
  0
VERTEX
  5
48FEC
  8
0
  6
CONTINUOUS
 62
     1
 10
131.009459529617601
 20
111.6147670367145963
 30
0.0
 42
0.7499999999999954
  0
VERTEX
  5
48FED
  8
0
  6
CONTINUOUS
 62
     1
 10
125.3753293493907961
 20
112.812338375824794
 30
0.0
  0
VERTEX
  5
48FEE
  8
0
  6
CONTINUOUS
 62
     1
 10
123.8365305573718018
 20
109.9497175001795028
 30
0.0
 42
-0.3333333333333328
  0
VERTEX
  5
48FEF
  8
0
  6
CONTINUOUS
 62
     1
 10
122.7478124432785052
 20
109.4450464508363012
 30
0.0
  0
VERTEX
  5
48FF0
  8
0
  6
CONTINUOUS
 62
     1
 10
82.931819528497897
 20
117.9081970042799981
 30
0.0
 42
0.0524077792830826
  0
VERTEX
  5
48FF1
  8
0
  6
CONTINUOUS
 62
     1
 10
82.7239078376800592
 20
117.9300494035462066
 30
0.0
  0
VERTEX
  5
48FF2
  8
0
  6
CONTINUOUS
 62
     1
 10
22.7600000000000513
 20
117.9300494035462066
 30
0.0
 42
-0.3333333333333426
  0
VERTEX
  5
48FF3
  8
0
  6
CONTINUOUS
 62
     1
 10
21.8000000000000114
 20
118.6500494035462054
 30
0.0
  0
VERTEX
  5
48FF4
  8
0
  6
CONTINUOUS
 62
     1
 10
20.8900000000000396
 20
121.7700494035461958
 30
0.0
 42
0.7499999999999956
  0
VERTEX
  5
48FF5
  8
0
  6
CONTINUOUS
 62
     1
 10
15.1300000000000008
 20
121.7700494035461958
 30
0.0
  0
VERTEX
  5
48FF6
  8
0
  6
CONTINUOUS
 62
     1
 10
14.2200000000000308
 20
118.6500494035463049
 30
0.0
 42
-0.3333333333333337
  0
VERTEX
  5
48FF7
  8
0
  6
CONTINUOUS
 62
     1
 10
13.2599999999999802
 20
117.9300494035462066
 30
0.0
  0
VERTEX
  5
48FF8
  8
0
  6
CONTINUOUS
 62
     1
 10
5.4142135623732051
 20
117.9300494035462066
 30
0.0
 42
0.1989123673796379
  0
VERTEX
  5
48FF9
  8
0
  6
CONTINUOUS
 62
     1
 10
4.7071067811866687
 20
117.6371561847328024
 30
0.0
  0
VERTEX
  5
48FFA
  8
0
  6
CONTINUOUS
 62
     1
 10
0.2928932188134503
 20
113.2229426223595965
 30
0.0
 42
0.1989123673796255
  0
VERTEX
  5
48FFB
  8
0
  6
CONTINUOUS
 62
     1
 10
0.0
 20
112.5158358411731001
 30
0.0
  0
VERTEX
  5
48FFC
  8
0
  6
CONTINUOUS
 62
     1
 10
0.0
 20
35.2800494035462719
 30
0.0
 42
0.4142135623730873
  0
VERTEX
  5
48FFD
  8
0
  6
CONTINUOUS
 62
     1
 10
1.0
 20
34.2800494035462933
 30
0.0
  0
VERTEX
  5
48FFE
  8
0
  6
CONTINUOUS
 62
     1
 10
4.2500000000000551
 20
34.2800494035462933
 30
0.0
 42
-0.4142135623730826
  0
VERTEX
  5
48FFF
  8
0
  6
CONTINUOUS
 62
     1
 10
5.250000000000056
 20
33.2800494035462719
 30
0.0
  0
VERTEX
  5
49000
  8
0
  6
CONTINUOUS
 62
     1
 10
5.250000000000056
 20
21.0300494035462613
 30
0.0
 42
0.4142135623730895
  0
SEQEND
  5
49001
  8
0
  6
CONTINUOUS
 62
     1
  0
POLYLINE
  5
44CD3
  8
0
  6
CONTINUOUS
 62
     1
 66
     1
 10
0.0
 20
0.0
 30
0.0
 70
     1
  0
VERTEX
  5
49002
  8
0
  6
CONTINUOUS
 62
     1
 10
39.3999999999999773
 20
36.8100494035463015
 30
0.0
  0
VERTEX
  5
49003
  8
0
  6
CONTINUOUS
 62
     1
 10
27.3999999999999702
 20
36.8100494035463015
 30
0.0
 42
0.4142135623731159
  0
VERTEX
  5
49004
  8
0
  6
CONTINUOUS
 62
     1
 10
26.3999999999999808
 20
35.8100494035462802
 30
0.0
  0
VERTEX
  5
49005
  8
0
  6
CONTINUOUS
 62
     1
 10
26.3999999999999808
 20
23.8100494035462518
 30
0.0
 42
0.4142135623730721
  0
VERTEX
  5
49006
  8
0
  6
CONTINUOUS
 62
     1
 10
27.4000000000000483
 20
22.8100494035462908
 30
0.0
  0
VERTEX
  5
49007
  8
0
  6
CONTINUOUS
 62
     1
 10
39.3999999999999773
 20
22.8100494035462908
 30
0.0
 42
0.4142135623730764
  0
VERTEX
  5
49008
  8
0
  6
CONTINUOUS
 62
     1
 10
40.3999999999999773
 20
23.8100494035463193
 30
0.0
  0
VERTEX
  5
49009
  8
0
  6
CONTINUOUS
 62
     1
 10
40.3999999999999773
 20
35.8100494035463015
 30
0.0
 42
0.4142135623730888
  0
SEQEND
  5
4900A
  8
0
  6
CONTINUOUS
 62
     1
  0
ENDBLK
  5
44CD5
  8
0
 62
     6
  0
ENDSEC
  0
SECTION
  2
ENTITIES
  0
POLYLINE
  5
44B63
  8
0
  6
CONTINUOUS
 62
     1
 66
     1
 10
0.0
 20
0.0
 30
0.0
 70
     1
  0
VERTEX
  5
48CF7
  8
0
  6
CONTINUOUS
 62
     1
 10
154.6700695951448949
 20
404.8822394874107999
 30
0.0
  0
VERTEX
  5
48CF8
  8
0
  6
CONTINUOUS
 62
     1
 10
140.6043070965928905
 20
407.8720096013703937
 30
0.0
 42
0.4142135623730718
  0
VERTEX
  5
48CF9
  8
0
  6
CONTINUOUS
 62
     1
 10
139.4182478050418013
 20
407.1017736914541842
 30
0.0
  0
VERTEX
  5
48CFA
  8
0
  6
CONTINUOUS
 62
     1
 10
136.9233075152278047
 20
395.364002482648516
 30
0.0
 42
0.4142135623731082
  0
VERTEX
  5
48CFB
  8
0
  6
CONTINUOUS
 62
     1
 10
137.6935434251435879
 20
394.177943191096972
 30
0.0
  0
VERTEX
  5
48CFC
  8
0
  6
CONTINUOUS
 62
     1
 10
151.7593059236967008
 20
391.1881730771377192
 30
0.0
 42
0.4142135623731316
  0
VERTEX
  5
48CFD
  8
0
  6
CONTINUOUS
 62
     1
 10
152.9453652152479037
 20
391.9584089870538151
 30
0.0
  0
VERTEX
  5
48CFE
  8
0
  6
CONTINUOUS
 62
     1
 10
155.4403055050605928
 20
403.6961801958593128
 30
0.0
 42
0.4142135623731081
  0
SEQEND
  5
48CFF
  8
0
  6
CONTINUOUS
 62
     1
  0
POLYLINE
  5
44B64
  8
0
  6
CONTINUOUS
 62
     1
 66
     1
 10
0.0
 20
0.0
 30
0.0
 70
     1
  0
VERTEX
  5
48D00
  8
0
  6
CONTINUOUS
 62
     1
 10
101.6558370127195019
 20
402.8556201065193818
 30
0.0
  0
VERTEX
  5
48D01
  8
0
  6
CONTINUOUS
 62
     1
 10
106.5465750163848071
 20
401.8160616524314719
 30
0.0
 42
0.0236362162189824
  0
VERTEX
  5
48D02
  8
0
  6
CONTINUOUS
 62
     1
 10
106.6398271936708966
 20
401.8008044031889767
 30
0.0
 42
0.4141704366929254
  0
VERTEX
  5
48D03
  8
0
  6
CONTINUOUS
 62
     1
 10
107.4100937064257977
 20
400.614889138815272
 30
0.0
  0
VERTEX
  5
48D04
  8
0
  6
CONTINUOUS
 62
     1
 10
109.6086598917737973
 20
400.1475694698539201
 30
0.0
 42
0.0240240556255289
  0
VERTEX
  5
48D05
  8
0
  6
CONTINUOUS
 62
     1
 10
109.7015347148907978
 20
400.123113366950804
 30
0.0
  0
VERTEX
  5
48D06
  8
0
  6
CONTINUOUS
 62
     1
 10
121.4393059236970061
 20
397.628173077137717
 30
0.0
 42
0.4142135623730824
  0
VERTEX
  5
48D07
  8
0
  6
CONTINUOUS
 62
     1
 10
122.6253652152474984
 20
398.3984089870538128
 30
0.0
  0
VERTEX
  5
48D08
  8
0
  6
CONTINUOUS
 62
     1
 10
122.6278733193148014
 20
398.4102086889624275
 30
0.0
 42
0.0248928629650061
  0
VERTEX
  5
48D09
  8
0
  6
CONTINUOUS
 62
     1
 10
122.7240586366195032
 20
398.3847021589634778
 30
0.0
  0
VERTEX
  5
48D0A
  8
0
  6
CONTINUOUS
 62
     1
 10
124.8951178610975035
 20
397.9232292750263014
 30
0.0
 42
0.0298424820520141
  0
VERTEX
  5
48D0B
  8
0
  6
CONTINUOUS
 62
     1
 10
125.0100891278398052
 20
397.8915205765558198
 30
0.0
  0
VERTEX
  5
48D0C
  8
0
  6
CONTINUOUS
 62
     1
 10
129.9008271315078957
 20
396.8519621224672846
 30
0.0
 42
0.4142135623731571
  0
VERTEX
  5
48D0D
  8
0
  6
CONTINUOUS
 62
     1
 10
131.086886423058786
 20
397.6221980323833805
 30
0.0
  0
VERTEX
  5
48D0E
  8
0
  6
CONTINUOUS
 62
     1
 10
133.7897384036897961
 20
410.3381168419226128
 30
0.0
 42
0.4142135623727938
  0
VERTEX
  5
48D0F
  8
0
  6
CONTINUOUS
 62
     1
 10
133.0195024937738992
 20
411.5241761334739863
 30
0.0
  0
VERTEX
  5
48D10
  8
0
  6
CONTINUOUS
 62
     1
 10
130.8484432693215069
 20
411.9856490174055921
 30
0.0
 42
0.0298424820536643
  0
VERTEX
  5
48D11
  8
0
  6
CONTINUOUS
 62
     1
 10
130.7334720025667139
 20
412.0173577158802232
 30
0.0
  0
VERTEX
  5
48D12
  8
0
  6
CONTINUOUS
 62
     1
 10
125.8427339988874962
 20
413.0569161699709753
 30
0.0
 42
0.4142135623740356
  0
VERTEX
  5
48D13
  8
0
  6
CONTINUOUS
 62
     1
 10
124.6566747073350001
 20
412.2866802600556753
 30
0.0
  0
VERTEX
  5
48D14
  8
0
  6
CONTINUOUS
 62
     1
 10
124.4462549124504989
 20
411.2967329574116775
 30
0.0
 42
0.0248928629654563
  0
VERTEX
  5
48D15
  8
0
  6
CONTINUOUS
 62
     1
 10
124.3500695951447028
 20
411.3222394874107977
 30
0.0
  0
VERTEX
  5
48D16
  8
0
  6
CONTINUOUS
 62
     1
 10
122.1515034097955947
 20
411.789559156372718
 30
0.0
 42
0.0240240556246659
  0
VERTEX
  5
48D17
  8
0
  6
CONTINUOUS
 62
     1
 10
122.0586285866789069
 20
411.8140152592756067
 30
0.0
  0
VERTEX
  5
48D18
  8
0
  6
CONTINUOUS
 62
     1
 10
110.3208573778747024
 20
414.30895554908858
 30
0.0
 42
0.0236362134955536
  0
VERTEX
  5
48D19
  8
0
  6
CONTINUOUS
 62
     1
 10
110.2276052114067966
 20
414.3242127970826232
 30
0.0
  0
VERTEX
  5
48D1A
  8
0
  6
CONTINUOUS
 62
     1
 10
110.4354862885687965
 20
415.3022163718877096
 30
0.0
 42
0.4142135623728282
  0
VERTEX
  5
48D1B
  8
0
  6
CONTINUOUS
 62
     1
 10
109.6652503786528996
 20
416.4882756634390262
 30
0.0
  0
VERTEX
  5
48D1C
  8
0
  6
CONTINUOUS
 62
     1
 10
107.4941911541886981
 20
416.9497485473729057
 30
0.0
 42
0.0298424820589184
  0
VERTEX
  5
48D1D
  8
0
  6
CONTINUOUS
 62
     1
 10
107.3792198874354966
 20
416.9814572458473094
 30
0.0
  0
VERTEX
  5
48D1E
  8
0
  6
CONTINUOUS
 62
     1
 10
102.4884818837658003
 20
418.0210156999362994
 30
0.0
 42
0.414213562373473
  0
VERTEX
  5
48D1F
  8
0
  6
CONTINUOUS
 62
     1
 10
101.3024225922148958
 20
417.2507797900203741
 30
0.0
  0
VERTEX
  5
48D20
  8
0
  6
CONTINUOUS
 62
     1
 10
98.5995706115838857
 20
404.534860980481028
 30
0.0
 42
0.4142135623723204
  0
VERTEX
  5
48D21
  8
0
  6
CONTINUOUS
 62
     1
 10
99.3698065214996404
 20
403.3488016889297114
 30
0.0
  0
VERTEX
  5
48D22
  8
0
  6
CONTINUOUS
 62
     1
 10
101.5408657459537949
 20
402.8873288049977077
 30
0.0
 42
0.0298424820624604
  0
SEQEND
  5
48D23
  8
0
  6
CONTINUOUS
 62
     1
  0
POLYLINE
  5
44B65
  8
0
  6
CONTINUOUS
 62
     1
 66
     1
 10
0.0
 20
0.0
 30
0.0
 70
     1
  0
VERTEX
  5
48D24
  8
0
  6
CONTINUOUS
 62
     1
 10
321.6938021550138274
 20
461.3426767254127867
 30
0.0
  0
VERTEX
  5
48D25
  8
0
  6
CONTINUOUS
 62
     1
 10
316.69380215501468
 20
461.342676725412673
 30
0.0
 42
0.4142135623735843
  0
VERTEX
  5
48D26
  8
0
  6
CONTINUOUS
 62
     1
 10
315.6938021550158737
 20
460.342676725412673
 30
0.0
  0
VERTEX
  5
48D27
  8
0
  6
CONTINUOUS
 62
     1
 10
315.69380215501468
 20
447.342676725412673
 30
0.0
 42
0.4142135623730307
  0
VERTEX
  5
48D28
  8
0
  6
CONTINUOUS
 62
     1
 10
316.69380215501468
 20
446.3426767254130141
 30
0.0
  0
VERTEX
  5
48D29
  8
0
  6
CONTINUOUS
 62
     1
 10
321.6938021550138274
 20
446.3426767254131846
 30
0.0
 42
0.4142135623731618
  0
VERTEX
  5
48D2A
  8
0
  6
CONTINUOUS
 62
     1
 10
322.6938021550138274
 20
447.3426767254131278
 30
0.0
  0
VERTEX
  5
48D2B
  8
0
  6
CONTINUOUS
 62
     1
 10
322.6938021550138274
 20
460.3426767254131846
 30
0.0
 42
0.4142135623727582
  0
SEQEND
  5
48D2C
  8
0
  6
CONTINUOUS
 62
     1
  0
POLYLINE
  5
44B66
  8
0
  6
CONTINUOUS
 62
     1
 66
     1
 10
0.0
 20
0.0
 30
0.0
 70
     1
  0
VERTEX
  5
48D2D
  8
0
  6
CONTINUOUS
 62
     1
 10
286.7628021550228823
 20
481.4426761289487899
 30
0.0
  0
VERTEX
  5
48D2E
  8
0
  6
CONTINUOUS
 62
     1
 10
291.7628021550218023
 20
481.4426761289487899
 30
0.0
 42
0.4142135623735967
  0
VERTEX
  5
48D2F
  8
0
  6
CONTINUOUS
 62
     1
 10
292.7628021550206086
 20
482.4426761289489036
 30
0.0
  0
VERTEX
  5
48D30
  8
0
  6
CONTINUOUS
 62
     1
 10
292.7628021550206086
 20
483.4426764271809134
 30
0.0
  0
VERTEX
  5
48D31
  8
0
  6
CONTINUOUS
 62
     1
 10
309.6388021550234839
 20
483.4426764271809134
 30
0.0
  0
VERTEX
  5
48D32
  8
0
  6
CONTINUOUS
 62
     1
 10
309.6388021550234839
 20
482.4426761289486194
 30
0.0
 42
0.4142135623727877
  0
VERTEX
  5
48D33
  8
0
  6
CONTINUOUS
 62
     1
 10
310.6388021550234839
 20
481.4426761289486763
 30
0.0
  0
VERTEX
  5
48D34
  8
0
  6
CONTINUOUS
 62
     1
 10
315.6388021550208123
 20
481.4426761289487899
 30
0.0
 42
0.4142135623720363
  0
VERTEX
  5
48D35
  8
0
  6
CONTINUOUS
 62
     1
 10
316.6388021550229155
 20
482.4426761289489036
 30
0.0
  0
VERTEX
  5
48D36
  8
0
  6
CONTINUOUS
 62
     1
 10
316.6388021550217218
 20
483.4426764271809134
 30
0.0
  0
VERTEX
  5
48D37
  8
0
  6
CONTINUOUS
 62
     1
 10
316.7258021550177887
 20
483.4426764271809134
 30
0.0
 42
0.4142135623731475
  0
VERTEX
  5
48D38
  8
0
  6
CONTINUOUS
 62
     1
 10
317.7258021550179024
 20
484.4426764271807997
 30
0.0
  0
VERTEX
  5
48D39
  8
0
  6
CONTINUOUS
 62
     1
 10
317.7258021550179024
 20
496.4426764271807997
 30
0.0
 42
0.4142135623731421
  0
VERTEX
  5
48D3A
  8
0
  6
CONTINUOUS
 62
     1
 10
316.7258021550177887
 20
497.4426764271809134
 30
0.0
  0
VERTEX
  5
48D3B
  8
0
  6
CONTINUOUS
 62
     1
 10
285.6758021550181184
 20
497.4426764271809134
 30
0.0
 42
0.414213562373084
  0
VERTEX
  5
48D3C
  8
0
  6
CONTINUOUS
 62
     1
 10
284.6758021550181184
 20
496.4426764271807997
 30
0.0
  0
VERTEX
  5
48D3D
  8
0
  6
CONTINUOUS
 62
     1
 10
284.6758021550181184
 20
484.4426764271807997
 30
0.0
 42
0.41421356237308
  0
VERTEX
  5
48D3E
  8
0
  6
CONTINUOUS
 62
     1
 10
285.6758021550181184
 20
483.4426764271807997
 30
0.0
  0
VERTEX
  5
48D3F
  8
0
  6
CONTINUOUS
 62
     1
 10
285.7628021550228823
 20
483.4426764271809134
 30
0.0
  0
VERTEX
  5
48D40
  8
0
  6
CONTINUOUS
 62
     1
 10
285.7628021550228823
 20
482.4426761289486194
 30
0.0
 42
0.4142135623727877
  0
SEQEND
  5
48D41
  8
0
  6
CONTINUOUS
 62
     1
  0
POLYLINE
  5
44B67
  8
0
  6
CONTINUOUS
 62
     1
 66
     1
 10
0.0
 20
0.0
 30
0.0
 70
     1
  0
VERTEX
  5
48D42
  8
0
  6
CONTINUOUS
 62
     1
 10
297.8178021550127141
 20
461.3426767254126162
 30
0.0
  0
VERTEX
  5
48D43
  8
0
  6
CONTINUOUS
 62
     1
 10
292.8178021550158974
 20
461.3426767254126162
 30
0.0
 42
0.4142135623720192
  0
VERTEX
  5
48D44
  8
0
  6
CONTINUOUS
 62
     1
 10
291.8178021550139078
 20
460.3426767254126162
 30
0.0
  0
VERTEX
  5
48D45
  8
0
  6
CONTINUOUS
 62
     1
 10
291.8178021550147037
 20
447.3426767254125025
 30
0.0
 42
0.4142135623733948
  0
VERTEX
  5
48D46
  8
0
  6
CONTINUOUS
 62
     1
 10
292.8178021550158974
 20
446.3426767254118772
 30
0.0
  0
VERTEX
  5
48D47
  8
0
  6
CONTINUOUS
 62
     1
 10
297.8178021550118046
 20
446.3426767254118772
 30
0.0
 42
0.4142135623731534
  0
VERTEX
  5
48D48
  8
0
  6
CONTINUOUS
 62
     1
 10
298.8178021550118046
 20
447.3426767254127867
 30
0.0
  0
VERTEX
  5
48D49
  8
0
  6
CONTINUOUS
 62
     1
 10
298.8178021550118046
 20
460.3426767254127867
 30
0.0
 42
0.41421356237276
  0
SEQEND
  5
48D4A
  8
0
  6
CONTINUOUS
 62
     1
  0
POLYLINE
  5
44B68
  8
0
  6
CONTINUOUS
 62
     1
 66
     1
 10
0.0
 20
0.0
 30
0.0
 70
     1
  0
VERTEX
  5
48D4B
  8
0
  6
CONTINUOUS
 62
     1
 10
208.0470919350428005
 20
416.4878341175261767
 30
0.0
  0
VERTEX
  5
48D4C
  8
0
  6
CONTINUOUS
 62
     1
 10
203.1563539313744968
 20
415.4482756634374141
 30
0.0
 42
0.4142135623735812
  0
VERTEX
  5
48D4D
  8
0
  6
CONTINUOUS
 62
     1
 10
202.3861180214587137
 20
414.2622163718859838
 30
0.0
  0
VERTEX
  5
48D4E
  8
0
  6
CONTINUOUS
 62
     1
 10
205.088970002089809
 20
401.5462975623464104
 30
0.0
 42
0.4142135623729507
  0
VERTEX
  5
48D4F
  8
0
  6
CONTINUOUS
 62
     1
 10
206.2750292936406993
 20
400.7760616524307125
 30
0.0
  0
VERTEX
  5
48D50
  8
0
  6
CONTINUOUS
 62
     1
 10
211.165767297308804
 20
401.8156201065193045
 30
0.0
 42
0.4142135623731339
  0
VERTEX
  5
48D51
  8
0
  6
CONTINUOUS
 62
     1
 10
211.9360032072247009
 20
403.0016793980705074
 30
0.0
  0
VERTEX
  5
48D52
  8
0
  6
CONTINUOUS
 62
     1
 10
209.2331512265936908
 20
415.7175982076100809
 30
0.0
 42
0.4142135623727932
  0
SEQEND
  5
48D53
  8
0
  6
CONTINUOUS
 62
     1
  0
POLYLINE
  5
44B69
  8
0
  6
CONTINUOUS
 62
     1
 66
     1
 10
0.0
 20
0.0
 30
0.0
 70
     1
  0
VERTEX
  5
48D54
  8
0
  6
CONTINUOUS
 62
     1
 10
182.9207771785214902
 20
395.8119621224648768
 30
0.0
  0
VERTEX
  5
48D55
  8
0
  6
CONTINUOUS
 62
     1
 10
187.8115151821868949
 20
396.8515205765529004
 30
0.0
 42
0.4142135623731364
  0
VERTEX
  5
48D56
  8
0
  6
CONTINUOUS
 62
     1
 10
188.5817510921029054
 20
398.0375798681051833
 30
0.0
  0
VERTEX
  5
48D57
  8
0
  6
CONTINUOUS
 62
     1
 10
185.8788991114726912
 20
410.7534986776448136
 30
0.0
 42
0.41421356237278
  0
VERTEX
  5
48D58
  8
0
  6
CONTINUOUS
 62
     1
 10
184.6928398199210903
 20
411.5237345875607957
 30
0.0
  0
VERTEX
  5
48D59
  8
0
  6
CONTINUOUS
 62
     1
 10
179.8021018162561973
 20
410.4841761334727721
 30
0.0
  0
VERTEX
  5
48D5A
  8
0
  6
CONTINUOUS
 62
     1
 10
172.20587193331761
 20
408.86954762790009
 30
0.0
 42
0.4142135623730895
  0
VERTEX
  5
48D5B
  8
0
  6
CONTINUOUS
 62
     1
 10
171.0505180684434947
 20
407.0904586905726887
 30
0.0
  0
VERTEX
  5
48D5C
  8
0
  6
CONTINUOUS
 62
     1
 10
173.5454583582568091
 20
395.3526874817667931
 30
0.0
 42
0.4142135623730918
  0
VERTEX
  5
48D5D
  8
0
  6
CONTINUOUS
 62
     1
 10
175.3245472955840967
 20
394.1973336168927062
 30
0.0
  0
SEQEND
  5
48D5E
  8
0
  6
CONTINUOUS
 62
     1
  0
POLYLINE
  5
44B6A
  8
0
  6
CONTINUOUS
 62
     1
 66
     1
 10
0.0
 20
0.0
 30
0.0
 70
     1
  0
VERTEX
  5
48D5F
  8
0
  6
CONTINUOUS
 62
     1
 10
20.4178021550228515
 20
424.2926761289492106
 30
0.0
  0
VERTEX
  5
48D60
  8
0
  6
CONTINUOUS
 62
     1
 10
25.4178021550217217
 20
424.2926761289492106
 30
0.0
 42
0.4142135623730898
  0
VERTEX
  5
48D61
  8
0
  6
CONTINUOUS
 62
     1
 10
26.4178021550217217
 20
425.2926761289489264
 30
0.0
  0
VERTEX
  5
48D62
  8
0
  6
CONTINUOUS
 62
     1
 10
26.4178021550217217
 20
438.2926761289489264
 30
0.0
 42
0.4142135623734128
  0
VERTEX
  5
48D63
  8
0
  6
CONTINUOUS
 62
     1
 10
25.4178021550217217
 20
439.292676128948699
 30
0.0
  0
VERTEX
  5
48D64
  8
0
  6
CONTINUOUS
 62
     1
 10
20.4178021550228515
 20
439.292676128948699
 30
0.0
 42
0.4142135623731753
  0
VERTEX
  5
48D65
  8
0
  6
CONTINUOUS
 62
     1
 10
19.4178021550228515
 20
438.292676128948699
 30
0.0
  0
VERTEX
  5
48D66
  8
0
  6
CONTINUOUS
 62
     1
 10
19.4178021550228515
 20
425.292676128948699
 30
0.0
 42
0.4142135623731502
  0
SEQEND
  5
48D67
  8
0
  6
CONTINUOUS
 62
     1
  0
POLYLINE
  5
44B6B
  8
0
  6
CONTINUOUS
 62
     1
 66
     1
 10
0.0
 20
0.0
 30
0.0
 70
     1
  0
VERTEX
  5
48D68
  8
0
  6
CONTINUOUS
 62
     1
 10
44.2938021550235135
 20
424.2926761289489264
 30
0.0
  0
VERTEX
  5
48D69
  8
0
  6
CONTINUOUS
 62
     1
 10
49.2938021550207779
 20
424.2926761289489264
 30
0.0
 42
0.4142135623733302
  0
VERTEX
  5
48D6A
  8
0
  6
CONTINUOUS
 62
     1
 10
50.2938021550216874
 20
425.2926761289498927
 30
0.0
  0
VERTEX
  5
48D6B
  8
0
  6
CONTINUOUS
 62
     1
 10
50.2938021550216874
 20
438.2926761289498927
 30
0.0
 42
0.4142135623728349
  0
VERTEX
  5
48D6C
  8
0
  6
CONTINUOUS
 62
     1
 10
49.2938021550207779
 20
439.2926761289496085
 30
0.0
  0
VERTEX
  5
48D6D
  8
0
  6
CONTINUOUS
 62
     1
 10
44.2938021550248706
 20
439.2926761289496085
 30
0.0
 42
0.414213562373168
  0
VERTEX
  5
48D6E
  8
0
  6
CONTINUOUS
 62
     1
 10
43.2938021550235135
 20
438.292676128948699
 30
0.0
  0
VERTEX
  5
48D6F
  8
0
  6
CONTINUOUS
 62
     1
 10
43.2938021550235135
 20
425.292676128948699
 30
0.0
 42
0.4142135623727871
  0
SEQEND
  5
48D70
  8
0
  6
CONTINUOUS
 62
     1
  0
POLYLINE
  5
44B6C
  8
0
  6
CONTINUOUS
 62
     1
 66
     1
 10
0.0
 20
0.0
 30
0.0
 70
     1
  0
VERTEX
  5
48D71
  8
0
  6
CONTINUOUS
 62
     1
 10
290.1408021550178091
 20
439.2926764271808793
 30
0.0
  0
VERTEX
  5
48D72
  8
0
  6
CONTINUOUS
 62
     1
 10
290.1408021550178091
 20
427.2926764271808224
 30
0.0
 42
0.4142135623731117
  0
VERTEX
  5
48D73
  8
0
  6
CONTINUOUS
 62
     1
 10
291.1408021550178091
 20
426.2926764271808224
 30
0.0
  0
VERTEX
  5
48D74
  8
0
  6
CONTINUOUS
 62
     1
 10
291.2278021550228004
 20
426.2926764271808224
 30
0.0
  0
VERTEX
  5
48D75
  8
0
  6
CONTINUOUS
 62
     1
 10
291.2278021550228004
 20
425.2926761289485853
 30
0.0
 42
0.4142135623727163
  0
VERTEX
  5
48D76
  8
0
  6
CONTINUOUS
 62
     1
 10
292.2278021550228004
 20
424.2926761289488127
 30
0.0
  0
VERTEX
  5
48D77
  8
0
  6
CONTINUOUS
 62
     1
 10
297.2278021550218909
 20
424.2926761289489264
 30
0.0
 42
0.4142135623735446
  0
VERTEX
  5
48D78
  8
0
  6
CONTINUOUS
 62
     1
 10
298.2278021550206972
 20
425.2926761289489264
 30
0.0
  0
VERTEX
  5
48D79
  8
0
  6
CONTINUOUS
 62
     1
 10
298.2278021550206972
 20
426.2926764271808224
 30
0.0
  0
VERTEX
  5
48D7A
  8
0
  6
CONTINUOUS
 62
     1
 10
312.6658021550181275
 20
426.2926764271808224
 30
0.0
 42
0.4142135623731037
  0
VERTEX
  5
48D7B
  8
0
  6
CONTINUOUS
 62
     1
 10
313.6658021550181275
 20
427.2926764271808224
 30
0.0
  0
VERTEX
  5
48D7C
  8
0
  6
CONTINUOUS
 62
     1
 10
313.6658021550181275
 20
439.2926764271808793
 30
0.0
 42
0.4142135623731263
  0
VERTEX
  5
48D7D
  8
0
  6
CONTINUOUS
 62
     1
 10
312.6658021550181275
 20
440.2926764271808793
 30
0.0
  0
VERTEX
  5
48D7E
  8
0
  6
CONTINUOUS
 62
     1
 10
291.1408021550178091
 20
440.2926764271808793
 30
0.0
 42
0.4142135623731451
  0
SEQEND
  5
48D7F
  8
0
  6
CONTINUOUS
 62
     1
  0
POLYLINE
  5
44B6D
  8
0
  6
CONTINUOUS
 62
     1
 66
     1
 10
0.0
 20
0.0
 30
0.0
 70
     1
  0
VERTEX
  5
48D80
  8
0
  6
CONTINUOUS
 62
     1
 10
316.1038021550249937
 20
439.2926761289493811
 30
0.0
 42
0.4142135623732619
  0
VERTEX
  5
48D81
  8
0
  6
CONTINUOUS
 62
     1
 10
315.1038021550251074
 20
438.292676128948699
 30
0.0
  0
VERTEX
  5
48D82
  8
0
  6
CONTINUOUS
 62
     1
 10
315.1038021550236863
 20
425.2926761289485853
 30
0.0
 42
0.4142135623727163
  0
VERTEX
  5
48D83
  8
0
  6
CONTINUOUS
 62
     1
 10
316.1038021550236863
 20
424.2926761289488127
 30
0.0
  0
VERTEX
  5
48D84
  8
0
  6
CONTINUOUS
 62
     1
 10
321.1038021550206736
 20
424.2926761289489264
 30
0.0
 42
0.4142135623720797
  0
VERTEX
  5
48D85
  8
0
  6
CONTINUOUS
 62
     1
 10
322.1038021550219241
 20
425.2926761289489264
 30
0.0
  0
VERTEX
  5
48D86
  8
0
  6
CONTINUOUS
 62
     1
 10
322.1038021550219241
 20
426.2926764271808224
 30
0.0
  0
VERTEX
  5
48D87
  8
0
  6
CONTINUOUS
 62
     1
 10
329.3345521550177182
 20
426.2926764271808224
 30
0.0
 42
0.4142135623730659
  0
VERTEX
  5
48D88
  8
0
  6
CONTINUOUS
 62
     1
 10
330.3345521550177182
 20
427.2926764271808793
 30
0.0
  0
VERTEX
  5
48D89
  8
0
  6
CONTINUOUS
 62
     1
 10
330.3345521550177182
 20
439.2926764271808793
 30
0.0
 42
0.4142135623730659
  0
VERTEX
  5
48D8A
  8
0
  6
CONTINUOUS
 62
     1
 10
329.3345521550177182
 20
440.2926764271808793
 30
0.0
  0
VERTEX
  5
48D8B
  8
0
  6
CONTINUOUS
 62
     1
 10
317.3345521550177182
 20
440.2926764271808793
 30
0.0
 42
0.4142136497229438
  0
VERTEX
  5
48D8C
  8
0
  6
CONTINUOUS
 62
     1
 10
316.3345521550177182
 20
439.2926761289493811
 30
0.0
  0
SEQEND
  5
48D8D
  8
0
  6
CONTINUOUS
 62
     1
  0
POLYLINE
  5
44B6E
  8
0
  6
CONTINUOUS
 62
     1
 66
     1
 10
0.0
 20
0.0
 30
0.0
 70
     1
  0
VERTEX
  5
48D8E
  8
0
  6
CONTINUOUS
 62
     1
 10
10.0958021550177293
 20
461.482676427180877
 30
0.0
  0
VERTEX
  5
48D8F
  8
0
  6
CONTINUOUS
 62
     1
 10
-1.904197844982263
 20
461.482676427180877
 30
0.0
 42
0.4142135623731112
  0
VERTEX
  5
48D90
  8
0
  6
CONTINUOUS
 62
     1
 10
-2.9041978449822632
 20
460.4826764271808202
 30
0.0
  0
VERTEX
  5
48D91
  8
0
  6
CONTINUOUS
 62
     1
 10
-2.9041978449822632
 20
448.4826764271808202
 30
0.0
 42
0.4142135623730854
  0
VERTEX
  5
48D92
  8
0
  6
CONTINUOUS
 62
     1
 10
-1.904197844982263
 20
447.4826764271808202
 30
0.0
  0
VERTEX
  5
48D93
  8
0
  6
CONTINUOUS
 62
     1
 10
10.0958021550177293
 20
447.4826764271808202
 30
0.0
 42
0.4142135623730809
  0
VERTEX
  5
48D94
  8
0
  6
CONTINUOUS
 62
     1
 10
11.0958021550177293
 20
448.4826764271808202
 30
0.0
  0
VERTEX
  5
48D95
  8
0
  6
CONTINUOUS
 62
     1
 10
11.0958021550177293
 20
460.4826764271808202
 30
0.0
 42
0.4142135623730802
  0
SEQEND
  5
48D96
  8
0
  6
CONTINUOUS
 62
     1
  0
POLYLINE
  5
44B6F
  8
0
  6
CONTINUOUS
 62
     1
 66
     1
 10
0.0
 20
0.0
 30
0.0
 70
     1
  0
VERTEX
  5
48D97
  8
0
  6
CONTINUOUS
 62
     1
 10
40.8558021550177273
 20
440.2926764271808793
 30
0.0
  0
VERTEX
  5
48D98
  8
0
  6
CONTINUOUS
 62
     1
 10
28.8558021550177308
 20
440.2926764271808793
 30
0.0
 42
0.4142135623731213
  0
VERTEX
  5
48D99
  8
0
  6
CONTINUOUS
 62
     1
 10
27.8558021550177308
 20
439.2926764271808224
 30
0.0
  0
VERTEX
  5
48D9A
  8
0
  6
CONTINUOUS
 62
     1
 10
27.8558021550177308
 20
427.2926764271808224
 30
0.0
 42
0.4142135623731046
  0
VERTEX
  5
48D9B
  8
0
  6
CONTINUOUS
 62
     1
 10
28.8558021550177308
 20
426.2926764271808224
 30
0.0
  0
VERTEX
  5
48D9C
  8
0
  6
CONTINUOUS
 62
     1
 10
40.8558021550177273
 20
426.2926764271808224
 30
0.0
 42
0.4142135623730826
  0
VERTEX
  5
48D9D
  8
0
  6
CONTINUOUS
 62
     1
 10
41.8558021550177202
 20
427.2926764271808224
 30
0.0
  0
VERTEX
  5
48D9E
  8
0
  6
CONTINUOUS
 62
     1
 10
41.8558021550177202
 20
439.2926764271808793
 30
0.0
 42
0.4142135623731014
  0
SEQEND
  5
48D9F
  8
0
  6
CONTINUOUS
 62
     1
  0
POLYLINE
  5
44B70
  8
0
  6
CONTINUOUS
 62
     1
 66
     1
 10
0.0
 20
0.0
 30
0.0
 70
     1
  0
VERTEX
  5
48DA0
  8
0
  6
CONTINUOUS
 62
     1
 10
14.1658021550181292
 20
480.5326764271807178
 30
0.0
  0
VERTEX
  5
48DA1
  8
0
  6
CONTINUOUS
 62
     1
 10
2.165802155018127
 20
480.5326764271807178
 30
0.0
 42
0.4142135623730906
  0
VERTEX
  5
48DA2
  8
0
  6
CONTINUOUS
 62
     1
 10
1.165802155018127
 20
479.5326764271806042
 30
0.0
  0
VERTEX
  5
48DA3
  8
0
  6
CONTINUOUS
 62
     1
 10
1.165802155018127
 20
467.5326764271807178
 30
0.0
 42
0.4142135623731141
  0
VERTEX
  5
48DA4
  8
0
  6
CONTINUOUS
 62
     1
 10
2.165802155018127
 20
466.5326764271807178
 30
0.0
  0
VERTEX
  5
48DA5
  8
0
  6
CONTINUOUS
 62
     1
 10
14.1658021550181292
 20
466.5326764271807178
 30
0.0
 42
0.4142135623730911
  0
VERTEX
  5
48DA6
  8
0
  6
CONTINUOUS
 62
     1
 10
15.1658021550181292
 20
467.5326764271807178
 30
0.0
  0
VERTEX
  5
48DA7
  8
0
  6
CONTINUOUS
 62
     1
 10
15.1658021550181292
 20
479.5326764271806042
 30
0.0
 42
0.4142135623730824
  0
SEQEND
  5
48DA8
  8
0
  6
CONTINUOUS
 62
     1
  0
POLYLINE
  5
44B71
  8
0
  6
CONTINUOUS
 62
     1
 66
     1
 10
0.0
 20
0.0
 30
0.0
 70
     1
  0
VERTEX
  5
48DA9
  8
0
  6
CONTINUOUS
 62
     1
 10
18.3258021550175307
 20
499.5826764271808997
 30
0.0
  0
VERTEX
  5
48DAA
  8
0
  6
CONTINUOUS
 62
     1
 10
6.3258021550175272
 20
499.5826764271808997
 30
0.0
 42
0.4142135623730955
  0
VERTEX
  5
48DAB
  8
0
  6
CONTINUOUS
 62
     1
 10
5.3258021550175272
 20
498.582676427180786
 30
0.0
  0
VERTEX
  5
48DAC
  8
0
  6
CONTINUOUS
 62
     1
 10
5.3258021550175272
 20
486.582676427180786
 30
0.0
 42
0.4142135623731224
  0
VERTEX
  5
48DAD
  8
0
  6
CONTINUOUS
 62
     1
 10
6.3258021550175272
 20
485.582676427180786
 30
0.0
  0
VERTEX
  5
48DAE
  8
0
  6
CONTINUOUS
 62
     1
 10
18.3258021550175307
 20
485.582676427180786
 30
0.0
 42
0.4142135623730895
  0
VERTEX
  5
48DAF
  8
0
  6
CONTINUOUS
 62
     1
 10
19.3258021550175307
 20
486.582676427180786
 30
0.0
  0
VERTEX
  5
48DB0
  8
0
  6
CONTINUOUS
 62
     1
 10
19.3258021550175307
 20
498.582676427180786
 30
0.0
 42
0.4142135623730951
  0
SEQEND
  5
48DB1
  8
0
  6
CONTINUOUS
 62
     1
  0
POLYLINE
  5
44B72
  8
0
  6
CONTINUOUS
 62
     1
 66
     1
 10
0.0
 20
0.0
 30
0.0
 70
     1
  0
VERTEX
  5
48DB2
  8
0
  6
CONTINUOUS
 62
     1
 10
33.7158021550178475
 20
421.2426764271809247
 30
0.0
  0
VERTEX
  5
48DB3
  8
0
  6
CONTINUOUS
 62
     1
 10
21.715802155017851
 20
421.2426764271809247
 30
0.0
 42
0.4142135623731159
  0
VERTEX
  5
48DB4
  8
0
  6
CONTINUOUS
 62
     1
 10
20.7158021550178617
 20
420.2426764271806974
 30
0.0
  0
VERTEX
  5
48DB5
  8
0
  6
CONTINUOUS
 62
     1
 10
20.7158021550178617
 20
408.2426764271806974
 30
0.0
 42
0.4142135623730721
  0
VERTEX
  5
48DB6
  8
0
  6
CONTINUOUS
 62
     1
 10
21.715802155017851
 20
407.2426764271806974
 30
0.0
  0
VERTEX
  5
48DB7
  8
0
  6
CONTINUOUS
 62
     1
 10
33.7158021550178475
 20
407.2426764271806974
 30
0.0
 42
0.4142135623730764
  0
VERTEX
  5
48DB8
  8
0
  6
CONTINUOUS
 62
     1
 10
34.7158021550178617
 20
408.2426764271808111
 30
0.0
  0
VERTEX
  5
48DB9
  8
0
  6
CONTINUOUS
 62
     1
 10
34.7158021550178617
 20
420.2426764271808111
 30
0.0
 42
0.4142135623730888
  0
SEQEND
  5
48DBA
  8
0
  6
CONTINUOUS
 62
     1
  0
POLYLINE
  5
44B73
  8
0
  6
CONTINUOUS
 62
     1
 66
     1
 10
0.0
 20
0.0
 30
0.0
 70
     1
  0
VERTEX
  5
48DBB
  8
0
  6
CONTINUOUS
 62
     1
 10
276.9458021550178728
 20
440.2926764271808793
 30
0.0
  0
VERTEX
  5
48DBC
  8
0
  6
CONTINUOUS
 62
     1
 10
264.9458021550178728
 20
440.2926764271808793
 30
0.0
 42
0.4142135623730659
  0
VERTEX
  5
48DBD
  8
0
  6
CONTINUOUS
 62
     1
 10
263.9458021550178728
 20
439.2926764271808793
 30
0.0
  0
VERTEX
  5
48DBE
  8
0
  6
CONTINUOUS
 62
     1
 10
263.9458021550178728
 20
427.2926764271808224
 30
0.0
 42
0.4142135623730534
  0
VERTEX
  5
48DBF
  8
0
  6
CONTINUOUS
 62
     1
 10
264.9458021550178728
 20
426.2926764271808224
 30
0.0
  0
VERTEX
  5
48DC0
  8
0
  6
CONTINUOUS
 62
     1
 10
276.9458021550178728
 20
426.2926764271808224
 30
0.0
 42
0.41421356237312
  0
VERTEX
  5
48DC1
  8
0
  6
CONTINUOUS
 62
     1
 10
277.9458021550178728
 20
427.2926764271808224
 30
0.0
  0
VERTEX
  5
48DC2
  8
0
  6
CONTINUOUS
 62
     1
 10
277.9458021550178728
 20
439.2926764271808793
 30
0.0
 42
0.4142135623731221
  0
SEQEND
  5
48DC3
  8
0
  6
CONTINUOUS
 62
     1
  0
POLYLINE
  5
44B74
  8
0
  6
CONTINUOUS
 62
     1
 66
     1
 10
0.0
 20
0.0
 30
0.0
 70
     1
  0
VERTEX
  5
48DC4
  8
0
  6
CONTINUOUS
 62
     1
 10
320.8914021550178859
 20
421.1946764271806956
 30
0.0
  0
VERTEX
  5
48DC5
  8
0
  6
CONTINUOUS
 62
     1
 10
308.8914021550178859
 20
421.1946764271808092
 30
0.0
 42
0.4142135623730493
  0
VERTEX
  5
48DC6
  8
0
  6
CONTINUOUS
 62
     1
 10
307.8914021550178859
 20
420.1946764271808092
 30
0.0
  0
VERTEX
  5
48DC7
  8
0
  6
CONTINUOUS
 62
     1
 10
307.8914021550178859
 20
408.1946764271806956
 30
0.0
 42
0.4142135623730784
  0
VERTEX
  5
48DC8
  8
0
  6
CONTINUOUS
 62
     1
 10
308.8914021550178859
 20
407.1946764271806956
 30
0.0
  0
VERTEX
  5
48DC9
  8
0
  6
CONTINUOUS
 62
     1
 10
320.8914021550178859
 20
407.1946764271806956
 30
0.0
 42
0.4142135623730703
  0
VERTEX
  5
48DCA
  8
0
  6
CONTINUOUS
 62
     1
 10
321.8914021550187954
 20
408.1946764271808092
 30
0.0
  0
VERTEX
  5
48DCB
  8
0
  6
CONTINUOUS
 62
     1
 10
321.8914021550187954
 20
420.1946764271808092
 30
0.0
 42
0.4142135623730659
  0
SEQEND
  5
48DCC
  8
0
  6
CONTINUOUS
 62
     1
  0
POLYLINE
  5
44B75
  8
0
  6
CONTINUOUS
 62
     1
 66
     1
 10
0.0
 20
0.0
 30
0.0
 70
     1
  0
VERTEX
  5
48DCD
  8
0
  6
CONTINUOUS
 62
     1
 10
282.3058021550176022
 20
459.3426764271808906
 30
0.0
  0
VERTEX
  5
48DCE
  8
0
  6
CONTINUOUS
 62
     1
 10
270.3058021550174885
 20
459.3426764271808906
 30
0.0
 42
0.4142135623730659
  0
VERTEX
  5
48DCF
  8
0
  6
CONTINUOUS
 62
     1
 10
269.3058021550176022
 20
458.342676427180777
 30
0.0
  0
VERTEX
  5
48DD0
  8
0
  6
CONTINUOUS
 62
     1
 10
269.3058021550176022
 20
446.342676427180777
 30
0.0
 42
0.414213562373064
  0
VERTEX
  5
48DD1
  8
0
  6
CONTINUOUS
 62
     1
 10
270.3058021550174885
 20
445.342676427180777
 30
0.0
  0
VERTEX
  5
48DD2
  8
0
  6
CONTINUOUS
 62
     1
 10
282.3058021550176022
 20
445.342676427180777
 30
0.0
 42
0.4142135623730721
  0
VERTEX
  5
48DD3
  8
0
  6
CONTINUOUS
 62
     1
 10
283.3058021550176022
 20
446.342676427180777
 30
0.0
  0
VERTEX
  5
48DD4
  8
0
  6
CONTINUOUS
 62
     1
 10
283.3058021550176022
 20
458.342676427180777
 30
0.0
 42
0.4142135623730659
  0
SEQEND
  5
48DD5
  8
0
  6
CONTINUOUS
 62
     1
  0
POLYLINE
  5
44B76
  8
0
  6
CONTINUOUS
 62
     1
 66
     1
 10
0.0
 20
0.0
 30
0.0
 70
     1
  0
VERTEX
  5
48DD6
  8
0
  6
CONTINUOUS
 62
     1
 10
313.2558021550178182
 20
459.3426764271808906
 30
0.0
  0
VERTEX
  5
48DD7
  8
0
  6
CONTINUOUS
 62
     1
 10
301.2558021550178182
 20
459.3426764271808906
 30
0.0
 42
0.4142135623730659
  0
VERTEX
  5
48DD8
  8
0
  6
CONTINUOUS
 62
     1
 10
300.2558021550178182
 20
458.342676427180777
 30
0.0
  0
VERTEX
  5
48DD9
  8
0
  6
CONTINUOUS
 62
     1
 10
300.2558021550178182
 20
446.342676427180777
 30
0.0
 42
0.414213562373064
  0
VERTEX
  5
48DDA
  8
0
  6
CONTINUOUS
 62
     1
 10
301.2558021550178182
 20
445.342676427180777
 30
0.0
  0
VERTEX
  5
48DDB
  8
0
  6
CONTINUOUS
 62
     1
 10
313.2558021550178182
 20
445.342676427180777
 30
0.0
 42
0.4142135623731304
  0
VERTEX
  5
48DDC
  8
0
  6
CONTINUOUS
 62
     1
 10
314.2558021550178182
 20
446.342676427180777
 30
0.0
  0
VERTEX
  5
48DDD
  8
0
  6
CONTINUOUS
 62
     1
 10
314.2558021550178182
 20
458.342676427180777
 30
0.0
 42
0.4142135623731242
  0
SEQEND
  5
48DDE
  8
0
  6
CONTINUOUS
 62
     1
  0
POLYLINE
  5
44B77
  8
0
  6
CONTINUOUS
 62
     1
 66
     1
 10
0.0
 20
0.0
 30
0.0
 70
     1
  0
VERTEX
  5
48DDF
  8
0
  6
CONTINUOUS
 62
     1
 10
257.8958021550176909
 20
440.2926764271808793
 30
0.0
  0
VERTEX
  5
48DE0
  8
0
  6
CONTINUOUS
 62
     1
 10
245.8958021550176909
 20
440.2926764271808793
 30
0.0
 42
0.4142135623730808
  0
VERTEX
  5
48DE1
  8
0
  6
CONTINUOUS
 62
     1
 10
244.8958021550176909
 20
439.2926764271808793
 30
0.0
  0
VERTEX
  5
48DE2
  8
0
  6
CONTINUOUS
 62
     1
 10
244.8958021550176909
 20
427.2926764271808224
 30
0.0
 42
0.4142135623730659
  0
VERTEX
  5
48DE3
  8
0
  6
CONTINUOUS
 62
     1
 10
245.8958021550176909
 20
426.2926764271808224
 30
0.0
  0
VERTEX
  5
48DE4
  8
0
  6
CONTINUOUS
 62
     1
 10
257.8958021550176909
 20
426.2926764271808224
 30
0.0
 42
0.4142135623730744
  0
VERTEX
  5
48DE5
  8
0
  6
CONTINUOUS
 62
     1
 10
258.8958021550176909
 20
427.2926764271808793
 30
0.0
  0
VERTEX
  5
48DE6
  8
0
  6
CONTINUOUS
 62
     1
 10
258.8958021550176909
 20
439.2926764271808793
 30
0.0
 42
0.4142135623730703
  0
SEQEND
  5
48DE7
  8
0
  6
CONTINUOUS
 62
     1
  0
POLYLINE
  5
44B78
  8
0
  6
CONTINUOUS
 62
     1
 66
     1
 10
0.0
 20
0.0
 30
0.0
 70
     1
  0
VERTEX
  5
48DE8
  8
0
  6
CONTINUOUS
 62
     1
 10
273.2658021550178091
 20
478.3926764271806746
 30
0.0
  0
VERTEX
  5
48DE9
  8
0
  6
CONTINUOUS
 62
     1
 10
261.2658021550178091
 20
478.3926764271807883
 30
0.0
 42
0.4142135623731091
  0
VERTEX
  5
48DEA
  8
0
  6
CONTINUOUS
 62
     1
 10
260.2658021550178091
 20
477.3926764271806746
 30
0.0
  0
VERTEX
  5
48DEB
  8
0
  6
CONTINUOUS
 62
     1
 10
260.2658021550178091
 20
465.3926764271806746
 30
0.0
 42
0.4142135623731054
  0
VERTEX
  5
48DEC
  8
0
  6
CONTINUOUS
 62
     1
 10
261.2658021550178091
 20
464.3926764271806746
 30
0.0
  0
VERTEX
  5
48DED
  8
0
  6
CONTINUOUS
 62
     1
 10
273.2658021550178091
 20
464.3926764271806746
 30
0.0
 42
0.4142135623730898
  0
VERTEX
  5
48DEE
  8
0
  6
CONTINUOUS
 62
     1
 10
274.2658021550178091
 20
465.3926764271806746
 30
0.0
  0
VERTEX
  5
48DEF
  8
0
  6
CONTINUOUS
 62
     1
 10
274.2658021550178091
 20
477.3926764271806746
 30
0.0
 42
0.4142135623730847
  0
SEQEND
  5
48DF0
  8
0
  6
CONTINUOUS
 62
     1
  0
POLYLINE
  5
44B79
  8
0
  6
CONTINUOUS
 62
     1
 66
     1
 10
0.0
 20
0.0
 30
0.0
 70
     1
  0
VERTEX
  5
48DF1
  8
0
  6
CONTINUOUS
 62
     1
 10
263.2558021550178182
 20
459.3426764271808906
 30
0.0
  0
VERTEX
  5
48DF2
  8
0
  6
CONTINUOUS
 62
     1
 10
251.2558021550177898
 20
459.3426764271808906
 30
0.0
 42
0.4142135623731037
  0
VERTEX
  5
48DF3
  8
0
  6
CONTINUOUS
 62
     1
 10
250.2558021550177898
 20
458.342676427180777
 30
0.0
  0
VERTEX
  5
48DF4
  8
0
  6
CONTINUOUS
 62
     1
 10
250.2558021550177898
 20
446.342676427180777
 30
0.0
 42
0.4142135623730992
  0
VERTEX
  5
48DF5
  8
0
  6
CONTINUOUS
 62
     1
 10
251.2558021550177898
 20
445.342676427180777
 30
0.0
  0
VERTEX
  5
48DF6
  8
0
  6
CONTINUOUS
 62
     1
 10
263.2558021550178182
 20
445.342676427180777
 30
0.0
 42
0.4142135623730869
  0
VERTEX
  5
48DF7
  8
0
  6
CONTINUOUS
 62
     1
 10
264.2558021550178182
 20
446.342676427180777
 30
0.0
  0
VERTEX
  5
48DF8
  8
0
  6
CONTINUOUS
 62
     1
 10
264.2558021550178182
 20
458.342676427180777
 30
0.0
 42
0.4142135623730826
  0
SEQEND
  5
48DF9
  8
0
  6
CONTINUOUS
 62
     1
  0
POLYLINE
  5
44B7A
  8
0
  6
CONTINUOUS
 62
     1
 66
     1
 10
0.0
 20
0.0
 30
0.0
 70
     1
  0
VERTEX
  5
48DFA
  8
0
  6
CONTINUOUS
 62
     1
 10
292.3158021550174794
 20
478.3926764271806746
 30
0.0
  0
VERTEX
  5
48DFB
  8
0
  6
CONTINUOUS
 62
     1
 10
280.3158021550174794
 20
478.3926764271807883
 30
0.0
 42
0.4142135623731261
  0
VERTEX
  5
48DFC
  8
0
  6
CONTINUOUS
 62
     1
 10
279.3158021550174794
 20
477.3926764271806746
 30
0.0
  0
VERTEX
  5
48DFD
  8
0
  6
CONTINUOUS
 62
     1
 10
279.3158021550174794
 20
465.3926764271806746
 30
0.0
 42
0.4142135623731221
  0
VERTEX
  5
48DFE
  8
0
  6
CONTINUOUS
 62
     1
 10
280.3158021550174794
 20
464.3926764271806746
 30
0.0
  0
VERTEX
  5
48DFF
  8
0
  6
CONTINUOUS
 62
     1
 10
292.3158021550174794
 20
464.3926764271806746
 30
0.0
 42
0.4142135623730733
  0
VERTEX
  5
48E00
  8
0
  6
CONTINUOUS
 62
     1
 10
293.3158021550174794
 20
465.3926764271806746
 30
0.0
  0
VERTEX
  5
48E01
  8
0
  6
CONTINUOUS
 62
     1
 10
293.3158021550174794
 20
477.3926764271806746
 30
0.0
 42
0.414213562373068
  0
SEQEND
  5
48E02
  8
0
  6
CONTINUOUS
 62
     1
  0
POLYLINE
  5
44B7B
  8
0
  6
CONTINUOUS
 62
     1
 66
     1
 10
0.0
 20
0.0
 30
0.0
 70
     1
  0
VERTEX
  5
48E03
  8
0
  6
CONTINUOUS
 62
     1
 10
254.6358021550177
 20
479.4526764271806769
 30
0.0
  0
VERTEX
  5
48E04
  8
0
  6
CONTINUOUS
 62
     1
 10
242.6358021550177
 20
479.4526764271806769
 30
0.0
 42
0.414213562373064
  0
VERTEX
  5
48E05
  8
0
  6
CONTINUOUS
 62
     1
 10
241.6358021550177
 20
478.4526764271809043
 30
0.0
  0
VERTEX
  5
48E06
  8
0
  6
CONTINUOUS
 62
     1
 10
241.6358021550177
 20
466.4526764271807906
 30
0.0
 42
0.414213562373068
  0
VERTEX
  5
48E07
  8
0
  6
CONTINUOUS
 62
     1
 10
242.6358021550177
 20
465.4526764271809043
 30
0.0
  0
VERTEX
  5
48E08
  8
0
  6
CONTINUOUS
 62
     1
 10
254.6358021550177
 20
465.4526764271809043
 30
0.0
 42
0.414213562373093
  0
VERTEX
  5
48E09
  8
0
  6
CONTINUOUS
 62
     1
 10
255.6358021550177
 20
466.4526764271807906
 30
0.0
  0
VERTEX
  5
48E0A
  8
0
  6
CONTINUOUS
 62
     1
 10
255.6358021550177
 20
478.4526764271809043
 30
0.0
 42
0.4142135623730925
  0
SEQEND
  5
48E0B
  8
0
  6
CONTINUOUS
 62
     1
  0
POLYLINE
  5
44B7C
  8
0
  6
CONTINUOUS
 62
     1
 66
     1
 10
0.0
 20
0.0
 30
0.0
 70
     1
  0
VERTEX
  5
48E0C
  8
0
  6
CONTINUOUS
 62
     1
 10
316.1358021550177
 20
478.3926764271806746
 30
0.0
  0
VERTEX
  5
48E0D
  8
0
  6
CONTINUOUS
 62
     1
 10
304.1358021550177
 20
478.3926764271807883
 30
0.0
 42
0.4142135623730847
  0
VERTEX
  5
48E0E
  8
0
  6
CONTINUOUS
 62
     1
 10
303.1358021550177
 20
477.3926764271806746
 30
0.0
  0
VERTEX
  5
48E0F
  8
0
  6
CONTINUOUS
 62
     1
 10
303.1358021550177
 20
465.3926764271806746
 30
0.0
 42
0.4142135623730816
  0
VERTEX
  5
48E10
  8
0
  6
CONTINUOUS
 62
     1
 10
304.1358021550177
 20
464.3926764271806746
 30
0.0
  0
VERTEX
  5
48E11
  8
0
  6
CONTINUOUS
 62
     1
 10
316.1358021550177
 20
464.3926764271806746
 30
0.0
 42
0.4142135623731294
  0
VERTEX
  5
48E12
  8
0
  6
CONTINUOUS
 62
     1
 10
317.1358021550177
 20
465.3926764271806746
 30
0.0
  0
VERTEX
  5
48E13
  8
0
  6
CONTINUOUS
 62
     1
 10
317.1358021550177
 20
477.3926764271806746
 30
0.0
 42
0.4142135623731252
  0
SEQEND
  5
48E14
  8
0
  6
CONTINUOUS
 62
     1
  0
POLYLINE
  5
44B7D
  8
0
  6
CONTINUOUS
 62
     1
 66
     1
 10
0.0
 20
0.0
 30
0.0
 70
     1
  0
VERTEX
  5
48E15
  8
0
  6
CONTINUOUS
 62
     1
 10
278.6258021550177091
 20
497.4426764271809134
 30
0.0
  0
VERTEX
  5
48E16
  8
0
  6
CONTINUOUS
 62
     1
 10
266.6258021550177091
 20
497.4426764271809134
 30
0.0
 42
0.4142135623730664
  0
VERTEX
  5
48E17
  8
0
  6
CONTINUOUS
 62
     1
 10
265.6258021550177091
 20
496.4426764271807997
 30
0.0
  0
VERTEX
  5
48E18
  8
0
  6
CONTINUOUS
 62
     1
 10
265.6258021550177091
 20
484.442676427180686
 30
0.0
 42
0.4142135623730612
  0
VERTEX
  5
48E19
  8
0
  6
CONTINUOUS
 62
     1
 10
266.6258021550177091
 20
483.4426764271807997
 30
0.0
  0
VERTEX
  5
48E1A
  8
0
  6
CONTINUOUS
 62
     1
 10
278.6258021550177091
 20
483.4426764271809134
 30
0.0
 42
0.4142135623731278
  0
VERTEX
  5
48E1B
  8
0
  6
CONTINUOUS
 62
     1
 10
279.6258021550177091
 20
484.4426764271807997
 30
0.0
  0
VERTEX
  5
48E1C
  8
0
  6
CONTINUOUS
 62
     1
 10
279.6258021550177091
 20
496.4426764271807997
 30
0.0
 42
0.4142135623731411
  0
SEQEND
  5
48E1D
  8
0
  6
CONTINUOUS
 62
     1
  0
POLYLINE
  5
44B7E
  8
0
  6
CONTINUOUS
 62
     1
 66
     1
 10
0.0
 20
0.0
 30
0.0
 70
     1
  0
VERTEX
  5
48E1E
  8
0
  6
CONTINUOUS
 62
     1
 10
259.9958021550178273
 20
499.5826764271808997
 30
0.0
  0
VERTEX
  5
48E1F
  8
0
  6
CONTINUOUS
 62
     1
 10
247.9958021550177989
 20
499.5826764271808997
 30
0.0
 42
0.4142135623730896
  0
VERTEX
  5
48E20
  8
0
  6
CONTINUOUS
 62
     1
 10
246.9958021550177989
 20
498.582676427180786
 30
0.0
  0
VERTEX
  5
48E21
  8
0
  6
CONTINUOUS
 62
     1
 10
246.9958021550177989
 20
486.582676427180786
 30
0.0
 42
0.4142135623730879
  0
VERTEX
  5
48E22
  8
0
  6
CONTINUOUS
 62
     1
 10
247.9958021550177989
 20
485.582676427180786
 30
0.0
  0
VERTEX
  5
48E23
  8
0
  6
CONTINUOUS
 62
     1
 10
259.9958021550178273
 20
485.582676427180786
 30
0.0
 42
0.4142135623730903
  0
VERTEX
  5
48E24
  8
0
  6
CONTINUOUS
 62
     1
 10
260.9958021550178273
 20
486.582676427180786
 30
0.0
  0
VERTEX
  5
48E25
  8
0
  6
CONTINUOUS
 62
     1
 10
260.9958021550178273
 20
498.582676427180786
 30
0.0
 42
0.4142135623730839
  0
SEQEND
  5
48E26
  8
0
  6
CONTINUOUS
 62
     1
  0
POLYLINE
  5
44B7F
  8
0
  6
CONTINUOUS
 62
     1
 66
     1
 10
0.0
 20
0.0
 30
0.0
 70
     1
  0
VERTEX
  5
48E27
  8
0
  6
CONTINUOUS
 62
     1
 10
71.8058021550175454
 20
440.2926764271808793
 30
0.0
  0
VERTEX
  5
48E28
  8
0
  6
CONTINUOUS
 62
     1
 10
59.8058021550175383
 20
440.2926764271808793
 30
0.0
 42
0.4142135623731076
  0
VERTEX
  5
48E29
  8
0
  6
CONTINUOUS
 62
     1
 10
58.8058021550175525
 20
439.2926764271808793
 30
0.0
  0
VERTEX
  5
48E2A
  8
0
  6
CONTINUOUS
 62
     1
 10
58.8058021550175525
 20
427.2926764271808224
 30
0.0
 42
0.4142135623730808
  0
VERTEX
  5
48E2B
  8
0
  6
CONTINUOUS
 62
     1
 10
59.8058021550175383
 20
426.2926764271808224
 30
0.0
  0
VERTEX
  5
48E2C
  8
0
  6
CONTINUOUS
 62
     1
 10
71.8058021550175454
 20
426.2926764271808224
 30
0.0
 42
0.4142135623730826
  0
VERTEX
  5
48E2D
  8
0
  6
CONTINUOUS
 62
     1
 10
72.8058021550175454
 20
427.2926764271808224
 30
0.0
  0
VERTEX
  5
48E2E
  8
0
  6
CONTINUOUS
 62
     1
 10
72.8058021550175454
 20
439.2926764271808793
 30
0.0
 42
0.4142135623730951
  0
SEQEND
  5
48E2F
  8
0
  6
CONTINUOUS
 62
     1
  0
POLYLINE
  5
44B80
  8
0
  6
CONTINUOUS
 62
     1
 66
     1
 10
0.0
 20
0.0
 30
0.0
 70
     1
  0
VERTEX
  5
48E30
  8
0
  6
CONTINUOUS
 62
     1
 10
41.3458021550177293
 20
497.4426764271809134
 30
0.0
  0
VERTEX
  5
48E31
  8
0
  6
CONTINUOUS
 62
     1
 10
29.3458021550177399
 20
497.4426764271809134
 30
0.0
 42
0.4142135623731076
  0
VERTEX
  5
48E32
  8
0
  6
CONTINUOUS
 62
     1
 10
28.3458021550177293
 20
496.4426764271807997
 30
0.0
  0
VERTEX
  5
48E33
  8
0
  6
CONTINUOUS
 62
     1
 10
28.3458021550177293
 20
484.4426764271807997
 30
0.0
 42
0.4142135623731081
  0
VERTEX
  5
48E34
  8
0
  6
CONTINUOUS
 62
     1
 10
29.3458021550177399
 20
483.4426764271809134
 30
0.0
  0
VERTEX
  5
48E35
  8
0
  6
CONTINUOUS
 62
     1
 10
41.3458021550177293
 20
483.4426764271809134
 30
0.0
 42
0.4142135623730879
  0
VERTEX
  5
48E36
  8
0
  6
CONTINUOUS
 62
     1
 10
42.3458021550177293
 20
484.4426764271807997
 30
0.0
  0
VERTEX
  5
48E37
  8
0
  6
CONTINUOUS
 62
     1
 10
42.3458021550177293
 20
496.4426764271807997
 30
0.0
 42
0.414213562373093
  0
SEQEND
  5
48E38
  8
0
  6
CONTINUOUS
 62
     1
  0
POLYLINE
  5
44B81
  8
0
  6
CONTINUOUS
 62
     1
 66
     1
 10
0.0
 20
0.0
 30
0.0
 70
     1
  0
VERTEX
  5
48E39
  8
0
  6
CONTINUOUS
 62
     1
 10
60.3958021550176909
 20
497.4426764271809134
 30
0.0
  0
VERTEX
  5
48E3A
  8
0
  6
CONTINUOUS
 62
     1
 10
48.3958021550176909
 20
497.4426764271809134
 30
0.0
 42
0.4142135623731063
  0
VERTEX
  5
48E3B
  8
0
  6
CONTINUOUS
 62
     1
 10
47.3958021550176909
 20
496.4426764271807997
 30
0.0
  0
VERTEX
  5
48E3C
  8
0
  6
CONTINUOUS
 62
     1
 10
47.3958021550176909
 20
484.4426764271807997
 30
0.0
 42
0.4142135623731039
  0
VERTEX
  5
48E3D
  8
0
  6
CONTINUOUS
 62
     1
 10
48.3958021550176909
 20
483.4426764271809134
 30
0.0
  0
VERTEX
  5
48E3E
  8
0
  6
CONTINUOUS
 62
     1
 10
60.3958021550176909
 20
483.4426764271809134
 30
0.0
 42
0.4142135623730904
  0
VERTEX
  5
48E3F
  8
0
  6
CONTINUOUS
 62
     1
 10
61.3958021550176909
 20
484.4426764271807997
 30
0.0
  0
VERTEX
  5
48E40
  8
0
  6
CONTINUOUS
 62
     1
 10
61.3958021550176909
 20
496.4426764271807997
 30
0.0
 42
0.4142135623730968
  0
SEQEND
  5
48E41
  8
0
  6
CONTINUOUS
 62
     1
  0
POLYLINE
  5
44B82
  8
0
  6
CONTINUOUS
 62
     1
 66
     1
 10
0.0
 20
0.0
 30
0.0
 70
     1
  0
VERTEX
  5
48E42
  8
0
  6
CONTINUOUS
 62
     1
 10
79.0358021550175636
 20
499.5826764271808997
 30
0.0
  0
VERTEX
  5
48E43
  8
0
  6
CONTINUOUS
 62
     1
 10
67.0358021550175636
 20
499.5826764271808997
 30
0.0
 42
0.4142135623730943
  0
VERTEX
  5
48E44
  8
0
  6
CONTINUOUS
 62
     1
 10
66.0358021550175636
 20
498.582676427180786
 30
0.0
  0
VERTEX
  5
48E45
  8
0
  6
CONTINUOUS
 62
     1
 10
66.0358021550175636
 20
486.582676427180786
 30
0.0
 42
0.4142135623731049
  0
VERTEX
  5
48E46
  8
0
  6
CONTINUOUS
 62
     1
 10
67.0358021550175636
 20
485.582676427180786
 30
0.0
  0
VERTEX
  5
48E47
  8
0
  6
CONTINUOUS
 62
     1
 10
79.0358021550175636
 20
485.582676427180786
 30
0.0
 42
0.4142135623730809
  0
VERTEX
  5
48E48
  8
0
  6
CONTINUOUS
 62
     1
 10
80.0358021550175636
 20
486.582676427180786
 30
0.0
  0
VERTEX
  5
48E49
  8
0
  6
CONTINUOUS
 62
     1
 10
80.0358021550175636
 20
498.582676427180786
 30
0.0
 42
0.4142135623730865
  0
SEQEND
  5
48E4A
  8
0
  6
CONTINUOUS
 62
     1
  0
POLYLINE
  5
44B83
  8
0
  6
CONTINUOUS
 62
     1
 66
     1
 10
0.0
 20
0.0
 30
0.0
 70
     1
  0
VERTEX
  5
48E4B
  8
0
  6
CONTINUOUS
 62
     1
 10
65.7558021550178182
 20
478.3926764271806746
 30
0.0
  0
VERTEX
  5
48E4C
  8
0
  6
CONTINUOUS
 62
     1
 10
53.7558021550178111
 20
478.3926764271807883
 30
0.0
 42
0.414213562373093
  0
VERTEX
  5
48E4D
  8
0
  6
CONTINUOUS
 62
     1
 10
52.7558021550178182
 20
477.3926764271806746
 30
0.0
  0
VERTEX
  5
48E4E
  8
0
  6
CONTINUOUS
 62
     1
 10
52.7558021550178182
 20
465.3926764271806746
 30
0.0
 42
0.4142135623730919
  0
VERTEX
  5
48E4F
  8
0
  6
CONTINUOUS
 62
     1
 10
53.7558021550178111
 20
464.3926764271806746
 30
0.0
  0
VERTEX
  5
48E50
  8
0
  6
CONTINUOUS
 62
     1
 10
65.7558021550178182
 20
464.3926764271806746
 30
0.0
 42
0.4142135623730888
  0
VERTEX
  5
48E51
  8
0
  6
CONTINUOUS
 62
     1
 10
66.755802155017804
 20
465.3926764271806746
 30
0.0
  0
VERTEX
  5
48E52
  8
0
  6
CONTINUOUS
 62
     1
 10
66.755802155017804
 20
477.3926764271806746
 30
0.0
 42
0.4142135623730935
  0
SEQEND
  5
48E53
  8
0
  6
CONTINUOUS
 62
     1
  0
POLYLINE
  5
44B84
  8
0
  6
CONTINUOUS
 62
     1
 66
     1
 10
0.0
 20
0.0
 30
0.0
  0
VERTEX
  5
48E54
  8
0
  6
CONTINUOUS
 62
     1
 10
35.4958021550178273
 20
459.3426764271808906
 30
0.0
  0
VERTEX
  5
48E55
  8
0
  6
CONTINUOUS
 62
     1
 10
23.4958021550178309
 20
459.3426764271808906
 30
0.0
 42
0.4142135623730836
  0
VERTEX
  5
48E56
  8
0
  6
CONTINUOUS
 62
     1
 10
22.4958021550178309
 20
458.342676427180777
 30
0.0
  0
VERTEX
  5
48E57
  8
0
  6
CONTINUOUS
 62
     1
 10
22.4958021550178309
 20
446.342676427180777
 30
0.0
 42
0.4142135623730808
  0
VERTEX
  5
48E58
  8
0
  6
CONTINUOUS
 62
     1
 10
23.4958021550178309
 20
445.342676427180777
 30
0.0
  0
VERTEX
  5
48E59
  8
0
  6
CONTINUOUS
 62
     1
 10
35.4958021550178273
 20
445.342676427180777
 30
0.0
  0
SEQEND
  5
48E5A
  8
0
  6
CONTINUOUS
 62
     1
  0
POLYLINE
  5
44B85
  8
0
  6
CONTINUOUS
 62
     1
 66
     1
 10
0.0
 20
0.0
 30
0.0
 70
     1
  0
VERTEX
  5
48E5B
  8
0
  6
CONTINUOUS
 62
     1
 10
41.9458021550178728
 20
478.3926764271806746
 30
0.0
  0
VERTEX
  5
48E5C
  8
0
  6
CONTINUOUS
 62
     1
 10
29.9458021550178692
 20
478.3926764271807883
 30
0.0
 42
0.4142135623731091
  0
VERTEX
  5
48E5D
  8
0
  6
CONTINUOUS
 62
     1
 10
28.9458021550178692
 20
477.3926764271806746
 30
0.0
  0
VERTEX
  5
48E5E
  8
0
  6
CONTINUOUS
 62
     1
 10
28.9458021550178692
 20
465.3926764271806746
 30
0.0
 42
0.4142135623731086
  0
VERTEX
  5
48E5F
  8
0
  6
CONTINUOUS
 62
     1
 10
29.9458021550178692
 20
464.3926764271806746
 30
0.0
  0
VERTEX
  5
48E60
  8
0
  6
CONTINUOUS
 62
     1
 10
41.9458021550178728
 20
464.3926764271806746
 30
0.0
 42
0.4142135623730879
  0
VERTEX
  5
48E61
  8
0
  6
CONTINUOUS
 62
     1
 10
42.9458021550178728
 20
465.3926764271806746
 30
0.0
  0
VERTEX
  5
48E62
  8
0
  6
CONTINUOUS
 62
     1
 10
42.9458021550178728
 20
477.3926764271806746
 30
0.0
 42
0.4142135623730951
  0
SEQEND
  5
48E63
  8
0
  6
CONTINUOUS
 62
     1
  0
POLYLINE
  5
44B86
  8
0
  6
CONTINUOUS
 62
     1
 66
     1
 10
0.0
 20
0.0
 30
0.0
 70
     1
  0
VERTEX
  5
48E64
  8
0
  6
CONTINUOUS
 62
     1
 10
66.4558021550178637
 20
459.3426764271808906
 30
0.0
  0
VERTEX
  5
48E65
  8
0
  6
CONTINUOUS
 62
     1
 10
54.4558021550178566
 20
459.3426764271808906
 30
0.0
 42
0.4142135623730911
  0
VERTEX
  5
48E66
  8
0
  6
CONTINUOUS
 62
     1
 10
53.4558021550178708
 20
458.342676427180777
 30
0.0
  0
VERTEX
  5
48E67
  8
0
  6
CONTINUOUS
 62
     1
 10
53.4558021550178708
 20
446.342676427180777
 30
0.0
 42
0.4142135623730888
  0
VERTEX
  5
48E68
  8
0
  6
CONTINUOUS
 62
     1
 10
54.4558021550178566
 20
445.342676427180777
 30
0.0
  0
VERTEX
  5
48E69
  8
0
  6
CONTINUOUS
 62
     1
 10
66.4558021550178637
 20
445.342676427180777
 30
0.0
 42
0.4142135623730847
  0
VERTEX
  5
48E6A
  8
0
  6
CONTINUOUS
 62
     1
 10
67.4558021550178637
 20
446.342676427180777
 30
0.0
  0
VERTEX
  5
48E6B
  8
0
  6
CONTINUOUS
 62
     1
 10
67.4558021550178637
 20
458.342676427180777
 30
0.0
 42
0.4142135623730951
  0
SEQEND
  5
48E6C
  8
0
  6
CONTINUOUS
 62
     1
  0
POLYLINE
  5
44B87
  8
0
  6
CONTINUOUS
 62
     1
 66
     1
 10
0.0
 20
0.0
 30
0.0
 70
     1
  0
VERTEX
  5
48E6D
  8
0
  6
CONTINUOUS
 62
     1
 10
100.8600695951446937
 20
494.2222394874110023
 30
0.0
  0
VERTEX
  5
48E6E
  8
0
  6
CONTINUOUS
 62
     1
 10
89.1222983863397076
 20
496.7171797772239756
 30
0.0
 42
0.4142135623731141
  0
VERTEX
  5
48E6F
  8
0
  6
CONTINUOUS
 62
     1
 10
87.9362390947876662
 20
495.9469438673079935
 30
0.0
  0
VERTEX
  5
48E70
  8
0
  6
CONTINUOUS
 62
     1
 10
85.441298804974835
 20
484.2091726585023252
 30
0.0
 42
0.4142135623730951
  0
VERTEX
  5
48E71
  8
0
  6
CONTINUOUS
 62
     1
 10
86.2115347148908313
 20
483.0231133669506107
 30
0.0
  0
VERTEX
  5
48E72
  8
0
  6
CONTINUOUS
 62
     1
 10
97.9493059236967838
 20
480.5281730771375237
 30
0.0
 42
0.4142135623731356
  0
VERTEX
  5
48E73
  8
0
  6
CONTINUOUS
 62
     1
 10
99.1353652152474751
 20
481.2984089870536195
 30
0.0
  0
VERTEX
  5
48E74
  8
0
  6
CONTINUOUS
 62
     1
 10
101.6303055050607043
 20
493.0361801958594015
 30
0.0
 42
0.4142135623731324
  0
SEQEND
  5
48E75
  8
0
  6
CONTINUOUS
 62
     1
  0
POLYLINE
  5
44B88
  8
0
  6
CONTINUOUS
 62
     1
 66
     1
 10
0.0
 20
0.0
 30
0.0
 70
     1
  0
VERTEX
  5
48E76
  8
0
  6
CONTINUOUS
 62
     1
 10
87.5800695951447778
 20
477.5722394874109114
 30
0.0
  0
VERTEX
  5
48E77
  8
0
  6
CONTINUOUS
 62
     1
 10
75.8422983863397349
 20
480.0671797772239984
 30
0.0
 42
0.4142135623731173
  0
VERTEX
  5
48E78
  8
0
  6
CONTINUOUS
 62
     1
 10
74.656239094788134
 20
479.2969438673077889
 30
0.0
  0
VERTEX
  5
48E79
  8
0
  6
CONTINUOUS
 62
     1
 10
72.1612988049748765
 20
467.5591726585021775
 30
0.0
 42
0.4142135623731062
  0
VERTEX
  5
48E7A
  8
0
  6
CONTINUOUS
 62
     1
 10
72.9315347148908586
 20
466.3731133669506903
 30
0.0
  0
VERTEX
  5
48E7B
  8
0
  6
CONTINUOUS
 62
     1
 10
84.6693059236968111
 20
463.8781730771376033
 30
0.0
 42
0.41421356237313
  0
VERTEX
  5
48E7C
  8
0
  6
CONTINUOUS
 62
     1
 10
85.8553652152474882
 20
464.6484089870538128
 30
0.0
  0
VERTEX
  5
48E7D
  8
0
  6
CONTINUOUS
 62
     1
 10
88.3503055050607458
 20
476.3861801958593105
 30
0.0
 42
0.4142135623731507
  0
SEQEND
  5
48E7E
  8
0
  6
CONTINUOUS
 62
     1
  0
POLYLINE
  5
44B89
  8
0
  6
CONTINUOUS
 62
     1
 66
     1
 10
0.0
 20
0.0
 30
0.0
 70
     1
  0
VERTEX
  5
48E7F
  8
0
  6
CONTINUOUS
 62
     1
 10
88.8200695951447869
 20
417.3422394874107795
 30
0.0
  0
VERTEX
  5
48E80
  8
0
  6
CONTINUOUS
 62
     1
 10
77.082298386339744
 20
419.8371797772239802
 30
0.0
 42
0.4142135623731507
  0
VERTEX
  5
48E81
  8
0
  6
CONTINUOUS
 62
     1
 10
75.8962390947876884
 20
419.0669438673078844
 30
0.0
  0
VERTEX
  5
48E82
  8
0
  6
CONTINUOUS
 62
     1
 10
73.4012988049751129
 20
407.329172658502273
 30
0.0
 42
0.4142135623730641
  0
VERTEX
  5
48E83
  8
0
  6
CONTINUOUS
 62
     1
 10
74.1715347148908535
 20
406.1431133669506721
 30
0.0
  0
VERTEX
  5
48E84
  8
0
  6
CONTINUOUS
 62
     1
 10
85.9093059236968202
 20
403.6481730771375851
 30
0.0
 42
0.4142135623731162
  0
VERTEX
  5
48E85
  8
0
  6
CONTINUOUS
 62
     1
 10
87.0953652152475257
 20
404.4184089870536809
 30
0.0
  0
VERTEX
  5
48E86
  8
0
  6
CONTINUOUS
 62
     1
 10
89.5903055050607549
 20
416.1561801958591786
 30
0.0
 42
0.414213562373117
  0
SEQEND
  5
48E87
  8
0
  6
CONTINUOUS
 62
     1
  0
POLYLINE
  5
44B8A
  8
0
  6
CONTINUOUS
 62
     1
 66
     1
 10
0.0
 20
0.0
 30
0.0
 70
     1
  0
VERTEX
  5
48E88
  8
0
  6
CONTINUOUS
 62
     1
 10
93.6300695951447324
 20
437.3322394874109023
 30
0.0
  0
VERTEX
  5
48E89
  8
0
  6
CONTINUOUS
 62
     1
 10
81.8922983863396752
 20
439.827179777224103
 30
0.0
 42
0.4142135623731184
  0
VERTEX
  5
48E8A
  8
0
  6
CONTINUOUS
 62
     1
 10
80.7062390947876338
 20
439.0569438673078935
 30
0.0
  0
VERTEX
  5
48E8B
  8
0
  6
CONTINUOUS
 62
     1
 10
78.211298804974831
 20
427.319172658502282
 30
0.0
 42
0.4142135623730567
  0
VERTEX
  5
48E8C
  8
0
  6
CONTINUOUS
 62
     1
 10
78.9815347148908131
 20
426.1331133669506812
 30
0.0
  0
VERTEX
  5
48E8D
  8
0
  6
CONTINUOUS
 62
     1
 10
90.7193059236967656
 20
423.6381730771374805
 30
0.0
 42
0.4142135623731162
  0
VERTEX
  5
48E8E
  8
0
  6
CONTINUOUS
 62
     1
 10
91.9053652152479117
 20
424.4084089870538037
 30
0.0
  0
VERTEX
  5
48E8F
  8
0
  6
CONTINUOUS
 62
     1
 10
94.4003055050607145
 20
436.1461801958594151
 30
0.0
 42
0.4142135623731189
  0
SEQEND
  5
48E90
  8
0
  6
CONTINUOUS
 62
     1
  0
POLYLINE
  5
44B8B
  8
0
  6
CONTINUOUS
 62
     1
 66
     1
 10
0.0
 20
0.0
 30
0.0
 70
     1
  0
VERTEX
  5
48E91
  8
0
  6
CONTINUOUS
 62
     1
 10
88.2800695951448233
 20
457.9422394874109159
 30
0.0
  0
VERTEX
  5
48E92
  8
0
  6
CONTINUOUS
 62
     1
 10
76.5422983863388708
 20
460.4371797772238892
 30
0.0
 42
0.4142135623731073
  0
VERTEX
  5
48E93
  8
0
  6
CONTINUOUS
 62
     1
 10
75.3562390947874974
 20
459.6669438673080776
 30
0.0
  0
VERTEX
  5
48E94
  8
0
  6
CONTINUOUS
 62
     1
 10
72.8612988049746946
 20
447.929172658502182
 30
0.0
 42
0.414213562373078
  0
VERTEX
  5
48E95
  8
0
  6
CONTINUOUS
 62
     1
 10
73.6315347148909041
 20
446.7431133669505812
 30
0.0
  0
VERTEX
  5
48E96
  8
0
  6
CONTINUOUS
 62
     1
 10
85.3693059236968566
 20
444.2481730771374941
 30
0.0
 42
0.4142135623731159
  0
VERTEX
  5
48E97
  8
0
  6
CONTINUOUS
 62
     1
 10
86.5553652152475479
 20
445.01840898705359
 30
0.0
  0
VERTEX
  5
48E98
  8
0
  6
CONTINUOUS
 62
     1
 10
89.0503055050617149
 20
456.7561801958593151
 30
0.0
 42
0.4142135623731232
  0
SEQEND
  5
48E99
  8
0
  6
CONTINUOUS
 62
     1
  0
POLYLINE
  5
44B8C
  8
0
  6
CONTINUOUS
 62
     1
 66
     1
 10
0.0
 20
0.0
 30
0.0
 70
     1
  0
VERTEX
  5
48E9A
  8
0
  6
CONTINUOUS
 62
     1
 10
119.4937813891234981
 20
490.2615217773325753
 30
0.0
  0
VERTEX
  5
48E9B
  8
0
  6
CONTINUOUS
 62
     1
 10
107.7560101803186967
 20
492.7564620671457192
 30
0.0
 42
0.4142135623731033
  0
VERTEX
  5
48E9C
  8
0
  6
CONTINUOUS
 62
     1
 10
106.5699508887668969
 20
491.9862261572297939
 30
0.0
  0
VERTEX
  5
48E9D
  8
0
  6
CONTINUOUS
 62
     1
 10
104.0750105989538952
 20
480.2484549484237846
 30
0.0
 42
0.4142135623731002
  0
VERTEX
  5
48E9E
  8
0
  6
CONTINUOUS
 62
     1
 10
104.8452465088699057
 20
479.0623956568722974
 30
0.0
  0
VERTEX
  5
48E9F
  8
0
  6
CONTINUOUS
 62
     1
 10
116.5830177176758014
 20
476.5674553670593241
 30
0.0
 42
0.4142135623731076
  0
VERTEX
  5
48EA0
  8
0
  6
CONTINUOUS
 62
     1
 10
117.7690770092270043
 20
477.3376912769751925
 30
0.0
  0
VERTEX
  5
48EA1
  8
0
  6
CONTINUOUS
 62
     1
 10
120.2640172990407024
 20
489.0754624857809745
 30
0.0
 42
0.4142135623731356
  0
SEQEND
  5
48EA2
  8
0
  6
CONTINUOUS
 62
     1
  0
POLYLINE
  5
44B8D
  8
0
  6
CONTINUOUS
 62
     1
 66
     1
 10
0.0
 20
0.0
 30
0.0
 70
     1
  0
VERTEX
  5
48EA3
  8
0
  6
CONTINUOUS
 62
     1
 10
106.2137813891235965
 20
473.6115217773324844
 30
0.0
  0
VERTEX
  5
48EA4
  8
0
  6
CONTINUOUS
 62
     1
 10
94.4760101803190082
 20
476.1064620671457988
 30
0.0
 42
0.41421356237311
  0
VERTEX
  5
48EA5
  8
0
  6
CONTINUOUS
 62
     1
 10
93.2899508887669526
 20
475.3362261572297029
 30
0.0
  0
VERTEX
  5
48EA6
  8
0
  6
CONTINUOUS
 62
     1
 10
90.7950105989536951
 20
463.5984549484239778
 30
0.0
 42
0.4142135623730832
  0
VERTEX
  5
48EA7
  8
0
  6
CONTINUOUS
 62
     1
 10
91.5652465088701177
 20
462.412395656872377
 30
0.0
  0
VERTEX
  5
48EA8
  8
0
  6
CONTINUOUS
 62
     1
 10
103.3030177176758002
 20
459.9174553670591763
 30
0.0
 42
0.4142135623731247
  0
VERTEX
  5
48EA9
  8
0
  6
CONTINUOUS
 62
     1
 10
104.4890770092268042
 20
460.6876912769752721
 30
0.0
  0
VERTEX
  5
48EAA
  8
0
  6
CONTINUOUS
 62
     1
 10
106.9840172990409002
 20
472.4254624857811109
 30
0.0
 42
0.414213562373143
  0
SEQEND
  5
48EAB
  8
0
  6
CONTINUOUS
 62
     1
  0
POLYLINE
  5
44B8E
  8
0
  6
CONTINUOUS
 62
     1
 66
     1
 10
0.0
 20
0.0
 30
0.0
 70
     1
  0
VERTEX
  5
48EAC
  8
0
  6
CONTINUOUS
 62
     1
 10
106.9137813891246935
 20
453.9815217773324889
 30
0.0
  0
VERTEX
  5
48EAD
  8
0
  6
CONTINUOUS
 62
     1
 10
95.1760101803188263
 20
456.4764620671455759
 30
0.0
 42
0.4142135623731301
  0
VERTEX
  5
48EAE
  8
0
  6
CONTINUOUS
 62
     1
 10
93.9899508887667707
 20
455.7062261572297075
 30
0.0
  0
VERTEX
  5
48EAF
  8
0
  6
CONTINUOUS
 62
     1
 10
91.4950105989535132
 20
443.9684549484239824
 30
0.0
 42
0.4142135623730597
  0
VERTEX
  5
48EB0
  8
0
  6
CONTINUOUS
 62
     1
 10
92.2652465088697227
 20
442.7823956568723247
 30
0.0
  0
VERTEX
  5
48EB1
  8
0
  6
CONTINUOUS
 62
     1
 10
104.0030177176761015
 20
440.2874553670592945
 30
0.0
 42
0.4142135623731333
  0
VERTEX
  5
48EB2
  8
0
  6
CONTINUOUS
 62
     1
 10
105.189077009227006
 20
441.0576912769752767
 30
0.0
  0
VERTEX
  5
48EB3
  8
0
  6
CONTINUOUS
 62
     1
 10
107.6840172990395956
 20
452.7954624857808881
 30
0.0
 42
0.4142135623731162
  0
SEQEND
  5
48EB4
  8
0
  6
CONTINUOUS
 62
     1
  0
POLYLINE
  5
44B8F
  8
0
  6
CONTINUOUS
 62
     1
 66
     1
 10
0.0
 20
0.0
 30
0.0
 70
     1
  0
VERTEX
  5
48EB5
  8
0
  6
CONTINUOUS
 62
     1
 10
112.2637813891234941
 20
433.371521777332589
 30
0.0
  0
VERTEX
  5
48EB6
  8
0
  6
CONTINUOUS
 62
     1
 10
100.5260101803177974
 20
435.8664620671457897
 30
0.0
 42
0.4142135623731062
  0
VERTEX
  5
48EB7
  8
0
  6
CONTINUOUS
 62
     1
 10
99.3399508887669214
 20
435.0962261572296939
 30
0.0
  0
VERTEX
  5
48EB8
  8
0
  6
CONTINUOUS
 62
     1
 10
96.8450105989538912
 20
423.3584549484240256
 30
0.0
 42
0.4142135623730641
  0
VERTEX
  5
48EB9
  8
0
  6
CONTINUOUS
 62
     1
 10
97.6152465088698591
 20
422.1723956568724248
 30
0.0
  0
VERTEX
  5
48EBA
  8
0
  6
CONTINUOUS
 62
     1
 10
109.3530177176757974
 20
419.6774553670592809
 30
0.0
 42
0.4142135623731162
  0
VERTEX
  5
48EBB
  8
0
  6
CONTINUOUS
 62
     1
 10
110.5390770092269008
 20
420.4476912769753767
 30
0.0
  0
VERTEX
  5
48EBC
  8
0
  6
CONTINUOUS
 62
     1
 10
113.0340172990397036
 20
432.1854624857811018
 30
0.0
 42
0.414213562373086
  0
SEQEND
  5
48EBD
  8
0
  6
CONTINUOUS
 62
     1
  0
POLYLINE
  5
44B90
  8
0
  6
CONTINUOUS
 62
     1
 66
     1
 10
0.0
 20
0.0
 30
0.0
 70
     1
  0
VERTEX
  5
48EBE
  8
0
  6
CONTINUOUS
 62
     1
 10
138.1274931831028141
 20
486.3008040672543757
 30
0.0
  0
VERTEX
  5
48EBF
  8
0
  6
CONTINUOUS
 62
     1
 10
126.3897219742977995
 20
488.7957443570675196
 30
0.0
 42
0.4142135623731325
  0
VERTEX
  5
48EC0
  8
0
  6
CONTINUOUS
 62
     1
 10
125.2036626827455024
 20
488.0255084471513101
 30
0.0
  0
VERTEX
  5
48EC1
  8
0
  6
CONTINUOUS
 62
     1
 10
122.7087223929328985
 20
476.287737238345585
 30
0.0
 42
0.4142135623730682
  0
VERTEX
  5
48EC2
  8
0
  6
CONTINUOUS
 62
     1
 10
123.4789583028486959
 20
475.1016779467939841
 30
0.0
  0
VERTEX
  5
48EC3
  8
0
  6
CONTINUOUS
 62
     1
 10
135.2167295116549042
 20
472.6067376569808971
 30
0.0
 42
0.4142135623731232
  0
VERTEX
  5
48EC4
  8
0
  6
CONTINUOUS
 62
     1
 10
136.4027888032057945
 20
473.3769735668969929
 30
0.0
  0
VERTEX
  5
48EC5
  8
0
  6
CONTINUOUS
 62
     1
 10
138.8977290930187962
 20
485.114744775702718
 30
0.0
 42
0.4142135623730982
  0
SEQEND
  5
48EC6
  8
0
  6
CONTINUOUS
 62
     1
  0
POLYLINE
  5
44B91
  8
0
  6
CONTINUOUS
 62
     1
 66
     1
 10
0.0
 20
0.0
 30
0.0
 70
     1
  0
VERTEX
  5
48EC7
  8
0
  6
CONTINUOUS
 62
     1
 10
124.8474931831027988
 20
469.6508040672542847
 30
0.0
  0
VERTEX
  5
48EC8
  8
0
  6
CONTINUOUS
 62
     1
 10
113.1097219742977984
 20
472.1457443570673718
 30
0.0
 42
0.4142135623731165
  0
VERTEX
  5
48EC9
  8
0
  6
CONTINUOUS
 62
     1
 10
111.9236626827455012
 20
471.375508447151276
 30
0.0
  0
VERTEX
  5
48ECA
  8
0
  6
CONTINUOUS
 62
     1
 10
109.4287223929326984
 20
459.6377372383456077
 30
0.0
 42
0.4142135623730819
  0
VERTEX
  5
48ECB
  8
0
  6
CONTINUOUS
 62
     1
 10
110.1989583028486948
 20
458.4516779467941205
 30
0.0
  0
VERTEX
  5
48ECC
  8
0
  6
CONTINUOUS
 62
     1
 10
121.936729511654903
 20
455.9567376569810904
 30
0.0
 42
0.4142135623731359
  0
VERTEX
  5
48ECD
  8
0
  6
CONTINUOUS
 62
     1
 10
123.1227888032057933
 20
456.7269735668970156
 30
0.0
  0
VERTEX
  5
48ECE
  8
0
  6
CONTINUOUS
 62
     1
 10
125.6177290930195056
 20
468.4647447757026839
 30
0.0
 42
0.4142135623731411
  0
SEQEND
  5
48ECF
  8
0
  6
CONTINUOUS
 62
     1
  0
POLYLINE
  5
44B92
  8
0
  6
CONTINUOUS
 62
     1
 66
     1
 10
0.0
 20
0.0
 30
0.0
 70
     1
  0
VERTEX
  5
48ED0
  8
0
  6
CONTINUOUS
 62
     1
 10
125.5474931831027021
 20
450.0208040672542893
 30
0.0
  0
VERTEX
  5
48ED1
  8
0
  6
CONTINUOUS
 62
     1
 10
113.8097219742979007
 20
452.5157443570673195
 30
0.0
 42
0.4142135623730992
  0
VERTEX
  5
48ED2
  8
0
  6
CONTINUOUS
 62
     1
 10
112.6236626827458025
 20
451.7455084471512805
 30
0.0
  0
VERTEX
  5
48ED3
  8
0
  6
CONTINUOUS
 62
     1
 10
110.1287223929328007
 20
440.0077372383456122
 30
0.0
 42
0.4142135623731364
  0
VERTEX
  5
48ED4
  8
0
  6
CONTINUOUS
 62
     1
 10
110.8989583028486976
 20
438.8216779467941819
 30
0.0
  0
VERTEX
  5
48ED5
  8
0
  6
CONTINUOUS
 62
     1
 10
122.6367295116547069
 20
436.3267376569809244
 30
0.0
 42
0.4142135623731289
  0
VERTEX
  5
48ED6
  8
0
  6
CONTINUOUS
 62
     1
 10
123.8227888032055972
 20
437.096973566897077
 30
0.0
  0
VERTEX
  5
48ED7
  8
0
  6
CONTINUOUS
 62
     1
 10
126.3177290930190964
 20
448.8347447757026885
 30
0.0
 42
0.4142135623731104
  0
SEQEND
  5
48ED8
  8
0
  6
CONTINUOUS
 62
     1
  0
POLYLINE
  5
44B93
  8
0
  6
CONTINUOUS
 62
     1
 66
     1
 10
0.0
 20
0.0
 30
0.0
 70
     1
  0
VERTEX
  5
48ED9
  8
0
  6
CONTINUOUS
 62
     1
 10
130.8974931831027959
 20
429.4108040672543893
 30
0.0
  0
VERTEX
  5
48EDA
  8
0
  6
CONTINUOUS
 62
     1
 10
119.1597219742972982
 20
431.9057443570674195
 30
0.0
 42
0.4142135623731062
  0
VERTEX
  5
48EDB
  8
0
  6
CONTINUOUS
 62
     1
 10
117.9736626827454984
 20
431.1355084471513806
 30
0.0
  0
VERTEX
  5
48EDC
  8
0
  6
CONTINUOUS
 62
     1
 10
115.4787223929326956
 20
419.3977372383455986
 30
0.0
 42
0.4142135623730749
  0
VERTEX
  5
48EDD
  8
0
  6
CONTINUOUS
 62
     1
 10
116.2489583028489051
 20
418.2116779467941114
 30
0.0
  0
VERTEX
  5
48EDE
  8
0
  6
CONTINUOUS
 62
     1
 10
127.9867295116548007
 20
415.7167376569810813
 30
0.0
 42
0.4142135623731244
  0
VERTEX
  5
48EDF
  8
0
  6
CONTINUOUS
 62
     1
 10
129.172788803205691
 20
416.4869735668970065
 30
0.0
  0
VERTEX
  5
48EE0
  8
0
  6
CONTINUOUS
 62
     1
 10
131.6677290930188065
 20
428.2247447757026748
 30
0.0
 42
0.4142135623731066
  0
SEQEND
  5
48EE1
  8
0
  6
CONTINUOUS
 62
     1
  0
POLYLINE
  5
44B94
  8
0
  6
CONTINUOUS
 62
     1
 66
     1
 10
0.0
 20
0.0
 30
0.0
 70
     1
  0
VERTEX
  5
48EE2
  8
0
  6
CONTINUOUS
 62
     1
 10
156.7612049770818885
 20
482.3400863571761192
 30
0.0
  0
VERTEX
  5
48EE3
  8
0
  6
CONTINUOUS
 62
     1
 10
145.0234337682765897
 20
484.8350266469890926
 30
0.0
 42
0.4142135623731414
  0
VERTEX
  5
48EE4
  8
0
  6
CONTINUOUS
 62
     1
 10
143.8373744767247899
 20
484.0647907370732241
 30
0.0
  0
VERTEX
  5
48EE5
  8
0
  6
CONTINUOUS
 62
     1
 10
141.342434186911504
 20
472.3270195282672148
 30
0.0
 42
0.4142135623730774
  0
VERTEX
  5
48EE6
  8
0
  6
CONTINUOUS
 62
     1
 10
142.1126700968274861
 20
471.1409602367155003
 30
0.0
  0
VERTEX
  5
48EE7
  8
0
  6
CONTINUOUS
 62
     1
 10
153.8504413056336944
 20
468.646019946902527
 30
0.0
 42
0.4142135623731182
  0
VERTEX
  5
48EE8
  8
0
  6
CONTINUOUS
 62
     1
 10
155.036500597184812
 20
469.4162558568186796
 30
0.0
  0
VERTEX
  5
48EE9
  8
0
  6
CONTINUOUS
 62
     1
 10
157.5314408869978138
 20
481.1540270656244047
 30
0.0
 42
0.4142135623731461
  0
SEQEND
  5
48EEA
  8
0
  6
CONTINUOUS
 62
     1
  0
POLYLINE
  5
44B95
  8
0
  6
CONTINUOUS
 62
     1
 66
     1
 10
0.0
 20
0.0
 30
0.0
 70
     1
  0
VERTEX
  5
48EEB
  8
0
  6
CONTINUOUS
 62
     1
 10
143.4812049770814042
 20
465.6900863571760283
 30
0.0
  0
VERTEX
  5
48EEC
  8
0
  6
CONTINUOUS
 62
     1
 10
131.7434337682763896
 20
468.1850266469892858
 30
0.0
 42
0.4142135623731097
  0
VERTEX
  5
48EED
  8
0
  6
CONTINUOUS
 62
     1
 10
130.5573744767247888
 20
467.4147907370730763
 30
0.0
  0
VERTEX
  5
48EEE
  8
0
  6
CONTINUOUS
 62
     1
 10
128.0624341869115028
 20
455.6770195282672944
 30
0.0
 42
0.4142135623730673
  0
VERTEX
  5
48EEF
  8
0
  6
CONTINUOUS
 62
     1
 10
128.8326700968275134
 20
454.4909602367156936
 30
0.0
  0
VERTEX
  5
48EF0
  8
0
  6
CONTINUOUS
 62
     1
 10
140.5704413056334943
 20
451.9960199469027202
 30
0.0
 42
0.414213562373152
  0
VERTEX
  5
48EF1
  8
0
  6
CONTINUOUS
 62
     1
 10
141.7565005971846119
 20
452.7662558568187023
 30
0.0
  0
VERTEX
  5
48EF2
  8
0
  6
CONTINUOUS
 62
     1
 10
144.2514408869980969
 20
464.5040270656244275
 30
0.0
 42
0.4142135623731692
  0
SEQEND
  5
48EF3
  8
0
  6
CONTINUOUS
 62
     1
  0
POLYLINE
  5
44B96
  8
0
  6
CONTINUOUS
 62
     1
 66
     1
 10
0.0
 20
0.0
 30
0.0
 70
     1
  0
VERTEX
  5
48EF4
  8
0
  6
CONTINUOUS
 62
     1
 10
144.1812049770828139
 20
446.0600863571759191
 30
0.0
  0
VERTEX
  5
48EF5
  8
0
  6
CONTINUOUS
 62
     1
 10
132.4434337682766909
 20
448.5550266469891767
 30
0.0
 42
0.4142135623731335
  0
VERTEX
  5
48EF6
  8
0
  6
CONTINUOUS
 62
     1
 10
131.2573744767248058
 20
447.7847907370730809
 30
0.0
  0
VERTEX
  5
48EF7
  8
0
  6
CONTINUOUS
 62
     1
 10
128.7624341869118041
 20
436.0470195282674126
 30
0.0
 42
0.4142135623731182
  0
VERTEX
  5
48EF8
  8
0
  6
CONTINUOUS
 62
     1
 10
129.5326700968277862
 20
434.8609602367158118
 30
0.0
  0
VERTEX
  5
48EF9
  8
0
  6
CONTINUOUS
 62
     1
 10
141.2704413056333124
 20
432.3660199469027248
 30
0.0
 42
0.4142135623730808
  0
VERTEX
  5
48EFA
  8
0
  6
CONTINUOUS
 62
     1
 10
142.4565005971849132
 20
433.1362558568188206
 30
0.0
  0
VERTEX
  5
48EFB
  8
0
  6
CONTINUOUS
 62
     1
 10
144.9514408869976876
 20
444.8740270656244888
 30
0.0
 42
0.4142135623731398
  0
SEQEND
  5
48EFC
  8
0
  6
CONTINUOUS
 62
     1
  0
POLYLINE
  5
44B97
  8
0
  6
CONTINUOUS
 62
     1
 66
     1
 10
0.0
 20
0.0
 30
0.0
 70
     1
  0
VERTEX
  5
48EFD
  8
0
  6
CONTINUOUS
 62
     1
 10
149.5312049770818135
 20
425.4500863571760192
 30
0.0
  0
VERTEX
  5
48EFE
  8
0
  6
CONTINUOUS
 62
     1
 10
137.7934337682756905
 20
427.9450266469892199
 30
0.0
 42
0.4142135623731588
  0
VERTEX
  5
48EFF
  8
0
  6
CONTINUOUS
 62
     1
 10
136.6073744767246865
 20
427.1747907370730104
 30
0.0
  0
VERTEX
  5
48F00
  8
0
  6
CONTINUOUS
 62
     1
 10
134.1124341869115142
 20
415.4370195282672853
 30
0.0
 42
0.4142135623730527
  0
VERTEX
  5
48F01
  8
0
  6
CONTINUOUS
 62
     1
 10
134.8826700968274963
 20
414.2509602367157981
 30
0.0
  0
VERTEX
  5
48F02
  8
0
  6
CONTINUOUS
 62
     1
 10
146.6204413056339035
 20
411.7560199469027111
 30
0.0
 42
0.4142135623730951
  0
VERTEX
  5
48F03
  8
0
  6
CONTINUOUS
 62
     1
 10
147.8065005971847938
 20
412.5262558568189206
 30
0.0
  0
VERTEX
  5
48F04
  8
0
  6
CONTINUOUS
 62
     1
 10
150.3014408869977956
 20
424.2640270656243047
 30
0.0
 42
0.4142135623731088
  0
SEQEND
  5
48F05
  8
0
  6
CONTINUOUS
 62
     1
  0
POLYLINE
  5
44B98
  8
0
  6
CONTINUOUS
 62
     1
 66
     1
 10
0.0
 20
0.0
 30
0.0
 70
     1
  0
VERTEX
  5
48F06
  8
0
  6
CONTINUOUS
 62
     1
 10
232.5493059236966928
 20
478.0871797772239233
 30
0.0
  0
VERTEX
  5
48F07
  8
0
  6
CONTINUOUS
 62
     1
 10
220.8115347148909962
 20
475.5922394874110068
 30
0.0
 42
0.4142135623730498
  0
VERTEX
  5
48F08
  8
0
  6
CONTINUOUS
 62
     1
 10
220.0412988049747867
 20
474.406180195859406
 30
0.0
  0
VERTEX
  5
48F09
  8
0
  6
CONTINUOUS
 62
     1
 10
222.5362390947877884
 20
462.6684089870536241
 30
0.0
 42
0.4142135623731046
  0
VERTEX
  5
48F0A
  8
0
  6
CONTINUOUS
 62
     1
 10
223.7222983863395882
 20
461.8981730771376988
 30
0.0
  0
VERTEX
  5
48F0B
  8
0
  6
CONTINUOUS
 62
     1
 10
235.460069595144887
 20
464.3931133669506721
 30
0.0
 42
0.4142135623729788
  0
VERTEX
  5
48F0C
  8
0
  6
CONTINUOUS
 62
     1
 10
236.230305505061807
 20
465.579172658502273
 30
0.0
  0
VERTEX
  5
48F0D
  8
0
  6
CONTINUOUS
 62
     1
 10
233.7353652152478105
 20
477.3169438673078275
 30
0.0
 42
0.4142135623730516
  0
SEQEND
  5
48F0E
  8
0
  6
CONTINUOUS
 62
     1
  0
POLYLINE
  5
44B99
  8
0
  6
CONTINUOUS
 62
     1
 66
     1
 10
0.0
 20
0.0
 30
0.0
 70
     1
  0
VERTEX
  5
48F0F
  8
0
  6
CONTINUOUS
 62
     1
 10
237.9093059236965928
 20
498.6971797772239938
 30
0.0
  0
VERTEX
  5
48F10
  8
0
  6
CONTINUOUS
 62
     1
 10
226.1715347148908961
 20
496.2022394874106794
 30
0.0
 42
0.4142135623730804
  0
VERTEX
  5
48F11
  8
0
  6
CONTINUOUS
 62
     1
 10
225.4012988049751129
 20
495.016180195859306
 30
0.0
  0
VERTEX
  5
48F12
  8
0
  6
CONTINUOUS
 62
     1
 10
227.8962390947876884
 20
483.2784089870535809
 30
0.0
 42
0.4142135623731095
  0
VERTEX
  5
48F13
  8
0
  6
CONTINUOUS
 62
     1
 10
229.0822983863396871
 20
482.5081730771374851
 30
0.0
  0
VERTEX
  5
48F14
  8
0
  6
CONTINUOUS
 62
     1
 10
240.8200695951447869
 20
485.0031133669505721
 30
0.0
 42
0.41421356237308
  0
VERTEX
  5
48F15
  8
0
  6
CONTINUOUS
 62
     1
 10
241.5903055050621049
 20
486.1891726585022866
 30
0.0
  0
VERTEX
  5
48F16
  8
0
  6
CONTINUOUS
 62
     1
 10
239.0953652152475115
 20
497.926943867307898
 30
0.0
 42
0.4142135623730563
  0
SEQEND
  5
48F17
  8
0
  6
CONTINUOUS
 62
     1
  0
POLYLINE
  5
44B9A
  8
0
  6
CONTINUOUS
 62
     1
 66
     1
 10
0.0
 20
0.0
 30
0.0
 70
     1
  0
VERTEX
  5
48F18
  8
0
  6
CONTINUOUS
 62
     1
 10
241.1693059236966121
 20
460.4371797772238892
 30
0.0
  0
VERTEX
  5
48F19
  8
0
  6
CONTINUOUS
 62
     1
 10
229.431534714890887
 20
457.9422394874106885
 30
0.0
 42
0.4142135623730928
  0
VERTEX
  5
48F1A
  8
0
  6
CONTINUOUS
 62
     1
 10
228.6612988049749049
 20
456.7561801958593151
 30
0.0
  0
VERTEX
  5
48F1B
  8
0
  6
CONTINUOUS
 62
     1
 10
231.1562390947881056
 20
445.01840898705359
 30
0.0
 42
0.4142135623731197
  0
VERTEX
  5
48F1C
  8
0
  6
CONTINUOUS
 62
     1
 10
232.3422983863397064
 20
444.2481730771374941
 30
0.0
  0
VERTEX
  5
48F1D
  8
0
  6
CONTINUOUS
 62
     1
 10
244.0800695951448063
 20
446.7431133669506949
 30
0.0
 42
0.4142135623730563
  0
VERTEX
  5
48F1E
  8
0
  6
CONTINUOUS
 62
     1
 10
244.8503055050607884
 20
447.929172658502182
 30
0.0
  0
VERTEX
  5
48F1F
  8
0
  6
CONTINUOUS
 62
     1
 10
242.3553652152475024
 20
459.6669438673080776
 30
0.0
 42
0.4142135623730307
  0
SEQEND
  5
48F20
  8
0
  6
CONTINUOUS
 62
     1
  0
POLYLINE
  5
44B9B
  8
0
  6
CONTINUOUS
 62
     1
 66
     1
 10
0.0
 20
0.0
 30
0.0
 70
     1
  0
VERTEX
  5
48F21
  8
0
  6
CONTINUOUS
 62
     1
 10
235.8093059236967122
 20
439.8271797772239893
 30
0.0
  0
VERTEX
  5
48F22
  8
0
  6
CONTINUOUS
 62
     1
 10
224.0715347148909871
 20
437.3322394874109023
 30
0.0
 42
0.4142135623730823
  0
VERTEX
  5
48F23
  8
0
  6
CONTINUOUS
 62
     1
 10
223.3012988049746923
 20
436.1461801958593014
 30
0.0
  0
VERTEX
  5
48F24
  8
0
  6
CONTINUOUS
 62
     1
 10
225.7962390947878077
 20
424.4084089870535763
 30
0.0
 42
0.4142135623731062
  0
VERTEX
  5
48F25
  8
0
  6
CONTINUOUS
 62
     1
 10
226.9822983863396075
 20
423.6381730771374805
 30
0.0
  0
VERTEX
  5
48F26
  8
0
  6
CONTINUOUS
 62
     1
 10
238.7200695951449063
 20
426.1331133669506812
 30
0.0
 42
0.4142135623731073
  0
VERTEX
  5
48F27
  8
0
  6
CONTINUOUS
 62
     1
 10
239.4903055050606042
 20
427.319172658502282
 30
0.0
  0
VERTEX
  5
48F28
  8
0
  6
CONTINUOUS
 62
     1
 10
236.9953652152478014
 20
439.0569438673078935
 30
0.0
 42
0.4142135623730823
  0
SEQEND
  5
48F29
  8
0
  6
CONTINUOUS
 62
     1
  0
POLYLINE
  5
44B9C
  8
0
  6
CONTINUOUS
 62
     1
 66
     1
 10
0.0
 20
0.0
 30
0.0
 70
     1
  0
VERTEX
  5
48F2A
  8
0
  6
CONTINUOUS
 62
     1
 10
240.6193059236966008
 20
419.8371797772240939
 30
0.0
  0
VERTEX
  5
48F2B
  8
0
  6
CONTINUOUS
 62
     1
 10
228.8815347148909041
 20
417.3422394874107795
 30
0.0
 42
0.4142135623730729
  0
VERTEX
  5
48F2C
  8
0
  6
CONTINUOUS
 62
     1
 10
228.1112988049746946
 20
416.1561801958591786
 30
0.0
  0
VERTEX
  5
48F2D
  8
0
  6
CONTINUOUS
 62
     1
 10
230.6062390947876963
 20
404.4184089870536809
 30
0.0
 42
0.4142135623730911
  0
VERTEX
  5
48F2E
  8
0
  6
CONTINUOUS
 62
     1
 10
231.7922983863394961
 20
403.6481730771375851
 30
0.0
  0
VERTEX
  5
48F2F
  8
0
  6
CONTINUOUS
 62
     1
 10
243.5300695951447949
 20
406.1431133669507858
 30
0.0
 42
0.4142135623730789
  0
VERTEX
  5
48F30
  8
0
  6
CONTINUOUS
 62
     1
 10
244.3003055050606065
 20
407.3291726585023866
 30
0.0
  0
VERTEX
  5
48F31
  8
0
  6
CONTINUOUS
 62
     1
 10
241.8053652152476047
 20
419.0669438673079981
 30
0.0
 42
0.4142135623731122
  0
SEQEND
  5
48F32
  8
0
  6
CONTINUOUS
 62
     1
  0
POLYLINE
  5
44B9D
  8
0
  6
CONTINUOUS
 62
     1
 66
     1
 10
0.0
 20
0.0
 30
0.0
 70
     1
  0
VERTEX
  5
48F33
  8
0
  6
CONTINUOUS
 62
     1
 10
200.2093059236958936
 20
412.777179777224319
 30
0.0
  0
VERTEX
  5
48F34
  8
0
  6
CONTINUOUS
 62
     1
 10
188.4715347148907938
 20
410.2822394874108909
 30
0.0
 42
0.4142135623731106
  0
VERTEX
  5
48F35
  8
0
  6
CONTINUOUS
 62
     1
 10
187.7012988049748117
 20
409.0961801958592901
 30
0.0
  0
VERTEX
  5
48F36
  8
0
  6
CONTINUOUS
 62
     1
 10
190.1962390947875861
 20
397.3584089870536218
 30
0.0
 42
0.4142135623730373
  0
VERTEX
  5
48F37
  8
0
  6
CONTINUOUS
 62
     1
 10
191.3822983863396985
 20
396.5881730771375828
 30
0.0
  0
VERTEX
  5
48F38
  8
0
  6
CONTINUOUS
 62
     1
 10
203.1200695951459068
 20
399.0831133669511246
 30
0.0
 42
0.4142135623730809
  0
VERTEX
  5
48F39
  8
0
  6
CONTINUOUS
 62
     1
 10
203.8903055050616047
 20
400.2691726585027254
 30
0.0
  0
VERTEX
  5
48F3A
  8
0
  6
CONTINUOUS
 62
     1
 10
201.3953652152476934
 20
412.0069438673082232
 30
0.0
 42
0.4142135623731033
  0
SEQEND
  5
48F3B
  8
0
  6
CONTINUOUS
 62
     1
  0
POLYLINE
  5
44B9E
  8
0
  6
CONTINUOUS
 62
     1
 66
     1
 10
0.0
 20
0.0
 30
0.0
 70
     1
  0
VERTEX
  5
48F3C
  8
0
  6
CONTINUOUS
 62
     1
 10
219.2755941297178026
 20
494.7364620671456805
 30
0.0
  0
VERTEX
  5
48F3D
  8
0
  6
CONTINUOUS
 62
     1
 10
207.5378229209117933
 20
492.2415217773324798
 30
0.0
 42
0.4142135623730718
  0
VERTEX
  5
48F3E
  8
0
  6
CONTINUOUS
 62
     1
 10
206.7675870109958112
 20
491.055462485780879
 30
0.0
  0
VERTEX
  5
48F3F
  8
0
  6
CONTINUOUS
 62
     1
 10
209.2625273008088129
 20
479.3176912769752107
 30
0.0
 42
0.4142135623731131
  0
VERTEX
  5
48F40
  8
0
  6
CONTINUOUS
 62
     1
 10
210.4485865923608969
 20
478.5474553670592854
 30
0.0
  0
VERTEX
  5
48F41
  8
0
  6
CONTINUOUS
 62
     1
 10
222.1863578011657978
 20
481.0423956568723156
 30
0.0
 42
0.41421356237305
  0
VERTEX
  5
48F42
  8
0
  6
CONTINUOUS
 62
     1
 10
222.9565937110814957
 20
482.2284549484239733
 30
0.0
  0
VERTEX
  5
48F43
  8
0
  6
CONTINUOUS
 62
     1
 10
220.4616534212686929
 20
493.9662261572296984
 30
0.0
 42
0.4142135623730347
  0
SEQEND
  5
48F44
  8
0
  6
CONTINUOUS
 62
     1
  0
POLYLINE
  5
44B9F
  8
0
  6
CONTINUOUS
 62
     1
 66
     1
 10
0.0
 20
0.0
 30
0.0
 70
     1
  0
VERTEX
  5
48F45
  8
0
  6
CONTINUOUS
 62
     1
 10
213.9155941297179027
 20
474.12646206714561
 30
0.0
  0
VERTEX
  5
48F46
  8
0
  6
CONTINUOUS
 62
     1
 10
202.1778229209116944
 20
471.631521777332523
 30
0.0
 42
0.4142135623730884
  0
VERTEX
  5
48F47
  8
0
  6
CONTINUOUS
 62
     1
 10
201.4075870109957123
 20
470.4454624857809222
 30
0.0
  0
VERTEX
  5
48F48
  8
0
  6
CONTINUOUS
 62
     1
 10
203.902527300808714
 20
458.7076912769754244
 30
0.0
 42
0.4142135623730911
  0
VERTEX
  5
48F49
  8
0
  6
CONTINUOUS
 62
     1
 10
205.088586592360997
 20
457.937455367059215
 30
0.0
  0
VERTEX
  5
48F4A
  8
0
  6
CONTINUOUS
 62
     1
 10
216.8263578011666937
 20
460.4323956568724157
 30
0.0
 42
0.4142135623730454
  0
VERTEX
  5
48F4B
  8
0
  6
CONTINUOUS
 62
     1
 10
217.5965937110817947
 20
461.6184549484240165
 30
0.0
  0
VERTEX
  5
48F4C
  8
0
  6
CONTINUOUS
 62
     1
 10
215.101653421268793
 20
473.3562261572296848
 30
0.0
 42
0.4142135623730705
  0
SEQEND
  5
48F4D
  8
0
  6
CONTINUOUS
 62
     1
  0
POLYLINE
  5
44BA0
  8
0
  6
CONTINUOUS
 62
     1
 66
     1
 10
0.0
 20
0.0
 30
0.0
 70
     1
  0
VERTEX
  5
48F4E
  8
0
  6
CONTINUOUS
 62
     1
 10
222.5355941297177083
 20
456.4764620671455759
 30
0.0
  0
VERTEX
  5
48F4F
  8
0
  6
CONTINUOUS
 62
     1
 10
210.7978229209116137
 20
453.9815217773324889
 30
0.0
 42
0.4142135623730699
  0
VERTEX
  5
48F50
  8
0
  6
CONTINUOUS
 62
     1
 10
210.0275870109958021
 20
452.7954624857808881
 30
0.0
  0
VERTEX
  5
48F51
  8
0
  6
CONTINUOUS
 62
     1
 10
212.5225273008086049
 20
441.0576912769752767
 30
0.0
 42
0.4142135623731122
  0
VERTEX
  5
48F52
  8
0
  6
CONTINUOUS
 62
     1
 10
213.7085865923604899
 20
440.2874553670592945
 30
0.0
  0
VERTEX
  5
48F53
  8
0
  6
CONTINUOUS
 62
     1
 10
225.4463578011657034
 20
442.7823956568723247
 30
0.0
 42
0.4142135623730693
  0
VERTEX
  5
48F54
  8
0
  6
CONTINUOUS
 62
     1
 10
226.2165937110814866
 20
443.9684549484239824
 30
0.0
  0
VERTEX
  5
48F55
  8
0
  6
CONTINUOUS
 62
     1
 10
223.7216534212687122
 20
455.7062261572297075
 30
0.0
 42
0.4142135623730547
  0
SEQEND
  5
48F56
  8
0
  6
CONTINUOUS
 62
     1
  0
POLYLINE
  5
44BA1
  8
0
  6
CONTINUOUS
 62
     1
 66
     1
 10
0.0
 20
0.0
 30
0.0
 70
     1
  0
VERTEX
  5
48F57
  8
0
  6
CONTINUOUS
 62
     1
 10
217.1755941297178083
 20
435.8664620671457897
 30
0.0
  0
VERTEX
  5
48F58
  8
0
  6
CONTINUOUS
 62
     1
 10
205.4378229209121116
 20
433.3715217773324753
 30
0.0
 42
0.4142135623731344
  0
VERTEX
  5
48F59
  8
0
  6
CONTINUOUS
 62
     1
 10
204.6675870109957032
 20
432.1854624857809881
 30
0.0
  0
VERTEX
  5
48F5A
  8
0
  6
CONTINUOUS
 62
     1
 10
207.1625273008087049
 20
420.4476912769753767
 30
0.0
 42
0.4142135623730819
  0
VERTEX
  5
48F5B
  8
0
  6
CONTINUOUS
 62
     1
 10
208.3485865923607889
 20
419.6774553670592809
 30
0.0
  0
VERTEX
  5
48F5C
  8
0
  6
CONTINUOUS
 62
     1
 10
220.0863578011660877
 20
422.1723956568724248
 30
0.0
 42
0.4142135623730959
  0
VERTEX
  5
48F5D
  8
0
  6
CONTINUOUS
 62
     1
 10
220.856593711081814
 20
423.3584549484240256
 30
0.0
  0
VERTEX
  5
48F5E
  8
0
  6
CONTINUOUS
 62
     1
 10
218.3616534212698923
 20
435.0962261572296939
 30
0.0
 42
0.4142135623730653
  0
SEQEND
  5
48F5F
  8
0
  6
CONTINUOUS
 62
     1
  0
POLYLINE
  5
44BA2
  8
0
  6
CONTINUOUS
 62
     1
 66
     1
 10
0.0
 20
0.0
 30
0.0
 70
     1
  0
VERTEX
  5
48F60
  8
0
  6
CONTINUOUS
 62
     1
 10
200.6418823357386998
 20
490.7757443570671967
 30
0.0
  0
VERTEX
  5
48F61
  8
0
  6
CONTINUOUS
 62
     1
 10
188.9041111269324915
 20
488.2808040672543939
 30
0.0
 42
0.4142135623731119
  0
VERTEX
  5
48F62
  8
0
  6
CONTINUOUS
 62
     1
 10
188.1338752170167936
 20
487.094744775702793
 30
0.0
  0
VERTEX
  5
48F63
  8
0
  6
CONTINUOUS
 62
     1
 10
190.6288155068299943
 20
475.3569735668967837
 30
0.0
 42
0.4142135623731131
  0
VERTEX
  5
48F64
  8
0
  6
CONTINUOUS
 62
     1
 10
191.8148747983819078
 20
474.5867376569809153
 30
0.0
  0
VERTEX
  5
48F65
  8
0
  6
CONTINUOUS
 62
     1
 10
203.5526460071868939
 20
477.0816779467938886
 30
0.0
 42
0.4142135623730903
  0
VERTEX
  5
48F66
  8
0
  6
CONTINUOUS
 62
     1
 10
204.322881917103814
 20
478.2677372383457168
 30
0.0
  0
VERTEX
  5
48F67
  8
0
  6
CONTINUOUS
 62
     1
 10
201.8279416272908122
 20
490.0055084471513283
 30
0.0
 42
0.4142135623730482
  0
SEQEND
  5
48F68
  8
0
  6
CONTINUOUS
 62
     1
  0
POLYLINE
  5
44BA3
  8
0
  6
CONTINUOUS
 62
     1
 66
     1
 10
0.0
 20
0.0
 30
0.0
 70
     1
  0
VERTEX
  5
48F69
  8
0
  6
CONTINUOUS
 62
     1
 10
195.2818823357386009
 20
470.1657443570674104
 30
0.0
  0
VERTEX
  5
48F6A
  8
0
  6
CONTINUOUS
 62
     1
 10
183.5441111269323926
 20
467.670804067254096
 30
0.0
 42
0.4142135623730879
  0
VERTEX
  5
48F6B
  8
0
  6
CONTINUOUS
 62
     1
 10
182.7738752170168937
 20
466.4847447757027226
 30
0.0
  0
VERTEX
  5
48F6C
  8
0
  6
CONTINUOUS
 62
     1
 10
185.2688155068298954
 20
454.7469735668968838
 30
0.0
 42
0.4142135623730905
  0
VERTEX
  5
48F6D
  8
0
  6
CONTINUOUS
 62
     1
 10
186.4548747983816952
 20
453.9767376569810722
 30
0.0
  0
VERTEX
  5
48F6E
  8
0
  6
CONTINUOUS
 62
     1
 10
198.1926460071875056
 20
456.4716779467941024
 30
0.0
 42
0.4142135623730482
  0
VERTEX
  5
48F6F
  8
0
  6
CONTINUOUS
 62
     1
 10
198.9628819171036866
 20
457.6577372383455895
 30
0.0
  0
VERTEX
  5
48F70
  8
0
  6
CONTINUOUS
 62
     1
 10
196.4679416272909123
 20
469.3955084471513146
 30
0.0
 42
0.414213562373061
  0
SEQEND
  5
48F71
  8
0
  6
CONTINUOUS
 62
     1
  0
POLYLINE
  5
44BA4
  8
0
  6
CONTINUOUS
 62
     1
 66
     1
 10
0.0
 20
0.0
 30
0.0
 70
     1
  0
VERTEX
  5
48F72
  8
0
  6
CONTINUOUS
 62
     1
 10
203.9018823357386907
 20
452.5157443570673195
 30
0.0
  0
VERTEX
  5
48F73
  8
0
  6
CONTINUOUS
 62
     1
 10
192.1641111269327098
 20
450.0208040672542893
 30
0.0
 42
0.4142135623730523
  0
VERTEX
  5
48F74
  8
0
  6
CONTINUOUS
 62
     1
 10
191.3938752170168129
 20
448.8347447757026885
 30
0.0
  0
VERTEX
  5
48F75
  8
0
  6
CONTINUOUS
 62
     1
 10
193.8888155068300136
 20
437.0969735668969065
 30
0.0
 42
0.4142135623731125
  0
VERTEX
  5
48F76
  8
0
  6
CONTINUOUS
 62
     1
 10
195.0748747983818134
 20
436.3267376569809244
 30
0.0
  0
VERTEX
  5
48F77
  8
0
  6
CONTINUOUS
 62
     1
 10
206.8126460071869133
 20
438.8216779467941251
 30
0.0
 42
0.4142135623730809
  0
VERTEX
  5
48F78
  8
0
  6
CONTINUOUS
 62
     1
 10
207.5828819171038049
 20
440.0077372383456122
 30
0.0
  0
VERTEX
  5
48F79
  8
0
  6
CONTINUOUS
 62
     1
 10
205.0879416272896094
 20
451.7455084471512805
 30
0.0
 42
0.4142135623730335
  0
SEQEND
  5
48F7A
  8
0
  6
CONTINUOUS
 62
     1
  0
POLYLINE
  5
44BA5
  8
0
  6
CONTINUOUS
 62
     1
 66
     1
 10
0.0
 20
0.0
 30
0.0
 70
     1
  0
VERTEX
  5
48F7B
  8
0
  6
CONTINUOUS
 62
     1
 10
198.5418823357385918
 20
431.9057443570673058
 30
0.0
  0
VERTEX
  5
48F7C
  8
0
  6
CONTINUOUS
 62
     1
 10
186.8041111269326109
 20
429.4108040672541051
 30
0.0
 42
0.4142135623731073
  0
VERTEX
  5
48F7D
  8
0
  6
CONTINUOUS
 62
     1
 10
186.033875217016913
 20
428.2247447757026748
 30
0.0
  0
VERTEX
  5
48F7E
  8
0
  6
CONTINUOUS
 62
     1
 10
188.5288155068296874
 20
416.4869735668970065
 30
0.0
 42
0.4142135623730445
  0
VERTEX
  5
48F7F
  8
0
  6
CONTINUOUS
 62
     1
 10
189.7148747983816861
 20
415.7167376569809107
 30
0.0
  0
VERTEX
  5
48F80
  8
0
  6
CONTINUOUS
 62
     1
 10
201.4526460071867859
 20
418.2116779467941114
 30
0.0
 42
0.414213562373099
  0
VERTEX
  5
48F81
  8
0
  6
CONTINUOUS
 62
     1
 10
202.2228819171039049
 20
419.3977372383455986
 30
0.0
  0
VERTEX
  5
48F82
  8
0
  6
CONTINUOUS
 62
     1
 10
199.7279416272909032
 20
431.1355084471513237
 30
0.0
 42
0.4142135623730693
  0
SEQEND
  5
48F83
  8
0
  6
CONTINUOUS
 62
     1
  0
POLYLINE
  5
44BA6
  8
0
  6
CONTINUOUS
 62
     1
 66
     1
 10
0.0
 20
0.0
 30
0.0
 70
     1
  0
VERTEX
  5
48F84
  8
0
  6
CONTINUOUS
 62
     1
 10
182.0081705417599096
 20
486.8150266469889971
 30
0.0
  0
VERTEX
  5
48F85
  8
0
  6
CONTINUOUS
 62
     1
 10
170.2703993329537013
 20
484.3200863571757964
 30
0.0
 42
0.4142135623731193
  0
VERTEX
  5
48F86
  8
0
  6
CONTINUOUS
 62
     1
 10
169.5001634230374918
 20
483.1340270656243092
 30
0.0
  0
VERTEX
  5
48F87
  8
0
  6
CONTINUOUS
 62
     1
 10
171.9951037128508062
 20
471.3962558568185273
 30
0.0
 42
0.4142135623730982
  0
VERTEX
  5
48F88
  8
0
  6
CONTINUOUS
 62
     1
 10
173.181163004402805
 20
470.626019946902602
 30
0.0
  0
VERTEX
  5
48F89
  8
0
  6
CONTINUOUS
 62
     1
 10
184.9189342132075922
 20
473.120960236715689
 30
0.0
 42
0.4142135623730688
  0
VERTEX
  5
48F8A
  8
0
  6
CONTINUOUS
 62
     1
 10
185.6891701231238869
 20
474.3070195282671762
 30
0.0
  0
VERTEX
  5
48F8B
  8
0
  6
CONTINUOUS
 62
     1
 10
183.1942298333107999
 20
486.0447907370727876
 30
0.0
 42
0.4142135623730605
  0
SEQEND
  5
48F8C
  8
0
  6
CONTINUOUS
 62
     1
  0
POLYLINE
  5
44BA7
  8
0
  6
CONTINUOUS
 62
     1
 66
     1
 10
0.0
 20
0.0
 30
0.0
 70
     1
  0
VERTEX
  5
48F8D
  8
0
  6
CONTINUOUS
 62
     1
 10
176.6481705417598107
 20
466.2050266469889834
 30
0.0
  0
VERTEX
  5
48F8E
  8
0
  6
CONTINUOUS
 62
     1
 10
164.9103993329536024
 20
463.7100863571760101
 30
0.0
 42
0.4142135623731307
  0
VERTEX
  5
48F8F
  8
0
  6
CONTINUOUS
 62
     1
 10
164.1401634230377908
 20
462.5240270656242956
 30
0.0
  0
VERTEX
  5
48F90
  8
0
  6
CONTINUOUS
 62
     1
 10
166.6351037128505936
 20
450.7862558568186273
 30
0.0
 42
0.4142135623731082
  0
VERTEX
  5
48F91
  8
0
  6
CONTINUOUS
 62
     1
 10
167.821163004402905
 20
450.016019946902702
 30
0.0
  0
VERTEX
  5
48F92
  8
0
  6
CONTINUOUS
 62
     1
 10
179.5589342132076922
 20
452.5109602367156754
 30
0.0
 42
0.4142135623730779
  0
VERTEX
  5
48F93
  8
0
  6
CONTINUOUS
 62
     1
 10
180.3291701231235038
 20
453.6970195282672762
 30
0.0
  0
VERTEX
  5
48F94
  8
0
  6
CONTINUOUS
 62
     1
 10
177.8342298333108999
 20
465.4347907370728876
 30
0.0
 42
0.4142135623730703
  0
SEQEND
  5
48F95
  8
0
  6
CONTINUOUS
 62
     1
  0
POLYLINE
  5
44BA8
  8
0
  6
CONTINUOUS
 62
     1
 66
     1
 10
0.0
 20
0.0
 30
0.0
 70
     1
  0
VERTEX
  5
48F96
  8
0
  6
CONTINUOUS
 62
     1
 10
185.2681705417599005
 20
448.5550266469888925
 30
0.0
  0
VERTEX
  5
48F97
  8
0
  6
CONTINUOUS
 62
     1
 10
173.5303993329534933
 20
446.0600863571759191
 30
0.0
 42
0.414213562373076
  0
VERTEX
  5
48F98
  8
0
  6
CONTINUOUS
 62
     1
 10
172.7601634230375112
 20
444.8740270656243752
 30
0.0
  0
VERTEX
  5
48F99
  8
0
  6
CONTINUOUS
 62
     1
 10
175.2551037128507119
 20
433.1362558568184795
 30
0.0
 42
0.4142135623730697
  0
VERTEX
  5
48F9A
  8
0
  6
CONTINUOUS
 62
     1
 10
176.4411630044027959
 20
432.3660199469026111
 30
0.0
  0
VERTEX
  5
48F9B
  8
0
  6
CONTINUOUS
 62
     1
 10
188.1789342132076115
 20
434.8609602367158118
 30
0.0
 42
0.4142135623730854
  0
VERTEX
  5
48F9C
  8
0
  6
CONTINUOUS
 62
     1
 10
188.9491701231237926
 20
436.0470195282672989
 30
0.0
  0
VERTEX
  5
48F9D
  8
0
  6
CONTINUOUS
 62
     1
 10
186.4542298333107908
 20
447.7847907370729104
 30
0.0
 42
0.4142135623730694
  0
SEQEND
  5
48F9E
  8
0
  6
CONTINUOUS
 62
     1
  0
POLYLINE
  5
44BA9
  8
0
  6
CONTINUOUS
 62
     1
 66
     1
 10
0.0
 20
0.0
 30
0.0
 70
     1
  0
VERTEX
  5
48F9F
  8
0
  6
CONTINUOUS
 62
     1
 10
179.9081705417598016
 20
427.9450266469889925
 30
0.0
  0
VERTEX
  5
48FA0
  8
0
  6
CONTINUOUS
 62
     1
 10
168.1703993329537923
 20
425.4500863571759055
 30
0.0
 42
0.4142135623731325
  0
VERTEX
  5
48FA1
  8
0
  6
CONTINUOUS
 62
     1
 10
167.4001634230378102
 20
424.2640270656243047
 30
0.0
  0
VERTEX
  5
48FA2
  8
0
  6
CONTINUOUS
 62
     1
 10
169.8951037128508972
 20
412.5262558568185796
 30
0.0
 42
0.4142135623730911
  0
VERTEX
  5
48FA3
  8
0
  6
CONTINUOUS
 62
     1
 10
171.0811630044028959
 20
411.7560199469027111
 30
0.0
  0
VERTEX
  5
48FA4
  8
0
  6
CONTINUOUS
 62
     1
 10
182.8189342132077115
 20
414.2509602367156845
 30
0.0
 42
0.4142135623730903
  0
VERTEX
  5
48FA5
  8
0
  6
CONTINUOUS
 62
     1
 10
183.5891701231234947
 20
415.4370195282672853
 30
0.0
  0
VERTEX
  5
48FA6
  8
0
  6
CONTINUOUS
 62
     1
 10
181.0942298333108909
 20
427.1747907370730104
 30
0.0
 42
0.414213562373072
  0
SEQEND
  5
48FA7
  8
0
  6
CONTINUOUS
 62
     1
  0
POLYLINE
  5
44BAA
  8
0
  6
CONTINUOUS
 62
     1
 66
     1
 10
0.0
 20
0.0
 30
0.0
  0
VERTEX
  5
48FA8
  8
0
  6
CONTINUOUS
 62
     1
 10
28.2581221550178689
 20
445.3426764271807201
 30
0.0
  0
VERTEX
  5
48FA9
  8
0
  6
CONTINUOUS
 62
     1
 10
40.2581221550178725
 20
445.3426764271807201
 30
0.0
 42
0.4142135623730857
  0
VERTEX
  5
48FAA
  8
0
  6
CONTINUOUS
 62
     1
 10
41.2581221550178725
 20
446.342676427180777
 30
0.0
  0
VERTEX
  5
48FAB
  8
0
  6
CONTINUOUS
 62
     1
 10
41.2581221550178725
 20
458.3426764271807201
 30
0.0
 42
0.4142135623730888
  0
VERTEX
  5
48FAC
  8
0
  6
CONTINUOUS
 62
     1
 10
40.2581221550178725
 20
459.3426764271807201
 30
0.0
  0
VERTEX
  5
48FAD
  8
0
  6
CONTINUOUS
 62
     1
 10
28.2581221550178689
 20
459.3426764271807201
 30
0.0
  0
SEQEND
  5
48FAE
  8
0
  6
CONTINUOUS
 62
     1
  0
POLYLINE
  5
44BAB
  8
0
  6
CONTINUOUS
 62
     1
 66
     1
 10
0.0
 20
0.0
 30
0.0
 70
     1
  0
VERTEX
  5
48FAF
  8
0
  6
CONTINUOUS
 62
     1
 10
295.873648921080985
 20
407.8671986038194746
 30
0.0
  0
VERTEX
  5
48FB0
  8
0
  6
CONTINUOUS
 62
     1
 10
255.8736489305804014
 20
407.8671986038194746
 30
0.0
  0
VERTEX
  5
48FB1
  8
0
  6
CONTINUOUS
 62
     1
 10
255.8736489305804014
 20
421.8671986008200179
 30
0.0
  0
VERTEX
  5
48FB2
  8
0
  6
CONTINUOUS
 62
     1
 10
295.873648921080985
 20
421.8671986008204158
 30
0.0
  0
SEQEND
  5
48FB3
  8
0
  6
CONTINUOUS
 62
     1
  0
CIRCLE
  5
44BC4
  8
0
  6
CONTINUOUS
 62
     1
 10
24.1820290545558692
 20
483.2990244467492857
 30
0.0
 40
1.1000000000000001
  0
CIRCLE
  5
44BC5
  8
0
  6
CONTINUOUS
 62
     1
 10
13.06953985366499
 20
423.7676689730574822
 30
0.0
 40
1.1000000000000001
  0
CIRCLE
  5
44BC6
  8
0
  6
CONTINUOUS
 62
     1
 10
74.982146948685795
 20
422.9739484055446042
 30
0.0
 40
1.1000000000000001
  0
CIRCLE
  5
44BC7
  8
0
  6
CONTINUOUS
 62
     1
 10
91.6506790539629037
 20
478.5365375689654002
 30
0.0
 40
1.1000000000000001
  0
CIRCLE
  5
44BC8
  8
0
  6
CONTINUOUS
 62
     1
 10
162.5620279529709933
 20
473.0426297636706749
 30
0.0
 40
1.1000000000000001
  0
CIRCLE
  5
44BC9
  8
0
  6
CONTINUOUS
 62
     1
 10
163.0883021550178
 20
397.5739387332754973
 30
0.0
 40
1.1000000000000001
  0
CIRCLE
  5
44BCA
  8
0
  6
CONTINUOUS
 62
     1
 10
243.2570279350939018
 20
422.9739387228116243
 30
0.0
 40
1.1000000000000001
  0
CIRCLE
  5
44BCB
  8
0
  6
CONTINUOUS
 62
     1
 10
237.7006790601035107
 20
479.330112107243508
 30
0.0
 40
1.1000000000000001
  0
CIRCLE
  5
44BCC
  8
0
  6
CONTINUOUS
 62
     1
 10
320.2506791901150791
 20
480.9176252132306786
 30
0.0
 40
1.1000000000000001
  0
CIRCLE
  5
44BCD
  8
0
  6
CONTINUOUS
 62
     1
 10
300.4071289551117729
 20
420.5926801569606255
 30
0.0
 40
1.1000000000000001
  0
POLYLINE
  5
458AE
  8
0
  6
CONTINUOUS
 62
     1
 66
     1
 10
0.0
 20
0.0
 30
0.0
 70
     1
  0
VERTEX
  5
4900B
  8
0
  6
CONTINUOUS
 62
     1
 10
207.7362025844674918
 20
501.8826764271802858
 30
0.0
 42
-0.4142135623731011
  0
VERTEX
  5
4900C
  8
0
  6
CONTINUOUS
 62
     1
 10
206.0362025844681
 20
503.5826764271802745
 30
0.0
  0
VERTEX
  5
4900D
  8
0
  6
CONTINUOUS
 62
     1
 10
206.0362025844681
 20
506.5826764271802745
 30
0.0
 42
0.4142135623730873
  0
VERTEX
  5
4900E
  8
0
  6
CONTINUOUS
 62
     1
 10
204.7362025844674918
 20
507.8826764271803995
 30
0.0
  0
VERTEX
  5
4900F
  8
0
  6
CONTINUOUS
 62
     1
 10
122.6941517255689007
 20
507.8826764271803995
 30
0.0
 42
0.4142135623730873
  0
VERTEX
  5
49010
  8
0
  6
CONTINUOUS
 62
     1
 10
121.3941517255689035
 20
506.5826764271802745
 30
0.0
  0
VERTEX
  5
49011
  8
0
  6
CONTINUOUS
 62
     1
 10
121.3941517255689035
 20
503.5826764271802745
 30
0.0
 42
-0.4142135623731011
  0
VERTEX
  5
49012
  8
0
  6
CONTINUOUS
 62
     1
 10
119.6941517255688012
 20
501.8826764271802858
 30
0.0
  0
VERTEX
  5
49013
  8
0
  6
CONTINUOUS
 62
     1
 10
92.6941517255688865
 20
501.8826764271802858
 30
0.0
 42
-0.4142135623731011
  0
VERTEX
  5
49014
  8
0
  6
CONTINUOUS
 62
     1
 10
90.9941517255688268
 20
503.5826764271802745
 30
0.0
  0
VERTEX
  5
49015
  8
0
  6
CONTINUOUS
 62
     1
 10
90.9941517255688268
 20
506.5826764271802745
 30
0.0
 42
0.4142135623730873
  0
VERTEX
  5
49016
  8
0
  6
CONTINUOUS
 62
     1
 10
89.6941517255688723
 20
507.8826764271803995
 30
0.0
  0
VERTEX
  5
49017
  8
0
  6
CONTINUOUS
 62
     1
 10
7.6941517255688723
 20
507.8826764271803995
 30
0.0
 42
0.4142135623730873
  0
VERTEX
  5
49018
  8
0
  6
CONTINUOUS
 62
     1
 10
6.3941517255689169
 20
506.5826764271802745
 30
0.0
  0
VERTEX
  5
49019
  8
0
  6
CONTINUOUS
 62
     1
 10
6.3941517255689169
 20
503.5826764271802745
 30
0.0
 42
-0.4142135623731011
  0
VERTEX
  5
4901A
  8
0
  6
CONTINUOUS
 62
     1
 10
4.6941517255688723
 20
501.8826764271802858
 30
0.0
  0
VERTEX
  5
4901B
  8
0
  6
CONTINUOUS
 62
     1
 10
-3.9041978449822632
 20
501.8826764271802858
 30
0.0
 42
0.4142135623730873
  0
VERTEX
  5
4901C
  8
0
  6
CONTINUOUS
 62
     1
 10
-5.2041978449824446
 20
500.5826764271802745
 30
0.0
  0
VERTEX
  5
4901D
  8
0
  6
CONTINUOUS
 62
     1
 10
-5.2041978449824446
 20
491.9843268566299912
 30
0.0
 42
-0.4142135623731011
  0
VERTEX
  5
4901E
  8
0
  6
CONTINUOUS
 62
     1
 10
-6.9041978449822627
 20
490.2843268566298889
 30
0.0
  0
VERTEX
  5
4901F
  8
0
  6
CONTINUOUS
 62
     1
 10
-9.9041978449821482
 20
490.2843268566298889
 30
0.0
 42
0.4142135623730873
  0
VERTEX
  5
49020
  8
0
  6
CONTINUOUS
 62
     1
 10
-11.2041978449823301
 20
488.9843268566298775
 30
0.0
  0
VERTEX
  5
49021
  8
0
  6
CONTINUOUS
 62
     1
 10
-11.2041978449823301
 20
420.7126764271807815
 30
0.0
 42
0.4142135623730895
  0
VERTEX
  5
49022
  8
0
  6
CONTINUOUS
 62
     1
 10
-9.4041978449821482
 20
418.912676427180827
 30
0.0
  0
VERTEX
  5
49023
  8
0
  6
CONTINUOUS
 62
     1
 10
-3.4341978449824628
 20
418.912676427180827
 30
0.0
 42
-0.4142135623731659
  0
VERTEX
  5
49024
  8
0
  6
CONTINUOUS
 62
     1
 10
-0.2341978449821909
 20
415.712676427179872
 30
0.0
  0
VERTEX
  5
49025
  8
0
  6
CONTINUOUS
 62
     1
 10
-0.2341978449844646
 20
406.7426764271808111
 30
0.0
 42
0.4142135623731544
  0
VERTEX
  5
49026
  8
0
  6
CONTINUOUS
 62
     1
 10
1.565802155015489
 20
404.9426764271805155
 30
0.0
  0
VERTEX
  5
49027
  8
0
  6
CONTINUOUS
 62
     1
 10
4.6941517255688723
 20
404.9426764271805155
 30
0.0
 42
-0.4142135623731011
  0
VERTEX
  5
49028
  8
0
  6
CONTINUOUS
 62
     1
 10
6.3941517255689169
 20
403.2426764271805268
 30
0.0
  0
VERTEX
  5
49029
  8
0
  6
CONTINUOUS
 62
     1
 10
6.3941517255689169
 20
400.2426764271805268
 30
0.0
 42
0.4142135623730873
  0
VERTEX
  5
4902A
  8
0
  6
CONTINUOUS
 62
     1
 10
7.6941517255688723
 20
398.9426764271805155
 30
0.0
  0
VERTEX
  5
4902B
  8
0
  6
CONTINUOUS
 62
     1
 10
68.1261320817548039
 20
398.9426764271805155
 30
0.0
  0
VERTEX
  5
4902C
  8
0
  6
CONTINUOUS
 62
     1
 10
92.3910426598294947
 20
393.7850104654743859
 30
0.0
 42
0.4142135623730919
  0
VERTEX
  5
4902D
  8
0
  6
CONTINUOUS
 62
     1
 10
93.9329197388467492
 20
394.7863171483651854
 30
0.0
  0
VERTEX
  5
4902E
  8
0
  6
CONTINUOUS
 62
     1
 10
94.556654811300632
 20
397.7207599505666735
 30
0.0
 42
-0.4142135623730863
  0
VERTEX
  5
4902F
  8
0
  6
CONTINUOUS
 62
     1
 10
96.5729556069375263
 20
399.0301609974241046
 30
0.0
  0
VERTEX
  5
49030
  8
0
  6
CONTINUOUS
 62
     1
 10
122.9829408267510047
 20
393.4165453453446162
 30
0.0
 42
-0.4142135623730906
  0
VERTEX
  5
49031
  8
0
  6
CONTINUOUS
 62
     1
 10
124.2923418736074979
 20
391.4002445497068834
 30
0.0
  0
VERTEX
  5
49032
  8
0
  6
CONTINUOUS
 62
     1
 10
123.6686068011546951
 20
388.465801747505509
 30
0.0
 42
0.4142135623731285
  0
VERTEX
  5
49033
  8
0
  6
CONTINUOUS
 62
     1
 10
124.6699134840456935
 20
386.9239246684883824
 30
0.0
  0
VERTEX
  5
49034
  8
0
  6
CONTINUOUS
 62
     1
 10
148.5852787132434969
 20
381.840556864287521
 30
0.0
  0
VERTEX
  5
49035
  8
0
  6
CONTINUOUS
 62
     1
 10
178.3463255967895122
 20
381.840556864287521
 30
0.0
  0
VERTEX
  5
49036
  8
0
  6
CONTINUOUS
 62
     1
 10
202.2616908259878983
 20
386.9239246684886098
 30
0.0
 42
0.4142135623731387
  0
VERTEX
  5
49037
  8
0
  6
CONTINUOUS
 62
     1
 10
203.2629975088798062
 20
388.4658017475056226
 30
0.0
  0
VERTEX
  5
49038
  8
0
  6
CONTINUOUS
 62
     1
 10
202.6392624364254971
 20
391.4002445497071108
 30
0.0
 42
-0.4142135623730827
  0
VERTEX
  5
49039
  8
0
  6
CONTINUOUS
 62
     1
 10
203.9486634832828997
 20
393.4165453453446162
 30
0.0
  0
VERTEX
  5
4903A
  8
0
  6
CONTINUOUS
 62
     1
 10
230.358648703095696
 20
399.0301609974239909
 30
0.0
 42
-0.4142135623730902
  0
VERTEX
  5
4903B
  8
0
  6
CONTINUOUS
 62
     1
 10
232.374949498733713
 20
397.7207599505666735
 30
0.0
  0
VERTEX
  5
4903C
  8
0
  6
CONTINUOUS
 62
     1
 10
232.9986845711866863
 20
394.7863171483654128
 30
0.0
 42
0.4142135623731091
  0
VERTEX
  5
4903D
  8
0
  6
CONTINUOUS
 62
     1
 10
234.5405616502038981
 20
393.7850104654743859
 30
0.0
  0
VERTEX
  5
4903E
  8
0
  6
CONTINUOUS
 62
     1
 10
258.8054722282798252
 20
398.9426764271805155
 30
0.0
  0
VERTEX
  5
4903F
  8
0
  6
CONTINUOUS
 62
     1
 10
319.7362025844674918
 20
398.9426764271805155
 30
0.0
 42
0.4142135623730873
  0
VERTEX
  5
49040
  8
0
  6
CONTINUOUS
 62
     1
 10
321.0362025844681284
 20
400.2426764271805268
 30
0.0
  0
VERTEX
  5
49041
  8
0
  6
CONTINUOUS
 62
     1
 10
321.0362025844681284
 20
403.2426764271805268
 30
0.0
 42
-0.4142135623731011
  0
VERTEX
  5
49042
  8
0
  6
CONTINUOUS
 62
     1
 10
322.7362025844674918
 20
404.9426764271805155
 30
0.0
  0
VERTEX
  5
49043
  8
0
  6
CONTINUOUS
 62
     1
 10
331.3345521550177182
 20
404.9426764271805155
 30
0.0
 42
0.4142135623730873
  0
VERTEX
  5
49044
  8
0
  6
CONTINUOUS
 62
     1
 10
332.6345521550181275
 20
406.2426764271805268
 30
0.0
  0
VERTEX
  5
49045
  8
0
  6
CONTINUOUS
 62
     1
 10
332.6345521550181275
 20
414.8410259977309806
 30
0.0
 42
-0.4142135623731011
  0
VERTEX
  5
49046
  8
0
  6
CONTINUOUS
 62
     1
 10
334.3345521550177182
 20
416.5410259977310261
 30
0.0
  0
VERTEX
  5
49047
  8
0
  6
CONTINUOUS
 62
     1
 10
337.3345521550177182
 20
416.5410259977309124
 30
0.0
 42
0.4142135623730873
  0
VERTEX
  5
49048
  8
0
  6
CONTINUOUS
 62
     1
 10
338.6345521550181275
 20
417.8410259977309806
 30
0.0
  0
VERTEX
  5
49049
  8
0
  6
CONTINUOUS
 62
     1
 10
338.6345521550181275
 20
488.9843268566295933
 30
0.0
 42
0.4142135623730873
  0
VERTEX
  5
4904A
  8
0
  6
CONTINUOUS
 62
     1
 10
337.3345521550177182
 20
490.2843268566297183
 30
0.0
  0
VERTEX
  5
4904B
  8
0
  6
CONTINUOUS
 62
     1
 10
334.3345521550177182
 20
490.2843268566297183
 30
0.0
 42
-0.4142135623731011
  0
VERTEX
  5
4904C
  8
0
  6
CONTINUOUS
 62
     1
 10
332.6345521550181275
 20
491.984326856629707
 30
0.0
  0
VERTEX
  5
4904D
  8
0
  6
CONTINUOUS
 62
     1
 10
332.6345521550181275
 20
500.5826764271802745
 30
0.0
 42
0.414213562373049
  0
VERTEX
  5
4904E
  8
0
  6
CONTINUOUS
 62
     1
 10
331.3345521550177182
 20
501.8826764271802858
 30
0.0
  0
VERTEX
  5
4904F
  8
0
  6
CONTINUOUS
 62
     1
 10
322.7362025844674918
 20
501.8826764271802858
 30
0.0
 42
-0.4142135623731011
  0
VERTEX
  5
49050
  8
0
  6
CONTINUOUS
 62
     1
 10
321.0362025844681284
 20
503.5826764271802745
 30
0.0
  0
VERTEX
  5
49051
  8
0
  6
CONTINUOUS
 62
     1
 10
321.0362025844681284
 20
506.5826764271802745
 30
0.0
 42
0.4142135623730873
  0
VERTEX
  5
49052
  8
0
  6
CONTINUOUS
 62
     1
 10
319.7362025844674918
 20
507.8826764271803995
 30
0.0
  0
VERTEX
  5
49053
  8
0
  6
CONTINUOUS
 62
     1
 10
237.7362025844674918
 20
507.8826764271803995
 30
0.0
 42
0.4142135623730873
  0
VERTEX
  5
49054
  8
0
  6
CONTINUOUS
 62
     1
 10
236.4362025844675941
 20
506.5826764271802745
 30
0.0
  0
VERTEX
  5
49055
  8
0
  6
CONTINUOUS
 62
     1
 10
236.4362025844675941
 20
503.5826764271802745
 30
0.0
 42
-0.4142135623731011
  0
VERTEX
  5
49056
  8
0
  6
CONTINUOUS
 62
     1
 10
234.7362025844674918
 20
501.8826764271802858
 30
0.0
  0
SEQEND
  5
49057
  8
0
  6
CONTINUOUS
 62
     1
  0
ENDSEC
  0
EOF
