%TF.GenerationSoftware,KiCad,Pcbnew,(5.1.10-1-10_14)*%
%TF.CreationDate,2021-05-29T20:47:56+07:00*%
%TF.ProjectId,geulis,6765756c-6973-42e6-9b69-6361645f7063,rev?*%
%TF.SameCoordinates,Original*%
%TF.FileFunction,Profile,NP*%
%FSLAX46Y46*%
G04 Gerber Fmt 4.6, Leading zero omitted, Abs format (unit mm)*
G04 Created by KiCad (PCBNEW (5.1.10-1-10_14)) date 2021-05-29 20:47:56*
%MOMM*%
%LPD*%
G01*
G04 APERTURE LIST*
%TA.AperFunction,Profile*%
%ADD10C,0.150000*%
%TD*%
G04 APERTURE END LIST*
D10*
X146114557Y132373558D02*
G75*
G02*
X148114557Y130373558I0J-2000000D01*
G01*
X153114557Y130373558D02*
G75*
G02*
X155114557Y132373558I2000000J0D01*
G01*
X227059857Y132373558D02*
G75*
G02*
X229059857Y130373558I0J-2000000D01*
G01*
X234059857Y130373558D02*
G75*
G02*
X236059857Y132373558I2000000J0D01*
G01*
X155114557Y132373558D02*
X186971609Y132373558D01*
X148114557Y126615418D02*
X148114557Y130373558D01*
X153114557Y126615418D02*
X153114557Y130373558D01*
X236059857Y132373558D02*
X359615559Y132373558D01*
X229059857Y128295882D02*
X229059857Y130373558D01*
X234059857Y128295882D02*
X234059857Y130373558D01*
X23376809Y37971503D02*
G75*
G02*
X23376809Y37535613I450000J-217945D01*
G01*
X23376809Y42471503D02*
G75*
G02*
X23376809Y42035613I450000J-217945D01*
G01*
X24376809Y36033558D02*
G75*
G02*
X23376809Y37033558I0J1000000D01*
G01*
X360615559Y37033558D02*
G75*
G02*
X359615559Y36033558I-1000000J0D01*
G01*
X359615559Y132373558D02*
G75*
G02*
X360615559Y131373558I0J-1000000D01*
G01*
X23376809Y131373558D02*
G75*
G02*
X24376809Y132373558I1000000J0D01*
G01*
X23376809Y46971503D02*
G75*
G02*
X23376809Y46535613I450000J-217945D01*
G01*
X23376809Y46535613D02*
X23376809Y42471503D01*
X23376809Y131373558D02*
X23376809Y46971503D01*
X23376809Y42035613D02*
X23376809Y37971503D01*
X23376809Y37535613D02*
X23376809Y37033558D01*
X24376809Y36033558D02*
X97069295Y36033558D01*
X97069295Y36033558D02*
X191746809Y15909232D01*
X191746809Y15909232D02*
X286424322Y36033558D01*
X286424322Y36033558D02*
X359615559Y36033558D01*
X360615559Y131373558D02*
X360615559Y37033558D01*
X196522009Y132373558D02*
X227059857Y132373558D01*
X196522009Y132373558D02*
X196522009Y138545456D01*
X196522009Y138545456D02*
X186971609Y138545460D01*
X186971609Y138545460D02*
X186971609Y132373558D01*
X24376809Y132373558D02*
X146114557Y132373558D01*
X234059857Y128295882D02*
G75*
G02*
X229059857Y128295882I-2500000J0D01*
G01*
X153114557Y126615418D02*
G75*
G02*
X148114557Y126615418I-2500000J0D01*
G01*
X26866809Y37753558D02*
G75*
G03*
X26866809Y37753558I-500000J0D01*
G01*
X26866809Y42253558D02*
G75*
G03*
X26866809Y42253558I-500000J0D01*
G01*
X26866809Y46753558D02*
G75*
G03*
X26866809Y46753558I-500000J0D01*
G01*
X153114557Y126615418D02*
G75*
G03*
X153114557Y126615418I-2500000J0D01*
G01*
M02*
