%TF.GenerationSoftware,KiCad,Pcbnew,(5.1.10-1-10_14)*%
%TF.CreationDate,2021-05-29T20:47:56+07:00*%
%TF.ProjectId,geulis,6765756c-6973-42e6-9b69-6361645f7063,rev?*%
%TF.SameCoordinates,Original*%
%TF.FileFunction,Legend,Top*%
%TF.FilePolarity,Positive*%
%FSLAX46Y46*%
G04 Gerber Fmt 4.6, Leading zero omitted, Abs format (unit mm)*
G04 Created by KiCad (PCBNEW (5.1.10-1-10_14)) date 2021-05-29 20:47:56*
%MOMM*%
%LPD*%
G01*
G04 APERTURE LIST*
%ADD10C,0.120000*%
%ADD11C,0.150000*%
G04 APERTURE END LIST*
D10*
%TO.C,J1*%
X196451809Y139953558D02*
X187051809Y139953558D01*
X187051809Y134153558D02*
X187051809Y136153558D01*
X187051809Y138053558D02*
X187051809Y139953558D01*
X196451809Y134153558D02*
X196451809Y136153558D01*
X196451809Y138053558D02*
X196451809Y139953558D01*
%TO.C,SW_RESET1*%
X238631809Y41588558D02*
X241131809Y41588558D01*
X237131809Y39838558D02*
X237131809Y37838558D01*
X238631809Y36088558D02*
X241131809Y36088558D01*
X242631809Y39838558D02*
X242631809Y37838558D01*
X238181809Y41138558D02*
X238631809Y41588558D01*
X241581809Y41138558D02*
X241131809Y41588558D01*
X241581809Y36538558D02*
X241131809Y36088558D01*
X238181809Y36538558D02*
X238631809Y36088558D01*
%TO.C,SW67*%
X213571809Y32288558D02*
X213571809Y33078558D01*
X206671809Y33078558D02*
X206671809Y32288558D01*
X208521809Y34128558D02*
X210221809Y34128558D01*
X207271809Y31278558D02*
X212971809Y31278558D01*
X210021809Y29988558D02*
X210021809Y31278558D01*
X208921809Y29778558D02*
X209821809Y29778558D01*
X208721809Y31278558D02*
X208721809Y29988558D01*
X210021809Y29988558D02*
X209821809Y29778558D01*
X208721809Y29988558D02*
X208921809Y29778558D01*
X211521809Y34128558D02*
X211721809Y34128558D01*
D11*
%TO.C,OL1*%
X317361809Y40258558D02*
X319901809Y40258558D01*
X317361809Y50418558D02*
X317361809Y40258558D01*
X319901809Y50418558D02*
X317361809Y50418558D01*
X319901809Y40258558D02*
X319901809Y50418558D01*
D10*
%TO.C,SW_57_2*%
X39446809Y104323558D02*
G75*
G03*
X39446809Y104323558I-3000000J0D01*
G01*
X30546809Y106323558D02*
X30546809Y110423558D01*
X42346809Y110423558D02*
X42346809Y106323558D01*
X42346809Y102323558D02*
X42346809Y98223558D01*
X30546809Y102323558D02*
X30546809Y98223558D01*
X30546809Y98223558D02*
X42346809Y98223558D01*
X32646809Y96823558D02*
X32346809Y96523558D01*
X32346809Y96523558D02*
X32346809Y97123558D01*
X32346809Y97123558D02*
X32646809Y96823558D01*
X30546809Y110423558D02*
X32946809Y110423558D01*
X35146809Y110423558D02*
X37746809Y110423558D01*
X39946809Y110423558D02*
X42346809Y110423558D01*
X35946809Y104323558D02*
X36946809Y104323558D01*
X36446809Y103823558D02*
X36446809Y104823558D01*
%TO.C,SW58_2*%
X35376809Y85273558D02*
G75*
G03*
X35376809Y85273558I-3000000J0D01*
G01*
X26476809Y87273558D02*
X26476809Y91373558D01*
X38276809Y91373558D02*
X38276809Y87273558D01*
X38276809Y83273558D02*
X38276809Y79173558D01*
X26476809Y83273558D02*
X26476809Y79173558D01*
X26476809Y79173558D02*
X38276809Y79173558D01*
X28576809Y77773558D02*
X28276809Y77473558D01*
X28276809Y77473558D02*
X28276809Y78073558D01*
X28276809Y78073558D02*
X28576809Y77773558D01*
X26476809Y91373558D02*
X28876809Y91373558D01*
X31076809Y91373558D02*
X33676809Y91373558D01*
X35876809Y91373558D02*
X38276809Y91373558D01*
X31876809Y85273558D02*
X32876809Y85273558D01*
X32376809Y84773558D02*
X32376809Y85773558D01*
%TO.C,SW29_2*%
X43606809Y123373558D02*
G75*
G03*
X43606809Y123373558I-3000000J0D01*
G01*
X34706809Y125373558D02*
X34706809Y129473558D01*
X46506809Y129473558D02*
X46506809Y125373558D01*
X46506809Y121373558D02*
X46506809Y117273558D01*
X34706809Y121373558D02*
X34706809Y117273558D01*
X34706809Y117273558D02*
X46506809Y117273558D01*
X36806809Y115873558D02*
X36506809Y115573558D01*
X36506809Y115573558D02*
X36506809Y116173558D01*
X36506809Y116173558D02*
X36806809Y115873558D01*
X34706809Y129473558D02*
X37106809Y129473558D01*
X39306809Y129473558D02*
X41906809Y129473558D01*
X44106809Y129473558D02*
X46506809Y129473558D01*
X40106809Y123373558D02*
X41106809Y123373558D01*
X40606809Y122873558D02*
X40606809Y123873558D01*
%TO.C,J1*%
D11*
X191418475Y130956177D02*
X191418475Y130241891D01*
X191370856Y130099034D01*
X191275618Y130003796D01*
X191132761Y129956177D01*
X191037523Y129956177D01*
X192418475Y129956177D02*
X191847047Y129956177D01*
X192132761Y129956177D02*
X192132761Y130956177D01*
X192037523Y130813319D01*
X191942285Y130718081D01*
X191847047Y130670462D01*
%TO.C,SW_RESET1*%
X235905618Y42183796D02*
X236048475Y42136177D01*
X236286570Y42136177D01*
X236381809Y42183796D01*
X236429428Y42231415D01*
X236477047Y42326653D01*
X236477047Y42421891D01*
X236429428Y42517129D01*
X236381809Y42564748D01*
X236286570Y42612367D01*
X236096094Y42659986D01*
X236000856Y42707605D01*
X235953237Y42755224D01*
X235905618Y42850462D01*
X235905618Y42945700D01*
X235953237Y43040938D01*
X236000856Y43088558D01*
X236096094Y43136177D01*
X236334189Y43136177D01*
X236477047Y43088558D01*
X236810380Y43136177D02*
X237048475Y42136177D01*
X237238951Y42850462D01*
X237429428Y42136177D01*
X237667523Y43136177D01*
X237810380Y42040938D02*
X238572285Y42040938D01*
X239381809Y42136177D02*
X239048475Y42612367D01*
X238810380Y42136177D02*
X238810380Y43136177D01*
X239191332Y43136177D01*
X239286570Y43088558D01*
X239334189Y43040938D01*
X239381809Y42945700D01*
X239381809Y42802843D01*
X239334189Y42707605D01*
X239286570Y42659986D01*
X239191332Y42612367D01*
X238810380Y42612367D01*
X239810380Y42659986D02*
X240143713Y42659986D01*
X240286570Y42136177D02*
X239810380Y42136177D01*
X239810380Y43136177D01*
X240286570Y43136177D01*
X240667523Y42183796D02*
X240810380Y42136177D01*
X241048475Y42136177D01*
X241143713Y42183796D01*
X241191332Y42231415D01*
X241238951Y42326653D01*
X241238951Y42421891D01*
X241191332Y42517129D01*
X241143713Y42564748D01*
X241048475Y42612367D01*
X240857999Y42659986D01*
X240762761Y42707605D01*
X240715142Y42755224D01*
X240667523Y42850462D01*
X240667523Y42945700D01*
X240715142Y43040938D01*
X240762761Y43088558D01*
X240857999Y43136177D01*
X241096094Y43136177D01*
X241238951Y43088558D01*
X241667523Y42659986D02*
X242000856Y42659986D01*
X242143713Y42136177D02*
X241667523Y42136177D01*
X241667523Y43136177D01*
X242143713Y43136177D01*
X242429428Y43136177D02*
X243000856Y43136177D01*
X242715142Y42136177D02*
X242715142Y43136177D01*
X243857999Y42136177D02*
X243286570Y42136177D01*
X243572285Y42136177D02*
X243572285Y43136177D01*
X243477047Y42993319D01*
X243381809Y42898081D01*
X243286570Y42850462D01*
%TO.C,SW67*%
X208312285Y35803796D02*
X208455142Y35756177D01*
X208693237Y35756177D01*
X208788475Y35803796D01*
X208836094Y35851415D01*
X208883713Y35946653D01*
X208883713Y36041891D01*
X208836094Y36137129D01*
X208788475Y36184748D01*
X208693237Y36232367D01*
X208502761Y36279986D01*
X208407523Y36327605D01*
X208359904Y36375224D01*
X208312285Y36470462D01*
X208312285Y36565700D01*
X208359904Y36660938D01*
X208407523Y36708558D01*
X208502761Y36756177D01*
X208740856Y36756177D01*
X208883713Y36708558D01*
X209217047Y36756177D02*
X209455142Y35756177D01*
X209645618Y36470462D01*
X209836094Y35756177D01*
X210074189Y36756177D01*
X210883713Y36756177D02*
X210693237Y36756177D01*
X210597999Y36708558D01*
X210550380Y36660938D01*
X210455142Y36518081D01*
X210407523Y36327605D01*
X210407523Y35946653D01*
X210455142Y35851415D01*
X210502761Y35803796D01*
X210597999Y35756177D01*
X210788475Y35756177D01*
X210883713Y35803796D01*
X210931332Y35851415D01*
X210978951Y35946653D01*
X210978951Y36184748D01*
X210931332Y36279986D01*
X210883713Y36327605D01*
X210788475Y36375224D01*
X210597999Y36375224D01*
X210502761Y36327605D01*
X210455142Y36279986D01*
X210407523Y36184748D01*
X211312285Y36756177D02*
X211978951Y36756177D01*
X211550380Y35756177D01*
%TO.C,OL1*%
X320184189Y43826177D02*
X320184189Y44016653D01*
X320231809Y44111891D01*
X320327047Y44207129D01*
X320517523Y44254748D01*
X320850856Y44254748D01*
X321041332Y44207129D01*
X321136570Y44111891D01*
X321184189Y44016653D01*
X321184189Y43826177D01*
X321136570Y43730938D01*
X321041332Y43635700D01*
X320850856Y43588081D01*
X320517523Y43588081D01*
X320327047Y43635700D01*
X320231809Y43730938D01*
X320184189Y43826177D01*
X321184189Y45159510D02*
X321184189Y44683319D01*
X320184189Y44683319D01*
X320660380Y45492843D02*
X320660380Y45826177D01*
X321184189Y45969034D02*
X321184189Y45492843D01*
X320184189Y45492843D01*
X320184189Y45969034D01*
X321184189Y46397605D02*
X320184189Y46397605D01*
X320184189Y46635700D01*
X320231809Y46778558D01*
X320327047Y46873796D01*
X320422285Y46921415D01*
X320612761Y46969034D01*
X320755618Y46969034D01*
X320946094Y46921415D01*
X321041332Y46873796D01*
X321136570Y46778558D01*
X321184189Y46635700D01*
X321184189Y46397605D01*
%TO.C,SW_57_2*%
X29651570Y96575938D02*
X29699189Y96718796D01*
X29699189Y96956891D01*
X29651570Y97052129D01*
X29603951Y97099748D01*
X29508713Y97147367D01*
X29413475Y97147367D01*
X29318237Y97099748D01*
X29270618Y97052129D01*
X29222999Y96956891D01*
X29175380Y96766415D01*
X29127761Y96671177D01*
X29080142Y96623558D01*
X28984904Y96575938D01*
X28889666Y96575938D01*
X28794428Y96623558D01*
X28746809Y96671177D01*
X28699189Y96766415D01*
X28699189Y97004510D01*
X28746809Y97147367D01*
X28699189Y97480700D02*
X29699189Y97718796D01*
X28984904Y97909272D01*
X29699189Y98099748D01*
X28699189Y98337843D01*
X29794428Y98480700D02*
X29794428Y99242605D01*
X28699189Y99956891D02*
X28699189Y99480700D01*
X29175380Y99433081D01*
X29127761Y99480700D01*
X29080142Y99575938D01*
X29080142Y99814034D01*
X29127761Y99909272D01*
X29175380Y99956891D01*
X29270618Y100004510D01*
X29508713Y100004510D01*
X29603951Y99956891D01*
X29651570Y99909272D01*
X29699189Y99814034D01*
X29699189Y99575938D01*
X29651570Y99480700D01*
X29603951Y99433081D01*
X28699189Y100337843D02*
X28699189Y101004510D01*
X29699189Y100575938D01*
X29794428Y101147367D02*
X29794428Y101909272D01*
X28794428Y102099748D02*
X28746809Y102147367D01*
X28699189Y102242605D01*
X28699189Y102480700D01*
X28746809Y102575938D01*
X28794428Y102623558D01*
X28889666Y102671177D01*
X28984904Y102671177D01*
X29127761Y102623558D01*
X29699189Y102052129D01*
X29699189Y102671177D01*
%TO.C,SW58_2*%
X25581570Y77906891D02*
X25629189Y78049748D01*
X25629189Y78287843D01*
X25581570Y78383081D01*
X25533951Y78430700D01*
X25438713Y78478319D01*
X25343475Y78478319D01*
X25248237Y78430700D01*
X25200618Y78383081D01*
X25152999Y78287843D01*
X25105380Y78097367D01*
X25057761Y78002129D01*
X25010142Y77954510D01*
X24914904Y77906891D01*
X24819666Y77906891D01*
X24724428Y77954510D01*
X24676809Y78002129D01*
X24629189Y78097367D01*
X24629189Y78335462D01*
X24676809Y78478319D01*
X24629189Y78811653D02*
X25629189Y79049748D01*
X24914904Y79240224D01*
X25629189Y79430700D01*
X24629189Y79668796D01*
X24629189Y80525938D02*
X24629189Y80049748D01*
X25105380Y80002129D01*
X25057761Y80049748D01*
X25010142Y80144986D01*
X25010142Y80383081D01*
X25057761Y80478319D01*
X25105380Y80525938D01*
X25200618Y80573558D01*
X25438713Y80573558D01*
X25533951Y80525938D01*
X25581570Y80478319D01*
X25629189Y80383081D01*
X25629189Y80144986D01*
X25581570Y80049748D01*
X25533951Y80002129D01*
X25057761Y81144986D02*
X25010142Y81049748D01*
X24962523Y81002129D01*
X24867285Y80954510D01*
X24819666Y80954510D01*
X24724428Y81002129D01*
X24676809Y81049748D01*
X24629189Y81144986D01*
X24629189Y81335462D01*
X24676809Y81430700D01*
X24724428Y81478319D01*
X24819666Y81525938D01*
X24867285Y81525938D01*
X24962523Y81478319D01*
X25010142Y81430700D01*
X25057761Y81335462D01*
X25057761Y81144986D01*
X25105380Y81049748D01*
X25152999Y81002129D01*
X25248237Y80954510D01*
X25438713Y80954510D01*
X25533951Y81002129D01*
X25581570Y81049748D01*
X25629189Y81144986D01*
X25629189Y81335462D01*
X25581570Y81430700D01*
X25533951Y81478319D01*
X25438713Y81525938D01*
X25248237Y81525938D01*
X25152999Y81478319D01*
X25105380Y81430700D01*
X25057761Y81335462D01*
X25724428Y81716415D02*
X25724428Y82478319D01*
X24724428Y82668796D02*
X24676809Y82716415D01*
X24629189Y82811653D01*
X24629189Y83049748D01*
X24676809Y83144986D01*
X24724428Y83192605D01*
X24819666Y83240224D01*
X24914904Y83240224D01*
X25057761Y83192605D01*
X25629189Y82621177D01*
X25629189Y83240224D01*
%TO.C,SW29_2*%
X33811570Y116006891D02*
X33859189Y116149748D01*
X33859189Y116387843D01*
X33811570Y116483081D01*
X33763951Y116530700D01*
X33668713Y116578319D01*
X33573475Y116578319D01*
X33478237Y116530700D01*
X33430618Y116483081D01*
X33382999Y116387843D01*
X33335380Y116197367D01*
X33287761Y116102129D01*
X33240142Y116054510D01*
X33144904Y116006891D01*
X33049666Y116006891D01*
X32954428Y116054510D01*
X32906809Y116102129D01*
X32859189Y116197367D01*
X32859189Y116435462D01*
X32906809Y116578319D01*
X32859189Y116911653D02*
X33859189Y117149748D01*
X33144904Y117340224D01*
X33859189Y117530700D01*
X32859189Y117768796D01*
X32954428Y118102129D02*
X32906809Y118149748D01*
X32859189Y118244986D01*
X32859189Y118483081D01*
X32906809Y118578319D01*
X32954428Y118625938D01*
X33049666Y118673558D01*
X33144904Y118673558D01*
X33287761Y118625938D01*
X33859189Y118054510D01*
X33859189Y118673558D01*
X33859189Y119149748D02*
X33859189Y119340224D01*
X33811570Y119435462D01*
X33763951Y119483081D01*
X33621094Y119578319D01*
X33430618Y119625938D01*
X33049666Y119625938D01*
X32954428Y119578319D01*
X32906809Y119530700D01*
X32859189Y119435462D01*
X32859189Y119244986D01*
X32906809Y119149748D01*
X32954428Y119102129D01*
X33049666Y119054510D01*
X33287761Y119054510D01*
X33382999Y119102129D01*
X33430618Y119149748D01*
X33478237Y119244986D01*
X33478237Y119435462D01*
X33430618Y119530700D01*
X33382999Y119578319D01*
X33287761Y119625938D01*
X33954428Y119816415D02*
X33954428Y120578319D01*
X32954428Y120768796D02*
X32906809Y120816415D01*
X32859189Y120911653D01*
X32859189Y121149748D01*
X32906809Y121244986D01*
X32954428Y121292605D01*
X33049666Y121340224D01*
X33144904Y121340224D01*
X33287761Y121292605D01*
X33859189Y120721177D01*
X33859189Y121340224D01*
%TD*%
M02*
