%TF.GenerationSoftware,KiCad,Pcbnew,(5.1.10-1-10_14)*%
%TF.CreationDate,2021-05-29T20:47:56+07:00*%
%TF.ProjectId,geulis,6765756c-6973-42e6-9b69-6361645f7063,rev?*%
%TF.SameCoordinates,Original*%
%TF.FileFunction,Soldermask,Bot*%
%TF.FilePolarity,Negative*%
%FSLAX46Y46*%
G04 Gerber Fmt 4.6, Leading zero omitted, Abs format (unit mm)*
G04 Created by KiCad (PCBNEW (5.1.10-1-10_14)) date 2021-05-29 20:47:56*
%MOMM*%
%LPD*%
G01*
G04 APERTURE LIST*
%ADD10O,1.000000X2.100000*%
%ADD11C,0.650000*%
%ADD12O,1.000000X1.600000*%
%ADD13R,1.000000X1.800000*%
%ADD14R,1.000000X0.650000*%
%ADD15R,0.650000X1.000000*%
%ADD16R,1.700000X1.000000*%
%ADD17C,0.900000*%
%ADD18R,0.650000X1.220000*%
%ADD19R,1.220000X0.650000*%
%ADD20C,1.397000*%
%ADD21R,1.270000X1.270000*%
%ADD22O,1.270000X1.270000*%
%ADD23O,1.700000X2.000000*%
%ADD24R,0.600000X1.450000*%
%ADD25R,0.300000X1.450000*%
%ADD26C,4.400000*%
%ADD27R,0.900000X1.200000*%
%ADD28R,1.500000X1.000000*%
%ADD29R,1.000000X1.500000*%
%ADD30C,0.100000*%
%ADD31C,1.750000*%
%ADD32C,3.000000*%
%ADD33C,3.987800*%
%ADD34R,2.550000X2.500000*%
%ADD35C,3.048000*%
%ADD36C,2.000000*%
%ADD37R,2.000000X3.200000*%
%ADD38R,2.000000X2.000000*%
G04 APERTURE END LIST*
D10*
%TO.C,J1*%
X187431809Y132923558D03*
X196071809Y132923558D03*
D11*
X194641809Y133453558D03*
D12*
X196071809Y137103558D03*
D11*
X188861809Y133453558D03*
D12*
X187431809Y137103558D03*
%TD*%
D13*
%TO.C,Y2*%
X185681809Y52658558D03*
X188181809Y52658558D03*
%TD*%
%TO.C,U5*%
G36*
G01*
X183081809Y66746058D02*
X183381809Y66746058D01*
G75*
G02*
X183531809Y66596058I0J-150000D01*
G01*
X183531809Y65571058D01*
G75*
G02*
X183381809Y65421058I-150000J0D01*
G01*
X183081809Y65421058D01*
G75*
G02*
X182931809Y65571058I0J150000D01*
G01*
X182931809Y66596058D01*
G75*
G02*
X183081809Y66746058I150000J0D01*
G01*
G37*
G36*
G01*
X184981809Y66746058D02*
X185281809Y66746058D01*
G75*
G02*
X185431809Y66596058I0J-150000D01*
G01*
X185431809Y65571058D01*
G75*
G02*
X185281809Y65421058I-150000J0D01*
G01*
X184981809Y65421058D01*
G75*
G02*
X184831809Y65571058I0J150000D01*
G01*
X184831809Y66596058D01*
G75*
G02*
X184981809Y66746058I150000J0D01*
G01*
G37*
G36*
G01*
X184981809Y69021058D02*
X185281809Y69021058D01*
G75*
G02*
X185431809Y68871058I0J-150000D01*
G01*
X185431809Y67846058D01*
G75*
G02*
X185281809Y67696058I-150000J0D01*
G01*
X184981809Y67696058D01*
G75*
G02*
X184831809Y67846058I0J150000D01*
G01*
X184831809Y68871058D01*
G75*
G02*
X184981809Y69021058I150000J0D01*
G01*
G37*
G36*
G01*
X184031809Y69021058D02*
X184331809Y69021058D01*
G75*
G02*
X184481809Y68871058I0J-150000D01*
G01*
X184481809Y67846058D01*
G75*
G02*
X184331809Y67696058I-150000J0D01*
G01*
X184031809Y67696058D01*
G75*
G02*
X183881809Y67846058I0J150000D01*
G01*
X183881809Y68871058D01*
G75*
G02*
X184031809Y69021058I150000J0D01*
G01*
G37*
G36*
G01*
X183081809Y69021058D02*
X183381809Y69021058D01*
G75*
G02*
X183531809Y68871058I0J-150000D01*
G01*
X183531809Y67846058D01*
G75*
G02*
X183381809Y67696058I-150000J0D01*
G01*
X183081809Y67696058D01*
G75*
G02*
X182931809Y67846058I0J150000D01*
G01*
X182931809Y68871058D01*
G75*
G02*
X183081809Y69021058I150000J0D01*
G01*
G37*
%TD*%
%TO.C,U4*%
G36*
G01*
X190856809Y126908558D02*
X190856809Y126608558D01*
G75*
G02*
X190706809Y126458558I-150000J0D01*
G01*
X189681809Y126458558D01*
G75*
G02*
X189531809Y126608558I0J150000D01*
G01*
X189531809Y126908558D01*
G75*
G02*
X189681809Y127058558I150000J0D01*
G01*
X190706809Y127058558D01*
G75*
G02*
X190856809Y126908558I0J-150000D01*
G01*
G37*
G36*
G01*
X190856809Y125958558D02*
X190856809Y125658558D01*
G75*
G02*
X190706809Y125508558I-150000J0D01*
G01*
X189681809Y125508558D01*
G75*
G02*
X189531809Y125658558I0J150000D01*
G01*
X189531809Y125958558D01*
G75*
G02*
X189681809Y126108558I150000J0D01*
G01*
X190706809Y126108558D01*
G75*
G02*
X190856809Y125958558I0J-150000D01*
G01*
G37*
G36*
G01*
X190856809Y125008558D02*
X190856809Y124708558D01*
G75*
G02*
X190706809Y124558558I-150000J0D01*
G01*
X189681809Y124558558D01*
G75*
G02*
X189531809Y124708558I0J150000D01*
G01*
X189531809Y125008558D01*
G75*
G02*
X189681809Y125158558I150000J0D01*
G01*
X190706809Y125158558D01*
G75*
G02*
X190856809Y125008558I0J-150000D01*
G01*
G37*
G36*
G01*
X193131809Y125008558D02*
X193131809Y124708558D01*
G75*
G02*
X192981809Y124558558I-150000J0D01*
G01*
X191956809Y124558558D01*
G75*
G02*
X191806809Y124708558I0J150000D01*
G01*
X191806809Y125008558D01*
G75*
G02*
X191956809Y125158558I150000J0D01*
G01*
X192981809Y125158558D01*
G75*
G02*
X193131809Y125008558I0J-150000D01*
G01*
G37*
G36*
G01*
X193131809Y125958558D02*
X193131809Y125658558D01*
G75*
G02*
X192981809Y125508558I-150000J0D01*
G01*
X191956809Y125508558D01*
G75*
G02*
X191806809Y125658558I0J150000D01*
G01*
X191806809Y125958558D01*
G75*
G02*
X191956809Y126108558I150000J0D01*
G01*
X192981809Y126108558D01*
G75*
G02*
X193131809Y125958558I0J-150000D01*
G01*
G37*
G36*
G01*
X193131809Y126908558D02*
X193131809Y126608558D01*
G75*
G02*
X192981809Y126458558I-150000J0D01*
G01*
X191956809Y126458558D01*
G75*
G02*
X191806809Y126608558I0J150000D01*
G01*
X191806809Y126908558D01*
G75*
G02*
X191956809Y127058558I150000J0D01*
G01*
X192981809Y127058558D01*
G75*
G02*
X193131809Y126908558I0J-150000D01*
G01*
G37*
%TD*%
D14*
%TO.C,U3*%
X197122809Y29926558D03*
X186962809Y31958558D03*
X186962809Y30688558D03*
X186962809Y29418558D03*
X186962809Y28148558D03*
X186962809Y26878558D03*
X186962809Y25608558D03*
X186962809Y24338558D03*
X186962809Y23068558D03*
X186962809Y21798558D03*
X186962809Y20528558D03*
X199200809Y28148558D03*
X199200809Y20528558D03*
X199200809Y26878558D03*
X199200809Y21798558D03*
X199200809Y23068558D03*
X199200809Y24338558D03*
X199200809Y29418558D03*
X199200809Y25608558D03*
X199200809Y30688558D03*
X199200809Y31958558D03*
D15*
X196231809Y34177558D03*
X188611809Y34177558D03*
X194961809Y34177558D03*
X189881809Y34177558D03*
X191151809Y34177558D03*
X192421809Y34177558D03*
X197501809Y34177558D03*
X193691809Y34177558D03*
D14*
X197122809Y28656558D03*
X197122809Y27386558D03*
X197122809Y26116558D03*
X197122809Y24846558D03*
X197122809Y23576558D03*
X197122809Y22306558D03*
X197122809Y21036558D03*
D15*
X190518809Y32466558D03*
X189248809Y32466558D03*
X194328809Y32466558D03*
X191788809Y32466558D03*
X195598809Y32466558D03*
X196868809Y32466558D03*
X193058809Y32466558D03*
%TD*%
%TO.C,U2*%
G36*
G01*
X191696809Y58878558D02*
X191696809Y59178558D01*
G75*
G02*
X191846809Y59328558I150000J0D01*
G01*
X192871809Y59328558D01*
G75*
G02*
X193021809Y59178558I0J-150000D01*
G01*
X193021809Y58878558D01*
G75*
G02*
X192871809Y58728558I-150000J0D01*
G01*
X191846809Y58728558D01*
G75*
G02*
X191696809Y58878558I0J150000D01*
G01*
G37*
G36*
G01*
X191696809Y60778558D02*
X191696809Y61078558D01*
G75*
G02*
X191846809Y61228558I150000J0D01*
G01*
X192871809Y61228558D01*
G75*
G02*
X193021809Y61078558I0J-150000D01*
G01*
X193021809Y60778558D01*
G75*
G02*
X192871809Y60628558I-150000J0D01*
G01*
X191846809Y60628558D01*
G75*
G02*
X191696809Y60778558I0J150000D01*
G01*
G37*
G36*
G01*
X189421809Y60778558D02*
X189421809Y61078558D01*
G75*
G02*
X189571809Y61228558I150000J0D01*
G01*
X190596809Y61228558D01*
G75*
G02*
X190746809Y61078558I0J-150000D01*
G01*
X190746809Y60778558D01*
G75*
G02*
X190596809Y60628558I-150000J0D01*
G01*
X189571809Y60628558D01*
G75*
G02*
X189421809Y60778558I0J150000D01*
G01*
G37*
G36*
G01*
X189421809Y59828558D02*
X189421809Y60128558D01*
G75*
G02*
X189571809Y60278558I150000J0D01*
G01*
X190596809Y60278558D01*
G75*
G02*
X190746809Y60128558I0J-150000D01*
G01*
X190746809Y59828558D01*
G75*
G02*
X190596809Y59678558I-150000J0D01*
G01*
X189571809Y59678558D01*
G75*
G02*
X189421809Y59828558I0J150000D01*
G01*
G37*
G36*
G01*
X189421809Y58878558D02*
X189421809Y59178558D01*
G75*
G02*
X189571809Y59328558I150000J0D01*
G01*
X190596809Y59328558D01*
G75*
G02*
X190746809Y59178558I0J-150000D01*
G01*
X190746809Y58878558D01*
G75*
G02*
X190596809Y58728558I-150000J0D01*
G01*
X189571809Y58728558D01*
G75*
G02*
X189421809Y58878558I0J150000D01*
G01*
G37*
%TD*%
D16*
%TO.C,SW_RESET2*%
X242951809Y40888558D03*
X236651809Y40888558D03*
X242951809Y37088558D03*
X236651809Y37088558D03*
%TD*%
D17*
%TO.C,SW67*%
X211621809Y32678558D03*
X208621809Y32678558D03*
%TD*%
%TO.C,R10*%
G36*
G01*
X189356809Y47621058D02*
X189356809Y48096058D01*
G75*
G02*
X189594309Y48333558I237500J0D01*
G01*
X190169309Y48333558D01*
G75*
G02*
X190406809Y48096058I0J-237500D01*
G01*
X190406809Y47621058D01*
G75*
G02*
X190169309Y47383558I-237500J0D01*
G01*
X189594309Y47383558D01*
G75*
G02*
X189356809Y47621058I0J237500D01*
G01*
G37*
G36*
G01*
X187606809Y47621058D02*
X187606809Y48096058D01*
G75*
G02*
X187844309Y48333558I237500J0D01*
G01*
X188419309Y48333558D01*
G75*
G02*
X188656809Y48096058I0J-237500D01*
G01*
X188656809Y47621058D01*
G75*
G02*
X188419309Y47383558I-237500J0D01*
G01*
X187844309Y47383558D01*
G75*
G02*
X187606809Y47621058I0J237500D01*
G01*
G37*
%TD*%
%TO.C,R9*%
G36*
G01*
X29531809Y45471058D02*
X29531809Y45946058D01*
G75*
G02*
X29769309Y46183558I237500J0D01*
G01*
X30344309Y46183558D01*
G75*
G02*
X30581809Y45946058I0J-237500D01*
G01*
X30581809Y45471058D01*
G75*
G02*
X30344309Y45233558I-237500J0D01*
G01*
X29769309Y45233558D01*
G75*
G02*
X29531809Y45471058I0J237500D01*
G01*
G37*
G36*
G01*
X27781809Y45471058D02*
X27781809Y45946058D01*
G75*
G02*
X28019309Y46183558I237500J0D01*
G01*
X28594309Y46183558D01*
G75*
G02*
X28831809Y45946058I0J-237500D01*
G01*
X28831809Y45471058D01*
G75*
G02*
X28594309Y45233558I-237500J0D01*
G01*
X28019309Y45233558D01*
G75*
G02*
X27781809Y45471058I0J237500D01*
G01*
G37*
%TD*%
%TO.C,R8*%
G36*
G01*
X28906809Y41396058D02*
X28906809Y40921058D01*
G75*
G02*
X28669309Y40683558I-237500J0D01*
G01*
X28094309Y40683558D01*
G75*
G02*
X27856809Y40921058I0J237500D01*
G01*
X27856809Y41396058D01*
G75*
G02*
X28094309Y41633558I237500J0D01*
G01*
X28669309Y41633558D01*
G75*
G02*
X28906809Y41396058I0J-237500D01*
G01*
G37*
G36*
G01*
X30656809Y41396058D02*
X30656809Y40921058D01*
G75*
G02*
X30419309Y40683558I-237500J0D01*
G01*
X29844309Y40683558D01*
G75*
G02*
X29606809Y40921058I0J237500D01*
G01*
X29606809Y41396058D01*
G75*
G02*
X29844309Y41633558I237500J0D01*
G01*
X30419309Y41633558D01*
G75*
G02*
X30656809Y41396058I0J-237500D01*
G01*
G37*
%TD*%
%TO.C,R7*%
G36*
G01*
X196661809Y128616058D02*
X196661809Y128141058D01*
G75*
G02*
X196424309Y127903558I-237500J0D01*
G01*
X195849309Y127903558D01*
G75*
G02*
X195611809Y128141058I0J237500D01*
G01*
X195611809Y128616058D01*
G75*
G02*
X195849309Y128853558I237500J0D01*
G01*
X196424309Y128853558D01*
G75*
G02*
X196661809Y128616058I0J-237500D01*
G01*
G37*
G36*
G01*
X198411809Y128616058D02*
X198411809Y128141058D01*
G75*
G02*
X198174309Y127903558I-237500J0D01*
G01*
X197599309Y127903558D01*
G75*
G02*
X197361809Y128141058I0J237500D01*
G01*
X197361809Y128616058D01*
G75*
G02*
X197599309Y128853558I237500J0D01*
G01*
X198174309Y128853558D01*
G75*
G02*
X198411809Y128616058I0J-237500D01*
G01*
G37*
%TD*%
%TO.C,R6*%
G36*
G01*
X186766809Y128191058D02*
X186766809Y128666058D01*
G75*
G02*
X187004309Y128903558I237500J0D01*
G01*
X187579309Y128903558D01*
G75*
G02*
X187816809Y128666058I0J-237500D01*
G01*
X187816809Y128191058D01*
G75*
G02*
X187579309Y127953558I-237500J0D01*
G01*
X187004309Y127953558D01*
G75*
G02*
X186766809Y128191058I0J237500D01*
G01*
G37*
G36*
G01*
X185016809Y128191058D02*
X185016809Y128666058D01*
G75*
G02*
X185254309Y128903558I237500J0D01*
G01*
X185829309Y128903558D01*
G75*
G02*
X186066809Y128666058I0J-237500D01*
G01*
X186066809Y128191058D01*
G75*
G02*
X185829309Y127953558I-237500J0D01*
G01*
X185254309Y127953558D01*
G75*
G02*
X185016809Y128191058I0J237500D01*
G01*
G37*
%TD*%
%TO.C,R5*%
G36*
G01*
X187681809Y57361058D02*
X187681809Y57836058D01*
G75*
G02*
X187919309Y58073558I237500J0D01*
G01*
X188494309Y58073558D01*
G75*
G02*
X188731809Y57836058I0J-237500D01*
G01*
X188731809Y57361058D01*
G75*
G02*
X188494309Y57123558I-237500J0D01*
G01*
X187919309Y57123558D01*
G75*
G02*
X187681809Y57361058I0J237500D01*
G01*
G37*
G36*
G01*
X185931809Y57361058D02*
X185931809Y57836058D01*
G75*
G02*
X186169309Y58073558I237500J0D01*
G01*
X186744309Y58073558D01*
G75*
G02*
X186981809Y57836058I0J-237500D01*
G01*
X186981809Y57361058D01*
G75*
G02*
X186744309Y57123558I-237500J0D01*
G01*
X186169309Y57123558D01*
G75*
G02*
X185931809Y57361058I0J237500D01*
G01*
G37*
%TD*%
%TO.C,R4*%
G36*
G01*
X186501809Y63611058D02*
X186501809Y64086058D01*
G75*
G02*
X186739309Y64323558I237500J0D01*
G01*
X187314309Y64323558D01*
G75*
G02*
X187551809Y64086058I0J-237500D01*
G01*
X187551809Y63611058D01*
G75*
G02*
X187314309Y63373558I-237500J0D01*
G01*
X186739309Y63373558D01*
G75*
G02*
X186501809Y63611058I0J237500D01*
G01*
G37*
G36*
G01*
X184751809Y63611058D02*
X184751809Y64086058D01*
G75*
G02*
X184989309Y64323558I237500J0D01*
G01*
X185564309Y64323558D01*
G75*
G02*
X185801809Y64086058I0J-237500D01*
G01*
X185801809Y63611058D01*
G75*
G02*
X185564309Y63373558I-237500J0D01*
G01*
X184989309Y63373558D01*
G75*
G02*
X184751809Y63611058I0J237500D01*
G01*
G37*
%TD*%
%TO.C,R3*%
G36*
G01*
X185221809Y61471058D02*
X185221809Y61946058D01*
G75*
G02*
X185459309Y62183558I237500J0D01*
G01*
X186034309Y62183558D01*
G75*
G02*
X186271809Y61946058I0J-237500D01*
G01*
X186271809Y61471058D01*
G75*
G02*
X186034309Y61233558I-237500J0D01*
G01*
X185459309Y61233558D01*
G75*
G02*
X185221809Y61471058I0J237500D01*
G01*
G37*
G36*
G01*
X183471809Y61471058D02*
X183471809Y61946058D01*
G75*
G02*
X183709309Y62183558I237500J0D01*
G01*
X184284309Y62183558D01*
G75*
G02*
X184521809Y61946058I0J-237500D01*
G01*
X184521809Y61471058D01*
G75*
G02*
X184284309Y61233558I-237500J0D01*
G01*
X183709309Y61233558D01*
G75*
G02*
X183471809Y61471058I0J237500D01*
G01*
G37*
%TD*%
%TO.C,R2*%
G36*
G01*
X189056809Y43471058D02*
X189056809Y43946058D01*
G75*
G02*
X189294309Y44183558I237500J0D01*
G01*
X189869309Y44183558D01*
G75*
G02*
X190106809Y43946058I0J-237500D01*
G01*
X190106809Y43471058D01*
G75*
G02*
X189869309Y43233558I-237500J0D01*
G01*
X189294309Y43233558D01*
G75*
G02*
X189056809Y43471058I0J237500D01*
G01*
G37*
G36*
G01*
X187306809Y43471058D02*
X187306809Y43946058D01*
G75*
G02*
X187544309Y44183558I237500J0D01*
G01*
X188119309Y44183558D01*
G75*
G02*
X188356809Y43946058I0J-237500D01*
G01*
X188356809Y43471058D01*
G75*
G02*
X188119309Y43233558I-237500J0D01*
G01*
X187544309Y43233558D01*
G75*
G02*
X187306809Y43471058I0J237500D01*
G01*
G37*
%TD*%
D18*
%TO.C,Q3*%
X188881809Y68278558D03*
X187931809Y65658558D03*
X189831809Y65658558D03*
%TD*%
D19*
%TO.C,Q2*%
X181871809Y60408558D03*
X179251809Y61358558D03*
X179251809Y59458558D03*
%TD*%
D20*
%TO.C,OL1*%
X318631809Y49148558D03*
X318631809Y46608558D03*
X318631809Y44068558D03*
X318631809Y41528558D03*
%TD*%
D21*
%TO.C,J5*%
X172141809Y130498558D03*
D22*
X174681809Y130498558D03*
X177221809Y130498558D03*
X179761809Y130498558D03*
%TD*%
D23*
%TO.C,J4*%
X343091809Y-29781442D03*
G36*
G01*
X339741809Y-30531442D02*
X339741809Y-29031442D01*
G75*
G02*
X339991809Y-28781442I250000J0D01*
G01*
X341191809Y-28781442D01*
G75*
G02*
X341441809Y-29031442I0J-250000D01*
G01*
X341441809Y-30531442D01*
G75*
G02*
X341191809Y-30781442I-250000J0D01*
G01*
X339991809Y-30781442D01*
G75*
G02*
X339741809Y-30531442I0J250000D01*
G01*
G37*
%TD*%
D22*
%TO.C,J3*%
X172151809Y128118558D03*
X174691809Y128118558D03*
D21*
X177231809Y128118558D03*
D22*
X179771809Y128118558D03*
%TD*%
D24*
%TO.C,J2*%
X195001809Y132008558D03*
X194201809Y132008558D03*
X189301809Y132008558D03*
X188501809Y132008558D03*
X188501809Y132008558D03*
X189301809Y132008558D03*
X194201809Y132008558D03*
X195001809Y132008558D03*
D25*
X190001809Y132008558D03*
X190501809Y132008558D03*
X191001809Y132008558D03*
X192001809Y132008558D03*
X192501809Y132008558D03*
X193001809Y132008558D03*
X193501809Y132008558D03*
X191501809Y132008558D03*
D10*
X196071809Y132923558D03*
X187431809Y132923558D03*
D11*
X188861809Y133453558D03*
D12*
X187431809Y137103558D03*
D11*
X194641809Y133453558D03*
D12*
X196071809Y137103558D03*
%TD*%
D26*
%TO.C,H13*%
X386971809Y-25941442D03*
%TD*%
%TO.C,H12*%
X377791809Y-19321442D03*
%TD*%
%TO.C,H11*%
X372431809Y-12701442D03*
%TD*%
%TO.C,H10*%
X406241809Y-46081442D03*
%TD*%
%TO.C,H9*%
X395391809Y-32841442D03*
%TD*%
%TO.C,H8*%
X404811809Y-39461442D03*
%TD*%
%TO.C,H7*%
X383741809Y-19321442D03*
%TD*%
%TO.C,H5*%
X366481809Y-12701442D03*
%TD*%
%TO.C,H4*%
X401341809Y-32841442D03*
%TD*%
%TO.C,H3*%
X392921809Y-25941442D03*
%TD*%
%TO.C,H2*%
X378381809Y-13371442D03*
%TD*%
%TO.C,F2*%
G36*
G01*
X185026809Y125368557D02*
X185026809Y126268559D01*
G75*
G02*
X185276808Y126518558I249999J0D01*
G01*
X185926810Y126518558D01*
G75*
G02*
X186176809Y126268559I0J-249999D01*
G01*
X186176809Y125368557D01*
G75*
G02*
X185926810Y125118558I-249999J0D01*
G01*
X185276808Y125118558D01*
G75*
G02*
X185026809Y125368557I0J249999D01*
G01*
G37*
G36*
G01*
X182976809Y125368557D02*
X182976809Y126268559D01*
G75*
G02*
X183226808Y126518558I249999J0D01*
G01*
X183876810Y126518558D01*
G75*
G02*
X184126809Y126268559I0J-249999D01*
G01*
X184126809Y125368557D01*
G75*
G02*
X183876810Y125118558I-249999J0D01*
G01*
X183226808Y125118558D01*
G75*
G02*
X182976809Y125368557I0J249999D01*
G01*
G37*
%TD*%
%TO.C,D54*%
G36*
G01*
X25369309Y47058558D02*
X24894309Y47058558D01*
G75*
G02*
X24656809Y47296058I0J237500D01*
G01*
X24656809Y47871058D01*
G75*
G02*
X24894309Y48108558I237500J0D01*
G01*
X25369309Y48108558D01*
G75*
G02*
X25606809Y47871058I0J-237500D01*
G01*
X25606809Y47296058D01*
G75*
G02*
X25369309Y47058558I-237500J0D01*
G01*
G37*
G36*
G01*
X25369309Y45308558D02*
X24894309Y45308558D01*
G75*
G02*
X24656809Y45546058I0J237500D01*
G01*
X24656809Y46121058D01*
G75*
G02*
X24894309Y46358558I237500J0D01*
G01*
X25369309Y46358558D01*
G75*
G02*
X25606809Y46121058I0J-237500D01*
G01*
X25606809Y45546058D01*
G75*
G02*
X25369309Y45308558I-237500J0D01*
G01*
G37*
%TD*%
%TO.C,D53*%
G36*
G01*
X25319309Y42583558D02*
X24844309Y42583558D01*
G75*
G02*
X24606809Y42821058I0J237500D01*
G01*
X24606809Y43396058D01*
G75*
G02*
X24844309Y43633558I237500J0D01*
G01*
X25319309Y43633558D01*
G75*
G02*
X25556809Y43396058I0J-237500D01*
G01*
X25556809Y42821058D01*
G75*
G02*
X25319309Y42583558I-237500J0D01*
G01*
G37*
G36*
G01*
X25319309Y40833558D02*
X24844309Y40833558D01*
G75*
G02*
X24606809Y41071058I0J237500D01*
G01*
X24606809Y41646058D01*
G75*
G02*
X24844309Y41883558I237500J0D01*
G01*
X25319309Y41883558D01*
G75*
G02*
X25556809Y41646058I0J-237500D01*
G01*
X25556809Y41071058D01*
G75*
G02*
X25319309Y40833558I-237500J0D01*
G01*
G37*
%TD*%
D27*
%TO.C,D52*%
X176641809Y59858558D03*
X173341809Y59858558D03*
%TD*%
D28*
%TO.C,D51*%
X123131809Y36658558D03*
X123131809Y39858558D03*
X128031809Y36658558D03*
X128031809Y39858558D03*
%TD*%
%TO.C,D50*%
X80421809Y41258558D03*
X80421809Y44458558D03*
X85321809Y41258558D03*
X85321809Y44458558D03*
%TD*%
%TO.C,D49*%
X25301809Y50958558D03*
X25301809Y54158558D03*
X30201809Y50958558D03*
X30201809Y54158558D03*
%TD*%
%TO.C,D48*%
X42001809Y83158558D03*
X42001809Y86358558D03*
X46901809Y83158558D03*
X46901809Y86358558D03*
%TD*%
D29*
%TO.C,D47*%
X28821809Y121468558D03*
X25621809Y121468558D03*
X28821809Y126368558D03*
X25621809Y126368558D03*
%TD*%
D28*
%TO.C,D46*%
X70951809Y114858558D03*
X70951809Y118058558D03*
X75851809Y114858558D03*
X75851809Y118058558D03*
%TD*%
%TO.C,D45*%
X110371809Y127628558D03*
X110371809Y130828558D03*
X115271809Y127628558D03*
X115271809Y130828558D03*
%TD*%
%TO.C,D44*%
X155481809Y127698558D03*
X155481809Y130898558D03*
X160381809Y127698558D03*
X160381809Y130898558D03*
%TD*%
%TO.C,D43*%
X206951809Y127388558D03*
X206951809Y130588558D03*
X211851809Y127388558D03*
X211851809Y130588558D03*
%TD*%
%TO.C,D42*%
X247951809Y127958558D03*
X247951809Y131158558D03*
X252851809Y127958558D03*
X252851809Y131158558D03*
%TD*%
D29*
%TO.C,D41*%
X313301809Y126138558D03*
X310101809Y126138558D03*
X313301809Y131038558D03*
X310101809Y131038558D03*
%TD*%
D28*
%TO.C,D40*%
X357721809Y127708558D03*
X357721809Y124508558D03*
X352821809Y127708558D03*
X352821809Y124508558D03*
%TD*%
D29*
%TO.C,D39*%
X357791809Y86508558D03*
X354591809Y86508558D03*
X357791809Y91408558D03*
X354591809Y91408558D03*
%TD*%
%TO.C,D38*%
X358021809Y43828558D03*
X354821809Y43828558D03*
X358021809Y48728558D03*
X354821809Y48728558D03*
%TD*%
D28*
%TO.C,D37*%
X308691809Y38918558D03*
X308691809Y42118558D03*
X313591809Y38918558D03*
X313591809Y42118558D03*
%TD*%
%TO.C,D36*%
X267591809Y38088558D03*
X267591809Y34888558D03*
X262691809Y38088558D03*
X262691809Y34888558D03*
%TD*%
%TO.C,D35*%
X184151809Y23098558D03*
X184151809Y19898558D03*
X179251809Y23098558D03*
X179251809Y19898558D03*
%TD*%
%TO.C,D34*%
X226461809Y29478558D03*
X226461809Y26278558D03*
X221561809Y29478558D03*
X221561809Y26278558D03*
%TD*%
%TO.C,C20*%
G36*
G01*
X183906809Y46058557D02*
X183906809Y46958559D01*
G75*
G02*
X184156808Y47208558I249999J0D01*
G01*
X184806810Y47208558D01*
G75*
G02*
X185056809Y46958559I0J-249999D01*
G01*
X185056809Y46058557D01*
G75*
G02*
X184806810Y45808558I-249999J0D01*
G01*
X184156808Y45808558D01*
G75*
G02*
X183906809Y46058557I0J249999D01*
G01*
G37*
G36*
G01*
X181856809Y46058557D02*
X181856809Y46958559D01*
G75*
G02*
X182106808Y47208558I249999J0D01*
G01*
X182756810Y47208558D01*
G75*
G02*
X183006809Y46958559I0J-249999D01*
G01*
X183006809Y46058557D01*
G75*
G02*
X182756810Y45808558I-249999J0D01*
G01*
X182106808Y45808558D01*
G75*
G02*
X181856809Y46058557I0J249999D01*
G01*
G37*
%TD*%
%TO.C,C19*%
G36*
G01*
X131696809Y37198557D02*
X131696809Y38098559D01*
G75*
G02*
X131946808Y38348558I249999J0D01*
G01*
X132596810Y38348558D01*
G75*
G02*
X132846809Y38098559I0J-249999D01*
G01*
X132846809Y37198557D01*
G75*
G02*
X132596810Y36948558I-249999J0D01*
G01*
X131946808Y36948558D01*
G75*
G02*
X131696809Y37198557I0J249999D01*
G01*
G37*
G36*
G01*
X129646809Y37198557D02*
X129646809Y38098559D01*
G75*
G02*
X129896808Y38348558I249999J0D01*
G01*
X130546810Y38348558D01*
G75*
G02*
X130796809Y38098559I0J-249999D01*
G01*
X130796809Y37198557D01*
G75*
G02*
X130546810Y36948558I-249999J0D01*
G01*
X129896808Y36948558D01*
G75*
G02*
X129646809Y37198557I0J249999D01*
G01*
G37*
%TD*%
%TO.C,C18*%
G36*
G01*
X180461809Y63068557D02*
X180461809Y63968559D01*
G75*
G02*
X180711808Y64218558I249999J0D01*
G01*
X181361810Y64218558D01*
G75*
G02*
X181611809Y63968559I0J-249999D01*
G01*
X181611809Y63068557D01*
G75*
G02*
X181361810Y62818558I-249999J0D01*
G01*
X180711808Y62818558D01*
G75*
G02*
X180461809Y63068557I0J249999D01*
G01*
G37*
G36*
G01*
X178411809Y63068557D02*
X178411809Y63968559D01*
G75*
G02*
X178661808Y64218558I249999J0D01*
G01*
X179311810Y64218558D01*
G75*
G02*
X179561809Y63968559I0J-249999D01*
G01*
X179561809Y63068557D01*
G75*
G02*
X179311810Y62818558I-249999J0D01*
G01*
X178661808Y62818558D01*
G75*
G02*
X178411809Y63068557I0J249999D01*
G01*
G37*
%TD*%
%TO.C,C17*%
G36*
G01*
X175966809Y21608557D02*
X175966809Y22508559D01*
G75*
G02*
X176216808Y22758558I249999J0D01*
G01*
X176866810Y22758558D01*
G75*
G02*
X177116809Y22508559I0J-249999D01*
G01*
X177116809Y21608557D01*
G75*
G02*
X176866810Y21358558I-249999J0D01*
G01*
X176216808Y21358558D01*
G75*
G02*
X175966809Y21608557I0J249999D01*
G01*
G37*
G36*
G01*
X173916809Y21608557D02*
X173916809Y22508559D01*
G75*
G02*
X174166808Y22758558I249999J0D01*
G01*
X174816810Y22758558D01*
G75*
G02*
X175066809Y22508559I0J-249999D01*
G01*
X175066809Y21608557D01*
G75*
G02*
X174816810Y21358558I-249999J0D01*
G01*
X174166808Y21358558D01*
G75*
G02*
X173916809Y21608557I0J249999D01*
G01*
G37*
%TD*%
%TO.C,C16*%
G36*
G01*
X45436809Y78598557D02*
X45436809Y79498559D01*
G75*
G02*
X45686808Y79748558I249999J0D01*
G01*
X46336810Y79748558D01*
G75*
G02*
X46586809Y79498559I0J-249999D01*
G01*
X46586809Y78598557D01*
G75*
G02*
X46336810Y78348558I-249999J0D01*
G01*
X45686808Y78348558D01*
G75*
G02*
X45436809Y78598557I0J249999D01*
G01*
G37*
G36*
G01*
X43386809Y78598557D02*
X43386809Y79498559D01*
G75*
G02*
X43636808Y79748558I249999J0D01*
G01*
X44286810Y79748558D01*
G75*
G02*
X44536809Y79498559I0J-249999D01*
G01*
X44536809Y78598557D01*
G75*
G02*
X44286810Y78348558I-249999J0D01*
G01*
X43636808Y78348558D01*
G75*
G02*
X43386809Y78598557I0J249999D01*
G01*
G37*
%TD*%
%TO.C,C15*%
G36*
G01*
X217461809Y128448557D02*
X217461809Y129348559D01*
G75*
G02*
X217711808Y129598558I249999J0D01*
G01*
X218361810Y129598558D01*
G75*
G02*
X218611809Y129348559I0J-249999D01*
G01*
X218611809Y128448557D01*
G75*
G02*
X218361810Y128198558I-249999J0D01*
G01*
X217711808Y128198558D01*
G75*
G02*
X217461809Y128448557I0J249999D01*
G01*
G37*
G36*
G01*
X215411809Y128448557D02*
X215411809Y129348559D01*
G75*
G02*
X215661808Y129598558I249999J0D01*
G01*
X216311810Y129598558D01*
G75*
G02*
X216561809Y129348559I0J-249999D01*
G01*
X216561809Y128448557D01*
G75*
G02*
X216311810Y128198558I-249999J0D01*
G01*
X215661808Y128198558D01*
G75*
G02*
X215411809Y128448557I0J249999D01*
G01*
G37*
%TD*%
%TO.C,C14*%
G36*
G01*
X303086809Y40068557D02*
X303086809Y40968559D01*
G75*
G02*
X303336808Y41218558I249999J0D01*
G01*
X303986810Y41218558D01*
G75*
G02*
X304236809Y40968559I0J-249999D01*
G01*
X304236809Y40068557D01*
G75*
G02*
X303986810Y39818558I-249999J0D01*
G01*
X303336808Y39818558D01*
G75*
G02*
X303086809Y40068557I0J249999D01*
G01*
G37*
G36*
G01*
X301036809Y40068557D02*
X301036809Y40968559D01*
G75*
G02*
X301286808Y41218558I249999J0D01*
G01*
X301936810Y41218558D01*
G75*
G02*
X302186809Y40968559I0J-249999D01*
G01*
X302186809Y40068557D01*
G75*
G02*
X301936810Y39818558I-249999J0D01*
G01*
X301286808Y39818558D01*
G75*
G02*
X301036809Y40068557I0J249999D01*
G01*
G37*
%TD*%
%TO.C,C13*%
G36*
G01*
X119596809Y128628557D02*
X119596809Y129528559D01*
G75*
G02*
X119846808Y129778558I249999J0D01*
G01*
X120496810Y129778558D01*
G75*
G02*
X120746809Y129528559I0J-249999D01*
G01*
X120746809Y128628557D01*
G75*
G02*
X120496810Y128378558I-249999J0D01*
G01*
X119846808Y128378558D01*
G75*
G02*
X119596809Y128628557I0J249999D01*
G01*
G37*
G36*
G01*
X117546809Y128628557D02*
X117546809Y129528559D01*
G75*
G02*
X117796808Y129778558I249999J0D01*
G01*
X118446810Y129778558D01*
G75*
G02*
X118696809Y129528559I0J-249999D01*
G01*
X118696809Y128628557D01*
G75*
G02*
X118446810Y128378558I-249999J0D01*
G01*
X117796808Y128378558D01*
G75*
G02*
X117546809Y128628557I0J249999D01*
G01*
G37*
%TD*%
%TO.C,C12*%
G36*
G01*
X356866809Y82048557D02*
X356866809Y82948559D01*
G75*
G02*
X357116808Y83198558I249999J0D01*
G01*
X357766810Y83198558D01*
G75*
G02*
X358016809Y82948559I0J-249999D01*
G01*
X358016809Y82048557D01*
G75*
G02*
X357766810Y81798558I-249999J0D01*
G01*
X357116808Y81798558D01*
G75*
G02*
X356866809Y82048557I0J249999D01*
G01*
G37*
G36*
G01*
X354816809Y82048557D02*
X354816809Y82948559D01*
G75*
G02*
X355066808Y83198558I249999J0D01*
G01*
X355716810Y83198558D01*
G75*
G02*
X355966809Y82948559I0J-249999D01*
G01*
X355966809Y82048557D01*
G75*
G02*
X355716810Y81798558I-249999J0D01*
G01*
X355066808Y81798558D01*
G75*
G02*
X354816809Y82048557I0J249999D01*
G01*
G37*
%TD*%
%TO.C,C11*%
G36*
G01*
X35376809Y51298557D02*
X35376809Y52198559D01*
G75*
G02*
X35626808Y52448558I249999J0D01*
G01*
X36276810Y52448558D01*
G75*
G02*
X36526809Y52198559I0J-249999D01*
G01*
X36526809Y51298557D01*
G75*
G02*
X36276810Y51048558I-249999J0D01*
G01*
X35626808Y51048558D01*
G75*
G02*
X35376809Y51298557I0J249999D01*
G01*
G37*
G36*
G01*
X33326809Y51298557D02*
X33326809Y52198559D01*
G75*
G02*
X33576808Y52448558I249999J0D01*
G01*
X34226810Y52448558D01*
G75*
G02*
X34476809Y52198559I0J-249999D01*
G01*
X34476809Y51298557D01*
G75*
G02*
X34226810Y51048558I-249999J0D01*
G01*
X33576808Y51048558D01*
G75*
G02*
X33326809Y51298557I0J249999D01*
G01*
G37*
%TD*%
%TO.C,C10*%
G36*
G01*
X89416809Y41298557D02*
X89416809Y42198559D01*
G75*
G02*
X89666808Y42448558I249999J0D01*
G01*
X90316810Y42448558D01*
G75*
G02*
X90566809Y42198559I0J-249999D01*
G01*
X90566809Y41298557D01*
G75*
G02*
X90316810Y41048558I-249999J0D01*
G01*
X89666808Y41048558D01*
G75*
G02*
X89416809Y41298557I0J249999D01*
G01*
G37*
G36*
G01*
X87366809Y41298557D02*
X87366809Y42198559D01*
G75*
G02*
X87616808Y42448558I249999J0D01*
G01*
X88266810Y42448558D01*
G75*
G02*
X88516809Y42198559I0J-249999D01*
G01*
X88516809Y41298557D01*
G75*
G02*
X88266810Y41048558I-249999J0D01*
G01*
X87616808Y41048558D01*
G75*
G02*
X87366809Y41298557I0J249999D01*
G01*
G37*
%TD*%
%TO.C,C9*%
G36*
G01*
X272856809Y36048557D02*
X272856809Y36948559D01*
G75*
G02*
X273106808Y37198558I249999J0D01*
G01*
X273756810Y37198558D01*
G75*
G02*
X274006809Y36948559I0J-249999D01*
G01*
X274006809Y36048557D01*
G75*
G02*
X273756810Y35798558I-249999J0D01*
G01*
X273106808Y35798558D01*
G75*
G02*
X272856809Y36048557I0J249999D01*
G01*
G37*
G36*
G01*
X270806809Y36048557D02*
X270806809Y36948559D01*
G75*
G02*
X271056808Y37198558I249999J0D01*
G01*
X271706810Y37198558D01*
G75*
G02*
X271956809Y36948559I0J-249999D01*
G01*
X271956809Y36048557D01*
G75*
G02*
X271706810Y35798558I-249999J0D01*
G01*
X271056808Y35798558D01*
G75*
G02*
X270806809Y36048557I0J249999D01*
G01*
G37*
%TD*%
%TO.C,C8*%
G36*
G01*
X357051809Y39508557D02*
X357051809Y40408559D01*
G75*
G02*
X357301808Y40658558I249999J0D01*
G01*
X357951810Y40658558D01*
G75*
G02*
X358201809Y40408559I0J-249999D01*
G01*
X358201809Y39508557D01*
G75*
G02*
X357951810Y39258558I-249999J0D01*
G01*
X357301808Y39258558D01*
G75*
G02*
X357051809Y39508557I0J249999D01*
G01*
G37*
G36*
G01*
X355001809Y39508557D02*
X355001809Y40408559D01*
G75*
G02*
X355251808Y40658558I249999J0D01*
G01*
X355901810Y40658558D01*
G75*
G02*
X356151809Y40408559I0J-249999D01*
G01*
X356151809Y39508557D01*
G75*
G02*
X355901810Y39258558I-249999J0D01*
G01*
X355251808Y39258558D01*
G75*
G02*
X355001809Y39508557I0J249999D01*
G01*
G37*
%TD*%
%TO.C,C7*%
G36*
G01*
X164606809Y128708557D02*
X164606809Y129608559D01*
G75*
G02*
X164856808Y129858558I249999J0D01*
G01*
X165506810Y129858558D01*
G75*
G02*
X165756809Y129608559I0J-249999D01*
G01*
X165756809Y128708557D01*
G75*
G02*
X165506810Y128458558I-249999J0D01*
G01*
X164856808Y128458558D01*
G75*
G02*
X164606809Y128708557I0J249999D01*
G01*
G37*
G36*
G01*
X162556809Y128708557D02*
X162556809Y129608559D01*
G75*
G02*
X162806808Y129858558I249999J0D01*
G01*
X163456810Y129858558D01*
G75*
G02*
X163706809Y129608559I0J-249999D01*
G01*
X163706809Y128708557D01*
G75*
G02*
X163456810Y128458558I-249999J0D01*
G01*
X162806808Y128458558D01*
G75*
G02*
X162556809Y128708557I0J249999D01*
G01*
G37*
%TD*%
%TO.C,C6*%
G36*
G01*
X317816809Y130698557D02*
X317816809Y131598559D01*
G75*
G02*
X318066808Y131848558I249999J0D01*
G01*
X318716810Y131848558D01*
G75*
G02*
X318966809Y131598559I0J-249999D01*
G01*
X318966809Y130698557D01*
G75*
G02*
X318716810Y130448558I-249999J0D01*
G01*
X318066808Y130448558D01*
G75*
G02*
X317816809Y130698557I0J249999D01*
G01*
G37*
G36*
G01*
X315766809Y130698557D02*
X315766809Y131598559D01*
G75*
G02*
X316016808Y131848558I249999J0D01*
G01*
X316666810Y131848558D01*
G75*
G02*
X316916809Y131598559I0J-249999D01*
G01*
X316916809Y130698557D01*
G75*
G02*
X316666810Y130448558I-249999J0D01*
G01*
X316016808Y130448558D01*
G75*
G02*
X315766809Y130698557I0J249999D01*
G01*
G37*
%TD*%
%TO.C,C5*%
G36*
G01*
X27951809Y117408557D02*
X27951809Y118308559D01*
G75*
G02*
X28201808Y118558558I249999J0D01*
G01*
X28851810Y118558558D01*
G75*
G02*
X29101809Y118308559I0J-249999D01*
G01*
X29101809Y117408557D01*
G75*
G02*
X28851810Y117158558I-249999J0D01*
G01*
X28201808Y117158558D01*
G75*
G02*
X27951809Y117408557I0J249999D01*
G01*
G37*
G36*
G01*
X25901809Y117408557D02*
X25901809Y118308559D01*
G75*
G02*
X26151808Y118558558I249999J0D01*
G01*
X26801810Y118558558D01*
G75*
G02*
X27051809Y118308559I0J-249999D01*
G01*
X27051809Y117408557D01*
G75*
G02*
X26801810Y117158558I-249999J0D01*
G01*
X26151808Y117158558D01*
G75*
G02*
X25901809Y117408557I0J249999D01*
G01*
G37*
%TD*%
%TO.C,C4*%
G36*
G01*
X80726809Y115148557D02*
X80726809Y116048559D01*
G75*
G02*
X80976808Y116298558I249999J0D01*
G01*
X81626810Y116298558D01*
G75*
G02*
X81876809Y116048559I0J-249999D01*
G01*
X81876809Y115148557D01*
G75*
G02*
X81626810Y114898558I-249999J0D01*
G01*
X80976808Y114898558D01*
G75*
G02*
X80726809Y115148557I0J249999D01*
G01*
G37*
G36*
G01*
X78676809Y115148557D02*
X78676809Y116048559D01*
G75*
G02*
X78926808Y116298558I249999J0D01*
G01*
X79576810Y116298558D01*
G75*
G02*
X79826809Y116048559I0J-249999D01*
G01*
X79826809Y115148557D01*
G75*
G02*
X79576810Y114898558I-249999J0D01*
G01*
X78926808Y114898558D01*
G75*
G02*
X78676809Y115148557I0J249999D01*
G01*
G37*
%TD*%
%TO.C,C3*%
G36*
G01*
X224926809Y30998557D02*
X224926809Y31898559D01*
G75*
G02*
X225176808Y32148558I249999J0D01*
G01*
X225826810Y32148558D01*
G75*
G02*
X226076809Y31898559I0J-249999D01*
G01*
X226076809Y30998557D01*
G75*
G02*
X225826810Y30748558I-249999J0D01*
G01*
X225176808Y30748558D01*
G75*
G02*
X224926809Y30998557I0J249999D01*
G01*
G37*
G36*
G01*
X222876809Y30998557D02*
X222876809Y31898559D01*
G75*
G02*
X223126808Y32148558I249999J0D01*
G01*
X223776810Y32148558D01*
G75*
G02*
X224026809Y31898559I0J-249999D01*
G01*
X224026809Y30998557D01*
G75*
G02*
X223776810Y30748558I-249999J0D01*
G01*
X223126808Y30748558D01*
G75*
G02*
X222876809Y30998557I0J249999D01*
G01*
G37*
%TD*%
%TO.C,C2*%
G36*
G01*
X257046809Y129088557D02*
X257046809Y129988559D01*
G75*
G02*
X257296808Y130238558I249999J0D01*
G01*
X257946810Y130238558D01*
G75*
G02*
X258196809Y129988559I0J-249999D01*
G01*
X258196809Y129088557D01*
G75*
G02*
X257946810Y128838558I-249999J0D01*
G01*
X257296808Y128838558D01*
G75*
G02*
X257046809Y129088557I0J249999D01*
G01*
G37*
G36*
G01*
X254996809Y129088557D02*
X254996809Y129988559D01*
G75*
G02*
X255246808Y130238558I249999J0D01*
G01*
X255896810Y130238558D01*
G75*
G02*
X256146809Y129988559I0J-249999D01*
G01*
X256146809Y129088557D01*
G75*
G02*
X255896810Y128838558I-249999J0D01*
G01*
X255246808Y128838558D01*
G75*
G02*
X254996809Y129088557I0J249999D01*
G01*
G37*
%TD*%
%TO.C,C1*%
G36*
G01*
X355236809Y119678557D02*
X355236809Y120578559D01*
G75*
G02*
X355486808Y120828558I249999J0D01*
G01*
X356136810Y120828558D01*
G75*
G02*
X356386809Y120578559I0J-249999D01*
G01*
X356386809Y119678557D01*
G75*
G02*
X356136810Y119428558I-249999J0D01*
G01*
X355486808Y119428558D01*
G75*
G02*
X355236809Y119678557I0J249999D01*
G01*
G37*
G36*
G01*
X353186809Y119678557D02*
X353186809Y120578559D01*
G75*
G02*
X353436808Y120828558I249999J0D01*
G01*
X354086810Y120828558D01*
G75*
G02*
X354336809Y120578559I0J-249999D01*
G01*
X354336809Y119678557D01*
G75*
G02*
X354086810Y119428558I-249999J0D01*
G01*
X353436808Y119428558D01*
G75*
G02*
X353186809Y119678557I0J249999D01*
G01*
G37*
%TD*%
D30*
%TO.C,SW10*%
G36*
X246813995Y122128679D02*
G01*
X246294216Y124574048D01*
X248788493Y125104223D01*
X249308272Y122658854D01*
X246813995Y122128679D01*
G37*
G36*
X234697577Y116956510D02*
G01*
X234177798Y119401879D01*
X236672075Y119932054D01*
X237191854Y117486685D01*
X234697577Y116956510D01*
G37*
D31*
X248112087Y118489032D03*
X238174107Y116376650D03*
D32*
X238888259Y119125192D03*
D33*
X243143097Y117432841D03*
D32*
X244571401Y122929927D03*
%TD*%
D30*
%TO.C,SW9*%
G36*
X228180283Y118167961D02*
G01*
X227660504Y120613330D01*
X230154781Y121143505D01*
X230674560Y118698136D01*
X228180283Y118167961D01*
G37*
G36*
X216063865Y112995792D02*
G01*
X215544086Y115441161D01*
X218038363Y115971336D01*
X218558142Y113525967D01*
X216063865Y112995792D01*
G37*
D31*
X229478375Y114528314D03*
X219540395Y112415932D03*
D32*
X220254547Y115164474D03*
D33*
X224509385Y113472123D03*
D32*
X225937689Y118969209D03*
%TD*%
D34*
%TO.C,SW65*%
X349014409Y50065558D03*
X336087409Y47525558D03*
D31*
X348252409Y44985558D03*
X338092409Y44985558D03*
D32*
X339362409Y47525558D03*
D33*
X343172409Y44985558D03*
D32*
X345712409Y50065558D03*
%TD*%
D30*
%TO.C,SW62_2*%
G36*
X170363307Y27276785D02*
G01*
X169843528Y24831416D01*
X167349251Y25361591D01*
X167869030Y27806960D01*
X170363307Y27276785D01*
G37*
G36*
X183535917Y27073606D02*
G01*
X183016138Y24628237D01*
X180521861Y25158412D01*
X181041640Y27603781D01*
X183535917Y27073606D01*
G37*
D31*
X170657819Y31129749D03*
X180595799Y29017367D03*
D32*
X178825456Y26796920D03*
D33*
X175626809Y30073558D03*
D32*
X172086123Y25632664D03*
%TD*%
D33*
%TO.C,SW55_2*%
X323008809Y55828558D03*
X346884809Y55828558D03*
D35*
X323008809Y71068558D03*
X346884809Y71068558D03*
D34*
X340788809Y69163558D03*
X327861809Y66623558D03*
D31*
X340026809Y64083558D03*
X329866809Y64083558D03*
D32*
X331136809Y66623558D03*
D33*
X334946809Y64083558D03*
D32*
X337486809Y69163558D03*
%TD*%
D33*
%TO.C,SW61_2*%
X158700246Y42106117D03*
X135345994Y47070216D03*
D35*
X155531672Y27199147D03*
X132177420Y32163247D03*
D30*
G36*
X140043307Y33716785D02*
G01*
X139523528Y31271416D01*
X137029251Y31801591D01*
X137549030Y34246960D01*
X140043307Y33716785D01*
G37*
G36*
X153215917Y33513606D02*
G01*
X152696138Y31068237D01*
X150201861Y31598412D01*
X150721640Y34043781D01*
X153215917Y33513606D01*
G37*
D31*
X140337819Y37569749D03*
X150275799Y35457367D03*
D32*
X148505456Y33236920D03*
D33*
X145306809Y36513558D03*
D32*
X141766123Y32072664D03*
%TD*%
D34*
%TO.C,SW30_2*%
X51938559Y78053558D03*
X64865559Y80593558D03*
D31*
X52700559Y83133558D03*
X62860559Y83133558D03*
D32*
X61590559Y80593558D03*
D33*
X57780559Y83133558D03*
D32*
X55240559Y78053558D03*
%TD*%
D34*
%TO.C,SW14_2*%
X314114809Y116153558D03*
X327041809Y118693558D03*
D31*
X314876809Y121233558D03*
X325036809Y121233558D03*
D32*
X323766809Y118693558D03*
D33*
X319956809Y121233558D03*
D32*
X317416809Y116153558D03*
%TD*%
D34*
%TO.C,SW66*%
X333164809Y116153558D03*
X346091809Y118693558D03*
D31*
X333926809Y121233558D03*
X344086809Y121233558D03*
D32*
X342816809Y118693558D03*
D33*
X339006809Y121233558D03*
D32*
X336466809Y116153558D03*
%TD*%
D33*
%TO.C,SW42*%
X323605059Y91388558D03*
X347481059Y91388558D03*
D35*
X323605059Y76148558D03*
X347481059Y76148558D03*
D34*
X341385059Y88213558D03*
X328458059Y85673558D03*
D31*
X340623059Y83133558D03*
X330463059Y83133558D03*
D32*
X331733059Y85673558D03*
D33*
X335543059Y83133558D03*
D32*
X338083059Y88213558D03*
%TD*%
D34*
%TO.C,SW15*%
X70066309Y107263558D03*
X57139309Y104723558D03*
D31*
X69304309Y102183558D03*
X59144309Y102183558D03*
D32*
X60414309Y104723558D03*
D33*
X64224309Y102183558D03*
D32*
X66764309Y107263558D03*
%TD*%
D36*
%TO.C,SW_57_2*%
X38946809Y111323558D03*
X33946809Y111323558D03*
D37*
X42046809Y104323558D03*
X30846809Y104323558D03*
D36*
X38946809Y96823558D03*
X36446809Y96823558D03*
D38*
X33946809Y96823558D03*
%TD*%
D36*
%TO.C,SW58_2*%
X34876809Y92273558D03*
X29876809Y92273558D03*
D37*
X37976809Y85273558D03*
X26776809Y85273558D03*
D36*
X34876809Y77773558D03*
X32376809Y77773558D03*
D38*
X29876809Y77773558D03*
%TD*%
D36*
%TO.C,SW29_2*%
X43106809Y130373558D03*
X38106809Y130373558D03*
D37*
X46206809Y123373558D03*
X35006809Y123373558D03*
D36*
X43106809Y115873558D03*
X40606809Y115873558D03*
D38*
X38106809Y115873558D03*
%TD*%
D30*
%TO.C,SW64*%
G36*
X268157707Y47229396D02*
G01*
X267637928Y49674765D01*
X270132205Y50204940D01*
X270651984Y47759571D01*
X268157707Y47229396D01*
G37*
G36*
X256041289Y42057227D02*
G01*
X255521510Y44502596D01*
X258015787Y45032771D01*
X258535566Y42587402D01*
X256041289Y42057227D01*
G37*
D31*
X269455799Y43589749D03*
X259517819Y41477367D03*
D32*
X260231971Y44225909D03*
D33*
X264486809Y42533558D03*
D32*
X265915113Y48030644D03*
%TD*%
D33*
%TO.C,SW63*%
X210683372Y41066117D03*
X234037624Y46030216D03*
D35*
X213851946Y26159147D03*
X237206198Y31123247D03*
D30*
G36*
X227747707Y40169396D02*
G01*
X227227928Y42614765D01*
X229722205Y43144940D01*
X230241984Y40699571D01*
X227747707Y40169396D01*
G37*
G36*
X215631289Y34997227D02*
G01*
X215111510Y37442596D01*
X217605787Y37972771D01*
X218125566Y35527402D01*
X215631289Y34997227D01*
G37*
D31*
X229045799Y36529749D03*
X219107819Y34417367D03*
D32*
X219821971Y37165909D03*
D33*
X224076809Y35473558D03*
D32*
X225505113Y40970644D03*
%TD*%
D30*
%TO.C,SW62*%
G36*
X178575331Y33362396D02*
G01*
X179095110Y35807765D01*
X181589387Y35277590D01*
X181069608Y32832221D01*
X178575331Y33362396D01*
G37*
G36*
X165402721Y33565575D02*
G01*
X165922500Y36010944D01*
X168416777Y35480769D01*
X167896998Y33035400D01*
X165402721Y33565575D01*
G37*
D31*
X178280819Y29509432D03*
X168342839Y31621814D03*
D32*
X170113182Y33842261D03*
D33*
X173311829Y30565623D03*
D32*
X176852515Y35006517D03*
%TD*%
D33*
%TO.C,SW61*%
X133054553Y47561992D03*
X156408805Y42597893D03*
D35*
X129885979Y32655023D03*
X153240231Y27690923D03*
D30*
G36*
X148278870Y39802107D02*
G01*
X148798649Y42247476D01*
X151292926Y41717301D01*
X150773147Y39271932D01*
X148278870Y39802107D01*
G37*
G36*
X135106260Y40005286D02*
G01*
X135626039Y42450655D01*
X138120316Y41920480D01*
X137600537Y39475111D01*
X135106260Y40005286D01*
G37*
D31*
X147984358Y35949143D03*
X138046378Y38061525D03*
D32*
X139816721Y40281972D03*
D33*
X143015368Y37005334D03*
D32*
X146556054Y41446228D03*
%TD*%
D30*
%TO.C,SW60*%
G36*
X115040311Y45330331D02*
G01*
X115560090Y47775700D01*
X118054367Y47245525D01*
X117534588Y44800156D01*
X115040311Y45330331D01*
G37*
G36*
X101867701Y45533510D02*
G01*
X102387480Y47978879D01*
X104881757Y47448704D01*
X104361978Y45003335D01*
X101867701Y45533510D01*
G37*
D31*
X114745799Y41477367D03*
X104807819Y43589749D03*
D32*
X106578162Y45810196D03*
D33*
X109776809Y42533558D03*
D32*
X113317495Y46974452D03*
%TD*%
D34*
%TO.C,SW59*%
X61838809Y50113558D03*
X48911809Y47573558D03*
D31*
X61076809Y45033558D03*
X50916809Y45033558D03*
D32*
X52186809Y47573558D03*
D33*
X55996809Y45033558D03*
D32*
X58536809Y50113558D03*
%TD*%
D34*
%TO.C,SW58*%
X38218809Y90353558D03*
X25291809Y87813558D03*
D31*
X37456809Y85273558D03*
X27296809Y85273558D03*
D32*
X28566809Y87813558D03*
D33*
X32376809Y85273558D03*
D32*
X34916809Y90353558D03*
%TD*%
D34*
%TO.C,SW57*%
X42288809Y109403558D03*
X29361809Y106863558D03*
D31*
X41526809Y104323558D03*
X31366809Y104323558D03*
D32*
X32636809Y106863558D03*
D33*
X36446809Y104323558D03*
D32*
X38986809Y109403558D03*
%TD*%
D34*
%TO.C,SW56*%
X357456309Y69163558D03*
X344529309Y66623558D03*
D31*
X356694309Y64083558D03*
X346534309Y64083558D03*
D32*
X347804309Y66623558D03*
D33*
X351614309Y64083558D03*
D32*
X354154309Y69163558D03*
%TD*%
D34*
%TO.C,SW55*%
X331262559Y69163558D03*
X318335559Y66623558D03*
D31*
X330500559Y64083558D03*
X320340559Y64083558D03*
D32*
X321610559Y66623558D03*
D33*
X325420559Y64083558D03*
D32*
X327960559Y69163558D03*
%TD*%
D34*
%TO.C,SW54*%
X305068809Y69163558D03*
X292141809Y66623558D03*
D31*
X304306809Y64083558D03*
X294146809Y64083558D03*
D32*
X295416809Y66623558D03*
D33*
X299226809Y64083558D03*
D32*
X301766809Y69163558D03*
%TD*%
D34*
%TO.C,SW53*%
X286018809Y69163558D03*
X273091809Y66623558D03*
D31*
X285256809Y64083558D03*
X275096809Y64083558D03*
D32*
X276366809Y66623558D03*
D33*
X280176809Y64083558D03*
D32*
X282716809Y69163558D03*
%TD*%
D30*
%TO.C,SW52*%
G36*
X263347707Y67219396D02*
G01*
X262827928Y69664765D01*
X265322205Y70194940D01*
X265841984Y67749571D01*
X263347707Y67219396D01*
G37*
G36*
X251231289Y62047227D02*
G01*
X250711510Y64492596D01*
X253205787Y65022771D01*
X253725566Y62577402D01*
X251231289Y62047227D01*
G37*
D31*
X264645799Y63579749D03*
X254707819Y61467367D03*
D32*
X255421971Y64215909D03*
D33*
X259676809Y62523558D03*
D32*
X261105113Y68020644D03*
%TD*%
D30*
%TO.C,SW51*%
G36*
X244713995Y63258679D02*
G01*
X244194216Y65704048D01*
X246688493Y66234223D01*
X247208272Y63788854D01*
X244713995Y63258679D01*
G37*
G36*
X232597577Y58086510D02*
G01*
X232077798Y60531879D01*
X234572075Y61062054D01*
X235091854Y58616685D01*
X232597577Y58086510D01*
G37*
D31*
X246012087Y59619032D03*
X236074107Y57506650D03*
D32*
X236788259Y60255192D03*
D33*
X241043097Y58562841D03*
D32*
X242471401Y64059927D03*
%TD*%
D30*
%TO.C,SW50*%
G36*
X226080283Y59297961D02*
G01*
X225560504Y61743330D01*
X228054781Y62273505D01*
X228574560Y59828136D01*
X226080283Y59297961D01*
G37*
G36*
X213963865Y54125792D02*
G01*
X213444086Y56571161D01*
X215938363Y57101336D01*
X216458142Y54655967D01*
X213963865Y54125792D01*
G37*
D31*
X227378375Y55658314D03*
X217440395Y53545932D03*
D32*
X218154547Y56294474D03*
D33*
X222409385Y54602123D03*
D32*
X223837689Y60099209D03*
%TD*%
D30*
%TO.C,SW49*%
G36*
X207446571Y55337243D02*
G01*
X206926792Y57782612D01*
X209421069Y58312787D01*
X209940848Y55867418D01*
X207446571Y55337243D01*
G37*
G36*
X195330153Y50165074D02*
G01*
X194810374Y52610443D01*
X197304651Y53140618D01*
X197824430Y50695249D01*
X195330153Y50165074D01*
G37*
D31*
X208744663Y51697596D03*
X198806683Y49585214D03*
D32*
X199520835Y52333756D03*
D33*
X203775673Y50641405D03*
D32*
X205203977Y56138491D03*
%TD*%
D30*
%TO.C,SW48*%
G36*
X175751446Y53438178D02*
G01*
X176271225Y55883547D01*
X178765502Y55353372D01*
X178245723Y52908003D01*
X175751446Y53438178D01*
G37*
G36*
X162578836Y53641357D02*
G01*
X163098615Y56086726D01*
X165592892Y55556551D01*
X165073113Y53111182D01*
X162578836Y53641357D01*
G37*
D31*
X175456934Y49585214D03*
X165518954Y51697596D03*
D32*
X167289297Y53918043D03*
D33*
X170487944Y50641405D03*
D32*
X174028630Y55082299D03*
%TD*%
D30*
%TO.C,SW47*%
G36*
X157117734Y57398896D02*
G01*
X157637513Y59844265D01*
X160131790Y59314090D01*
X159612011Y56868721D01*
X157117734Y57398896D01*
G37*
G36*
X143945124Y57602075D02*
G01*
X144464903Y60047444D01*
X146959180Y59517269D01*
X146439401Y57071900D01*
X143945124Y57602075D01*
G37*
D31*
X156823222Y53545932D03*
X146885242Y55658314D03*
D32*
X148655585Y57878761D03*
D33*
X151854232Y54602123D03*
D32*
X155394918Y59043017D03*
%TD*%
D30*
%TO.C,SW46*%
G36*
X138484023Y61359614D02*
G01*
X139003802Y63804983D01*
X141498079Y63274808D01*
X140978300Y60829439D01*
X138484023Y61359614D01*
G37*
G36*
X125311413Y61562793D02*
G01*
X125831192Y64008162D01*
X128325469Y63477987D01*
X127805690Y61032618D01*
X125311413Y61562793D01*
G37*
D31*
X138189511Y57506650D03*
X128251531Y59619032D03*
D32*
X130021874Y61839479D03*
D33*
X133220521Y58562841D03*
D32*
X136761207Y63003735D03*
%TD*%
D30*
%TO.C,SW45*%
G36*
X119850311Y65320331D02*
G01*
X120370090Y67765700D01*
X122864367Y67235525D01*
X122344588Y64790156D01*
X119850311Y65320331D01*
G37*
G36*
X106677701Y65523510D02*
G01*
X107197480Y67968879D01*
X109691757Y67438704D01*
X109171978Y64993335D01*
X106677701Y65523510D01*
G37*
D31*
X119555799Y61467367D03*
X109617819Y63579749D03*
D32*
X111388162Y65800196D03*
D33*
X114586809Y62523558D03*
D32*
X118127495Y66964452D03*
%TD*%
D34*
%TO.C,SW44*%
X99928809Y69163558D03*
X87001809Y66623558D03*
D31*
X99166809Y64083558D03*
X89006809Y64083558D03*
D32*
X90276809Y66623558D03*
D33*
X94086809Y64083558D03*
D32*
X96626809Y69163558D03*
%TD*%
D33*
%TO.C,SW43*%
X51192559Y55828558D03*
X75068559Y55828558D03*
D35*
X51192559Y71068558D03*
X75068559Y71068558D03*
D34*
X68972559Y69163558D03*
X56045559Y66623558D03*
D31*
X68210559Y64083558D03*
X58050559Y64083558D03*
D32*
X59320559Y66623558D03*
D33*
X63130559Y64083558D03*
D32*
X65670559Y69163558D03*
%TD*%
D34*
%TO.C,SW41*%
X310428809Y88213558D03*
X297501809Y85673558D03*
D31*
X309666809Y83133558D03*
X299506809Y83133558D03*
D32*
X300776809Y85673558D03*
D33*
X304586809Y83133558D03*
D32*
X307126809Y88213558D03*
%TD*%
D34*
%TO.C,SW40*%
X291378809Y88213558D03*
X278451809Y85673558D03*
D31*
X290616809Y83133558D03*
X280456809Y83133558D03*
D32*
X281726809Y85673558D03*
D33*
X285536809Y83133558D03*
D32*
X288076809Y88213558D03*
%TD*%
D30*
%TO.C,SW39*%
G36*
X268707707Y87829396D02*
G01*
X268187928Y90274765D01*
X270682205Y90804940D01*
X271201984Y88359571D01*
X268707707Y87829396D01*
G37*
G36*
X256591289Y82657227D02*
G01*
X256071510Y85102596D01*
X258565787Y85632771D01*
X259085566Y83187402D01*
X256591289Y82657227D01*
G37*
D31*
X270005799Y84189749D03*
X260067819Y82077367D03*
D32*
X260781971Y84825909D03*
D33*
X265036809Y83133558D03*
D32*
X266465113Y88630644D03*
%TD*%
D30*
%TO.C,SW38*%
G36*
X250073995Y83868679D02*
G01*
X249554216Y86314048D01*
X252048493Y86844223D01*
X252568272Y84398854D01*
X250073995Y83868679D01*
G37*
G36*
X237957577Y78696510D02*
G01*
X237437798Y81141879D01*
X239932075Y81672054D01*
X240451854Y79226685D01*
X237957577Y78696510D01*
G37*
D31*
X251372087Y80229032D03*
X241434107Y78116650D03*
D32*
X242148259Y80865192D03*
D33*
X246403097Y79172841D03*
D32*
X247831401Y84669927D03*
%TD*%
D30*
%TO.C,SW37*%
G36*
X231440283Y79907961D02*
G01*
X230920504Y82353330D01*
X233414781Y82883505D01*
X233934560Y80438136D01*
X231440283Y79907961D01*
G37*
G36*
X219323865Y74735792D02*
G01*
X218804086Y77181161D01*
X221298363Y77711336D01*
X221818142Y75265967D01*
X219323865Y74735792D01*
G37*
D31*
X232738375Y76268314D03*
X222800395Y74155932D03*
D32*
X223514547Y76904474D03*
D33*
X227769385Y75212123D03*
D32*
X229197689Y80709209D03*
%TD*%
D30*
%TO.C,SW36*%
G36*
X212552707Y75681896D02*
G01*
X212032928Y78127265D01*
X214527205Y78657440D01*
X215046984Y76212071D01*
X212552707Y75681896D01*
G37*
G36*
X200436289Y70509727D02*
G01*
X199916510Y72955096D01*
X202410787Y73485271D01*
X202930566Y71039902D01*
X200436289Y70509727D01*
G37*
D31*
X213850799Y72042249D03*
X203912819Y69929867D03*
D32*
X204626971Y72678409D03*
D33*
X208881809Y70986058D03*
D32*
X210310113Y76483144D03*
%TD*%
D30*
%TO.C,SW35*%
G36*
X170401446Y74048178D02*
G01*
X170921225Y76493547D01*
X173415502Y75963372D01*
X172895723Y73518003D01*
X170401446Y74048178D01*
G37*
G36*
X157228836Y74251357D02*
G01*
X157748615Y76696726D01*
X160242892Y76166551D01*
X159723113Y73721182D01*
X157228836Y74251357D01*
G37*
D31*
X170106934Y70195214D03*
X160168954Y72307596D03*
D32*
X161939297Y74528043D03*
D33*
X165137944Y71251405D03*
D32*
X168678630Y75692299D03*
%TD*%
D30*
%TO.C,SW34*%
G36*
X151767734Y78008896D02*
G01*
X152287513Y80454265D01*
X154781790Y79924090D01*
X154262011Y77478721D01*
X151767734Y78008896D01*
G37*
G36*
X138595124Y78212075D02*
G01*
X139114903Y80657444D01*
X141609180Y80127269D01*
X141089401Y77681900D01*
X138595124Y78212075D01*
G37*
D31*
X151473222Y74155932D03*
X141535242Y76268314D03*
D32*
X143305585Y78488761D03*
D33*
X146504232Y75212123D03*
D32*
X150044918Y79653017D03*
%TD*%
D30*
%TO.C,SW33*%
G36*
X133134023Y81969614D02*
G01*
X133653802Y84414983D01*
X136148079Y83884808D01*
X135628300Y81439439D01*
X133134023Y81969614D01*
G37*
G36*
X119961413Y82172793D02*
G01*
X120481192Y84618162D01*
X122975469Y84087987D01*
X122455690Y81642618D01*
X119961413Y82172793D01*
G37*
D31*
X132839511Y78116650D03*
X122901531Y80229032D03*
D32*
X124671874Y82449479D03*
D33*
X127870521Y79172841D03*
D32*
X131411207Y83613735D03*
%TD*%
D30*
%TO.C,SW32*%
G36*
X114500311Y85930331D02*
G01*
X115020090Y88375700D01*
X117514367Y87845525D01*
X116994588Y85400156D01*
X114500311Y85930331D01*
G37*
G36*
X101327701Y86133510D02*
G01*
X101847480Y88578879D01*
X104341757Y88048704D01*
X103821978Y85603335D01*
X101327701Y86133510D01*
G37*
D31*
X114205799Y82077367D03*
X104267819Y84189749D03*
D32*
X106038162Y86410196D03*
D33*
X109236809Y83133558D03*
D32*
X112777495Y87574452D03*
%TD*%
D34*
%TO.C,SW31*%
X94578809Y88213558D03*
X81651809Y85673558D03*
D31*
X93816809Y83133558D03*
X83656809Y83133558D03*
D32*
X84926809Y85673558D03*
D33*
X88736809Y83133558D03*
D32*
X91276809Y88213558D03*
%TD*%
D34*
%TO.C,SW30*%
X68385059Y88213558D03*
X55458059Y85673558D03*
D31*
X67623059Y83133558D03*
X57463059Y83133558D03*
D32*
X58733059Y85673558D03*
D33*
X62543059Y83133558D03*
D32*
X65083059Y88213558D03*
%TD*%
D34*
%TO.C,SW29*%
X46448809Y128453558D03*
X33521809Y125913558D03*
D31*
X45686809Y123373558D03*
X35526809Y123373558D03*
D32*
X36796809Y125913558D03*
D33*
X40606809Y123373558D03*
D32*
X43146809Y128453558D03*
%TD*%
D34*
%TO.C,SW28*%
X344251309Y107263558D03*
X331324309Y104723558D03*
D31*
X343489309Y102183558D03*
X333329309Y102183558D03*
D32*
X334599309Y104723558D03*
D33*
X338409309Y102183558D03*
D32*
X340949309Y107263558D03*
%TD*%
D34*
%TO.C,SW27*%
X320438809Y107263558D03*
X307511809Y104723558D03*
D31*
X319676809Y102183558D03*
X309516809Y102183558D03*
D32*
X310786809Y104723558D03*
D33*
X314596809Y102183558D03*
D32*
X317136809Y107263558D03*
%TD*%
D34*
%TO.C,SW26*%
X301388809Y107263558D03*
X288461809Y104723558D03*
D31*
X300626809Y102183558D03*
X290466809Y102183558D03*
D32*
X291736809Y104723558D03*
D33*
X295546809Y102183558D03*
D32*
X298086809Y107263558D03*
%TD*%
D34*
%TO.C,SW25*%
X282758809Y108323558D03*
X269831809Y105783558D03*
D31*
X281996809Y103243558D03*
X271836809Y103243558D03*
D32*
X273106809Y105783558D03*
D33*
X276916809Y103243558D03*
D32*
X279456809Y108323558D03*
%TD*%
D30*
%TO.C,SW24*%
G36*
X260087707Y105479396D02*
G01*
X259567928Y107924765D01*
X262062205Y108454940D01*
X262581984Y106009571D01*
X260087707Y105479396D01*
G37*
G36*
X247971289Y100307227D02*
G01*
X247451510Y102752596D01*
X249945787Y103282771D01*
X250465566Y100837402D01*
X247971289Y100307227D01*
G37*
D31*
X261385799Y101839749D03*
X251447819Y99727367D03*
D32*
X252161971Y102475909D03*
D33*
X256416809Y100783558D03*
D32*
X257845113Y106280644D03*
%TD*%
D30*
%TO.C,SW23*%
G36*
X240333957Y101081896D02*
G01*
X239814178Y103527265D01*
X242308455Y104057440D01*
X242828234Y101612071D01*
X240333957Y101081896D01*
G37*
G36*
X228217539Y95909727D02*
G01*
X227697760Y98355096D01*
X230192037Y98885271D01*
X230711816Y96439902D01*
X228217539Y95909727D01*
G37*
D31*
X241632049Y97442249D03*
X231694069Y95329867D03*
D32*
X232408221Y98078409D03*
D33*
X236663059Y96386058D03*
D32*
X238091363Y101883144D03*
%TD*%
D30*
%TO.C,SW22*%
G36*
X222820283Y97557961D02*
G01*
X222300504Y100003330D01*
X224794781Y100533505D01*
X225314560Y98088136D01*
X222820283Y97557961D01*
G37*
G36*
X210703865Y92385792D02*
G01*
X210184086Y94831161D01*
X212678363Y95361336D01*
X213198142Y92915967D01*
X210703865Y92385792D01*
G37*
D31*
X224118375Y93918314D03*
X214180395Y91805932D03*
D32*
X214894547Y94554474D03*
D33*
X219149385Y92862123D03*
D32*
X220577689Y98359209D03*
%TD*%
D30*
%TO.C,SW21*%
G36*
X204186571Y93597243D02*
G01*
X203666792Y96042612D01*
X206161069Y96572787D01*
X206680848Y94127418D01*
X204186571Y93597243D01*
G37*
G36*
X192070153Y88425074D02*
G01*
X191550374Y90870443D01*
X194044651Y91400618D01*
X194564430Y88955249D01*
X192070153Y88425074D01*
G37*
D31*
X205484663Y89957596D03*
X195546683Y87845214D03*
D32*
X196260835Y90593756D03*
D33*
X200515673Y88901405D03*
D32*
X201943977Y94398491D03*
%TD*%
D30*
%TO.C,SW20*%
G36*
X169701446Y93678178D02*
G01*
X170221225Y96123547D01*
X172715502Y95593372D01*
X172195723Y93148003D01*
X169701446Y93678178D01*
G37*
G36*
X156528836Y93881357D02*
G01*
X157048615Y96326726D01*
X159542892Y95796551D01*
X159023113Y93351182D01*
X156528836Y93881357D01*
G37*
D31*
X169406934Y89825214D03*
X159468954Y91937596D03*
D32*
X161239297Y94158043D03*
D33*
X164437944Y90881405D03*
D32*
X167978630Y95322299D03*
%TD*%
D30*
%TO.C,SW19*%
G36*
X151067734Y97638896D02*
G01*
X151587513Y100084265D01*
X154081790Y99554090D01*
X153562011Y97108721D01*
X151067734Y97638896D01*
G37*
G36*
X137895124Y97842075D02*
G01*
X138414903Y100287444D01*
X140909180Y99757269D01*
X140389401Y97311900D01*
X137895124Y97842075D01*
G37*
D31*
X150773222Y93785932D03*
X140835242Y95898314D03*
D32*
X142605585Y98118761D03*
D33*
X145804232Y94842123D03*
D32*
X149344918Y99283017D03*
%TD*%
D30*
%TO.C,SW18*%
G36*
X132434023Y101599614D02*
G01*
X132953802Y104044983D01*
X135448079Y103514808D01*
X134928300Y101069439D01*
X132434023Y101599614D01*
G37*
G36*
X119261413Y101802793D02*
G01*
X119781192Y104248162D01*
X122275469Y103717987D01*
X121755690Y101272618D01*
X119261413Y101802793D01*
G37*
D31*
X132139511Y97746650D03*
X122201531Y99859032D03*
D32*
X123971874Y102079479D03*
D33*
X127170521Y98802841D03*
D32*
X130711207Y103243735D03*
%TD*%
D30*
%TO.C,SW17*%
G36*
X113800311Y105560331D02*
G01*
X114320090Y108005700D01*
X116814367Y107475525D01*
X116294588Y105030156D01*
X113800311Y105560331D01*
G37*
G36*
X100627701Y105763510D02*
G01*
X101147480Y108208879D01*
X103641757Y107678704D01*
X103121978Y105233335D01*
X100627701Y105763510D01*
G37*
D31*
X113505799Y101707367D03*
X103567819Y103819749D03*
D32*
X105338162Y106040196D03*
D33*
X108536809Y102763558D03*
D32*
X112077495Y107204452D03*
%TD*%
D34*
%TO.C,SW16*%
X93878809Y107263558D03*
X80951809Y104723558D03*
D31*
X93116809Y102183558D03*
X82956809Y102183558D03*
D32*
X84226809Y104723558D03*
D33*
X88036809Y102183558D03*
D32*
X90576809Y107263558D03*
%TD*%
D33*
%TO.C,SW14*%
X317543809Y112978558D03*
X341419809Y112978558D03*
D35*
X317543809Y128218558D03*
X341419809Y128218558D03*
D34*
X335323809Y126313558D03*
X322396809Y123773558D03*
D31*
X334561809Y121233558D03*
X324401809Y121233558D03*
D32*
X325671809Y123773558D03*
D33*
X329481809Y121233558D03*
D32*
X332021809Y126313558D03*
%TD*%
D34*
%TO.C,SW13*%
X306748809Y126313558D03*
X293821809Y123773558D03*
D31*
X305986809Y121233558D03*
X295826809Y121233558D03*
D32*
X297096809Y123773558D03*
D33*
X300906809Y121233558D03*
D32*
X303446809Y126313558D03*
%TD*%
D34*
%TO.C,SW12*%
X288118809Y128453558D03*
X275191809Y125913558D03*
D31*
X287356809Y123373558D03*
X277196809Y123373558D03*
D32*
X278466809Y125913558D03*
D33*
X282276809Y123373558D03*
D32*
X284816809Y128453558D03*
%TD*%
D30*
%TO.C,SW11*%
G36*
X265447707Y126089396D02*
G01*
X264927928Y128534765D01*
X267422205Y129064940D01*
X267941984Y126619571D01*
X265447707Y126089396D01*
G37*
G36*
X253331289Y120917227D02*
G01*
X252811510Y123362596D01*
X255305787Y123892771D01*
X255825566Y121447402D01*
X253331289Y120917227D01*
G37*
D31*
X266745799Y122449749D03*
X256807819Y120337367D03*
D32*
X257521971Y123085909D03*
D33*
X261776809Y121393558D03*
D32*
X263205113Y126890644D03*
%TD*%
D30*
%TO.C,SW8*%
G36*
X209546571Y114207243D02*
G01*
X209026792Y116652612D01*
X211521069Y117182787D01*
X212040848Y114737418D01*
X209546571Y114207243D01*
G37*
G36*
X197430153Y109035074D02*
G01*
X196910374Y111480443D01*
X199404651Y112010618D01*
X199924430Y109565249D01*
X197430153Y109035074D01*
G37*
D31*
X210844663Y110567596D03*
X200906683Y108455214D03*
D32*
X201620835Y111203756D03*
D33*
X205875673Y109511405D03*
D32*
X207303977Y115008491D03*
%TD*%
D30*
%TO.C,SW7*%
G36*
X182981446Y110328178D02*
G01*
X183501225Y112773547D01*
X185995502Y112243372D01*
X185475723Y109798003D01*
X182981446Y110328178D01*
G37*
G36*
X169808836Y110531357D02*
G01*
X170328615Y112976726D01*
X172822892Y112446551D01*
X172303113Y110001182D01*
X169808836Y110531357D01*
G37*
D31*
X182686934Y106475214D03*
X172748954Y108587596D03*
D32*
X174519297Y110808043D03*
D33*
X177717944Y107531405D03*
D32*
X181258630Y111972299D03*
%TD*%
D30*
%TO.C,SW6*%
G36*
X164347734Y114288896D02*
G01*
X164867513Y116734265D01*
X167361790Y116204090D01*
X166842011Y113758721D01*
X164347734Y114288896D01*
G37*
G36*
X151175124Y114492075D02*
G01*
X151694903Y116937444D01*
X154189180Y116407269D01*
X153669401Y113961900D01*
X151175124Y114492075D01*
G37*
D31*
X164053222Y110435932D03*
X154115242Y112548314D03*
D32*
X155885585Y114768761D03*
D33*
X159084232Y111492123D03*
D32*
X162624918Y115933017D03*
%TD*%
D30*
%TO.C,SW5*%
G36*
X145714023Y118249614D02*
G01*
X146233802Y120694983D01*
X148728079Y120164808D01*
X148208300Y117719439D01*
X145714023Y118249614D01*
G37*
G36*
X132541413Y118452793D02*
G01*
X133061192Y120898162D01*
X135555469Y120367987D01*
X135035690Y117922618D01*
X132541413Y118452793D01*
G37*
D31*
X145419511Y114396650D03*
X135481531Y116509032D03*
D32*
X137251874Y118729479D03*
D33*
X140450521Y115452841D03*
D32*
X143991207Y119893735D03*
%TD*%
D30*
%TO.C,SW4*%
G36*
X127080311Y122210331D02*
G01*
X127600090Y124655700D01*
X130094367Y124125525D01*
X129574588Y121680156D01*
X127080311Y122210331D01*
G37*
G36*
X113907701Y122413510D02*
G01*
X114427480Y124858879D01*
X116921757Y124328704D01*
X116401978Y121883335D01*
X113907701Y122413510D01*
G37*
D31*
X126785799Y118357367D03*
X116847819Y120469749D03*
D32*
X118618162Y122690196D03*
D33*
X121816809Y119413558D03*
D32*
X125357495Y123854452D03*
%TD*%
D34*
%TO.C,SW3*%
X107158809Y128453558D03*
X94231809Y125913558D03*
D31*
X106396809Y123373558D03*
X96236809Y123373558D03*
D32*
X97506809Y125913558D03*
D33*
X101316809Y123373558D03*
D32*
X103856809Y128453558D03*
%TD*%
D34*
%TO.C,SW2*%
X88518809Y126313558D03*
X75591809Y123773558D03*
D31*
X87756809Y121233558D03*
X77596809Y121233558D03*
D32*
X78866809Y123773558D03*
D33*
X82676809Y121233558D03*
D32*
X85216809Y126313558D03*
%TD*%
D34*
%TO.C,SW1*%
X69468809Y126313558D03*
X56541809Y123773558D03*
D31*
X68706809Y121233558D03*
X58546809Y121233558D03*
D32*
X59816809Y123773558D03*
D33*
X63626809Y121233558D03*
D32*
X66166809Y126313558D03*
%TD*%
%TO.C,D33*%
G36*
G01*
X331111809Y43358558D02*
X331411809Y43358558D01*
G75*
G02*
X331561809Y43208558I0J-150000D01*
G01*
X331561809Y42033558D01*
G75*
G02*
X331411809Y41883558I-150000J0D01*
G01*
X331111809Y41883558D01*
G75*
G02*
X330961809Y42033558I0J150000D01*
G01*
X330961809Y43208558D01*
G75*
G02*
X331111809Y43358558I150000J0D01*
G01*
G37*
G36*
G01*
X332061809Y45233558D02*
X332361809Y45233558D01*
G75*
G02*
X332511809Y45083558I0J-150000D01*
G01*
X332511809Y43908558D01*
G75*
G02*
X332361809Y43758558I-150000J0D01*
G01*
X332061809Y43758558D01*
G75*
G02*
X331911809Y43908558I0J150000D01*
G01*
X331911809Y45083558D01*
G75*
G02*
X332061809Y45233558I150000J0D01*
G01*
G37*
G36*
G01*
X330161809Y45233558D02*
X330461809Y45233558D01*
G75*
G02*
X330611809Y45083558I0J-150000D01*
G01*
X330611809Y43908558D01*
G75*
G02*
X330461809Y43758558I-150000J0D01*
G01*
X330161809Y43758558D01*
G75*
G02*
X330011809Y43908558I0J150000D01*
G01*
X330011809Y45083558D01*
G75*
G02*
X330161809Y45233558I150000J0D01*
G01*
G37*
%TD*%
%TO.C,D32*%
G36*
G01*
X343231809Y60721058D02*
X343531809Y60721058D01*
G75*
G02*
X343681809Y60571058I0J-150000D01*
G01*
X343681809Y59396058D01*
G75*
G02*
X343531809Y59246058I-150000J0D01*
G01*
X343231809Y59246058D01*
G75*
G02*
X343081809Y59396058I0J150000D01*
G01*
X343081809Y60571058D01*
G75*
G02*
X343231809Y60721058I150000J0D01*
G01*
G37*
G36*
G01*
X344181809Y62596058D02*
X344481809Y62596058D01*
G75*
G02*
X344631809Y62446058I0J-150000D01*
G01*
X344631809Y61271058D01*
G75*
G02*
X344481809Y61121058I-150000J0D01*
G01*
X344181809Y61121058D01*
G75*
G02*
X344031809Y61271058I0J150000D01*
G01*
X344031809Y62446058D01*
G75*
G02*
X344181809Y62596058I150000J0D01*
G01*
G37*
G36*
G01*
X342281809Y62596058D02*
X342581809Y62596058D01*
G75*
G02*
X342731809Y62446058I0J-150000D01*
G01*
X342731809Y61271058D01*
G75*
G02*
X342581809Y61121058I-150000J0D01*
G01*
X342281809Y61121058D01*
G75*
G02*
X342131809Y61271058I0J150000D01*
G01*
X342131809Y62446058D01*
G75*
G02*
X342281809Y62596058I150000J0D01*
G01*
G37*
%TD*%
%TO.C,D31*%
G36*
G01*
X315681809Y87358558D02*
X315981809Y87358558D01*
G75*
G02*
X316131809Y87208558I0J-150000D01*
G01*
X316131809Y86033558D01*
G75*
G02*
X315981809Y85883558I-150000J0D01*
G01*
X315681809Y85883558D01*
G75*
G02*
X315531809Y86033558I0J150000D01*
G01*
X315531809Y87208558D01*
G75*
G02*
X315681809Y87358558I150000J0D01*
G01*
G37*
G36*
G01*
X316631809Y89233558D02*
X316931809Y89233558D01*
G75*
G02*
X317081809Y89083558I0J-150000D01*
G01*
X317081809Y87908558D01*
G75*
G02*
X316931809Y87758558I-150000J0D01*
G01*
X316631809Y87758558D01*
G75*
G02*
X316481809Y87908558I0J150000D01*
G01*
X316481809Y89083558D01*
G75*
G02*
X316631809Y89233558I150000J0D01*
G01*
G37*
G36*
G01*
X314731809Y89233558D02*
X315031809Y89233558D01*
G75*
G02*
X315181809Y89083558I0J-150000D01*
G01*
X315181809Y87908558D01*
G75*
G02*
X315031809Y87758558I-150000J0D01*
G01*
X314731809Y87758558D01*
G75*
G02*
X314581809Y87908558I0J150000D01*
G01*
X314581809Y89083558D01*
G75*
G02*
X314731809Y89233558I150000J0D01*
G01*
G37*
%TD*%
%TO.C,D30*%
G36*
G01*
X326781809Y106158558D02*
X327081809Y106158558D01*
G75*
G02*
X327231809Y106008558I0J-150000D01*
G01*
X327231809Y104833558D01*
G75*
G02*
X327081809Y104683558I-150000J0D01*
G01*
X326781809Y104683558D01*
G75*
G02*
X326631809Y104833558I0J150000D01*
G01*
X326631809Y106008558D01*
G75*
G02*
X326781809Y106158558I150000J0D01*
G01*
G37*
G36*
G01*
X327731809Y108033558D02*
X328031809Y108033558D01*
G75*
G02*
X328181809Y107883558I0J-150000D01*
G01*
X328181809Y106708558D01*
G75*
G02*
X328031809Y106558558I-150000J0D01*
G01*
X327731809Y106558558D01*
G75*
G02*
X327581809Y106708558I0J150000D01*
G01*
X327581809Y107883558D01*
G75*
G02*
X327731809Y108033558I150000J0D01*
G01*
G37*
G36*
G01*
X325831809Y108033558D02*
X326131809Y108033558D01*
G75*
G02*
X326281809Y107883558I0J-150000D01*
G01*
X326281809Y106708558D01*
G75*
G02*
X326131809Y106558558I-150000J0D01*
G01*
X325831809Y106558558D01*
G75*
G02*
X325681809Y106708558I0J150000D01*
G01*
X325681809Y107883558D01*
G75*
G02*
X325831809Y108033558I150000J0D01*
G01*
G37*
%TD*%
%TO.C,D29*%
G36*
G01*
X309381809Y115058558D02*
X309681809Y115058558D01*
G75*
G02*
X309831809Y114908558I0J-150000D01*
G01*
X309831809Y113733558D01*
G75*
G02*
X309681809Y113583558I-150000J0D01*
G01*
X309381809Y113583558D01*
G75*
G02*
X309231809Y113733558I0J150000D01*
G01*
X309231809Y114908558D01*
G75*
G02*
X309381809Y115058558I150000J0D01*
G01*
G37*
G36*
G01*
X310331809Y116933558D02*
X310631809Y116933558D01*
G75*
G02*
X310781809Y116783558I0J-150000D01*
G01*
X310781809Y115608558D01*
G75*
G02*
X310631809Y115458558I-150000J0D01*
G01*
X310331809Y115458558D01*
G75*
G02*
X310181809Y115608558I0J150000D01*
G01*
X310181809Y116783558D01*
G75*
G02*
X310331809Y116933558I150000J0D01*
G01*
G37*
G36*
G01*
X308431809Y116933558D02*
X308731809Y116933558D01*
G75*
G02*
X308881809Y116783558I0J-150000D01*
G01*
X308881809Y115608558D01*
G75*
G02*
X308731809Y115458558I-150000J0D01*
G01*
X308431809Y115458558D01*
G75*
G02*
X308281809Y115608558I0J150000D01*
G01*
X308281809Y116783558D01*
G75*
G02*
X308431809Y116933558I150000J0D01*
G01*
G37*
%TD*%
%TO.C,D28*%
G36*
G01*
X288781809Y60458558D02*
X289081809Y60458558D01*
G75*
G02*
X289231809Y60308558I0J-150000D01*
G01*
X289231809Y59133558D01*
G75*
G02*
X289081809Y58983558I-150000J0D01*
G01*
X288781809Y58983558D01*
G75*
G02*
X288631809Y59133558I0J150000D01*
G01*
X288631809Y60308558D01*
G75*
G02*
X288781809Y60458558I150000J0D01*
G01*
G37*
G36*
G01*
X289731809Y62333558D02*
X290031809Y62333558D01*
G75*
G02*
X290181809Y62183558I0J-150000D01*
G01*
X290181809Y61008558D01*
G75*
G02*
X290031809Y60858558I-150000J0D01*
G01*
X289731809Y60858558D01*
G75*
G02*
X289581809Y61008558I0J150000D01*
G01*
X289581809Y62183558D01*
G75*
G02*
X289731809Y62333558I150000J0D01*
G01*
G37*
G36*
G01*
X287831809Y62333558D02*
X288131809Y62333558D01*
G75*
G02*
X288281809Y62183558I0J-150000D01*
G01*
X288281809Y61008558D01*
G75*
G02*
X288131809Y60858558I-150000J0D01*
G01*
X287831809Y60858558D01*
G75*
G02*
X287681809Y61008558I0J150000D01*
G01*
X287681809Y62183558D01*
G75*
G02*
X287831809Y62333558I150000J0D01*
G01*
G37*
%TD*%
%TO.C,D27*%
G36*
G01*
X273631809Y84921058D02*
X273931809Y84921058D01*
G75*
G02*
X274081809Y84771058I0J-150000D01*
G01*
X274081809Y83596058D01*
G75*
G02*
X273931809Y83446058I-150000J0D01*
G01*
X273631809Y83446058D01*
G75*
G02*
X273481809Y83596058I0J150000D01*
G01*
X273481809Y84771058D01*
G75*
G02*
X273631809Y84921058I150000J0D01*
G01*
G37*
G36*
G01*
X274581809Y86796058D02*
X274881809Y86796058D01*
G75*
G02*
X275031809Y86646058I0J-150000D01*
G01*
X275031809Y85471058D01*
G75*
G02*
X274881809Y85321058I-150000J0D01*
G01*
X274581809Y85321058D01*
G75*
G02*
X274431809Y85471058I0J150000D01*
G01*
X274431809Y86646058D01*
G75*
G02*
X274581809Y86796058I150000J0D01*
G01*
G37*
G36*
G01*
X272681809Y86796058D02*
X272981809Y86796058D01*
G75*
G02*
X273131809Y86646058I0J-150000D01*
G01*
X273131809Y85471058D01*
G75*
G02*
X272981809Y85321058I-150000J0D01*
G01*
X272681809Y85321058D01*
G75*
G02*
X272531809Y85471058I0J150000D01*
G01*
X272531809Y86646058D01*
G75*
G02*
X272681809Y86796058I150000J0D01*
G01*
G37*
%TD*%
%TO.C,D26*%
G36*
G01*
X285581809Y99796058D02*
X285881809Y99796058D01*
G75*
G02*
X286031809Y99646058I0J-150000D01*
G01*
X286031809Y98471058D01*
G75*
G02*
X285881809Y98321058I-150000J0D01*
G01*
X285581809Y98321058D01*
G75*
G02*
X285431809Y98471058I0J150000D01*
G01*
X285431809Y99646058D01*
G75*
G02*
X285581809Y99796058I150000J0D01*
G01*
G37*
G36*
G01*
X286531809Y101671058D02*
X286831809Y101671058D01*
G75*
G02*
X286981809Y101521058I0J-150000D01*
G01*
X286981809Y100346058D01*
G75*
G02*
X286831809Y100196058I-150000J0D01*
G01*
X286531809Y100196058D01*
G75*
G02*
X286381809Y100346058I0J150000D01*
G01*
X286381809Y101521058D01*
G75*
G02*
X286531809Y101671058I150000J0D01*
G01*
G37*
G36*
G01*
X284631809Y101671058D02*
X284931809Y101671058D01*
G75*
G02*
X285081809Y101521058I0J-150000D01*
G01*
X285081809Y100346058D01*
G75*
G02*
X284931809Y100196058I-150000J0D01*
G01*
X284631809Y100196058D01*
G75*
G02*
X284481809Y100346058I0J150000D01*
G01*
X284481809Y101521058D01*
G75*
G02*
X284631809Y101671058I150000J0D01*
G01*
G37*
%TD*%
%TO.C,D25*%
G36*
G01*
X271381809Y126696058D02*
X271681809Y126696058D01*
G75*
G02*
X271831809Y126546058I0J-150000D01*
G01*
X271831809Y125371058D01*
G75*
G02*
X271681809Y125221058I-150000J0D01*
G01*
X271381809Y125221058D01*
G75*
G02*
X271231809Y125371058I0J150000D01*
G01*
X271231809Y126546058D01*
G75*
G02*
X271381809Y126696058I150000J0D01*
G01*
G37*
G36*
G01*
X272331809Y128571058D02*
X272631809Y128571058D01*
G75*
G02*
X272781809Y128421058I0J-150000D01*
G01*
X272781809Y127246058D01*
G75*
G02*
X272631809Y127096058I-150000J0D01*
G01*
X272331809Y127096058D01*
G75*
G02*
X272181809Y127246058I0J150000D01*
G01*
X272181809Y128421058D01*
G75*
G02*
X272331809Y128571058I150000J0D01*
G01*
G37*
G36*
G01*
X270431809Y128571058D02*
X270731809Y128571058D01*
G75*
G02*
X270881809Y128421058I0J-150000D01*
G01*
X270881809Y127246058D01*
G75*
G02*
X270731809Y127096058I-150000J0D01*
G01*
X270431809Y127096058D01*
G75*
G02*
X270281809Y127246058I0J150000D01*
G01*
X270281809Y128421058D01*
G75*
G02*
X270431809Y128571058I150000J0D01*
G01*
G37*
%TD*%
%TO.C,D24*%
G36*
G01*
X249781809Y58058558D02*
X250081809Y58058558D01*
G75*
G02*
X250231809Y57908558I0J-150000D01*
G01*
X250231809Y56733558D01*
G75*
G02*
X250081809Y56583558I-150000J0D01*
G01*
X249781809Y56583558D01*
G75*
G02*
X249631809Y56733558I0J150000D01*
G01*
X249631809Y57908558D01*
G75*
G02*
X249781809Y58058558I150000J0D01*
G01*
G37*
G36*
G01*
X250731809Y59933558D02*
X251031809Y59933558D01*
G75*
G02*
X251181809Y59783558I0J-150000D01*
G01*
X251181809Y58608558D01*
G75*
G02*
X251031809Y58458558I-150000J0D01*
G01*
X250731809Y58458558D01*
G75*
G02*
X250581809Y58608558I0J150000D01*
G01*
X250581809Y59783558D01*
G75*
G02*
X250731809Y59933558I150000J0D01*
G01*
G37*
G36*
G01*
X248831809Y59933558D02*
X249131809Y59933558D01*
G75*
G02*
X249281809Y59783558I0J-150000D01*
G01*
X249281809Y58608558D01*
G75*
G02*
X249131809Y58458558I-150000J0D01*
G01*
X248831809Y58458558D01*
G75*
G02*
X248681809Y58608558I0J150000D01*
G01*
X248681809Y59783558D01*
G75*
G02*
X248831809Y59933558I150000J0D01*
G01*
G37*
%TD*%
%TO.C,D23*%
G36*
G01*
X238881809Y73358558D02*
X239181809Y73358558D01*
G75*
G02*
X239331809Y73208558I0J-150000D01*
G01*
X239331809Y72033558D01*
G75*
G02*
X239181809Y71883558I-150000J0D01*
G01*
X238881809Y71883558D01*
G75*
G02*
X238731809Y72033558I0J150000D01*
G01*
X238731809Y73208558D01*
G75*
G02*
X238881809Y73358558I150000J0D01*
G01*
G37*
G36*
G01*
X239831809Y75233558D02*
X240131809Y75233558D01*
G75*
G02*
X240281809Y75083558I0J-150000D01*
G01*
X240281809Y73908558D01*
G75*
G02*
X240131809Y73758558I-150000J0D01*
G01*
X239831809Y73758558D01*
G75*
G02*
X239681809Y73908558I0J150000D01*
G01*
X239681809Y75083558D01*
G75*
G02*
X239831809Y75233558I150000J0D01*
G01*
G37*
G36*
G01*
X237931809Y75233558D02*
X238231809Y75233558D01*
G75*
G02*
X238381809Y75083558I0J-150000D01*
G01*
X238381809Y73908558D01*
G75*
G02*
X238231809Y73758558I-150000J0D01*
G01*
X237931809Y73758558D01*
G75*
G02*
X237781809Y73908558I0J150000D01*
G01*
X237781809Y75083558D01*
G75*
G02*
X237931809Y75233558I150000J0D01*
G01*
G37*
%TD*%
%TO.C,D22*%
G36*
G01*
X245581809Y95958558D02*
X245881809Y95958558D01*
G75*
G02*
X246031809Y95808558I0J-150000D01*
G01*
X246031809Y94633558D01*
G75*
G02*
X245881809Y94483558I-150000J0D01*
G01*
X245581809Y94483558D01*
G75*
G02*
X245431809Y94633558I0J150000D01*
G01*
X245431809Y95808558D01*
G75*
G02*
X245581809Y95958558I150000J0D01*
G01*
G37*
G36*
G01*
X246531809Y97833558D02*
X246831809Y97833558D01*
G75*
G02*
X246981809Y97683558I0J-150000D01*
G01*
X246981809Y96508558D01*
G75*
G02*
X246831809Y96358558I-150000J0D01*
G01*
X246531809Y96358558D01*
G75*
G02*
X246381809Y96508558I0J150000D01*
G01*
X246381809Y97683558D01*
G75*
G02*
X246531809Y97833558I150000J0D01*
G01*
G37*
G36*
G01*
X244631809Y97833558D02*
X244931809Y97833558D01*
G75*
G02*
X245081809Y97683558I0J-150000D01*
G01*
X245081809Y96508558D01*
G75*
G02*
X244931809Y96358558I-150000J0D01*
G01*
X244631809Y96358558D01*
G75*
G02*
X244481809Y96508558I0J150000D01*
G01*
X244481809Y97683558D01*
G75*
G02*
X244631809Y97833558I150000J0D01*
G01*
G37*
%TD*%
%TO.C,D21*%
G36*
G01*
X236031809Y111021058D02*
X236331809Y111021058D01*
G75*
G02*
X236481809Y110871058I0J-150000D01*
G01*
X236481809Y109696058D01*
G75*
G02*
X236331809Y109546058I-150000J0D01*
G01*
X236031809Y109546058D01*
G75*
G02*
X235881809Y109696058I0J150000D01*
G01*
X235881809Y110871058D01*
G75*
G02*
X236031809Y111021058I150000J0D01*
G01*
G37*
G36*
G01*
X236981809Y112896058D02*
X237281809Y112896058D01*
G75*
G02*
X237431809Y112746058I0J-150000D01*
G01*
X237431809Y111571058D01*
G75*
G02*
X237281809Y111421058I-150000J0D01*
G01*
X236981809Y111421058D01*
G75*
G02*
X236831809Y111571058I0J150000D01*
G01*
X236831809Y112746058D01*
G75*
G02*
X236981809Y112896058I150000J0D01*
G01*
G37*
G36*
G01*
X235081809Y112896058D02*
X235381809Y112896058D01*
G75*
G02*
X235531809Y112746058I0J-150000D01*
G01*
X235531809Y111571058D01*
G75*
G02*
X235381809Y111421058I-150000J0D01*
G01*
X235081809Y111421058D01*
G75*
G02*
X234931809Y111571058I0J150000D01*
G01*
X234931809Y112746058D01*
G75*
G02*
X235081809Y112896058I150000J0D01*
G01*
G37*
%TD*%
%TO.C,D20*%
G36*
G01*
X249181809Y39458558D02*
X249481809Y39458558D01*
G75*
G02*
X249631809Y39308558I0J-150000D01*
G01*
X249631809Y38133558D01*
G75*
G02*
X249481809Y37983558I-150000J0D01*
G01*
X249181809Y37983558D01*
G75*
G02*
X249031809Y38133558I0J150000D01*
G01*
X249031809Y39308558D01*
G75*
G02*
X249181809Y39458558I150000J0D01*
G01*
G37*
G36*
G01*
X250131809Y41333558D02*
X250431809Y41333558D01*
G75*
G02*
X250581809Y41183558I0J-150000D01*
G01*
X250581809Y40008558D01*
G75*
G02*
X250431809Y39858558I-150000J0D01*
G01*
X250131809Y39858558D01*
G75*
G02*
X249981809Y40008558I0J150000D01*
G01*
X249981809Y41183558D01*
G75*
G02*
X250131809Y41333558I150000J0D01*
G01*
G37*
G36*
G01*
X248231809Y41333558D02*
X248531809Y41333558D01*
G75*
G02*
X248681809Y41183558I0J-150000D01*
G01*
X248681809Y40008558D01*
G75*
G02*
X248531809Y39858558I-150000J0D01*
G01*
X248231809Y39858558D01*
G75*
G02*
X248081809Y40008558I0J150000D01*
G01*
X248081809Y41183558D01*
G75*
G02*
X248231809Y41333558I150000J0D01*
G01*
G37*
%TD*%
%TO.C,D19*%
G36*
G01*
X214731809Y49921058D02*
X215031809Y49921058D01*
G75*
G02*
X215181809Y49771058I0J-150000D01*
G01*
X215181809Y48596058D01*
G75*
G02*
X215031809Y48446058I-150000J0D01*
G01*
X214731809Y48446058D01*
G75*
G02*
X214581809Y48596058I0J150000D01*
G01*
X214581809Y49771058D01*
G75*
G02*
X214731809Y49921058I150000J0D01*
G01*
G37*
G36*
G01*
X215681809Y51796058D02*
X215981809Y51796058D01*
G75*
G02*
X216131809Y51646058I0J-150000D01*
G01*
X216131809Y50471058D01*
G75*
G02*
X215981809Y50321058I-150000J0D01*
G01*
X215681809Y50321058D01*
G75*
G02*
X215531809Y50471058I0J150000D01*
G01*
X215531809Y51646058D01*
G75*
G02*
X215681809Y51796058I150000J0D01*
G01*
G37*
G36*
G01*
X213781809Y51796058D02*
X214081809Y51796058D01*
G75*
G02*
X214231809Y51646058I0J-150000D01*
G01*
X214231809Y50471058D01*
G75*
G02*
X214081809Y50321058I-150000J0D01*
G01*
X213781809Y50321058D01*
G75*
G02*
X213631809Y50471058I0J150000D01*
G01*
X213631809Y51646058D01*
G75*
G02*
X213781809Y51796058I150000J0D01*
G01*
G37*
%TD*%
%TO.C,D18*%
G36*
G01*
X196881809Y70258558D02*
X197181809Y70258558D01*
G75*
G02*
X197331809Y70108558I0J-150000D01*
G01*
X197331809Y68933558D01*
G75*
G02*
X197181809Y68783558I-150000J0D01*
G01*
X196881809Y68783558D01*
G75*
G02*
X196731809Y68933558I0J150000D01*
G01*
X196731809Y70108558D01*
G75*
G02*
X196881809Y70258558I150000J0D01*
G01*
G37*
G36*
G01*
X197831809Y72133558D02*
X198131809Y72133558D01*
G75*
G02*
X198281809Y71983558I0J-150000D01*
G01*
X198281809Y70808558D01*
G75*
G02*
X198131809Y70658558I-150000J0D01*
G01*
X197831809Y70658558D01*
G75*
G02*
X197681809Y70808558I0J150000D01*
G01*
X197681809Y71983558D01*
G75*
G02*
X197831809Y72133558I150000J0D01*
G01*
G37*
G36*
G01*
X195931809Y72133558D02*
X196231809Y72133558D01*
G75*
G02*
X196381809Y71983558I0J-150000D01*
G01*
X196381809Y70808558D01*
G75*
G02*
X196231809Y70658558I-150000J0D01*
G01*
X195931809Y70658558D01*
G75*
G02*
X195781809Y70808558I0J150000D01*
G01*
X195781809Y71983558D01*
G75*
G02*
X195931809Y72133558I150000J0D01*
G01*
G37*
%TD*%
%TO.C,D17*%
G36*
G01*
X209881809Y96858558D02*
X210181809Y96858558D01*
G75*
G02*
X210331809Y96708558I0J-150000D01*
G01*
X210331809Y95533558D01*
G75*
G02*
X210181809Y95383558I-150000J0D01*
G01*
X209881809Y95383558D01*
G75*
G02*
X209731809Y95533558I0J150000D01*
G01*
X209731809Y96708558D01*
G75*
G02*
X209881809Y96858558I150000J0D01*
G01*
G37*
G36*
G01*
X210831809Y98733558D02*
X211131809Y98733558D01*
G75*
G02*
X211281809Y98583558I0J-150000D01*
G01*
X211281809Y97408558D01*
G75*
G02*
X211131809Y97258558I-150000J0D01*
G01*
X210831809Y97258558D01*
G75*
G02*
X210681809Y97408558I0J150000D01*
G01*
X210681809Y98583558D01*
G75*
G02*
X210831809Y98733558I150000J0D01*
G01*
G37*
G36*
G01*
X208931809Y98733558D02*
X209231809Y98733558D01*
G75*
G02*
X209381809Y98583558I0J-150000D01*
G01*
X209381809Y97408558D01*
G75*
G02*
X209231809Y97258558I-150000J0D01*
G01*
X208931809Y97258558D01*
G75*
G02*
X208781809Y97408558I0J150000D01*
G01*
X208781809Y98583558D01*
G75*
G02*
X208931809Y98733558I150000J0D01*
G01*
G37*
%TD*%
%TO.C,D16*%
G36*
G01*
X195981809Y103658558D02*
X196281809Y103658558D01*
G75*
G02*
X196431809Y103508558I0J-150000D01*
G01*
X196431809Y102333558D01*
G75*
G02*
X196281809Y102183558I-150000J0D01*
G01*
X195981809Y102183558D01*
G75*
G02*
X195831809Y102333558I0J150000D01*
G01*
X195831809Y103508558D01*
G75*
G02*
X195981809Y103658558I150000J0D01*
G01*
G37*
G36*
G01*
X196931809Y105533558D02*
X197231809Y105533558D01*
G75*
G02*
X197381809Y105383558I0J-150000D01*
G01*
X197381809Y104208558D01*
G75*
G02*
X197231809Y104058558I-150000J0D01*
G01*
X196931809Y104058558D01*
G75*
G02*
X196781809Y104208558I0J150000D01*
G01*
X196781809Y105383558D01*
G75*
G02*
X196931809Y105533558I150000J0D01*
G01*
G37*
G36*
G01*
X195031809Y105533558D02*
X195331809Y105533558D01*
G75*
G02*
X195481809Y105383558I0J-150000D01*
G01*
X195481809Y104208558D01*
G75*
G02*
X195331809Y104058558I-150000J0D01*
G01*
X195031809Y104058558D01*
G75*
G02*
X194881809Y104208558I0J150000D01*
G01*
X194881809Y105383558D01*
G75*
G02*
X195031809Y105533558I150000J0D01*
G01*
G37*
%TD*%
%TO.C,D15*%
G36*
G01*
X160681809Y34296058D02*
X160981809Y34296058D01*
G75*
G02*
X161131809Y34146058I0J-150000D01*
G01*
X161131809Y32971058D01*
G75*
G02*
X160981809Y32821058I-150000J0D01*
G01*
X160681809Y32821058D01*
G75*
G02*
X160531809Y32971058I0J150000D01*
G01*
X160531809Y34146058D01*
G75*
G02*
X160681809Y34296058I150000J0D01*
G01*
G37*
G36*
G01*
X161631809Y36171058D02*
X161931809Y36171058D01*
G75*
G02*
X162081809Y36021058I0J-150000D01*
G01*
X162081809Y34846058D01*
G75*
G02*
X161931809Y34696058I-150000J0D01*
G01*
X161631809Y34696058D01*
G75*
G02*
X161481809Y34846058I0J150000D01*
G01*
X161481809Y36021058D01*
G75*
G02*
X161631809Y36171058I150000J0D01*
G01*
G37*
G36*
G01*
X159731809Y36171058D02*
X160031809Y36171058D01*
G75*
G02*
X160181809Y36021058I0J-150000D01*
G01*
X160181809Y34846058D01*
G75*
G02*
X160031809Y34696058I-150000J0D01*
G01*
X159731809Y34696058D01*
G75*
G02*
X159581809Y34846058I0J150000D01*
G01*
X159581809Y36021058D01*
G75*
G02*
X159731809Y36171058I150000J0D01*
G01*
G37*
%TD*%
%TO.C,D14*%
G36*
G01*
X163081809Y58596058D02*
X163381809Y58596058D01*
G75*
G02*
X163531809Y58446058I0J-150000D01*
G01*
X163531809Y57271058D01*
G75*
G02*
X163381809Y57121058I-150000J0D01*
G01*
X163081809Y57121058D01*
G75*
G02*
X162931809Y57271058I0J150000D01*
G01*
X162931809Y58446058D01*
G75*
G02*
X163081809Y58596058I150000J0D01*
G01*
G37*
G36*
G01*
X164031809Y60471058D02*
X164331809Y60471058D01*
G75*
G02*
X164481809Y60321058I0J-150000D01*
G01*
X164481809Y59146058D01*
G75*
G02*
X164331809Y58996058I-150000J0D01*
G01*
X164031809Y58996058D01*
G75*
G02*
X163881809Y59146058I0J150000D01*
G01*
X163881809Y60321058D01*
G75*
G02*
X164031809Y60471058I150000J0D01*
G01*
G37*
G36*
G01*
X162131809Y60471058D02*
X162431809Y60471058D01*
G75*
G02*
X162581809Y60321058I0J-150000D01*
G01*
X162581809Y59146058D01*
G75*
G02*
X162431809Y58996058I-150000J0D01*
G01*
X162131809Y58996058D01*
G75*
G02*
X161981809Y59146058I0J150000D01*
G01*
X161981809Y60321058D01*
G75*
G02*
X162131809Y60471058I150000J0D01*
G01*
G37*
%TD*%
%TO.C,D13*%
G36*
G01*
X142431809Y82721058D02*
X142731809Y82721058D01*
G75*
G02*
X142881809Y82571058I0J-150000D01*
G01*
X142881809Y81396058D01*
G75*
G02*
X142731809Y81246058I-150000J0D01*
G01*
X142431809Y81246058D01*
G75*
G02*
X142281809Y81396058I0J150000D01*
G01*
X142281809Y82571058D01*
G75*
G02*
X142431809Y82721058I150000J0D01*
G01*
G37*
G36*
G01*
X143381809Y84596058D02*
X143681809Y84596058D01*
G75*
G02*
X143831809Y84446058I0J-150000D01*
G01*
X143831809Y83271058D01*
G75*
G02*
X143681809Y83121058I-150000J0D01*
G01*
X143381809Y83121058D01*
G75*
G02*
X143231809Y83271058I0J150000D01*
G01*
X143231809Y84446058D01*
G75*
G02*
X143381809Y84596058I150000J0D01*
G01*
G37*
G36*
G01*
X141481809Y84596058D02*
X141781809Y84596058D01*
G75*
G02*
X141931809Y84446058I0J-150000D01*
G01*
X141931809Y83271058D01*
G75*
G02*
X141781809Y83121058I-150000J0D01*
G01*
X141481809Y83121058D01*
G75*
G02*
X141331809Y83271058I0J150000D01*
G01*
X141331809Y84446058D01*
G75*
G02*
X141481809Y84596058I150000J0D01*
G01*
G37*
%TD*%
%TO.C,D12*%
G36*
G01*
X154181809Y93296058D02*
X154481809Y93296058D01*
G75*
G02*
X154631809Y93146058I0J-150000D01*
G01*
X154631809Y91971058D01*
G75*
G02*
X154481809Y91821058I-150000J0D01*
G01*
X154181809Y91821058D01*
G75*
G02*
X154031809Y91971058I0J150000D01*
G01*
X154031809Y93146058D01*
G75*
G02*
X154181809Y93296058I150000J0D01*
G01*
G37*
G36*
G01*
X155131809Y95171058D02*
X155431809Y95171058D01*
G75*
G02*
X155581809Y95021058I0J-150000D01*
G01*
X155581809Y93846058D01*
G75*
G02*
X155431809Y93696058I-150000J0D01*
G01*
X155131809Y93696058D01*
G75*
G02*
X154981809Y93846058I0J150000D01*
G01*
X154981809Y95021058D01*
G75*
G02*
X155131809Y95171058I150000J0D01*
G01*
G37*
G36*
G01*
X153231809Y95171058D02*
X153531809Y95171058D01*
G75*
G02*
X153681809Y95021058I0J-150000D01*
G01*
X153681809Y93846058D01*
G75*
G02*
X153531809Y93696058I-150000J0D01*
G01*
X153231809Y93696058D01*
G75*
G02*
X153081809Y93846058I0J150000D01*
G01*
X153081809Y95021058D01*
G75*
G02*
X153231809Y95171058I150000J0D01*
G01*
G37*
%TD*%
%TO.C,D11*%
G36*
G01*
X148131809Y113521058D02*
X148431809Y113521058D01*
G75*
G02*
X148581809Y113371058I0J-150000D01*
G01*
X148581809Y112196058D01*
G75*
G02*
X148431809Y112046058I-150000J0D01*
G01*
X148131809Y112046058D01*
G75*
G02*
X147981809Y112196058I0J150000D01*
G01*
X147981809Y113371058D01*
G75*
G02*
X148131809Y113521058I150000J0D01*
G01*
G37*
G36*
G01*
X149081809Y115396058D02*
X149381809Y115396058D01*
G75*
G02*
X149531809Y115246058I0J-150000D01*
G01*
X149531809Y114071058D01*
G75*
G02*
X149381809Y113921058I-150000J0D01*
G01*
X149081809Y113921058D01*
G75*
G02*
X148931809Y114071058I0J150000D01*
G01*
X148931809Y115246058D01*
G75*
G02*
X149081809Y115396058I150000J0D01*
G01*
G37*
G36*
G01*
X147181809Y115396058D02*
X147481809Y115396058D01*
G75*
G02*
X147631809Y115246058I0J-150000D01*
G01*
X147631809Y114071058D01*
G75*
G02*
X147481809Y113921058I-150000J0D01*
G01*
X147181809Y113921058D01*
G75*
G02*
X147031809Y114071058I0J150000D01*
G01*
X147031809Y115246058D01*
G75*
G02*
X147181809Y115396058I150000J0D01*
G01*
G37*
%TD*%
%TO.C,D10*%
G36*
G01*
X97081809Y48158558D02*
X97381809Y48158558D01*
G75*
G02*
X97531809Y48008558I0J-150000D01*
G01*
X97531809Y46833558D01*
G75*
G02*
X97381809Y46683558I-150000J0D01*
G01*
X97081809Y46683558D01*
G75*
G02*
X96931809Y46833558I0J150000D01*
G01*
X96931809Y48008558D01*
G75*
G02*
X97081809Y48158558I150000J0D01*
G01*
G37*
G36*
G01*
X98031809Y50033558D02*
X98331809Y50033558D01*
G75*
G02*
X98481809Y49883558I0J-150000D01*
G01*
X98481809Y48708558D01*
G75*
G02*
X98331809Y48558558I-150000J0D01*
G01*
X98031809Y48558558D01*
G75*
G02*
X97881809Y48708558I0J150000D01*
G01*
X97881809Y49883558D01*
G75*
G02*
X98031809Y50033558I150000J0D01*
G01*
G37*
G36*
G01*
X96131809Y50033558D02*
X96431809Y50033558D01*
G75*
G02*
X96581809Y49883558I0J-150000D01*
G01*
X96581809Y48708558D01*
G75*
G02*
X96431809Y48558558I-150000J0D01*
G01*
X96131809Y48558558D01*
G75*
G02*
X95981809Y48708558I0J150000D01*
G01*
X95981809Y49883558D01*
G75*
G02*
X96131809Y50033558I150000J0D01*
G01*
G37*
%TD*%
%TO.C,D9*%
G36*
G01*
X122581809Y58758558D02*
X122881809Y58758558D01*
G75*
G02*
X123031809Y58608558I0J-150000D01*
G01*
X123031809Y57433558D01*
G75*
G02*
X122881809Y57283558I-150000J0D01*
G01*
X122581809Y57283558D01*
G75*
G02*
X122431809Y57433558I0J150000D01*
G01*
X122431809Y58608558D01*
G75*
G02*
X122581809Y58758558I150000J0D01*
G01*
G37*
G36*
G01*
X123531809Y60633558D02*
X123831809Y60633558D01*
G75*
G02*
X123981809Y60483558I0J-150000D01*
G01*
X123981809Y59308558D01*
G75*
G02*
X123831809Y59158558I-150000J0D01*
G01*
X123531809Y59158558D01*
G75*
G02*
X123381809Y59308558I0J150000D01*
G01*
X123381809Y60483558D01*
G75*
G02*
X123531809Y60633558I150000J0D01*
G01*
G37*
G36*
G01*
X121631809Y60633558D02*
X121931809Y60633558D01*
G75*
G02*
X122081809Y60483558I0J-150000D01*
G01*
X122081809Y59308558D01*
G75*
G02*
X121931809Y59158558I-150000J0D01*
G01*
X121631809Y59158558D01*
G75*
G02*
X121481809Y59308558I0J150000D01*
G01*
X121481809Y60483558D01*
G75*
G02*
X121631809Y60633558I150000J0D01*
G01*
G37*
%TD*%
%TO.C,D8*%
G36*
G01*
X98381809Y82078558D02*
X98681809Y82078558D01*
G75*
G02*
X98831809Y81928558I0J-150000D01*
G01*
X98831809Y80753558D01*
G75*
G02*
X98681809Y80603558I-150000J0D01*
G01*
X98381809Y80603558D01*
G75*
G02*
X98231809Y80753558I0J150000D01*
G01*
X98231809Y81928558D01*
G75*
G02*
X98381809Y82078558I150000J0D01*
G01*
G37*
G36*
G01*
X99331809Y83953558D02*
X99631809Y83953558D01*
G75*
G02*
X99781809Y83803558I0J-150000D01*
G01*
X99781809Y82628558D01*
G75*
G02*
X99631809Y82478558I-150000J0D01*
G01*
X99331809Y82478558D01*
G75*
G02*
X99181809Y82628558I0J150000D01*
G01*
X99181809Y83803558D01*
G75*
G02*
X99331809Y83953558I150000J0D01*
G01*
G37*
G36*
G01*
X97431809Y83953558D02*
X97731809Y83953558D01*
G75*
G02*
X97881809Y83803558I0J-150000D01*
G01*
X97881809Y82628558D01*
G75*
G02*
X97731809Y82478558I-150000J0D01*
G01*
X97431809Y82478558D01*
G75*
G02*
X97281809Y82628558I0J150000D01*
G01*
X97281809Y83803558D01*
G75*
G02*
X97431809Y83953558I150000J0D01*
G01*
G37*
%TD*%
%TO.C,D7*%
G36*
G01*
X116431809Y99521058D02*
X116731809Y99521058D01*
G75*
G02*
X116881809Y99371058I0J-150000D01*
G01*
X116881809Y98196058D01*
G75*
G02*
X116731809Y98046058I-150000J0D01*
G01*
X116431809Y98046058D01*
G75*
G02*
X116281809Y98196058I0J150000D01*
G01*
X116281809Y99371058D01*
G75*
G02*
X116431809Y99521058I150000J0D01*
G01*
G37*
G36*
G01*
X117381809Y101396058D02*
X117681809Y101396058D01*
G75*
G02*
X117831809Y101246058I0J-150000D01*
G01*
X117831809Y100071058D01*
G75*
G02*
X117681809Y99921058I-150000J0D01*
G01*
X117381809Y99921058D01*
G75*
G02*
X117231809Y100071058I0J150000D01*
G01*
X117231809Y101246058D01*
G75*
G02*
X117381809Y101396058I150000J0D01*
G01*
G37*
G36*
G01*
X115481809Y101396058D02*
X115781809Y101396058D01*
G75*
G02*
X115931809Y101246058I0J-150000D01*
G01*
X115931809Y100071058D01*
G75*
G02*
X115781809Y99921058I-150000J0D01*
G01*
X115481809Y99921058D01*
G75*
G02*
X115331809Y100071058I0J150000D01*
G01*
X115331809Y101246058D01*
G75*
G02*
X115481809Y101396058I150000J0D01*
G01*
G37*
%TD*%
%TO.C,D6*%
G36*
G01*
X109463059Y123558558D02*
X109763059Y123558558D01*
G75*
G02*
X109913059Y123408558I0J-150000D01*
G01*
X109913059Y122233558D01*
G75*
G02*
X109763059Y122083558I-150000J0D01*
G01*
X109463059Y122083558D01*
G75*
G02*
X109313059Y122233558I0J150000D01*
G01*
X109313059Y123408558D01*
G75*
G02*
X109463059Y123558558I150000J0D01*
G01*
G37*
G36*
G01*
X110413059Y125433558D02*
X110713059Y125433558D01*
G75*
G02*
X110863059Y125283558I0J-150000D01*
G01*
X110863059Y124108558D01*
G75*
G02*
X110713059Y123958558I-150000J0D01*
G01*
X110413059Y123958558D01*
G75*
G02*
X110263059Y124108558I0J150000D01*
G01*
X110263059Y125283558D01*
G75*
G02*
X110413059Y125433558I150000J0D01*
G01*
G37*
G36*
G01*
X108513059Y125433558D02*
X108813059Y125433558D01*
G75*
G02*
X108963059Y125283558I0J-150000D01*
G01*
X108963059Y124108558D01*
G75*
G02*
X108813059Y123958558I-150000J0D01*
G01*
X108513059Y123958558D01*
G75*
G02*
X108363059Y124108558I0J150000D01*
G01*
X108363059Y125283558D01*
G75*
G02*
X108513059Y125433558I150000J0D01*
G01*
G37*
%TD*%
%TO.C,D5*%
G36*
G01*
X48344309Y104364808D02*
X48644309Y104364808D01*
G75*
G02*
X48794309Y104214808I0J-150000D01*
G01*
X48794309Y103039808D01*
G75*
G02*
X48644309Y102889808I-150000J0D01*
G01*
X48344309Y102889808D01*
G75*
G02*
X48194309Y103039808I0J150000D01*
G01*
X48194309Y104214808D01*
G75*
G02*
X48344309Y104364808I150000J0D01*
G01*
G37*
G36*
G01*
X49294309Y106239808D02*
X49594309Y106239808D01*
G75*
G02*
X49744309Y106089808I0J-150000D01*
G01*
X49744309Y104914808D01*
G75*
G02*
X49594309Y104764808I-150000J0D01*
G01*
X49294309Y104764808D01*
G75*
G02*
X49144309Y104914808I0J150000D01*
G01*
X49144309Y106089808D01*
G75*
G02*
X49294309Y106239808I150000J0D01*
G01*
G37*
G36*
G01*
X47394309Y106239808D02*
X47694309Y106239808D01*
G75*
G02*
X47844309Y106089808I0J-150000D01*
G01*
X47844309Y104914808D01*
G75*
G02*
X47694309Y104764808I-150000J0D01*
G01*
X47394309Y104764808D01*
G75*
G02*
X47244309Y104914808I0J150000D01*
G01*
X47244309Y106089808D01*
G75*
G02*
X47394309Y106239808I150000J0D01*
G01*
G37*
%TD*%
%TO.C,D4*%
G36*
G01*
X81181809Y68096058D02*
X81481809Y68096058D01*
G75*
G02*
X81631809Y67946058I0J-150000D01*
G01*
X81631809Y66771058D01*
G75*
G02*
X81481809Y66621058I-150000J0D01*
G01*
X81181809Y66621058D01*
G75*
G02*
X81031809Y66771058I0J150000D01*
G01*
X81031809Y67946058D01*
G75*
G02*
X81181809Y68096058I150000J0D01*
G01*
G37*
G36*
G01*
X82131809Y69971058D02*
X82431809Y69971058D01*
G75*
G02*
X82581809Y69821058I0J-150000D01*
G01*
X82581809Y68646058D01*
G75*
G02*
X82431809Y68496058I-150000J0D01*
G01*
X82131809Y68496058D01*
G75*
G02*
X81981809Y68646058I0J150000D01*
G01*
X81981809Y69821058D01*
G75*
G02*
X82131809Y69971058I150000J0D01*
G01*
G37*
G36*
G01*
X80231809Y69971058D02*
X80531809Y69971058D01*
G75*
G02*
X80681809Y69821058I0J-150000D01*
G01*
X80681809Y68646058D01*
G75*
G02*
X80531809Y68496058I-150000J0D01*
G01*
X80231809Y68496058D01*
G75*
G02*
X80081809Y68646058I0J150000D01*
G01*
X80081809Y69821058D01*
G75*
G02*
X80231809Y69971058I150000J0D01*
G01*
G37*
%TD*%
%TO.C,D3*%
G36*
G01*
X51831809Y104364808D02*
X52131809Y104364808D01*
G75*
G02*
X52281809Y104214808I0J-150000D01*
G01*
X52281809Y103039808D01*
G75*
G02*
X52131809Y102889808I-150000J0D01*
G01*
X51831809Y102889808D01*
G75*
G02*
X51681809Y103039808I0J150000D01*
G01*
X51681809Y104214808D01*
G75*
G02*
X51831809Y104364808I150000J0D01*
G01*
G37*
G36*
G01*
X52781809Y106239808D02*
X53081809Y106239808D01*
G75*
G02*
X53231809Y106089808I0J-150000D01*
G01*
X53231809Y104914808D01*
G75*
G02*
X53081809Y104764808I-150000J0D01*
G01*
X52781809Y104764808D01*
G75*
G02*
X52631809Y104914808I0J150000D01*
G01*
X52631809Y106089808D01*
G75*
G02*
X52781809Y106239808I150000J0D01*
G01*
G37*
G36*
G01*
X50881809Y106239808D02*
X51181809Y106239808D01*
G75*
G02*
X51331809Y106089808I0J-150000D01*
G01*
X51331809Y104914808D01*
G75*
G02*
X51181809Y104764808I-150000J0D01*
G01*
X50881809Y104764808D01*
G75*
G02*
X50731809Y104914808I0J150000D01*
G01*
X50731809Y106089808D01*
G75*
G02*
X50881809Y106239808I150000J0D01*
G01*
G37*
%TD*%
%TO.C,D2*%
G36*
G01*
X75331809Y105952308D02*
X75631809Y105952308D01*
G75*
G02*
X75781809Y105802308I0J-150000D01*
G01*
X75781809Y104627308D01*
G75*
G02*
X75631809Y104477308I-150000J0D01*
G01*
X75331809Y104477308D01*
G75*
G02*
X75181809Y104627308I0J150000D01*
G01*
X75181809Y105802308D01*
G75*
G02*
X75331809Y105952308I150000J0D01*
G01*
G37*
G36*
G01*
X76281809Y107827308D02*
X76581809Y107827308D01*
G75*
G02*
X76731809Y107677308I0J-150000D01*
G01*
X76731809Y106502308D01*
G75*
G02*
X76581809Y106352308I-150000J0D01*
G01*
X76281809Y106352308D01*
G75*
G02*
X76131809Y106502308I0J150000D01*
G01*
X76131809Y107677308D01*
G75*
G02*
X76281809Y107827308I150000J0D01*
G01*
G37*
G36*
G01*
X74381809Y107827308D02*
X74681809Y107827308D01*
G75*
G02*
X74831809Y107677308I0J-150000D01*
G01*
X74831809Y106502308D01*
G75*
G02*
X74681809Y106352308I-150000J0D01*
G01*
X74381809Y106352308D01*
G75*
G02*
X74231809Y106502308I0J150000D01*
G01*
X74231809Y107677308D01*
G75*
G02*
X74381809Y107827308I150000J0D01*
G01*
G37*
%TD*%
%TO.C,D1*%
G36*
G01*
X75081809Y127221058D02*
X75381809Y127221058D01*
G75*
G02*
X75531809Y127071058I0J-150000D01*
G01*
X75531809Y125896058D01*
G75*
G02*
X75381809Y125746058I-150000J0D01*
G01*
X75081809Y125746058D01*
G75*
G02*
X74931809Y125896058I0J150000D01*
G01*
X74931809Y127071058D01*
G75*
G02*
X75081809Y127221058I150000J0D01*
G01*
G37*
G36*
G01*
X76031809Y129096058D02*
X76331809Y129096058D01*
G75*
G02*
X76481809Y128946058I0J-150000D01*
G01*
X76481809Y127771058D01*
G75*
G02*
X76331809Y127621058I-150000J0D01*
G01*
X76031809Y127621058D01*
G75*
G02*
X75881809Y127771058I0J150000D01*
G01*
X75881809Y128946058D01*
G75*
G02*
X76031809Y129096058I150000J0D01*
G01*
G37*
G36*
G01*
X74131809Y129096058D02*
X74431809Y129096058D01*
G75*
G02*
X74581809Y128946058I0J-150000D01*
G01*
X74581809Y127771058D01*
G75*
G02*
X74431809Y127621058I-150000J0D01*
G01*
X74131809Y127621058D01*
G75*
G02*
X73981809Y127771058I0J150000D01*
G01*
X73981809Y128946058D01*
G75*
G02*
X74131809Y129096058I150000J0D01*
G01*
G37*
%TD*%
M02*
