M48
; DRILL file {KiCad (5.1.10-1-10_14)} date Saturday, May 29, 2021 at 08:47:49 PM
; FORMAT={-:-/ absolute / metric / decimal}
; #@! TF.CreationDate,2021-05-29T20:47:49+07:00
; #@! TF.GenerationSoftware,Kicad,Pcbnew,(5.1.10-1-10_14)
FMAT,2
METRIC
T1C0.300
T2C0.400
T3C0.600
T4C0.813
T5C0.850
T6C1.000
T7C1.500
T8C2.200
T9C0.650
T10C0.900
T11C1.750
T12C3.000
T13C3.048
T14C3.988
%
G90
G05
T1
X189.249Y32.467
X190.519Y32.467
X191.789Y32.467
X193.059Y32.467
X194.329Y32.467
X195.599Y32.467
X196.869Y32.467
X197.123Y29.927
X197.123Y28.657
X197.123Y27.387
X197.123Y26.117
X197.123Y24.847
X197.123Y23.577
X197.123Y22.307
X197.123Y21.037
T2
X187.902Y125.819
X189.902Y128.929
X191.315Y129.011
X191.382Y130.009
X194.122Y128.559
X194.862Y129.889
T4
X318.632Y49.149
X318.632Y46.609
X318.632Y44.069
X318.632Y41.529
T5
X172.142Y130.499
X172.152Y128.119
X174.682Y130.499
X174.692Y128.119
X177.222Y130.499
X177.232Y128.119
X179.762Y130.499
X179.772Y128.119
T6
X29.877Y92.274
X29.877Y77.774
X32.377Y77.774
X33.947Y111.324
X33.947Y96.824
X34.877Y92.274
X34.877Y77.774
X36.447Y96.824
X38.107Y130.374
X38.107Y115.874
X38.947Y111.324
X38.947Y96.824
X40.607Y115.874
X43.107Y130.374
X43.107Y115.874
X340.592Y-29.781
X343.092Y-29.781
T8
X366.482Y-12.701
X372.432Y-12.701
X377.792Y-19.321
X378.382Y-13.371
X383.742Y-19.321
X386.972Y-25.941
X392.922Y-25.941
X395.392Y-32.841
X401.342Y-32.841
X404.812Y-39.461
X406.242Y-46.081
T9
X188.862Y133.454
X188.862Y133.454
X194.642Y133.454
X194.642Y133.454
T10
X208.622Y32.679
X211.622Y32.679
T11
X27.297Y85.274
X31.367Y104.324
X35.527Y123.374
X37.457Y85.274
X41.527Y104.324
X45.687Y123.374
X50.917Y45.034
X52.701Y83.134
X57.463Y83.134
X58.051Y64.084
X58.547Y121.234
X59.144Y102.184
X61.077Y45.034
X62.861Y83.134
X67.623Y83.134
X68.211Y64.084
X68.707Y121.234
X69.304Y102.184
X77.597Y121.234
X82.957Y102.184
X83.657Y83.134
X87.757Y121.234
X89.007Y64.084
X93.117Y102.184
X93.817Y83.134
X96.237Y123.374
X99.167Y64.084
X103.568Y103.82
X104.268Y84.19
X104.808Y43.59
X106.397Y123.374
X109.618Y63.58
X113.506Y101.707
X114.206Y82.077
X114.746Y41.477
X116.848Y120.47
X119.556Y61.467
X122.202Y99.859
X122.902Y80.229
X126.786Y118.357
X128.252Y59.619
X132.14Y97.747
X132.84Y78.117
X135.482Y116.509
X138.046Y38.062
X138.19Y57.507
X140.338Y37.57
X140.835Y95.898
X141.535Y76.268
X145.42Y114.397
X146.885Y55.658
X147.984Y35.949
X150.276Y35.457
X150.773Y93.786
X151.473Y74.156
X154.115Y112.548
X156.823Y53.546
X159.469Y91.938
X160.169Y72.308
X164.053Y110.436
X165.519Y51.698
X168.343Y31.622
X169.407Y89.825
X170.107Y70.195
X170.658Y31.13
X172.749Y108.588
X175.457Y49.585
X178.281Y29.509
X180.596Y29.017
X182.687Y106.475
X195.547Y87.845
X198.807Y49.585
X200.907Y108.455
X203.913Y69.93
X205.485Y89.958
X208.745Y51.698
X210.845Y110.568
X213.851Y72.042
X214.18Y91.806
X217.44Y53.546
X219.108Y34.417
X219.54Y112.416
X222.8Y74.156
X224.118Y93.918
X227.378Y55.658
X229.046Y36.53
X229.478Y114.528
X231.694Y95.33
X232.738Y76.268
X236.074Y57.507
X238.174Y116.377
X241.434Y78.117
X241.632Y97.442
X246.012Y59.619
X248.112Y118.489
X251.372Y80.229
X251.448Y99.727
X254.708Y61.467
X256.808Y120.337
X259.518Y41.477
X260.068Y82.077
X261.386Y101.84
X264.646Y63.58
X266.746Y122.45
X269.456Y43.59
X270.006Y84.19
X271.837Y103.244
X275.097Y64.084
X277.197Y123.374
X280.457Y83.134
X281.997Y103.244
X285.257Y64.084
X287.357Y123.374
X290.467Y102.184
X290.617Y83.134
X294.147Y64.084
X295.827Y121.234
X299.507Y83.134
X300.627Y102.184
X304.307Y64.084
X305.987Y121.234
X309.517Y102.184
X309.667Y83.134
X314.877Y121.234
X319.677Y102.184
X320.341Y64.084
X324.402Y121.234
X325.037Y121.234
X329.867Y64.084
X330.463Y83.134
X330.501Y64.084
X333.329Y102.184
X333.927Y121.234
X334.562Y121.234
X338.092Y44.986
X340.027Y64.084
X340.623Y83.134
X343.489Y102.184
X344.087Y121.234
X346.534Y64.084
X348.252Y44.986
X356.694Y64.084
T12
X28.567Y87.814
X32.637Y106.864
X34.917Y90.354
X36.797Y125.914
X38.987Y109.404
X43.147Y128.454
X52.187Y47.574
X55.241Y78.054
X58.537Y50.114
X58.733Y85.674
X59.321Y66.624
X59.817Y123.774
X60.414Y104.724
X61.591Y80.594
X65.083Y88.214
X65.671Y69.164
X66.167Y126.314
X66.764Y107.264
X78.867Y123.774
X84.227Y104.724
X84.927Y85.674
X85.217Y126.314
X90.277Y66.624
X90.577Y107.264
X91.277Y88.214
X96.627Y69.164
X97.507Y125.914
X103.857Y128.454
X105.338Y106.04
X106.038Y86.41
X106.578Y45.81
X111.388Y65.8
X112.077Y107.204
X112.777Y87.574
X113.317Y46.974
X118.127Y66.964
X118.618Y122.69
X123.972Y102.079
X124.672Y82.449
X125.357Y123.854
X130.022Y61.839
X130.711Y103.244
X131.411Y83.614
X136.761Y63.004
X137.252Y118.729
X139.817Y40.282
X141.766Y32.073
X142.606Y98.119
X143.306Y78.489
X143.991Y119.894
X146.556Y41.446
X148.505Y33.237
X148.656Y57.879
X149.345Y99.283
X150.045Y79.653
X155.395Y59.043
X155.886Y114.769
X161.239Y94.158
X161.939Y74.528
X162.625Y115.933
X167.289Y53.918
X167.979Y95.322
X168.679Y75.692
X170.113Y33.842
X172.086Y25.633
X174.029Y55.082
X174.519Y110.808
X176.853Y35.007
X178.825Y26.797
X181.259Y111.972
X196.261Y90.594
X199.521Y52.334
X201.621Y111.204
X201.944Y94.398
X204.627Y72.678
X205.204Y56.138
X207.304Y115.008
X210.31Y76.483
X214.895Y94.554
X218.155Y56.294
X219.822Y37.166
X220.255Y115.164
X220.578Y98.359
X223.515Y76.904
X223.838Y60.099
X225.505Y40.971
X225.938Y118.969
X229.198Y80.709
X232.408Y98.078
X236.788Y60.255
X238.091Y101.883
X238.888Y119.125
X242.148Y80.865
X242.471Y64.06
X244.571Y122.93
X247.831Y84.67
X252.162Y102.476
X255.422Y64.216
X257.522Y123.086
X257.845Y106.281
X260.232Y44.226
X260.782Y84.826
X261.105Y68.021
X263.205Y126.891
X265.915Y48.031
X266.465Y88.631
X273.107Y105.784
X276.367Y66.624
X278.467Y125.914
X279.457Y108.324
X281.727Y85.674
X282.717Y69.164
X284.817Y128.454
X288.077Y88.214
X291.737Y104.724
X295.417Y66.624
X297.097Y123.774
X298.087Y107.264
X300.777Y85.674
X301.767Y69.164
X303.447Y126.314
X307.127Y88.214
X310.787Y104.724
X317.137Y107.264
X317.417Y116.154
X321.611Y66.624
X323.767Y118.694
X325.672Y123.774
X327.961Y69.164
X331.137Y66.624
X331.733Y85.674
X332.022Y126.314
X334.599Y104.724
X336.467Y116.154
X337.487Y69.164
X338.083Y88.214
X339.362Y47.526
X340.949Y107.264
X342.817Y118.694
X345.712Y50.066
X347.804Y66.624
X354.154Y69.164
T13
X51.193Y71.069
X75.069Y71.069
X129.886Y32.655
X132.177Y32.163
X153.24Y27.691
X155.532Y27.199
X213.852Y26.159
X237.206Y31.123
X317.544Y128.219
X323.009Y71.069
X323.605Y76.149
X341.42Y128.219
X346.885Y71.069
X347.481Y76.149
T14
X32.377Y85.274
X36.447Y104.324
X40.607Y123.374
X51.193Y55.829
X55.997Y45.034
X57.781Y83.134
X62.543Y83.134
X63.131Y64.084
X63.627Y121.234
X64.224Y102.184
X75.069Y55.829
X82.677Y121.234
X88.037Y102.184
X88.737Y83.134
X94.087Y64.084
X101.317Y123.374
X108.537Y102.764
X109.237Y83.134
X109.777Y42.534
X114.587Y62.524
X121.817Y119.414
X127.171Y98.803
X127.871Y79.173
X133.055Y47.562
X133.221Y58.563
X135.346Y47.07
X140.451Y115.453
X143.015Y37.005
X145.307Y36.514
X145.804Y94.842
X146.504Y75.212
X151.854Y54.602
X156.409Y42.598
X158.7Y42.106
X159.084Y111.492
X164.438Y90.881
X165.138Y71.251
X170.488Y50.641
X173.312Y30.566
X175.627Y30.074
X177.718Y107.531
X200.516Y88.901
X203.776Y50.641
X205.876Y109.511
X208.882Y70.986
X210.683Y41.066
X219.149Y92.862
X222.409Y54.602
X224.077Y35.474
X224.509Y113.472
X227.769Y75.212
X234.038Y46.03
X236.663Y96.386
X241.043Y58.563
X243.143Y117.433
X246.403Y79.173
X256.417Y100.784
X259.677Y62.524
X261.777Y121.394
X264.487Y42.534
X265.037Y83.134
X276.917Y103.244
X280.177Y64.084
X282.277Y123.374
X285.537Y83.134
X295.547Y102.184
X299.227Y64.084
X300.907Y121.234
X304.587Y83.134
X314.597Y102.184
X317.544Y112.979
X319.957Y121.234
X323.009Y55.829
X323.605Y91.389
X325.421Y64.084
X329.482Y121.234
X334.947Y64.084
X335.543Y83.134
X338.409Y102.184
X339.007Y121.234
X341.42Y112.979
X343.172Y44.986
X346.885Y55.829
X347.481Y91.389
X351.614Y64.084
T3
G00X187.432Y136.804
M15
G01X187.432Y137.404
M16
G05
G00X187.432Y137.404
M15
G01X187.432Y136.804
M16
G05
G00X187.432Y132.374
M15
G01X187.432Y133.474
M16
G05
G00X187.432Y133.474
M15
G01X187.432Y132.374
M16
G05
G00X196.072Y136.804
M15
G01X196.072Y137.404
M16
G05
G00X196.072Y137.404
M15
G01X196.072Y136.804
M16
G05
G00X196.072Y132.374
M15
G01X196.072Y133.474
M16
G05
G00X196.072Y133.474
M15
G01X196.072Y132.374
M16
G05
T7
G00X26.777Y84.624
M15
G01X26.777Y85.924
M16
G05
G00X30.847Y103.674
M15
G01X30.847Y104.974
M16
G05
G00X35.007Y122.724
M15
G01X35.007Y124.024
M16
G05
G00X37.977Y84.624
M15
G01X37.977Y85.924
M16
G05
G00X42.047Y103.674
M15
G01X42.047Y104.974
M16
G05
G00X46.207Y122.724
M15
G01X46.207Y124.024
M16
G05
T0
M30
