%TF.GenerationSoftware,KiCad,Pcbnew,(5.1.10-1-10_14)*%
%TF.CreationDate,2021-05-29T20:47:56+07:00*%
%TF.ProjectId,geulis,6765756c-6973-42e6-9b69-6361645f7063,rev?*%
%TF.SameCoordinates,Original*%
%TF.FileFunction,Soldermask,Top*%
%TF.FilePolarity,Negative*%
%FSLAX46Y46*%
G04 Gerber Fmt 4.6, Leading zero omitted, Abs format (unit mm)*
G04 Created by KiCad (PCBNEW (5.1.10-1-10_14)) date 2021-05-29 20:47:56*
%MOMM*%
%LPD*%
G01*
G04 APERTURE LIST*
%ADD10R,0.600000X1.450000*%
%ADD11R,0.300000X1.450000*%
%ADD12O,1.000000X2.100000*%
%ADD13C,0.650000*%
%ADD14O,1.000000X1.600000*%
%ADD15R,1.000000X0.650000*%
%ADD16R,0.650000X1.000000*%
%ADD17R,1.700000X1.000000*%
%ADD18R,1.000000X0.800000*%
%ADD19R,0.700000X1.500000*%
%ADD20C,0.900000*%
%ADD21C,1.397000*%
%ADD22R,1.270000X1.270000*%
%ADD23O,1.270000X1.270000*%
%ADD24O,1.700000X2.000000*%
%ADD25C,4.400000*%
%ADD26C,1.750000*%
%ADD27C,3.000000*%
%ADD28C,3.987800*%
%ADD29C,3.048000*%
%ADD30C,2.000000*%
%ADD31R,2.000000X3.200000*%
%ADD32R,2.000000X2.000000*%
G04 APERTURE END LIST*
D10*
%TO.C,J1*%
X188501809Y132008558D03*
X189301809Y132008558D03*
X194201809Y132008558D03*
X195001809Y132008558D03*
X195001809Y132008558D03*
X194201809Y132008558D03*
X189301809Y132008558D03*
X188501809Y132008558D03*
D11*
X193501809Y132008558D03*
X193001809Y132008558D03*
X192501809Y132008558D03*
X191501809Y132008558D03*
X191001809Y132008558D03*
X190501809Y132008558D03*
X190001809Y132008558D03*
X192001809Y132008558D03*
D12*
X187431809Y132923558D03*
X196071809Y132923558D03*
D13*
X194641809Y133453558D03*
D14*
X196071809Y137103558D03*
D13*
X188861809Y133453558D03*
D14*
X187431809Y137103558D03*
%TD*%
D15*
%TO.C,U3*%
X197122809Y29926558D03*
X197122809Y28656558D03*
X197122809Y27386558D03*
X197122809Y26116558D03*
X197122809Y24846558D03*
X197122809Y23576558D03*
X197122809Y22306558D03*
X197122809Y21036558D03*
D16*
X190518809Y32466558D03*
X189248809Y32466558D03*
X194328809Y32466558D03*
X191788809Y32466558D03*
X195598809Y32466558D03*
X196868809Y32466558D03*
X193058809Y32466558D03*
%TD*%
D17*
%TO.C,SW_RESET1*%
X243031809Y36938558D03*
X236731809Y36938558D03*
X243031809Y40738558D03*
X236731809Y40738558D03*
%TD*%
D18*
%TO.C,SW67*%
X206471809Y33788558D03*
X213771809Y33788558D03*
X213771809Y31578558D03*
X206471809Y31578558D03*
D19*
X212371809Y34438558D03*
X210871809Y34438558D03*
X207871809Y34438558D03*
D20*
X211621809Y32678558D03*
X208621809Y32678558D03*
%TD*%
D21*
%TO.C,OL1*%
X318631809Y49148558D03*
X318631809Y46608558D03*
X318631809Y44068558D03*
X318631809Y41528558D03*
%TD*%
D22*
%TO.C,J5*%
X172141809Y130498558D03*
D23*
X174681809Y130498558D03*
X177221809Y130498558D03*
X179761809Y130498558D03*
%TD*%
D24*
%TO.C,J4*%
X343091809Y-29781442D03*
G36*
G01*
X339741809Y-30531442D02*
X339741809Y-29031442D01*
G75*
G02*
X339991809Y-28781442I250000J0D01*
G01*
X341191809Y-28781442D01*
G75*
G02*
X341441809Y-29031442I0J-250000D01*
G01*
X341441809Y-30531442D01*
G75*
G02*
X341191809Y-30781442I-250000J0D01*
G01*
X339991809Y-30781442D01*
G75*
G02*
X339741809Y-30531442I0J250000D01*
G01*
G37*
%TD*%
D23*
%TO.C,J3*%
X172151809Y128118558D03*
X174691809Y128118558D03*
D22*
X177231809Y128118558D03*
D23*
X179771809Y128118558D03*
%TD*%
D12*
%TO.C,J2*%
X196071809Y132923558D03*
X187431809Y132923558D03*
D13*
X188861809Y133453558D03*
D14*
X187431809Y137103558D03*
D13*
X194641809Y133453558D03*
D14*
X196071809Y137103558D03*
%TD*%
D25*
%TO.C,H13*%
X386971809Y-25941442D03*
%TD*%
%TO.C,H12*%
X377791809Y-19321442D03*
%TD*%
%TO.C,H11*%
X372431809Y-12701442D03*
%TD*%
%TO.C,H10*%
X406241809Y-46081442D03*
%TD*%
%TO.C,H9*%
X395391809Y-32841442D03*
%TD*%
%TO.C,H8*%
X404811809Y-39461442D03*
%TD*%
%TO.C,H7*%
X383741809Y-19321442D03*
%TD*%
%TO.C,H5*%
X366481809Y-12701442D03*
%TD*%
%TO.C,H4*%
X401341809Y-32841442D03*
%TD*%
%TO.C,H3*%
X392921809Y-25941442D03*
%TD*%
%TO.C,H2*%
X378381809Y-13371442D03*
%TD*%
D26*
%TO.C,SW10*%
X248112087Y118489032D03*
X238174107Y116376650D03*
D27*
X238888259Y119125192D03*
D28*
X243143097Y117432841D03*
D27*
X244571401Y122929927D03*
%TD*%
D26*
%TO.C,SW9*%
X229478375Y114528314D03*
X219540395Y112415932D03*
D27*
X220254547Y115164474D03*
D28*
X224509385Y113472123D03*
D27*
X225937689Y118969209D03*
%TD*%
D26*
%TO.C,SW65*%
X348252409Y44985558D03*
X338092409Y44985558D03*
D27*
X339362409Y47525558D03*
D28*
X343172409Y44985558D03*
D27*
X345712409Y50065558D03*
%TD*%
D26*
%TO.C,SW62_2*%
X170657819Y31129749D03*
X180595799Y29017367D03*
D27*
X178825456Y26796920D03*
D28*
X175626809Y30073558D03*
D27*
X172086123Y25632664D03*
%TD*%
D28*
%TO.C,SW55_2*%
X323008809Y55828558D03*
X346884809Y55828558D03*
D29*
X323008809Y71068558D03*
X346884809Y71068558D03*
D26*
X340026809Y64083558D03*
X329866809Y64083558D03*
D27*
X331136809Y66623558D03*
D28*
X334946809Y64083558D03*
D27*
X337486809Y69163558D03*
%TD*%
D28*
%TO.C,SW61_2*%
X158700246Y42106117D03*
X135345994Y47070216D03*
D29*
X155531672Y27199147D03*
X132177420Y32163247D03*
D26*
X140337819Y37569749D03*
X150275799Y35457367D03*
D27*
X148505456Y33236920D03*
D28*
X145306809Y36513558D03*
D27*
X141766123Y32072664D03*
%TD*%
D26*
%TO.C,SW30_2*%
X52700559Y83133558D03*
X62860559Y83133558D03*
D27*
X61590559Y80593558D03*
D28*
X57780559Y83133558D03*
D27*
X55240559Y78053558D03*
%TD*%
D26*
%TO.C,SW14_2*%
X314876809Y121233558D03*
X325036809Y121233558D03*
D27*
X323766809Y118693558D03*
D28*
X319956809Y121233558D03*
D27*
X317416809Y116153558D03*
%TD*%
D26*
%TO.C,SW66*%
X333926809Y121233558D03*
X344086809Y121233558D03*
D27*
X342816809Y118693558D03*
D28*
X339006809Y121233558D03*
D27*
X336466809Y116153558D03*
%TD*%
D28*
%TO.C,SW42*%
X323605059Y91388558D03*
X347481059Y91388558D03*
D29*
X323605059Y76148558D03*
X347481059Y76148558D03*
D26*
X340623059Y83133558D03*
X330463059Y83133558D03*
D27*
X331733059Y85673558D03*
D28*
X335543059Y83133558D03*
D27*
X338083059Y88213558D03*
%TD*%
D26*
%TO.C,SW15*%
X69304309Y102183558D03*
X59144309Y102183558D03*
D27*
X60414309Y104723558D03*
D28*
X64224309Y102183558D03*
D27*
X66764309Y107263558D03*
%TD*%
D30*
%TO.C,SW_57_2*%
X38946809Y111323558D03*
X33946809Y111323558D03*
D31*
X42046809Y104323558D03*
X30846809Y104323558D03*
D30*
X38946809Y96823558D03*
X36446809Y96823558D03*
D32*
X33946809Y96823558D03*
%TD*%
D30*
%TO.C,SW58_2*%
X34876809Y92273558D03*
X29876809Y92273558D03*
D31*
X37976809Y85273558D03*
X26776809Y85273558D03*
D30*
X34876809Y77773558D03*
X32376809Y77773558D03*
D32*
X29876809Y77773558D03*
%TD*%
D30*
%TO.C,SW29_2*%
X43106809Y130373558D03*
X38106809Y130373558D03*
D31*
X46206809Y123373558D03*
X35006809Y123373558D03*
D30*
X43106809Y115873558D03*
X40606809Y115873558D03*
D32*
X38106809Y115873558D03*
%TD*%
D26*
%TO.C,SW64*%
X269455799Y43589749D03*
X259517819Y41477367D03*
D27*
X260231971Y44225909D03*
D28*
X264486809Y42533558D03*
D27*
X265915113Y48030644D03*
%TD*%
D28*
%TO.C,SW63*%
X210683372Y41066117D03*
X234037624Y46030216D03*
D29*
X213851946Y26159147D03*
X237206198Y31123247D03*
D26*
X229045799Y36529749D03*
X219107819Y34417367D03*
D27*
X219821971Y37165909D03*
D28*
X224076809Y35473558D03*
D27*
X225505113Y40970644D03*
%TD*%
D26*
%TO.C,SW62*%
X178280819Y29509432D03*
X168342839Y31621814D03*
D27*
X170113182Y33842261D03*
D28*
X173311829Y30565623D03*
D27*
X176852515Y35006517D03*
%TD*%
D28*
%TO.C,SW61*%
X133054553Y47561992D03*
X156408805Y42597893D03*
D29*
X129885979Y32655023D03*
X153240231Y27690923D03*
D26*
X147984358Y35949143D03*
X138046378Y38061525D03*
D27*
X139816721Y40281972D03*
D28*
X143015368Y37005334D03*
D27*
X146556054Y41446228D03*
%TD*%
D26*
%TO.C,SW60*%
X114745799Y41477367D03*
X104807819Y43589749D03*
D27*
X106578162Y45810196D03*
D28*
X109776809Y42533558D03*
D27*
X113317495Y46974452D03*
%TD*%
D26*
%TO.C,SW59*%
X61076809Y45033558D03*
X50916809Y45033558D03*
D27*
X52186809Y47573558D03*
D28*
X55996809Y45033558D03*
D27*
X58536809Y50113558D03*
%TD*%
D26*
%TO.C,SW58*%
X37456809Y85273558D03*
X27296809Y85273558D03*
D27*
X28566809Y87813558D03*
D28*
X32376809Y85273558D03*
D27*
X34916809Y90353558D03*
%TD*%
D26*
%TO.C,SW57*%
X41526809Y104323558D03*
X31366809Y104323558D03*
D27*
X32636809Y106863558D03*
D28*
X36446809Y104323558D03*
D27*
X38986809Y109403558D03*
%TD*%
D26*
%TO.C,SW56*%
X356694309Y64083558D03*
X346534309Y64083558D03*
D27*
X347804309Y66623558D03*
D28*
X351614309Y64083558D03*
D27*
X354154309Y69163558D03*
%TD*%
D26*
%TO.C,SW55*%
X330500559Y64083558D03*
X320340559Y64083558D03*
D27*
X321610559Y66623558D03*
D28*
X325420559Y64083558D03*
D27*
X327960559Y69163558D03*
%TD*%
D26*
%TO.C,SW54*%
X304306809Y64083558D03*
X294146809Y64083558D03*
D27*
X295416809Y66623558D03*
D28*
X299226809Y64083558D03*
D27*
X301766809Y69163558D03*
%TD*%
D26*
%TO.C,SW53*%
X285256809Y64083558D03*
X275096809Y64083558D03*
D27*
X276366809Y66623558D03*
D28*
X280176809Y64083558D03*
D27*
X282716809Y69163558D03*
%TD*%
D26*
%TO.C,SW52*%
X264645799Y63579749D03*
X254707819Y61467367D03*
D27*
X255421971Y64215909D03*
D28*
X259676809Y62523558D03*
D27*
X261105113Y68020644D03*
%TD*%
D26*
%TO.C,SW51*%
X246012087Y59619032D03*
X236074107Y57506650D03*
D27*
X236788259Y60255192D03*
D28*
X241043097Y58562841D03*
D27*
X242471401Y64059927D03*
%TD*%
D26*
%TO.C,SW50*%
X227378375Y55658314D03*
X217440395Y53545932D03*
D27*
X218154547Y56294474D03*
D28*
X222409385Y54602123D03*
D27*
X223837689Y60099209D03*
%TD*%
D26*
%TO.C,SW49*%
X208744663Y51697596D03*
X198806683Y49585214D03*
D27*
X199520835Y52333756D03*
D28*
X203775673Y50641405D03*
D27*
X205203977Y56138491D03*
%TD*%
D26*
%TO.C,SW48*%
X175456934Y49585214D03*
X165518954Y51697596D03*
D27*
X167289297Y53918043D03*
D28*
X170487944Y50641405D03*
D27*
X174028630Y55082299D03*
%TD*%
D26*
%TO.C,SW47*%
X156823222Y53545932D03*
X146885242Y55658314D03*
D27*
X148655585Y57878761D03*
D28*
X151854232Y54602123D03*
D27*
X155394918Y59043017D03*
%TD*%
D26*
%TO.C,SW46*%
X138189511Y57506650D03*
X128251531Y59619032D03*
D27*
X130021874Y61839479D03*
D28*
X133220521Y58562841D03*
D27*
X136761207Y63003735D03*
%TD*%
D26*
%TO.C,SW45*%
X119555799Y61467367D03*
X109617819Y63579749D03*
D27*
X111388162Y65800196D03*
D28*
X114586809Y62523558D03*
D27*
X118127495Y66964452D03*
%TD*%
D26*
%TO.C,SW44*%
X99166809Y64083558D03*
X89006809Y64083558D03*
D27*
X90276809Y66623558D03*
D28*
X94086809Y64083558D03*
D27*
X96626809Y69163558D03*
%TD*%
D28*
%TO.C,SW43*%
X51192559Y55828558D03*
X75068559Y55828558D03*
D29*
X51192559Y71068558D03*
X75068559Y71068558D03*
D26*
X68210559Y64083558D03*
X58050559Y64083558D03*
D27*
X59320559Y66623558D03*
D28*
X63130559Y64083558D03*
D27*
X65670559Y69163558D03*
%TD*%
D26*
%TO.C,SW41*%
X309666809Y83133558D03*
X299506809Y83133558D03*
D27*
X300776809Y85673558D03*
D28*
X304586809Y83133558D03*
D27*
X307126809Y88213558D03*
%TD*%
D26*
%TO.C,SW40*%
X290616809Y83133558D03*
X280456809Y83133558D03*
D27*
X281726809Y85673558D03*
D28*
X285536809Y83133558D03*
D27*
X288076809Y88213558D03*
%TD*%
D26*
%TO.C,SW39*%
X270005799Y84189749D03*
X260067819Y82077367D03*
D27*
X260781971Y84825909D03*
D28*
X265036809Y83133558D03*
D27*
X266465113Y88630644D03*
%TD*%
D26*
%TO.C,SW38*%
X251372087Y80229032D03*
X241434107Y78116650D03*
D27*
X242148259Y80865192D03*
D28*
X246403097Y79172841D03*
D27*
X247831401Y84669927D03*
%TD*%
D26*
%TO.C,SW37*%
X232738375Y76268314D03*
X222800395Y74155932D03*
D27*
X223514547Y76904474D03*
D28*
X227769385Y75212123D03*
D27*
X229197689Y80709209D03*
%TD*%
D26*
%TO.C,SW36*%
X213850799Y72042249D03*
X203912819Y69929867D03*
D27*
X204626971Y72678409D03*
D28*
X208881809Y70986058D03*
D27*
X210310113Y76483144D03*
%TD*%
D26*
%TO.C,SW35*%
X170106934Y70195214D03*
X160168954Y72307596D03*
D27*
X161939297Y74528043D03*
D28*
X165137944Y71251405D03*
D27*
X168678630Y75692299D03*
%TD*%
D26*
%TO.C,SW34*%
X151473222Y74155932D03*
X141535242Y76268314D03*
D27*
X143305585Y78488761D03*
D28*
X146504232Y75212123D03*
D27*
X150044918Y79653017D03*
%TD*%
D26*
%TO.C,SW33*%
X132839511Y78116650D03*
X122901531Y80229032D03*
D27*
X124671874Y82449479D03*
D28*
X127870521Y79172841D03*
D27*
X131411207Y83613735D03*
%TD*%
D26*
%TO.C,SW32*%
X114205799Y82077367D03*
X104267819Y84189749D03*
D27*
X106038162Y86410196D03*
D28*
X109236809Y83133558D03*
D27*
X112777495Y87574452D03*
%TD*%
D26*
%TO.C,SW31*%
X93816809Y83133558D03*
X83656809Y83133558D03*
D27*
X84926809Y85673558D03*
D28*
X88736809Y83133558D03*
D27*
X91276809Y88213558D03*
%TD*%
D26*
%TO.C,SW30*%
X67623059Y83133558D03*
X57463059Y83133558D03*
D27*
X58733059Y85673558D03*
D28*
X62543059Y83133558D03*
D27*
X65083059Y88213558D03*
%TD*%
D26*
%TO.C,SW29*%
X45686809Y123373558D03*
X35526809Y123373558D03*
D27*
X36796809Y125913558D03*
D28*
X40606809Y123373558D03*
D27*
X43146809Y128453558D03*
%TD*%
D26*
%TO.C,SW28*%
X343489309Y102183558D03*
X333329309Y102183558D03*
D27*
X334599309Y104723558D03*
D28*
X338409309Y102183558D03*
D27*
X340949309Y107263558D03*
%TD*%
D26*
%TO.C,SW27*%
X319676809Y102183558D03*
X309516809Y102183558D03*
D27*
X310786809Y104723558D03*
D28*
X314596809Y102183558D03*
D27*
X317136809Y107263558D03*
%TD*%
D26*
%TO.C,SW26*%
X300626809Y102183558D03*
X290466809Y102183558D03*
D27*
X291736809Y104723558D03*
D28*
X295546809Y102183558D03*
D27*
X298086809Y107263558D03*
%TD*%
D26*
%TO.C,SW25*%
X281996809Y103243558D03*
X271836809Y103243558D03*
D27*
X273106809Y105783558D03*
D28*
X276916809Y103243558D03*
D27*
X279456809Y108323558D03*
%TD*%
D26*
%TO.C,SW24*%
X261385799Y101839749D03*
X251447819Y99727367D03*
D27*
X252161971Y102475909D03*
D28*
X256416809Y100783558D03*
D27*
X257845113Y106280644D03*
%TD*%
D26*
%TO.C,SW23*%
X241632049Y97442249D03*
X231694069Y95329867D03*
D27*
X232408221Y98078409D03*
D28*
X236663059Y96386058D03*
D27*
X238091363Y101883144D03*
%TD*%
D26*
%TO.C,SW22*%
X224118375Y93918314D03*
X214180395Y91805932D03*
D27*
X214894547Y94554474D03*
D28*
X219149385Y92862123D03*
D27*
X220577689Y98359209D03*
%TD*%
D26*
%TO.C,SW21*%
X205484663Y89957596D03*
X195546683Y87845214D03*
D27*
X196260835Y90593756D03*
D28*
X200515673Y88901405D03*
D27*
X201943977Y94398491D03*
%TD*%
D26*
%TO.C,SW20*%
X169406934Y89825214D03*
X159468954Y91937596D03*
D27*
X161239297Y94158043D03*
D28*
X164437944Y90881405D03*
D27*
X167978630Y95322299D03*
%TD*%
D26*
%TO.C,SW19*%
X150773222Y93785932D03*
X140835242Y95898314D03*
D27*
X142605585Y98118761D03*
D28*
X145804232Y94842123D03*
D27*
X149344918Y99283017D03*
%TD*%
D26*
%TO.C,SW18*%
X132139511Y97746650D03*
X122201531Y99859032D03*
D27*
X123971874Y102079479D03*
D28*
X127170521Y98802841D03*
D27*
X130711207Y103243735D03*
%TD*%
D26*
%TO.C,SW17*%
X113505799Y101707367D03*
X103567819Y103819749D03*
D27*
X105338162Y106040196D03*
D28*
X108536809Y102763558D03*
D27*
X112077495Y107204452D03*
%TD*%
D26*
%TO.C,SW16*%
X93116809Y102183558D03*
X82956809Y102183558D03*
D27*
X84226809Y104723558D03*
D28*
X88036809Y102183558D03*
D27*
X90576809Y107263558D03*
%TD*%
D28*
%TO.C,SW14*%
X317543809Y112978558D03*
X341419809Y112978558D03*
D29*
X317543809Y128218558D03*
X341419809Y128218558D03*
D26*
X334561809Y121233558D03*
X324401809Y121233558D03*
D27*
X325671809Y123773558D03*
D28*
X329481809Y121233558D03*
D27*
X332021809Y126313558D03*
%TD*%
D26*
%TO.C,SW13*%
X305986809Y121233558D03*
X295826809Y121233558D03*
D27*
X297096809Y123773558D03*
D28*
X300906809Y121233558D03*
D27*
X303446809Y126313558D03*
%TD*%
D26*
%TO.C,SW12*%
X287356809Y123373558D03*
X277196809Y123373558D03*
D27*
X278466809Y125913558D03*
D28*
X282276809Y123373558D03*
D27*
X284816809Y128453558D03*
%TD*%
D26*
%TO.C,SW11*%
X266745799Y122449749D03*
X256807819Y120337367D03*
D27*
X257521971Y123085909D03*
D28*
X261776809Y121393558D03*
D27*
X263205113Y126890644D03*
%TD*%
D26*
%TO.C,SW8*%
X210844663Y110567596D03*
X200906683Y108455214D03*
D27*
X201620835Y111203756D03*
D28*
X205875673Y109511405D03*
D27*
X207303977Y115008491D03*
%TD*%
D26*
%TO.C,SW7*%
X182686934Y106475214D03*
X172748954Y108587596D03*
D27*
X174519297Y110808043D03*
D28*
X177717944Y107531405D03*
D27*
X181258630Y111972299D03*
%TD*%
D26*
%TO.C,SW6*%
X164053222Y110435932D03*
X154115242Y112548314D03*
D27*
X155885585Y114768761D03*
D28*
X159084232Y111492123D03*
D27*
X162624918Y115933017D03*
%TD*%
D26*
%TO.C,SW5*%
X145419511Y114396650D03*
X135481531Y116509032D03*
D27*
X137251874Y118729479D03*
D28*
X140450521Y115452841D03*
D27*
X143991207Y119893735D03*
%TD*%
D26*
%TO.C,SW4*%
X126785799Y118357367D03*
X116847819Y120469749D03*
D27*
X118618162Y122690196D03*
D28*
X121816809Y119413558D03*
D27*
X125357495Y123854452D03*
%TD*%
D26*
%TO.C,SW3*%
X106396809Y123373558D03*
X96236809Y123373558D03*
D27*
X97506809Y125913558D03*
D28*
X101316809Y123373558D03*
D27*
X103856809Y128453558D03*
%TD*%
D26*
%TO.C,SW2*%
X87756809Y121233558D03*
X77596809Y121233558D03*
D27*
X78866809Y123773558D03*
D28*
X82676809Y121233558D03*
D27*
X85216809Y126313558D03*
%TD*%
D26*
%TO.C,SW1*%
X68706809Y121233558D03*
X58546809Y121233558D03*
D27*
X59816809Y123773558D03*
D28*
X63626809Y121233558D03*
D27*
X66166809Y126313558D03*
%TD*%
M02*
