  0
SECTION
  2
HEADER
  9
$ACADVER
  1
AC1009
  9
$INSBASE
 10
0.0
 20
0.0
 30
0.0
  9
$EXTMIN
 10
-35.5384970971815619
 20
-22.6056225630186383
 30
0.0
  9
$EXTMAX
 10
702.6907898998276778
 20
294.5132694280828218
 30
0.0
  9
$LIMMIN
 10
0.0
 20
0.0
  9
$LIMMAX
 10
420.0
 20
297.0
  9
$ORTHOMODE
 70
     0
  9
$REGENMODE
 70
     1
  9
$FILLMODE
 70
     1
  9
$QTEXTMODE
 70
     0
  9
$MIRRTEXT
 70
     1
  9
$DRAGMODE
 70
     2
  9
$LTSCALE
 40
1.0
  9
$OSMODE
 70
  2047
  9
$ATTMODE
 70
     1
  9
$TEXTSIZE
 40
3.5
  9
$TRACEWID
 40
1.0
  9
$TEXTSTYLE
  7
STANDARD
  9
$CLAYER
  8
0
  9
$CELTYPE
  6
BYLAYER
  9
$CECOLOR
 62
   256
  9
$DIMSCALE
 40
1.0
  9
$DIMASZ
 40
3.3019999999999992
  9
$DIMEXO
 40
1.0
  9
$DIMDLI
 40
3.75
  9
$DIMRND
 40
0.0
  9
$DIMDLE
 40
0.0
  9
$DIMEXE
 40
1.0
  9
$DIMTP
 40
0.0
  9
$DIMTM
 40
0.0
  9
$DIMTXT
 40
3.5
  9
$DIMCEN
 40
2.5
  9
$DIMTSZ
 40
0.0
  9
$DIMTOL
 70
     0
  9
$DIMLIM
 70
     0
  9
$DIMTIH
 70
     1
  9
$DIMTOH
 70
     1
  9
$DIMSE1
 70
     0
  9
$DIMSE2
 70
     0
  9
$DIMTAD
 70
     1
  9
$DIMZIN
 70
     0
  9
$DIMBLK
  1

  9
$DIMASO
 70
     1
  9
$DIMSHO
 70
     1
  9
$DIMPOST
  1

  9
$DIMAPOST
  1

  9
$DIMALT
 70
     0
  9
$DIMALTD
 70
     3
  9
$DIMALTF
 40
0.0393700787401575
  9
$DIMLFAC
 40
1.0
  9
$DIMTOFL
 70
     1
  9
$DIMTVP
 40
0.0
  9
$DIMTIX
 70
     0
  9
$DIMSOXD
 70
     0
  9
$DIMSAH
 70
     0
  9
$DIMBLK1
  1

  9
$DIMBLK2
  1

  9
$DIMSTYLE
  2
ISO-25
  9
$DIMCLRD
 70
     0
  9
$DIMCLRE
 70
     0
  9
$DIMCLRT
 70
     0
  9
$DIMTFAC
 40
1.0
  9
$DIMGAP
 40
1.524
  9
$LUNITS
 70
     2
  9
$LUPREC
 70
     2
  9
$SKETCHINC
 40
1.0
  9
$FILLETRAD
 40
10.0
  9
$AUNITS
 70
     0
  9
$AUPREC
 70
     2
  9
$MENU
  1
.
  9
$ELEVATION
 40
0.0
  9
$PELEVATION
 40
0.0
  9
$THICKNESS
 40
0.0
  9
$LIMCHECK
 70
     0
  9
$BLIPMODE
 70
     0
  9
$CHAMFERA
 40
0.0
  9
$CHAMFERB
 40
0.0
  9
$SKPOLY
 70
     0
  9
$TDCREATE
 40
2458384.5862500001676381
  9
$TDUPDATE
 40
2459366.2316782409325242
  9
$TDINDWG
 40
0.3341435301
  9
$TDUSRTIMER
 40
0.3341435301
  9
$USRTIMER
 70
     1
  9
$ANGBASE
 50
0.0
  9
$ANGDIR
 70
     0
  9
$PDMODE
 70
     0
  9
$PDSIZE
 40
-1.0
  9
$PLINEWID
 40
0.0
  9
$COORDS
 70
     1
  9
$SPLFRAME
 70
     0
  9
$SPLINETYPE
 70
     6
  9
$SPLINESEGS
 70
     8
  9
$ATTDIA
 70
     1
  9
$ATTREQ
 70
     1
  9
$HANDLING
 70
     1
  9
$HANDSEED
  5
3B64
  9
$SURFTAB1
 70
     6
  9
$SURFTAB2
 70
     6
  9
$SURFTYPE
 70
     6
  9
$SURFU
 70
     6
  9
$SURFV
 70
     6
  9
$UCSNAME
  2

  9
$UCSORG
 10
0.0
 20
0.0
 30
0.0
  9
$UCSXDIR
 10
1.0
 20
0.0
 30
0.0
  9
$UCSYDIR
 10
0.0
 20
1.0
 30
0.0
  9
$PUCSNAME
  2

  9
$PUCSORG
 10
0.0
 20
0.0
 30
0.0
  9
$PUCSXDIR
 10
1.0
 20
0.0
 30
0.0
  9
$PUCSYDIR
 10
0.0
 20
1.0
 30
0.0
  9
$USERI1
 70
     0
  9
$USERI2
 70
     0
  9
$USERI3
 70
     0
  9
$USERI4
 70
     0
  9
$USERI5
 70
     0
  9
$USERR1
 40
0.0
  9
$USERR2
 40
0.0
  9
$USERR3
 40
0.0
  9
$USERR4
 40
0.0
  9
$USERR5
 40
0.0
  9
$WORLDVIEW
 70
     1
  9
$SHADEDGE
 70
     3
  9
$SHADEDIF
 70
    70
  9
$TILEMODE
 70
     1
  9
$MAXACTVP
 70
    64
  9
$PLIMCHECK
 70
     0
  9
$PEXTMIN
 10
1.0000000000000000E+20
 20
1.0000000000000000E+20
 30
1.0000000000000000E+20
  9
$PEXTMAX
 10
-1.0000000000000000E+20
 20
-1.0000000000000000E+20
 30
-1.0000000000000000E+20
  9
$PLIMMIN
 10
0.0
 20
0.0
  9
$PLIMMAX
 10
420.0
 20
297.0
  9
$UNITMODE
 70
     0
  9
$VISRETAIN
 70
     1
  9
$PLINEGEN
 70
     0
  9
$PSLTSCALE
 70
     1
  0
ENDSEC
  0
SECTION
  2
TABLES
  0
TABLE
  2
VPORT
 70
     1
  0
VPORT
  2
*ACTIVE
 70
     0
 10
0.0
 20
0.0
 11
1.0
 21
1.0
 12
283.6003359529096883
 22
61.7568815313138586
 13
0.0
 23
0.0
 14
10.0
 24
10.0
 15
10.0
 25
10.0
 16
0.0
 26
0.0
 36
1.0
 17
0.0
 27
0.0
 37
0.0
 40
124.4034267393962949
 41
1.7711111111111111
 42
50.0
 43
0.0
 44
0.0
 50
0.0
 51
0.0
 71
     0
 72
   100
 73
     1
 74
     3
 75
     0
 76
     0
 77
     0
 78
     0
  0
ENDTAB
  0
TABLE
  2
LTYPE
 70
     7
  0
LTYPE
  2
CONTINUOUS
 70
     0
  3
Solid line
 72
    65
 73
     0
 40
0.0
  0
LTYPE
  2
HIDDEN
 70
     0
  3
Hidden __ __ __ __ __ __ __ __ __ __ __ __ __ __
 72
    65
 73
     2
 40
1.905
 49
1.27
 49
-0.635
  0
LTYPE
  2
PHANTOM
 70
     0
  3
Phantom ______  __  __  ______  __  __  ______
 72
    65
 73
     6
 40
12.6999999999999993
 49
6.349999999999997
 49
-1.27
 49
1.27
 49
-1.27
 49
1.27
 49
-1.27
  0
LTYPE
  2
CENTER
 70
     0
  3
Center ____ _ ____ _ ____ _ ____ _ ____ _ ____
 72
    65
 73
     4
 40
10.1600000000000001
 49
6.349999999999997
 49
-1.27
 49
1.27
 49
-1.27
  0
LTYPE
  2
CENTERX2
 70
     0
  3
Center (2x) ________  __  ________  __  _____
 72
    65
 73
     4
 40
20.3200000000000003
 49
12.6999999999999993
 49
-2.54
 49
2.54
 49
-2.54
  0
LTYPE
  2
DOT2
 70
     0
  3
Dot (.5x) ........................................
 72
    65
 73
     2
 40
0.635
 49
0.0
 49
-0.635
  0
ENDTAB
  0
TABLE
  2
LAYER
 70
     5
  0
LAYER
  2
0
 70
     0
 62
     3
  6
CONTINUOUS
  0
LAYER
  2
PLATE
 70
     0
 62
     1
  6
CONTINUOUS
  0
LAYER
  2
PCB
 70
     0
 62
     2
  6
CONTINUOUS
  0
LAYER
  2
CASE
 70
     0
 62
     4
  6
CONTINUOUS
  0
LAYER
  2
OLED
 70
     0
 62
     7
  6
CONTINUOUS
  0
ENDTAB
  0
TABLE
  2
STYLE
 70
     2
  0
STYLE
  2
STANDARD
 70
     0
 40
0.0
 41
1.0
 50
0.0
 71
     0
 42
3.5
  3
txt
  4

  0
STYLE
  2
ANNOTATIVE
 70
     0
 40
0.0
 41
1.0
 50
0.0
 71
     0
 42
0.2
  3
txt
  4

  0
ENDTAB
  0
TABLE
  2
VIEW
 70
     3
  0
ENDTAB
  0
TABLE
  2
UCS
 70
     0
  0
ENDTAB
  0
TABLE
  2
APPID
 70
     7
  0
APPID
  2
ACAD
 70
     0
  0
APPID
  2
ACADANNOTATIVE
 70
     0
  0
APPID
  2
ACAD_NAV_VCDISPLAY
 70
     0
  0
APPID
  2
ACAECLAYERSTANDARD
 70
     0
  0
APPID
  2
ACCMTRANSPARENCY
 70
     0
  0
APPID
  2
ACAD_EXEMPT_FROM_CAD_STANDARDS
 70
     0
  0
APPID
  2
ACAD_MLEADERVER
 70
     0
  0
ENDTAB
  0
TABLE
  2
DIMSTYLE
 70
     4
  0
DIMSTYLE
  2
STANDARD
 70
     0
  3

  4

  5

  6

  7

 40
1.0
 41
0.18
 42
0.0625
 43
0.38
 44
0.18
 45
0.0
 46
0.0
 47
0.0
 48
0.0
140
0.18
141
0.09
142
0.0
143
25.3999999999999986
144
1.0
145
0.0
146
1.0
147
0.09
 71
     0
 72
     0
 73
     1
 74
     1
 75
     0
 76
     0
 77
     0
 78
     0
170
     0
171
     2
172
     0
173
     0
174
     0
175
     0
176
     0
177
     0
178
     0
  0
DIMSTYLE
  2
ANNOTATIVE
 70
     0
  3

  4

  5

  6

  7

 40
1.0
 41
0.18
 42
0.0625
 43
0.38
 44
0.18
 45
0.0
 46
0.0
 47
0.0
 48
0.0
140
0.18
141
0.09
142
0.0
143
25.3999999999999986
144
1.0
145
0.0
146
1.0
147
0.09
 71
     0
 72
     0
 73
     1
 74
     1
 75
     0
 76
     0
 77
     0
 78
     0
170
     0
171
     2
172
     0
173
     0
174
     0
175
     0
176
     0
177
     0
178
     0
  0
DIMSTYLE
  2
ISO-25
 70
     0
  3

  4

  5

  6

  7

 40
1.0
 41
2.5
 42
0.625
 43
3.75
 44
1.25
 45
0.0
 46
0.0
 47
0.0
 48
0.0
140
2.5
141
2.5
142
0.0
143
0.03937007874016
144
1.0
145
0.0
146
1.0
147
0.625
 71
     0
 72
     0
 73
     0
 74
     0
 75
     0
 76
     0
 77
     1
 78
     8
170
     0
171
     3
172
     1
173
     0
174
     0
175
     0
176
     0
177
     0
178
     0
  0
ENDTAB
  0
ENDSEC
  0
SECTION
  2
BLOCKS
  0
BLOCK
  8
0
  2
$MODEL_SPACE
 70
     0
 10
0.0
 20
0.0
 30
0.0
  3
$MODEL_SPACE
  1

  0
ENDBLK
  5
2C6C
  8
0
  0
BLOCK
 67
     1
  8
0
  2
$PAPER_SPACE
 70
     0
 10
0.0
 20
0.0
 30
0.0
  3
$PAPER_SPACE
  1

  0
ENDBLK
  5
2C68
 67
     1
  8
0
  0
ENDSEC
  0
SECTION
  2
ENTITIES
  0
CIRCLE
  5
3239
  8
0
  6
CONTINUOUS
 62
     4
 10
20.0530593227901512
 20
138.6973089371147978
 30
0.0
 40
1.75
  0
CIRCLE
  5
323A
  8
0
  6
CONTINUOUS
 62
     4
 10
134.1526426561235041
 20
138.6973089371147978
 30
0.0
 40
1.75
  0
CIRCLE
  5
323B
  8
0
  6
CONTINUOUS
 62
     4
 10
248.2522259894568037
 20
138.6973089371147978
 30
0.0
 40
1.7500000000001099
  0
CIRCLE
  5
323C
  8
0
  6
CONTINUOUS
 62
     4
 10
362.3518093227900749
 20
138.6973089371147978
 30
0.0
 40
1.75
  0
LINE
  5
324B
  8
0
  6
CONTINUOUS
 62
     4
 10
22.0830593227895484
 20
37.8273089371146511
 30
0.0
 11
22.0830593227895484
 21
132.1673089371143988
 31
0.0
  0
LINE
  5
324C
  8
0
  6
CONTINUOUS
 62
     4
 10
96.2229938140674648
 20
36.3273089371146511
 30
0.0
 11
23.5830593227896692
 21
36.3273089371146511
 31
0.0
  0
LINE
  5
324D
  8
0
  6
CONTINUOUS
 62
     4
 10
358.8218093227894201
 20
36.3273089371146511
 30
0.0
 11
285.6831248315091898
 21
36.3273089371146511
 31
0.0
  0
LINE
  5
324E
  8
0
  6
CONTINUOUS
 62
     4
 10
360.3218093227894769
 20
132.1673089371143988
 30
0.0
 11
360.3218093227894769
 21
37.8273089371146511
 31
0.0
  0
LINE
  5
324F
  8
0
  6
CONTINUOUS
 62
     4
 10
196.3030593227913982
 20
133.6673089371143988
 30
0.0
 11
358.8218093227894201
 21
133.6673089371143988
 31
0.0
  0
LINE
  5
3250
  8
0
  6
CONTINUOUS
 62
     4
 10
196.3030593227913982
 20
143.1973089371145988
 30
0.0
 11
364.8518093227896202
 21
143.1973089371145988
 31
0.0
  0
LINE
  5
3251
  8
0
  6
CONTINUOUS
 62
     4
 10
366.8518093227896202
 20
141.1973089371145988
 30
0.0
 11
366.8518093227896202
 21
28.7973089371144511
 31
0.0
  0
CIRCLE
  5
3252
  8
0
  6
CONTINUOUS
 62
     4
 10
362.3518093227900749
 20
138.6973089371145136
 30
0.0
 40
1.75
  0
CIRCLE
  5
3253
  8
0
  6
CONTINUOUS
 62
     4
 10
248.2522259894568037
 20
138.6973089371145136
 30
0.0
 40
1.7500000000001099
  0
CIRCLE
  5
3254
  8
0
  6
CONTINUOUS
 62
     4
 10
134.1526426561235041
 20
138.6973089371145136
 30
0.0
 40
1.75
  0
ARC
  5
3255
  8
0
  6
CONTINUOUS
 62
     4
 10
364.8518093227896202
 20
141.1973089371145988
 30
0.0
 40
2.0
 50
0.0
 51
90.0
  0
LINE
  5
3256
  8
0
  6
CONTINUOUS
 62
     4
 10
23.5830593227896692
 20
133.6673089371143988
 30
0.0
 11
185.6030593227866916
 21
133.6673089371143988
 31
0.0
  0
LINE
  5
3257
  8
0
  6
CONTINUOUS
 62
     4
 10
17.5530593227896894
 20
143.1973089371145988
 30
0.0
 11
185.6030593227866916
 21
143.1973089371145988
 31
0.0
  0
ARC
  5
3258
  8
0
  6
CONTINUOUS
 62
     4
 10
17.5530593227896894
 20
141.1973089371145988
 30
0.0
 40
2.0
 50
90.0
 51
180.0
  0
LINE
  5
3259
  8
0
  6
CONTINUOUS
 62
     4
 10
15.5530593227896894
 20
28.7973089371144511
 30
0.0
 11
15.5530593227896894
 21
141.1973089371145988
 31
0.0
  0
ARC
  5
325A
  8
0
  6
CONTINUOUS
 62
     4
 10
358.8218093227894201
 20
37.8273089371146511
 30
0.0
 40
1.5
 50
270.0
 51
0.0
  0
LINE
  5
325B
  8
0
  6
CONTINUOUS
 62
     4
 10
190.953059322788306
 20
16.1918119258054389
 30
0.0
 11
285.6831248315091898
 21
36.3273089371146511
 31
0.0
  0
LINE
  5
325C
  8
0
  6
CONTINUOUS
 62
     4
 10
96.2229938140674648
 20
36.3273089371146511
 30
0.0
 11
190.953059322788306
 21
16.1918119258054389
 31
0.0
  0
ARC
  5
325D
  8
0
  6
CONTINUOUS
 62
     4
 10
23.5830593227896692
 20
37.8273089371146511
 30
0.0
 40
1.5000000000001099
 50
180.0
 51
270.0
  0
ARC
  5
325E
  8
0
  6
CONTINUOUS
 62
     4
 10
23.5830593227896692
 20
132.1673089371143988
 30
0.0
 40
1.5000000000001099
 50
90.0
 51
180.0
  0
CIRCLE
  5
325F
  8
0
  6
CONTINUOUS
 62
     4
 10
20.0530593227901512
 20
138.6973089371145136
 30
0.0
 40
1.75
  0
ARC
  5
3260
  8
0
  6
CONTINUOUS
 62
     4
 10
358.8218093227894201
 20
132.1673089371143988
 30
0.0
 40
1.5
 50
0.0
 51
90.0
  0
CIRCLE
  5
3285
  8
0
  6
CONTINUOUS
 62
     4
 10
20.0530593227901512
 20
138.6973089371145988
 30
0.0
 40
1.75
  0
CIRCLE
  5
3286
  8
0
  6
CONTINUOUS
 62
     4
 10
362.3518093227900749
 20
138.6973089371145988
 30
0.0
 40
1.75
  0
CIRCLE
  5
3287
  8
0
  6
CONTINUOUS
 62
     4
 10
248.2522259894568037
 20
138.6973089371145988
 30
0.0
 40
1.7500000000001099
  0
CIRCLE
  5
32DA
  8
0
  6
CONTINUOUS
 62
     4
 10
134.1526426561235041
 20
138.6973089371145988
 30
0.0
 40
1.75
  0
CIRCLE
  5
32DD
  8
0
  6
CONTINUOUS
 62
     4
 10
362.3518093227900749
 20
31.2493089371147406
 30
0.0
 40
1.75
  0
CIRCLE
  5
32DE
  8
0
  6
CONTINUOUS
 62
     4
 10
20.0530593227901512
 20
31.2973089371145115
 30
0.0
 40
1.75
  0
CIRCLE
  5
32DF
  8
0
  6
CONTINUOUS
 62
     4
 10
134.1526426561235041
 20
23.0356130220700415
 30
0.0
 40
1.75
  0
LINE
  5
32E0
  8
0
  6
CONTINUOUS
 62
     4
 10
286.1554436380718016
 20
26.5787849444527602
 30
0.0
 11
210.5178860562434977
 21
10.5015257717410595
 31
0.0
  0
LINE
  5
32E2
  8
0
  6
CONTINUOUS
 62
     4
 10
364.8518093227900749
 20
26.7973089371146216
 30
0.0
 11
288.2345605462493836
 21
26.7973089371146216
 31
0.0
  0
ARC
  5
32E3
  8
0
  6
CONTINUOUS
 62
     4
 10
288.2345605462493836
 20
16.7973089371147317
 30
0.0
 40
10.0
 50
90.0
 51
102.000000000002899
  0
CIRCLE
  5
32E4
  8
0
  6
CONTINUOUS
 62
     4
 10
248.2522259894566048
 20
23.0356130220700415
 30
0.0
 40
1.75
  0
CIRCLE
  5
32E9
  8
0
  6
CONTINUOUS
 62
     4
 10
362.3518093227900749
 20
31.2493089371147406
 30
0.0
 40
1.75
  0
CIRCLE
  5
32EA
  8
0
  6
CONTINUOUS
 62
     4
 10
20.0530593227901512
 20
31.2973089371146784
 30
0.0
 40
1.75
  0
CIRCLE
  5
32EB
  8
0
  6
CONTINUOUS
 62
     4
 10
134.1526426561235041
 20
23.0356130220702688
 30
0.0
 40
1.75
  0
CIRCLE
  5
32EF
  8
0
  6
CONTINUOUS
 62
     4
 10
248.2522259894566048
 20
23.0356130220702688
 30
0.0
 40
1.75
  0
LINE
  5
32F5
  8
0
  6
CONTINUOUS
 62
     4
 10
173.9660994975143069
 20
10.2830017790790293
 30
0.0
 11
208.4387691480658873
 21
10.2830017790790293
 31
0.0
  0
LINE
  5
32F6
  8
0
  6
CONTINUOUS
 62
     4
 10
96.2494250075083642
 20
26.5787849444527602
 30
0.0
 11
171.8869825893366112
 21
10.5015257717409405
 31
0.0
  0
LINE
  5
32F7
  8
0
  6
CONTINUOUS
 62
     4
 10
17.5530593227902614
 20
26.7973089371144511
 30
0.0
 11
94.1703080993307253
 21
26.7973089371145683
 31
0.0
  0
ARC
  5
32F8
  8
0
  6
CONTINUOUS
 62
     4
 10
364.8518093227900749
 20
28.7973089371144511
 30
0.0
 40
2.0
 50
270.0
 51
0.0
  0
CIRCLE
  5
32F9
  8
0
  6
CONTINUOUS
 62
     4
 10
362.3518093227900749
 20
31.2493089371147406
 30
0.0
 40
1.75
  0
CIRCLE
  5
32FA
  8
0
  6
CONTINUOUS
 62
     4
 10
20.0530593227901512
 20
31.2973089371144511
 30
0.0
 40
1.75
  0
CIRCLE
  5
32FB
  8
0
  6
CONTINUOUS
 62
     4
 10
134.1526426561235041
 20
23.0356130220698105
 30
0.0
 40
1.75
  0
LINE
  5
32FC
  8
0
  6
CONTINUOUS
 62
     4
 10
286.1554436380718016
 20
26.5787849444527602
 30
0.0
 11
210.5178860562434977
 21
10.5015257717409405
 31
0.0
  0
ARC
  5
32FD
  8
0
  6
CONTINUOUS
 62
     4
 10
208.4387691480658873
 20
20.2830017790790293
 30
0.0
 40
10.0
 50
270.0
 51
281.9999999999961915
  0
LINE
  5
32FE
  8
0
  6
CONTINUOUS
 62
     4
 10
364.8518093227900749
 20
26.7973089371144511
 30
0.0
 11
288.2345605462493836
 21
26.7973089371145683
 31
0.0
  0
CIRCLE
  5
32FF
  8
0
  6
CONTINUOUS
 62
     4
 10
248.2522259894566048
 20
23.0356130220698105
 30
0.0
 40
1.75
  0
ARC
  5
3300
  8
0
  6
CONTINUOUS
 62
     4
 10
173.9660994975143069
 20
20.2830017790790293
 30
0.0
 40
10.0
 50
257.9999999999969873
 51
270.0
  0
ARC
  5
3301
  8
0
  6
CONTINUOUS
 62
     4
 10
94.1703080993307253
 20
16.7973089371146216
 30
0.0
 40
10.0
 50
77.9999999999970299
 51
90.0
  0
ARC
  5
3302
  8
0
  6
CONTINUOUS
 62
     4
 10
17.5530593227902614
 20
28.7973089371144511
 30
0.0
 40
2.0
 50
180.0
 51
270.0
  0
ARC
  5
3303
  8
0
  6
CONTINUOUS
 62
     4
 10
208.4387691480658873
 20
20.2830017790790293
 30
0.0
 40
10.0
 50
270.0
 51
281.9999999999961915
  0
ARC
  5
3304
  8
0
  6
CONTINUOUS
 62
     4
 10
288.2345605462493836
 20
16.7973089371146216
 30
0.0
 40
10.0
 50
90.0
 51
102.000000000002899
  0
LINE
  5
3311
  8
0
 62
     4
 10
185.6030593227866916
 20
143.1973089371145988
 30
0.0
 11
185.6030593227866916
 21
133.6673089371143988
 31
0.0
  0
LINE
  5
3312
  8
0
 62
     4
 10
196.3030593227913982
 20
143.1973089371145988
 30
0.0
 11
196.3030593227913982
 21
133.6673089371143988
 31
0.0
  0
POLYLINE
  5
3314
  8
0
 62
     4
 66
     1
 10
0.0
 20
0.0
 30
0.0
 70
     1
  0
VERTEX
  5
3812
  8
0
 62
     4
 10
21.7357595961568109
 20
50.2019726328683831
 30
0.0
  0
VERTEX
  5
3813
  8
0
 62
     4
 10
31.7566020850283088
 20
50.2019726328683831
 30
0.0
  0
VERTEX
  5
3814
  8
0
 62
     4
 10
31.7566020850283088
 20
35.7668484052740112
 30
0.0
  0
VERTEX
  5
3815
  8
0
 62
     4
 10
21.7357595961568109
 20
35.7668484052740112
 30
0.0
  0
SEQEND
  5
3816
  8
0
 62
     4
  0
POLYLINE
  5
3320
  8
0
  6
CONTINUOUS
 62
     4
 66
     1
 10
0.0
 20
0.0
 30
0.0
  0
VERTEX
  5
3817
  8
0
  6
CONTINUOUS
 62
     4
 10
364.8518093227900749
 20
26.7973089371146216
 30
0.0
 42
0.4142135623730951
  0
VERTEX
  5
3818
  8
0
  6
CONTINUOUS
 62
     4
 10
366.8518093227900749
 20
28.7973089371147388
 30
0.0
 42
-0.4142135623730951
  0
VERTEX
  5
3819
  8
0
  6
CONTINUOUS
 62
     4
 10
364.8518093227900749
 20
26.7973089371146784
 30
0.0
  0
VERTEX
  5
381A
  8
0
  6
CONTINUOUS
 62
     4
 10
288.2345605462493836
 20
26.7973089371149591
 30
0.0
 42
0.052407779283054
  0
VERTEX
  5
381B
  8
0
  6
CONTINUOUS
 62
     4
 10
286.15544363807129
 20
26.5787849444529414
 30
0.0
  0
VERTEX
  5
381C
  8
0
  6
CONTINUOUS
 62
     4
 10
210.5178860562434977
 20
10.5015257717413402
 30
0.0
 42
-0.052407779283054
  0
VERTEX
  5
381D
  8
0
  6
CONTINUOUS
 62
     4
 10
208.4387691480658873
 20
10.2830017790791999
 30
0.0
  0
VERTEX
  5
381E
  8
0
  6
CONTINUOUS
 62
     4
 10
173.9660994975143069
 20
10.28300177907931
 30
0.0
 42
-0.052407779283054
  0
VERTEX
  5
381F
  8
0
  6
CONTINUOUS
 62
     4
 10
171.8869825893362133
 20
10.5015257717414805
 30
0.0
  0
VERTEX
  5
3820
  8
0
  6
CONTINUOUS
 62
     4
 10
96.2494250075083642
 20
26.5787849444530515
 30
0.0
  0
VERTEX
  5
3821
  8
0
  6
CONTINUOUS
 62
     4
 10
171.8869825893366112
 20
10.5015257717410595
 30
0.0
 42
0.0524077792830542
  0
VERTEX
  5
3822
  8
0
  6
CONTINUOUS
 62
     4
 10
173.9660994975143069
 20
10.2830017790791999
 30
0.0
  0
VERTEX
  5
3823
  8
0
  6
CONTINUOUS
 62
     4
 10
208.4387691480658873
 20
10.2830017790794308
 30
0.0
  0
SEQEND
  5
3824
  8
0
  6
CONTINUOUS
 62
     4
  0
POLYLINE
  5
3321
  8
0
  6
CONTINUOUS
 62
     4
 66
     1
 10
0.0
 20
0.0
 30
0.0
 70
     1
  0
VERTEX
  5
3825
  8
0
  6
CONTINUOUS
 62
     4
 10
208.4387691480658873
 20
10.2830017790794308
 30
0.0
 42
0.052407779283054
  0
VERTEX
  5
3826
  8
0
  6
CONTINUOUS
 62
     4
 10
210.5178860562440093
 20
10.5015257717414805
 30
0.0
 42
-0.052407779283054
  0
SEQEND
  5
3827
  8
0
  6
CONTINUOUS
 62
     4
  0
POLYLINE
  5
3322
  8
0
  6
CONTINUOUS
 62
     4
 66
     1
 10
0.0
 20
0.0
 30
0.0
 70
     1
  0
VERTEX
  5
3828
  8
0
  6
CONTINUOUS
 62
     4
 10
17.5530593227902614
 20
26.7973089371146216
 30
0.0
 42
-0.4142135623730951
  0
VERTEX
  5
3829
  8
0
  6
CONTINUOUS
 62
     4
 10
15.5530593227902596
 20
28.7973089371147388
 30
0.0
 42
0.4142135623730951
  0
VERTEX
  5
382A
  8
0
  6
CONTINUOUS
 62
     4
 10
17.5530593227902614
 20
26.7973089371147388
 30
0.0
  0
VERTEX
  5
382B
  8
0
  6
CONTINUOUS
 62
     4
 10
94.1703080993307253
 20
26.7973089371149591
 30
0.0
 42
-0.052407779283054
  0
VERTEX
  5
382C
  8
0
  6
CONTINUOUS
 62
     4
 10
96.2494250075088331
 20
26.5787849444529414
 30
0.0
 42
0.0524077792830542
  0
VERTEX
  5
382D
  8
0
  6
CONTINUOUS
 62
     4
 10
94.1703080993307253
 20
26.7973089371147388
 30
0.0
  0
SEQEND
  5
382E
  8
0
  6
CONTINUOUS
 62
     4
  0
POLYLINE
  5
3328
  8
0
  6
CONTINUOUS
 62
     4
 66
     1
 10
0.0
 20
0.0
 30
0.0
 70
     1
  0
VERTEX
  5
382F
  8
0
  6
CONTINUOUS
 62
     4
 10
187.3520126159515939
 20
116.364642649798995
 30
0.0
  0
VERTEX
  5
3830
  8
0
  6
CONTINUOUS
 62
     4
 10
110.5530593227901051
 20
132.6887641016502926
 30
0.0
  0
VERTEX
  5
3831
  8
0
  6
CONTINUOUS
 62
     4
 10
110.5530593227901051
 20
132.6973089371147978
 30
0.0
 42
0.4142135623730951
  0
VERTEX
  5
3832
  8
0
  6
CONTINUOUS
 62
     4
 10
109.0530593227901051
 20
134.1973089371145988
 30
0.0
  0
VERTEX
  5
3833
  8
0
  6
CONTINUOUS
 62
     4
 10
91.9930593227900744
 20
134.1973089371149115
 30
0.0
 42
0.4142135623730951
  0
VERTEX
  5
3834
  8
0
  6
CONTINUOUS
 62
     4
 10
90.4930593227899749
 20
132.6973089371147978
 30
0.0
  0
VERTEX
  5
3835
  8
0
  6
CONTINUOUS
 62
     4
 10
90.4930593227899749
 20
132.0573089371146125
 30
0.0
  0
VERTEX
  5
3836
  8
0
  6
CONTINUOUS
 62
     4
 10
54.3030593227901477
 20
132.0573089371148114
 30
0.0
 42
0.4142135623730951
  0
VERTEX
  5
3837
  8
0
  6
CONTINUOUS
 62
     4
 10
52.8030593227901477
 20
130.5573089371148114
 30
0.0
  0
VERTEX
  5
3838
  8
0
  6
CONTINUOUS
 62
     4
 10
52.8030593227901477
 20
113.0073089371145016
 30
0.0
  0
VERTEX
  5
3839
  8
0
  6
CONTINUOUS
 62
     4
 10
50.1430593227900729
 20
113.0073089371147006
 30
0.0
 42
0.4142135623730951
  0
VERTEX
  5
383A
  8
0
  6
CONTINUOUS
 62
     4
 10
48.6430593227901795
 20
111.5073089371148001
 30
0.0
  0
VERTEX
  5
383B
  8
0
  6
CONTINUOUS
 62
     4
 10
48.6430593227901795
 20
93.9573089371148171
 30
0.0
  0
VERTEX
  5
383C
  8
0
  6
CONTINUOUS
 62
     4
 10
46.0730593227902432
 20
93.9573089371148171
 30
0.0
 42
0.4142135623730951
  0
VERTEX
  5
383D
  8
0
  6
CONTINUOUS
 62
     4
 10
44.5730593227901224
 20
92.4573089371147034
 30
0.0
  0
VERTEX
  5
383E
  8
0
  6
CONTINUOUS
 62
     4
 10
44.5730593227901224
 20
74.9073089371147489
 30
0.0
  0
VERTEX
  5
383F
  8
0
  6
CONTINUOUS
 62
     4
 10
41.9030593227901704
 20
74.9073089371147489
 30
0.0
 42
0.4142135623730951
  0
VERTEX
  5
3840
  8
0
  6
CONTINUOUS
 62
     4
 10
40.4030593227900567
 20
73.4073089371147489
 30
0.0
  0
VERTEX
  5
3841
  8
0
  6
CONTINUOUS
 62
     4
 10
40.4030593227901704
 20
37.2973089371147424
 30
0.0
 42
0.4142135623730951
  0
VERTEX
  5
3842
  8
0
  6
CONTINUOUS
 62
     4
 10
41.9030593227901704
 20
35.7973089371146784
 30
0.0
  0
VERTEX
  5
3843
  8
0
  6
CONTINUOUS
 62
     4
 10
68.5030593227900795
 20
35.7973089371147424
 30
0.0
 42
0.4142135623730951
  0
VERTEX
  5
3844
  8
0
  6
CONTINUOUS
 62
     4
 10
70.0030593227901932
 20
37.2973089371147424
 30
0.0
  0
VERTEX
  5
3845
  8
0
  6
CONTINUOUS
 62
     4
 10
70.0030593227900795
 20
54.847308937114569
 30
0.0
  0
VERTEX
  5
3846
  8
0
  6
CONTINUOUS
 62
     4
 10
96.3112935151748957
 20
54.847308937114569
 30
0.0
  0
VERTEX
  5
3847
  8
0
  6
CONTINUOUS
 62
     4
 10
92.7427695852616694
 20
38.058723810049969
 30
0.0
 42
0.4142135623730776
  0
VERTEX
  5
3848
  8
0
  6
CONTINUOUS
 62
     4
 10
93.8981234501357562
 20
36.2796348727226814
 30
0.0
  0
VERTEX
  5
3849
  8
0
  6
CONTINUOUS
 62
     4
 10
119.8972866776402952
 20
30.7533421307865709
 30
0.0
 42
0.4142135623730693
  0
VERTEX
  5
384A
  8
0
  6
CONTINUOUS
 62
     4
 10
121.6763756149676965
 20
31.9086959956605405
 30
0.0
  0
VERTEX
  5
384B
  8
0
  6
CONTINUOUS
 62
     4
 10
121.6770545994958042
 20
31.9118903667168716
 30
0.0
  0
VERTEX
  5
384C
  8
0
  6
CONTINUOUS
 62
     4
 10
181.0913040981475035
 20
19.28300177907931
 30
0.0
 42
0.4142135623730782
  0
VERTEX
  5
384D
  8
0
  6
CONTINUOUS
 62
     4
 10
182.8703930354747911
 20
20.43835564395334
 30
0.0
  0
VERTEX
  5
384E
  8
0
  6
CONTINUOUS
 62
     4
 10
186.4173664808257058
 20
37.1255537124723105
 30
0.0
 42
0.4142135623731037
  0
VERTEX
  5
384F
  8
0
  6
CONTINUOUS
 62
     4
 10
185.2620126159515053
 20
38.9046426497994275
 30
0.0
  0
VERTEX
  5
3850
  8
0
  6
CONTINUOUS
 62
     4
 10
177.6281358168764086
 20
40.5272732544235623
 30
0.0
  0
VERTEX
  5
3851
  8
0
  6
CONTINUOUS
 62
     4
 10
181.277366480825691
 20
57.6955537124718987
 30
0.0
 42
0.4142135623730776
  0
VERTEX
  5
3852
  8
0
  6
CONTINUOUS
 62
     4
 10
180.1220126159516042
 20
59.4746426497994207
 30
0.0
  0
VERTEX
  5
3853
  8
0
  6
CONTINUOUS
 62
     4
 10
172.2790788109622895
 20
61.1417096927933699
 30
0.0
  0
VERTEX
  5
3854
  8
0
  6
CONTINUOUS
 62
     4
 10
175.9273664808256115
 20
78.3055537124720331
 30
0.0
 42
0.4142135623731037
  0
VERTEX
  5
3855
  8
0
  6
CONTINUOUS
 62
     4
 10
174.7720126159514962
 20
80.0846426497990365
 30
0.0
  0
VERTEX
  5
3856
  8
0
  6
CONTINUOUS
 62
     4
 10
171.5794066383037091
 20
80.7632519991752815
 30
0.0
  0
VERTEX
  5
3857
  8
0
  6
CONTINUOUS
 62
     4
 10
175.330699897322603
 20
98.4116992150386523
 30
0.0
  0
VERTEX
  5
3858
  8
0
  6
CONTINUOUS
 62
     4
 10
183.1813040981473932
 20
96.7430017790792363
 30
0.0
 42
0.4142135623731208
  0
VERTEX
  5
3859
  8
0
  6
CONTINUOUS
 62
     4
 10
184.9603930354747092
 20
97.8983556439532094
 30
0.0
  0
VERTEX
  5
385A
  8
0
  6
CONTINUOUS
 62
     4
 10
188.5073664808257092
 20
114.5855537124721053
 30
0.0
 42
0.4142135623731292
  0
SEQEND
  5
385B
  8
0
  6
CONTINUOUS
 62
     4
  0
POLYLINE
  5
3329
  8
0
  6
CONTINUOUS
 62
     4
 66
     1
 10
0.0
 20
0.0
 30
0.0
 70
     1
  0
VERTEX
  5
385C
  8
0
  6
CONTINUOUS
 62
     4
 10
45.6830593227900223
 20
96.5873089371145852
 30
0.0
  0
VERTEX
  5
385D
  8
0
  6
CONTINUOUS
 62
     4
 10
45.6830593227900223
 20
114.1373089371147955
 30
0.0
  0
VERTEX
  5
385E
  8
0
  6
CONTINUOUS
 62
     4
 10
48.3430593227902179
 20
114.1373089371147955
 30
0.0
 42
0.4142135623730951
  0
VERTEX
  5
385F
  8
0
  6
CONTINUOUS
 62
     4
 10
49.8430593227902179
 20
115.6373089371144971
 30
0.0
  0
VERTEX
  5
3860
  8
0
  6
CONTINUOUS
 62
     4
 10
49.8430593227901113
 20
132.6973089371147978
 30
0.0
 42
0.4142135623730951
  0
VERTEX
  5
3861
  8
0
  6
CONTINUOUS
 62
     4
 10
48.3430593227902179
 20
134.1973089371147125
 30
0.0
  0
VERTEX
  5
3862
  8
0
  6
CONTINUOUS
 62
     4
 10
31.2830593227901694
 20
134.1973089371145988
 30
0.0
 42
0.4142135623730951
  0
VERTEX
  5
3863
  8
0
  6
CONTINUOUS
 62
     4
 10
29.7830593227901694
 20
132.6973089371147978
 30
0.0
  0
VERTEX
  5
3864
  8
0
  6
CONTINUOUS
 62
     4
 10
29.7830593227901694
 20
115.1473089371147012
 30
0.0
  0
VERTEX
  5
3865
  8
0
  6
CONTINUOUS
 62
     4
 10
27.1230593227902013
 20
115.1473089371147012
 30
0.0
 42
0.4142135623730951
  0
VERTEX
  5
3866
  8
0
  6
CONTINUOUS
 62
     4
 10
25.6230593227900805
 20
113.6473089371147012
 30
0.0
  0
VERTEX
  5
3867
  8
0
  6
CONTINUOUS
 62
     4
 10
25.6230593227900805
 20
96.0973089371148035
 30
0.0
  0
VERTEX
  5
3868
  8
0
  6
CONTINUOUS
 62
     4
 10
23.0530593227901512
 20
96.0973089371148035
 30
0.0
 42
0.4142135623730951
  0
VERTEX
  5
3869
  8
0
  6
CONTINUOUS
 62
     4
 10
21.5530593227901512
 20
94.5973089371145761
 30
0.0
  0
VERTEX
  5
386A
  8
0
  6
CONTINUOUS
 62
     4
 10
21.5530593227901512
 20
77.5373089371147444
 30
0.0
 42
0.4142135623730951
  0
VERTEX
  5
386B
  8
0
  6
CONTINUOUS
 62
     4
 10
23.0530593227901512
 20
76.0373089371147444
 30
0.0
  0
VERTEX
  5
386C
  8
0
  6
CONTINUOUS
 62
     4
 10
40.1130593227900931
 20
76.0373089371147444
 30
0.0
 42
0.4142135623730951
  0
VERTEX
  5
386D
  8
0
  6
CONTINUOUS
 62
     4
 10
41.6130593227900931
 20
77.5373089371147444
 30
0.0
  0
VERTEX
  5
386E
  8
0
  6
CONTINUOUS
 62
     4
 10
41.6130593227900931
 20
95.0873089371146989
 30
0.0
  0
VERTEX
  5
386F
  8
0
  6
CONTINUOUS
 62
     4
 10
44.1830593227901431
 20
95.0873089371146989
 30
0.0
 42
0.4142135623730951
  0
SEQEND
  5
3870
  8
0
  6
CONTINUOUS
 62
     4
  0
POLYLINE
  5
332A
  8
0
  6
CONTINUOUS
 62
     4
 66
     1
 10
0.0
 20
0.0
 30
0.0
 70
     1
  0
VERTEX
  5
3871
  8
0
  6
CONTINUOUS
 62
     4
 10
278.7779951954444186
 20
36.2796348727225677
 30
0.0
 42
0.4142135623731122
  0
VERTEX
  5
3872
  8
0
  6
CONTINUOUS
 62
     4
 10
279.9333490603185055
 20
38.058723810049969
 30
0.0
  0
VERTEX
  5
3873
  8
0
  6
CONTINUOUS
 62
     4
 10
276.3648251304052224
 20
54.847308937114569
 30
0.0
  0
VERTEX
  5
3874
  8
0
  6
CONTINUOUS
 62
     4
 10
327.5786593227903154
 20
54.847308937114569
 30
0.0
  0
VERTEX
  5
3875
  8
0
  6
CONTINUOUS
 62
     4
 10
327.5786593227902017
 20
37.2493089371146198
 30
0.0
 42
0.4142135623730951
  0
VERTEX
  5
3876
  8
0
  6
CONTINUOUS
 62
     4
 10
329.0786593227903154
 20
35.7493089371147335
 30
0.0
  0
VERTEX
  5
3877
  8
0
  6
CONTINUOUS
 62
     4
 10
355.6786593227902245
 20
35.7493089371146198
 30
0.0
 42
0.4142135623730951
  0
VERTEX
  5
3878
  8
0
  6
CONTINUOUS
 62
     4
 10
357.1786593227898834
 20
37.2493089371146198
 30
0.0
  0
VERTEX
  5
3879
  8
0
  6
CONTINUOUS
 62
     4
 10
357.1786593227898834
 20
54.847308937114569
 30
0.0
  0
VERTEX
  5
387A
  8
0
  6
CONTINUOUS
 62
     4
 10
359.3518093227900749
 20
54.8473089371147466
 30
0.0
 42
0.4142135623730951
  0
VERTEX
  5
387B
  8
0
  6
CONTINUOUS
 62
     4
 10
360.8518093227900749
 20
56.3473089371148106
 30
0.0
  0
VERTEX
  5
387C
  8
0
  6
CONTINUOUS
 62
     4
 10
360.8518093227901886
 20
73.4073089371147489
 30
0.0
 42
0.4142135623730951
  0
VERTEX
  5
387D
  8
0
  6
CONTINUOUS
 62
     4
 10
359.3518093227900749
 20
74.9073089371148058
 30
0.0
  0
VERTEX
  5
387E
  8
0
  6
CONTINUOUS
 62
     4
 10
356.6730593227902091
 20
74.9073089371147489
 30
0.0
  0
VERTEX
  5
387F
  8
0
  6
CONTINUOUS
 62
     4
 10
356.6730593227902091
 20
92.4573089371147034
 30
0.0
 42
0.4142135623730951
  0
VERTEX
  5
3880
  8
0
  6
CONTINUOUS
 62
     4
 10
355.1730593227900954
 20
93.9573089371147603
 30
0.0
  0
VERTEX
  5
3881
  8
0
  6
CONTINUOUS
 62
     4
 10
352.413059322790275
 20
93.9573089371148171
 30
0.0
  0
VERTEX
  5
3882
  8
0
  6
CONTINUOUS
 62
     4
 10
352.413059322790275
 20
111.5073089371148001
 30
0.0
 42
0.4142135623730951
  0
VERTEX
  5
3883
  8
0
  6
CONTINUOUS
 62
     4
 10
350.9130593227902182
 20
113.0073089371148995
 30
0.0
  0
VERTEX
  5
3884
  8
0
  6
CONTINUOUS
 62
     4
 10
348.2430593227900886
 20
113.0073089371145016
 30
0.0
  0
VERTEX
  5
3885
  8
0
  6
CONTINUOUS
 62
     4
 10
348.2430593227900886
 20
130.5573089371148114
 30
0.0
 42
0.4142135623730951
  0
VERTEX
  5
3886
  8
0
  6
CONTINUOUS
 62
     4
 10
346.7430593227903159
 20
132.0573089371148114
 30
0.0
  0
VERTEX
  5
3887
  8
0
  6
CONTINUOUS
 62
     4
 10
291.5130593227901272
 20
132.0573089371146125
 30
0.0
  0
VERTEX
  5
3888
  8
0
  6
CONTINUOUS
 62
     4
 10
291.5130593227901272
 20
132.6973089371147125
 30
0.0
 42
0.4142135623730951
  0
VERTEX
  5
3889
  8
0
  6
CONTINUOUS
 62
     4
 10
290.0130593227901272
 20
134.1973089371147125
 30
0.0
  0
VERTEX
  5
388A
  8
0
  6
CONTINUOUS
 62
     4
 10
271.4830877897759933
 20
134.1973089371145988
 30
0.0
 42
0.0100084863468057
  0
VERTEX
  5
388B
  8
0
  6
CONTINUOUS
 62
     4
 10
271.423054914548004
 20
134.1961071403067933
 30
0.0
  0
VERTEX
  5
388C
  8
0
  6
CONTINUOUS
 62
     4
 10
268.834962297579807
 20
134.0924436579099961
 30
0.0
 42
0.0423770652101924
  0
VERTEX
  5
388D
  8
0
  6
CONTINUOUS
 62
     4
 10
268.5831276365811959
 20
134.0608668558186878
 30
0.0
  0
VERTEX
  5
388E
  8
0
  6
CONTINUOUS
 62
     4
 10
194.6441060296286878
 20
118.3446426497991979
 30
0.0
 42
0.4142135623731122
  0
VERTEX
  5
388F
  8
0
  6
CONTINUOUS
 62
     4
 10
193.4887521647546009
 20
116.5655537124717966
 30
0.0
  0
VERTEX
  5
3890
  8
0
  6
CONTINUOUS
 62
     4
 10
197.1390735178335092
 20
99.3921419655050755
 30
0.0
  0
VERTEX
  5
3891
  8
0
  6
CONTINUOUS
 62
     4
 10
189.2941060296286082
 20
97.7246426497991934
 30
0.0
 42
0.4142135623730779
  0
VERTEX
  5
3892
  8
0
  6
CONTINUOUS
 62
     4
 10
188.1387521647546066
 20
95.9455537124720053
 30
0.0
  0
VERTEX
  5
3893
  8
0
  6
CONTINUOUS
 62
     4
 10
191.6857256101056066
 20
79.2583556439533368
 30
0.0
 42
0.4142135623730776
  0
VERTEX
  5
3894
  8
0
  6
CONTINUOUS
 62
     4
 10
193.4648145474328089
 20
78.1030017790792499
 30
0.0
  0
VERTEX
  5
3895
  8
0
  6
CONTINUOUS
 62
     4
 10
196.6575568768431879
 20
78.7816401109170101
 30
0.0
  0
VERTEX
  5
3896
  8
0
  6
CONTINUOUS
 62
     4
 10
200.4069963609254046
 20
61.1419142204371084
 30
0.0
  0
VERTEX
  5
3897
  8
0
  6
CONTINUOUS
 62
     4
 10
192.5544948286475915
 20
59.4728134942277009
 30
0.0
 42
0.4142135623731291
  0
VERTEX
  5
3898
  8
0
  6
CONTINUOUS
 62
     4
 10
191.3991409637735899
 20
57.6937245569002926
 30
0.0
  0
VERTEX
  5
3899
  8
0
  6
CONTINUOUS
 62
     4
 10
198.9083366527630972
 20
22.3657364205143914
 30
0.0
 42
0.4142135623730948
  0
VERTEX
  5
389A
  8
0
  6
CONTINUOUS
 62
     4
 10
200.6874255900904984
 20
21.2103825556407593
 30
0.0
  0
VERTEX
  5
389B
  8
0
  6
CONTINUOUS
 62
     4
 10
251.0005768885656039
 20
31.9047730024283283
 30
0.0
 42
0.4134306528507027
  0
VERTEX
  5
389C
  8
0
  6
CONTINUOUS
 62
     4
 10
252.7788267233657962
 20
30.7533410160178811
 30
0.0
  0
SEQEND
  5
389D
  8
0
  6
CONTINUOUS
 62
     4
  0
POLYLINE
  5
332E
  8
0
  6
CONTINUOUS
 62
     4
 66
     1
 10
0.0
 20
0.0
 30
0.0
 70
     1
  0
VERTEX
  5
389E
  8
0
  6
CONTINUOUS
 62
     4
 10
185.6030593227866916
 20
143.1973089371149968
 30
0.0
  0
VERTEX
  5
389F
  8
0
  6
CONTINUOUS
 62
     4
 10
185.6030593227866916
 20
141.1973089371136894
 30
0.0
  0
VERTEX
  5
38A0
  8
0
  6
CONTINUOUS
 62
     4
 10
185.6030593227864927
 20
130.4315460916882898
 30
0.0
  0
VERTEX
  5
38A1
  8
0
  6
CONTINUOUS
 62
     4
 10
186.7530593227895963
 20
130.4315460916882898
 30
0.0
  0
VERTEX
  5
38A2
  8
0
  6
CONTINUOUS
 62
     4
 10
195.153059322789602
 20
130.4315460916882898
 30
0.0
  0
VERTEX
  5
38A3
  8
0
  6
CONTINUOUS
 62
     4
 10
196.3030593227913982
 20
130.4315460916882898
 30
0.0
  0
VERTEX
  5
38A4
  8
0
  6
CONTINUOUS
 62
     4
 10
196.3030593227913982
 20
141.1973089371136894
 30
0.0
  0
VERTEX
  5
38A5
  8
0
  6
CONTINUOUS
 62
     4
 10
196.3030593227913982
 20
143.1973089371149968
 30
0.0
  0
VERTEX
  5
38A6
  8
0
  6
CONTINUOUS
 62
     4
 10
364.8518093227896202
 20
143.1973089371149968
 30
0.0
 42
-0.4142135623730951
  0
VERTEX
  5
38A7
  8
0
  6
CONTINUOUS
 62
     4
 10
366.8518093227896202
 20
141.1973089371149968
 30
0.0
  0
VERTEX
  5
38A8
  8
0
  6
CONTINUOUS
 62
     4
 10
366.8518093227900749
 20
28.7973089371146216
 30
0.0
  0
VERTEX
  5
38A9
  8
0
  6
CONTINUOUS
 62
     4
 10
366.8518093227900749
 20
141.1973089371147125
 30
0.0
 42
0.4142135623730951
  0
VERTEX
  5
38AA
  8
0
  6
CONTINUOUS
 62
     4
 10
364.8518093227900749
 20
143.1973089371147125
 30
0.0
  0
VERTEX
  5
38AB
  8
0
  6
CONTINUOUS
 62
     4
 10
17.5530593227901406
 20
143.1973089371147125
 30
0.0
 42
0.4142135623730951
  0
VERTEX
  5
38AC
  8
0
  6
CONTINUOUS
 62
     4
 10
15.5530593227901495
 20
141.1973089371147125
 30
0.0
  0
VERTEX
  5
38AD
  8
0
  6
CONTINUOUS
 62
     4
 10
15.5530593227902596
 20
28.7973089371146216
 30
0.0
  0
VERTEX
  5
38AE
  8
0
  6
CONTINUOUS
 62
     4
 10
15.5530593227896894
 20
141.1973089371149968
 30
0.0
 42
-0.4142135623730951
  0
VERTEX
  5
38AF
  8
0
  6
CONTINUOUS
 62
     4
 10
17.5530593227896894
 20
143.1973089371149968
 30
0.0
  0
SEQEND
  5
38B0
  8
0
  6
CONTINUOUS
 62
     4
  0
POLYLINE
  5
332F
  8
0
  6
CONTINUOUS
 62
     4
 66
     1
 10
0.0
 20
0.0
 30
0.0
 70
     1
  0
VERTEX
  5
38B1
  8
0
  6
CONTINUOUS
 62
     4
 10
80.9430593227895656
 20
77.9273089371147307
 30
0.0
 42
0.4142135623730951
  0
VERTEX
  5
38B2
  8
0
  6
CONTINUOUS
 62
     4
 10
81.9430593227895656
 20
76.9273089371147307
 30
0.0
  0
VERTEX
  5
38B3
  8
0
  6
CONTINUOUS
 62
     4
 10
93.9430593227895656
 20
76.9273089371147307
 30
0.0
 42
0.4142135623730951
  0
VERTEX
  5
38B4
  8
0
  6
CONTINUOUS
 62
     4
 10
94.9430593227895656
 20
77.9273089371147307
 30
0.0
  0
VERTEX
  5
38B5
  8
0
  6
CONTINUOUS
 62
     4
 10
94.9430593227895656
 20
89.9273089371147165
 30
0.0
 42
0.4142135623730951
  0
VERTEX
  5
38B6
  8
0
  6
CONTINUOUS
 62
     4
 10
93.9430593227895656
 20
90.9273089371149439
 30
0.0
  0
VERTEX
  5
38B7
  8
0
  6
CONTINUOUS
 62
     4
 10
81.9430593227895656
 20
90.9273089371149439
 30
0.0
 42
0.4142135623730784
  0
VERTEX
  5
38B8
  8
0
  6
CONTINUOUS
 62
     4
 10
80.9430593227895656
 20
89.9273089371147876
 30
0.0
  0
SEQEND
  5
38B9
  8
0
  6
CONTINUOUS
 62
     4
  0
POLYLINE
  5
3330
  8
0
  6
CONTINUOUS
 62
     4
 66
     1
 10
0.0
 20
0.0
 30
0.0
  0
VERTEX
  5
38BA
  8
0
  6
CONTINUOUS
 62
     4
 10
341.7430593227895201
 20
77.9273089371146739
 30
0.0
  0
VERTEX
  5
38BB
  8
0
  6
CONTINUOUS
 62
     4
 10
341.7430613493474993
 20
90.9273075066032561
 30
0.0
  0
VERTEX
  5
38BC
  8
0
  6
CONTINUOUS
 62
     4
 10
343.1810593227870072
 20
90.9273075066032561
 30
0.0
  0
VERTEX
  5
38BD
  8
0
  6
CONTINUOUS
 62
     4
 10
343.1810606574567828
 20
76.3423117003860057
 30
0.0
 42
0.4142142039449891
  0
VERTEX
  5
38BE
  8
0
  6
CONTINUOUS
 62
     4
 10
344.1810608213696128
 20
75.3423096738283107
 30
0.0
  0
VERTEX
  5
38BF
  8
0
  6
CONTINUOUS
 62
     4
 10
349.1810616409334216
 20
75.3423096738283107
 30
0.0
 42
0.4142142039450223
  0
VERTEX
  5
38C0
  8
0
  6
CONTINUOUS
 62
     4
 10
350.1810618048464221
 20
76.3423117003861194
 30
0.0
  0
VERTEX
  5
38C1
  8
0
  6
CONTINUOUS
 62
     4
 10
350.1810618048460242
 20
93.2823093734207305
 30
0.0
 42
0.4142142039466332
  0
VERTEX
  5
38C2
  8
0
  6
CONTINUOUS
 62
     4
 10
349.1810616409331942
 20
94.2823113999787097
 30
0.0
  0
VERTEX
  5
38C3
  8
0
  6
CONTINUOUS
 62
     4
 10
320.3050624882728812
 20
94.2823113999782549
 30
0.0
 42
0.4142147495031774
  0
VERTEX
  5
38C4
  8
0
  6
CONTINUOUS
 62
     4
 10
319.3050604617150725
 20
93.2823093734205457
 30
0.0
  0
VERTEX
  5
38C5
  8
0
  6
CONTINUOUS
 62
     4
 10
319.3050604617151862
 20
76.3423117003855936
 30
0.0
 42
0.4142147495034063
  0
VERTEX
  5
38C6
  8
0
  6
CONTINUOUS
 62
     4
 10
320.3050624882731086
 20
75.3423096738277422
 30
0.0
  0
VERTEX
  5
38C7
  8
0
  6
CONTINUOUS
 62
     4
 10
325.3050614451917113
 20
75.3423096738283107
 30
0.0
 42
0.4142136583901869
  0
VERTEX
  5
38C8
  8
0
  6
CONTINUOUS
 62
     4
 10
326.305059746459392
 20
76.3423117003859488
 30
0.0
  0
VERTEX
  5
38C9
  8
0
  6
CONTINUOUS
 62
     4
 10
326.3050593227836771
 20
90.9273075066030856
 30
0.0
  0
VERTEX
  5
38CA
  8
0
  6
CONTINUOUS
 62
     4
 10
327.7430627798589171
 20
90.9273075066030856
 30
0.0
  0
VERTEX
  5
38CB
  8
0
  6
CONTINUOUS
 62
     4
 10
327.7430593227895201
 20
77.9273089371147307
 30
0.0
 42
0.4142125498208122
  0
VERTEX
  5
38CC
  8
0
  6
CONTINUOUS
 62
     4
 10
328.7430593227776967
 20
76.9273054800517002
 30
0.0
  0
SEQEND
  5
38CD
  8
0
  6
CONTINUOUS
 62
     4
  0
POLYLINE
  5
3331
  8
0
  6
CONTINUOUS
 62
     4
 66
     1
 10
0.0
 20
0.0
 30
0.0
 70
     1
  0
VERTEX
  5
38CE
  8
0
  6
CONTINUOUS
 62
     4
 10
161.5587183690525137
 20
43.2481389698584096
 30
0.0
 42
0.4142142039466201
  0
VERTEX
  5
38CF
  8
0
  6
CONTINUOUS
 62
     4
 10
160.7884827201505118
 20
44.4342002777621019
 30
0.0
  0
VERTEX
  5
38D0
  8
0
  6
CONTINUOUS
 62
     4
 10
158.5883857781711868
 20
44.9018453190900502
 30
0.0
 42
0.0236316764321821
  0
VERTEX
  5
38D1
  8
0
  6
CONTINUOUS
 62
     4
 10
158.497007305975103
 20
44.9258307589414514
 30
0.0
  0
VERTEX
  5
38D2
  8
0
  6
CONTINUOUS
 62
     4
 10
130.2520180160088898
 20
50.9294885668232311
 30
0.0
 42
0.414214749503122
  0
VERTEX
  5
38D3
  8
0
  6
CONTINUOUS
 62
     4
 10
129.0659563208396889
 20
50.1592510959795277
 30
0.0
  0
VERTEX
  5
38D4
  8
0
  6
CONTINUOUS
 62
     4
 10
125.5439327621902947
 20
33.5894330156642198
 30
0.0
 42
0.4142147495029653
  0
VERTEX
  5
38D5
  8
0
  6
CONTINUOUS
 62
     4
 10
126.3141702330324989
 20
32.4033713204952392
 30
0.0
  0
VERTEX
  5
38D6
  8
0
  6
CONTINUOUS
 62
     4
 10
128.5142653530500922
 20
31.9357266664371799
 30
0.0
 42
0.0236321423585751
  0
VERTEX
  5
38D7
  8
0
  6
CONTINUOUS
 62
     4
 10
128.6056456472078082
 20
31.9117408393158293
 30
0.0
  0
VERTEX
  5
38D8
  8
0
  6
CONTINUOUS
 62
     4
 10
133.4963826305894088
 20
30.872182602095851
 30
0.0
 42
0.4142136583900652
  0
VERTEX
  5
38D9
  8
0
  6
CONTINUOUS
 62
     4
 10
134.6824406818749083
 20
31.6424208474705893
 30
0.0
  0
VERTEX
  5
38DA
  8
0
  6
CONTINUOUS
 62
     4
 10
134.8059244707669109
 20
32.2233663987256094
 30
0.0
 42
0.023635684844314
  0
VERTEX
  5
38DB
  8
0
  6
CONTINUOUS
 62
     4
 10
134.8973181884001065
 20
32.1993759924852725
 30
0.0
  0
VERTEX
  5
38DC
  8
0
  6
CONTINUOUS
 62
     4
 10
137.0974135707969879
 20
31.7317312826569413
 30
0.0
 42
0.0236316354314404
  0
VERTEX
  5
38DD
  8
0
  6
CONTINUOUS
 62
     4
 10
137.1887918826624002
 20
31.7077458768848714
 30
0.0
  0
VERTEX
  5
38DE
  8
0
  6
CONTINUOUS
 62
     4
 10
148.9265630914680969
 20
29.2128055870715002
 30
0.0
 42
0.0236356829401787
  0
VERTEX
  5
38DF
  8
0
  6
CONTINUOUS
 62
     4
 10
149.0198131508892914
 20
29.1975485822767986
 30
0.0
  0
VERTEX
  5
38E0
  8
0
  6
CONTINUOUS
 62
     4
 10
148.8981850687748079
 20
28.6253334450026991
 30
0.0
 42
0.4142142039449866
  0
VERTEX
  5
38E1
  8
0
  6
CONTINUOUS
 62
     4
 10
149.6684207176766961
 20
27.4392721370991808
 30
0.0
  0
VERTEX
  5
38E2
  8
0
  6
CONTINUOUS
 62
     4
 10
151.8685176596578117
 20
26.9716270957710016
 30
0.0
 42
0.0236316764316628
  0
VERTEX
  5
38E3
  8
0
  6
CONTINUOUS
 62
     4
 10
151.9598961318521049
 20
26.9476416559198206
 30
0.0
  0
VERTEX
  5
38E4
  8
0
  6
CONTINUOUS
 62
     4
 10
156.8506349371754141
 20
25.9080830314340496
 30
0.0
 42
0.414214203944976
  0
VERTEX
  5
38E5
  8
0
  6
CONTINUOUS
 62
     4
 10
158.0366948104029063
 20
26.6783208895432686
 30
0.0
  0
SEQEND
  5
38E6
  8
0
  6
CONTINUOUS
 62
     4
  0
POLYLINE
  5
3332
  8
0
  6
CONTINUOUS
 62
     4
 66
     1
 10
0.0
 20
0.0
 30
0.0
 70
     1
  0
VERTEX
  5
38E7
  8
0
  6
CONTINUOUS
 62
     4
 10
313.2500577199016902
 20
129.0273089371150093
 30
0.0
  0
VERTEX
  5
38E8
  8
0
  6
CONTINUOUS
 62
     4
 10
313.1630593227895929
 20
129.0273089371150093
 30
0.0
 42
0.4142135623730784
  0
VERTEX
  5
38E9
  8
0
  6
CONTINUOUS
 62
     4
 10
312.1630593227895929
 20
128.0273089371150093
 30
0.0
  0
VERTEX
  5
38EA
  8
0
  6
CONTINUOUS
 62
     4
 10
312.1630593227894792
 20
116.0273089371148956
 30
0.0
 42
0.4142135623730743
  0
VERTEX
  5
38EB
  8
0
  6
CONTINUOUS
 62
     4
 10
313.1630593227895929
 20
115.027308937114995
 30
0.0
  0
VERTEX
  5
38EC
  8
0
  6
CONTINUOUS
 62
     4
 10
313.2500593227945842
 20
115.027308937114995
 30
0.0
  0
VERTEX
  5
38ED
  8
0
  6
CONTINUOUS
 62
     4
 10
313.2500577199016902
 20
112.6723077855531017
 30
0.0
 42
0.414214203946654
  0
VERTEX
  5
38EE
  8
0
  6
CONTINUOUS
 62
     4
 10
314.2500578838145771
 20
111.672305758995293
 30
0.0
  0
VERTEX
  5
38EF
  8
0
  6
CONTINUOUS
 62
     4
 10
343.1260570364750038
 20
111.6723057589956056
 30
0.0
 42
0.4142147495030734
  0
VERTEX
  5
38F0
  8
0
  6
CONTINUOUS
 62
     4
 10
344.1260590630326988
 20
112.672307785553599
 30
0.0
  0
VERTEX
  5
38F1
  8
0
  6
CONTINUOUS
 62
     4
 10
344.1260593227937079
 20
115.027308937114995
 30
0.0
  0
VERTEX
  5
38F2
  8
0
  6
CONTINUOUS
 62
     4
 10
344.2130593227894906
 20
115.0273089371146966
 30
0.0
 42
0.4142135623730951
  0
VERTEX
  5
38F3
  8
0
  6
CONTINUOUS
 62
     4
 10
345.2130593227896043
 20
116.0273089371147961
 30
0.0
  0
VERTEX
  5
38F4
  8
0
  6
CONTINUOUS
 62
     4
 10
345.2130593227896043
 20
128.0273089371148956
 30
0.0
 42
0.4142135623731076
  0
VERTEX
  5
38F5
  8
0
  6
CONTINUOUS
 62
     4
 10
344.2130593227894906
 20
129.0273089371150093
 30
0.0
  0
VERTEX
  5
38F6
  8
0
  6
CONTINUOUS
 62
     4
 10
344.1260590630326988
 20
129.0273089371150093
 30
0.0
  0
VERTEX
  5
38F7
  8
0
  6
CONTINUOUS
 62
     4
 10
344.1260590630324145
 20
129.612305458588196
 30
0.0
 42
0.4142147495034022
  0
VERTEX
  5
38F8
  8
0
  6
CONTINUOUS
 62
     4
 10
343.1260570364746059
 20
130.6123074851458057
 30
0.0
  0
VERTEX
  5
38F9
  8
0
  6
CONTINUOUS
 62
     4
 10
338.1260580795557757
 20
130.6123074851460046
 30
0.0
 42
0.4142136583901994
  0
VERTEX
  5
38FA
  8
0
  6
CONTINUOUS
 62
     4
 10
337.1260597782883224
 20
129.6123054585879117
 30
0.0
  0
VERTEX
  5
38FB
  8
0
  6
CONTINUOUS
 62
     4
 10
337.1260597782884929
 20
129.0273089371150093
 30
0.0
  0
VERTEX
  5
38FC
  8
0
  6
CONTINUOUS
 62
     4
 10
320.2500588672911022
 20
129.0273089371150093
 30
0.0
  0
VERTEX
  5
38FD
  8
0
  6
CONTINUOUS
 62
     4
 10
320.2500588672908748
 20
129.6123054585877981
 30
0.0
 42
0.4142142039450016
  0
VERTEX
  5
38FE
  8
0
  6
CONTINUOUS
 62
     4
 10
319.2500587033781017
 20
130.6123074851456067
 30
0.0
  0
VERTEX
  5
38FF
  8
0
  6
CONTINUOUS
 62
     4
 10
314.2500578838141791
 20
130.6123074851456067
 30
0.0
 42
0.4142142039449766
  0
VERTEX
  5
3900
  8
0
  6
CONTINUOUS
 62
     4
 10
313.2500577199015197
 20
129.6123054585877981
 30
0.0
  0
SEQEND
  5
3901
  8
0
  6
CONTINUOUS
 62
     4
  0
POLYLINE
  5
3333
  8
0
  6
CONTINUOUS
 62
     4
 66
     1
 10
0.0
 20
0.0
 30
0.0
 70
     1
  0
VERTEX
  5
3902
  8
0
  6
CONTINUOUS
 62
     4
 10
236.4386904524224065
 20
48.6276213676446787
 30
0.0
 42
0.4142142039466802
  0
VERTEX
  5
3903
  8
0
  6
CONTINUOUS
 62
     4
 10
235.2526305791948005
 20
49.3978592257541322
 30
0.0
  0
VERTEX
  5
3904
  8
0
  6
CONTINUOUS
 62
     4
 10
207.007641289228701
 20
43.394201417872118
 30
0.0
 42
0.4142147495031344
  0
VERTEX
  5
3905
  8
0
  6
CONTINUOUS
 62
     4
 10
206.2374038183851042
 20
42.20813972270264
 30
0.0
  0
VERTEX
  5
3906
  8
0
  6
CONTINUOUS
 62
     4
 10
209.7594273770347115
 20
25.6383216423875595
 30
0.0
 42
0.4142147495034129
  0
VERTEX
  5
3907
  8
0
  6
CONTINUOUS
 62
     4
 10
210.9454890722041114
 20
24.8680841715439591
 30
0.0
  0
VERTEX
  5
3908
  8
0
  6
CONTINUOUS
 62
     4
 10
215.8362260555857972
 20
25.9076424087638202
 30
0.0
 42
0.4142136583902229
  0
VERTEX
  5
3909
  8
0
  6
CONTINUOUS
 62
     4
 10
216.6064598825456926
 20
27.0937033294019294
 30
0.0
  0
VERTEX
  5
390A
  8
0
  6
CONTINUOUS
 62
     4
 10
213.5740683294876874
 20
41.3599818958787679
 30
0.0
  0
VERTEX
  5
390B
  8
0
  6
CONTINUOUS
 62
     4
 10
214.9806479608728011
 20
41.6589596260410531
 30
0.0
  0
VERTEX
  5
390C
  8
0
  6
CONTINUOUS
 62
     4
 10
217.683496262559288
 20
28.9430414969877496
 30
0.0
 42
0.4142135623730323
  0
VERTEX
  5
390D
  8
0
  6
CONTINUOUS
 62
     4
 10
218.8695555541110025
 20
28.1728055870716503
 30
0.0
  0
VERTEX
  5
390E
  8
0
  6
CONTINUOUS
 62
     4
 10
230.6073267629168129
 20
30.6677458768849682
 30
0.0
 42
0.414213562373049
  0
VERTEX
  5
390F
  8
0
  6
CONTINUOUS
 62
     4
 10
231.377562672832795
 20
31.8538051684366792
 30
0.0
  0
VERTEX
  5
3910
  8
0
  6
CONTINUOUS
 62
     4
 10
228.6747129718947065
 20
44.5697230000696933
 30
0.0
  0
VERTEX
  5
3911
  8
0
  6
CONTINUOUS
 62
     4
 10
230.0812872394745057
 20
44.8686995901201087
 30
0.0
  0
VERTEX
  5
3912
  8
0
  6
CONTINUOUS
 62
     4
 10
233.1136796836192104
 20
30.6024212130495208
 30
0.0
 42
0.414214203945002
  0
VERTEX
  5
3913
  8
0
  6
CONTINUOUS
 62
     4
 10
234.299739556846788
 20
29.8321833549403586
 30
0.0
  0
VERTEX
  5
3914
  8
0
  6
CONTINUOUS
 62
     4
 10
239.1904783621702961
 20
30.8717419794260195
 30
0.0
 42
0.4142142039450208
  0
VERTEX
  5
3915
  8
0
  6
CONTINUOUS
 62
     4
 10
239.9607140110722128
 20
32.0578032873295911
 30
0.0
  0
SEQEND
  5
3916
  8
0
  6
CONTINUOUS
 62
     4
  0
POLYLINE
  5
3334
  8
0
  6
CONTINUOUS
 62
     4
 66
     1
 10
0.0
 20
0.0
 30
0.0
 70
     1
  0
VERTEX
  5
3917
  8
0
  6
CONTINUOUS
 62
     4
 10
318.7150585990700051
 20
71.8773089371149467
 30
0.0
  0
VERTEX
  5
3918
  8
0
  6
CONTINUOUS
 62
     4
 10
318.6280593227896247
 20
71.8773089371146625
 30
0.0
 42
0.4142135623731159
  0
VERTEX
  5
3919
  8
0
  6
CONTINUOUS
 62
     4
 10
317.6280593227896816
 20
70.8773089371146625
 30
0.0
  0
VERTEX
  5
391A
  8
0
  6
CONTINUOUS
 62
     4
 10
317.6280593227896247
 20
58.8773089371147194
 30
0.0
 42
0.4142135623731034
  0
VERTEX
  5
391B
  8
0
  6
CONTINUOUS
 62
     4
 10
318.6280593227896247
 20
57.8773089371147194
 30
0.0
  0
VERTEX
  5
391C
  8
0
  6
CONTINUOUS
 62
     4
 10
318.7150593227945024
 20
57.8773089371147194
 30
0.0
  0
VERTEX
  5
391D
  8
0
  6
CONTINUOUS
 62
     4
 10
318.7150585990697778
 20
55.5223085008091672
 30
0.0
 42
0.4142142039466707
  0
VERTEX
  5
391E
  8
0
  6
CONTINUOUS
 62
     4
 10
319.7150587629827783
 20
54.5223064742511383
 30
0.0
  0
VERTEX
  5
391F
  8
0
  6
CONTINUOUS
 62
     4
 10
348.591057915643205
 20
54.5223064742513088
 30
0.0
 42
0.4142147495031816
  0
VERTEX
  5
3920
  8
0
  6
CONTINUOUS
 62
     4
 10
349.5910599422011273
 20
55.5223085008091175
 30
0.0
  0
VERTEX
  5
3921
  8
0
  6
CONTINUOUS
 62
     4
 10
349.5910593227936829
 20
57.8773089371147194
 30
0.0
  0
VERTEX
  5
3922
  8
0
  6
CONTINUOUS
 62
     4
 10
356.8218093227895906
 20
57.8773089371146625
 30
0.0
 42
0.4142135623730618
  0
VERTEX
  5
3923
  8
0
  6
CONTINUOUS
 62
     4
 10
357.8218093227894769
 20
58.8773089371147194
 30
0.0
  0
VERTEX
  5
3924
  8
0
  6
CONTINUOUS
 62
     4
 10
357.8218093227897043
 20
70.8773089371147194
 30
0.0
 42
0.4142135623730451
  0
VERTEX
  5
3925
  8
0
  6
CONTINUOUS
 62
     4
 10
356.8218093227894769
 20
71.8773089371149467
 30
0.0
  0
VERTEX
  5
3926
  8
0
  6
CONTINUOUS
 62
     4
 10
349.5910599422011273
 20
71.8773089371149467
 30
0.0
  0
VERTEX
  5
3927
  8
0
  6
CONTINUOUS
 62
     4
 10
349.5910599422011273
 20
72.4623061738438423
 30
0.0
 42
0.4142147495034355
  0
VERTEX
  5
3928
  8
0
  6
CONTINUOUS
 62
     4
 10
348.591057915643205
 20
73.4623082004015373
 30
0.0
  0
VERTEX
  5
3929
  8
0
  6
CONTINUOUS
 62
     4
 10
343.591058958724318
 20
73.4623082004017647
 30
0.0
 42
0.4142136583901911
  0
VERTEX
  5
392A
  8
0
  6
CONTINUOUS
 62
     4
 10
342.5910606574568078
 20
72.4623061738437855
 30
0.0
  0
VERTEX
  5
392B
  8
0
  6
CONTINUOUS
 62
     4
 10
342.5910593227956156
 20
57.8773103676265919
 30
0.0
  0
VERTEX
  5
392C
  8
0
  6
CONTINUOUS
 62
     4
 10
341.1530576240572259
 20
57.8773103676265919
 30
0.0
  0
VERTEX
  5
392D
  8
0
  6
CONTINUOUS
 62
     4
 10
341.1530593227894883
 20
70.8773089371146625
 30
0.0
 42
0.4142135623731076
  0
VERTEX
  5
392E
  8
0
  6
CONTINUOUS
 62
     4
 10
340.153059322789602
 20
71.8773089371149467
 30
0.0
  0
VERTEX
  5
392F
  8
0
  6
CONTINUOUS
 62
     4
 10
325.7150597464594171
 20
71.8773089371149467
 30
0.0
  0
VERTEX
  5
3930
  8
0
  6
CONTINUOUS
 62
     4
 10
325.7150597464593034
 20
72.4623061738438423
 30
0.0
 42
0.4142142039449849
  0
VERTEX
  5
3931
  8
0
  6
CONTINUOUS
 62
     4
 10
324.7150595825464734
 20
73.4623082004015373
 30
0.0
  0
VERTEX
  5
3932
  8
0
  6
CONTINUOUS
 62
     4
 10
319.7150587629827783
 20
73.4623082004015373
 30
0.0
 42
0.4142142039450265
  0
VERTEX
  5
3933
  8
0
  6
CONTINUOUS
 62
     4
 10
318.7150585990698914
 20
72.4623061738438423
 30
0.0
  0
SEQEND
  5
3934
  8
0
  6
CONTINUOUS
 62
     4
  0
POLYLINE
  5
3335
  8
0
  6
CONTINUOUS
 62
     4
 66
     1
 10
0.0
 20
0.0
 30
0.0
 70
     1
  0
VERTEX
  5
3935
  8
0
  6
CONTINUOUS
 62
     4
 10
46.9050585990699389
 20
55.5223085008091672
 30
0.0
 42
0.414214203946604
  0
VERTEX
  5
3936
  8
0
  6
CONTINUOUS
 62
     4
 10
47.905058762982712
 20
54.5223064742511383
 30
0.0
  0
VERTEX
  5
3937
  8
0
  6
CONTINUOUS
 62
     4
 10
76.7810579156429753
 20
54.522306474251252
 30
0.0
 42
0.4142147495031482
  0
VERTEX
  5
3938
  8
0
  6
CONTINUOUS
 62
     4
 10
77.7810599422008977
 20
55.5223085008091175
 30
0.0
  0
VERTEX
  5
3939
  8
0
  6
CONTINUOUS
 62
     4
 10
77.7810599422010114
 20
72.4623061738438423
 30
0.0
 42
0.4142147495031358
  0
VERTEX
  5
393A
  8
0
  6
CONTINUOUS
 62
     4
 10
76.7810579156438848
 20
73.462308200401651
 30
0.0
  0
VERTEX
  5
393B
  8
0
  6
CONTINUOUS
 62
     4
 10
71.7810589587251684
 20
73.4623082004017647
 30
0.0
 42
0.4142136583901412
  0
VERTEX
  5
393C
  8
0
  6
CONTINUOUS
 62
     4
 10
70.7810606574576582
 20
72.4623061738437855
 30
0.0
  0
VERTEX
  5
393D
  8
0
  6
CONTINUOUS
 62
     4
 10
70.7810606574576582
 20
57.8773103676257392
 30
0.0
  0
VERTEX
  5
393E
  8
0
  6
CONTINUOUS
 62
     4
 10
69.3430576240562431
 20
57.8773103676257392
 30
0.0
  0
VERTEX
  5
393F
  8
0
  6
CONTINUOUS
 62
     4
 10
69.3430593227895429
 20
70.8773089371146625
 30
0.0
 42
0.4142135623730951
  0
VERTEX
  5
3940
  8
0
  6
CONTINUOUS
 62
     4
 10
68.3430593227895429
 20
71.8773089371149467
 30
0.0
  0
VERTEX
  5
3941
  8
0
  6
CONTINUOUS
 62
     4
 10
56.3430593227895429
 20
71.8773089371146625
 30
0.0
 42
0.4142135623731076
  0
VERTEX
  5
3942
  8
0
  6
CONTINUOUS
 62
     4
 10
55.3430593227896495
 20
70.8773089371146625
 30
0.0
  0
VERTEX
  5
3943
  8
0
  6
CONTINUOUS
 62
     4
 10
55.3430590545686414
 20
57.8773103676265919
 30
0.0
  0
VERTEX
  5
3944
  8
0
  6
CONTINUOUS
 62
     4
 10
53.9050593227934201
 20
57.8773103676265919
 30
0.0
  0
VERTEX
  5
3945
  8
0
  6
CONTINUOUS
 62
     4
 10
53.9050597464593579
 20
72.4623061738438423
 30
0.0
 42
0.4142142039449849
  0
VERTEX
  5
3946
  8
0
  6
CONTINUOUS
 62
     4
 10
52.9050595825465919
 20
73.4623082004015373
 30
0.0
  0
VERTEX
  5
3947
  8
0
  6
CONTINUOUS
 62
     4
 10
47.905058762982712
 20
73.4623082004015373
 30
0.0
 42
0.4142142039449931
  0
VERTEX
  5
3948
  8
0
  6
CONTINUOUS
 62
     4
 10
46.9050585990699389
 20
72.4623061738438423
 30
0.0
  0
SEQEND
  5
3949
  8
0
  6
CONTINUOUS
 62
     4
  0
POLYLINE
  5
3336
  8
0
  6
CONTINUOUS
 62
     4
 66
     1
 10
0.0
 20
0.0
 30
0.0
 70
     1
  0
VERTEX
  5
394A
  8
0
  6
CONTINUOUS
 62
     4
 10
258.0934962625594267
 20
36.0030414969876915
 30
0.0
 42
0.414213562373107
  0
VERTEX
  5
394B
  8
0
  6
CONTINUOUS
 62
     4
 10
259.2795555541110843
 20
35.2328055870716597
 30
0.0
  0
VERTEX
  5
394C
  8
0
  6
CONTINUOUS
 62
     4
 10
271.0173267629169231
 20
37.7277458768848035
 30
0.0
 42
0.4142135623730368
  0
VERTEX
  5
394D
  8
0
  6
CONTINUOUS
 62
     4
 10
271.7875626728326779
 20
38.9138051684366317
 30
0.0
  0
VERTEX
  5
394E
  8
0
  6
CONTINUOUS
 62
     4
 10
269.2926223830195909
 20
50.6515763772421792
 30
0.0
 42
0.4142135623731193
  0
VERTEX
  5
394F
  8
0
  6
CONTINUOUS
 62
     4
 10
268.1065630914681037
 20
51.4218122871582679
 30
0.0
  0
VERTEX
  5
3950
  8
0
  6
CONTINUOUS
 62
     4
 10
256.3687918826623218
 20
48.9268719973450175
 30
0.0
 42
0.4142135623730285
  0
VERTEX
  5
3951
  8
0
  6
CONTINUOUS
 62
     4
 10
255.5985559727461975
 20
47.7408127057933029
 30
0.0
  0
SEQEND
  5
3952
  8
0
  6
CONTINUOUS
 62
     4
  0
POLYLINE
  5
3337
  8
0
  6
CONTINUOUS
 62
     4
 66
     1
 10
0.0
 20
0.0
 30
0.0
 70
     1
  0
VERTEX
  5
3953
  8
0
  6
CONTINUOUS
 62
     4
 10
266.2073267629166935
 20
57.7177458768847984
 30
0.0
 42
0.4142135623731213
  0
VERTEX
  5
3954
  8
0
  6
CONTINUOUS
 62
     4
 10
266.9775626728326188
 20
58.9038051684364632
 30
0.0
  0
VERTEX
  5
3955
  8
0
  6
CONTINUOUS
 62
     4
 10
264.4826223830197023
 20
70.6415763772418472
 30
0.0
 42
0.4142135623730689
  0
VERTEX
  5
3956
  8
0
  6
CONTINUOUS
 62
     4
 10
263.2965630914679878
 20
71.4118122871581704
 30
0.0
  0
VERTEX
  5
3957
  8
0
  6
CONTINUOUS
 62
     4
 10
251.55879188266249
 20
68.9168719973447992
 30
0.0
 42
0.4142135623730748
  0
VERTEX
  5
3958
  8
0
  6
CONTINUOUS
 62
     4
 10
250.7885559727465079
 20
67.7308127057934826
 30
0.0
  0
VERTEX
  5
3959
  8
0
  6
CONTINUOUS
 62
     4
 10
253.2834962625595097
 20
55.9930414969877575
 30
0.0
 42
0.4142135623730826
  0
VERTEX
  5
395A
  8
0
  6
CONTINUOUS
 62
     4
 10
254.4695555541111105
 20
55.2228055870717682
 30
0.0
  0
SEQEND
  5
395B
  8
0
  6
CONTINUOUS
 62
     4
  0
POLYLINE
  5
3338
  8
0
  6
CONTINUOUS
 62
     4
 66
     1
 10
0.0
 20
0.0
 30
0.0
 70
     1
  0
VERTEX
  5
395C
  8
0
  6
CONTINUOUS
 62
     4
 10
56.433059322789461
 20
96.9773089371148558
 30
0.0
 42
0.4142135623731117
  0
VERTEX
  5
395D
  8
0
  6
CONTINUOUS
 62
     4
 10
57.433059322789461
 20
95.9773089371149837
 30
0.0
  0
VERTEX
  5
395E
  8
0
  6
CONTINUOUS
 62
     4
 10
69.433059322789461
 20
95.9773089371147989
 30
0.0
 42
0.4142135623730951
  0
VERTEX
  5
395F
  8
0
  6
CONTINUOUS
 62
     4
 10
70.433059322789461
 20
96.9773089371147847
 30
0.0
  0
VERTEX
  5
3960
  8
0
  6
CONTINUOUS
 62
     4
 10
70.433059322789461
 20
108.9773089371146995
 30
0.0
 42
0.4142135623730951
  0
VERTEX
  5
3961
  8
0
  6
CONTINUOUS
 62
     4
 10
69.433059322789461
 20
109.9773089371148984
 30
0.0
  0
VERTEX
  5
3962
  8
0
  6
CONTINUOUS
 62
     4
 10
57.433059322789461
 20
109.9773089371147989
 30
0.0
 42
0.4142135623730951
  0
VERTEX
  5
3963
  8
0
  6
CONTINUOUS
 62
     4
 10
56.433059322789461
 20
108.9773089371146995
 30
0.0
  0
SEQEND
  5
3964
  8
0
  6
CONTINUOUS
 62
     4
  0
POLYLINE
  5
3339
  8
0
  6
CONTINUOUS
 62
     4
 66
     1
 10
0.0
 20
0.0
 30
0.0
 70
     1
  0
VERTEX
  5
3965
  8
0
  6
CONTINUOUS
 62
     4
 10
62.9830593227896429
 20
76.927308937114617
 30
0.0
 42
0.4142135623730618
  0
VERTEX
  5
3966
  8
0
  6
CONTINUOUS
 62
     4
 10
63.9830593227896429
 20
77.9273089371147307
 30
0.0
  0
VERTEX
  5
3967
  8
0
  6
CONTINUOUS
 62
     4
 10
63.9830593227896429
 20
89.9273089371147876
 30
0.0
 42
0.4142135623730451
  0
VERTEX
  5
3968
  8
0
  6
CONTINUOUS
 62
     4
 10
62.9830593227896429
 20
90.9273089371149439
 30
0.0
  0
VERTEX
  5
3969
  8
0
  6
CONTINUOUS
 62
     4
 10
50.98305932278965
 20
90.9273089371147876
 30
0.0
 42
0.4142135623730618
  0
VERTEX
  5
396A
  8
0
  6
CONTINUOUS
 62
     4
 10
49.9830593227896429
 20
89.9273089371147165
 30
0.0
  0
VERTEX
  5
396B
  8
0
  6
CONTINUOUS
 62
     4
 10
49.9830593227896429
 20
77.9273089371147307
 30
0.0
 42
0.4142135623730951
  0
VERTEX
  5
396C
  8
0
  6
CONTINUOUS
 62
     4
 10
50.98305932278965
 20
76.9273089371147307
 30
0.0
  0
SEQEND
  5
396D
  8
0
  6
CONTINUOUS
 62
     4
  0
POLYLINE
  5
333A
  8
0
  6
CONTINUOUS
 62
     4
 66
     1
 10
0.0
 20
0.0
 30
0.0
 70
     1
  0
VERTEX
  5
396E
  8
0
  6
CONTINUOUS
 62
     4
 10
37.5830593227896728
 20
79.0673089371146602
 30
0.0
 42
0.4142135623730618
  0
VERTEX
  5
396F
  8
0
  6
CONTINUOUS
 62
     4
 10
38.583059322789552
 20
80.0673089371147171
 30
0.0
  0
VERTEX
  5
3970
  8
0
  6
CONTINUOUS
 62
     4
 10
38.583059322789552
 20
92.0673089371146602
 30
0.0
 42
0.4142135623730618
  0
VERTEX
  5
3971
  8
0
  6
CONTINUOUS
 62
     4
 10
37.5830593227896728
 20
93.067308937114646
 30
0.0
  0
VERTEX
  5
3972
  8
0
  6
CONTINUOUS
 62
     4
 10
25.5830593227896692
 20
93.0673089371147739
 30
0.0
 42
0.4142135623731159
  0
VERTEX
  5
3973
  8
0
  6
CONTINUOUS
 62
     4
 10
24.5830593227895484
 20
92.0673089371146602
 30
0.0
  0
VERTEX
  5
3974
  8
0
  6
CONTINUOUS
 62
     4
 10
24.5830593227895484
 20
80.0673089371146602
 30
0.0
 42
0.4142135623730743
  0
VERTEX
  5
3975
  8
0
  6
CONTINUOUS
 62
     4
 10
25.5830593227896692
 20
79.0673089371146034
 30
0.0
  0
SEQEND
  5
3976
  8
0
  6
CONTINUOUS
 62
     4
  0
POLYLINE
  5
333B
  8
0
  6
CONTINUOUS
 62
     4
 66
     1
 10
0.0
 20
0.0
 30
0.0
 70
     1
  0
VERTEX
  5
3977
  8
0
  6
CONTINUOUS
 62
     4
 10
236.7497844685806001
 20
110.9023237869093066
 30
0.0
 42
0.414213562373111
  0
VERTEX
  5
3978
  8
0
  6
CONTINUOUS
 62
     4
 10
237.9358437601320873
 20
110.132087876993296
 30
0.0
  0
VERTEX
  5
3979
  8
0
  6
CONTINUOUS
 62
     4
 10
249.6736149689378124
 20
112.6270281668062978
 30
0.0
 42
0.4142135623730511
  0
VERTEX
  5
397A
  8
0
  6
CONTINUOUS
 62
     4
 10
250.4438508788539082
 20
113.8130874583580976
 30
0.0
  0
VERTEX
  5
397B
  8
0
  6
CONTINUOUS
 62
     4
 10
247.9489105890407927
 20
125.5508586671637943
 30
0.0
 42
0.4142135623730785
  0
VERTEX
  5
397C
  8
0
  6
CONTINUOUS
 62
     4
 10
246.7628512974889929
 20
126.3210945770798048
 30
0.0
  0
VERTEX
  5
397D
  8
0
  6
CONTINUOUS
 62
     4
 10
235.0250800886834099
 20
123.8261542872666041
 30
0.0
 42
0.4142135623730626
  0
VERTEX
  5
397E
  8
0
  6
CONTINUOUS
 62
     4
 10
234.2548441787673141
 20
122.6400949957150033
 30
0.0
  0
SEQEND
  5
397F
  8
0
  6
CONTINUOUS
 62
     4
  0
POLYLINE
  5
333C
  8
0
  6
CONTINUOUS
 62
     4
 66
     1
 10
0.0
 20
0.0
 30
0.0
 70
     1
  0
VERTEX
  5
3980
  8
0
  6
CONTINUOUS
 62
     4
 10
112.9285559727460964
 20
115.7938051684362932
 30
0.0
 42
0.4142135623730968
  0
VERTEX
  5
3981
  8
0
  6
CONTINUOUS
 62
     4
 10
113.6987918826623059
 20
114.6077458768848061
 30
0.0
  0
VERTEX
  5
3982
  8
0
  6
CONTINUOUS
 62
     4
 10
125.436563091468102
 20
112.1128055870715059
 30
0.0
 42
0.4142135623731232
  0
VERTEX
  5
3983
  8
0
  6
CONTINUOUS
 62
     4
 10
126.6226223830196034
 20
112.8830414969878007
 30
0.0
  0
VERTEX
  5
3984
  8
0
  6
CONTINUOUS
 62
     4
 10
129.1175626728326051
 20
124.6208127057933979
 30
0.0
 42
0.4142135623731497
  0
VERTEX
  5
3985
  8
0
  6
CONTINUOUS
 62
     4
 10
128.3473267629167083
 20
125.8068719973449987
 30
0.0
  0
VERTEX
  5
3986
  8
0
  6
CONTINUOUS
 62
     4
 10
116.6095555541109974
 20
128.3018122871580999
 30
0.0
 42
0.4142135623731276
  0
VERTEX
  5
3987
  8
0
  6
CONTINUOUS
 62
     4
 10
115.4234962625593965
 20
127.5315763772420041
 30
0.0
  0
SEQEND
  5
3988
  8
0
  6
CONTINUOUS
 62
     4
  0
POLYLINE
  5
333D
  8
0
  6
CONTINUOUS
 62
     4
 66
     1
 10
0.0
 20
0.0
 30
0.0
 70
     1
  0
VERTEX
  5
3989
  8
0
  6
CONTINUOUS
 62
     4
 10
28.6530593227894883
 20
99.1173089371146716
 30
0.0
 42
0.4142135623730951
  0
VERTEX
  5
398A
  8
0
  6
CONTINUOUS
 62
     4
 10
29.6530593227895984
 20
98.1173089371147285
 30
0.0
  0
VERTEX
  5
398B
  8
0
  6
CONTINUOUS
 62
     4
 10
41.653059322789602
 20
98.1173089371146858
 30
0.0
 42
0.4142135623730951
  0
VERTEX
  5
398C
  8
0
  6
CONTINUOUS
 62
     4
 10
42.653059322789602
 20
99.1173089371146716
 30
0.0
  0
VERTEX
  5
398D
  8
0
  6
CONTINUOUS
 62
     4
 10
42.653059322789602
 20
111.1173089371147
 30
0.0
 42
0.4142135623730951
  0
VERTEX
  5
398E
  8
0
  6
CONTINUOUS
 62
     4
 10
41.653059322789602
 20
112.1173089371146006
 30
0.0
  0
VERTEX
  5
398F
  8
0
  6
CONTINUOUS
 62
     4
 10
29.6530593227895984
 20
112.1173089371147995
 30
0.0
 42
0.4142135623730951
  0
VERTEX
  5
3990
  8
0
  6
CONTINUOUS
 62
     4
 10
28.6530593227894883
 20
111.1173089371147
 30
0.0
  0
SEQEND
  5
3991
  8
0
  6
CONTINUOUS
 62
     4
  0
POLYLINE
  5
333E
  8
0
  6
CONTINUOUS
 62
     4
 66
     1
 10
0.0
 20
0.0
 30
0.0
 70
     1
  0
VERTEX
  5
3992
  8
0
  6
CONTINUOUS
 62
     4
 10
231.3897844685803875
 20
90.2923237869094919
 30
0.0
 42
0.4142135623730908
  0
VERTEX
  5
3993
  8
0
  6
CONTINUOUS
 62
     4
 10
232.5758437601321873
 20
89.5220878769932824
 30
0.0
  0
VERTEX
  5
3994
  8
0
  6
CONTINUOUS
 62
     4
 10
244.3136149689377987
 20
92.01702816680654
 30
0.0
 42
0.4142135623730553
  0
VERTEX
  5
3995
  8
0
  6
CONTINUOUS
 62
     4
 10
245.0838508788538093
 20
93.2030874583580839
 30
0.0
  0
VERTEX
  5
3996
  8
0
  6
CONTINUOUS
 62
     4
 10
242.5889105890408928
 20
104.9408586671635959
 30
0.0
 42
0.414213562373103
  0
VERTEX
  5
3997
  8
0
  6
CONTINUOUS
 62
     4
 10
241.402851297489093
 20
105.7110945770798054
 30
0.0
  0
VERTEX
  5
3998
  8
0
  6
CONTINUOUS
 62
     4
 10
229.6650800886833963
 20
103.2161542872664057
 30
0.0
 42
0.4142135623730285
  0
VERTEX
  5
3999
  8
0
  6
CONTINUOUS
 62
     4
 10
228.8948441787674142
 20
102.0300949957149044
 30
0.0
  0
SEQEND
  5
399A
  8
0
  6
CONTINUOUS
 62
     4
  0
POLYLINE
  5
333F
  8
0
  6
CONTINUOUS
 62
     4
 66
     1
 10
0.0
 20
0.0
 30
0.0
 70
     1
  0
VERTEX
  5
399B
  8
0
  6
CONTINUOUS
 62
     4
 10
99.6485559727462373
 20
99.1438051684364865
 30
0.0
 42
0.4142135623730953
  0
VERTEX
  5
399C
  8
0
  6
CONTINUOUS
 62
     4
 10
100.4187918826623047
 20
97.957745876884772
 30
0.0
  0
VERTEX
  5
399D
  8
0
  6
CONTINUOUS
 62
     4
 10
112.1565630914681009
 20
95.4628055870715144
 30
0.0
 42
0.4142135623731008
  0
VERTEX
  5
399E
  8
0
  6
CONTINUOUS
 62
     4
 10
113.3426223830196022
 20
96.2330414969877665
 30
0.0
  0
VERTEX
  5
399F
  8
0
  6
CONTINUOUS
 62
     4
 10
115.8375626728328029
 20
107.9708127057930938
 30
0.0
 42
0.4142135623731497
  0
VERTEX
  5
39A0
  8
0
  6
CONTINUOUS
 62
     4
 10
115.0673267629166929
 20
109.156871997344993
 30
0.0
  0
VERTEX
  5
39A1
  8
0
  6
CONTINUOUS
 62
     4
 10
103.3295555541110957
 20
111.6518122871579948
 30
0.0
 42
0.4142135623731111
  0
VERTEX
  5
39A2
  8
0
  6
CONTINUOUS
 62
     4
 10
102.1434962625594949
 20
110.8815763772419984
 30
0.0
  0
SEQEND
  5
39A3
  8
0
  6
CONTINUOUS
 62
     4
  0
POLYLINE
  5
3340
  8
0
  6
CONTINUOUS
 62
     4
 66
     1
 10
0.0
 20
0.0
 30
0.0
 70
     1
  0
VERTEX
  5
39A4
  8
0
  6
CONTINUOUS
 62
     4
 10
48.2030593227894428
 20
39.8273089371146511
 30
0.0
 42
0.4142135623730743
  0
VERTEX
  5
39A5
  8
0
  6
CONTINUOUS
 62
     4
 10
49.2030593227895565
 20
38.8273089371146511
 30
0.0
  0
VERTEX
  5
39A6
  8
0
  6
CONTINUOUS
 62
     4
 10
61.2030593227896702
 20
38.8273089371146511
 30
0.0
 42
0.4142135623730951
  0
VERTEX
  5
39A7
  8
0
  6
CONTINUOUS
 62
     4
 10
62.2030593227896702
 20
39.827308937114708
 30
0.0
  0
VERTEX
  5
39A8
  8
0
  6
CONTINUOUS
 62
     4
 10
62.2030593227896702
 20
51.8273089371146511
 30
0.0
 42
0.4142135623730951
  0
VERTEX
  5
39A9
  8
0
  6
CONTINUOUS
 62
     4
 10
61.2030593227896702
 20
52.8273089371149425
 30
0.0
  0
VERTEX
  5
39AA
  8
0
  6
CONTINUOUS
 62
     4
 10
49.2030593227895565
 20
52.8273089371146511
 30
0.0
 42
0.4142135623730951
  0
VERTEX
  5
39AB
  8
0
  6
CONTINUOUS
 62
     4
 10
48.2030593227895494
 20
51.8273089371146511
 30
0.0
  0
SEQEND
  5
39AC
  8
0
  6
CONTINUOUS
 62
     4
  0
POLYLINE
  5
3341
  8
0
  6
CONTINUOUS
 62
     4
 66
     1
 10
0.0
 20
0.0
 30
0.0
 70
     1
  0
VERTEX
  5
39AD
  8
0
  6
CONTINUOUS
 62
     4
 10
32.8130593227895702
 20
118.1673089371146972
 30
0.0
 42
0.4142135623730951
  0
VERTEX
  5
39AE
  8
0
  6
CONTINUOUS
 62
     4
 10
33.8130593227895702
 20
117.1673089371149956
 30
0.0
  0
VERTEX
  5
39AF
  8
0
  6
CONTINUOUS
 62
     4
 10
45.8130593227895702
 20
117.1673089371146972
 30
0.0
 42
0.4142135623730951
  0
VERTEX
  5
39B0
  8
0
  6
CONTINUOUS
 62
     4
 10
46.8130593227895702
 20
118.1673089371146972
 30
0.0
  0
VERTEX
  5
39B1
  8
0
  6
CONTINUOUS
 62
     4
 10
46.8130593227895702
 20
130.1673089371147114
 30
0.0
 42
0.4142135623730951
  0
VERTEX
  5
39B2
  8
0
  6
CONTINUOUS
 62
     4
 10
45.8130593227895702
 20
131.1673089371147114
 30
0.0
  0
VERTEX
  5
39B3
  8
0
  6
CONTINUOUS
 62
     4
 10
33.8130593227895702
 20
131.1673089371147114
 30
0.0
 42
0.4142135623730951
  0
VERTEX
  5
39B4
  8
0
  6
CONTINUOUS
 62
     4
 10
32.8130593227895702
 20
130.1673089371147114
 30
0.0
  0
SEQEND
  5
39B5
  8
0
  6
CONTINUOUS
 62
     4
  0
POLYLINE
  5
3342
  8
0
  6
CONTINUOUS
 62
     4
 66
     1
 10
0.0
 20
0.0
 30
0.0
 70
     1
  0
VERTEX
  5
39B6
  8
0
  6
CONTINUOUS
 62
     4
 10
240.0097844685805057
 20
72.642323786909401
 30
0.0
 42
0.4142135623731152
  0
VERTEX
  5
39B7
  8
0
  6
CONTINUOUS
 62
     4
 10
241.1958437601319929
 20
71.8720878769931346
 30
0.0
  0
VERTEX
  5
39B8
  8
0
  6
CONTINUOUS
 62
     4
 10
252.9336149689378033
 20
74.367028166806449
 30
0.0
 42
0.4142135623730709
  0
VERTEX
  5
39B9
  8
0
  6
CONTINUOUS
 62
     4
 10
253.7038508788537001
 20
75.5530874583581067
 30
0.0
  0
VERTEX
  5
39BA
  8
0
  6
CONTINUOUS
 62
     4
 10
251.2089105890406984
 20
87.290858667163775
 30
0.0
 42
0.4142135623730785
  0
VERTEX
  5
39BB
  8
0
  6
CONTINUOUS
 62
     4
 10
250.0228512974890123
 20
88.0610945770798139
 30
0.0
  0
VERTEX
  5
39BC
  8
0
  6
CONTINUOUS
 62
     4
 10
238.2850800886834861
 20
85.5661542872664853
 30
0.0
 42
0.414213562373079
  0
VERTEX
  5
39BD
  8
0
  6
CONTINUOUS
 62
     4
 10
237.5148441787673903
 20
84.3800949957148276
 30
0.0
  0
SEQEND
  5
39BE
  8
0
  6
CONTINUOUS
 62
     4
  0
POLYLINE
  5
3343
  8
0
  6
CONTINUOUS
 62
     4
 66
     1
 10
0.0
 20
0.0
 30
0.0
 70
     1
  0
VERTEX
  5
39BF
  8
0
  6
CONTINUOUS
 62
     4
 10
105.6985559727463055
 20
58.9038051684363424
 30
0.0
 42
0.414213562373017
  0
VERTEX
  5
39C0
  8
0
  6
CONTINUOUS
 62
     4
 10
106.4687918826623019
 20
57.7177458768847984
 30
0.0
  0
VERTEX
  5
39C1
  8
0
  6
CONTINUOUS
 62
     4
 10
118.206563091468098
 20
55.2228055870714911
 30
0.0
 42
0.414213562373107
  0
VERTEX
  5
39C2
  8
0
  6
CONTINUOUS
 62
     4
 10
119.3926223830194999
 20
55.9930414969876367
 30
0.0
  0
VERTEX
  5
39C3
  8
0
  6
CONTINUOUS
 62
     4
 10
121.8875626728327006
 20
67.7308127057935252
 30
0.0
 42
0.4142135623730831
  0
VERTEX
  5
39C4
  8
0
  6
CONTINUOUS
 62
     4
 10
121.1173267629167043
 20
68.9168719973449697
 30
0.0
  0
VERTEX
  5
39C5
  8
0
  6
CONTINUOUS
 62
     4
 10
109.3795555541108939
 20
71.411812287157943
 30
0.0
 42
0.4142135623730513
  0
VERTEX
  5
39C6
  8
0
  6
CONTINUOUS
 62
     4
 10
108.1934962625595062
 20
70.6415763772417904
 30
0.0
  0
SEQEND
  5
39C7
  8
0
  6
CONTINUOUS
 62
     4
  0
POLYLINE
  5
3344
  8
0
  6
CONTINUOUS
 62
     4
 66
     1
 10
0.0
 20
0.0
 30
0.0
 70
     1
  0
VERTEX
  5
39C8
  8
0
  6
CONTINUOUS
 62
     4
 10
100.8885559727463033
 20
38.9138051684363404
 30
0.0
 42
0.4142135623730511
  0
VERTEX
  5
39C9
  8
0
  6
CONTINUOUS
 62
     4
 10
101.6587918826623991
 20
37.7277458768848533
 30
0.0
  0
VERTEX
  5
39CA
  8
0
  6
CONTINUOUS
 62
     4
 10
113.3965630914679963
 20
35.2328055870716597
 30
0.0
 42
0.4142135623731348
  0
VERTEX
  5
39CB
  8
0
  6
CONTINUOUS
 62
     4
 10
114.5826223830195971
 20
36.0030414969878123
 30
0.0
  0
VERTEX
  5
39CC
  8
0
  6
CONTINUOUS
 62
     4
 10
117.0775626728326984
 20
47.7408127057934735
 30
0.0
 42
0.4142135623731252
  0
VERTEX
  5
39CD
  8
0
  6
CONTINUOUS
 62
     4
 10
116.307326762916702
 20
48.9268719973449606
 30
0.0
  0
VERTEX
  5
39CE
  8
0
  6
CONTINUOUS
 62
     4
 10
104.5695555541110053
 20
51.4218122871580974
 30
0.0
 42
0.4142135623731617
  0
VERTEX
  5
39CF
  8
0
  6
CONTINUOUS
 62
     4
 10
103.3834962625594045
 20
50.6515763772421224
 30
0.0
  0
SEQEND
  5
39D0
  8
0
  6
CONTINUOUS
 62
     4
  0
POLYLINE
  5
3345
  8
0
  6
CONTINUOUS
 62
     4
 66
     1
 10
0.0
 20
0.0
 30
0.0
 70
     1
  0
VERTEX
  5
39D1
  8
0
  6
CONTINUOUS
 62
     4
 10
291.4330593227895747
 20
58.8773089371145986
 30
0.0
 42
0.4142135623730659
  0
VERTEX
  5
39D2
  8
0
  6
CONTINUOUS
 62
     4
 10
292.4330593227896884
 20
57.8773089371147194
 30
0.0
  0
VERTEX
  5
39D3
  8
0
  6
CONTINUOUS
 62
     4
 10
304.4330593227896884
 20
57.8773089371147194
 30
0.0
 42
0.4142135623730951
  0
VERTEX
  5
39D4
  8
0
  6
CONTINUOUS
 62
     4
 10
305.4330593227895747
 20
58.8773089371146625
 30
0.0
  0
VERTEX
  5
39D5
  8
0
  6
CONTINUOUS
 62
     4
 10
305.4330593227896884
 20
70.8773089371146625
 30
0.0
 42
0.4142135623731076
  0
VERTEX
  5
39D6
  8
0
  6
CONTINUOUS
 62
     4
 10
304.4330593227896884
 20
71.8773089371149467
 30
0.0
  0
VERTEX
  5
39D7
  8
0
  6
CONTINUOUS
 62
     4
 10
292.4330593227896884
 20
71.8773089371147762
 30
0.0
 42
0.4142135623730784
  0
VERTEX
  5
39D8
  8
0
  6
CONTINUOUS
 62
     4
 10
291.4330593227895747
 20
70.8773089371147194
 30
0.0
  0
SEQEND
  5
39D9
  8
0
  6
CONTINUOUS
 62
     4
  0
POLYLINE
  5
3346
  8
0
  6
CONTINUOUS
 62
     4
 66
     1
 10
0.0
 20
0.0
 30
0.0
 70
     1
  0
VERTEX
  5
39DA
  8
0
  6
CONTINUOUS
 62
     4
 10
218.116072674601412
 20
106.9416060768309933
 30
0.0
 42
0.4142135623730908
  0
VERTEX
  5
39DB
  8
0
  6
CONTINUOUS
 62
     4
 10
219.3021319661530981
 20
106.1713701669146985
 30
0.0
  0
VERTEX
  5
39DC
  8
0
  6
CONTINUOUS
 62
     4
 10
231.0399031749587095
 20
108.6663104567278992
 30
0.0
 42
0.4142135623730751
  0
VERTEX
  5
39DD
  8
0
  6
CONTINUOUS
 62
     4
 10
231.8101390848748053
 20
109.852369748279699
 30
0.0
  0
VERTEX
  5
39DE
  8
0
  6
CONTINUOUS
 62
     4
 10
229.3151987950616899
 20
121.5901409570853957
 30
0.0
 42
0.4142135623730186
  0
VERTEX
  5
39DF
  8
0
  6
CONTINUOUS
 62
     4
 10
228.1291395035102028
 20
122.3603768670011931
 30
0.0
  0
VERTEX
  5
39E0
  8
0
  6
CONTINUOUS
 62
     4
 10
216.3913682947045061
 20
119.865436577188305
 30
0.0
 42
0.4142135623730831
  0
VERTEX
  5
39E1
  8
0
  6
CONTINUOUS
 62
     4
 10
215.6211323847884955
 20
118.6793772856367042
 30
0.0
  0
SEQEND
  5
39E2
  8
0
  6
CONTINUOUS
 62
     4
  0
POLYLINE
  5
3347
  8
0
  6
CONTINUOUS
 62
     4
 66
     1
 10
0.0
 20
0.0
 30
0.0
 70
     1
  0
VERTEX
  5
39E3
  8
0
  6
CONTINUOUS
 62
     4
 10
234.6497844685806058
 20
52.0323237869094513
 30
0.0
 42
0.4142135623730826
  0
VERTEX
  5
39E4
  8
0
  6
CONTINUOUS
 62
     4
 10
235.8358437601320929
 20
51.2620878769932915
 30
0.0
  0
VERTEX
  5
39E5
  8
0
  6
CONTINUOUS
 62
     4
 10
247.5736149689377896
 20
53.7570281668064283
 30
0.0
 42
0.4142135623730789
  0
VERTEX
  5
39E6
  8
0
  6
CONTINUOUS
 62
     4
 10
248.3438508788538002
 20
54.943087458358093
 30
0.0
  0
VERTEX
  5
39E7
  8
0
  6
CONTINUOUS
 62
     4
 10
245.8489105890407131
 20
66.6808586671637045
 30
0.0
 42
0.4142135623730526
  0
VERTEX
  5
39E8
  8
0
  6
CONTINUOUS
 62
     4
 10
244.6628512974891123
 20
67.4510945770798003
 30
0.0
  0
VERTEX
  5
39E9
  8
0
  6
CONTINUOUS
 62
     4
 10
232.9250800886833019
 20
64.9561542872666564
 30
0.0
 42
0.4142135623730993
  0
VERTEX
  5
39EA
  8
0
  6
CONTINUOUS
 62
     4
 10
232.1548441787672914
 20
63.7700949957150627
 30
0.0
  0
SEQEND
  5
39EB
  8
0
  6
CONTINUOUS
 62
     4
  0
POLYLINE
  5
3348
  8
0
  6
CONTINUOUS
 62
     4
 66
     1
 10
0.0
 20
0.0
 30
0.0
 70
     1
  0
VERTEX
  5
39EC
  8
0
  6
CONTINUOUS
 62
     4
 10
100.3485559727460981
 20
79.5138051684363631
 30
0.0
 42
0.4142135623730511
  0
VERTEX
  5
39ED
  8
0
  6
CONTINUOUS
 62
     4
 10
101.1187918826622933
 20
78.3277458768847623
 30
0.0
  0
VERTEX
  5
39EE
  8
0
  6
CONTINUOUS
 62
     4
 10
112.8565630914680042
 20
75.8328055870715048
 30
0.0
 42
0.4142135623731348
  0
VERTEX
  5
39EF
  8
0
  6
CONTINUOUS
 62
     4
 10
114.0426223830196051
 20
76.6030414969877711
 30
0.0
  0
VERTEX
  5
39F0
  8
0
  6
CONTINUOUS
 62
     4
 10
116.5375626728328058
 20
88.340812705793212
 30
0.0
 42
0.4142135623731252
  0
VERTEX
  5
39F1
  8
0
  6
CONTINUOUS
 62
     4
 10
115.7673267629166958
 20
89.5268719973449834
 30
0.0
  0
VERTEX
  5
39F2
  8
0
  6
CONTINUOUS
 62
     4
 10
104.0295555541109991
 20
92.0218122871581272
 30
0.0
 42
0.4142135623730609
  0
VERTEX
  5
39F3
  8
0
  6
CONTINUOUS
 62
     4
 10
102.8434962625594977
 20
91.2515763772421451
 30
0.0
  0
SEQEND
  5
39F4
  8
0
  6
CONTINUOUS
 62
     4
  0
POLYLINE
  5
3349
  8
0
  6
CONTINUOUS
 62
     4
 66
     1
 10
0.0
 20
0.0
 30
0.0
 70
     1
  0
VERTEX
  5
39F5
  8
0
  6
CONTINUOUS
 62
     4
 10
335.3786593227894741
 20
39.7793089371147701
 30
0.0
 42
0.414213562373041
  0
VERTEX
  5
39F6
  8
0
  6
CONTINUOUS
 62
     4
 10
336.3786593227895878
 20
38.7793089371149335
 30
0.0
  0
VERTEX
  5
39F7
  8
0
  6
CONTINUOUS
 62
     4
 10
348.3786593227897015
 20
38.7793089371147701
 30
0.0
 42
0.4142135623730951
  0
VERTEX
  5
39F8
  8
0
  6
CONTINUOUS
 62
     4
 10
349.3786593227897015
 20
39.7793089371148199
 30
0.0
  0
VERTEX
  5
39F9
  8
0
  6
CONTINUOUS
 62
     4
 10
349.3786593227898152
 20
51.7793089371148696
 30
0.0
 42
0.4142135623730784
  0
VERTEX
  5
39FA
  8
0
  6
CONTINUOUS
 62
     4
 10
348.3786593227897015
 20
52.7793089371146991
 30
0.0
  0
VERTEX
  5
39FB
  8
0
  6
CONTINUOUS
 62
     4
 10
336.3786593227894741
 20
52.7793089371149335
 30
0.0
 42
0.4142135623730284
  0
VERTEX
  5
39FC
  8
0
  6
CONTINUOUS
 62
     4
 10
335.3786593227894741
 20
51.7793089371149406
 30
0.0
  0
SEQEND
  5
39FD
  8
0
  6
CONTINUOUS
 62
     4
  0
POLYLINE
  5
334A
  8
0
  6
CONTINUOUS
 62
     4
 66
     1
 10
0.0
 20
0.0
 30
0.0
 70
     1
  0
VERTEX
  5
39FE
  8
0
  6
CONTINUOUS
 62
     4
 10
164.4105646829997909
 20
26.9486349925827007
 30
0.0
 42
0.4142135623731049
  0
VERTEX
  5
39FF
  8
0
  6
CONTINUOUS
 62
     4
 10
165.1808005929158867
 20
25.7625757010311496
 30
0.0
  0
VERTEX
  5
3A00
  8
0
  6
CONTINUOUS
 62
     4
 10
179.2465630914680901
 20
22.7728055870715593
 30
0.0
 42
0.4142135623731232
  0
VERTEX
  5
3A01
  8
0
  6
CONTINUOUS
 62
     4
 10
180.432622383019492
 20
23.5430414969877688
 30
0.0
  0
VERTEX
  5
3A02
  8
0
  6
CONTINUOUS
 62
     4
 10
182.9275626728326927
 20
35.2808127057934868
 30
0.0
 42
0.4142135623730751
  0
VERTEX
  5
3A03
  8
0
  6
CONTINUOUS
 62
     4
 10
182.1573267629167105
 20
36.4668719973449811
 30
0.0
  0
VERTEX
  5
3A04
  8
0
  6
CONTINUOUS
 62
     4
 10
168.0915642643645072
 20
39.4566421113042409
 30
0.0
 42
0.4142135623730609
  0
VERTEX
  5
3A05
  8
0
  6
CONTINUOUS
 62
     4
 10
166.9055049728129063
 20
38.686406201388138
 30
0.0
  0
SEQEND
  5
3A06
  8
0
  6
CONTINUOUS
 62
     4
  0
POLYLINE
  5
334B
  8
0
  6
CONTINUOUS
 62
     4
 66
     1
 10
0.0
 20
0.0
 30
0.0
 70
     1
  0
VERTEX
  5
3A07
  8
0
  6
CONTINUOUS
 62
     4
 10
212.7560726746015121
 20
86.3316060768311218
 30
0.0
 42
0.4142135623730908
  0
VERTEX
  5
3A08
  8
0
  6
CONTINUOUS
 62
     4
 10
213.9421319661531129
 20
85.5613701669151254
 30
0.0
  0
VERTEX
  5
3A09
  8
0
  6
CONTINUOUS
 62
     4
 10
225.6799031749590085
 20
88.056310456728113
 30
0.0
 42
0.4142135623730327
  0
VERTEX
  5
3A0A
  8
0
  6
CONTINUOUS
 62
     4
 10
226.4501390848749054
 20
89.2423697482797138
 30
0.0
  0
VERTEX
  5
3A0B
  8
0
  6
CONTINUOUS
 62
     4
 10
223.9551987950617047
 20
100.9801409570853963
 30
0.0
 42
0.4142135623730866
  0
VERTEX
  5
3A0C
  8
0
  6
CONTINUOUS
 62
     4
 10
222.7691395035099902
 20
101.7503768670012931
 30
0.0
  0
VERTEX
  5
3A0D
  8
0
  6
CONTINUOUS
 62
     4
 10
211.0313682947044924
 20
99.2554365771884051
 30
0.0
 42
0.4142135623730668
  0
VERTEX
  5
3A0E
  8
0
  6
CONTINUOUS
 62
     4
 10
210.2611323847883966
 20
98.0693772856367332
 30
0.0
  0
SEQEND
  5
3A0F
  8
0
  6
CONTINUOUS
 62
     4
  0
POLYLINE
  5
334C
  8
0
  6
CONTINUOUS
 62
     4
 66
     1
 10
0.0
 20
0.0
 30
0.0
 70
     1
  0
VERTEX
  5
3A10
  8
0
  6
CONTINUOUS
 62
     4
 10
131.5622677667251992
 20
111.8330874583579941
 30
0.0
 42
0.4142135623731131
  0
VERTEX
  5
3A11
  8
0
  6
CONTINUOUS
 62
     4
 10
132.3325036766414087
 20
110.6470281668063933
 30
0.0
  0
VERTEX
  5
3A12
  8
0
  6
CONTINUOUS
 62
     4
 10
144.0702748854469917
 20
108.1520878769935052
 30
0.0
 42
0.4142135623730809
  0
VERTEX
  5
3A13
  8
0
  6
CONTINUOUS
 62
     4
 10
145.2563341769985072
 20
108.9223237869094021
 30
0.0
  0
VERTEX
  5
3A14
  8
0
  6
CONTINUOUS
 62
     4
 10
147.7512744668117932
 20
120.6600949957148998
 30
0.0
 42
0.4142135623731252
  0
VERTEX
  5
3A15
  8
0
  6
CONTINUOUS
 62
     4
 10
146.9810385568956121
 20
121.8461542872667991
 30
0.0
  0
VERTEX
  5
3A16
  8
0
  6
CONTINUOUS
 62
     4
 10
135.243267348089887
 20
124.3410945770797014
 30
0.0
 42
0.4142135623731193
  0
VERTEX
  5
3A17
  8
0
  6
CONTINUOUS
 62
     4
 10
134.0572080565382862
 20
123.570858667163705
 30
0.0
  0
SEQEND
  5
3A18
  8
0
  6
CONTINUOUS
 62
     4
  0
POLYLINE
  5
334D
  8
0
  6
CONTINUOUS
 62
     4
 66
     1
 10
0.0
 20
0.0
 30
0.0
 70
     1
  0
VERTEX
  5
3A19
  8
0
  6
CONTINUOUS
 62
     4
 10
296.7930593227894747
 20
77.9273089371147307
 30
0.0
 42
0.4142135623730618
  0
VERTEX
  5
3A1A
  8
0
  6
CONTINUOUS
 62
     4
 10
297.7930593227895884
 20
76.9273089371147307
 30
0.0
  0
VERTEX
  5
3A1B
  8
0
  6
CONTINUOUS
 62
     4
 10
309.793059322789702
 20
76.9273089371147307
 30
0.0
 42
0.4142135623730951
  0
VERTEX
  5
3A1C
  8
0
  6
CONTINUOUS
 62
     4
 10
310.793059322789702
 20
77.9273089371147307
 30
0.0
  0
VERTEX
  5
3A1D
  8
0
  6
CONTINUOUS
 62
     4
 10
310.7930593227898157
 20
89.9273089371148444
 30
0.0
 42
0.4142135623730618
  0
VERTEX
  5
3A1E
  8
0
  6
CONTINUOUS
 62
     4
 10
309.793059322789702
 20
90.9273089371149439
 30
0.0
  0
VERTEX
  5
3A1F
  8
0
  6
CONTINUOUS
 62
     4
 10
297.7930593227894747
 20
90.9273089371148444
 30
0.0
 42
0.4142135623730284
  0
VERTEX
  5
3A20
  8
0
  6
CONTINUOUS
 62
     4
 10
296.7930593227894747
 20
89.9273089371148444
 30
0.0
  0
SEQEND
  5
3A21
  8
0
  6
CONTINUOUS
 62
     4
  0
POLYLINE
  5
334E
  8
0
  6
CONTINUOUS
 62
     4
 66
     1
 10
0.0
 20
0.0
 30
0.0
 70
     1
  0
VERTEX
  5
3A22
  8
0
  6
CONTINUOUS
 62
     4
 10
221.3760726746016019
 20
68.6816060768310308
 30
0.0
 42
0.4142135623730729
  0
VERTEX
  5
3A23
  8
0
  6
CONTINUOUS
 62
     4
 10
222.562131966153089
 20
67.9113701669148213
 30
0.0
  0
VERTEX
  5
3A24
  8
0
  6
CONTINUOUS
 62
     4
 10
234.2999031749588994
 20
70.406310456728022
 30
0.0
 42
0.4142135623730709
  0
VERTEX
  5
3A25
  8
0
  6
CONTINUOUS
 62
     4
 10
235.0701390848747963
 20
71.5923697482797365
 30
0.0
  0
VERTEX
  5
3A26
  8
0
  6
CONTINUOUS
 62
     4
 10
232.5751987950617945
 20
83.3301409570854759
 30
0.0
 42
0.4142135623730704
  0
VERTEX
  5
3A27
  8
0
  6
CONTINUOUS
 62
     4
 10
231.3891395035099947
 20
84.1003768670013869
 30
0.0
  0
VERTEX
  5
3A28
  8
0
  6
CONTINUOUS
 62
     4
 10
219.651368294704497
 20
81.6054365771881294
 30
0.0
 42
0.4142135623730626
  0
VERTEX
  5
3A29
  8
0
  6
CONTINUOUS
 62
     4
 10
218.8811323847884012
 20
80.4193772856365854
 30
0.0
  0
SEQEND
  5
3A2A
  8
0
  6
CONTINUOUS
 62
     4
  0
POLYLINE
  5
334F
  8
0
  6
CONTINUOUS
 62
     4
 66
     1
 10
0.0
 20
0.0
 30
0.0
 70
     1
  0
VERTEX
  5
3A2B
  8
0
  6
CONTINUOUS
 62
     4
 10
118.9822677667253998
 20
75.553087458357993
 30
0.0
 42
0.4142135623730212
  0
VERTEX
  5
3A2C
  8
0
  6
CONTINUOUS
 62
     4
 10
119.7525036766413962
 20
74.367028166806449
 30
0.0
  0
VERTEX
  5
3A2D
  8
0
  6
CONTINUOUS
 62
     4
 10
131.4902748854470929
 20
71.8720878769934188
 30
0.0
 42
0.4142135623731348
  0
VERTEX
  5
3A2E
  8
0
  6
CONTINUOUS
 62
     4
 10
132.6763341769986084
 20
72.6423237869093441
 30
0.0
  0
VERTEX
  5
3A2F
  8
0
  6
CONTINUOUS
 62
     4
 10
135.1712744668118091
 20
84.3800949957149555
 30
0.0
 42
0.4142135623730911
  0
VERTEX
  5
3A30
  8
0
  6
CONTINUOUS
 62
     4
 10
134.4010385568957133
 20
85.5661542872667837
 30
0.0
  0
VERTEX
  5
3A31
  8
0
  6
CONTINUOUS
 62
     4
 10
122.663267348089903
 20
88.0610945770796434
 30
0.0
 42
0.414213562373105
  0
VERTEX
  5
3A32
  8
0
  6
CONTINUOUS
 62
     4
 10
121.4772080565384016
 20
87.2908586671635476
 30
0.0
  0
SEQEND
  5
3A33
  8
0
  6
CONTINUOUS
 62
     4
  0
POLYLINE
  5
3350
  8
0
  6
CONTINUOUS
 62
     4
 66
     1
 10
0.0
 20
0.0
 30
0.0
 70
     1
  0
VERTEX
  5
3A34
  8
0
  6
CONTINUOUS
 62
     4
 10
118.2822677667252975
 20
95.1830874583580453
 30
0.0
 42
0.4142135623731131
  0
VERTEX
  5
3A35
  8
0
  6
CONTINUOUS
 62
     4
 10
119.0525036766412939
 20
93.9970281668063308
 30
0.0
  0
VERTEX
  5
3A36
  8
0
  6
CONTINUOUS
 62
     4
 10
130.7902748854471895
 20
91.5020878769934143
 30
0.0
 42
0.414213562373139
  0
VERTEX
  5
3A37
  8
0
  6
CONTINUOUS
 62
     4
 10
131.9763341769985914
 20
92.2723237869093253
 30
0.0
  0
VERTEX
  5
3A38
  8
0
  6
CONTINUOUS
 62
     4
 10
134.4712744668117068
 20
104.0100949957150931
 30
0.0
 42
0.4142135623731619
  0
VERTEX
  5
3A39
  8
0
  6
CONTINUOUS
 62
     4
 10
133.7010385568956963
 20
105.196154287266495
 30
0.0
  0
VERTEX
  5
3A3A
  8
0
  6
CONTINUOUS
 62
     4
 10
121.9632673480900991
 20
107.6910945770797952
 30
0.0
 42
0.4142135623731111
  0
VERTEX
  5
3A3B
  8
0
  6
CONTINUOUS
 62
     4
 10
120.7772080565384982
 20
106.9208586671637988
 30
0.0
  0
SEQEND
  5
3A3C
  8
0
  6
CONTINUOUS
 62
     4
  0
POLYLINE
  5
3351
  8
0
  6
CONTINUOUS
 62
     4
 66
     1
 10
0.0
 20
0.0
 30
0.0
 70
     1
  0
VERTEX
  5
3A3D
  8
0
  6
CONTINUOUS
 62
     4
 10
272.3830593227895065
 20
58.8773089371145986
 30
0.0
 42
0.4142135623730743
  0
VERTEX
  5
3A3E
  8
0
  6
CONTINUOUS
 62
     4
 10
273.3830593227896202
 20
57.8773089371147194
 30
0.0
  0
VERTEX
  5
3A3F
  8
0
  6
CONTINUOUS
 62
     4
 10
285.3830593227895065
 20
57.8773089371150107
 30
0.0
 42
0.4142135623730284
  0
VERTEX
  5
3A40
  8
0
  6
CONTINUOUS
 62
     4
 10
286.3830593227895065
 20
58.8773089371151173
 30
0.0
  0
VERTEX
  5
3A41
  8
0
  6
CONTINUOUS
 62
     4
 10
286.3830593227896202
 20
70.8773089371147194
 30
0.0
 42
0.4142135623730451
  0
VERTEX
  5
3A42
  8
0
  6
CONTINUOUS
 62
     4
 10
285.3830593227896202
 20
71.8773089371149467
 30
0.0
  0
VERTEX
  5
3A43
  8
0
  6
CONTINUOUS
 62
     4
 10
273.3830593227896202
 20
71.8773089371147762
 30
0.0
 42
0.4142135623730867
  0
VERTEX
  5
3A44
  8
0
  6
CONTINUOUS
 62
     4
 10
272.3830593227895065
 20
70.8773089371147194
 30
0.0
  0
SEQEND
  5
3A45
  8
0
  6
CONTINUOUS
 62
     4
  0
POLYLINE
  5
3352
  8
0
  6
CONTINUOUS
 62
     4
 66
     1
 10
0.0
 20
0.0
 30
0.0
 70
     1
  0
VERTEX
  5
3A46
  8
0
  6
CONTINUOUS
 62
     4
 10
199.4823608806225934
 20
102.9808883667527937
 30
0.0
 42
0.414213562373111
  0
VERTEX
  5
3A47
  8
0
  6
CONTINUOUS
 62
     4
 10
200.6684201721741942
 20
102.2106524568365984
 30
0.0
  0
VERTEX
  5
3A48
  8
0
  6
CONTINUOUS
 62
     4
 10
212.4061913809798057
 20
104.7055927466496996
 30
0.0
 42
0.4142135623730751
  0
VERTEX
  5
3A49
  8
0
  6
CONTINUOUS
 62
     4
 10
213.1764272908959015
 20
105.8916520382014994
 30
0.0
  0
VERTEX
  5
3A4A
  8
0
  6
CONTINUOUS
 62
     4
 10
210.681487001082786
 20
117.6294232470070966
 30
0.0
 42
0.414213562373103
  0
VERTEX
  5
3A4B
  8
0
  6
CONTINUOUS
 62
     4
 10
209.4954277095310999
 20
118.3996591569227945
 30
0.0
  0
VERTEX
  5
3A4C
  8
0
  6
CONTINUOUS
 62
     4
 10
197.7576565007254032
 20
115.904718867109807
 30
0.0
 42
0.4142135623730668
  0
VERTEX
  5
3A4D
  8
0
  6
CONTINUOUS
 62
     4
 10
196.9874205908093074
 20
114.7186595755582061
 30
0.0
  0
SEQEND
  5
3A4E
  8
0
  6
CONTINUOUS
 62
     4
  0
POLYLINE
  5
3353
  8
0
  6
CONTINUOUS
 62
     4
 66
     1
 10
0.0
 20
0.0
 30
0.0
 70
     1
  0
VERTEX
  5
3A4F
  8
0
  6
CONTINUOUS
 62
     4
 10
216.016072674601503
 20
48.0716060768310101
 30
0.0
 42
0.4142135623730745
  0
VERTEX
  5
3A50
  8
0
  6
CONTINUOUS
 62
     4
 10
217.2021319661531891
 20
47.3013701669150919
 30
0.0
  0
VERTEX
  5
3A51
  8
0
  6
CONTINUOUS
 62
     4
 10
228.9399031749586868
 20
49.7963104567280723
 30
0.0
 42
0.4142135623730831
  0
VERTEX
  5
3A52
  8
0
  6
CONTINUOUS
 62
     4
 10
229.710139084874811
 20
50.9823697482796589
 30
0.0
  0
VERTEX
  5
3A53
  8
0
  6
CONTINUOUS
 62
     4
 10
227.2151987950616956
 20
62.7201409570853912
 30
0.0
 42
0.4142135623730689
  0
VERTEX
  5
3A54
  8
0
  6
CONTINUOUS
 62
     4
 10
226.0291395035100948
 20
63.4903768670013733
 30
0.0
  0
VERTEX
  5
3A55
  8
0
  6
CONTINUOUS
 62
     4
 10
214.2913682947045118
 20
60.9954365771883431
 30
0.0
 42
0.4142135623730748
  0
VERTEX
  5
3A56
  8
0
  6
CONTINUOUS
 62
     4
 10
213.5211323847885012
 20
59.8093772856367991
 30
0.0
  0
SEQEND
  5
3A57
  8
0
  6
CONTINUOUS
 62
     4
  0
POLYLINE
  5
3354
  8
0
  6
CONTINUOUS
 62
     4
 66
     1
 10
0.0
 20
0.0
 30
0.0
 70
     1
  0
VERTEX
  5
3A58
  8
0
  6
CONTINUOUS
 62
     4
 10
124.3322677667251952
 20
54.9430874583579794
 30
0.0
 42
0.4142135623730212
  0
VERTEX
  5
3A59
  8
0
  6
CONTINUOUS
 62
     4
 10
125.1025036766413052
 20
53.7570281668062577
 30
0.0
  0
VERTEX
  5
3A5A
  8
0
  6
CONTINUOUS
 62
     4
 10
136.8402748854470019
 20
51.2620878769933483
 30
0.0
 42
0.4142135623731348
  0
VERTEX
  5
3A5B
  8
0
  6
CONTINUOUS
 62
     4
 10
138.0263341769984891
 20
52.0323237869092665
 30
0.0
  0
VERTEX
  5
3A5C
  8
0
  6
CONTINUOUS
 62
     4
 10
140.5212744668118034
 20
63.7700949957151124
 30
0.0
 42
0.4142135623730751
  0
VERTEX
  5
3A5D
  8
0
  6
CONTINUOUS
 62
     4
 10
139.7510385568957929
 20
64.9561542872667701
 30
0.0
  0
VERTEX
  5
3A5E
  8
0
  6
CONTINUOUS
 62
     4
 10
128.013267348089812
 20
67.4510945770798571
 30
0.0
 42
0.4142135623731111
  0
VERTEX
  5
3A5F
  8
0
  6
CONTINUOUS
 62
     4
 10
126.827208056538197
 20
66.6808586671638039
 30
0.0
  0
SEQEND
  5
3A60
  8
0
  6
CONTINUOUS
 62
     4
  0
POLYLINE
  5
3355
  8
0
  6
CONTINUOUS
 62
     4
 66
     1
 10
0.0
 20
0.0
 30
0.0
 70
     1
  0
VERTEX
  5
3A61
  8
0
  6
CONTINUOUS
 62
     4
 10
287.753059322789511
 20
96.9773089371148558
 30
0.0
 42
0.4142135623731117
  0
VERTEX
  5
3A62
  8
0
  6
CONTINUOUS
 62
     4
 10
288.753059322789511
 20
95.9773089371149837
 30
0.0
  0
VERTEX
  5
3A63
  8
0
  6
CONTINUOUS
 62
     4
 10
300.7530593227896247
 20
95.9773089371146852
 30
0.0
 42
0.4142135623730951
  0
VERTEX
  5
3A64
  8
0
  6
CONTINUOUS
 62
     4
 10
301.7530593227896247
 20
96.9773089371147847
 30
0.0
  0
VERTEX
  5
3A65
  8
0
  6
CONTINUOUS
 62
     4
 10
301.7530593227896816
 20
108.9773089371147989
 30
0.0
 42
0.4142135623730784
  0
VERTEX
  5
3A66
  8
0
  6
CONTINUOUS
 62
     4
 10
300.7530593227896247
 20
109.9773089371148984
 30
0.0
  0
VERTEX
  5
3A67
  8
0
  6
CONTINUOUS
 62
     4
 10
288.753059322789511
 20
109.9773089371147989
 30
0.0
 42
0.4142135623730951
  0
VERTEX
  5
3A68
  8
0
  6
CONTINUOUS
 62
     4
 10
287.753059322789511
 20
108.9773089371146995
 30
0.0
  0
SEQEND
  5
3A69
  8
0
  6
CONTINUOUS
 62
     4
  0
POLYLINE
  5
3356
  8
0
  6
CONTINUOUS
 62
     4
 66
     1
 10
0.0
 20
0.0
 30
0.0
 70
     1
  0
VERTEX
  5
3A6A
  8
0
  6
CONTINUOUS
 62
     4
 10
194.1223608806224945
 20
82.3708883667527374
 30
0.0
 42
0.4142135623730989
  0
VERTEX
  5
3A6B
  8
0
  6
CONTINUOUS
 62
     4
 10
195.308420172174209
 20
81.6006524568367695
 30
0.0
  0
VERTEX
  5
3A6C
  8
0
  6
CONTINUOUS
 62
     4
 10
207.0461913809797068
 20
84.0955927466497997
 30
0.0
 42
0.4142135623731472
  0
VERTEX
  5
3A6D
  8
0
  6
CONTINUOUS
 62
     4
 10
207.8164272908958026
 20
85.2816520382012158
 30
0.0
  0
VERTEX
  5
3A6E
  8
0
  6
CONTINUOUS
 62
     4
 10
205.3214870010828861
 20
97.0194232470068414
 30
0.0
 42
0.414213562373103
  0
VERTEX
  5
3A6F
  8
0
  6
CONTINUOUS
 62
     4
 10
204.1354277095310863
 20
97.7896591569231646
 30
0.0
  0
VERTEX
  5
3A70
  8
0
  6
CONTINUOUS
 62
     4
 10
192.3976565007255033
 20
95.2947188671100633
 30
0.0
 42
0.4142135623731333
  0
VERTEX
  5
3A71
  8
0
  6
CONTINUOUS
 62
     4
 10
191.6274205908094075
 20
94.1086595755584767
 30
0.0
  0
SEQEND
  5
3A72
  8
0
  6
CONTINUOUS
 62
     4
  0
POLYLINE
  5
3357
  8
0
  6
CONTINUOUS
 62
     4
 66
     1
 10
0.0
 20
0.0
 30
0.0
 70
     1
  0
VERTEX
  5
3A73
  8
0
  6
CONTINUOUS
 62
     4
 10
150.1959795607041883
 20
107.8723697482797945
 30
0.0
 42
0.4142135623730749
  0
VERTEX
  5
3A74
  8
0
  6
CONTINUOUS
 62
     4
 10
150.9662154706203125
 20
106.6863104567279947
 30
0.0
  0
VERTEX
  5
3A75
  8
0
  6
CONTINUOUS
 62
     4
 10
162.7039866794260945
 20
104.191370166914993
 30
0.0
 42
0.4142135623731151
  0
VERTEX
  5
3A76
  8
0
  6
CONTINUOUS
 62
     4
 10
163.8900459709776953
 20
104.9616060768310035
 30
0.0
  0
VERTEX
  5
3A77
  8
0
  6
CONTINUOUS
 62
     4
 10
166.3849862607906971
 20
116.6993772856367002
 30
0.0
 42
0.4142135623731252
  0
VERTEX
  5
3A78
  8
0
  6
CONTINUOUS
 62
     4
 10
165.6147503508748002
 20
117.8854365771884005
 30
0.0
  0
VERTEX
  5
3A79
  8
0
  6
CONTINUOUS
 62
     4
 10
153.8769791420689899
 20
120.3803768670015018
 30
0.0
 42
0.4142135623731391
  0
VERTEX
  5
3A7A
  8
0
  6
CONTINUOUS
 62
     4
 10
152.690919850517389
 20
119.6101409570854059
 30
0.0
  0
SEQEND
  5
3A7B
  8
0
  6
CONTINUOUS
 62
     4
  0
POLYLINE
  5
3358
  8
0
  6
CONTINUOUS
 62
     4
 66
     1
 10
0.0
 20
0.0
 30
0.0
 70
     1
  0
VERTEX
  5
3A7C
  8
0
  6
CONTINUOUS
 62
     4
 10
306.8030593227895793
 20
96.9773089371148558
 30
0.0
 42
0.4142135623731117
  0
VERTEX
  5
3A7D
  8
0
  6
CONTINUOUS
 62
     4
 10
307.8030593227895793
 20
95.9773089371149837
 30
0.0
  0
VERTEX
  5
3A7E
  8
0
  6
CONTINUOUS
 62
     4
 10
319.8030593227895793
 20
95.9773089371146852
 30
0.0
 42
0.4142135623730951
  0
VERTEX
  5
3A7F
  8
0
  6
CONTINUOUS
 62
     4
 10
320.8030593227896929
 20
96.9773089371147847
 30
0.0
  0
VERTEX
  5
3A80
  8
0
  6
CONTINUOUS
 62
     4
 10
320.8030593227896929
 20
108.9773089371147989
 30
0.0
 42
0.4142135623730784
  0
VERTEX
  5
3A81
  8
0
  6
CONTINUOUS
 62
     4
 10
319.8030593227895793
 20
109.9773089371148984
 30
0.0
  0
VERTEX
  5
3A82
  8
0
  6
CONTINUOUS
 62
     4
 10
307.8030593227895793
 20
109.9773089371147989
 30
0.0
 42
0.4142135623730951
  0
VERTEX
  5
3A83
  8
0
  6
CONTINUOUS
 62
     4
 10
306.8030593227895224
 20
108.9773089371146995
 30
0.0
  0
SEQEND
  5
3A84
  8
0
  6
CONTINUOUS
 62
     4
  0
POLYLINE
  5
3359
  8
0
  6
CONTINUOUS
 62
     4
 66
     1
 10
0.0
 20
0.0
 30
0.0
 70
     1
  0
VERTEX
  5
3A85
  8
0
  6
CONTINUOUS
 62
     4
 10
277.7430593227895201
 20
77.9273089371147307
 30
0.0
 42
0.4142135623730951
  0
VERTEX
  5
3A86
  8
0
  6
CONTINUOUS
 62
     4
 10
278.7430593227895201
 20
76.9273089371147307
 30
0.0
  0
VERTEX
  5
3A87
  8
0
  6
CONTINUOUS
 62
     4
 10
290.7430593227898044
 20
76.9273089371147307
 30
0.0
 42
0.4142135623730951
  0
VERTEX
  5
3A88
  8
0
  6
CONTINUOUS
 62
     4
 10
291.7430593227896907
 20
77.9273089371147307
 30
0.0
  0
VERTEX
  5
3A89
  8
0
  6
CONTINUOUS
 62
     4
 10
291.7430593227896907
 20
89.9273089371148444
 30
0.0
 42
0.4142135623730618
  0
VERTEX
  5
3A8A
  8
0
  6
CONTINUOUS
 62
     4
 10
290.7430593227898044
 20
90.9273089371149439
 30
0.0
  0
VERTEX
  5
3A8B
  8
0
  6
CONTINUOUS
 62
     4
 10
278.7430593227895201
 20
90.9273089371147449
 30
0.0
 42
0.4142135623730951
  0
VERTEX
  5
3A8C
  8
0
  6
CONTINUOUS
 62
     4
 10
277.7430593227895201
 20
89.9273089371147165
 30
0.0
  0
SEQEND
  5
3A8D
  8
0
  6
CONTINUOUS
 62
     4
  0
POLYLINE
  5
335A
  8
0
  6
CONTINUOUS
 62
     4
 66
     1
 10
0.0
 20
0.0
 30
0.0
 70
     1
  0
VERTEX
  5
3A8E
  8
0
  6
CONTINUOUS
 62
     4
 10
202.7423608806226127
 20
64.7208883667527175
 30
0.0
 42
0.4142135623730404
  0
VERTEX
  5
3A8F
  8
0
  6
CONTINUOUS
 62
     4
 10
203.9284201721739862
 20
63.9506524568365009
 30
0.0
  0
VERTEX
  5
3A90
  8
0
  6
CONTINUOUS
 62
     4
 10
215.6661913809797113
 20
66.4455927466498224
 30
0.0
 42
0.4142135623730709
  0
VERTEX
  5
3A91
  8
0
  6
CONTINUOUS
 62
     4
 10
216.4364272908958071
 20
67.6316520382014801
 30
0.0
  0
VERTEX
  5
3A92
  8
0
  6
CONTINUOUS
 62
     4
 10
213.9414870010826064
 20
79.3694232470070347
 30
0.0
 42
0.4142135623730623
  0
VERTEX
  5
3A93
  8
0
  6
CONTINUOUS
 62
     4
 10
212.7554277095310056
 20
80.1396591569230736
 30
0.0
  0
VERTEX
  5
3A94
  8
0
  6
CONTINUOUS
 62
     4
 10
201.0176565007255931
 20
77.6447188671099866
 30
0.0
 42
0.4142135623730708
  0
VERTEX
  5
3A95
  8
0
  6
CONTINUOUS
 62
     4
 10
200.247420590809412
 20
76.4586595755583289
 30
0.0
  0
SEQEND
  5
3A96
  8
0
  6
CONTINUOUS
 62
     4
  0
POLYLINE
  5
335B
  8
0
  6
CONTINUOUS
 62
     4
 66
     1
 10
0.0
 20
0.0
 30
0.0
 70
     1
  0
VERTEX
  5
3A97
  8
0
  6
CONTINUOUS
 62
     4
 10
137.6159795607042042
 20
71.5923697482796229
 30
0.0
 42
0.4142135623731715
  0
VERTEX
  5
3A98
  8
0
  6
CONTINUOUS
 62
     4
 10
138.3862154706204137
 20
70.4063104567280789
 30
0.0
  0
VERTEX
  5
3A99
  8
0
  6
CONTINUOUS
 62
     4
 10
150.1239866794261104
 20
67.9113701669150487
 30
0.0
 42
0.4142135623731348
  0
VERTEX
  5
3A9A
  8
0
  6
CONTINUOUS
 62
     4
 10
151.3100459709775123
 20
68.6816060768310734
 30
0.0
  0
VERTEX
  5
3A9B
  8
0
  6
CONTINUOUS
 62
     4
 10
153.804986260790713
 20
80.4193772856367559
 30
0.0
 42
0.4142135623730911
  0
VERTEX
  5
3A9C
  8
0
  6
CONTINUOUS
 62
     4
 10
153.0347503508747877
 20
81.6054365771883568
 30
0.0
  0
VERTEX
  5
3A9D
  8
0
  6
CONTINUOUS
 62
     4
 10
141.2969791420688921
 20
84.1003768670014438
 30
0.0
 42
0.414213562373105
  0
VERTEX
  5
3A9E
  8
0
  6
CONTINUOUS
 62
     4
 10
140.1109198505172913
 20
83.3301409570852343
 30
0.0
  0
SEQEND
  5
3A9F
  8
0
  6
CONTINUOUS
 62
     4
  0
POLYLINE
  5
335C
  8
0
  6
CONTINUOUS
 62
     4
 66
     1
 10
0.0
 20
0.0
 30
0.0
 70
     1
  0
VERTEX
  5
3AA0
  8
0
  6
CONTINUOUS
 62
     4
 10
136.9159795607041872
 20
91.2223697482797888
 30
0.0
 42
0.4142135623730626
  0
VERTEX
  5
3AA1
  8
0
  6
CONTINUOUS
 62
     4
 10
137.6862154706201977
 20
90.0363104567279038
 30
0.0
  0
VERTEX
  5
3AA2
  8
0
  6
CONTINUOUS
 62
     4
 10
149.4239866794260934
 20
87.5413701669149873
 30
0.0
 42
0.4142135623731232
  0
VERTEX
  5
3AA3
  8
0
  6
CONTINUOUS
 62
     4
 10
150.6100459709774952
 20
88.3116060768310689
 30
0.0
  0
VERTEX
  5
3AA4
  8
0
  6
CONTINUOUS
 62
     4
 10
153.104986260790696
 20
100.0493772856366945
 30
0.0
 42
0.4142135623731336
  0
VERTEX
  5
3AA5
  8
0
  6
CONTINUOUS
 62
     4
 10
152.3347503508747138
 20
101.2354365771882954
 30
0.0
  0
VERTEX
  5
3AA6
  8
0
  6
CONTINUOUS
 62
     4
 10
140.5969791420691024
 20
103.7303768670015955
 30
0.0
 42
0.4142135623731276
  0
VERTEX
  5
3AA7
  8
0
  6
CONTINUOUS
 62
     4
 10
139.4109198505175016
 20
102.9601409570854997
 30
0.0
  0
SEQEND
  5
3AA8
  8
0
  6
CONTINUOUS
 62
     4
  0
POLYLINE
  5
335D
  8
0
  6
CONTINUOUS
 62
     4
 66
     1
 10
0.0
 20
0.0
 30
0.0
 70
     1
  0
VERTEX
  5
3AA9
  8
0
  6
CONTINUOUS
 62
     4
 10
269.1230593227895156
 20
98.0373089371149149
 30
0.0
 42
0.4142135623730743
  0
VERTEX
  5
3AAA
  8
0
  6
CONTINUOUS
 62
     4
 10
270.1230593227895724
 20
97.0373089371146449
 30
0.0
  0
VERTEX
  5
3AAB
  8
0
  6
CONTINUOUS
 62
     4
 10
282.1230593227895724
 20
97.0373089371149717
 30
0.0
 42
0.4142135623730618
  0
VERTEX
  5
3AAC
  8
0
  6
CONTINUOUS
 62
     4
 10
283.1230593227895724
 20
98.0373089371149717
 30
0.0
  0
VERTEX
  5
3AAD
  8
0
  6
CONTINUOUS
 62
     4
 10
283.1230593227895724
 20
110.0373089371149007
 30
0.0
 42
0.4142135623730951
  0
VERTEX
  5
3AAE
  8
0
  6
CONTINUOUS
 62
     4
 10
282.1230593227895724
 20
111.0373089371147017
 30
0.0
  0
VERTEX
  5
3AAF
  8
0
  6
CONTINUOUS
 62
     4
 10
270.1230593227895724
 20
111.0373089371150996
 30
0.0
 42
0.4142135623730784
  0
VERTEX
  5
3AB0
  8
0
  6
CONTINUOUS
 62
     4
 10
269.1230593227895156
 20
110.0373089371150002
 30
0.0
  0
SEQEND
  5
3AB1
  8
0
  6
CONTINUOUS
 62
     4
  0
POLYLINE
  5
335E
  8
0
  6
CONTINUOUS
 62
     4
 66
     1
 10
0.0
 20
0.0
 30
0.0
 70
     1
  0
VERTEX
  5
3AB2
  8
0
  6
CONTINUOUS
 62
     4
 10
197.3823608806224001
 20
44.1108883667528673
 30
0.0
 42
0.4142135623730908
  0
VERTEX
  5
3AB3
  8
0
  6
CONTINUOUS
 62
     4
 10
198.5684201721741999
 20
43.340652456836672
 30
0.0
  0
VERTEX
  5
3AB4
  8
0
  6
CONTINUOUS
 62
     4
 10
210.3061913809796977
 20
45.8355927466497519
 30
0.0
 42
0.4142135623730669
  0
VERTEX
  5
3AB5
  8
0
  6
CONTINUOUS
 62
     4
 10
211.0764272908957935
 20
47.0216520382012391
 30
0.0
  0
VERTEX
  5
3AB6
  8
0
  6
CONTINUOUS
 62
     4
 10
208.5814870010827065
 20
58.7594232470071276
 30
0.0
 42
0.4142135623730785
  0
VERTEX
  5
3AB7
  8
0
  6
CONTINUOUS
 62
     4
 10
207.3954277095309919
 20
59.5296591569231666
 30
0.0
  0
VERTEX
  5
3AB8
  8
0
  6
CONTINUOUS
 62
     4
 10
195.6576565007254089
 20
57.0347188671100866
 30
0.0
 42
0.4142135623731333
  0
VERTEX
  5
3AB9
  8
0
  6
CONTINUOUS
 62
     4
 10
194.8874205908093131
 20
55.8486595755584787
 30
0.0
  0
SEQEND
  5
3ABA
  8
0
  6
CONTINUOUS
 62
     4
  0
POLYLINE
  5
335F
  8
0
  6
CONTINUOUS
 62
     4
 66
     1
 10
0.0
 20
0.0
 30
0.0
 70
     1
  0
VERTEX
  5
3ABB
  8
0
  6
CONTINUOUS
 62
     4
 10
142.9659795607043122
 20
50.9823697482798295
 30
0.0
 42
0.4142135623730749
  0
VERTEX
  5
3ABC
  8
0
  6
CONTINUOUS
 62
     4
 10
143.736215470620408
 20
49.7963104567281718
 30
0.0
  0
VERTEX
  5
3ABD
  8
0
  6
CONTINUOUS
 62
     4
 10
155.4739866794261047
 20
47.3013701669150279
 30
0.0
 42
0.414213562373139
  0
VERTEX
  5
3ABE
  8
0
  6
CONTINUOUS
 62
     4
 10
156.6600459709775066
 20
48.0716060768310669
 30
0.0
  0
VERTEX
  5
3ABF
  8
0
  6
CONTINUOUS
 62
     4
 10
159.1549862607907073
 20
59.8093772856367991
 30
0.0
 42
0.4142135623730831
  0
VERTEX
  5
3AC0
  8
0
  6
CONTINUOUS
 62
     4
 10
158.3847503508746968
 20
60.9954365771883431
 30
0.0
  0
VERTEX
  5
3AC1
  8
0
  6
CONTINUOUS
 62
     4
 10
146.6469791420690001
 20
63.4903768670013733
 30
0.0
 42
0.4142135623730771
  0
VERTEX
  5
3AC2
  8
0
  6
CONTINUOUS
 62
     4
 10
145.4609198505175129
 20
62.7201409570853272
 30
0.0
  0
SEQEND
  5
3AC3
  8
0
  6
CONTINUOUS
 62
     4
  0
POLYLINE
  5
3360
  8
0
  6
CONTINUOUS
 62
     4
 66
     1
 10
0.0
 20
0.0
 30
0.0
 70
     1
  0
VERTEX
  5
3AC4
  8
0
  6
CONTINUOUS
 62
     4
 10
330.6230593227895724
 20
96.9773089371147847
 30
0.0
 42
0.4142135623730618
  0
VERTEX
  5
3AC5
  8
0
  6
CONTINUOUS
 62
     4
 10
331.6230593227895724
 20
95.9773089371149837
 30
0.0
  0
VERTEX
  5
3AC6
  8
0
  6
CONTINUOUS
 62
     4
 10
343.6230593227895724
 20
95.9773089371148558
 30
0.0
 42
0.4142135623731284
  0
VERTEX
  5
3AC7
  8
0
  6
CONTINUOUS
 62
     4
 10
344.6230593227895724
 20
96.9773089371147847
 30
0.0
  0
VERTEX
  5
3AC8
  8
0
  6
CONTINUOUS
 62
     4
 10
344.6230593227896861
 20
108.9773089371146995
 30
0.0
 42
0.4142135623731284
  0
VERTEX
  5
3AC9
  8
0
  6
CONTINUOUS
 62
     4
 10
343.6230593227895724
 20
109.9773089371148984
 30
0.0
  0
VERTEX
  5
3ACA
  8
0
  6
CONTINUOUS
 62
     4
 10
331.6230593227895724
 20
109.9773089371147989
 30
0.0
 42
0.4142135623730451
  0
VERTEX
  5
3ACB
  8
0
  6
CONTINUOUS
 62
     4
 10
330.6230593227895724
 20
108.9773089371147989
 30
0.0
  0
SEQEND
  5
3ACC
  8
0
  6
CONTINUOUS
 62
     4
  0
POLYLINE
  5
3361
  8
0
  6
CONTINUOUS
 62
     4
 66
     1
 10
0.0
 20
0.0
 30
0.0
 70
     1
  0
VERTEX
  5
3ACD
  8
0
  6
CONTINUOUS
 62
     4
 10
168.8296913546834048
 20
103.9116520382014954
 30
0.0
 42
0.4142135623730791
  0
VERTEX
  5
3ACE
  8
0
  6
CONTINUOUS
 62
     4
 10
169.5999272645993869
 20
102.7255927466498946
 30
0.0
  0
VERTEX
  5
3ACF
  8
0
  6
CONTINUOUS
 62
     4
 10
181.3376984734051973
 20
100.2306524568367934
 30
0.0
 42
0.4142135623730891
  0
VERTEX
  5
3AD0
  8
0
  6
CONTINUOUS
 62
     4
 10
182.5237577649565139
 20
101.0008883667528039
 30
0.0
  0
VERTEX
  5
3AD1
  8
0
  6
CONTINUOUS
 62
     4
 10
185.018698054769601
 20
112.7386595755584011
 30
0.0
 42
0.4142135623731497
  0
VERTEX
  5
3AD2
  8
0
  6
CONTINUOUS
 62
     4
 10
184.2484621448537041
 20
113.9247188671101014
 30
0.0
  0
VERTEX
  5
3AD3
  8
0
  6
CONTINUOUS
 62
     4
 10
172.5106909360480927
 20
116.4196591569230037
 30
0.0
 42
0.4142135623731193
  0
VERTEX
  5
3AD4
  8
0
  6
CONTINUOUS
 62
     4
 10
171.3246316444964918
 20
115.6494232470069932
 30
0.0
  0
SEQEND
  5
3AD5
  8
0
  6
CONTINUOUS
 62
     4
  0
POLYLINE
  5
3362
  8
0
  6
CONTINUOUS
 62
     4
 66
     1
 10
0.0
 20
0.0
 30
0.0
 70
     1
  0
VERTEX
  5
3AD6
  8
0
  6
CONTINUOUS
 62
     4
 10
274.4830593227894724
 20
118.1673089371146972
 30
0.0
 42
0.4142135623730951
  0
VERTEX
  5
3AD7
  8
0
  6
CONTINUOUS
 62
     4
 10
275.4830593227896998
 20
117.1673089371149956
 30
0.0
  0
VERTEX
  5
3AD8
  8
0
  6
CONTINUOUS
 62
     4
 10
287.4830593227898135
 20
117.1673089371146972
 30
0.0
 42
0.4142135623730618
  0
VERTEX
  5
3AD9
  8
0
  6
CONTINUOUS
 62
     4
 10
288.4830593227894724
 20
118.1673089371146972
 30
0.0
  0
VERTEX
  5
3ADA
  8
0
  6
CONTINUOUS
 62
     4
 10
288.4830593227896998
 20
130.1673089371147114
 30
0.0
 42
0.4142135623730951
  0
VERTEX
  5
3ADB
  8
0
  6
CONTINUOUS
 62
     4
 10
287.4830593227895861
 20
131.1673089371147114
 30
0.0
  0
VERTEX
  5
3ADC
  8
0
  6
CONTINUOUS
 62
     4
 10
275.4830593227896998
 20
131.1673089371147967
 30
0.0
 42
0.4142135623730951
  0
VERTEX
  5
3ADD
  8
0
  6
CONTINUOUS
 62
     4
 10
274.4830593227894724
 20
130.1673089371147114
 30
0.0
  0
SEQEND
  5
3ADE
  8
0
  6
CONTINUOUS
 62
     4
  0
POLYLINE
  5
3363
  8
0
  6
CONTINUOUS
 62
     4
 66
     1
 10
0.0
 20
0.0
 30
0.0
 70
     1
  0
VERTEX
  5
3ADF
  8
0
  6
CONTINUOUS
 62
     4
 10
293.1130593227895247
 20
116.0273089371148956
 30
0.0
 42
0.4142135623730743
  0
VERTEX
  5
3AE0
  8
0
  6
CONTINUOUS
 62
     4
 10
294.1130593227895815
 20
115.027308937114995
 30
0.0
  0
VERTEX
  5
3AE1
  8
0
  6
CONTINUOUS
 62
     4
 10
306.1130593227895247
 20
115.0273089371147961
 30
0.0
 42
0.4142135623730951
  0
VERTEX
  5
3AE2
  8
0
  6
CONTINUOUS
 62
     4
 10
307.1130593227895247
 20
116.0273089371147961
 30
0.0
  0
VERTEX
  5
3AE3
  8
0
  6
CONTINUOUS
 62
     4
 10
307.1130593227895247
 20
128.0273089371148956
 30
0.0
 42
0.4142135623731076
  0
VERTEX
  5
3AE4
  8
0
  6
CONTINUOUS
 62
     4
 10
306.1130593227895247
 20
129.0273089371150093
 30
0.0
  0
VERTEX
  5
3AE5
  8
0
  6
CONTINUOUS
 62
     4
 10
294.1130593227895815
 20
129.0273089371150093
 30
0.0
 42
0.4142135623730784
  0
VERTEX
  5
3AE6
  8
0
  6
CONTINUOUS
 62
     4
 10
293.1130593227895247
 20
128.0273089371150093
 30
0.0
  0
SEQEND
  5
3AE7
  8
0
  6
CONTINUOUS
 62
     4
  0
POLYLINE
  5
3364
  8
0
  6
CONTINUOUS
 62
     4
 66
     1
 10
0.0
 20
0.0
 30
0.0
 70
     1
  0
VERTEX
  5
3AE8
  8
0
  6
CONTINUOUS
 62
     4
 10
156.2496913546833923
 20
67.6316520382014232
 30
0.0
 42
0.4142135623730791
  0
VERTEX
  5
3AE9
  8
0
  6
CONTINUOUS
 62
     4
 10
157.0199272645994029
 20
66.4455927466498224
 30
0.0
  0
VERTEX
  5
3AEA
  8
0
  6
CONTINUOUS
 62
     4
 10
168.7576984734050995
 20
63.9506524568367922
 30
0.0
 42
0.4142135623730649
  0
VERTEX
  5
3AEB
  8
0
  6
CONTINUOUS
 62
     4
 10
169.9437577649565867
 20
64.7208883667526607
 30
0.0
  0
VERTEX
  5
3AEC
  8
0
  6
CONTINUOUS
 62
     4
 10
172.4386980547697021
 20
76.4586595755584995
 30
0.0
 42
0.4142135623731076
  0
VERTEX
  5
3AED
  8
0
  6
CONTINUOUS
 62
     4
 10
171.6684621448538905
 20
77.6447188671101571
 30
0.0
  0
VERTEX
  5
3AEE
  8
0
  6
CONTINUOUS
 62
     4
 10
159.9306909360479949
 20
80.1396591569230736
 30
0.0
 42
0.4142135623730934
  0
VERTEX
  5
3AEF
  8
0
  6
CONTINUOUS
 62
     4
 10
158.7446316444965078
 20
79.3694232470069778
 30
0.0
  0
SEQEND
  5
3AF0
  8
0
  6
CONTINUOUS
 62
     4
  0
POLYLINE
  5
3365
  8
0
  6
CONTINUOUS
 62
     4
 66
     1
 10
0.0
 20
0.0
 30
0.0
 70
     1
  0
VERTEX
  5
3AF1
  8
0
  6
CONTINUOUS
 62
     4
 10
155.54969135468329
 20
87.2616520382013476
 30
0.0
 42
0.4142135623730212
  0
VERTEX
  5
3AF2
  8
0
  6
CONTINUOUS
 62
     4
 10
156.3199272645993005
 20
86.0755927466498179
 30
0.0
  0
VERTEX
  5
3AF3
  8
0
  6
CONTINUOUS
 62
     4
 10
168.0576984734051109
 20
83.5806524568367877
 30
0.0
 42
0.4142135623731348
  0
VERTEX
  5
3AF4
  8
0
  6
CONTINUOUS
 62
     4
 10
169.2437577649565128
 20
84.3508883667527556
 30
0.0
  0
VERTEX
  5
3AF5
  8
0
  6
CONTINUOUS
 62
     4
 10
171.7386980547697135
 20
96.0886595755584381
 30
0.0
 42
0.4142135623731619
  0
VERTEX
  5
3AF6
  8
0
  6
CONTINUOUS
 62
     4
 10
170.968462144853703
 20
97.2747188671101526
 30
0.0
  0
VERTEX
  5
3AF7
  8
0
  6
CONTINUOUS
 62
     4
 10
159.2306909360480915
 20
99.7696591569231828
 30
0.0
 42
0.4142135623731276
  0
VERTEX
  5
3AF8
  8
0
  6
CONTINUOUS
 62
     4
 10
158.0446316444964907
 20
98.9994232470071012
 30
0.0
  0
SEQEND
  5
3AF9
  8
0
  6
CONTINUOUS
 62
     4
  0
POLYLINE
  5
3366
  8
0
  6
CONTINUOUS
 62
     4
 66
     1
 10
0.0
 20
0.0
 30
0.0
 70
     1
  0
VERTEX
  5
3AFA
  8
0
  6
CONTINUOUS
 62
     4
 10
86.2930593227894747
 20
58.8773089371145986
 30
0.0
 42
0.4142135623730743
  0
VERTEX
  5
3AFB
  8
0
  6
CONTINUOUS
 62
     4
 10
87.2930593227894747
 20
57.8773089371147194
 30
0.0
  0
VERTEX
  5
3AFC
  8
0
  6
CONTINUOUS
 62
     4
 10
99.2930593227894747
 20
57.8773089371146625
 30
0.0
 42
0.4142135623730951
  0
VERTEX
  5
3AFD
  8
0
  6
CONTINUOUS
 62
     4
 10
100.2930593227894036
 20
58.8773089371146625
 30
0.0
  0
VERTEX
  5
3AFE
  8
0
  6
CONTINUOUS
 62
     4
 10
100.2930593227894036
 20
70.8773089371146625
 30
0.0
 42
0.4142135623730951
  0
VERTEX
  5
3AFF
  8
0
  6
CONTINUOUS
 62
     4
 10
99.2930593227894747
 20
71.8773089371149467
 30
0.0
  0
VERTEX
  5
3B00
  8
0
  6
CONTINUOUS
 62
     4
 10
87.2930593227894747
 20
71.8773089371146625
 30
0.0
 42
0.4142135623730951
  0
VERTEX
  5
3B01
  8
0
  6
CONTINUOUS
 62
     4
 10
86.2930593227894747
 20
70.8773089371146625
 30
0.0
  0
SEQEND
  5
3B02
  8
0
  6
CONTINUOUS
 62
     4
  0
POLYLINE
  5
3367
  8
0
  6
CONTINUOUS
 62
     4
 66
     1
 10
0.0
 20
0.0
 30
0.0
 70
     1
  0
VERTEX
  5
3B03
  8
0
  6
CONTINUOUS
 62
     4
 10
161.5996913546833014
 20
47.0216520382015233
 30
0.0
 42
0.4142135623730511
  0
VERTEX
  5
3B04
  8
0
  6
CONTINUOUS
 62
     4
 10
162.3699272645993972
 20
45.8355927466498017
 30
0.0
  0
VERTEX
  5
3B05
  8
0
  6
CONTINUOUS
 62
     4
 10
174.1076984734050939
 20
43.3406524568368923
 30
0.0
 42
0.4142135623730891
  0
VERTEX
  5
3B06
  8
0
  6
CONTINUOUS
 62
     4
 10
175.2937577649566094
 20
44.1108883667528175
 30
0.0
  0
VERTEX
  5
3B07
  8
0
  6
CONTINUOUS
 62
     4
 10
177.7886980547696965
 20
55.8486595755585427
 30
0.0
 42
0.4142135623730911
  0
VERTEX
  5
3B08
  8
0
  6
CONTINUOUS
 62
     4
 10
177.0184621448537996
 20
57.0347188671101435
 30
0.0
  0
VERTEX
  5
3B09
  8
0
  6
CONTINUOUS
 62
     4
 10
165.2806909360481882
 20
59.5296591569232802
 30
0.0
 42
0.4142135623731732
  0
VERTEX
  5
3B0A
  8
0
  6
CONTINUOUS
 62
     4
 10
164.0946316444963884
 20
58.7594232470072484
 30
0.0
  0
SEQEND
  5
3B0B
  8
0
  6
CONTINUOUS
 62
     4
  0
POLYLINE
  5
3368
  8
0
  6
CONTINUOUS
 62
     4
 66
     1
 10
0.0
 20
0.0
 30
0.0
 70
     1
  0
VERTEX
  5
3B0C
  8
0
  6
CONTINUOUS
 62
     4
 10
55.833059322789552
 20
116.027308937114995
 30
0.0
 42
0.4142135623730951
  0
VERTEX
  5
3B0D
  8
0
  6
CONTINUOUS
 62
     4
 10
56.8330593227896586
 20
115.027308937114995
 30
0.0
  0
VERTEX
  5
3B0E
  8
0
  6
CONTINUOUS
 62
     4
 10
68.8330593227896657
 20
115.027308937114995
 30
0.0
 42
0.4142135623730951
  0
VERTEX
  5
3B0F
  8
0
  6
CONTINUOUS
 62
     4
 10
69.833059322789552
 20
116.027308937114995
 30
0.0
  0
VERTEX
  5
3B10
  8
0
  6
CONTINUOUS
 62
     4
 10
69.8330593227896657
 20
128.0273089371150093
 30
0.0
 42
0.4142135623730951
  0
VERTEX
  5
3B11
  8
0
  6
CONTINUOUS
 62
     4
 10
68.8330593227896657
 20
129.0273089371150093
 30
0.0
  0
VERTEX
  5
3B12
  8
0
  6
CONTINUOUS
 62
     4
 10
56.8330593227896586
 20
129.0273089371150945
 30
0.0
 42
0.4142135623730951
  0
VERTEX
  5
3B13
  8
0
  6
CONTINUOUS
 62
     4
 10
55.833059322789552
 20
128.0273089371150093
 30
0.0
  0
SEQEND
  5
3B14
  8
0
  6
CONTINUOUS
 62
     4
  0
POLYLINE
  5
3369
  8
0
  6
CONTINUOUS
 62
     4
 66
     1
 10
0.0
 20
0.0
 30
0.0
 70
     1
  0
VERTEX
  5
3B15
  8
0
  6
CONTINUOUS
 62
     4
 10
250.0234962625594903
 20
94.2530414969877341
 30
0.0
 42
0.4142135623730908
  0
VERTEX
  5
3B16
  8
0
  6
CONTINUOUS
 62
     4
 10
251.2095555541110912
 20
93.4828055870717662
 30
0.0
  0
VERTEX
  5
3B17
  8
0
  6
CONTINUOUS
 62
     4
 10
262.9473267629167026
 20
95.9777458768849669
 30
0.0
 42
0.4142135623729642
  0
VERTEX
  5
3B18
  8
0
  6
CONTINUOUS
 62
     4
 10
263.7175626728329121
 20
97.1638051684364541
 30
0.0
  0
VERTEX
  5
3B19
  8
0
  6
CONTINUOUS
 62
     4
 10
261.2226223830198251
 20
108.9015763772419945
 30
0.0
 42
0.4142135623730227
  0
VERTEX
  5
3B1A
  8
0
  6
CONTINUOUS
 62
     4
 10
260.0365630914679969
 20
109.6718122871581045
 30
0.0
  0
VERTEX
  5
3B1B
  8
0
  6
CONTINUOUS
 62
     4
 10
248.2987918826623002
 20
107.1768719973448043
 30
0.0
 42
0.4142135623730285
  0
VERTEX
  5
3B1C
  8
0
  6
CONTINUOUS
 62
     4
 10
247.5285559727462896
 20
105.9908127057932035
 30
0.0
  0
SEQEND
  5
3B1D
  8
0
  6
CONTINUOUS
 62
     4
  0
POLYLINE
  5
336A
  8
0
  6
CONTINUOUS
 62
     4
 66
     1
 10
0.0
 20
0.0
 30
0.0
 70
     1
  0
VERTEX
  5
3B1E
  8
0
  6
CONTINUOUS
 62
     4
 10
93.523059322789365
 20
118.1673089371146972
 30
0.0
 42
0.4142135623730951
  0
VERTEX
  5
3B1F
  8
0
  6
CONTINUOUS
 62
     4
 10
94.523059322789365
 20
117.1673089371149956
 30
0.0
  0
VERTEX
  5
3B20
  8
0
  6
CONTINUOUS
 62
     4
 10
106.5230593227895071
 20
117.1673089371146972
 30
0.0
 42
0.4142135623730618
  0
VERTEX
  5
3B21
  8
0
  6
CONTINUOUS
 62
     4
 10
107.5230593227893934
 20
118.1673089371146972
 30
0.0
  0
VERTEX
  5
3B22
  8
0
  6
CONTINUOUS
 62
     4
 10
107.5230593227893934
 20
130.1673089371147114
 30
0.0
 42
0.4142135623730618
  0
VERTEX
  5
3B23
  8
0
  6
CONTINUOUS
 62
     4
 10
106.5230593227895071
 20
131.1673089371147114
 30
0.0
  0
VERTEX
  5
3B24
  8
0
  6
CONTINUOUS
 62
     4
 10
94.523059322789365
 20
131.1673089371147114
 30
0.0
 42
0.4142135623730951
  0
VERTEX
  5
3B25
  8
0
  6
CONTINUOUS
 62
     4
 10
93.523059322789365
 20
130.1673089371147114
 30
0.0
  0
SEQEND
  5
3B26
  8
0
  6
CONTINUOUS
 62
     4
  0
POLYLINE
  5
336B
  8
0
  6
CONTINUOUS
 62
     4
 66
     1
 10
0.0
 20
0.0
 30
0.0
 70
     1
  0
VERTEX
  5
3B27
  8
0
  6
CONTINUOUS
 62
     4
 10
74.8830593227893928
 20
116.027308937114995
 30
0.0
 42
0.4142135623730951
  0
VERTEX
  5
3B28
  8
0
  6
CONTINUOUS
 62
     4
 10
75.8830593227893928
 20
115.027308937114995
 30
0.0
  0
VERTEX
  5
3B29
  8
0
  6
CONTINUOUS
 62
     4
 10
87.8830593227893928
 20
115.027308937114995
 30
0.0
 42
0.4142135623730951
  0
VERTEX
  5
3B2A
  8
0
  6
CONTINUOUS
 62
     4
 10
88.8830593227893928
 20
116.027308937114995
 30
0.0
  0
VERTEX
  5
3B2B
  8
0
  6
CONTINUOUS
 62
     4
 10
88.8830593227895065
 20
128.0273089371148956
 30
0.0
 42
0.4142135623731408
  0
VERTEX
  5
3B2C
  8
0
  6
CONTINUOUS
 62
     4
 10
87.8830593227893928
 20
129.0273089371150093
 30
0.0
  0
VERTEX
  5
3B2D
  8
0
  6
CONTINUOUS
 62
     4
 10
75.8830593227893928
 20
129.0273089371150093
 30
0.0
 42
0.4142135623730951
  0
VERTEX
  5
3B2E
  8
0
  6
CONTINUOUS
 62
     4
 10
74.8830593227893928
 20
128.0273089371150093
 30
0.0
  0
SEQEND
  5
3B2F
  8
0
  6
CONTINUOUS
 62
     4
  0
POLYLINE
  5
336C
  8
0
  6
CONTINUOUS
 62
     4
 66
     1
 10
0.0
 20
0.0
 30
0.0
 70
     1
  0
VERTEX
  5
3B30
  8
0
  6
CONTINUOUS
 62
     4
 10
258.6434962625594949
 20
76.6030414969877711
 30
0.0
 42
0.414213562373107
  0
VERTEX
  5
3B31
  8
0
  6
CONTINUOUS
 62
     4
 10
259.8295555541112094
 20
75.8328055870715616
 30
0.0
  0
VERTEX
  5
3B32
  8
0
  6
CONTINUOUS
 62
     4
 10
271.5673267629168208
 20
78.3277458768847623
 30
0.0
 42
0.4142135623730511
  0
VERTEX
  5
3B33
  8
0
  6
CONTINUOUS
 62
     4
 10
272.3375626728326893
 20
79.5138051684364768
 30
0.0
  0
VERTEX
  5
3B34
  8
0
  6
CONTINUOUS
 62
     4
 10
269.8426223830197159
 20
91.2515763772420883
 30
0.0
 42
0.4142135623730425
  0
VERTEX
  5
3B35
  8
0
  6
CONTINUOUS
 62
     4
 10
268.6565630914681151
 20
92.021812287157843
 30
0.0
  0
VERTEX
  5
3B36
  8
0
  6
CONTINUOUS
 62
     4
 10
256.91879188266239
 20
89.526871997344827
 30
0.0
 42
0.4142135623730831
  0
VERTEX
  5
3B37
  8
0
  6
CONTINUOUS
 62
     4
 10
256.1485559727465215
 20
88.3408127057932688
 30
0.0
  0
SEQEND
  5
3B38
  8
0
  6
CONTINUOUS
 62
     4
  0
POLYLINE
  5
336D
  8
0
  6
CONTINUOUS
 62
     4
 66
     1
 10
0.0
 20
0.0
 30
0.0
 70
     1
  0
VERTEX
  5
3B39
  8
0
  6
CONTINUOUS
 62
     4
 10
255.3834962625593903
 20
114.8630414969877052
 30
0.0
 42
0.4142135623730826
  0
VERTEX
  5
3B3A
  8
0
  6
CONTINUOUS
 62
     4
 10
256.5695555541111048
 20
114.0928055870714957
 30
0.0
  0
VERTEX
  5
3B3B
  8
0
  6
CONTINUOUS
 62
     4
 10
268.3073267629167162
 20
116.5877458768846964
 30
0.0
 42
0.4142135623730789
  0
VERTEX
  5
3B3C
  8
0
  6
CONTINUOUS
 62
     4
 10
269.0775626728326984
 20
117.7738051684363967
 30
0.0
  0
VERTEX
  5
3B3D
  8
0
  6
CONTINUOUS
 62
     4
 10
266.5826223830196113
 20
129.5115763772421076
 30
0.0
 42
0.4142135623730445
  0
VERTEX
  5
3B3E
  8
0
  6
CONTINUOUS
 62
     4
 10
265.3965630914681242
 20
130.2818122871580044
 30
0.0
  0
VERTEX
  5
3B3F
  8
0
  6
CONTINUOUS
 62
     4
 10
253.6587918826623991
 20
127.7868719973449032
 30
0.0
 42
0.4142135623730668
  0
VERTEX
  5
3B40
  8
0
  6
CONTINUOUS
 62
     4
 10
252.8885559727463885
 20
126.6008127057933024
 30
0.0
  0
SEQEND
  5
3B41
  8
0
  6
CONTINUOUS
 62
     4
  0
POLYLINE
  5
336E
  8
0
  6
CONTINUOUS
 62
     4
 66
     1
 10
0.0
 20
0.0
 30
0.0
 70
     1
  0
VERTEX
  5
3B42
  8
0
  6
CONTINUOUS
 62
     4
 10
80.2430593227894065
 20
96.9773089371147847
 30
0.0
 42
0.4142135623730951
  0
VERTEX
  5
3B43
  8
0
  6
CONTINUOUS
 62
     4
 10
81.2430593227894065
 20
95.9773089371149837
 30
0.0
  0
VERTEX
  5
3B44
  8
0
  6
CONTINUOUS
 62
     4
 10
93.2430593227896338
 20
95.9773089371147421
 30
0.0
 42
0.4142135623730951
  0
VERTEX
  5
3B45
  8
0
  6
CONTINUOUS
 62
     4
 10
94.2430593227896338
 20
96.9773089371147847
 30
0.0
  0
VERTEX
  5
3B46
  8
0
  6
CONTINUOUS
 62
     4
 10
94.2430593227896338
 20
108.9773089371146995
 30
0.0
 42
0.4142135623730951
  0
VERTEX
  5
3B47
  8
0
  6
CONTINUOUS
 62
     4
 10
93.2430593227896338
 20
109.9773089371148984
 30
0.0
  0
VERTEX
  5
3B48
  8
0
  6
CONTINUOUS
 62
     4
 10
81.2430593227894065
 20
109.9773089371147989
 30
0.0
 42
0.4142135623730951
  0
VERTEX
  5
3B49
  8
0
  6
CONTINUOUS
 62
     4
 10
80.2430593227894065
 20
108.9773089371146995
 30
0.0
  0
SEQEND
  5
3B4A
  8
0
  6
CONTINUOUS
 62
     4
  0
POLYLINE
  5
336F
  8
0
  6
CONTINUOUS
 62
     4
 66
     1
 10
0.0
 20
0.0
 30
0.0
  0
VERTEX
  5
3B4B
  8
0
  6
CONTINUOUS
 62
     4
 10
328.7430593227895201
 20
76.9273089371147307
 30
0.0
  0
VERTEX
  5
3B4C
  8
0
  6
CONTINUOUS
 62
     4
 10
340.743059322789577
 20
76.927308937114617
 30
0.0
 42
0.4142141559377058
  0
VERTEX
  5
3B4D
  8
0
  6
CONTINUOUS
 62
     4
 10
341.7430613493493183
 20
77.9273089371145602
 30
0.0
  0
SEQEND
  5
3B4E
  8
0
  6
CONTINUOUS
 62
     4
  0
POLYLINE
  5
33BA
  8
OLED
 62
     7
 66
     1
 10
0.0
 20
0.0
 30
0.0
  0
VERTEX
  5
3B58
  8
OLED
 62
     7
 10
322.3638732042012975
 20
52.4548839506448772
 30
0.0
  0
VERTEX
  5
3B59
  8
OLED
 62
     7
 10
322.3638732042012975
 20
40.4548839536438791
 30
0.0
  0
VERTEX
  5
3B5A
  8
OLED
 62
     7
 10
319.3638732049511759
 20
40.4548839536438791
 30
0.0
  0
VERTEX
  5
3B5B
  8
OLED
 62
     7
 10
319.3638732049511759
 20
52.4548839506448772
 30
0.0
  0
VERTEX
  5
3B5C
  8
OLED
 62
     7
 10
322.3638732042012975
 20
52.4548839506448772
 30
0.0
  0
SEQEND
  5
3B5D
  8
OLED
 62
     7
  0
CIRCLE
  5
33BB
  8
0
  6
CONTINUOUS
 10
285.8621232133214107
 20
50.2666339522037191
 30
0.0
 40
0.5
  0
CIRCLE
  5
33BC
  8
0
  6
CONTINUOUS
 10
285.8621232133214107
 20
47.7266339522042102
 30
0.0
 40
0.5
  0
CIRCLE
  5
33BD
  8
0
  6
CONTINUOUS
 10
285.8621232133214107
 20
45.1866339522041329
 30
0.0
 40
0.5
  0
CIRCLE
  5
33BE
  8
0
  6
CONTINUOUS
 10
285.8621232133214107
 20
42.6466339522041622
 30
0.0
 40
0.5
  0
LINE
  5
33BF
  8
0
 10
284.3638732137014813
 20
40.4548839536437725
 30
0.0
 11
284.3638732137014813
 21
52.4548839506443727
 31
0.0
  0
LINE
  5
33C0
  8
0
 10
284.3638732137014813
 20
52.4548839506443727
 30
0.0
 11
322.3638732042012975
 21
52.4548839506443727
 31
0.0
  0
LINE
  5
33C1
  8
0
 10
322.3638732042012975
 20
52.4548839506443727
 30
0.0
 11
322.3638732042012975
 21
40.4548839536438791
 31
0.0
  0
LINE
  5
33C2
  8
0
 10
322.3638732042012975
 20
40.4548839536438791
 30
0.0
 11
284.3638732137014813
 21
40.4548839536438791
 31
0.0
  0
LINE
  5
33C3
  8
0
 10
284.3638732137014813
 20
40.4548839536438791
 30
0.0
 11
284.3638732137014813
 21
52.4548839506443727
 31
0.0
  0
LINE
  5
33C4
  8
0
 10
289.3638732124510966
 20
52.4548839506443727
 30
0.0
 11
289.3638732124510966
 21
40.4548839536438791
 31
0.0
  0
LINE
  5
33C5
  8
0
 10
319.3638732049511759
 20
40.4548839536438791
 30
0.0
 11
319.3638732049511191
 21
52.4548839506451117
 31
0.0
  0
LINE
  5
33C6
  8
0
 10
314.8638732058262235
 20
41.7248839535765086
 30
0.0
 11
290.8638732123259274
 21
41.7248839535765086
 31
0.0
  0
ARC
  5
33C7
  8
0
 10
314.8638732058262235
 20
42.7248839535766791
 30
0.0
 40
1.0
 50
270.0
 51
0.0
  0
ARC
  5
33C8
  8
0
 10
290.8638732123259274
 20
42.7248839535766791
 30
0.0
 40
1.0
 50
180.0
 51
270.0
  0
LINE
  5
33C9
  8
0
 10
289.8638732123259842
 20
42.7248839535766791
 30
0.0
 11
289.8638732123259842
 21
50.1811487935875533
 31
0.0
  0
LINE
  5
33CA
  8
0
 10
315.8638732058262235
 20
50.1811487935875533
 30
0.0
 11
315.8638732058262235
 21
42.7248839535766791
 31
0.0
  0
ARC
  5
33CB
  8
0
 10
314.8638732058262235
 20
50.1811487935875533
 30
0.0
 40
1.0
 50
0.0
 51
90.0
  0
LINE
  5
33CC
  8
0
 10
290.8638732123259274
 20
51.1811487935878375
 30
0.0
 11
314.8638732058262235
 21
51.1811487935878375
 31
0.0
  0
ARC
  5
33CD
  8
0
 10
290.8638732123259274
 20
50.1811487935875533
 30
0.0
 40
1.0
 50
90.0
 51
180.0
  0
LINE
  5
33D0
  8
0
 10
327.5786593227902017
 20
37.2493089371147335
 30
0.0
 11
280.1726521228598017
 21
36.9328914167277631
 31
0.0
  0
LINE
  5
33D1
  8
0
 10
276.3648251304052224
 20
54.847308937114569
 30
0.0
 11
280.1726521228598017
 21
36.9328914167277631
 31
0.0
  0
LINE
  5
33D2
  8
0
 10
278.1490870953618924
 20
46.4530163735822725
 30
0.0
 11
327.5786593227902017
 21
46.4530163735819528
 31
0.0
  0
LINE
  5
33D3
  8
0
 10
302.8638732090760755
 20
46.4530163735821091
 30
0.0
 11
302.9264028182417974
 21
37.0847642657566183
 31
0.0
  0
LINE
  5
33D4
  8
0
 10
315.8638732058262235
 20
46.4530163735821091
 30
0.0
 11
289.8638732123259842
 21
46.4530163735821091
 31
0.0
  0
ENDSEC
  0
EOF
