  0
SECTION
  2
HEADER
  9
$ACADVER
  1
AC1009
  9
$INSBASE
 10
0.0
 20
0.0
 30
0.0
  9
$EXTMIN
 10
-177.2635338857710963
 20
-212.7561961763047123
 30
0.0
  9
$EXTMAX
 10
622.8015215938949041
 20
139.8484739596599127
 30
0.0
  9
$LIMMIN
 10
0.0
 20
0.0
  9
$LIMMAX
 10
420.0
 20
297.0
  9
$ORTHOMODE
 70
     0
  9
$REGENMODE
 70
     1
  9
$FILLMODE
 70
     1
  9
$QTEXTMODE
 70
     0
  9
$MIRRTEXT
 70
     1
  9
$DRAGMODE
 70
     2
  9
$LTSCALE
 40
1.0
  9
$OSMODE
 70
  2047
  9
$ATTMODE
 70
     1
  9
$TEXTSIZE
 40
3.5
  9
$TRACEWID
 40
1.0
  9
$TEXTSTYLE
  7
STANDARD
  9
$CLAYER
  8
0
  9
$CELTYPE
  6
BYLAYER
  9
$CECOLOR
 62
   256
  9
$DIMSCALE
 40
1.0
  9
$DIMASZ
 40
3.3019999999999992
  9
$DIMEXO
 40
1.0
  9
$DIMDLI
 40
3.75
  9
$DIMRND
 40
0.0
  9
$DIMDLE
 40
0.0
  9
$DIMEXE
 40
1.0
  9
$DIMTP
 40
0.0
  9
$DIMTM
 40
0.0
  9
$DIMTXT
 40
3.5
  9
$DIMCEN
 40
2.5
  9
$DIMTSZ
 40
0.0
  9
$DIMTOL
 70
     0
  9
$DIMLIM
 70
     0
  9
$DIMTIH
 70
     1
  9
$DIMTOH
 70
     1
  9
$DIMSE1
 70
     0
  9
$DIMSE2
 70
     0
  9
$DIMTAD
 70
     1
  9
$DIMZIN
 70
     0
  9
$DIMBLK
  1

  9
$DIMASO
 70
     1
  9
$DIMSHO
 70
     1
  9
$DIMPOST
  1

  9
$DIMAPOST
  1

  9
$DIMALT
 70
     0
  9
$DIMALTD
 70
     3
  9
$DIMALTF
 40
0.0393700787401575
  9
$DIMLFAC
 40
1.0
  9
$DIMTOFL
 70
     1
  9
$DIMTVP
 40
0.0
  9
$DIMTIX
 70
     0
  9
$DIMSOXD
 70
     0
  9
$DIMSAH
 70
     0
  9
$DIMBLK1
  1

  9
$DIMBLK2
  1

  9
$DIMSTYLE
  2
ISO-25
  9
$DIMCLRD
 70
     0
  9
$DIMCLRE
 70
     0
  9
$DIMCLRT
 70
     0
  9
$DIMTFAC
 40
1.0
  9
$DIMGAP
 40
1.524
  9
$LUNITS
 70
     2
  9
$LUPREC
 70
     2
  9
$SKETCHINC
 40
1.0
  9
$FILLETRAD
 40
10.0
  9
$AUNITS
 70
     0
  9
$AUPREC
 70
     2
  9
$MENU
  1
.
  9
$ELEVATION
 40
0.0
  9
$PELEVATION
 40
0.0
  9
$THICKNESS
 40
0.0
  9
$LIMCHECK
 70
     0
  9
$BLIPMODE
 70
     0
  9
$CHAMFERA
 40
0.0
  9
$CHAMFERB
 40
0.0
  9
$SKPOLY
 70
     0
  9
$TDCREATE
 40
2458384.5862500001676381
  9
$TDUPDATE
 40
2459364.4969907412305474
  9
$TDINDWG
 40
0.0461805671
  9
$TDUSRTIMER
 40
0.0461805671
  9
$USRTIMER
 70
     1
  9
$ANGBASE
 50
0.0
  9
$ANGDIR
 70
     0
  9
$PDMODE
 70
     0
  9
$PDSIZE
 40
-1.0
  9
$PLINEWID
 40
0.0
  9
$COORDS
 70
     1
  9
$SPLFRAME
 70
     0
  9
$SPLINETYPE
 70
     6
  9
$SPLINESEGS
 70
     8
  9
$ATTDIA
 70
     1
  9
$ATTREQ
 70
     1
  9
$HANDLING
 70
     1
  9
$HANDSEED
  5
30AC
  9
$SURFTAB1
 70
     6
  9
$SURFTAB2
 70
     6
  9
$SURFTYPE
 70
     6
  9
$SURFU
 70
     6
  9
$SURFV
 70
     6
  9
$UCSNAME
  2

  9
$UCSORG
 10
0.0
 20
0.0
 30
0.0
  9
$UCSXDIR
 10
1.0
 20
0.0
 30
0.0
  9
$UCSYDIR
 10
0.0
 20
1.0
 30
0.0
  9
$PUCSNAME
  2

  9
$PUCSORG
 10
0.0
 20
0.0
 30
0.0
  9
$PUCSXDIR
 10
1.0
 20
0.0
 30
0.0
  9
$PUCSYDIR
 10
0.0
 20
1.0
 30
0.0
  9
$USERI1
 70
     0
  9
$USERI2
 70
     0
  9
$USERI3
 70
     0
  9
$USERI4
 70
     0
  9
$USERI5
 70
     0
  9
$USERR1
 40
0.0
  9
$USERR2
 40
0.0
  9
$USERR3
 40
0.0
  9
$USERR4
 40
0.0
  9
$USERR5
 40
0.0
  9
$WORLDVIEW
 70
     1
  9
$SHADEDGE
 70
     3
  9
$SHADEDIF
 70
    70
  9
$TILEMODE
 70
     1
  9
$MAXACTVP
 70
    64
  9
$PLIMCHECK
 70
     0
  9
$PEXTMIN
 10
1.0000000000000000E+20
 20
1.0000000000000000E+20
 30
1.0000000000000000E+20
  9
$PEXTMAX
 10
-1.0000000000000000E+20
 20
-1.0000000000000000E+20
 30
-1.0000000000000000E+20
  9
$PLIMMIN
 10
0.0
 20
0.0
  9
$PLIMMAX
 10
420.0
 20
297.0
  9
$UNITMODE
 70
     0
  9
$VISRETAIN
 70
     1
  9
$PLINEGEN
 70
     0
  9
$PSLTSCALE
 70
     1
  0
ENDSEC
  0
SECTION
  2
TABLES
  0
TABLE
  2
VPORT
 70
     1
  0
VPORT
  2
*ACTIVE
 70
     0
 10
0.0
 20
0.0
 11
1.0
 21
1.0
 12
208.6663332563097129
 22
47.2296183182315303
 13
0.0
 23
0.0
 14
10.0
 24
10.0
 15
10.0
 25
10.0
 16
0.0
 26
0.0
 36
1.0
 17
0.0
 27
0.0
 37
0.0
 40
413.6849684914500926
 41
1.7711111111111111
 42
50.0
 43
0.0
 44
0.0
 50
0.0
 51
0.0
 71
     0
 72
   100
 73
     1
 74
     3
 75
     0
 76
     0
 77
     0
 78
     0
  0
ENDTAB
  0
TABLE
  2
LTYPE
 70
     7
  0
LTYPE
  2
CONTINUOUS
 70
     0
  3
Solid line
 72
    65
 73
     0
 40
0.0
  0
LTYPE
  2
HIDDEN
 70
     0
  3
Hidden __ __ __ __ __ __ __ __ __ __ __ __ __ __
 72
    65
 73
     2
 40
1.905
 49
1.27
 49
-0.635
  0
LTYPE
  2
PHANTOM
 70
     0
  3
Phantom ______  __  __  ______  __  __  ______
 72
    65
 73
     6
 40
12.6999999999999993
 49
6.3499999999999979
 49
-1.27
 49
1.27
 49
-1.27
 49
1.27
 49
-1.27
  0
LTYPE
  2
CENTER
 70
     0
  3
Center ____ _ ____ _ ____ _ ____ _ ____ _ ____
 72
    65
 73
     4
 40
10.1600000000000001
 49
6.3499999999999979
 49
-1.27
 49
1.27
 49
-1.27
  0
LTYPE
  2
CENTERX2
 70
     0
  3
Center (2x) ________  __  ________  __  _____
 72
    65
 73
     4
 40
20.3200000000000003
 49
12.6999999999999993
 49
-2.54
 49
2.54
 49
-2.54
  0
LTYPE
  2
DOT2
 70
     0
  3
Dot (.5x) ........................................
 72
    65
 73
     2
 40
0.635
 49
0.0
 49
-0.635
  0
ENDTAB
  0
TABLE
  2
LAYER
 70
     3
  0
LAYER
  2
0
 70
     0
 62
     3
  6
CONTINUOUS
  0
LAYER
  2
PLATE
 70
     0
 62
     1
  6
CONTINUOUS
  0
LAYER
  2
PCB
 70
     0
 62
     2
  6
CONTINUOUS
  0
ENDTAB
  0
TABLE
  2
STYLE
 70
     2
  0
STYLE
  2
STANDARD
 70
     0
 40
0.0
 41
1.0
 50
0.0
 71
     0
 42
3.5
  3
txt
  4

  0
STYLE
  2
ANNOTATIVE
 70
     0
 40
0.0
 41
1.0
 50
0.0
 71
     0
 42
0.2
  3
txt
  4

  0
ENDTAB
  0
TABLE
  2
VIEW
 70
     0
  0
ENDTAB
  0
TABLE
  2
UCS
 70
     0
  0
ENDTAB
  0
TABLE
  2
APPID
 70
     7
  0
APPID
  2
ACAD
 70
     0
  0
APPID
  2
ACADANNOTATIVE
 70
     0
  0
APPID
  2
ACAD_NAV_VCDISPLAY
 70
     0
  0
APPID
  2
ACAECLAYERSTANDARD
 70
     0
  0
APPID
  2
ACCMTRANSPARENCY
 70
     0
  0
APPID
  2
ACAD_EXEMPT_FROM_CAD_STANDARDS
 70
     0
  0
APPID
  2
ACAD_MLEADERVER
 70
     0
  0
ENDTAB
  0
TABLE
  2
DIMSTYLE
 70
     4
  0
DIMSTYLE
  2
STANDARD
 70
     0
  3

  4

  5

  6

  7

 40
1.0
 41
0.18
 42
0.0625
 43
0.38
 44
0.18
 45
0.0
 46
0.0
 47
0.0
 48
0.0
140
0.18
141
0.09
142
0.0
143
25.3999999999999986
144
1.0
145
0.0
146
1.0
147
0.09
 71
     0
 72
     0
 73
     1
 74
     1
 75
     0
 76
     0
 77
     0
 78
     0
170
     0
171
     2
172
     0
173
     0
174
     0
175
     0
176
     0
177
     0
178
     0
  0
DIMSTYLE
  2
ANNOTATIVE
 70
     0
  3

  4

  5

  6

  7

 40
1.0
 41
0.18
 42
0.0625
 43
0.38
 44
0.18
 45
0.0
 46
0.0
 47
0.0
 48
0.0
140
0.18
141
0.09
142
0.0
143
25.3999999999999986
144
1.0
145
0.0
146
1.0
147
0.09
 71
     0
 72
     0
 73
     1
 74
     1
 75
     0
 76
     0
 77
     0
 78
     0
170
     0
171
     2
172
     0
173
     0
174
     0
175
     0
176
     0
177
     0
178
     0
  0
DIMSTYLE
  2
ISO-25
 70
     0
  3

  4

  5

  6

  7

 40
1.0
 41
2.5
 42
0.625
 43
3.75
 44
1.25
 45
0.0
 46
0.0
 47
0.0
 48
0.0
140
2.5
141
2.5
142
0.0
143
0.03937007874016
144
1.0
145
0.0
146
1.0
147
0.625
 71
     0
 72
     0
 73
     0
 74
     0
 75
     0
 76
     0
 77
     1
 78
     8
170
     0
171
     3
172
     1
173
     0
174
     0
175
     0
176
     0
177
     0
178
     0
  0
ENDTAB
  0
ENDSEC
  0
SECTION
  2
BLOCKS
  0
BLOCK
  8
0
  2
$MODEL_SPACE
 70
     0
 10
0.0
 20
0.0
 30
0.0
  3
$MODEL_SPACE
  1

  0
ENDBLK
  5
1280
  8
0
  0
BLOCK
 67
     1
  8
0
  2
$PAPER_SPACE
 70
     0
 10
0.0
 20
0.0
 30
0.0
  3
$PAPER_SPACE
  1

  0
ENDBLK
  5
127C
 67
     1
  8
0
  0
ENDSEC
  0
SECTION
  2
ENTITIES
  0
POLYLINE
  5
1964
  8
0
 66
     1
 10
0.0
 20
0.0
 30
0.0
 70
     1
  0
VERTEX
  5
2D3A
  8
0
 10
91.4080593227895406
 20
128.0273089371148103
 30
0.0
  0
VERTEX
  5
2D3B
  8
0
 10
91.4080593227895406
 20
116.0273089371146966
 30
0.0
  0
VERTEX
  5
2D3C
  8
0
 10
91.4080593227895406
 20
112.5023089371148046
 30
0.0
  0
VERTEX
  5
2D3D
  8
0
 10
87.8830593227895065
 20
112.5023089371148046
 30
0.0
  0
VERTEX
  5
2D3E
  8
0
 10
75.8830593227895349
 20
112.5023089371148046
 30
0.0
  0
VERTEX
  5
2D3F
  8
0
 10
72.3580593227894724
 20
112.5023089371148046
 30
0.0
  0
VERTEX
  5
2D40
  8
0
 10
72.3580593227895008
 20
116.0273089371147961
 30
0.0
  0
VERTEX
  5
2D41
  8
0
 10
72.3580593227895292
 20
128.0273089371146966
 30
0.0
  0
VERTEX
  5
2D42
  8
0
 10
72.3580593227895008
 20
131.5523089371147876
 30
0.0
  0
VERTEX
  5
2D43
  8
0
 10
75.8830593227895065
 20
131.5523089371147876
 30
0.0
  0
VERTEX
  5
2D44
  8
0
 10
87.8830593227895065
 20
131.5523089371147876
 30
0.0
  0
VERTEX
  5
2D45
  8
0
 10
91.4080593227895406
 20
131.5523089371147876
 30
0.0
  0
SEQEND
  5
2D46
  8
0
  0
POLYLINE
  5
1965
  8
0
 66
     1
 10
0.0
 20
0.0
 30
0.0
 70
     1
  0
VERTEX
  5
2D47
  8
0
 10
72.3580593227895008
 20
128.0273089371148103
 30
0.0
  0
VERTEX
  5
2D48
  8
0
 10
72.3580593227895008
 20
116.0273089371146966
 30
0.0
  0
VERTEX
  5
2D49
  8
0
 10
72.3580593227895292
 20
112.5023089371148046
 30
0.0
  0
VERTEX
  5
2D4A
  8
0
 10
68.8330593227894951
 20
112.5023089371148046
 30
0.0
  0
VERTEX
  5
2D4B
  8
0
 10
56.8330593227895235
 20
112.5023089371148046
 30
0.0
  0
VERTEX
  5
2D4C
  8
0
 10
53.3080593227894823
 20
112.5023089371148046
 30
0.0
  0
VERTEX
  5
2D4D
  8
0
 10
53.3080593227894823
 20
116.0273089371147961
 30
0.0
  0
VERTEX
  5
2D4E
  8
0
 10
53.3080593227895179
 20
128.0273089371146966
 30
0.0
  0
VERTEX
  5
2D4F
  8
0
 10
53.3080593227894823
 20
131.5523089371147876
 30
0.0
  0
VERTEX
  5
2D50
  8
0
 10
56.833059322789488
 20
131.5523089371147876
 30
0.0
  0
VERTEX
  5
2D51
  8
0
 10
68.8330593227894951
 20
131.5523089371147876
 30
0.0
  0
VERTEX
  5
2D52
  8
0
 10
72.3580593227895008
 20
131.5523089371147876
 30
0.0
  0
SEQEND
  5
2D53
  8
0
  0
POLYLINE
  5
1966
  8
0
 66
     1
 10
0.0
 20
0.0
 30
0.0
 70
     1
  0
VERTEX
  5
2D54
  8
0
 10
49.338059322789519
 20
130.1673089371147114
 30
0.0
  0
VERTEX
  5
2D55
  8
0
 10
49.338059322789519
 20
118.1673089371146972
 30
0.0
  0
VERTEX
  5
2D56
  8
0
 10
49.338059322789519
 20
114.6423089371147057
 30
0.0
  0
VERTEX
  5
2D57
  8
0
 10
45.8130593227895133
 20
114.6423089371147057
 30
0.0
  0
VERTEX
  5
2D58
  8
0
 10
33.8130593227895417
 20
114.6423089371147057
 30
0.0
  0
VERTEX
  5
2D59
  8
0
 10
30.2880593227894792
 20
114.6423089371147057
 30
0.0
  0
VERTEX
  5
2D5A
  8
0
 10
30.2880593227895112
 20
118.1673089371146972
 30
0.0
  0
VERTEX
  5
2D5B
  8
0
 10
30.2880593227895112
 20
130.1673089371147114
 30
0.0
  0
VERTEX
  5
2D5C
  8
0
 10
30.2880593227895112
 20
133.6923089371146887
 30
0.0
  0
VERTEX
  5
2D5D
  8
0
 10
33.8130593227895204
 20
133.6923089371146887
 30
0.0
  0
VERTEX
  5
2D5E
  8
0
 10
45.8130593227895133
 20
133.6923089371146887
 30
0.0
  0
VERTEX
  5
2D5F
  8
0
 10
49.338059322789519
 20
133.6923089371146887
 30
0.0
  0
SEQEND
  5
2D60
  8
0
  0
POLYLINE
  5
1967
  8
0
 66
     1
 10
0.0
 20
0.0
 30
0.0
 70
     1
  0
VERTEX
  5
2D61
  8
0
 10
45.1780593227894869
 20
111.1173089371147
 30
0.0
  0
VERTEX
  5
2D62
  8
0
 10
45.1780593227894869
 20
99.1173089371146716
 30
0.0
  0
VERTEX
  5
2D63
  8
0
 10
45.1780593227895224
 20
95.5923089371147228
 30
0.0
  0
VERTEX
  5
2D64
  8
0
 10
41.6530593227894883
 20
95.5923089371147228
 30
0.0
  0
VERTEX
  5
2D65
  8
0
 10
29.6530593227895203
 20
95.5923089371147228
 30
0.0
  0
VERTEX
  5
2D66
  8
0
 10
26.1280593227894506
 20
95.5923089371147228
 30
0.0
  0
VERTEX
  5
2D67
  8
0
 10
26.1280593227894791
 20
99.1173089371147285
 30
0.0
  0
VERTEX
  5
2D68
  8
0
 10
26.128059322789511
 20
111.1173089371146006
 30
0.0
  0
VERTEX
  5
2D69
  8
0
 10
26.1280593227894791
 20
114.6423089371147057
 30
0.0
  0
VERTEX
  5
2D6A
  8
0
 10
29.6530593227894883
 20
114.6423089371147057
 30
0.0
  0
VERTEX
  5
2D6B
  8
0
 10
41.6530593227894883
 20
114.6423089371147057
 30
0.0
  0
VERTEX
  5
2D6C
  8
0
 10
45.1780593227894869
 20
114.6423089371147057
 30
0.0
  0
SEQEND
  5
2D6D
  8
0
  0
POLYLINE
  5
1968
  8
0
 66
     1
 10
0.0
 20
0.0
 30
0.0
 70
     1
  0
VERTEX
  5
2D6E
  8
0
 10
72.9580593227894951
 20
108.9773089371146995
 30
0.0
  0
VERTEX
  5
2D6F
  8
0
 10
72.9580593227894951
 20
96.9773089371147137
 30
0.0
  0
VERTEX
  5
2D70
  8
0
 10
72.9580593227895235
 20
93.4523089371147648
 30
0.0
  0
VERTEX
  5
2D71
  8
0
 10
69.4330593227894894
 20
93.4523089371147648
 30
0.0
  0
VERTEX
  5
2D72
  8
0
 10
57.4330593227895179
 20
93.4523089371147648
 30
0.0
  0
VERTEX
  5
2D73
  8
0
 10
53.9080593227894767
 20
93.4523089371147648
 30
0.0
  0
VERTEX
  5
2D74
  8
0
 10
53.9080593227894767
 20
96.9773089371147421
 30
0.0
  0
VERTEX
  5
2D75
  8
0
 10
53.9080593227895122
 20
108.9773089371146995
 30
0.0
  0
VERTEX
  5
2D76
  8
0
 10
53.9080593227894767
 20
112.5023089371147051
 30
0.0
  0
VERTEX
  5
2D77
  8
0
 10
57.4330593227894894
 20
112.5023089371147051
 30
0.0
  0
VERTEX
  5
2D78
  8
0
 10
69.4330593227894894
 20
112.5023089371147051
 30
0.0
  0
VERTEX
  5
2D79
  8
0
 10
72.9580593227894951
 20
112.5023089371147051
 30
0.0
  0
SEQEND
  5
2D7A
  8
0
  0
POLYLINE
  5
1969
  8
0
 66
     1
 10
0.0
 20
0.0
 30
0.0
 70
     1
  0
VERTEX
  5
2D7B
  8
0
 10
110.0480593227894985
 20
130.1673089371147967
 30
0.0
  0
VERTEX
  5
2D7C
  8
0
 10
110.0480593227894985
 20
118.1673089371146972
 30
0.0
  0
VERTEX
  5
2D7D
  8
0
 10
110.0480593227894985
 20
114.6423089371148052
 30
0.0
  0
VERTEX
  5
2D7E
  8
0
 10
106.5230593227895071
 20
114.6423089371148052
 30
0.0
  0
VERTEX
  5
2D7F
  8
0
 10
94.5230593227895497
 20
114.6423089371148052
 30
0.0
  0
VERTEX
  5
2D80
  8
0
 10
90.9980593227894445
 20
114.6423089371148052
 30
0.0
  0
VERTEX
  5
2D81
  8
0
 10
90.9980593227894445
 20
118.1673089371147967
 30
0.0
  0
VERTEX
  5
2D82
  8
0
 10
90.9980593227895156
 20
130.1673089371147114
 30
0.0
  0
VERTEX
  5
2D83
  8
0
 10
90.9980593227894445
 20
133.6923089371148023
 30
0.0
  0
VERTEX
  5
2D84
  8
0
 10
94.5230593227894929
 20
133.6923089371148023
 30
0.0
  0
VERTEX
  5
2D85
  8
0
 10
106.5230593227895071
 20
133.6923089371148023
 30
0.0
  0
VERTEX
  5
2D86
  8
0
 10
110.0480593227894985
 20
133.6923089371148023
 30
0.0
  0
SEQEND
  5
2D87
  8
0
  0
POLYLINE
  5
196A
  8
0
 66
     1
 10
0.0
 20
0.0
 30
0.0
 70
     1
  0
VERTEX
  5
2D88
  8
0
 10
96.7680593227894974
 20
108.9773089371146995
 30
0.0
  0
VERTEX
  5
2D89
  8
0
 10
96.7680593227894974
 20
96.9773089371147137
 30
0.0
  0
VERTEX
  5
2D8A
  8
0
 10
96.7680593227894974
 20
93.4523089371147648
 30
0.0
  0
VERTEX
  5
2D8B
  8
0
 10
93.2430593227894633
 20
93.4523089371147648
 30
0.0
  0
VERTEX
  5
2D8C
  8
0
 10
81.2430593227895201
 20
93.4523089371147648
 30
0.0
  0
VERTEX
  5
2D8D
  8
0
 10
77.7180593227894576
 20
93.4523089371147648
 30
0.0
  0
VERTEX
  5
2D8E
  8
0
 10
77.718059322789486
 20
96.9773089371147421
 30
0.0
  0
VERTEX
  5
2D8F
  8
0
 10
77.718059322789486
 20
108.9773089371146995
 30
0.0
  0
VERTEX
  5
2D90
  8
0
 10
77.718059322789486
 20
112.5023089371147051
 30
0.0
  0
VERTEX
  5
2D91
  8
0
 10
81.2430593227894633
 20
112.5023089371147051
 30
0.0
  0
VERTEX
  5
2D92
  8
0
 10
93.2430593227894633
 20
112.5023089371147051
 30
0.0
  0
VERTEX
  5
2D93
  8
0
 10
96.7680593227894974
 20
112.5023089371147051
 30
0.0
  0
SEQEND
  5
2D94
  8
0
  0
POLYLINE
  5
196B
  8
0
 66
     1
 10
0.0
 20
0.0
 30
0.0
 70
     1
  0
VERTEX
  5
2D95
  8
0
 10
97.4680593227895429
 20
89.9273089371147876
 30
0.0
  0
VERTEX
  5
2D96
  8
0
 10
97.4680593227895429
 20
77.9273089371147307
 30
0.0
  0
VERTEX
  5
2D97
  8
0
 10
97.4680593227895429
 20
74.4023089371147535
 30
0.0
  0
VERTEX
  5
2D98
  8
0
 10
93.9430593227895088
 20
74.4023089371147535
 30
0.0
  0
VERTEX
  5
2D99
  8
0
 10
81.9430593227895656
 20
74.4023089371147535
 30
0.0
  0
VERTEX
  5
2D9A
  8
0
 10
78.4180593227895031
 20
74.4023089371147535
 30
0.0
  0
VERTEX
  5
2D9B
  8
0
 10
78.4180593227895315
 20
77.9273089371147591
 30
0.0
  0
VERTEX
  5
2D9C
  8
0
 10
78.4180593227895315
 20
89.9273089371146739
 30
0.0
  0
VERTEX
  5
2D9D
  8
0
 10
78.4180593227895315
 20
93.4523089371147648
 30
0.0
  0
VERTEX
  5
2D9E
  8
0
 10
81.9430593227894946
 20
93.4523089371147648
 30
0.0
  0
VERTEX
  5
2D9F
  8
0
 10
93.9430593227895088
 20
93.4523089371147648
 30
0.0
  0
VERTEX
  5
2DA0
  8
0
 10
97.4680593227895429
 20
93.4523089371147648
 30
0.0
  0
SEQEND
  5
2DA1
  8
0
  0
POLYLINE
  5
196C
  8
0
 66
     1
 10
0.0
 20
0.0
 30
0.0
 70
     1
  0
VERTEX
  5
2DA2
  8
0
 10
66.5080593227895065
 20
89.9273089371147591
 30
0.0
  0
VERTEX
  5
2DA3
  8
0
 10
66.5080593227895065
 20
77.9273089371147023
 30
0.0
  0
VERTEX
  5
2DA4
  8
0
 10
66.5080593227895349
 20
74.4023089371147535
 30
0.0
  0
VERTEX
  5
2DA5
  8
0
 10
62.9830593227895008
 20
74.4023089371147535
 30
0.0
  0
VERTEX
  5
2DA6
  8
0
 10
50.9830593227895292
 20
74.4023089371147535
 30
0.0
  0
VERTEX
  5
2DA7
  8
0
 10
47.458059322789488
 20
74.4023089371147535
 30
0.0
  0
VERTEX
  5
2DA8
  8
0
 10
47.458059322789488
 20
77.9273089371147307
 30
0.0
  0
VERTEX
  5
2DA9
  8
0
 10
47.4580593227895235
 20
89.9273089371146739
 30
0.0
  0
VERTEX
  5
2DAA
  8
0
 10
47.458059322789488
 20
93.4523089371147648
 30
0.0
  0
VERTEX
  5
2DAB
  8
0
 10
50.9830593227895008
 20
93.4523089371147648
 30
0.0
  0
VERTEX
  5
2DAC
  8
0
 10
62.9830593227895008
 20
93.4523089371147648
 30
0.0
  0
VERTEX
  5
2DAD
  8
0
 10
66.5080593227895065
 20
93.4523089371147648
 30
0.0
  0
SEQEND
  5
2DAE
  8
0
  0
POLYLINE
  5
196D
  8
0
 66
     1
 10
0.0
 20
0.0
 30
0.0
 70
     1
  0
VERTEX
  5
2DAF
  8
0
 10
41.1080593227895008
 20
92.0673089371147739
 30
0.0
  0
VERTEX
  5
2DB0
  8
0
 10
41.1080593227895008
 20
80.0673089371147171
 30
0.0
  0
VERTEX
  5
2DB1
  8
0
 10
41.1080593227895221
 20
76.5423089371147398
 30
0.0
  0
VERTEX
  5
2DB2
  8
0
 10
37.5830593227895022
 20
76.5423089371147398
 30
0.0
  0
VERTEX
  5
2DB3
  8
0
 10
25.58305932278952
 20
76.5423089371147398
 30
0.0
  0
VERTEX
  5
2DB4
  8
0
 10
22.0580593227894894
 20
76.5423089371147398
 30
0.0
  0
VERTEX
  5
2DB5
  8
0
 10
22.0580593227894894
 20
80.0673089371147455
 30
0.0
  0
VERTEX
  5
2DB6
  8
0
 10
22.0580593227895214
 20
92.0673089371146602
 30
0.0
  0
VERTEX
  5
2DB7
  8
0
 10
22.0580593227894894
 20
95.5923089371147512
 30
0.0
  0
VERTEX
  5
2DB8
  8
0
 10
25.5830593227894987
 20
95.5923089371147512
 30
0.0
  0
VERTEX
  5
2DB9
  8
0
 10
37.5830593227895022
 20
95.5923089371147512
 30
0.0
  0
VERTEX
  5
2DBA
  8
0
 10
41.1080593227895008
 20
95.5923089371147512
 30
0.0
  0
SEQEND
  5
2DBB
  8
0
  0
POLYLINE
  5
196E
  8
0
 66
     1
 10
0.0
 20
0.0
 30
0.0
 70
     1
  0
VERTEX
  5
2DBC
  8
0
 10
71.8680593227894917
 20
70.8773089371147762
 30
0.0
  0
VERTEX
  5
2DBD
  8
0
 10
71.8680593227894917
 20
58.8773089371147194
 30
0.0
  0
VERTEX
  5
2DBE
  8
0
 10
71.8680593227894917
 20
55.3523089371147421
 30
0.0
  0
VERTEX
  5
2DBF
  8
0
 10
68.343059322789486
 20
55.3523089371147421
 30
0.0
  0
VERTEX
  5
2DC0
  8
0
 10
56.3430593227895216
 20
55.3523089371147421
 30
0.0
  0
VERTEX
  5
2DC1
  8
0
 10
52.8180593227894519
 20
55.3523089371147421
 30
0.0
  0
VERTEX
  5
2DC2
  8
0
 10
52.8180593227894803
 20
58.8773089371147691
 30
0.0
  0
VERTEX
  5
2DC3
  8
0
 10
52.8180593227894803
 20
70.8773089371146909
 30
0.0
  0
VERTEX
  5
2DC4
  8
0
 10
52.8180593227894803
 20
74.4023089371147819
 30
0.0
  0
VERTEX
  5
2DC5
  8
0
 10
56.3430593227894789
 20
74.4023089371147819
 30
0.0
  0
VERTEX
  5
2DC6
  8
0
 10
68.343059322789486
 20
74.4023089371147819
 30
0.0
  0
VERTEX
  5
2DC7
  8
0
 10
71.8680593227894917
 20
74.4023089371147819
 30
0.0
  0
SEQEND
  5
2DC8
  8
0
  0
POLYLINE
  5
196F
  8
0
 66
     1
 10
0.0
 20
0.0
 30
0.0
 70
     1
  0
VERTEX
  5
2DC9
  8
0
 10
102.8180593227894946
 20
70.8773089371147762
 30
0.0
  0
VERTEX
  5
2DCA
  8
0
 10
102.8180593227894946
 20
58.8773089371147194
 30
0.0
  0
VERTEX
  5
2DCB
  8
0
 10
102.8180593227894946
 20
55.3523089371147421
 30
0.0
  0
VERTEX
  5
2DCC
  8
0
 10
99.2930593227894747
 20
55.3523089371147421
 30
0.0
  0
VERTEX
  5
2DCD
  8
0
 10
87.2930593227895173
 20
55.3523089371147421
 30
0.0
  0
VERTEX
  5
2DCE
  8
0
 10
83.7680593227894406
 20
55.3523089371147421
 30
0.0
  0
VERTEX
  5
2DCF
  8
0
 10
83.7680593227894974
 20
58.8773089371147691
 30
0.0
  0
VERTEX
  5
2DD0
  8
0
 10
83.7680593227894974
 20
70.8773089371146909
 30
0.0
  0
VERTEX
  5
2DD1
  8
0
 10
83.7680593227894974
 20
74.4023089371147819
 30
0.0
  0
VERTEX
  5
2DD2
  8
0
 10
87.2930593227894747
 20
74.4023089371147819
 30
0.0
  0
VERTEX
  5
2DD3
  8
0
 10
99.2930593227894747
 20
74.4023089371147819
 30
0.0
  0
VERTEX
  5
2DD4
  8
0
 10
102.8180593227894946
 20
74.4023089371147819
 30
0.0
  0
SEQEND
  5
2DD5
  8
0
  0
POLYLINE
  5
1970
  8
0
 66
     1
 10
0.0
 20
0.0
 30
0.0
 70
     1
  0
VERTEX
  5
2DD6
  8
0
 10
64.7280593227895054
 20
51.8273089371147933
 30
0.0
  0
VERTEX
  5
2DD7
  8
0
 10
64.7280593227895054
 20
39.8273089371147435
 30
0.0
  0
VERTEX
  5
2DD8
  8
0
 10
64.7280593227895338
 20
36.3023089371147876
 30
0.0
  0
VERTEX
  5
2DD9
  8
0
 10
61.2030593227894997
 20
36.3023089371147876
 30
0.0
  0
VERTEX
  5
2DDA
  8
0
 10
49.2030593227895281
 20
36.3023089371147876
 30
0.0
  0
VERTEX
  5
2DDB
  8
0
 10
45.6780593227894585
 20
36.3023089371147876
 30
0.0
  0
VERTEX
  5
2DDC
  8
0
 10
45.6780593227894869
 20
39.8273089371147577
 30
0.0
  0
VERTEX
  5
2DDD
  8
0
 10
45.6780593227895224
 20
51.827308937114708
 30
0.0
  0
VERTEX
  5
2DDE
  8
0
 10
45.6780593227894869
 20
55.3523089371147989
 30
0.0
  0
VERTEX
  5
2DDF
  8
0
 10
49.2030593227894926
 20
55.3523089371147989
 30
0.0
  0
VERTEX
  5
2DE0
  8
0
 10
61.2030593227894997
 20
55.3523089371147989
 30
0.0
  0
VERTEX
  5
2DE1
  8
0
 10
64.7280593227895054
 20
55.3523089371147989
 30
0.0
  0
SEQEND
  5
2DE2
  8
0
  0
POLYLINE
  5
1972
  8
0
 66
     1
 10
0.0
 20
0.0
 30
0.0
 70
     1
  0
VERTEX
  5
2DE3
  8
0
 10
309.6380593227895019
 20
128.0273089371148103
 30
0.0
  0
VERTEX
  5
2DE4
  8
0
 10
309.6380593227895019
 20
116.0273089371146966
 30
0.0
  0
VERTEX
  5
2DE5
  8
0
 10
309.6380593227895019
 20
112.5023089371147051
 30
0.0
  0
VERTEX
  5
2DE6
  8
0
 10
306.1130593227895247
 20
112.5023089371147051
 30
0.0
  0
VERTEX
  5
2DE7
  8
0
 10
294.113059322789411
 20
112.5023089371147051
 30
0.0
  0
VERTEX
  5
2DE8
  8
0
 10
290.5880593227894906
 20
112.5023089371147051
 30
0.0
  0
VERTEX
  5
2DE9
  8
0
 10
290.5880593227894906
 20
116.0273089371147961
 30
0.0
  0
VERTEX
  5
2DEA
  8
0
 10
290.5880593227894906
 20
128.0273089371146966
 30
0.0
  0
VERTEX
  5
2DEB
  8
0
 10
290.5880593227894906
 20
131.5523089371147876
 30
0.0
  0
VERTEX
  5
2DEC
  8
0
 10
294.113059322789411
 20
131.5523089371147876
 30
0.0
  0
VERTEX
  5
2DED
  8
0
 10
306.1130593227895247
 20
131.5523089371147876
 30
0.0
  0
VERTEX
  5
2DEE
  8
0
 10
309.6380593227895019
 20
131.5523089371147876
 30
0.0
  0
SEQEND
  5
2DEF
  8
0
  0
POLYLINE
  5
1973
  8
0
 66
     1
 10
0.0
 20
0.0
 30
0.0
 70
     1
  0
VERTEX
  5
2DF0
  8
0
 10
323.3280593227894997
 20
108.9773089371146995
 30
0.0
  0
VERTEX
  5
2DF1
  8
0
 10
323.3280593227894997
 20
96.9773089371147137
 30
0.0
  0
VERTEX
  5
2DF2
  8
0
 10
323.3280593227894997
 20
93.4523089371147648
 30
0.0
  0
VERTEX
  5
2DF3
  8
0
 10
319.8030593227894087
 20
93.4523089371147648
 30
0.0
  0
VERTEX
  5
2DF4
  8
0
 10
307.8030593227895224
 20
93.4523089371147648
 30
0.0
  0
VERTEX
  5
2DF5
  8
0
 10
304.2780593227893746
 20
93.4523089371147648
 30
0.0
  0
VERTEX
  5
2DF6
  8
0
 10
304.2780593227893746
 20
96.9773089371147421
 30
0.0
  0
VERTEX
  5
2DF7
  8
0
 10
304.2780593227894883
 20
108.9773089371146995
 30
0.0
  0
VERTEX
  5
2DF8
  8
0
 10
304.2780593227893746
 20
112.5023089371147051
 30
0.0
  0
VERTEX
  5
2DF9
  8
0
 10
307.8030593227895224
 20
112.5023089371147051
 30
0.0
  0
VERTEX
  5
2DFA
  8
0
 10
319.8030593227894087
 20
112.5023089371147051
 30
0.0
  0
VERTEX
  5
2DFB
  8
0
 10
323.3280593227894997
 20
112.5023089371147051
 30
0.0
  0
SEQEND
  5
2DFC
  8
0
  0
POLYLINE
  5
1974
  8
0
 66
     1
 10
0.0
 20
0.0
 30
0.0
 70
     1
  0
VERTEX
  5
2DFD
  8
0
 10
304.278059322789602
 20
108.9773089371146995
 30
0.0
  0
VERTEX
  5
2DFE
  8
0
 10
304.278059322789602
 20
96.9773089371146852
 30
0.0
  0
VERTEX
  5
2DFF
  8
0
 10
304.278059322789602
 20
93.4523089371147364
 30
0.0
  0
VERTEX
  5
2E00
  8
0
 10
300.7530593227896247
 20
93.4523089371147364
 30
0.0
  0
VERTEX
  5
2E01
  8
0
 10
288.7530593227896247
 20
93.4523089371147364
 30
0.0
  0
VERTEX
  5
2E02
  8
0
 10
285.2280593227894769
 20
93.4523089371147364
 30
0.0
  0
VERTEX
  5
2E03
  8
0
 10
285.2280593227895906
 20
96.9773089371147421
 30
0.0
  0
VERTEX
  5
2E04
  8
0
 10
285.2280593227895906
 20
108.9773089371146995
 30
0.0
  0
VERTEX
  5
2E05
  8
0
 10
285.2280593227895906
 20
112.5023089371147051
 30
0.0
  0
VERTEX
  5
2E06
  8
0
 10
288.7530593227896247
 20
112.5023089371147051
 30
0.0
  0
VERTEX
  5
2E07
  8
0
 10
300.7530593227896247
 20
112.5023089371147051
 30
0.0
  0
VERTEX
  5
2E08
  8
0
 10
304.278059322789602
 20
112.5023089371147051
 30
0.0
  0
SEQEND
  5
2E09
  8
0
  0
POLYLINE
  5
1975
  8
0
 66
     1
 10
0.0
 20
0.0
 30
0.0
 70
     1
  0
VERTEX
  5
2E0A
  8
0
 10
291.0080593227895065
 20
130.1673089371147967
 30
0.0
  0
VERTEX
  5
2E0B
  8
0
 10
291.0080593227895065
 20
118.1673089371146972
 30
0.0
  0
VERTEX
  5
2E0C
  8
0
 10
291.0080593227896202
 20
114.6423089371148052
 30
0.0
  0
VERTEX
  5
2E0D
  8
0
 10
287.4830593227895861
 20
114.6423089371148052
 30
0.0
  0
VERTEX
  5
2E0E
  8
0
 10
275.4830593227895861
 20
114.6423089371148052
 30
0.0
  0
VERTEX
  5
2E0F
  8
0
 10
271.9580593227894951
 20
114.6423089371148052
 30
0.0
  0
VERTEX
  5
2E10
  8
0
 10
271.9580593227896088
 20
118.1673089371147967
 30
0.0
  0
VERTEX
  5
2E11
  8
0
 10
271.9580593227896088
 20
130.1673089371147114
 30
0.0
  0
VERTEX
  5
2E12
  8
0
 10
271.9580593227896088
 20
133.6923089371148023
 30
0.0
  0
VERTEX
  5
2E13
  8
0
 10
275.4830593227895861
 20
133.6923089371148023
 30
0.0
  0
VERTEX
  5
2E14
  8
0
 10
287.4830593227895861
 20
133.6923089371148023
 30
0.0
  0
VERTEX
  5
2E15
  8
0
 10
291.0080593227895065
 20
133.6923089371148023
 30
0.0
  0
SEQEND
  5
2E16
  8
0
  0
POLYLINE
  5
1976
  8
0
 66
     1
 10
0.0
 20
0.0
 30
0.0
 70
     1
  0
VERTEX
  5
2E17
  8
0
 10
285.6480593227893792
 20
110.0373089371147017
 30
0.0
  0
VERTEX
  5
2E18
  8
0
 10
285.6480593227893792
 20
98.0373089371146875
 30
0.0
  0
VERTEX
  5
2E19
  8
0
 10
285.6480593227893792
 20
94.5123089371147103
 30
0.0
  0
VERTEX
  5
2E1A
  8
0
 10
282.1230593227894019
 20
94.5123089371147103
 30
0.0
  0
VERTEX
  5
2E1B
  8
0
 10
270.1230593227895156
 20
94.5123089371147103
 30
0.0
  0
VERTEX
  5
2E1C
  8
0
 10
266.5980593227894246
 20
94.5123089371147103
 30
0.0
  0
VERTEX
  5
2E1D
  8
0
 10
266.5980593227894246
 20
98.0373089371147444
 30
0.0
  0
VERTEX
  5
2E1E
  8
0
 10
266.5980593227894246
 20
110.0373089371146023
 30
0.0
  0
VERTEX
  5
2E1F
  8
0
 10
266.5980593227894246
 20
113.5623089371146932
 30
0.0
  0
VERTEX
  5
2E20
  8
0
 10
270.1230593227894019
 20
113.5623089371146932
 30
0.0
  0
VERTEX
  5
2E21
  8
0
 10
282.1230593227894019
 20
113.5623089371146932
 30
0.0
  0
VERTEX
  5
2E22
  8
0
 10
285.6480593227893792
 20
113.5623089371146932
 30
0.0
  0
SEQEND
  5
2E23
  8
0
  0
POLYLINE
  5
1977
  8
0
 66
     1
 10
0.0
 20
0.0
 30
0.0
 70
     1
  0
VERTEX
  5
2E24
  8
0
 10
294.2680593227894974
 20
89.9273089371147876
 30
0.0
  0
VERTEX
  5
2E25
  8
0
 10
294.2680593227894974
 20
77.9273089371147307
 30
0.0
  0
VERTEX
  5
2E26
  8
0
 10
294.2680593227896111
 20
74.4023089371147535
 30
0.0
  0
VERTEX
  5
2E27
  8
0
 10
290.743059322789577
 20
74.4023089371147535
 30
0.0
  0
VERTEX
  5
2E28
  8
0
 10
278.743059322789577
 20
74.4023089371147535
 30
0.0
  0
VERTEX
  5
2E29
  8
0
 10
275.218059322789486
 20
74.4023089371147535
 30
0.0
  0
VERTEX
  5
2E2A
  8
0
 10
275.2180593227895997
 20
77.9273089371147591
 30
0.0
  0
VERTEX
  5
2E2B
  8
0
 10
275.2180593227895997
 20
89.9273089371146739
 30
0.0
  0
VERTEX
  5
2E2C
  8
0
 10
275.2180593227895997
 20
93.4523089371147648
 30
0.0
  0
VERTEX
  5
2E2D
  8
0
 10
278.743059322789577
 20
93.4523089371147648
 30
0.0
  0
VERTEX
  5
2E2E
  8
0
 10
290.743059322789577
 20
93.4523089371147648
 30
0.0
  0
VERTEX
  5
2E2F
  8
0
 10
294.2680593227894974
 20
93.4523089371147648
 30
0.0
  0
SEQEND
  5
2E30
  8
0
  0
POLYLINE
  5
1978
  8
0
 66
     1
 10
0.0
 20
0.0
 30
0.0
 70
     1
  0
VERTEX
  5
2E31
  8
0
 10
313.3180593227895088
 20
89.9273089371147876
 30
0.0
  0
VERTEX
  5
2E32
  8
0
 10
313.3180593227895088
 20
77.9273089371147307
 30
0.0
  0
VERTEX
  5
2E33
  8
0
 10
313.3180593227895088
 20
74.4023089371147535
 30
0.0
  0
VERTEX
  5
2E34
  8
0
 10
309.7930593227894747
 20
74.4023089371147535
 30
0.0
  0
VERTEX
  5
2E35
  8
0
 10
297.7930593227894747
 20
74.4023089371147535
 30
0.0
  0
VERTEX
  5
2E36
  8
0
 10
294.2680593227893837
 20
74.4023089371147535
 30
0.0
  0
VERTEX
  5
2E37
  8
0
 10
294.2680593227893837
 20
77.9273089371147591
 30
0.0
  0
VERTEX
  5
2E38
  8
0
 10
294.2680593227894974
 20
89.9273089371146739
 30
0.0
  0
VERTEX
  5
2E39
  8
0
 10
294.2680593227893837
 20
93.4523089371147648
 30
0.0
  0
VERTEX
  5
2E3A
  8
0
 10
297.7930593227894747
 20
93.4523089371147648
 30
0.0
  0
VERTEX
  5
2E3B
  8
0
 10
309.7930593227894747
 20
93.4523089371147648
 30
0.0
  0
VERTEX
  5
2E3C
  8
0
 10
313.3180593227895088
 20
93.4523089371147648
 30
0.0
  0
SEQEND
  5
2E3D
  8
0
  0
POLYLINE
  5
197A
  8
0
 66
     1
 10
0.0
 20
0.0
 30
0.0
 70
     1
  0
VERTEX
  5
2E3E
  8
0
 10
307.9580593227894951
 20
70.8773089371148046
 30
0.0
  0
VERTEX
  5
2E3F
  8
0
 10
307.9580593227894951
 20
58.8773089371147407
 30
0.0
  0
VERTEX
  5
2E40
  8
0
 10
307.9580593227894951
 20
55.3523089371147989
 30
0.0
  0
VERTEX
  5
2E41
  8
0
 10
304.4330593227895179
 20
55.3523089371147989
 30
0.0
  0
VERTEX
  5
2E42
  8
0
 10
292.4330593227895179
 20
55.3523089371147989
 30
0.0
  0
VERTEX
  5
2E43
  8
0
 10
288.9080593227894269
 20
55.3523089371147989
 30
0.0
  0
VERTEX
  5
2E44
  8
0
 10
288.9080593227894269
 20
58.8773089371147691
 30
0.0
  0
VERTEX
  5
2E45
  8
0
 10
288.9080593227894838
 20
70.8773089371147194
 30
0.0
  0
VERTEX
  5
2E46
  8
0
 10
288.9080593227894269
 20
74.4023089371148103
 30
0.0
  0
VERTEX
  5
2E47
  8
0
 10
292.4330593227895179
 20
74.4023089371148103
 30
0.0
  0
VERTEX
  5
2E48
  8
0
 10
304.4330593227895179
 20
74.4023089371148103
 30
0.0
  0
VERTEX
  5
2E49
  8
0
 10
307.9580593227894951
 20
74.4023089371148103
 30
0.0
  0
SEQEND
  5
2E4A
  8
0
  0
POLYLINE
  5
197B
  8
0
 66
     1
 10
0.0
 20
0.0
 30
0.0
 70
     1
  0
VERTEX
  5
2E4B
  8
0
 10
288.9080593227894269
 20
70.8773089371147762
 30
0.0
  0
VERTEX
  5
2E4C
  8
0
 10
288.9080593227894269
 20
58.8773089371147194
 30
0.0
  0
VERTEX
  5
2E4D
  8
0
 10
288.9080593227894838
 20
55.3523089371147705
 30
0.0
  0
VERTEX
  5
2E4E
  8
0
 10
285.3830593227895065
 20
55.3523089371147705
 30
0.0
  0
VERTEX
  5
2E4F
  8
0
 10
273.3830593227895065
 20
55.3523089371147705
 30
0.0
  0
VERTEX
  5
2E50
  8
0
 10
269.8580593227894155
 20
55.3523089371147705
 30
0.0
  0
VERTEX
  5
2E51
  8
0
 10
269.8580593227894724
 20
58.8773089371147691
 30
0.0
  0
VERTEX
  5
2E52
  8
0
 10
269.8580593227894724
 20
70.8773089371147194
 30
0.0
  0
VERTEX
  5
2E53
  8
0
 10
269.8580593227894724
 20
74.4023089371148103
 30
0.0
  0
VERTEX
  5
2E54
  8
0
 10
273.3830593227895065
 20
74.4023089371148103
 30
0.0
  0
VERTEX
  5
2E55
  8
0
 10
285.3830593227895065
 20
74.4023089371148103
 30
0.0
  0
VERTEX
  5
2E56
  8
0
 10
288.9080593227894269
 20
74.4023089371148103
 30
0.0
  0
SEQEND
  5
2E57
  8
0
  0
POLYLINE
  5
197C
  8
0
 66
     1
 10
0.0
 20
0.0
 30
0.0
 70
     1
  0
VERTEX
  5
2E58
  8
0
 10
351.9036593227895082
 20
51.7793089371147914
 30
0.0
  0
VERTEX
  5
2E59
  8
0
 10
351.9036593227895082
 20
39.7793089371147275
 30
0.0
  0
VERTEX
  5
2E5A
  8
0
 10
351.9036593227896219
 20
36.2543089371147929
 30
0.0
  0
VERTEX
  5
2E5B
  8
0
 10
348.3786593227894741
 20
36.2543089371147929
 30
0.0
  0
VERTEX
  5
2E5C
  8
0
 10
336.3786593227894741
 20
36.2543089371147929
 30
0.0
  0
VERTEX
  5
2E5D
  8
0
 10
332.8536593227894969
 20
36.2543089371147929
 30
0.0
  0
VERTEX
  5
2E5E
  8
0
 10
332.8536593227894969
 20
39.7793089371147701
 30
0.0
  0
VERTEX
  5
2E5F
  8
0
 10
332.8536593227894969
 20
51.7793089371146991
 30
0.0
  0
VERTEX
  5
2E60
  8
0
 10
332.8536593227894969
 20
55.30430893711479
 30
0.0
  0
VERTEX
  5
2E61
  8
0
 10
336.3786593227894741
 20
55.30430893711479
 30
0.0
  0
VERTEX
  5
2E62
  8
0
 10
348.3786593227894741
 20
55.30430893711479
 30
0.0
  0
VERTEX
  5
2E63
  8
0
 10
351.9036593227895082
 20
55.30430893711479
 30
0.0
  0
SEQEND
  5
2E64
  8
0
  0
POLYLINE
  5
198B
  8
0
 66
     1
 10
0.0
 20
0.0
 30
0.0
 70
     1
  0
VERTEX
  5
2E72
  8
0
 10
119.5473853646854963
 20
47.2158356864784423
 30
0.0
  0
VERTEX
  5
2E73
  8
0
 10
117.052445074872395
 20
35.4780644776727172
 30
0.0
  0
VERTEX
  5
2E74
  8
0
 10
116.3195563647397961
 20
32.0300941850860923
 30
0.0
  0
VERTEX
  5
2E75
  8
0
 10
112.871586072153093
 20
32.7629828952186983
 30
0.0
  0
VERTEX
  5
2E76
  8
0
 10
101.1338148633474958
 20
35.2579231850318209
 30
0.0
  0
VERTEX
  5
2E77
  8
0
 10
97.6858445707607643
 20
35.9908118951644269
 30
0.0
  0
VERTEX
  5
2E78
  8
0
 10
98.4187332808934343
 20
39.4387821877510873
 30
0.0
  0
VERTEX
  5
2E79
  8
0
 10
100.9136735707064929
 20
51.1765533965566917
 30
0.0
  0
VERTEX
  5
2E7A
  8
0
 10
101.6465622808391061
 20
54.6245236891434516
 30
0.0
  0
VERTEX
  5
2E7B
  8
0
 10
105.0945325734257949
 20
53.8916349790108313
 30
0.0
  0
VERTEX
  5
2E7C
  8
0
 10
116.8323037822315058
 20
51.3966946891977088
 30
0.0
  0
VERTEX
  5
2E7D
  8
0
 10
120.2802740748180952
 20
50.6638059790651027
 30
0.0
  0
SEQEND
  5
2E7E
  8
0
  0
POLYLINE
  5
198C
  8
0
 66
     1
 10
0.0
 20
0.0
 30
0.0
 70
     1
  0
VERTEX
  5
2E7F
  8
0
 10
124.3573853646854985
 20
67.2058356864784514
 30
0.0
  0
VERTEX
  5
2E80
  8
0
 10
121.8624450748723973
 20
55.4680644776727334
 30
0.0
  0
VERTEX
  5
2E81
  8
0
 10
121.1295563647397984
 20
52.0200941850861227
 30
0.0
  0
VERTEX
  5
2E82
  8
0
 10
117.6815860721530953
 20
52.752982895218743
 30
0.0
  0
VERTEX
  5
2E83
  8
0
 10
105.9438148633474981
 20
55.2479231850318229
 30
0.0
  0
VERTEX
  5
2E84
  8
0
 10
102.495844570760795
 20
55.9808118951644289
 30
0.0
  0
VERTEX
  5
2E85
  8
0
 10
103.228733280893394
 20
59.4287821877511035
 30
0.0
  0
VERTEX
  5
2E86
  8
0
 10
105.7236735707064952
 20
71.1665533965567079
 30
0.0
  0
VERTEX
  5
2E87
  8
0
 10
106.4565622808390941
 20
74.614523689143482
 30
0.0
  0
VERTEX
  5
2E88
  8
0
 10
109.9045325734257972
 20
73.8816349790108688
 30
0.0
  0
VERTEX
  5
2E89
  8
0
 10
121.6423037822314939
 20
71.386694689197725
 30
0.0
  0
VERTEX
  5
2E8A
  8
0
 10
125.0902740748180975
 20
70.6538059790651403
 30
0.0
  0
SEQEND
  5
2E8B
  8
0
  0
POLYLINE
  5
198D
  8
0
 66
     1
 10
0.0
 20
0.0
 30
0.0
 70
     1
  0
VERTEX
  5
2E8C
  8
0
 10
142.9910971586645019
 20
63.2451179764001665
 30
0.0
  0
VERTEX
  5
2E8D
  8
0
 10
140.4961568688513012
 20
51.5073467675944414
 30
0.0
  0
VERTEX
  5
2E8E
  8
0
 10
139.7632681587188017
 20
48.0593764750078094
 30
0.0
  0
VERTEX
  5
2E8F
  8
0
 10
136.3152978661321129
 20
48.7922651851404225
 30
0.0
  0
VERTEX
  5
2E90
  8
0
 10
124.577526657326402
 20
51.287205474953538
 30
0.0
  0
VERTEX
  5
2E91
  8
0
 10
121.1295563647396989
 20
52.0200941850861511
 30
0.0
  0
VERTEX
  5
2E92
  8
0
 10
121.8624450748723973
 20
55.4680644776728116
 30
0.0
  0
VERTEX
  5
2E93
  8
0
 10
124.3573853646854985
 20
67.2058356864783946
 30
0.0
  0
VERTEX
  5
2E94
  8
0
 10
125.0902740748180975
 20
70.6538059790651687
 30
0.0
  0
VERTEX
  5
2E95
  8
0
 10
128.5382443674047863
 20
69.9209172689325555
 30
0.0
  0
VERTEX
  5
2E96
  8
0
 10
140.2760155762105114
 20
67.4259769791194401
 30
0.0
  0
VERTEX
  5
2E97
  8
0
 10
143.7239858687970866
 20
66.6930882689868554
 30
0.0
  0
SEQEND
  5
2E98
  8
0
  0
POLYLINE
  5
198E
  8
0
 66
     1
 10
0.0
 20
0.0
 30
0.0
 70
     1
  0
VERTEX
  5
2E99
  8
0
 10
161.624808952643491
 20
59.2844002663218177
 30
0.0
  0
VERTEX
  5
2E9A
  8
0
 10
159.129868662830404
 20
47.5466290575160997
 30
0.0
  0
VERTEX
  5
2E9B
  8
0
 10
158.3969799526977908
 20
44.0986587649295032
 30
0.0
  0
VERTEX
  5
2E9C
  8
0
 10
154.949009660111102
 20
44.8315474750621092
 30
0.0
  0
VERTEX
  5
2E9D
  8
0
 10
143.2112384513054053
 20
47.3264877648751892
 30
0.0
  0
VERTEX
  5
2E9E
  8
0
 10
139.7632681587188017
 20
48.0593764750078094
 30
0.0
  0
VERTEX
  5
2E9F
  8
0
 10
140.4961568688513012
 20
51.5073467675944698
 30
0.0
  0
VERTEX
  5
2EA0
  8
0
 10
142.9910971586645019
 20
63.2451179764000813
 30
0.0
  0
VERTEX
  5
2EA1
  8
0
 10
143.7239858687970866
 20
66.6930882689868554
 30
0.0
  0
VERTEX
  5
2EA2
  8
0
 10
147.1719561613838039
 20
65.9601995588542422
 30
0.0
  0
VERTEX
  5
2EA3
  8
0
 10
158.9097273701893869
 20
63.4652592690410984
 30
0.0
  0
VERTEX
  5
2EA4
  8
0
 10
162.3576976627761042
 20
62.7323705589085066
 30
0.0
  0
SEQEND
  5
2EA5
  8
0
  0
POLYLINE
  5
198F
  8
0
 66
     1
 10
0.0
 20
0.0
 30
0.0
 70
     1
  0
VERTEX
  5
2EA6
  8
0
 10
180.2585207466225086
 20
55.3236825562435399
 30
0.0
  0
VERTEX
  5
2EA7
  8
0
 10
177.7635804568093931
 20
43.5859113474378219
 30
0.0
  0
VERTEX
  5
2EA8
  8
0
 10
177.0306917466768084
 20
40.1379410548511828
 30
0.0
  0
VERTEX
  5
2EA9
  8
0
 10
173.5827214540900911
 20
40.8708297649837888
 30
0.0
  0
VERTEX
  5
2EAA
  8
0
 10
161.8449502452845081
 20
43.3657700547969114
 30
0.0
  0
VERTEX
  5
2EAB
  8
0
 10
158.3969799526977908
 20
44.0986587649295174
 30
0.0
  0
VERTEX
  5
2EAC
  8
0
 10
159.129868662830404
 20
47.5466290575161779
 30
0.0
  0
VERTEX
  5
2EAD
  8
0
 10
161.624808952643491
 20
59.284400266321768
 30
0.0
  0
VERTEX
  5
2EAE
  8
0
 10
162.3576976627761042
 20
62.7323705589085421
 30
0.0
  0
VERTEX
  5
2EAF
  8
0
 10
165.805667955362793
 20
61.9994818487759289
 30
0.0
  0
VERTEX
  5
2EB0
  8
0
 10
177.5434391641684897
 20
59.5045415589628135
 30
0.0
  0
VERTEX
  5
2EB1
  8
0
 10
180.9914094567550933
 20
58.7716528488302288
 30
0.0
  0
SEQEND
  5
2EB2
  8
0
  0
POLYLINE
  5
1990
  8
0
 66
     1
 10
0.0
 20
0.0
 30
0.0
 70
     1
  0
VERTEX
  5
2EB3
  8
0
 10
174.9085207466224858
 20
75.933682556243582
 30
0.0
  0
VERTEX
  5
2EB4
  8
0
 10
172.4135804568093988
 20
64.1959113474378569
 30
0.0
  0
VERTEX
  5
2EB5
  8
0
 10
171.6806917466768141
 20
60.7479410548511893
 30
0.0
  0
VERTEX
  5
2EB6
  8
0
 10
168.2327214540900968
 20
61.4808297649838096
 30
0.0
  0
VERTEX
  5
2EB7
  8
0
 10
156.4949502452845138
 20
63.9757700547969534
 30
0.0
  0
VERTEX
  5
2EB8
  8
0
 10
153.0469799526977965
 20
64.7086587649295666
 30
0.0
  0
VERTEX
  5
2EB9
  8
0
 10
153.779868662830296
 20
68.156629057516227
 30
0.0
  0
VERTEX
  5
2EBA
  8
0
 10
156.2748089526434967
 20
79.89440026632181
 30
0.0
  0
VERTEX
  5
2EBB
  8
0
 10
157.0076976627761098
 20
83.3423705589085557
 30
0.0
  0
VERTEX
  5
2EBC
  8
0
 10
160.4556679553627987
 20
82.6094818487759426
 30
0.0
  0
VERTEX
  5
2EBD
  8
0
 10
172.1934391641684101
 20
80.1145415589628556
 30
0.0
  0
VERTEX
  5
2EBE
  8
0
 10
175.641409456755099
 20
79.3816528488302424
 30
0.0
  0
SEQEND
  5
2EBF
  8
0
  0
POLYLINE
  5
1991
  8
0
 66
     1
 10
0.0
 20
0.0
 30
0.0
 70
     1
  0
VERTEX
  5
2EC0
  8
0
 10
156.2748089526434967
 20
79.8944002663218384
 30
0.0
  0
VERTEX
  5
2EC1
  8
0
 10
153.779868662830296
 20
68.1566290575161133
 30
0.0
  0
VERTEX
  5
2EC2
  8
0
 10
153.0469799526977965
 20
64.7086587649294813
 30
0.0
  0
VERTEX
  5
2EC3
  8
0
 10
149.5990096601111077
 20
65.4415474750620945
 30
0.0
  0
VERTEX
  5
2EC4
  8
0
 10
137.861238451305411
 20
67.9364877648752099
 30
0.0
  0
VERTEX
  5
2EC5
  8
0
 10
134.4132681587188074
 20
68.669376475007823
 30
0.0
  0
VERTEX
  5
2EC6
  8
0
 10
135.1461568688513069
 20
72.1173467675944835
 30
0.0
  0
VERTEX
  5
2EC7
  8
0
 10
137.6410971586645076
 20
83.8551179764000949
 30
0.0
  0
VERTEX
  5
2EC8
  8
0
 10
138.3739858687970923
 20
87.3030882689868264
 30
0.0
  0
VERTEX
  5
2EC9
  8
0
 10
141.8219561613838096
 20
86.5701995588542133
 30
0.0
  0
VERTEX
  5
2ECA
  8
0
 10
153.5597273701893926
 20
84.0752592690411262
 30
0.0
  0
VERTEX
  5
2ECB
  8
0
 10
157.0076976627761098
 20
83.3423705589084989
 30
0.0
  0
SEQEND
  5
2ECC
  8
0
  0
POLYLINE
  5
1992
  8
0
 66
     1
 10
0.0
 20
0.0
 30
0.0
 70
     1
  0
VERTEX
  5
2ECD
  8
0
 10
137.6410971586645076
 20
83.8551179764001517
 30
0.0
  0
VERTEX
  5
2ECE
  8
0
 10
135.1461568688513921
 20
72.1173467675944266
 30
0.0
  0
VERTEX
  5
2ECF
  8
0
 10
134.4132681587188074
 20
68.6693764750077946
 30
0.0
  0
VERTEX
  5
2ED0
  8
0
 10
130.9652978661320901
 20
69.4022651851404078
 30
0.0
  0
VERTEX
  5
2ED1
  8
0
 10
119.2275266573264929
 20
71.8972054749535232
 30
0.0
  0
VERTEX
  5
2ED2
  8
0
 10
115.7795563647398041
 20
72.6300941850861363
 30
0.0
  0
VERTEX
  5
2ED3
  8
0
 10
116.512445074872403
 20
76.0780644776727968
 30
0.0
  0
VERTEX
  5
2ED4
  8
0
 10
119.0073853646855042
 20
87.8158356864784082
 30
0.0
  0
VERTEX
  5
2ED5
  8
0
 10
119.7402740748181031
 20
91.2638059790651539
 30
0.0
  0
VERTEX
  5
2ED6
  8
0
 10
123.1882443674048062
 20
90.530917268932555
 30
0.0
  0
VERTEX
  5
2ED7
  8
0
 10
134.9260155762104887
 20
88.0359769791194253
 30
0.0
  0
VERTEX
  5
2ED8
  8
0
 10
138.3739858687970923
 20
87.3030882689868122
 30
0.0
  0
SEQEND
  5
2ED9
  8
0
  0
POLYLINE
  5
1993
  8
0
 66
     1
 10
0.0
 20
0.0
 30
0.0
 70
     1
  0
VERTEX
  5
2EDA
  8
0
 10
119.0073853646855042
 20
87.815835686478465
 30
0.0
  0
VERTEX
  5
2EDB
  8
0
 10
116.512445074872403
 20
76.0780644776727257
 30
0.0
  0
VERTEX
  5
2EDC
  8
0
 10
115.7795563647398041
 20
72.6300941850860795
 30
0.0
  0
VERTEX
  5
2EDD
  8
0
 10
112.3315860721532005
 20
73.3629828952186926
 30
0.0
  0
VERTEX
  5
2EDE
  8
0
 10
100.5938148633475038
 20
75.8579231850318365
 30
0.0
  0
VERTEX
  5
2EDF
  8
0
 10
97.1458445707608007
 20
76.5908118951644497
 30
0.0
  0
VERTEX
  5
2EE0
  8
0
 10
97.8787332808934707
 20
80.0387821877511243
 30
0.0
  0
VERTEX
  5
2EE1
  8
0
 10
100.3736735707066003
 20
91.7765533965566931
 30
0.0
  0
VERTEX
  5
2EE2
  8
0
 10
101.1065622808390998
 20
95.2245236891434246
 30
0.0
  0
VERTEX
  5
2EE3
  8
0
 10
104.5545325734258029
 20
94.4916349790108256
 30
0.0
  0
VERTEX
  5
2EE4
  8
0
 10
116.2923037822314996
 20
91.9966946891977386
 30
0.0
  0
VERTEX
  5
2EE5
  8
0
 10
119.7402740748181031
 20
91.2638059790651255
 30
0.0
  0
SEQEND
  5
2EE6
  8
0
  0
POLYLINE
  5
1994
  8
0
 66
     1
 10
0.0
 20
0.0
 30
0.0
 70
     1
  0
VERTEX
  5
2EE7
  8
0
 10
118.3073853646855014
 20
107.4458356864784037
 30
0.0
  0
VERTEX
  5
2EE8
  8
0
 10
115.8124450748724001
 20
95.7080644776727354
 30
0.0
  0
VERTEX
  5
2EE9
  8
0
 10
115.0795563647398012
 20
92.260094185086075
 30
0.0
  0
VERTEX
  5
2EEA
  8
0
 10
111.6315860721530981
 20
92.9929828952186881
 30
0.0
  0
VERTEX
  5
2EEB
  8
0
 10
99.8938148633474867
 20
95.487923185031832
 30
0.0
  0
VERTEX
  5
2EEC
  8
0
 10
96.4458445707608121
 20
96.2208118951644451
 30
0.0
  0
VERTEX
  5
2EED
  8
0
 10
97.1787332808934252
 20
99.6687821877511055
 30
0.0
  0
VERTEX
  5
2EEE
  8
0
 10
99.6736735707065549
 20
111.4065533965567028
 30
0.0
  0
VERTEX
  5
2EEF
  8
0
 10
100.406562280839097
 20
114.8545236891434058
 30
0.0
  0
VERTEX
  5
2EF0
  8
0
 10
103.8545325734258
 20
114.1216349790108069
 30
0.0
  0
VERTEX
  5
2EF1
  8
0
 10
115.5923037822314967
 20
111.6266946891977057
 30
0.0
  0
VERTEX
  5
2EF2
  8
0
 10
119.0402740748181003
 20
110.8938059790651067
 30
0.0
  0
SEQEND
  5
2EF3
  8
0
  0
POLYLINE
  5
1995
  8
0
 66
     1
 10
0.0
 20
0.0
 30
0.0
 70
     1
  0
VERTEX
  5
2EF4
  8
0
 10
136.9410971586644905
 20
103.4851179764001046
 30
0.0
  0
VERTEX
  5
2EF5
  8
0
 10
134.4461568688514035
 20
91.7473467675944221
 30
0.0
  0
VERTEX
  5
2EF6
  8
0
 10
133.7132681587187903
 20
88.2993764750078185
 30
0.0
  0
VERTEX
  5
2EF7
  8
0
 10
130.2652978661321868
 20
89.0322651851404459
 30
0.0
  0
VERTEX
  5
2EF8
  8
0
 10
118.5275266573265043
 20
91.5272054749535187
 30
0.0
  0
VERTEX
  5
2EF9
  8
0
 10
115.0795563647398012
 20
92.2600941850861318
 30
0.0
  0
VERTEX
  5
2EFA
  8
0
 10
115.8124450748724001
 20
95.7080644776728064
 30
0.0
  0
VERTEX
  5
2EFB
  8
0
 10
118.3073853646855014
 20
107.4458356864784037
 30
0.0
  0
VERTEX
  5
2EFC
  8
0
 10
119.0402740748181003
 20
110.8938059790651067
 30
0.0
  0
VERTEX
  5
2EFD
  8
0
 10
122.4882443674048034
 20
110.1609172689324936
 30
0.0
  0
VERTEX
  5
2EFE
  8
0
 10
134.2260155762105001
 20
107.6659769791194066
 30
0.0
  0
VERTEX
  5
2EFF
  8
0
 10
137.6739858687971036
 20
106.9330882689867934
 30
0.0
  0
SEQEND
  5
2F00
  8
0
  0
POLYLINE
  5
1996
  8
0
 66
     1
 10
0.0
 20
0.0
 30
0.0
 70
     1
  0
VERTEX
  5
2F01
  8
0
 10
155.5748089526435081
 20
99.5244002663218339
 30
0.0
  0
VERTEX
  5
2F02
  8
0
 10
153.0798686628303074
 20
87.7866290575161088
 30
0.0
  0
VERTEX
  5
2F03
  8
0
 10
152.3469799526978079
 20
84.3386587649294768
 30
0.0
  0
VERTEX
  5
2F04
  8
0
 10
148.8990096601110906
 20
85.0715474750620899
 30
0.0
  0
VERTEX
  5
2F05
  8
0
 10
137.1612384513053939
 20
87.5664877648752054
 30
0.0
  0
VERTEX
  5
2F06
  8
0
 10
133.7132681587187051
 20
88.2993764750078185
 30
0.0
  0
VERTEX
  5
2F07
  8
0
 10
134.4461568688514035
 20
91.7473467675944647
 30
0.0
  0
VERTEX
  5
2F08
  8
0
 10
136.9410971586644905
 20
103.4851179764001046
 30
0.0
  0
VERTEX
  5
2F09
  8
0
 10
137.6739858687971036
 20
106.9330882689867934
 30
0.0
  0
VERTEX
  5
2F0A
  8
0
 10
141.1219561613837072
 20
106.2001995588541945
 30
0.0
  0
VERTEX
  5
2F0B
  8
0
 10
152.8597273701894892
 20
103.7052592690410933
 30
0.0
  0
VERTEX
  5
2F0C
  8
0
 10
156.3076976627760928
 20
102.9723705589084943
 30
0.0
  0
SEQEND
  5
2F0D
  8
0
  0
POLYLINE
  5
1997
  8
0
 66
     1
 10
0.0
 20
0.0
 30
0.0
 70
     1
  0
VERTEX
  5
2F0E
  8
0
 10
174.2085207466224972
 20
95.5636825562435348
 30
0.0
  0
VERTEX
  5
2F0F
  8
0
 10
171.7135804568092965
 20
83.8259113474378239
 30
0.0
  0
VERTEX
  5
2F10
  8
0
 10
170.980691746676797
 20
80.3779410548511919
 30
0.0
  0
VERTEX
  5
2F11
  8
0
 10
167.5327214540901082
 20
81.110829764983805
 30
0.0
  0
VERTEX
  5
2F12
  8
0
 10
155.7949502452844115
 20
83.6057700547969205
 30
0.0
  0
VERTEX
  5
2F13
  8
0
 10
152.3469799526978079
 20
84.3386587649295336
 30
0.0
  0
VERTEX
  5
2F14
  8
0
 10
153.0798686628303926
 20
87.7866290575161941
 30
0.0
  0
VERTEX
  5
2F15
  8
0
 10
155.5748089526435081
 20
99.5244002663217771
 30
0.0
  0
VERTEX
  5
2F16
  8
0
 10
156.3076976627760928
 20
102.9723705589084943
 30
0.0
  0
VERTEX
  5
2F17
  8
0
 10
159.7556679553628101
 20
102.2394818487758954
 30
0.0
  0
VERTEX
  5
2F18
  8
0
 10
171.4934391641683931
 20
99.7445415589628226
 30
0.0
  0
VERTEX
  5
2F19
  8
0
 10
174.9414094567551103
 20
99.0116528488302379
 30
0.0
  0
SEQEND
  5
2F1A
  8
0
  0
POLYLINE
  5
1998
  8
0
 66
     1
 10
0.0
 20
0.0
 30
0.0
 70
     1
  0
VERTEX
  5
2F1B
  8
0
 10
131.5873853646855025
 20
124.0958356864783951
 30
0.0
  0
VERTEX
  5
2F1C
  8
0
 10
129.0924450748723871
 20
112.3580644776726984
 30
0.0
  0
VERTEX
  5
2F1D
  8
0
 10
128.3595563647398023
 20
108.9100941850860949
 30
0.0
  0
VERTEX
  5
2F1E
  8
0
 10
124.9115860721531988
 20
109.6429828952186938
 30
0.0
  0
VERTEX
  5
2F1F
  8
0
 10
113.1738148633475021
 20
112.137923185031795
 30
0.0
  0
VERTEX
  5
2F20
  8
0
 10
109.725844570760799
 20
112.8708118951643939
 30
0.0
  0
VERTEX
  5
2F21
  8
0
 10
110.4587332808933979
 20
116.318782187751097
 30
0.0
  0
VERTEX
  5
2F22
  8
0
 10
112.9536735707064992
 20
128.0565533965566942
 30
0.0
  0
VERTEX
  5
2F23
  8
0
 10
113.6865622808390981
 20
131.5045236891434115
 30
0.0
  0
VERTEX
  5
2F24
  8
0
 10
117.1345325734258012
 20
130.7716349790107984
 30
0.0
  0
VERTEX
  5
2F25
  8
0
 10
128.8723037822315121
 20
128.2766946891977113
 30
0.0
  0
VERTEX
  5
2F26
  8
0
 10
132.3202740748180872
 20
127.5438059790650982
 30
0.0
  0
SEQEND
  5
2F27
  8
0
  0
POLYLINE
  5
1999
  8
0
 66
     1
 10
0.0
 20
0.0
 30
0.0
 70
     1
  0
VERTEX
  5
2F28
  8
0
 10
150.2210971586644916
 20
120.135117976400096
 30
0.0
  0
VERTEX
  5
2F29
  8
0
 10
147.7261568688512909
 20
108.3973467675943994
 30
0.0
  0
VERTEX
  5
2F2A
  8
0
 10
146.9932681587187915
 20
104.9493764750077958
 30
0.0
  0
VERTEX
  5
2F2B
  8
0
 10
143.5452978661321026
 20
105.6822651851403947
 30
0.0
  0
VERTEX
  5
2F2C
  8
0
 10
131.8075266573264912
 20
108.1772054749534959
 30
0.0
  0
VERTEX
  5
2F2D
  8
0
 10
128.3595563647396887
 20
108.9100941850860949
 30
0.0
  0
VERTEX
  5
2F2E
  8
0
 10
129.0924450748723871
 20
112.3580644776727979
 30
0.0
  0
VERTEX
  5
2F2F
  8
0
 10
131.5873853646855878
 20
124.0958356864783951
 30
0.0
  0
VERTEX
  5
2F30
  8
0
 10
132.3202740748180872
 20
127.5438059790650982
 30
0.0
  0
VERTEX
  5
2F31
  8
0
 10
135.7682443674048045
 20
126.8109172689324993
 30
0.0
  0
VERTEX
  5
2F32
  8
0
 10
147.5060155762105012
 20
124.315976979119398
 30
0.0
  0
VERTEX
  5
2F33
  8
0
 10
150.9539858687971048
 20
123.5830882689867991
 30
0.0
  0
SEQEND
  5
2F34
  8
0
  0
POLYLINE
  5
199A
  8
0
 66
     1
 10
0.0
 20
0.0
 30
0.0
 70
     1
  0
VERTEX
  5
2F35
  8
0
 10
168.8548089526435092
 20
116.1744002663217969
 30
0.0
  0
VERTEX
  5
2F36
  8
0
 10
166.3598686628303938
 20
104.4366290575161003
 30
0.0
  0
VERTEX
  5
2F37
  8
0
 10
165.626979952697809
 20
100.9886587649294967
 30
0.0
  0
VERTEX
  5
2F38
  8
0
 10
162.1790096601110918
 20
101.7215474750620956
 30
0.0
  0
VERTEX
  5
2F39
  8
0
 10
150.4412384513055088
 20
104.2164877648751968
 30
0.0
  0
VERTEX
  5
2F3A
  8
0
 10
146.9932681587187915
 20
104.9493764750077958
 30
0.0
  0
VERTEX
  5
2F3B
  8
0
 10
147.7261568688512909
 20
108.3973467675944988
 30
0.0
  0
VERTEX
  5
2F3C
  8
0
 10
150.2210971586644916
 20
120.135117976400096
 30
0.0
  0
VERTEX
  5
2F3D
  8
0
 10
150.9539858687971048
 20
123.5830882689867991
 30
0.0
  0
VERTEX
  5
2F3E
  8
0
 10
154.4019561613837936
 20
122.8501995588542002
 30
0.0
  0
VERTEX
  5
2F3F
  8
0
 10
166.1397273701894051
 20
120.3552592690410989
 30
0.0
  0
VERTEX
  5
2F40
  8
0
 10
169.5876976627760939
 20
119.6223705589085
 30
0.0
  0
SEQEND
  5
2F41
  8
0
  0
POLYLINE
  5
199B
  8
0
 66
     1
 10
0.0
 20
0.0
 30
0.0
 70
     1
  0
VERTEX
  5
2F42
  8
0
 10
187.4885207466224983
 20
112.2136825562434979
 30
0.0
  0
VERTEX
  5
2F43
  8
0
 10
184.9935804568092976
 20
100.4759113474378012
 30
0.0
  0
VERTEX
  5
2F44
  8
0
 10
184.2606917466767982
 20
97.0279410548511834
 30
0.0
  0
VERTEX
  5
2F45
  8
0
 10
180.8127214540901093
 20
97.7608297649837965
 30
0.0
  0
VERTEX
  5
2F46
  8
0
 10
169.0749502452844126
 20
100.2557700547968977
 30
0.0
  0
VERTEX
  5
2F47
  8
0
 10
165.6269799526976954
 20
100.9886587649294967
 30
0.0
  0
VERTEX
  5
2F48
  8
0
 10
166.3598686628303938
 20
104.4366290575161997
 30
0.0
  0
VERTEX
  5
2F49
  8
0
 10
168.8548089526435092
 20
116.1744002663216975
 30
0.0
  0
VERTEX
  5
2F4A
  8
0
 10
169.5876976627760939
 20
119.6223705589085
 30
0.0
  0
VERTEX
  5
2F4B
  8
0
 10
173.0356679553628112
 20
118.8894818487759011
 30
0.0
  0
VERTEX
  5
2F4C
  8
0
 10
184.7734391641685079
 20
116.3945415589627999
 30
0.0
  0
VERTEX
  5
2F4D
  8
0
 10
188.2214094567551115
 20
115.6616528488302009
 30
0.0
  0
SEQEND
  5
2F4E
  8
0
  0
POLYLINE
  5
1DBB
  8
0
 66
     1
 10
0.0
 20
0.0
 30
0.0
 70
     1
  0
VERTEX
  5
2F9B
  8
0
 10
71.2703793227894948
 20
89.9273089371146739
 30
0.0
  0
VERTEX
  5
2F9C
  8
0
 10
71.2703793227894948
 20
77.927308937114617
 30
0.0
  0
VERTEX
  5
2F9D
  8
0
 10
71.2703793227895233
 20
74.4023089371146682
 30
0.0
  0
VERTEX
  5
2F9E
  8
0
 10
67.7453793227894892
 20
74.4023089371146682
 30
0.0
  0
VERTEX
  5
2F9F
  8
0
 10
55.7453793227895176
 20
74.4023089371146682
 30
0.0
  0
VERTEX
  5
2FA0
  8
0
 10
52.2203793227894835
 20
74.4023089371146682
 30
0.0
  0
VERTEX
  5
2FA1
  8
0
 10
52.2203793227894835
 20
77.9273089371146739
 30
0.0
  0
VERTEX
  5
2FA2
  8
0
 10
52.2203793227895119
 20
89.927308937114617
 30
0.0
  0
VERTEX
  5
2FA3
  8
0
 10
52.2203793227894835
 20
93.452308937114708
 30
0.0
  0
VERTEX
  5
2FA4
  8
0
 10
55.7453793227894892
 20
93.452308937114708
 30
0.0
  0
VERTEX
  5
2FA5
  8
0
 10
67.7453793227894892
 20
93.452308937114708
 30
0.0
  0
VERTEX
  5
2FA6
  8
0
 10
71.2703793227894948
 20
93.452308937114708
 30
0.0
  0
SEQEND
  5
2FA7
  8
0
  0
POLYLINE
  5
1DBC
  8
0
 66
     1
 10
0.0
 20
0.0
 30
0.0
 70
     1
  0
VERTEX
  5
2FA8
  8
0
 10
360.3468093227896247
 20
70.8773089371147762
 30
0.0
  0
VERTEX
  5
2FA9
  8
0
 10
360.3468093227896247
 20
58.8773089371147194
 30
0.0
  0
VERTEX
  5
2FAA
  8
0
 10
360.3468093227896816
 20
55.3523089371147421
 30
0.0
  0
VERTEX
  5
2FAB
  8
0
 10
356.8218093227895906
 20
55.3523089371147421
 30
0.0
  0
VERTEX
  5
2FAC
  8
0
 10
344.8218093227895906
 20
55.3523089371147421
 30
0.0
  0
VERTEX
  5
2FAD
  8
0
 10
341.2968093227894997
 20
55.3523089371147421
 30
0.0
  0
VERTEX
  5
2FAE
  8
0
 10
341.2968093227896134
 20
58.8773089371147407
 30
0.0
  0
VERTEX
  5
2FAF
  8
0
 10
341.2968093227896134
 20
70.8773089371146625
 30
0.0
  0
VERTEX
  5
2FB0
  8
0
 10
341.2968093227896134
 20
74.4023089371147535
 30
0.0
  0
VERTEX
  5
2FB1
  8
0
 10
344.8218093227895906
 20
74.4023089371147535
 30
0.0
  0
VERTEX
  5
2FB2
  8
0
 10
356.8218093227895906
 20
74.4023089371147535
 30
0.0
  0
VERTEX
  5
2FB3
  8
0
 10
360.3468093227896247
 20
74.4023089371147535
 30
0.0
  0
SEQEND
  5
2FB4
  8
0
  0
POLYLINE
  5
1DC5
  8
0
 66
     1
 10
0.0
 20
0.0
 30
0.0
 70
     1
  0
VERTEX
  5
2FC2
  8
0
 10
213.1513096929353992
 20
118.1544002663217015
 30
0.0
  0
VERTEX
  5
2FC3
  8
0
 10
215.6462499827484862
 20
106.4166290575160048
 30
0.0
  0
VERTEX
  5
2FC4
  8
0
 10
216.3791386928810994
 20
102.9686587649294012
 30
0.0
  0
VERTEX
  5
2FC5
  8
0
 10
212.9311684002944958
 20
102.2357700547968022
 30
0.0
  0
VERTEX
  5
2FC6
  8
0
 10
201.1933971914887991
 20
99.7408297649836868
 30
0.0
  0
VERTEX
  5
2FC7
  8
0
 10
197.7454268989021102
 20
99.0079410548510737
 30
0.0
  0
VERTEX
  5
2FC8
  8
0
 10
197.0125381887694971
 20
102.4559113474377057
 30
0.0
  0
VERTEX
  5
2FC9
  8
0
 10
194.5175978989564101
 20
114.1936825562433029
 30
0.0
  0
VERTEX
  5
2FCA
  8
0
 10
193.7847091888237969
 20
117.6416528488301054
 30
0.0
  0
VERTEX
  5
2FCB
  8
0
 10
197.2326794814105142
 20
118.3745415589627044
 30
0.0
  0
VERTEX
  5
2FCC
  8
0
 10
208.9704506902160972
 20
120.8694818487758056
 30
0.0
  0
VERTEX
  5
2FCD
  8
0
 10
212.4184209828027861
 20
121.6023705589084045
 30
0.0
  0
SEQEND
  5
2FCE
  8
0
  0
POLYLINE
  5
1DC6
  8
0
 66
     1
 10
0.0
 20
0.0
 30
0.0
 70
     1
  0
VERTEX
  5
2FCF
  8
0
 10
231.785021486914502
 20
122.1151179764000005
 30
0.0
  0
VERTEX
  5
2FD0
  8
0
 10
234.279961776727589
 20
110.3773467675943039
 30
0.0
  0
VERTEX
  5
2FD1
  8
0
 10
235.0128504868602022
 20
106.9293764750077003
 30
0.0
  0
VERTEX
  5
2FD2
  8
0
 10
231.5648801942735133
 20
106.1964877648751013
 30
0.0
  0
VERTEX
  5
2FD3
  8
0
 10
219.8271089854679019
 20
103.7015474750620001
 30
0.0
  0
VERTEX
  5
2FD4
  8
0
 10
216.3791386928810994
 20
102.9686587649294012
 30
0.0
  0
VERTEX
  5
2FD5
  8
0
 10
215.6462499827485999
 20
106.4166290575160048
 30
0.0
  0
VERTEX
  5
2FD6
  8
0
 10
213.1513096929355129
 20
118.154400266321602
 30
0.0
  0
VERTEX
  5
2FD7
  8
0
 10
212.4184209828028997
 20
121.6023705589084045
 30
0.0
  0
VERTEX
  5
2FD8
  8
0
 10
215.8663912753895886
 20
122.3352592690410034
 30
0.0
  0
VERTEX
  5
2FD9
  8
0
 10
227.6041624841952
 20
124.8301995588541047
 30
0.0
  0
VERTEX
  5
2FDA
  8
0
 10
231.0521327767818889
 20
125.5630882689867036
 30
0.0
  0
SEQEND
  5
2FDB
  8
0
  0
POLYLINE
  5
1DC7
  8
0
 66
     1
 10
0.0
 20
0.0
 30
0.0
 70
     1
  0
VERTEX
  5
2FDC
  8
0
 10
250.4187332808934912
 20
126.0758356864782996
 30
0.0
  0
VERTEX
  5
2FDD
  8
0
 10
252.9136735707066066
 20
114.3380644776726029
 30
0.0
  0
VERTEX
  5
2FDE
  8
0
 10
253.6465622808391913
 20
110.8900941850859994
 30
0.0
  0
VERTEX
  5
2FDF
  8
0
 10
250.1985919882525025
 20
110.1572054749534004
 30
0.0
  0
VERTEX
  5
2FE0
  8
0
 10
238.460820779446891
 20
107.6622651851402992
 30
0.0
  0
VERTEX
  5
2FE1
  8
0
 10
235.0128504868600885
 20
106.9293764750077003
 30
0.0
  0
VERTEX
  5
2FE2
  8
0
 10
234.279961776727589
 20
110.3773467675944033
 30
0.0
  0
VERTEX
  5
2FE3
  8
0
 10
231.785021486914502
 20
122.1151179764000005
 30
0.0
  0
VERTEX
  5
2FE4
  8
0
 10
231.0521327767818036
 20
125.5630882689867036
 30
0.0
  0
VERTEX
  5
2FE5
  8
0
 10
234.5001030693686062
 20
126.2959769791193025
 30
0.0
  0
VERTEX
  5
2FE6
  8
0
 10
246.2378742781741892
 20
128.7909172689323896
 30
0.0
  0
VERTEX
  5
2FE7
  8
0
 10
249.6858445707609064
 20
129.5238059790650027
 30
0.0
  0
SEQEND
  5
2FE8
  8
0
  0
POLYLINE
  5
1DC8
  8
0
 66
     1
 10
0.0
 20
0.0
 30
0.0
 70
     1
  0
VERTEX
  5
2FE9
  8
0
 10
269.0524450748724803
 20
130.0365533965567124
 30
0.0
  0
VERTEX
  5
2FEA
  8
0
 10
271.5473853646856242
 20
118.2987821877510015
 30
0.0
  0
VERTEX
  5
2FEB
  8
0
 10
272.2802740748181805
 20
114.8508118951642984
 30
0.0
  0
VERTEX
  5
2FEC
  8
0
 10
268.83230378223152
 20
114.1179231850316995
 30
0.0
  0
VERTEX
  5
2FED
  8
0
 10
257.0945325734259086
 20
111.6229828952185983
 30
0.0
  0
VERTEX
  5
2FEE
  8
0
 10
253.6465622808391061
 20
110.8900941850859994
 30
0.0
  0
VERTEX
  5
2FEF
  8
0
 10
252.9136735707066066
 20
114.3380644776727024
 30
0.0
  0
VERTEX
  5
2FF0
  8
0
 10
250.4187332808934912
 20
126.0758356864782996
 30
0.0
  0
VERTEX
  5
2FF1
  8
0
 10
249.6858445707609064
 20
129.5238059790650027
 30
0.0
  0
VERTEX
  5
2FF2
  8
0
 10
253.1338148633475953
 20
130.2566946891975874
 30
0.0
  0
VERTEX
  5
2FF3
  8
0
 10
264.8715860721532067
 20
132.7516349790107029
 30
0.0
  0
VERTEX
  5
2FF4
  8
0
 10
268.3195563647398103
 20
133.4845236891434013
 30
0.0
  0
SEQEND
  5
2FF5
  8
0
  0
POLYLINE
  5
1DC9
  8
0
 66
     1
 10
0.0
 20
0.0
 30
0.0
 70
     1
  0
VERTEX
  5
2FF6
  8
0
 10
263.6924450748724098
 20
109.4265533965566988
 30
0.0
  0
VERTEX
  5
2FF7
  8
0
 10
266.1873853646854968
 20
97.6887821877510305
 30
0.0
  0
VERTEX
  5
2FF8
  8
0
 10
266.92027407481811
 20
94.2408118951643985
 30
0.0
  0
VERTEX
  5
2FF9
  8
0
 10
263.4723037822315064
 20
93.5079231850317854
 30
0.0
  0
VERTEX
  5
2FFA
  8
0
 10
251.7345325734258097
 20
91.0129828952186699
 30
0.0
  0
VERTEX
  5
2FFB
  8
0
 10
248.2865622808390071
 20
90.2800941850860568
 30
0.0
  0
VERTEX
  5
2FFC
  8
0
 10
247.5536735707065077
 20
93.7280644776727456
 30
0.0
  0
VERTEX
  5
2FFD
  8
0
 10
245.0587332808933922
 20
105.4658356864783002
 30
0.0
  0
VERTEX
  5
2FFE
  8
0
 10
244.3258445707606938
 20
108.9138059790651027
 30
0.0
  0
VERTEX
  5
2FFF
  8
0
 10
247.7738148633474964
 20
109.6466946891977017
 30
0.0
  0
VERTEX
  5
3000
  8
0
 10
259.5115860721530794
 20
112.1416349790108029
 30
0.0
  0
VERTEX
  5
3001
  8
0
 10
262.9595563647397967
 20
112.8745236891434018
 30
0.0
  0
SEQEND
  5
3002
  8
0
  0
POLYLINE
  5
1DCA
  8
0
 66
     1
 10
0.0
 20
0.0
 30
0.0
 70
     1
  0
VERTEX
  5
3003
  8
0
 10
245.0587332808935912
 20
105.4658356864783997
 30
0.0
  0
VERTEX
  5
3004
  8
0
 10
247.553673570706593
 20
93.7280644776726461
 30
0.0
  0
VERTEX
  5
3005
  8
0
 10
248.2865622808392061
 20
90.2800941850860568
 30
0.0
  0
VERTEX
  5
3006
  8
0
 10
244.8385919882526025
 20
89.5472054749534436
 30
0.0
  0
VERTEX
  5
3007
  8
0
 10
233.1008207794469058
 20
87.0522651851403566
 30
0.0
  0
VERTEX
  5
3008
  8
0
 10
229.6528504868601885
 20
86.3193764750077435
 30
0.0
  0
VERTEX
  5
3009
  8
0
 10
228.9199617767276038
 20
89.7673467675944039
 30
0.0
  0
VERTEX
  5
300A
  8
0
 10
226.4250214869146021
 20
101.5051179764000011
 30
0.0
  0
VERTEX
  5
300B
  8
0
 10
225.6921327767819037
 20
104.9530882689867042
 30
0.0
  0
VERTEX
  5
300C
  8
0
 10
229.1401030693685925
 20
105.6859769791193031
 30
0.0
  0
VERTEX
  5
300D
  8
0
 10
240.8778742781742892
 20
108.1809172689324043
 30
0.0
  0
VERTEX
  5
300E
  8
0
 10
244.3258445707608928
 20
108.9138059790651027
 30
0.0
  0
SEQEND
  5
300F
  8
0
  0
POLYLINE
  5
1DCB
  8
0
 66
     1
 10
0.0
 20
0.0
 30
0.0
 70
     1
  0
VERTEX
  5
3010
  8
0
 10
226.4250214869146021
 20
101.5051179764000011
 30
0.0
  0
VERTEX
  5
3011
  8
0
 10
228.9199617767276038
 20
89.7673467675943471
 30
0.0
  0
VERTEX
  5
3012
  8
0
 10
229.6528504868601885
 20
86.3193764750077435
 30
0.0
  0
VERTEX
  5
3013
  8
0
 10
226.2048801942736134
 20
85.5864877648751445
 30
0.0
  0
VERTEX
  5
3014
  8
0
 10
214.4671089854678883
 20
83.0915474750620291
 30
0.0
  0
VERTEX
  5
3015
  8
0
 10
211.0191386928811994
 20
82.358658764929416
 30
0.0
  0
VERTEX
  5
3016
  8
0
 10
210.2862499827485863
 20
85.8066290575160906
 30
0.0
  0
VERTEX
  5
3017
  8
0
 10
207.7913096929356129
 20
97.544400266321702
 30
0.0
  0
VERTEX
  5
3018
  8
0
 10
207.0584209828028861
 20
100.9923705589084051
 30
0.0
  0
VERTEX
  5
3019
  8
0
 10
210.5063912753896034
 20
101.725259269041004
 30
0.0
  0
VERTEX
  5
301A
  8
0
 10
222.2441624841953001
 20
104.2201995588541052
 30
0.0
  0
VERTEX
  5
301B
  8
0
 10
225.6921327767819037
 20
104.9530882689867042
 30
0.0
  0
SEQEND
  5
301C
  8
0
  0
POLYLINE
  5
1DCC
  8
0
 66
     1
 10
0.0
 20
0.0
 30
0.0
 70
     1
  0
VERTEX
  5
301D
  8
0
 10
207.7913096929354992
 20
97.544400266321702
 30
0.0
  0
VERTEX
  5
301E
  8
0
 10
210.2862499827485863
 20
85.8066290575159769
 30
0.0
  0
VERTEX
  5
301F
  8
0
 10
211.0191386928811994
 20
82.3586587649293733
 30
0.0
  0
VERTEX
  5
3020
  8
0
 10
207.5711684002945105
 20
81.6257700547967602
 30
0.0
  0
VERTEX
  5
3021
  8
0
 10
195.8333971914888139
 20
79.1308297649836732
 30
0.0
  0
VERTEX
  5
3022
  8
0
 10
192.3854268989022103
 20
78.39794105485106
 30
0.0
  0
VERTEX
  5
3023
  8
0
 10
191.6525381887695971
 20
81.8459113474377205
 30
0.0
  0
VERTEX
  5
3024
  8
0
 10
189.1575978989565101
 20
93.5836825562433177
 30
0.0
  0
VERTEX
  5
3025
  8
0
 10
188.424709188823897
 20
97.0316528488300776
 30
0.0
  0
VERTEX
  5
3026
  8
0
 10
191.8726794814105006
 20
97.7645415589626765
 30
0.0
  0
VERTEX
  5
3027
  8
0
 10
203.6104506902161972
 20
100.2594818487757067
 30
0.0
  0
VERTEX
  5
3028
  8
0
 10
207.0584209828028861
 20
100.9923705589084051
 30
0.0
  0
SEQEND
  5
3029
  8
0
  0
POLYLINE
  5
1DCD
  8
0
 66
     1
 10
0.0
 20
0.0
 30
0.0
 70
     1
  0
VERTEX
  5
302A
  8
0
 10
216.4113096929355038
 20
79.8944002663217532
 30
0.0
  0
VERTEX
  5
302B
  8
0
 10
218.9062499827485055
 20
68.1566290575160281
 30
0.0
  0
VERTEX
  5
302C
  8
0
 10
219.6391386928810903
 20
64.7086587649293961
 30
0.0
  0
VERTEX
  5
302D
  8
0
 10
216.1911684002944867
 20
63.9757700547968113
 30
0.0
  0
VERTEX
  5
302E
  8
0
 10
204.4533971914889037
 20
61.4808297649836888
 30
0.0
  0
VERTEX
  5
302F
  8
0
 10
201.0054268989021011
 20
60.7479410548510828
 30
0.0
  0
VERTEX
  5
3030
  8
0
 10
200.272538188769488
 20
64.1959113474377716
 30
0.0
  0
VERTEX
  5
3031
  8
0
 10
197.777597898956401
 20
75.9336825562433546
 30
0.0
  0
VERTEX
  5
3032
  8
0
 10
197.0447091888237878
 20
79.3816528488301145
 30
0.0
  0
VERTEX
  5
3033
  8
0
 10
200.4926794814105051
 20
80.1145415589627135
 30
0.0
  0
VERTEX
  5
3034
  8
0
 10
212.2304506902162018
 20
82.6094818487758147
 30
0.0
  0
VERTEX
  5
3035
  8
0
 10
215.6784209828028054
 20
83.3423705589084278
 30
0.0
  0
SEQEND
  5
3036
  8
0
  0
POLYLINE
  5
1DCE
  8
0
 66
     1
 10
0.0
 20
0.0
 30
0.0
 70
     1
  0
VERTEX
  5
3037
  8
0
 10
235.0450214869144929
 20
83.8551179764000949
 30
0.0
  0
VERTEX
  5
3038
  8
0
 10
237.5399617767274947
 20
72.1173467675943698
 30
0.0
  0
VERTEX
  5
3039
  8
0
 10
238.2728504868601078
 20
68.6693764750077662
 30
0.0
  0
VERTEX
  5
303A
  8
0
 10
234.8248801942735042
 20
67.9364877648751531
 30
0.0
  0
VERTEX
  5
303B
  8
0
 10
223.0871089854678075
 20
65.4415474750620376
 30
0.0
  0
VERTEX
  5
303C
  8
0
 10
219.6391386928810903
 20
64.7086587649294245
 30
0.0
  0
VERTEX
  5
303D
  8
0
 10
218.9062499827485055
 20
68.1566290575161133
 30
0.0
  0
VERTEX
  5
303E
  8
0
 10
216.4113096929355038
 20
79.8944002663216963
 30
0.0
  0
VERTEX
  5
303F
  8
0
 10
215.6784209828028054
 20
83.3423705589084278
 30
0.0
  0
VERTEX
  5
3040
  8
0
 10
219.1263912753894942
 20
84.0752592690410552
 30
0.0
  0
VERTEX
  5
3041
  8
0
 10
230.8641624841951909
 20
86.5701995588541706
 30
0.0
  0
VERTEX
  5
3042
  8
0
 10
234.3121327767817945
 20
87.3030882689867838
 30
0.0
  0
SEQEND
  5
3043
  8
0
  0
POLYLINE
  5
1DCF
  8
0
 66
     1
 10
0.0
 20
0.0
 30
0.0
 70
     1
  0
VERTEX
  5
3044
  8
0
 10
253.6787332808933968
 20
87.8158356864783229
 30
0.0
  0
VERTEX
  5
3045
  8
0
 10
256.1736735707066259
 20
76.0780644776725836
 30
0.0
  0
VERTEX
  5
3046
  8
0
 10
256.9065622808391822
 20
72.6300941850859658
 30
0.0
  0
VERTEX
  5
3047
  8
0
 10
253.4585919882524934
 20
71.8972054749533811
 30
0.0
  0
VERTEX
  5
3048
  8
0
 10
241.7208207794469104
 20
69.4022651851402657
 30
0.0
  0
VERTEX
  5
3049
  8
0
 10
238.2728504868601078
 20
68.6693764750076525
 30
0.0
  0
VERTEX
  5
304A
  8
0
 10
237.5399617767276084
 20
72.1173467675943414
 30
0.0
  0
VERTEX
  5
304B
  8
0
 10
235.0450214869144929
 20
83.8551179763999244
 30
0.0
  0
VERTEX
  5
304C
  8
0
 10
234.3121327767817945
 20
87.3030882689866843
 30
0.0
  0
VERTEX
  5
304D
  8
0
 10
237.7601030693685971
 20
88.0359769791192832
 30
0.0
  0
VERTEX
  5
304E
  8
0
 10
249.4978742781742085
 20
90.5309172689323987
 30
0.0
  0
VERTEX
  5
304F
  8
0
 10
252.9458445707608973
 20
91.263805979065026
 30
0.0
  0
SEQEND
  5
3050
  8
0
  0
POLYLINE
  5
1DD0
  8
0
 66
     1
 10
0.0
 20
0.0
 30
0.0
 70
     1
  0
VERTEX
  5
3051
  8
0
 10
272.312445074872528
 20
91.7765533965566078
 30
0.0
  0
VERTEX
  5
3052
  8
0
 10
274.8073853646856151
 20
80.0387821877508827
 30
0.0
  0
VERTEX
  5
3053
  8
0
 10
275.5402740748182282
 20
76.5908118951642649
 30
0.0
  0
VERTEX
  5
3054
  8
0
 10
272.0923037822316246
 20
75.857923185031666
 30
0.0
  0
VERTEX
  5
3055
  8
0
 10
260.3545325734258995
 20
73.362982895218579
 30
0.0
  0
VERTEX
  5
3056
  8
0
 10
256.9065622808391822
 20
72.6300941850859658
 30
0.0
  0
VERTEX
  5
3057
  8
0
 10
256.1736735707066259
 20
76.0780644776726263
 30
0.0
  0
VERTEX
  5
3058
  8
0
 10
253.6787332808935105
 20
87.8158356864782235
 30
0.0
  0
VERTEX
  5
3059
  8
0
 10
252.9458445707608973
 20
91.2638059790649834
 30
0.0
  0
VERTEX
  5
305A
  8
0
 10
256.3938148633475862
 20
91.9966946891975539
 30
0.0
  0
VERTEX
  5
305B
  8
0
 10
268.1315860721531976
 20
94.4916349790106835
 30
0.0
  0
VERTEX
  5
305C
  8
0
 10
271.5795563647399149
 20
95.2245236891432967
 30
0.0
  0
SEQEND
  5
305D
  8
0
  0
POLYLINE
  5
1DD1
  8
0
 66
     1
 10
0.0
 20
0.0
 30
0.0
 70
     1
  0
VERTEX
  5
305E
  8
0
 10
266.9524450748721733
 20
71.1665533965567647
 30
0.0
  0
VERTEX
  5
305F
  8
0
 10
269.447385364685374
 20
59.4287821877510396
 30
0.0
  0
VERTEX
  5
3060
  8
0
 10
270.1802740748179872
 20
55.9808118951644289
 30
0.0
  0
VERTEX
  5
3061
  8
0
 10
266.7323037822313267
 20
55.2479231850318229
 30
0.0
  0
VERTEX
  5
3062
  8
0
 10
254.9945325734256869
 20
52.7529828952187003
 30
0.0
  0
VERTEX
  5
3063
  8
0
 10
251.546562280838998
 20
52.0200941850860872
 30
0.0
  0
VERTEX
  5
3064
  8
0
 10
250.8136735707064133
 20
55.4680644776727831
 30
0.0
  0
VERTEX
  5
3065
  8
0
 10
248.3187332808932979
 20
67.2058356864783661
 30
0.0
  0
VERTEX
  5
3066
  8
0
 10
247.5858445707605995
 20
70.6538059790651118
 30
0.0
  0
VERTEX
  5
3067
  8
0
 10
251.0338148633472883
 20
71.386694689197725
 30
0.0
  0
VERTEX
  5
3068
  8
0
 10
262.7715860721530134
 20
73.8816349790108404
 30
0.0
  0
VERTEX
  5
3069
  8
0
 10
266.2195563647396739
 20
74.6145236891434536
 30
0.0
  0
SEQEND
  5
306A
  8
0
  0
POLYLINE
  5
1DD2
  8
0
 66
     1
 10
0.0
 20
0.0
 30
0.0
 70
     1
  0
VERTEX
  5
306B
  8
0
 10
248.3187332808934968
 20
67.2058356864784514
 30
0.0
  0
VERTEX
  5
306C
  8
0
 10
250.8136735707066123
 20
55.4680644776727334
 30
0.0
  0
VERTEX
  5
306D
  8
0
 10
251.546562280839197
 20
52.0200941850861227
 30
0.0
  0
VERTEX
  5
306E
  8
0
 10
248.0985919882525934
 20
51.2872054749535096
 30
0.0
  0
VERTEX
  5
306F
  8
0
 10
236.3608207794468967
 20
48.792265185140387
 30
0.0
  0
VERTEX
  5
3070
  8
0
 10
232.9128504868602079
 20
48.059376475007781
 30
0.0
  0
VERTEX
  5
3071
  8
0
 10
232.1799617767275947
 20
51.5073467675944698
 30
0.0
  0
VERTEX
  5
3072
  8
0
 10
229.6850214869145077
 20
63.2451179764000528
 30
0.0
  0
VERTEX
  5
3073
  8
0
 10
228.9521327767818946
 20
66.6930882689867985
 30
0.0
  0
VERTEX
  5
3074
  8
0
 10
232.4001030693686118
 20
67.4259769791194117
 30
0.0
  0
VERTEX
  5
3075
  8
0
 10
244.1378742781743085
 20
69.9209172689325271
 30
0.0
  0
VERTEX
  5
3076
  8
0
 10
247.5858445707609121
 20
70.6538059790651403
 30
0.0
  0
SEQEND
  5
3077
  8
0
  0
POLYLINE
  5
1DD3
  8
0
 66
     1
 10
0.0
 20
0.0
 30
0.0
 70
     1
  0
VERTEX
  5
3078
  8
0
 10
229.6850214869145077
 20
63.2451179764001097
 30
0.0
  0
VERTEX
  5
3079
  8
0
 10
232.1799617767275947
 20
51.5073467675943775
 30
0.0
  0
VERTEX
  5
307A
  8
0
 10
232.9128504868602079
 20
48.0593764750077526
 30
0.0
  0
VERTEX
  5
307B
  8
0
 10
229.4648801942736043
 20
47.3264877648751678
 30
0.0
  0
VERTEX
  5
307C
  8
0
 10
217.7271089854679076
 20
44.8315474750620524
 30
0.0
  0
VERTEX
  5
307D
  8
0
 10
214.2791386928811903
 20
44.0986587649294322
 30
0.0
  0
VERTEX
  5
307E
  8
0
 10
213.5462499827486056
 20
47.546629057516121
 30
0.0
  0
VERTEX
  5
307F
  8
0
 10
211.0513096929354901
 20
59.2844002663217111
 30
0.0
  0
VERTEX
  5
3080
  8
0
 10
210.3184209828029054
 20
62.7323705589084923
 30
0.0
  0
VERTEX
  5
3081
  8
0
 10
213.7663912753895943
 20
63.4652592690410629
 30
0.0
  0
VERTEX
  5
3082
  8
0
 10
225.504162484195291
 20
65.9601995588541854
 30
0.0
  0
VERTEX
  5
3083
  8
0
 10
228.9521327767818946
 20
66.6930882689867985
 30
0.0
  0
SEQEND
  5
3084
  8
0
  0
POLYLINE
  5
1DD4
  8
0
 66
     1
 10
0.0
 20
0.0
 30
0.0
 70
     1
  0
VERTEX
  5
3085
  8
0
 10
211.0513096929354901
 20
59.284400266321768
 30
0.0
  0
VERTEX
  5
3086
  8
0
 10
213.5462499827486056
 20
47.5466290575160428
 30
0.0
  0
VERTEX
  5
3087
  8
0
 10
214.2791386928811903
 20
44.0986587649294322
 30
0.0
  0
VERTEX
  5
3088
  8
0
 10
210.8311684002945015
 20
43.365770054796819
 30
0.0
  0
VERTEX
  5
3089
  8
0
 10
199.0933971914888048
 20
40.8708297649837107
 30
0.0
  0
VERTEX
  5
308A
  8
0
 10
195.6454268989022012
 20
40.1379410548510975
 30
0.0
  0
VERTEX
  5
308B
  8
0
 10
194.912538188769588
 20
43.5859113474377793
 30
0.0
  0
VERTEX
  5
308C
  8
0
 10
192.417597898956501
 20
55.3236825562433694
 30
0.0
  0
VERTEX
  5
308D
  8
0
 10
191.6847091888238879
 20
58.7716528488301222
 30
0.0
  0
VERTEX
  5
308E
  8
0
 10
195.1326794814104915
 20
59.5045415589627282
 30
0.0
  0
VERTEX
  5
308F
  8
0
 10
206.8704506902161881
 20
61.9994818487758366
 30
0.0
  0
VERTEX
  5
3090
  8
0
 10
210.3184209828029054
 20
62.7323705589084497
 30
0.0
  0
SEQEND
  5
3091
  8
0
  0
POLYLINE
  5
1DD6
  8
0
 66
     1
 10
0.0
 20
0.0
 30
0.0
 70
     1
  0
VERTEX
  5
3092
  8
0
 10
271.7624450748722893
 20
51.1765533965566135
 30
0.0
  0
VERTEX
  5
3093
  8
0
 10
274.2573853646853763
 20
39.4387821877508884
 30
0.0
  0
VERTEX
  5
3094
  8
0
 10
274.9902740748181031
 20
35.9908118951642635
 30
0.0
  0
VERTEX
  5
3095
  8
0
 10
271.5423037822313859
 20
35.2579231850316717
 30
0.0
  0
VERTEX
  5
3096
  8
0
 10
259.8045325734257176
 20
32.7629828952185633
 30
0.0
  0
VERTEX
  5
3097
  8
0
 10
256.3565622808390003
 20
32.0300941850859502
 30
0.0
  0
VERTEX
  5
3098
  8
0
 10
255.6236735707063872
 20
35.4780644776726319
 30
0.0
  0
VERTEX
  5
3099
  8
0
 10
253.1287332808934138
 20
47.215835686478222
 30
0.0
  0
VERTEX
  5
309A
  8
0
 10
252.395844570760687
 20
50.6638059790649891
 30
0.0
  0
VERTEX
  5
309B
  8
0
 10
255.8438148633474043
 20
51.3966946891975667
 30
0.0
  0
VERTEX
  5
309C
  8
0
 10
267.5815860721530726
 20
53.8916349790106892
 30
0.0
  0
VERTEX
  5
309D
  8
0
 10
271.0295563647396762
 20
54.6245236891433024
 30
0.0
  0
SEQEND
  5
309E
  8
0
  0
POLYLINE
  5
1DD7
  8
0
 66
     1
 10
0.0
 20
0.0
 30
0.0
 70
     1
  0
VERTEX
  5
309F
  8
0
 10
183.0824055802006001
 20
35.2478998298040622
 30
0.0
  0
VERTEX
  5
30A0
  8
0
 10
180.5874652903875131
 20
23.51012862099833
 30
0.0
  0
VERTEX
  5
30A1
  8
0
 10
179.8545765802548999
 20
20.0621583284117193
 30
0.0
  0
VERTEX
  5
30A2
  8
0
 10
176.4066062876682963
 20
20.7950470385443396
 30
0.0
  0
VERTEX
  5
30A3
  8
0
 10
164.6688350788625996
 20
23.2899873283574301
 30
0.0
  0
VERTEX
  5
30A4
  8
0
 10
161.2208647862759108
 20
24.0228760384900397
 30
0.0
  0
VERTEX
  5
30A5
  8
0
 10
161.9537534964084955
 20
27.4708463310767002
 30
0.0
  0
VERTEX
  5
30A6
  8
0
 10
164.4486937862216109
 20
39.2086175398823116
 30
0.0
  0
VERTEX
  5
30A7
  8
0
 10
165.1815824963543093
 20
42.6565878324690786
 30
0.0
  0
VERTEX
  5
30A8
  8
0
 10
168.6295527889409129
 20
41.9236991223364726
 30
0.0
  0
VERTEX
  5
30A9
  8
0
 10
180.3673239977466096
 20
39.4287588325233287
 30
0.0
  0
VERTEX
  5
30AA
  8
0
 10
183.8152942903332132
 20
38.6958701223907511
 30
0.0
  0
SEQEND
  5
30AB
  8
0
  0
ENDSEC
  0
EOF
