  0
SECTION
  2
HEADER
  9
$ACADVER
  1
AC1009
  9
$INSBASE
 10
0.0
 20
0.0
 30
0.0
  9
$EXTMIN
 10
-177.2635338857710963
 20
-212.7561961763047123
 30
0.0
  9
$EXTMAX
 10
622.8015215938949041
 20
139.8484739596599127
 30
0.0
  9
$LIMMIN
 10
0.0
 20
0.0
  9
$LIMMAX
 10
420.0
 20
297.0
  9
$ORTHOMODE
 70
     0
  9
$REGENMODE
 70
     1
  9
$FILLMODE
 70
     1
  9
$QTEXTMODE
 70
     0
  9
$MIRRTEXT
 70
     1
  9
$DRAGMODE
 70
     2
  9
$LTSCALE
 40
1.0
  9
$OSMODE
 70
  2047
  9
$ATTMODE
 70
     1
  9
$TEXTSIZE
 40
3.5
  9
$TRACEWID
 40
1.0
  9
$TEXTSTYLE
  7
STANDARD
  9
$CLAYER
  8
0
  9
$CELTYPE
  6
BYLAYER
  9
$CECOLOR
 62
   256
  9
$DIMSCALE
 40
1.0
  9
$DIMASZ
 40
3.3019999999999992
  9
$DIMEXO
 40
1.0
  9
$DIMDLI
 40
3.75
  9
$DIMRND
 40
0.0
  9
$DIMDLE
 40
0.0
  9
$DIMEXE
 40
1.0
  9
$DIMTP
 40
0.0
  9
$DIMTM
 40
0.0
  9
$DIMTXT
 40
3.5
  9
$DIMCEN
 40
2.5
  9
$DIMTSZ
 40
0.0
  9
$DIMTOL
 70
     0
  9
$DIMLIM
 70
     0
  9
$DIMTIH
 70
     1
  9
$DIMTOH
 70
     1
  9
$DIMSE1
 70
     0
  9
$DIMSE2
 70
     0
  9
$DIMTAD
 70
     1
  9
$DIMZIN
 70
     0
  9
$DIMBLK
  1

  9
$DIMASO
 70
     1
  9
$DIMSHO
 70
     1
  9
$DIMPOST
  1

  9
$DIMAPOST
  1

  9
$DIMALT
 70
     0
  9
$DIMALTD
 70
     3
  9
$DIMALTF
 40
0.0393700787401575
  9
$DIMLFAC
 40
1.0
  9
$DIMTOFL
 70
     1
  9
$DIMTVP
 40
0.0
  9
$DIMTIX
 70
     0
  9
$DIMSOXD
 70
     0
  9
$DIMSAH
 70
     0
  9
$DIMBLK1
  1

  9
$DIMBLK2
  1

  9
$DIMSTYLE
  2
ISO-25
  9
$DIMCLRD
 70
     0
  9
$DIMCLRE
 70
     0
  9
$DIMCLRT
 70
     0
  9
$DIMTFAC
 40
1.0
  9
$DIMGAP
 40
1.524
  9
$LUNITS
 70
     2
  9
$LUPREC
 70
     2
  9
$SKETCHINC
 40
1.0
  9
$FILLETRAD
 40
10.0
  9
$AUNITS
 70
     0
  9
$AUPREC
 70
     2
  9
$MENU
  1
.
  9
$ELEVATION
 40
0.0
  9
$PELEVATION
 40
0.0
  9
$THICKNESS
 40
0.0
  9
$LIMCHECK
 70
     0
  9
$BLIPMODE
 70
     0
  9
$CHAMFERA
 40
0.0
  9
$CHAMFERB
 40
0.0
  9
$SKPOLY
 70
     0
  9
$TDCREATE
 40
2458384.5862500001676381
  9
$TDUPDATE
 40
2459364.4963773149065673
  9
$TDINDWG
 40
0.0455555671
  9
$TDUSRTIMER
 40
0.0455555671
  9
$USRTIMER
 70
     1
  9
$ANGBASE
 50
0.0
  9
$ANGDIR
 70
     0
  9
$PDMODE
 70
     0
  9
$PDSIZE
 40
-1.0
  9
$PLINEWID
 40
0.0
  9
$COORDS
 70
     1
  9
$SPLFRAME
 70
     0
  9
$SPLINETYPE
 70
     6
  9
$SPLINESEGS
 70
     8
  9
$ATTDIA
 70
     1
  9
$ATTREQ
 70
     1
  9
$HANDLING
 70
     1
  9
$HANDSEED
  5
2CF4
  9
$SURFTAB1
 70
     6
  9
$SURFTAB2
 70
     6
  9
$SURFTYPE
 70
     6
  9
$SURFU
 70
     6
  9
$SURFV
 70
     6
  9
$UCSNAME
  2

  9
$UCSORG
 10
0.0
 20
0.0
 30
0.0
  9
$UCSXDIR
 10
1.0
 20
0.0
 30
0.0
  9
$UCSYDIR
 10
0.0
 20
1.0
 30
0.0
  9
$PUCSNAME
  2

  9
$PUCSORG
 10
0.0
 20
0.0
 30
0.0
  9
$PUCSXDIR
 10
1.0
 20
0.0
 30
0.0
  9
$PUCSYDIR
 10
0.0
 20
1.0
 30
0.0
  9
$USERI1
 70
     0
  9
$USERI2
 70
     0
  9
$USERI3
 70
     0
  9
$USERI4
 70
     0
  9
$USERI5
 70
     0
  9
$USERR1
 40
0.0
  9
$USERR2
 40
0.0
  9
$USERR3
 40
0.0
  9
$USERR4
 40
0.0
  9
$USERR5
 40
0.0
  9
$WORLDVIEW
 70
     1
  9
$SHADEDGE
 70
     3
  9
$SHADEDIF
 70
    70
  9
$TILEMODE
 70
     1
  9
$MAXACTVP
 70
    64
  9
$PLIMCHECK
 70
     0
  9
$PEXTMIN
 10
1.0000000000000000E+20
 20
1.0000000000000000E+20
 30
1.0000000000000000E+20
  9
$PEXTMAX
 10
-1.0000000000000000E+20
 20
-1.0000000000000000E+20
 30
-1.0000000000000000E+20
  9
$PLIMMIN
 10
0.0
 20
0.0
  9
$PLIMMAX
 10
420.0
 20
297.0
  9
$UNITMODE
 70
     0
  9
$VISRETAIN
 70
     1
  9
$PLINEGEN
 70
     0
  9
$PSLTSCALE
 70
     1
  0
ENDSEC
  0
SECTION
  2
TABLES
  0
TABLE
  2
VPORT
 70
     1
  0
VPORT
  2
*ACTIVE
 70
     0
 10
0.0
 20
0.0
 11
1.0
 21
1.0
 12
188.5338541900123062
 22
92.3135383613003455
 13
0.0
 23
0.0
 14
10.0
 24
10.0
 15
10.0
 25
10.0
 16
0.0
 26
0.0
 36
1.0
 17
0.0
 27
0.0
 37
0.0
 40
272.1689329048577974
 41
1.7711111111111111
 42
50.0
 43
0.0
 44
0.0
 50
0.0
 51
0.0
 71
     0
 72
   100
 73
     1
 74
     3
 75
     0
 76
     0
 77
     0
 78
     0
  0
ENDTAB
  0
TABLE
  2
LTYPE
 70
     7
  0
LTYPE
  2
CONTINUOUS
 70
     0
  3
Solid line
 72
    65
 73
     0
 40
0.0
  0
LTYPE
  2
HIDDEN
 70
     0
  3
Hidden __ __ __ __ __ __ __ __ __ __ __ __ __ __
 72
    65
 73
     2
 40
1.905
 49
1.27
 49
-0.635
  0
LTYPE
  2
PHANTOM
 70
     0
  3
Phantom ______  __  __  ______  __  __  ______
 72
    65
 73
     6
 40
12.6999999999999993
 49
6.3499999999999979
 49
-1.27
 49
1.27
 49
-1.27
 49
1.27
 49
-1.27
  0
LTYPE
  2
CENTER
 70
     0
  3
Center ____ _ ____ _ ____ _ ____ _ ____ _ ____
 72
    65
 73
     4
 40
10.1600000000000001
 49
6.3499999999999979
 49
-1.27
 49
1.27
 49
-1.27
  0
LTYPE
  2
CENTERX2
 70
     0
  3
Center (2x) ________  __  ________  __  _____
 72
    65
 73
     4
 40
20.3200000000000003
 49
12.6999999999999993
 49
-2.54
 49
2.54
 49
-2.54
  0
LTYPE
  2
DOT2
 70
     0
  3
Dot (.5x) ........................................
 72
    65
 73
     2
 40
0.635
 49
0.0
 49
-0.635
  0
ENDTAB
  0
TABLE
  2
LAYER
 70
     3
  0
LAYER
  2
0
 70
     0
 62
     3
  6
CONTINUOUS
  0
LAYER
  2
PLATE
 70
     0
 62
     1
  6
CONTINUOUS
  0
LAYER
  2
PCB
 70
     0
 62
     2
  6
CONTINUOUS
  0
ENDTAB
  0
TABLE
  2
STYLE
 70
     2
  0
STYLE
  2
STANDARD
 70
     0
 40
0.0
 41
1.0
 50
0.0
 71
     0
 42
3.5
  3
txt
  4

  0
STYLE
  2
ANNOTATIVE
 70
     0
 40
0.0
 41
1.0
 50
0.0
 71
     0
 42
0.2
  3
txt
  4

  0
ENDTAB
  0
TABLE
  2
VIEW
 70
     0
  0
ENDTAB
  0
TABLE
  2
UCS
 70
     0
  0
ENDTAB
  0
TABLE
  2
APPID
 70
     7
  0
APPID
  2
ACAD
 70
     0
  0
APPID
  2
ACADANNOTATIVE
 70
     0
  0
APPID
  2
ACAD_NAV_VCDISPLAY
 70
     0
  0
APPID
  2
ACAECLAYERSTANDARD
 70
     0
  0
APPID
  2
ACCMTRANSPARENCY
 70
     0
  0
APPID
  2
ACAD_EXEMPT_FROM_CAD_STANDARDS
 70
     0
  0
APPID
  2
ACAD_MLEADERVER
 70
     0
  0
ENDTAB
  0
TABLE
  2
DIMSTYLE
 70
     4
  0
DIMSTYLE
  2
STANDARD
 70
     0
  3

  4

  5

  6

  7

 40
1.0
 41
0.18
 42
0.0625
 43
0.38
 44
0.18
 45
0.0
 46
0.0
 47
0.0
 48
0.0
140
0.18
141
0.09
142
0.0
143
25.3999999999999986
144
1.0
145
0.0
146
1.0
147
0.09
 71
     0
 72
     0
 73
     1
 74
     1
 75
     0
 76
     0
 77
     0
 78
     0
170
     0
171
     2
172
     0
173
     0
174
     0
175
     0
176
     0
177
     0
178
     0
  0
DIMSTYLE
  2
ANNOTATIVE
 70
     0
  3

  4

  5

  6

  7

 40
1.0
 41
0.18
 42
0.0625
 43
0.38
 44
0.18
 45
0.0
 46
0.0
 47
0.0
 48
0.0
140
0.18
141
0.09
142
0.0
143
25.3999999999999986
144
1.0
145
0.0
146
1.0
147
0.09
 71
     0
 72
     0
 73
     1
 74
     1
 75
     0
 76
     0
 77
     0
 78
     0
170
     0
171
     2
172
     0
173
     0
174
     0
175
     0
176
     0
177
     0
178
     0
  0
DIMSTYLE
  2
ISO-25
 70
     0
  3

  4

  5

  6

  7

 40
1.0
 41
2.5
 42
0.625
 43
3.75
 44
1.25
 45
0.0
 46
0.0
 47
0.0
 48
0.0
140
2.5
141
2.5
142
0.0
143
0.03937007874016
144
1.0
145
0.0
146
1.0
147
0.625
 71
     0
 72
     0
 73
     0
 74
     0
 75
     0
 76
     0
 77
     1
 78
     8
170
     0
171
     3
172
     1
173
     0
174
     0
175
     0
176
     0
177
     0
178
     0
  0
ENDTAB
  0
ENDSEC
  0
SECTION
  2
BLOCKS
  0
BLOCK
  8
0
  2
$MODEL_SPACE
 70
     0
 10
0.0
 20
0.0
 30
0.0
  3
$MODEL_SPACE
  1

  0
ENDBLK
  5
1280
  8
0
  0
BLOCK
 67
     1
  8
0
  2
$PAPER_SPACE
 70
     0
 10
0.0
 20
0.0
 30
0.0
  3
$PAPER_SPACE
  1

  0
ENDBLK
  5
127C
 67
     1
  8
0
  0
ENDSEC
  0
SECTION
  2
ENTITIES
  0
CIRCLE
  5
1BAD
  8
0
  6
CONTINUOUS
 62
     2
 10
190.1530593227888914
 20
133.5973089371146898
 30
0.0
 40
0.2750000000000341
  0
CIRCLE
  5
1BAE
  8
0
  6
CONTINUOUS
 62
     2
 10
191.7530593227889995
 20
133.5973089371148887
 30
0.0
 40
0.2750000000000625
  0
CIRCLE
  5
1BAF
  8
0
  6
CONTINUOUS
 62
     2
 10
204.4102274573621969
 20
56.9322413132846705
 30
0.0
 40
0.7500000000001421
  0
CIRCLE
  5
1BB0
  8
0
  6
CONTINUOUS
 62
     2
 10
198.0129341291248011
 20
50.3789644175255376
 30
0.0
 40
0.8499999999999091
  0
CIRCLE
  5
1BB1
  8
0
  6
CONTINUOUS
 62
     2
 10
207.9509137525803908
 20
52.4913471962341021
 30
0.0
 40
0.8499999999999373
  0
CIRCLE
  5
1BB2
  8
0
  6
CONTINUOUS
 62
     2
 10
205.2803627831385995
 20
46.7302138424905777
 30
0.0
 40
0.5
  0
CIRCLE
  5
1BB3
  8
0
  6
CONTINUOUS
 62
     2
 10
202.7958678772745884
 20
46.2021181478135219
 30
0.0
 40
0.4999999999998579
  0
CIRCLE
  5
1BB4
  8
0
  6
CONTINUOUS
 62
     2
 10
198.7270858873795873
 20
53.1275071707278883
 30
0.0
 40
0.7500000000000853
  0
CIRCLE
  5
1BB5
  8
0
  6
CONTINUOUS
 62
     2
 10
202.9819239408525107
 20
51.4351558068798127
 30
0.0
 40
1.999999999999857
  0
CIRCLE
  5
1BB6
  8
0
  6
CONTINUOUS
 62
     2
 10
209.7702274573620969
 20
77.5422413132845634
 30
0.0
 40
0.7500000000000853
  0
CIRCLE
  5
1BB7
  8
0
  6
CONTINUOUS
 62
     2
 10
203.3729341291249
 20
70.9889644175256507
 30
0.0
 40
0.8499999999999091
  0
CIRCLE
  5
1BB8
  8
0
  6
CONTINUOUS
 62
     2
 10
213.3109137525802055
 20
73.1013471962339736
 30
0.0
 40
0.8499999999999091
  0
CIRCLE
  5
1BB9
  8
0
  6
CONTINUOUS
 62
     2
 10
210.6403627831386132
 20
67.3402138424905843
 30
0.0
 40
0.4999999999999433
  0
CIRCLE
  5
1BBA
  8
0
  6
CONTINUOUS
 62
     2
 10
208.1558678772748863
 20
66.8121181478135071
 30
0.0
 40
0.4999999999998012
  0
CIRCLE
  5
1BBB
  8
0
  6
CONTINUOUS
 62
     2
 10
204.087085887379601
 20
73.7375071707280085
 30
0.0
 40
0.7500000000001421
  0
CIRCLE
  5
1BBC
  8
0
  6
CONTINUOUS
 62
     2
 10
208.3419239408524959
 20
72.0451558068797766
 30
0.0
 40
1.9999999999998861
  0
CIRCLE
  5
1BBD
  8
0
  6
CONTINUOUS
 62
     2
 10
201.1502274573620923
 20
95.1922413132845975
 30
0.0
 40
0.7500000000000853
  0
CIRCLE
  5
1BBE
  8
0
  6
CONTINUOUS
 62
     2
 10
194.7529341291248102
 20
88.6389644175254858
 30
0.0
 40
0.8499999999999091
  0
CIRCLE
  5
1BBF
  8
0
  6
CONTINUOUS
 62
     2
 10
204.6909137525802862
 20
90.7513471962340361
 30
0.0
 40
0.8499999999999373
  0
CIRCLE
  5
1BC0
  8
0
  6
CONTINUOUS
 62
     2
 10
202.0203627831388076
 20
84.9902138424906468
 30
0.0
 40
0.4999999999999433
  0
CIRCLE
  5
1BC1
  8
0
  6
CONTINUOUS
 62
     2
 10
199.5358678772747965
 20
84.4621181478134559
 30
0.0
 40
0.4999999999998012
  0
CIRCLE
  5
1BC2
  8
0
  6
CONTINUOUS
 62
     2
 10
195.4670858873795964
 20
91.3875071707279147
 30
0.0
 40
0.7500000000001421
  0
CIRCLE
  5
1BC3
  8
0
  6
CONTINUOUS
 62
     2
 10
199.7219239408524913
 20
89.6951558068797965
 30
0.0
 40
1.9999999999998861
  0
CIRCLE
  5
1BC4
  8
0
  6
CONTINUOUS
 62
     2
 10
206.5102274573619923
 20
115.8022413132844974
 30
0.0
 40
0.7500000000001137
  0
CIRCLE
  5
1BC5
  8
0
  6
CONTINUOUS
 62
     2
 10
200.1129341291247954
 20
109.2489644175254995
 30
0.0
 40
0.8499999999999373
  0
CIRCLE
  5
1BC6
  8
0
  6
CONTINUOUS
 62
     2
 10
210.0509137525801862
 20
111.3613471962338934
 30
0.0
 40
0.8499999999999091
  0
CIRCLE
  5
1BC7
  8
0
  6
CONTINUOUS
 62
     2
 10
207.3803627831387075
 20
105.6002138424904047
 30
0.0
 40
0.4999999999999716
  0
CIRCLE
  5
1BC8
  8
0
  6
CONTINUOUS
 62
     2
 10
204.8958678772746964
 20
105.0721181478133985
 30
0.0
 40
0.4999999999998579
  0
CIRCLE
  5
1BC9
  8
0
  6
CONTINUOUS
 62
     2
 10
200.8270858873796101
 20
111.9975071707279
 30
0.0
 40
0.7500000000000853
  0
CIRCLE
  5
1BCA
  8
0
  6
CONTINUOUS
 62
     2
 10
205.0819239408523913
 20
110.3051558068798954
 30
0.0
 40
1.999999999999942
  0
CIRCLE
  5
1BCB
  8
0
  6
CONTINUOUS
 62
     2
 10
223.0439392513409871
 20
60.8929590233629767
 30
0.0
 40
0.7500000000001421
  0
CIRCLE
  5
1BCC
  8
0
  6
CONTINUOUS
 62
     2
 10
216.6466459231037902
 20
54.3396821276039574
 30
0.0
 40
0.8499999999998806
  0
CIRCLE
  5
1BCD
  8
0
  6
CONTINUOUS
 62
     2
 10
226.5846255465594083
 20
56.4520649063124225
 30
0.0
 40
0.8499999999999091
  0
CIRCLE
  5
1BCE
  8
0
  6
CONTINUOUS
 62
     2
 10
223.9140745771175887
 20
50.6909315525690403
 30
0.0
 40
0.5
  0
CIRCLE
  5
1BCF
  8
0
  6
CONTINUOUS
 62
     2
 10
221.4295796712538049
 20
50.1628358578918068
 30
0.0
 40
0.4999999999998579
  0
CIRCLE
  5
1BD0
  8
0
  6
CONTINUOUS
 62
     2
 10
217.3607976813586049
 20
57.0882248808063082
 30
0.0
 40
0.7500000000000571
  0
CIRCLE
  5
1BD1
  8
0
  6
CONTINUOUS
 62
     2
 10
221.6156357348314998
 20
55.3958735169581971
 30
0.0
 40
1.9999999999999141
  0
CIRCLE
  5
1BD2
  8
0
  6
CONTINUOUS
 62
     2
 10
228.4039392513411997
 20
81.5029590233629762
 30
0.0
 40
0.7500000000000571
  0
CIRCLE
  5
1BD3
  8
0
  6
CONTINUOUS
 62
     2
 10
222.0066459231038891
 20
74.9496821276039498
 30
0.0
 40
0.8499999999999091
  0
CIRCLE
  5
1BD4
  8
0
  6
CONTINUOUS
 62
     2
 10
231.9446255465593083
 20
77.0620649063123295
 30
0.0
 40
0.8499999999998806
  0
CIRCLE
  5
1BD5
  8
0
  6
CONTINUOUS
 62
     2
 10
229.2740745771176876
 20
71.300931552568926
 30
0.0
 40
0.4999999999999716
  0
CIRCLE
  5
1BD6
  8
0
  6
CONTINUOUS
 62
     2
 10
226.7895796712537901
 20
70.7728358578918488
 30
0.0
 40
0.4999999999997728
  0
CIRCLE
  5
1BD7
  8
0
  6
CONTINUOUS
 62
     2
 10
222.7207976813585901
 20
77.6982248808063076
 30
0.0
 40
0.7500000000001421
  0
CIRCLE
  5
1BD8
  8
0
  6
CONTINUOUS
 62
     2
 10
226.9756357348315134
 20
76.0058735169581041
 30
0.0
 40
1.999999999999857
  0
CIRCLE
  5
1BD9
  8
0
  6
CONTINUOUS
 62
     2
 10
219.7839392513411951
 20
99.1529590233630245
 30
0.0
 40
0.7500000000000853
  0
CIRCLE
  5
1BDA
  8
0
  6
CONTINUOUS
 62
     2
 10
213.3866459231039983
 20
92.599682127603927
 30
0.0
 40
0.8499999999999091
  0
CIRCLE
  5
1BDB
  8
0
  6
CONTINUOUS
 62
     2
 10
223.3246255465593038
 20
94.7120649063122357
 30
0.0
 40
0.8499999999999091
  0
CIRCLE
  5
1BDC
  8
0
  6
CONTINUOUS
 62
     2
 10
220.6540745771177114
 20
88.9509315525689459
 30
0.0
 40
0.4999999999999433
  0
CIRCLE
  5
1BDD
  8
0
  6
CONTINUOUS
 62
     2
 10
218.169579671253814
 20
88.4228358578918545
 30
0.0
 40
0.4999999999998012
  0
CIRCLE
  5
1BDE
  8
0
  6
CONTINUOUS
 62
     2
 10
214.1007976813586993
 20
95.3482248808061712
 30
0.0
 40
0.7500000000001421
  0
CIRCLE
  5
1BDF
  8
0
  6
CONTINUOUS
 62
     2
 10
218.3556357348315089
 20
93.6558735169581666
 30
0.0
 40
1.9999999999999141
  0
CIRCLE
  5
1BE0
  8
0
  6
CONTINUOUS
 62
     2
 10
225.1439392513410951
 20
119.7629590233627965
 30
0.0
 40
0.7500000000001137
  0
CIRCLE
  5
1BE1
  8
0
  6
CONTINUOUS
 62
     2
 10
218.7466459231038129
 20
113.2096821276037986
 30
0.0
 40
0.8499999999999091
  0
CIRCLE
  5
1BE2
  8
0
  6
CONTINUOUS
 62
     2
 10
228.684625546559289
 20
115.3220649063124057
 30
0.0
 40
0.8499999999999373
  0
CIRCLE
  5
1BE3
  8
0
  6
CONTINUOUS
 62
     2
 10
226.0140745771174977
 20
109.5609315525689027
 30
0.0
 40
0.4999999999999433
  0
CIRCLE
  5
1BE4
  8
0
  6
CONTINUOUS
 62
     2
 10
223.529579671253714
 20
109.0328358578916976
 30
0.0
 40
0.4999999999998864
  0
CIRCLE
  5
1BE5
  8
0
  6
CONTINUOUS
 62
     2
 10
219.460797681358514
 20
115.9582248808061991
 30
0.0
 40
0.7500000000000853
  0
CIRCLE
  5
1BE6
  8
0
  6
CONTINUOUS
 62
     2
 10
223.7156357348314941
 20
114.265873516958095
 30
0.0
 40
1.9999999999998861
  0
CIRCLE
  5
1BE7
  8
0
  6
CONTINUOUS
 62
     2
 10
241.6776510453200046
 20
64.8536767334413184
 30
0.0
 40
0.7500000000001708
  0
CIRCLE
  5
1BE8
  8
0
  6
CONTINUOUS
 62
     2
 10
235.280357717082893
 20
58.3003998376822707
 30
0.0
 40
0.8499999999999091
  0
CIRCLE
  5
1BE9
  8
0
  6
CONTINUOUS
 62
     2
 10
245.2183373405381985
 20
60.4127826163907287
 30
0.0
 40
0.8499999999999091
  0
CIRCLE
  5
1BEA
  8
0
  6
CONTINUOUS
 62
     2
 10
242.5477863710966915
 20
54.6516492626474104
 30
0.0
 40
0.4999999999999716
  0
CIRCLE
  5
1BEB
  8
0
  6
CONTINUOUS
 62
     2
 10
240.0632914652327088
 20
54.1235535679701627
 30
0.0
 40
0.4999999999998864
  0
CIRCLE
  5
1BEC
  8
0
  6
CONTINUOUS
 62
     2
 10
235.9945094753375088
 20
61.0489425908846499
 30
0.0
 40
0.7500000000000853
  0
CIRCLE
  5
1BED
  8
0
  6
CONTINUOUS
 62
     2
 10
240.2493475288104889
 20
59.3565912270365104
 30
0.0
 40
1.9999999999999141
  0
CIRCLE
  5
1BEE
  8
0
  6
CONTINUOUS
 62
     2
 10
247.0376510453201888
 20
85.4636767334412752
 30
0.0
 40
0.7500000000000853
  0
CIRCLE
  5
1BEF
  8
0
  6
CONTINUOUS
 62
     2
 10
240.640357717082793
 20
78.9103998376822915
 30
0.0
 40
0.8499999999999091
  0
CIRCLE
  5
1BF0
  8
0
  6
CONTINUOUS
 62
     2
 10
250.5783373405382974
 20
81.0227826163906713
 30
0.0
 40
0.8499999999999091
  0
CIRCLE
  5
1BF1
  8
0
  6
CONTINUOUS
 62
     2
 10
247.9077863710965914
 20
75.2616492626472393
 30
0.0
 40
0.4999999999999433
  0
CIRCLE
  5
1BF2
  8
0
  6
CONTINUOUS
 62
     2
 10
245.423291465232694
 20
74.7335535679701337
 30
0.0
 40
0.4999999999998012
  0
CIRCLE
  5
1BF3
  8
0
  6
CONTINUOUS
 62
     2
 10
241.3545094753376077
 20
81.6589425908846351
 30
0.0
 40
0.7500000000001708
  0
CIRCLE
  5
1BF4
  8
0
  6
CONTINUOUS
 62
     2
 10
245.6093475288105026
 20
79.9665912270364174
 30
0.0
 40
1.9999999999998861
  0
CIRCLE
  5
1BF5
  8
0
  6
CONTINUOUS
 62
     2
 10
238.417651045320298
 20
103.1136767334412951
 30
0.0
 40
0.7500000000001137
  0
CIRCLE
  5
1BF6
  8
0
  6
CONTINUOUS
 62
     2
 10
232.0203577170829874
 20
96.5603998376822545
 30
0.0
 40
0.8499999999999373
  0
CIRCLE
  5
1BF7
  8
0
  6
CONTINUOUS
 62
     2
 10
241.9583373405382929
 20
98.6727826163905917
 30
0.0
 40
0.8499999999999091
  0
CIRCLE
  5
1BF8
  8
0
  6
CONTINUOUS
 62
     2
 10
239.2877863710965869
 20
92.9116492626472734
 30
0.0
 40
0.4999999999999716
  0
CIRCLE
  5
1BF9
  8
0
  6
CONTINUOUS
 62
     2
 10
236.8032914652328031
 20
92.3835535679700541
 30
0.0
 40
0.4999999999998012
  0
CIRCLE
  5
1BFA
  8
0
  6
CONTINUOUS
 62
     2
 10
232.7345094753376884
 20
99.3089425908844703
 30
0.0
 40
0.7500000000001708
  0
CIRCLE
  5
1BFB
  8
0
  6
CONTINUOUS
 62
     2
 10
236.989347528810498
 20
97.6165912270364942
 30
0.0
 40
1.9999999999999141
  0
CIRCLE
  5
1BFC
  8
0
  6
CONTINUOUS
 62
     2
 10
243.7776510453201979
 20
123.7236767334412946
 30
0.0
 40
0.7500000000001421
  0
CIRCLE
  5
1BFD
  8
0
  6
CONTINUOUS
 62
     2
 10
237.3803577170828873
 20
117.1703998376820977
 30
0.0
 40
0.8499999999998806
  0
CIRCLE
  5
1BFE
  8
0
  6
CONTINUOUS
 62
     2
 10
247.3183373405383065
 20
119.2827826163907048
 30
0.0
 40
0.8499999999999091
  0
CIRCLE
  5
1BFF
  8
0
  6
CONTINUOUS
 62
     2
 10
244.6477863710964868
 20
113.5216492626472018
 30
0.0
 40
0.4999999999999716
  0
CIRCLE
  5
1C00
  8
0
  6
CONTINUOUS
 62
     2
 10
242.1632914652325894
 20
112.9935535679700962
 30
0.0
 40
0.4999999999998579
  0
CIRCLE
  5
1C01
  8
0
  6
CONTINUOUS
 62
     2
 10
238.0945094753375884
 20
119.9189425908845976
 30
0.0
 40
0.7500000000001137
  0
CIRCLE
  5
1C02
  8
0
  6
CONTINUOUS
 62
     2
 10
242.3493475288105117
 20
118.2265912270363941
 30
0.0
 40
1.999999999999857
  0
CIRCLE
  5
1C03
  8
0
  6
CONTINUOUS
 62
     2
 10
265.1213628392990813
 20
48.8243944435195587
 30
0.0
 40
0.7500000000001421
  0
CIRCLE
  5
1C04
  8
0
  6
CONTINUOUS
 62
     2
 10
258.7240695110618276
 20
42.2711175477605465
 30
0.0
 40
0.8499999999998806
  0
CIRCLE
  5
1C05
  8
0
  6
CONTINUOUS
 62
     2
 10
268.6620491345170763
 20
44.3835003264689973
 30
0.0
 40
0.8499999999999373
  0
CIRCLE
  5
1C06
  8
0
  6
CONTINUOUS
 62
     2
 10
265.9914981650754839
 20
38.6223669727255512
 30
0.0
 40
0.4999999999999716
  0
CIRCLE
  5
1C07
  8
0
  6
CONTINUOUS
 62
     2
 10
263.5070032592115012
 20
38.094271278048403
 30
0.0
 40
0.4999999999998579
  0
CIRCLE
  5
1C08
  8
0
  6
CONTINUOUS
 62
     2
 10
259.4382212693163865
 20
45.0196603009629968
 30
0.0
 40
0.7500000000000853
  0
CIRCLE
  5
1C09
  8
0
  6
CONTINUOUS
 62
     2
 10
263.6930593227892814
 20
43.3273089371147009
 30
0.0
 40
1.9999999999998861
  0
CIRCLE
  5
1C0A
  8
0
  6
CONTINUOUS
 62
     2
 10
260.311362839299079
 20
68.8143944435196033
 30
0.0
 40
0.7500000000001421
  0
CIRCLE
  5
1C0B
  8
0
  6
CONTINUOUS
 62
     2
 10
253.9140695110619106
 20
62.2611175477605769
 30
0.0
 40
0.8499999999998806
  0
CIRCLE
  5
1C0C
  8
0
  6
CONTINUOUS
 62
     2
 10
263.8520491345171877
 20
64.3735003264690562
 30
0.0
 40
0.8499999999999091
  0
CIRCLE
  5
1C0D
  8
0
  6
CONTINUOUS
 62
     2
 10
261.1814981650755954
 20
58.6123669727256598
 30
0.0
 40
0.5
  0
CIRCLE
  5
1C0E
  8
0
  6
CONTINUOUS
 62
     2
 10
258.6970032592116127
 20
58.0842712780484902
 30
0.0
 40
0.4999999999998579
  0
CIRCLE
  5
1C0F
  8
0
  6
CONTINUOUS
 62
     2
 10
254.6282212693166116
 20
65.0096603009629632
 30
0.0
 40
0.7500000000000571
  0
CIRCLE
  5
1C10
  8
0
  6
CONTINUOUS
 62
     2
 10
258.8830593227892791
 20
63.3173089371148592
 30
0.0
 40
1.999999999999942
  0
CIRCLE
  5
1C11
  8
0
  6
CONTINUOUS
 62
     2
 10
265.6713628392992064
 20
89.4243944435195885
 30
0.0
 40
0.7500000000001137
  0
CIRCLE
  5
1C12
  8
0
  6
CONTINUOUS
 62
     2
 10
259.2740695110617821
 20
82.8711175477606048
 30
0.0
 40
0.8499999999998806
  0
CIRCLE
  5
1C13
  8
0
  6
CONTINUOUS
 62
     2
 10
269.212049134517315
 20
84.983500326469013
 30
0.0
 40
0.8499999999999091
  0
CIRCLE
  5
1C14
  8
0
  6
CONTINUOUS
 62
     2
 10
266.5414981650754953
 20
79.2223669727255384
 30
0.0
 40
0.4999999999999716
  0
CIRCLE
  5
1C15
  8
0
  6
CONTINUOUS
 62
     2
 10
264.0570032592119105
 20
78.6942712780484754
 30
0.0
 40
0.4999999999997728
  0
CIRCLE
  5
1C16
  8
0
  6
CONTINUOUS
 62
     2
 10
259.9882212693166821
 20
85.6196603009629769
 30
0.0
 40
0.7500000000001421
  0
CIRCLE
  5
1C17
  8
0
  6
CONTINUOUS
 62
     2
 10
264.2430593227895201
 20
83.9273089371147165
 30
0.0
 40
1.999999999999857
  0
CIRCLE
  5
1C18
  8
0
  6
CONTINUOUS
 62
     2
 10
257.0513628392992018
 20
107.0743944435196937
 30
0.0
 40
0.7500000000000853
  0
CIRCLE
  5
1C19
  8
0
  6
CONTINUOUS
 62
     2
 10
250.6540695110620049
 20
100.5211175477604968
 30
0.0
 40
0.8499999999999091
  0
CIRCLE
  5
1C1A
  8
0
  6
CONTINUOUS
 62
     2
 10
260.5920491345173104
 20
102.633500326468905
 30
0.0
 40
0.8499999999999091
  0
CIRCLE
  5
1C1B
  8
0
  6
CONTINUOUS
 62
     2
 10
257.9214981650756044
 20
96.8723669727256009
 30
0.0
 40
0.4999999999999433
  0
CIRCLE
  5
1C1C
  8
0
  6
CONTINUOUS
 62
     2
 10
255.4370032592117923
 20
96.3442712780484101
 30
0.0
 40
0.4999999999997728
  0
CIRCLE
  5
1C1D
  8
0
  6
CONTINUOUS
 62
     2
 10
251.368221269316507
 20
103.2696603009626983
 30
0.0
 40
0.7500000000001421
  0
CIRCLE
  5
1C1E
  8
0
  6
CONTINUOUS
 62
     2
 10
255.6230593227894872
 20
101.5773089371147933
 30
0.0
 40
1.9999999999999141
  0
CIRCLE
  5
1C1F
  8
0
  6
CONTINUOUS
 62
     2
 10
262.4113628392991018
 20
127.6843944435194942
 30
0.0
 40
0.7500000000001137
  0
CIRCLE
  5
1C20
  8
0
  6
CONTINUOUS
 62
     2
 10
256.0140695110617912
 20
121.1311175477604962
 30
0.0
 40
0.8499999999999091
  0
CIRCLE
  5
1C21
  8
0
  6
CONTINUOUS
 62
     2
 10
265.9520491345173241
 20
123.2435003264690039
 30
0.0
 40
0.8499999999999091
  0
CIRCLE
  5
1C22
  8
0
  6
CONTINUOUS
 62
     2
 10
263.2814981650756181
 20
117.4823669727256004
 30
0.0
 40
0.4999999999999716
  0
CIRCLE
  5
1C23
  8
0
  6
CONTINUOUS
 62
     2
 10
260.7970032592116922
 20
116.9542712780482958
 30
0.0
 40
0.4999999999998296
  0
CIRCLE
  5
1C24
  8
0
  6
CONTINUOUS
 62
     2
 10
173.2348809999444939
 20
55.8760499239303883
 30
0.0
 40
0.7500000000000853
  0
CIRCLE
  5
1C25
  8
0
  6
CONTINUOUS
 62
     2
 10
164.725204892998903
 20
52.4913471962340665
 30
0.0
 40
0.8499999999999091
  0
CIRCLE
  5
1C26
  8
0
  6
CONTINUOUS
 62
     2
 10
174.6631845164540948
 20
50.3789644175256228
 30
0.0
 40
0.8499999999999091
  0
CIRCLE
  5
1C27
  8
0
  6
CONTINUOUS
 62
     2
 10
169.8802507683041085
 20
46.2021181478136
 30
0.0
 40
0.4999999999999433
  0
CIRCLE
  5
1C28
  8
0
  6
CONTINUOUS
 62
     2
 10
167.3957558624402111
 20
46.7302138424905777
 30
0.0
 40
0.4999999999998296
  0
CIRCLE
  5
1C29
  8
0
  6
CONTINUOUS
 62
     2
 10
166.4955480406075878
 20
54.7117942547592122
 30
0.0
 40
0.7500000000001421
  0
CIRCLE
  5
1C2A
  8
0
  6
CONTINUOUS
 62
     2
 10
169.6941947047264136
 20
51.4351558068798127
 30
0.0
 40
1.9999999999999141
  0
CIRCLE
  5
1C2B
  8
0
  6
CONTINUOUS
 62
     2
 10
167.8848809999443858
 20
76.486049923930338
 30
0.0
 40
0.7500000000001708
  0
CIRCLE
  5
1C2C
  8
0
  6
CONTINUOUS
 62
     2
 10
159.375204892998795
 20
73.1013471962340446
 30
0.0
 40
0.849999999999923
  0
CIRCLE
  5
1C2D
  8
0
  6
CONTINUOUS
 62
     2
 10
169.3131845164542142
 20
70.9889644175254944
 30
0.0
 40
0.8499999999999091
  0
CIRCLE
  5
1C2E
  8
0
  6
CONTINUOUS
 62
     2
 10
164.5302507683040858
 20
66.8121181478136066
 30
0.0
 40
0.4999999999999433
  0
CIRCLE
  5
1C2F
  8
0
  6
CONTINUOUS
 62
     2
 10
162.0457558624401884
 20
67.3402138424905701
 30
0.0
 40
0.4999999999998296
  0
CIRCLE
  5
1C30
  8
0
  6
CONTINUOUS
 62
     2
 10
161.1455480406077072
 20
75.3217942547592401
 30
0.0
 40
0.7500000000001137
  0
CIRCLE
  5
1C31
  8
0
  6
CONTINUOUS
 62
     2
 10
164.3441947047263909
 20
72.045155806879805
 30
0.0
 40
1.999999999999857
  0
CIRCLE
  5
1C32
  8
0
  6
CONTINUOUS
 62
     2
 10
167.1848809999445962
 20
96.1160499239304755
 30
0.0
 40
0.7500000000001708
  0
CIRCLE
  5
1C33
  8
0
  6
CONTINUOUS
 62
     2
 10
158.6752048929988064
 20
92.7313471962340543
 30
0.0
 40
0.849999999999923
  0
CIRCLE
  5
1C34
  8
0
  6
CONTINUOUS
 62
     2
 10
168.6131845164543961
 20
90.6189644175256603
 30
0.0
 40
0.8499999999999091
  0
CIRCLE
  5
1C35
  8
0
  6
CONTINUOUS
 62
     2
 10
163.8302507683040972
 20
86.4421181478135168
 30
0.0
 40
0.4999999999999433
  0
CIRCLE
  5
1C36
  8
0
  6
CONTINUOUS
 62
     2
 10
161.3457558624403987
 20
86.9702138424907076
 30
0.0
 40
0.4999999999998296
  0
CIRCLE
  5
1C37
  8
0
  6
CONTINUOUS
 62
     2
 10
160.4455480406078891
 20
94.9517942547593208
 30
0.0
 40
0.7500000000001137
  0
CIRCLE
  5
1C38
  8
0
  6
CONTINUOUS
 62
     2
 10
163.6441947047264023
 20
91.6751558068799284
 30
0.0
 40
1.999999999999942
  0
CIRCLE
  5
1C39
  8
0
  6
CONTINUOUS
 62
     2
 10
180.464880999944512
 20
112.7660499239304954
 30
0.0
 40
0.7500000000001421
  0
CIRCLE
  5
1C3A
  8
0
  6
CONTINUOUS
 62
     2
 10
171.9552048929988075
 20
109.3813471962340031
 30
0.0
 40
0.8499999999998806
  0
CIRCLE
  5
1C3B
  8
0
  6
CONTINUOUS
 62
     2
 10
181.8931845164541983
 20
107.2689644175254955
 30
0.0
 40
0.8499999999999091
  0
CIRCLE
  5
1C3C
  8
0
  6
CONTINUOUS
 62
     2
 10
177.1102507683040983
 20
103.0921181478135935
 30
0.0
 40
0.4999999999999433
  0
CIRCLE
  5
1C3D
  8
0
  6
CONTINUOUS
 62
     2
 10
174.6257558624402009
 20
103.6202138424905996
 30
0.0
 40
0.4999999999998296
  0
CIRCLE
  5
1C3E
  8
0
  6
CONTINUOUS
 62
     2
 10
173.7255480406076913
 20
111.601794254759298
 30
0.0
 40
0.7500000000001137
  0
CIRCLE
  5
1C3F
  8
0
  6
CONTINUOUS
 62
     2
 10
176.9241947047262897
 20
108.3251558068798062
 30
0.0
 40
1.9999999999998861
  0
CIRCLE
  5
1C40
  8
0
  6
CONTINUOUS
 62
     2
 10
154.601169205965391
 20
59.8367676340086874
 30
0.0
 40
0.7500000000001137
  0
CIRCLE
  5
1C41
  8
0
  6
CONTINUOUS
 62
     2
 10
146.0914930990196865
 20
56.4520649063123727
 30
0.0
 40
0.8499999999999091
  0
CIRCLE
  5
1C42
  8
0
  6
CONTINUOUS
 62
     2
 10
156.0294727224753046
 20
54.3396821276038295
 30
0.0
 40
0.8499999999999091
  0
CIRCLE
  5
1C43
  8
0
  6
CONTINUOUS
 62
     2
 10
151.2465389743250057
 20
50.1628358578918281
 30
0.0
 40
0.4999999999999575
  0
CIRCLE
  5
1C44
  8
0
  6
CONTINUOUS
 62
     2
 10
148.7620440684611935
 20
50.6909315525689692
 30
0.0
 40
0.4999999999998579
  0
CIRCLE
  5
1C45
  8
0
  6
CONTINUOUS
 62
     2
 10
147.8618362466287977
 20
58.6725119648375468
 30
0.0
 40
0.7500000000001421
  0
CIRCLE
  5
1C46
  8
0
  6
CONTINUOUS
 62
     2
 10
151.0604829107473961
 20
55.3958735169581331
 30
0.0
 40
1.9999999999998861
  0
CIRCLE
  5
1C47
  8
0
  6
CONTINUOUS
 62
     2
 10
149.2511692059655104
 20
80.4467676340086939
 30
0.0
 40
0.7500000000001421
  0
CIRCLE
  5
1C48
  8
0
  6
CONTINUOUS
 62
     2
 10
140.7414930990196922
 20
77.0620649063123011
 30
0.0
 40
0.849999999999923
  0
CIRCLE
  5
1C49
  8
0
  6
CONTINUOUS
 62
     2
 10
150.6794727224753103
 20
74.9496821276038787
 30
0.0
 40
0.8499999999998806
  0
CIRCLE
  5
1C4A
  8
0
  6
CONTINUOUS
 62
     2
 10
145.8965389743250967
 20
70.7728358578918062
 30
0.0
 40
0.4999999999999433
  0
CIRCLE
  5
1C4B
  8
0
  6
CONTINUOUS
 62
     2
 10
143.4120440684613129
 20
71.3009315525689402
 30
0.0
 40
0.4999999999998437
  0
CIRCLE
  5
1C4C
  8
0
  6
CONTINUOUS
 62
     2
 10
142.5118362466286897
 20
79.2825119648375818
 30
0.0
 40
0.7500000000001137
  0
CIRCLE
  5
1C4D
  8
0
  6
CONTINUOUS
 62
     2
 10
145.7104829107472881
 20
76.0058735169581183
 30
0.0
 40
1.9999999999998861
  0
CIRCLE
  5
1C4E
  8
0
  6
CONTINUOUS
 62
     2
 10
148.5511692059654933
 20
100.076767634008803
 30
0.0
 40
0.7500000000001279
  0
CIRCLE
  5
1C4F
  8
0
  6
CONTINUOUS
 62
     2
 10
140.0414930990199025
 20
96.6920649063123392
 30
0.0
 40
0.8499999999998948
  0
CIRCLE
  5
1C50
  8
0
  6
CONTINUOUS
 62
     2
 10
149.979472722475208
 20
94.5796821276038884
 30
0.0
 40
0.8499999999999091
  0
CIRCLE
  5
1C51
  8
0
  6
CONTINUOUS
 62
     2
 10
145.196538974325108
 20
90.4028358578918159
 30
0.0
 40
0.4999999999999575
  0
CIRCLE
  5
1C52
  8
0
  6
CONTINUOUS
 62
     2
 10
142.7120440684612959
 20
90.9309315525689073
 30
0.0
 40
0.4999999999998579
  0
CIRCLE
  5
1C53
  8
0
  6
CONTINUOUS
 62
     2
 10
141.8118362466287863
 20
98.9125119648376341
 30
0.0
 40
0.7500000000001279
  0
CIRCLE
  5
1C54
  8
0
  6
CONTINUOUS
 62
     2
 10
145.0104829107474131
 20
95.635873516958128
 30
0.0
 40
1.9999999999998861
  0
CIRCLE
  5
1C55
  8
0
  6
CONTINUOUS
 62
     2
 10
161.8311692059654945
 20
116.7267676340084961
 30
0.0
 40
0.7500000000001421
  0
CIRCLE
  5
1C56
  8
0
  6
CONTINUOUS
 62
     2
 10
153.32149309901979
 20
113.3420649063122028
 30
0.0
 40
0.8499999999998948
  0
CIRCLE
  5
1C57
  8
0
  6
CONTINUOUS
 62
     2
 10
163.2594727224750955
 20
111.2296821276038941
 30
0.0
 40
0.8499999999999091
  0
CIRCLE
  5
1C58
  8
0
  6
CONTINUOUS
 62
     2
 10
158.4765389743249955
 20
107.0528358578916936
 30
0.0
 40
0.499999999999929
  0
CIRCLE
  5
1C59
  8
0
  6
CONTINUOUS
 62
     2
 10
155.992044068461297
 20
107.5809315525688987
 30
0.0
 40
0.4999999999998437
  0
CIRCLE
  5
1C5A
  8
0
  6
CONTINUOUS
 62
     2
 10
155.0918362466287022
 20
115.5625119648374977
 30
0.0
 40
0.7500000000001137
  0
CIRCLE
  5
1C5B
  8
0
  6
CONTINUOUS
 62
     2
 10
158.2904829107474995
 20
112.2858735169582047
 30
0.0
 40
1.9999999999998721
  0
CIRCLE
  5
1C5C
  8
0
  6
CONTINUOUS
 62
     2
 10
135.9674574119864019
 20
63.7974853440870504
 30
0.0
 40
0.7500000000001564
  0
CIRCLE
  5
1C5D
  8
0
  6
CONTINUOUS
 62
     2
 10
127.4577813050407968
 20
60.4127826163906434
 30
0.0
 40
0.8499999999999091
  0
CIRCLE
  5
1C5E
  8
0
  6
CONTINUOUS
 62
     2
 10
137.3957609284962018
 20
58.30039983768215
 30
0.0
 40
0.8499999999998948
  0
CIRCLE
  5
1C5F
  8
0
  6
CONTINUOUS
 62
     2
 10
132.6128271803461018
 20
54.1235535679701769
 30
0.0
 40
0.4999999999999716
  0
CIRCLE
  5
1C60
  8
0
  6
CONTINUOUS
 62
     2
 10
130.1283322744822044
 20
54.6516492626472328
 30
0.0
 40
0.4999999999998437
  0
CIRCLE
  5
1C61
  8
0
  6
CONTINUOUS
 62
     2
 10
129.2281244526496948
 20
62.6332296749159099
 30
0.0
 40
0.7500000000001708
  0
CIRCLE
  5
1C62
  8
0
  6
CONTINUOUS
 62
     2
 10
132.426771116768407
 20
59.3565912270364322
 30
0.0
 40
1.9999999999998419
  0
CIRCLE
  5
1C63
  8
0
  6
CONTINUOUS
 62
     2
 10
130.6174574119864928
 20
84.407485344086993
 30
0.0
 40
0.7500000000001137
  0
CIRCLE
  5
1C64
  8
0
  6
CONTINUOUS
 62
     2
 10
122.1077813050408025
 20
81.0227826163906144
 30
0.0
 40
0.8499999999999091
  0
CIRCLE
  5
1C65
  8
0
  6
CONTINUOUS
 62
     2
 10
132.0457609284962075
 20
78.910399837682121
 30
0.0
 40
0.849999999999923
  0
CIRCLE
  5
1C66
  8
0
  6
CONTINUOUS
 62
     2
 10
127.2628271803460933
 20
74.7335535679701337
 30
0.0
 40
0.4999999999999716
  0
CIRCLE
  5
1C67
  8
0
  6
CONTINUOUS
 62
     2
 10
124.7783322744821959
 20
75.2616492626471825
 30
0.0
 40
0.4999999999998579
  0
CIRCLE
  5
1C68
  8
0
  6
CONTINUOUS
 62
     2
 10
123.8781244526497005
 20
83.2432296749158667
 30
0.0
 40
0.7500000000001137
  0
CIRCLE
  5
1C69
  8
0
  6
CONTINUOUS
 62
     2
 10
127.0767711167684979
 20
79.9665912270364174
 30
0.0
 40
1.9999999999998721
  0
CIRCLE
  5
1C6A
  8
0
  6
CONTINUOUS
 62
     2
 10
129.9174574119865042
 20
104.0374853440871021
 30
0.0
 40
0.7500000000001137
  0
CIRCLE
  5
1C6B
  8
0
  6
CONTINUOUS
 62
     2
 10
121.4077813050408992
 20
100.6527826163904962
 30
0.0
 40
0.8499999999999091
  0
CIRCLE
  5
1C6C
  8
0
  6
CONTINUOUS
 62
     2
 10
131.3457609284961904
 20
98.5403998376822017
 30
0.0
 40
0.8499999999999091
  0
CIRCLE
  5
1C6D
  8
0
  6
CONTINUOUS
 62
     2
 10
126.5628271803461047
 20
94.363553567970115
 30
0.0
 40
0.4999999999999575
  0
CIRCLE
  5
1C6E
  8
0
  6
CONTINUOUS
 62
     2
 10
124.078332274482193
 20
94.891649262647249
 30
0.0
 40
0.4999999999998437
  0
CIRCLE
  5
1C6F
  8
0
  6
CONTINUOUS
 62
     2
 10
123.1781244526497971
 20
102.8732296749159048
 30
0.0
 40
0.7500000000000995
  0
CIRCLE
  5
1C70
  8
0
  6
CONTINUOUS
 62
     2
 10
126.3767711167683956
 20
99.5965912270364413
 30
0.0
 40
1.9999999999998861
  0
CIRCLE
  5
1C71
  8
0
  6
CONTINUOUS
 62
     2
 10
143.1974574119865053
 20
120.6874853440868947
 30
0.0
 40
0.7500000000001421
  0
CIRCLE
  5
1C72
  8
0
  6
CONTINUOUS
 62
     2
 10
134.6877813050406871
 20
117.3027826163906013
 30
0.0
 40
0.849999999999923
  0
CIRCLE
  5
1C73
  8
0
  6
CONTINUOUS
 62
     2
 10
144.6257609284963053
 20
115.1903998376821932
 30
0.0
 40
0.8499999999998948
  0
CIRCLE
  5
1C74
  8
0
  6
CONTINUOUS
 62
     2
 10
139.8428271803460916
 20
111.0135535679701064
 30
0.0
 40
0.499999999999929
  0
CIRCLE
  5
1C75
  8
0
  6
CONTINUOUS
 62
     2
 10
137.3583322744823079
 20
111.5416492626470983
 30
0.0
 40
0.4999999999998437
  0
CIRCLE
  5
1C76
  8
0
  6
CONTINUOUS
 62
     2
 10
136.458124452649713
 20
119.5232296749158962
 30
0.0
 40
0.7500000000001421
  0
CIRCLE
  5
1C77
  8
0
  6
CONTINUOUS
 62
     2
 10
139.6567711167683115
 20
116.2465912270364043
 30
0.0
 40
1.9999999999998861
  0
CIRCLE
  5
1C78
  8
0
  6
CONTINUOUS
 62
     2
 10
300.9730593227894246
 20
69.9573089371147034
 30
0.0
 40
0.7500000000001708
  0
CIRCLE
  5
1C79
  8
0
  6
CONTINUOUS
 62
     2
 10
293.353059322789818
 20
64.8773089371145488
 30
0.0
 40
0.8499999999998522
  0
CIRCLE
  5
1C7A
  8
0
  6
CONTINUOUS
 62
     2
 10
303.5130593227893883
 20
64.8773089371147762
 30
0.0
 40
0.8499999999999091
  0
CIRCLE
  5
1C7B
  8
0
  6
CONTINUOUS
 62
     2
 10
299.7030593227896134
 20
59.7973089371146571
 30
0.0
 40
0.4999999999998864
  0
CIRCLE
  5
1C7C
  8
0
  6
CONTINUOUS
 62
     2
 10
297.163059322789195
 20
59.7973089371147069
 30
0.0
 40
0.4999999999998864
  0
CIRCLE
  5
1C7D
  8
0
  6
CONTINUOUS
 62
     2
 10
294.6230593227892882
 20
67.4173089371146546
 30
0.0
 40
0.7500000000001708
  0
CIRCLE
  5
1C7E
  8
0
  6
CONTINUOUS
 62
     2
 10
298.4330593227892905
 20
64.8773089371145488
 30
0.0
 40
1.999999999999942
  0
CIRCLE
  5
1C7F
  8
0
  6
CONTINUOUS
 62
     2
 10
281.923059322789527
 20
69.9573089371146892
 30
0.0
 40
0.7500000000001421
  0
CIRCLE
  5
1C80
  8
0
  6
CONTINUOUS
 62
     2
 10
274.3030593227895793
 20
64.8773089371146341
 30
0.0
 40
0.8499999999999091
  0
CIRCLE
  5
1C81
  8
0
  6
CONTINUOUS
 62
     2
 10
284.4630593227896043
 20
64.8773089371147762
 30
0.0
 40
0.8499999999999091
  0
CIRCLE
  5
1C82
  8
0
  6
CONTINUOUS
 62
     2
 10
280.6530593227894883
 20
59.7973089371147992
 30
0.0
 40
0.4999999999999433
  0
CIRCLE
  5
1C83
  8
0
  6
CONTINUOUS
 62
     2
 10
278.1130593227895247
 20
59.7973089371147282
 30
0.0
 40
0.4999999999998579
  0
CIRCLE
  5
1C84
  8
0
  6
CONTINUOUS
 62
     2
 10
275.5730593227895042
 20
67.4173089371147256
 30
0.0
 40
0.7500000000001421
  0
CIRCLE
  5
1C85
  8
0
  6
CONTINUOUS
 62
     2
 10
279.3830593227895065
 20
64.8773089371147336
 30
0.0
 40
1.999999999999857
  0
CIRCLE
  5
1C86
  8
0
  6
CONTINUOUS
 62
     2
 10
344.9186593227896083
 20
50.8593089371144629
 30
0.0
 40
0.7500000000001137
  0
CIRCLE
  5
1C87
  8
0
  6
CONTINUOUS
 62
     2
 10
337.2986593227897174
 20
45.7793089371147701
 30
0.0
 40
0.8499999999999091
  0
CIRCLE
  5
1C88
  8
0
  6
CONTINUOUS
 62
     2
 10
347.4586593227895719
 20
45.7793089371147701
 30
0.0
 40
0.8499999999999091
  0
CIRCLE
  5
1C89
  8
0
  6
CONTINUOUS
 62
     2
 10
343.6486593227895128
 20
40.6993089371147789
 30
0.0
 40
0.4999999999999433
  0
CIRCLE
  5
1C8A
  8
0
  6
CONTINUOUS
 62
     2
 10
341.1086593227893218
 20
40.699308937114651
 30
0.0
 40
0.4999999999998864
  0
CIRCLE
  5
1C8B
  8
0
  6
CONTINUOUS
 62
     2
 10
338.568659322789415
 20
48.3193089371146201
 30
0.0
 40
0.7500000000001708
  0
CIRCLE
  5
1C8C
  8
0
  6
CONTINUOUS
 62
     2
 10
342.3786593227894741
 20
45.7793089371148412
 30
0.0
 40
1.9999999999998861
  0
CIRCLE
  5
1C8D
  8
0
  6
CONTINUOUS
 62
     2
 10
353.3618093227893269
 20
69.9573089371145755
 30
0.0
 40
0.7500000000001137
  0
CIRCLE
  5
1C8E
  8
0
  6
CONTINUOUS
 62
     2
 10
345.7418093227893792
 20
64.8773089371147762
 30
0.0
 40
0.8499999999999657
  0
CIRCLE
  5
1C8F
  8
0
  6
CONTINUOUS
 62
     2
 10
355.9018093227895179
 20
64.8773089371145488
 30
0.0
 40
0.8499999999998522
  0
CIRCLE
  5
1C90
  8
0
  6
CONTINUOUS
 62
     2
 10
352.0918093227892882
 20
59.7973089371147992
 30
0.0
 40
0.4999999999999433
  0
CIRCLE
  5
1C91
  8
0
  6
CONTINUOUS
 62
     2
 10
349.5518093227893814
 20
59.7973089371146571
 30
0.0
 40
0.4999999999998296
  0
CIRCLE
  5
1C92
  8
0
  6
CONTINUOUS
 62
     2
 10
347.0118093227894178
 20
67.4173089371145267
 30
0.0
 40
0.7500000000001137
  0
CIRCLE
  5
1C93
  8
0
  6
CONTINUOUS
 62
     2
 10
350.8218093227894769
 20
64.877308937114833
 30
0.0
 40
1.9999999999998861
  0
CIRCLE
  5
1C94
  8
0
  6
CONTINUOUS
 62
     2
 10
306.3330593227893814
 20
89.007308937114658
 30
0.0
 40
0.7500000000001137
  0
CIRCLE
  5
1C95
  8
0
  6
CONTINUOUS
 62
     2
 10
298.7130593227896043
 20
83.9273089371147734
 30
0.0
 40
0.8499999999999091
  0
CIRCLE
  5
1C96
  8
0
  6
CONTINUOUS
 62
     2
 10
308.8730593227896861
 20
83.9273089371147591
 30
0.0
 40
0.8499999999998522
  0
CIRCLE
  5
1C97
  8
0
  6
CONTINUOUS
 62
     2
 10
305.0630593227895133
 20
78.8473089371148035
 30
0.0
 40
0.4999999999998864
  0
CIRCLE
  5
1C98
  8
0
  6
CONTINUOUS
 62
     2
 10
302.5230593227893792
 20
78.8473089371146898
 30
0.0
 40
0.4999999999997728
  0
CIRCLE
  5
1C99
  8
0
  6
CONTINUOUS
 62
     2
 10
299.9830593227894155
 20
86.4673089371144385
 30
0.0
 40
0.7500000000001137
  0
CIRCLE
  5
1C9A
  8
0
  6
CONTINUOUS
 62
     2
 10
303.7930593227894178
 20
83.9273089371146455
 30
0.0
 40
1.9999999999998861
  0
CIRCLE
  5
1C9B
  8
0
  6
CONTINUOUS
 62
     2
 10
287.2830593227894269
 20
89.0073089371145869
 30
0.0
 40
0.7500000000001137
  0
CIRCLE
  5
1C9C
  8
0
  6
CONTINUOUS
 62
     2
 10
279.6630593227894792
 20
83.9273089371147734
 30
0.0
 40
0.8499999999999373
  0
CIRCLE
  5
1C9D
  8
0
  6
CONTINUOUS
 62
     2
 10
289.8230593227895042
 20
83.9273089371147591
 30
0.0
 40
0.8499999999999091
  0
CIRCLE
  5
1C9E
  8
0
  6
CONTINUOUS
 62
     2
 10
286.0130593227893883
 20
78.8473089371148035
 30
0.0
 40
0.4999999999999433
  0
CIRCLE
  5
1C9F
  8
0
  6
CONTINUOUS
 62
     2
 10
283.4730593227894246
 20
78.8473089371147893
 30
0.0
 40
0.4999999999998296
  0
CIRCLE
  5
1CA0
  8
0
  6
CONTINUOUS
 62
     2
 10
280.9330593227894042
 20
86.4673089371146943
 30
0.0
 40
0.7500000000001137
  0
CIRCLE
  5
1CA1
  8
0
  6
CONTINUOUS
 62
     2
 10
284.7430593227894065
 20
83.9273089371147165
 30
0.0
 40
1.9999999999998861
  0
CIRCLE
  5
1CA2
  8
0
  6
CONTINUOUS
 62
     2
 10
340.163059322789195
 20
108.0573089371146978
 30
0.0
 40
0.7500000000001708
  0
CIRCLE
  5
1CA3
  8
0
  6
CONTINUOUS
 62
     2
 10
332.543059322789702
 20
102.9773089371147989
 30
0.0
 40
0.8499999999998522
  0
CIRCLE
  5
1CA4
  8
0
  6
CONTINUOUS
 62
     2
 10
342.7030593227894997
 20
102.9773089371147989
 30
0.0
 40
0.8499999999999091
  0
CIRCLE
  5
1CA5
  8
0
  6
CONTINUOUS
 62
     2
 10
338.8930593227893269
 20
97.897308937114687
 30
0.0
 40
0.4999999999999433
  0
CIRCLE
  5
1CA6
  8
0
  6
CONTINUOUS
 62
     2
 10
336.3530593227895906
 20
97.8973089371149428
 30
0.0
 40
0.4999999999998296
  0
CIRCLE
  5
1CA7
  8
0
  6
CONTINUOUS
 62
     2
 10
333.8130593227895133
 20
105.5173089371147057
 30
0.0
 40
0.7500000000001708
  0
CIRCLE
  5
1CA8
  8
0
  6
CONTINUOUS
 62
     2
 10
337.6230593227892882
 20
102.9773089371146995
 30
0.0
 40
1.9999999999998861
  0
CIRCLE
  5
1CA9
  8
0
  6
CONTINUOUS
 62
     2
 10
316.3430593227893723
 20
108.0573089371146978
 30
0.0
 40
0.7500000000001137
  0
CIRCLE
  5
1CAA
  8
0
  6
CONTINUOUS
 62
     2
 10
308.7230593227895952
 20
102.9773089371147989
 30
0.0
 40
0.8499999999999091
  0
CIRCLE
  5
1CAB
  8
0
  6
CONTINUOUS
 62
     2
 10
318.8830593227895065
 20
102.9773089371147989
 30
0.0
 40
0.8499999999999091
  0
CIRCLE
  5
1CAC
  8
0
  6
CONTINUOUS
 62
     2
 10
315.0730593227895042
 20
97.8973089371148291
 30
0.0
 40
0.4999999999998864
  0
CIRCLE
  5
1CAD
  8
0
  6
CONTINUOUS
 62
     2
 10
312.5330593227894838
 20
97.8973089371147864
 30
0.0
 40
0.4999999999998296
  0
CIRCLE
  5
1CAE
  8
0
  6
CONTINUOUS
 62
     2
 10
309.9930593227895201
 20
105.5173089371147057
 30
0.0
 40
0.7500000000001137
  0
CIRCLE
  5
1CAF
  8
0
  6
CONTINUOUS
 62
     2
 10
313.8030593227894087
 20
102.9773089371146
 30
0.0
 40
1.9999999999998861
  0
CIRCLE
  5
1CB0
  8
0
  6
CONTINUOUS
 62
     2
 10
297.2930593227894178
 20
108.0573089371146978
 30
0.0
 40
0.7500000000001137
  0
CIRCLE
  5
1CB1
  8
0
  6
CONTINUOUS
 62
     2
 10
289.673059322789527
 20
102.9773089371147989
 30
0.0
 40
0.8499999999999091
  0
CIRCLE
  5
1CB2
  8
0
  6
CONTINUOUS
 62
     2
 10
299.8330593227893814
 20
102.9773089371147989
 30
0.0
 40
0.8499999999999657
  0
CIRCLE
  5
1CB3
  8
0
  6
CONTINUOUS
 62
     2
 10
296.0230593227893792
 20
97.8973089371148291
 30
0.0
 40
0.4999999999999433
  0
CIRCLE
  5
1CB4
  8
0
  6
CONTINUOUS
 62
     2
 10
293.4830593227894724
 20
97.8973089371149428
 30
0.0
 40
0.4999999999998296
  0
CIRCLE
  5
1CB5
  8
0
  6
CONTINUOUS
 62
     2
 10
290.9430593227895088
 20
105.5173089371147057
 30
0.0
 40
0.7500000000001137
  0
CIRCLE
  5
1CB6
  8
0
  6
CONTINUOUS
 62
     2
 10
294.7530593227896247
 20
102.9773089371148984
 30
0.0
 40
1.9999999999998861
  0
CIRCLE
  5
1CB7
  8
0
  6
CONTINUOUS
 62
     2
 10
278.6630593227893087
 20
109.1173089371147
 30
0.0
 40
0.7500000000001708
  0
CIRCLE
  5
1CB8
  8
0
  6
CONTINUOUS
 62
     2
 10
271.0430593227895884
 20
104.0373089371148012
 30
0.0
 40
0.8499999999999091
  0
CIRCLE
  5
1CB9
  8
0
  6
CONTINUOUS
 62
     2
 10
281.2030593227896134
 20
104.0373089371147017
 30
0.0
 40
0.8499999999998806
  0
CIRCLE
  5
1CBA
  8
0
  6
CONTINUOUS
 62
     2
 10
277.3930593227893269
 20
98.9573089371148171
 30
0.0
 40
0.4999999999999716
  0
CIRCLE
  5
1CBB
  8
0
  6
CONTINUOUS
 62
     2
 10
274.8530593227894769
 20
98.9573089371146892
 30
0.0
 40
0.4999999999998296
  0
CIRCLE
  5
1CBC
  8
0
  6
CONTINUOUS
 62
     2
 10
272.3130593227895133
 20
106.5773089371144948
 30
0.0
 40
0.7500000000001421
  0
CIRCLE
  5
1CBD
  8
0
  6
CONTINUOUS
 62
     2
 10
276.1230593227892882
 20
104.0373089371149007
 30
0.0
 40
1.999999999999942
  0
CIRCLE
  5
1CBE
  8
0
  6
CONTINUOUS
 62
     2
 10
302.6530593227893178
 20
127.1073089371146949
 30
0.0
 40
0.7500000000001708
  0
CIRCLE
  5
1CBF
  8
0
  6
CONTINUOUS
 62
     2
 10
295.0330593227894838
 20
122.0273089371144977
 30
0.0
 40
0.8499999999999091
  0
CIRCLE
  5
1CC0
  8
0
  6
CONTINUOUS
 62
     2
 10
305.1930593227893951
 20
122.0273089371146966
 30
0.0
 40
0.8499999999999091
  0
CIRCLE
  5
1CC1
  8
0
  6
CONTINUOUS
 62
     2
 10
301.3830593227892791
 20
116.9473089371146983
 30
0.0
 40
0.5
  0
CIRCLE
  5
1CC2
  8
0
  6
CONTINUOUS
 62
     2
 10
298.8430593227893723
 20
116.9473089371146983
 30
0.0
 40
0.4999999999998296
  0
CIRCLE
  5
1CC3
  8
0
  6
CONTINUOUS
 62
     2
 10
296.3030593227894087
 20
124.5673089371147029
 30
0.0
 40
0.7500000000001137
  0
CIRCLE
  5
1CC4
  8
0
  6
CONTINUOUS
 62
     2
 10
300.1130593227895247
 20
122.0273089371144977
 30
0.0
 40
1.9999999999998861
  0
CIRCLE
  5
1CC5
  8
0
  6
CONTINUOUS
 62
     2
 10
284.0230593227893792
 20
129.2473089371146955
 30
0.0
 40
0.7500000000001708
  0
CIRCLE
  5
1CC6
  8
0
  6
CONTINUOUS
 62
     2
 10
276.4030593227897157
 20
124.1673089371146972
 30
0.0
 40
0.8499999999998806
  0
CIRCLE
  5
1CC7
  8
0
  6
CONTINUOUS
 62
     2
 10
286.563059322789627
 20
124.1673089371146972
 30
0.0
 40
0.8499999999999091
  0
CIRCLE
  5
1CC8
  8
0
  6
CONTINUOUS
 62
     2
 10
282.7530593227896247
 20
119.0873089371146989
 30
0.0
 40
0.4999999999999716
  0
CIRCLE
  5
1CC9
  8
0
  6
CONTINUOUS
 62
     2
 10
280.2130593227896043
 20
119.0873089371146989
 30
0.0
 40
0.4999999999998296
  0
CIRCLE
  5
1CCA
  8
0
  6
CONTINUOUS
 62
     2
 10
277.673059322789527
 20
126.7073089371148029
 30
0.0
 40
0.7500000000001421
  0
CIRCLE
  5
1CCB
  8
0
  6
CONTINUOUS
 62
     2
 10
281.4830593227894724
 20
124.1673089371146972
 30
0.0
 40
1.9999999999998861
  0
CIRCLE
  5
1CCC
  8
0
  6
CONTINUOUS
 62
     2
 10
321.7030593227892723
 20
127.1073089371146949
 30
0.0
 40
0.7500000000001708
  0
CIRCLE
  5
1CCD
  8
0
  6
CONTINUOUS
 62
     2
 10
314.0830593227897225
 20
122.0273089371144977
 30
0.0
 40
0.8499999999998522
  0
CIRCLE
  5
1CCE
  8
0
  6
CONTINUOUS
 62
     2
 10
320.4330593227894042
 20
116.9473089371148973
 30
0.0
 40
0.4999999999999433
  0
CIRCLE
  5
1CCF
  8
0
  6
CONTINUOUS
 62
     2
 10
317.8930593227893269
 20
116.9473089371148973
 30
0.0
 40
0.4999999999998296
  0
CIRCLE
  5
1CD0
  8
0
  6
CONTINUOUS
 62
     2
 10
315.3530593227894769
 20
124.5673089371147029
 30
0.0
 40
0.7500000000001708
  0
CIRCLE
  5
1CD1
  8
0
  6
CONTINUOUS
 62
     2
 10
319.163059322789195
 20
122.0273089371146966
 30
0.0
 40
1.9999999999998861
  0
CIRCLE
  5
1CD2
  8
0
  6
CONTINUOUS
 62
     2
 10
343.2930593227894178
 20
122.0273089371146966
 30
0.0
 40
0.8499999999999657
  0
CIRCLE
  5
1CD3
  8
0
  6
CONTINUOUS
 62
     2
 10
339.4830593227894724
 20
116.9473089371148973
 30
0.0
 40
0.4999999999999433
  0
CIRCLE
  5
1CD4
  8
0
  6
CONTINUOUS
 62
     2
 10
336.9430593227895088
 20
116.9473089371148973
 30
0.0
 40
0.4999999999998296
  0
CIRCLE
  5
1CD5
  8
0
  6
CONTINUOUS
 62
     2
 10
334.4030593227894883
 20
124.5673089371147029
 30
0.0
 40
0.7500000000001708
  0
CIRCLE
  5
1CD6
  8
0
  6
CONTINUOUS
 62
     2
 10
338.2130593227894906
 20
122.0273089371146966
 30
0.0
 40
1.9999999999998861
  0
CIRCLE
  5
1CD7
  8
0
  6
CONTINUOUS
 62
     2
 10
176.0587658335223864
 20
35.8002671974911379
 30
0.0
 40
0.7500000000001137
  0
CIRCLE
  5
1CD8
  8
0
  6
CONTINUOUS
 62
     2
 10
167.5490897265767956
 20
32.4155644697947665
 30
0.0
 40
0.8499999999999373
  0
CIRCLE
  5
1CD9
  8
0
  6
CONTINUOUS
 62
     2
 10
170.2196406960181889
 20
26.6544311160512812
 30
0.0
 40
0.4999999999998012
  0
CIRCLE
  5
1CDA
  8
0
  6
CONTINUOUS
 62
     2
 10
169.319432874185793
 20
34.6360115283198766
 30
0.0
 40
0.7500000000001421
  0
CIRCLE
  5
1CDB
  8
0
  6
CONTINUOUS
 62
     2
 10
178.3737456180074901
 20
35.3082030541654888
 30
0.0
 40
0.7500000000001421
  0
CIRCLE
  5
1CDC
  8
0
  6
CONTINUOUS
 62
     2
 10
179.80204913451729
 20
29.8111175477605883
 30
0.0
 40
0.8499999999999373
  0
CIRCLE
  5
1CDD
  8
0
  6
CONTINUOUS
 62
     2
 10
175.0191153863671047
 20
25.6342712780484909
 30
0.0
 40
0.4999999999999716
  0
CIRCLE
  5
1CDE
  8
0
  6
CONTINUOUS
 62
     2
 10
171.6344126586708114
 20
34.1439473849943127
 30
0.0
 40
0.7500000000001421
  0
CIRCLE
  5
1CDF
  8
0
  6
CONTINUOUS
 62
     2
 10
112.5237456180073963
 20
47.768203054165383
 30
0.0
 40
0.7500000000001137
  0
CIRCLE
  5
1CE0
  8
0
  6
CONTINUOUS
 62
     2
 10
104.0140695110618054
 20
44.3835003264689618
 30
0.0
 40
0.8499999999999091
  0
CIRCLE
  5
1CE1
  8
0
  6
CONTINUOUS
 62
     2
 10
113.9520491345171962
 20
42.2711175477605323
 30
0.0
 40
0.8499999999999091
  0
CIRCLE
  5
1CE2
  8
0
  6
CONTINUOUS
 62
     2
 10
109.1691153863670962
 20
38.0942712780484101
 30
0.0
 40
0.4999999999999575
  0
CIRCLE
  5
1CE3
  8
0
  6
CONTINUOUS
 62
     2
 10
106.6846204805031988
 20
38.6223669727254872
 30
0.0
 40
0.4999999999998154
  0
CIRCLE
  5
1CE4
  8
0
  6
CONTINUOUS
 62
     2
 10
105.7844126586707034
 20
46.6039473849942567
 30
0.0
 40
0.7500000000000995
  0
CIRCLE
  5
1CE5
  8
0
  6
CONTINUOUS
 62
     2
 10
108.9830593227894013
 20
43.3273089371147719
 30
0.0
 40
1.9999999999999001
  0
CIRCLE
  5
1CE6
  8
0
  6
CONTINUOUS
 62
     2
 10
327.1680593227894178
 20
69.9573089371147034
 30
0.0
 40
0.7500000000001137
  0
CIRCLE
  5
1CE7
  8
0
  6
CONTINUOUS
 62
     2
 10
319.548059322789527
 20
64.8773089371147762
 30
0.0
 40
0.8499999999999091
  0
CIRCLE
  5
1CE8
  8
0
  6
CONTINUOUS
 62
     2
 10
325.8980593227896065
 20
59.7973089371148205
 30
0.0
 40
0.4999999999999433
  0
CIRCLE
  5
1CE9
  8
0
  6
CONTINUOUS
 62
     2
 10
323.3580593227894724
 20
59.7973089371148276
 30
0.0
 40
0.4999999999998296
  0
CIRCLE
  5
1CEA
  8
0
  6
CONTINUOUS
 62
     2
 10
320.8180593227893951
 20
67.4173089371146546
 30
0.0
 40
0.7500000000001137
  0
CIRCLE
  5
1CEB
  8
0
  6
CONTINUOUS
 62
     2
 10
324.6280593227893974
 20
64.8773089371149467
 30
0.0
 40
1.9999999999998861
  0
CIRCLE
  5
1CEC
  8
0
  6
CONTINUOUS
 62
     2
 10
117.3337456180073985
 20
67.7582030541653637
 30
0.0
 40
0.7500000000001421
  0
CIRCLE
  5
1CED
  8
0
  6
CONTINUOUS
 62
     2
 10
108.8240695110617935
 20
64.3735003264689425
 30
0.0
 40
0.849999999999923
  0
CIRCLE
  5
1CEE
  8
0
  6
CONTINUOUS
 62
     2
 10
118.7620491345171985
 20
62.2611175477604917
 30
0.0
 40
0.8499999999998806
  0
CIRCLE
  5
1CEF
  8
0
  6
CONTINUOUS
 62
     2
 10
113.9791153863670985
 20
58.0842712780485115
 30
0.0
 40
0.4999999999999575
  0
CIRCLE
  5
1CF0
  8
0
  6
CONTINUOUS
 62
     2
 10
111.4946204805032011
 20
58.6123669727254892
 30
0.0
 40
0.4999999999998437
  0
CIRCLE
  5
1CF1
  8
0
  6
CONTINUOUS
 62
     2
 10
110.5944126586707057
 20
66.5939473849942232
 30
0.0
 40
0.7500000000001421
  0
CIRCLE
  5
1CF2
  8
0
  6
CONTINUOUS
 62
     2
 10
113.7930593227893041
 20
63.3173089371147384
 30
0.0
 40
1.9999999999998861
  0
CIRCLE
  5
1CF3
  8
0
  6
CONTINUOUS
 62
     2
 10
111.9837456180074042
 20
88.3682030541653489
 30
0.0
 40
0.7500000000001421
  0
CIRCLE
  5
1CF4
  8
0
  6
CONTINUOUS
 62
     2
 10
103.4740695110616997
 20
84.9835003264689561
 30
0.0
 40
0.8499999999998948
  0
CIRCLE
  5
1CF5
  8
0
  6
CONTINUOUS
 62
     2
 10
113.4120491345172042
 20
82.8711175477604201
 30
0.0
 40
0.8499999999999091
  0
CIRCLE
  5
1CF6
  8
0
  6
CONTINUOUS
 62
     2
 10
108.6291153863671042
 20
78.6942712780484754
 30
0.0
 40
0.499999999999929
  0
CIRCLE
  5
1CF7
  8
0
  6
CONTINUOUS
 62
     2
 10
106.1446204805032067
 20
79.22236697272551
 30
0.0
 40
0.4999999999998579
  0
CIRCLE
  5
1CF8
  8
0
  6
CONTINUOUS
 62
     2
 10
105.2444126586706972
 20
87.203947384994251
 30
0.0
 40
0.7500000000000995
  0
CIRCLE
  5
1CF9
  8
0
  6
CONTINUOUS
 62
     2
 10
108.4430593227893951
 20
83.9273089371147165
 30
0.0
 40
1.9999999999998861
  0
CIRCLE
  5
1CFA
  8
0
  6
CONTINUOUS
 62
     2
 10
111.2837456180076003
 20
107.9982030541654012
 30
0.0
 40
0.7500000000001421
  0
CIRCLE
  5
1CFB
  8
0
  6
CONTINUOUS
 62
     2
 10
102.7740695110617963
 20
104.6135003264688947
 30
0.0
 40
0.8499999999999091
  0
CIRCLE
  5
1CFC
  8
0
  6
CONTINUOUS
 62
     2
 10
112.7120491345172013
 20
102.5011175477605008
 30
0.0
 40
0.8499999999999091
  0
CIRCLE
  5
1CFD
  8
0
  6
CONTINUOUS
 62
     2
 10
107.9291153863672008
 20
98.3242712780484425
 30
0.0
 40
0.4999999999999433
  0
CIRCLE
  5
1CFE
  8
0
  6
CONTINUOUS
 62
     2
 10
105.4446204805034029
 20
98.8523669727255339
 30
0.0
 40
0.4999999999998437
  0
CIRCLE
  5
1CFF
  8
0
  6
CONTINUOUS
 62
     2
 10
104.5444126586706943
 20
106.8339473849942038
 30
0.0
 40
0.7500000000001421
  0
CIRCLE
  5
1D00
  8
0
  6
CONTINUOUS
 62
     2
 10
107.7430593227894065
 20
103.5573089371146978
 30
0.0
 40
1.9999999999999001
  0
CIRCLE
  5
1D01
  8
0
  6
CONTINUOUS
 62
     2
 10
124.563745618007502
 20
124.6482030541652932
 30
0.0
 40
0.7500000000001421
  0
CIRCLE
  5
1D02
  8
0
  6
CONTINUOUS
 62
     2
 10
116.054069511061698
 20
121.2635003264689004
 30
0.0
 40
0.8499999999999091
  0
CIRCLE
  5
1D03
  8
0
  6
CONTINUOUS
 62
     2
 10
125.9920491345172024
 20
119.1511175477605065
 30
0.0
 40
0.8499999999999091
  0
CIRCLE
  5
1D04
  8
0
  6
CONTINUOUS
 62
     2
 10
121.2091153863671025
 20
114.9742712780484055
 30
0.0
 40
0.4999999999999149
  0
CIRCLE
  5
1D05
  8
0
  6
CONTINUOUS
 62
     2
 10
118.724620480503205
 20
115.5023669727254969
 30
0.0
 40
0.4999999999998437
  0
CIRCLE
  5
1D06
  8
0
  6
CONTINUOUS
 62
     2
 10
117.824412658670596
 20
123.4839473849940958
 30
0.0
 40
0.7500000000001421
  0
CIRCLE
  5
1D07
  8
0
  6
CONTINUOUS
 62
     2
 10
42.3530593227895267
 20
129.2473089371146955
 30
0.0
 40
0.7500000000001421
  0
CIRCLE
  5
1D08
  8
0
  6
CONTINUOUS
 62
     2
 10
34.73305932278965
 20
124.1673089371146972
 30
0.0
 40
0.8499999999999046
  0
CIRCLE
  5
1D09
  8
0
  6
CONTINUOUS
 62
     2
 10
44.8930593227896111
 20
124.1673089371146972
 30
0.0
 40
0.8499999999999037
  0
CIRCLE
  5
1D0A
  8
0
  6
CONTINUOUS
 62
     2
 10
41.083059322789488
 20
119.0873089371145994
 30
0.0
 40
0.4999999999999504
  0
CIRCLE
  5
1D0B
  8
0
  6
CONTINUOUS
 62
     2
 10
38.5430593227895315
 20
119.0873089371145994
 30
0.0
 40
0.4999999999998323
  0
CIRCLE
  5
1D0C
  8
0
  6
CONTINUOUS
 62
     2
 10
36.0030593227895679
 20
126.7073089371147034
 30
0.0
 40
0.7500000000001406
  0
CIRCLE
  5
1D0D
  8
0
  6
CONTINUOUS
 62
     2
 10
39.8130593227895204
 20
124.1673089371146972
 30
0.0
 40
1.9999999999998981
  0
CIRCLE
  5
1D0E
  8
0
  6
CONTINUOUS
 62
     2
 10
57.7430593227895201
 20
50.9073089371148484
 30
0.0
 40
0.7500000000000178
  0
CIRCLE
  5
1D0F
  8
0
  6
CONTINUOUS
 62
     2
 10
50.1230593227895724
 20
45.8273089371148004
 30
0.0
 40
0.8500000000000048
  0
CIRCLE
  5
1D10
  8
0
  6
CONTINUOUS
 62
     2
 10
60.2830593227895406
 20
45.8273089371148004
 30
0.0
 40
0.8500000000000048
  0
CIRCLE
  5
1D11
  8
0
  6
CONTINUOUS
 62
     2
 10
56.4730593227894317
 20
40.7473089371148376
 30
0.0
 40
0.4999999999999716
  0
CIRCLE
  5
1D12
  8
0
  6
CONTINUOUS
 62
     2
 10
53.9330593227893971
 20
40.7473089371148376
 30
0.0
 40
0.4999999999999716
  0
CIRCLE
  5
1D13
  8
0
  6
CONTINUOUS
 62
     2
 10
51.3930593227894406
 20
48.3673089371147711
 30
0.0
 40
0.7500000000002593
  0
CIRCLE
  5
1D14
  8
0
  6
CONTINUOUS
 62
     2
 10
55.2030593227895494
 20
45.8273089371147933
 30
0.0
 40
1.9999999999997711
  0
CIRCLE
  5
1D15
  8
0
  6
CONTINUOUS
 62
     2
 10
34.1230593227895724
 20
91.1473089371147864
 30
0.0
 40
0.7500000000001399
  0
CIRCLE
  5
1D16
  8
0
  6
CONTINUOUS
 62
     2
 10
26.5030593227897384
 20
86.0673089371147739
 30
0.0
 40
0.8499999999998975
  0
CIRCLE
  5
1D17
  8
0
  6
CONTINUOUS
 62
     2
 10
36.6630593227896497
 20
86.0673089371147739
 30
0.0
 40
0.8499999999998975
  0
CIRCLE
  5
1D18
  8
0
  6
CONTINUOUS
 62
     2
 10
32.8530593227895409
 20
80.9873089371148041
 30
0.0
 40
0.499999999999946
  0
CIRCLE
  5
1D19
  8
0
  6
CONTINUOUS
 62
     2
 10
30.3130593227895702
 20
80.9873089371147614
 30
0.0
 40
0.4999999999998316
  0
CIRCLE
  5
1D1A
  8
0
  6
CONTINUOUS
 62
     2
 10
27.7730593227896101
 20
88.6073089371147375
 30
0.0
 40
0.7500000000001399
  0
CIRCLE
  5
1D1B
  8
0
  6
CONTINUOUS
 62
     2
 10
31.5830593227895484
 20
86.067308937114845
 30
0.0
 40
1.999999999999903
  0
CIRCLE
  5
1D1C
  8
0
  6
CONTINUOUS
 62
     2
 10
36.9230593227894701
 20
100.0373089371148012
 30
0.0
 40
0.4999999999999504
  0
CIRCLE
  5
1D1D
  8
0
  6
CONTINUOUS
 62
     2
 10
30.5730593227896215
 20
105.1173089371147995
 30
0.0
 40
0.8499999999999047
  0
CIRCLE
  5
1D1E
  8
0
  6
CONTINUOUS
 62
     2
 10
38.1930593227894519
 20
110.1973089371146983
 30
0.0
 40
0.7500000000001421
  0
CIRCLE
  5
1D1F
  8
0
  6
CONTINUOUS
 62
     2
 10
35.6530593227894883
 20
105.1173089371147995
 30
0.0
 40
1.9999999999998901
  0
CIRCLE
  5
1D20
  8
0
  6
CONTINUOUS
 62
     2
 10
31.8430593227894896
 20
107.6573089371146068
 30
0.0
 40
0.7500000000001394
  0
CIRCLE
  5
1D21
  8
0
  6
CONTINUOUS
 62
     2
 10
34.3830593227895065
 20
100.0373089371147017
 30
0.0
 40
0.4999999999998332
  0
CIRCLE
  5
1D22
  8
0
  6
CONTINUOUS
 62
     2
 10
40.7330593227895292
 20
105.1173089371147995
 30
0.0
 40
0.8499999999999053
  0
CIRCLE
  5
1D23
  8
0
  6
CONTINUOUS
 62
     2
 10
65.3730593227894587
 20
127.1073089371146949
 30
0.0
 40
0.7500000000001421
  0
CIRCLE
  5
1D24
  8
0
  6
CONTINUOUS
 62
     2
 10
57.7530593227896176
 20
122.0273089371146966
 30
0.0
 40
0.8499999999999053
  0
CIRCLE
  5
1D25
  8
0
  6
CONTINUOUS
 62
     2
 10
67.9130593227895361
 20
122.0273089371146966
 30
0.0
 40
0.8499999999999019
  0
CIRCLE
  5
1D26
  8
0
  6
CONTINUOUS
 62
     2
 10
64.1030593227894201
 20
116.9473089371146983
 30
0.0
 40
0.4999999999999504
  0
CIRCLE
  5
1D27
  8
0
  6
CONTINUOUS
 62
     2
 10
61.5630593227894565
 20
116.9473089371146983
 30
0.0
 40
0.4999999999998332
  0
CIRCLE
  5
1D28
  8
0
  6
CONTINUOUS
 62
     2
 10
59.0230593227894929
 20
124.5673089371147029
 30
0.0
 40
0.7500000000001457
  0
CIRCLE
  5
1D29
  8
0
  6
CONTINUOUS
 62
     2
 10
62.8330593227894383
 20
122.0273089371146966
 30
0.0
 40
1.9999999999998961
  0
CIRCLE
  5
1D2A
  8
0
  6
CONTINUOUS
 62
     2
 10
65.9730593227894815
 20
108.0573089371147972
 30
0.0
 40
0.7500000000001421
  0
CIRCLE
  5
1D2B
  8
0
  6
CONTINUOUS
 62
     2
 10
58.3530593227896475
 20
102.9773089371147989
 30
0.0
 40
0.8499999999999091
  0
CIRCLE
  5
1D2C
  8
0
  6
CONTINUOUS
 62
     2
 10
68.5130593227895588
 20
102.9773089371147989
 30
0.0
 40
0.8499999999999091
  0
CIRCLE
  5
1D2D
  8
0
  6
CONTINUOUS
 62
     2
 10
64.7030593227894997
 20
97.8973089371147864
 30
0.0
 40
0.4999999999999504
  0
CIRCLE
  5
1D2E
  8
0
  6
CONTINUOUS
 62
     2
 10
62.1630593227894792
 20
97.8973089371147296
 30
0.0
 40
0.4999999999998296
  0
CIRCLE
  5
1D2F
  8
0
  6
CONTINUOUS
 62
     2
 10
59.6230593227895085
 20
105.5173089371147057
 30
0.0
 40
0.7500000000001421
  0
CIRCLE
  5
1D30
  8
0
  6
CONTINUOUS
 62
     2
 10
63.4330593227895108
 20
102.9773089371147989
 30
0.0
 40
1.9999999999998961
  0
CIRCLE
  5
1D31
  8
0
  6
CONTINUOUS
 62
     2
 10
59.5230593227894289
 20
89.0073089371147717
 30
0.0
 40
0.7500000000002452
  0
CIRCLE
  5
1D32
  8
0
  6
CONTINUOUS
 62
     2
 10
51.9030593227896588
 20
83.9273089371148302
 30
0.0
 40
0.8499999999998058
  0
CIRCLE
  5
1D33
  8
0
  6
CONTINUOUS
 62
     2
 10
58.253059322789511
 20
78.8473089371148035
 30
0.0
 40
0.4999999999999504
  0
CIRCLE
  5
1D34
  8
0
  6
CONTINUOUS
 62
     2
 10
55.7130593227895474
 20
78.8473089371147893
 30
0.0
 40
0.4999999999997229
  0
CIRCLE
  5
1D35
  8
0
  6
CONTINUOUS
 62
     2
 10
53.1730593227895909
 20
86.4673089371147654
 30
0.0
 40
0.7500000000000357
  0
CIRCLE
  5
1D36
  8
0
  6
CONTINUOUS
 62
     2
 10
84.4230593227894559
 20
127.1073089371146949
 30
0.0
 40
0.7500000000001421
  0
CIRCLE
  5
1D37
  8
0
  6
CONTINUOUS
 62
     2
 10
76.8030593227896361
 20
122.0273089371146966
 30
0.0
 40
0.8499999999998948
  0
CIRCLE
  5
1D38
  8
0
  6
CONTINUOUS
 62
     2
 10
86.9630593227895474
 20
122.0273089371146966
 30
0.0
 40
0.8499999999999019
  0
CIRCLE
  5
1D39
  8
0
  6
CONTINUOUS
 62
     2
 10
83.1530593227894883
 20
116.9473089371146983
 30
0.0
 40
0.4999999999999362
  0
CIRCLE
  5
1D3A
  8
0
  6
CONTINUOUS
 62
     2
 10
80.6130593227894536
 20
116.9473089371146983
 30
0.0
 40
0.4999999999998296
  0
CIRCLE
  5
1D3B
  8
0
  6
CONTINUOUS
 62
     2
 10
78.0730593227895042
 20
124.5673089371147029
 30
0.0
 40
0.7500000000001421
  0
CIRCLE
  5
1D3C
  8
0
  6
CONTINUOUS
 62
     2
 10
81.8830593227894497
 20
122.0273089371146966
 30
0.0
 40
1.999999999999893
  0
CIRCLE
  5
1D3D
  8
0
  6
CONTINUOUS
 62
     2
 10
103.0630593227893996
 20
129.2473089371146955
 30
0.0
 40
0.7500000000001421
  0
CIRCLE
  5
1D3E
  8
0
  6
CONTINUOUS
 62
     2
 10
95.4430593227895656
 20
124.1673089371146972
 30
0.0
 40
0.8499999999999159
  0
CIRCLE
  5
1D3F
  8
0
  6
CONTINUOUS
 62
     2
 10
105.6030593227895054
 20
124.1673089371146972
 30
0.0
 40
0.8499999999999091
  0
CIRCLE
  5
1D40
  8
0
  6
CONTINUOUS
 62
     2
 10
101.7930593227895031
 20
119.0873089371145994
 30
0.0
 40
0.4999999999999433
  0
CIRCLE
  5
1D41
  8
0
  6
CONTINUOUS
 62
     2
 10
99.2530593227894542
 20
119.0873089371146989
 30
0.0
 40
0.4999999999998296
  0
CIRCLE
  5
1D42
  8
0
  6
CONTINUOUS
 62
     2
 10
96.7130593227894906
 20
126.7073089371147034
 30
0.0
 40
0.7500000000001421
  0
CIRCLE
  5
1D43
  8
0
  6
CONTINUOUS
 62
     2
 10
100.5230593227892939
 20
124.1673089371146972
 30
0.0
 40
1.9999999999999001
  0
CIRCLE
  5
1D44
  8
0
  6
CONTINUOUS
 62
     2
 10
89.7830593227894838
 20
108.0573089371147972
 30
0.0
 40
0.7500000000001421
  0
CIRCLE
  5
1D45
  8
0
  6
CONTINUOUS
 62
     2
 10
82.1630593227896497
 20
102.9773089371147989
 30
0.0
 40
0.8499999999999019
  0
CIRCLE
  5
1D46
  8
0
  6
CONTINUOUS
 62
     2
 10
92.3230593227895611
 20
102.9773089371147989
 30
0.0
 40
0.8499999999999091
  0
CIRCLE
  5
1D47
  8
0
  6
CONTINUOUS
 62
     2
 10
88.5130593227895019
 20
97.8973089371148149
 30
0.0
 40
0.4999999999999433
  0
CIRCLE
  5
1D48
  8
0
  6
CONTINUOUS
 62
     2
 10
85.9730593227894673
 20
97.8973089371148149
 30
0.0
 40
0.4999999999998366
  0
CIRCLE
  5
1D49
  8
0
  6
CONTINUOUS
 62
     2
 10
83.4330593227895037
 20
105.5173089371147057
 30
0.0
 40
0.7500000000001421
  0
CIRCLE
  5
1D4A
  8
0
  6
CONTINUOUS
 62
     2
 10
87.2430593227895201
 20
102.9773089371147989
 30
0.0
 40
1.9999999999998861
  0
CIRCLE
  5
1D4B
  8
0
  6
CONTINUOUS
 62
     2
 10
90.4830593227895292
 20
89.0073089371147859
 30
0.0
 40
0.7500000000000285
  0
CIRCLE
  5
1D4C
  8
0
  6
CONTINUOUS
 62
     2
 10
82.8630593227895247
 20
83.9273089371148302
 30
0.0
 40
0.8500000000000298
  0
CIRCLE
  5
1D4D
  8
0
  6
CONTINUOUS
 62
     2
 10
93.0230593227894929
 20
83.9273089371148302
 30
0.0
 40
0.8500000000000156
  0
CIRCLE
  5
1D4E
  8
0
  6
CONTINUOUS
 62
     2
 10
89.2130593227894337
 20
78.8473089371147609
 30
0.0
 40
0.4999999999999433
  0
CIRCLE
  5
1D4F
  8
0
  6
CONTINUOUS
 62
     2
 10
86.6730593227893991
 20
78.8473089371147893
 30
0.0
 40
0.4999999999999433
  0
CIRCLE
  5
1D50
  8
0
  6
CONTINUOUS
 62
     2
 10
84.1330593227894354
 20
86.4673089371146943
 30
0.0
 40
0.7500000000002487
  0
CIRCLE
  5
1D51
  8
0
  6
CONTINUOUS
 62
     2
 10
87.9430593227894946
 20
83.9273089371148302
 30
0.0
 40
1.9999999999997851
  0
CIRCLE
  5
1D52
  8
0
  6
CONTINUOUS
 62
     2
 10
95.8330593227894383
 20
69.9573089371148029
 30
0.0
 40
0.7500000000001564
  0
CIRCLE
  5
1D53
  8
0
  6
CONTINUOUS
 62
     2
 10
88.2130593227896469
 20
64.877308937114833
 30
0.0
 40
0.8499999999999019
  0
CIRCLE
  5
1D54
  8
0
  6
CONTINUOUS
 62
     2
 10
98.3730593227895866
 20
64.8773089371148615
 30
0.0
 40
0.8499999999998948
  0
CIRCLE
  5
1D55
  8
0
  6
CONTINUOUS
 62
     2
 10
94.5630593227894565
 20
59.7973089371147992
 30
0.0
 40
0.4999999999999645
  0
CIRCLE
  5
1D56
  8
0
  6
CONTINUOUS
 62
     2
 10
92.0230593227894929
 20
59.7973089371148205
 30
0.0
 40
0.4999999999998296
  0
CIRCLE
  5
1D57
  8
0
  6
CONTINUOUS
 62
     2
 10
89.4830593227895292
 20
67.417308937114754
 30
0.0
 40
0.7500000000001421
  0
CIRCLE
  5
1D58
  8
0
  6
CONTINUOUS
 62
     2
 10
93.2930593227894747
 20
64.8773089371148615
 30
0.0
 40
1.9999999999999001
  0
CIRCLE
  5
1D59
  8
0
  6
CONTINUOUS
 62
     2
 10
256.7282212693165775
 20
123.8796603009628967
 30
0.0
 40
0.7500000000001137
  0
CIRCLE
  5
1D5A
  8
0
  6
CONTINUOUS
 62
     2
 10
260.9830593227894724
 20
122.1873089371146932
 30
0.0
 40
1.9999999999998861
  0
CIRCLE
  5
1D5B
  8
0
  6
CONTINUOUS
 62
     2
 10
63.6130593227895815
 20
59.7973089371148205
 30
0.0
 40
0.4999999999998366
  0
CIRCLE
  5
1D5C
  8
0
  6
CONTINUOUS
 62
     2
 10
61.0730593227894403
 20
59.7973089371148703
 30
0.0
 40
0.4999999999999504
  0
CIRCLE
  5
1D5D
  8
0
  6
CONTINUOUS
 62
     2
 10
62.3430593227894221
 20
64.8773089371148757
 30
0.0
 40
1.9999999999998961
  0
CIRCLE
  5
1D5E
  8
0
  6
CONTINUOUS
 62
     2
 10
58.5330593227894767
 20
67.4173089371147398
 30
0.0
 40
0.7500000000002487
  0
CIRCLE
  5
1D5F
  8
0
  6
CONTINUOUS
 62
     2
 10
64.8830593227895633
 20
69.9573089371148313
 30
0.0
 40
0.7500000000002487
  0
CIRCLE
  5
1D60
  8
0
  6
CONTINUOUS
 62
     2
 10
67.423059322789527
 20
64.8773089371148188
 30
0.0
 40
0.8499999999999872
  0
CIRCLE
  5
1D61
  8
0
  6
CONTINUOUS
 62
     2
 10
74.2790593227895215
 20
71.8673089371148279
 30
0.0
 40
1.499999999999835
  0
CIRCLE
  5
1D62
  8
0
  6
CONTINUOUS
 62
     2
 10
50.4030593227894883
 20
71.8673089371147711
 30
0.0
 40
1.499999999999833
  0
CIRCLE
  5
1D63
  8
0
  6
CONTINUOUS
 62
     2
 10
50.403059322789538
 20
56.627308937114897
 30
0.0
 40
1.999999999999875
  0
CIRCLE
  5
1D64
  8
0
  6
CONTINUOUS
 62
     2
 10
329.9580593227897225
 20
116.9473089371148973
 30
0.0
 40
0.4999999999998296
  0
CIRCLE
  5
1D65
  8
0
  6
CONTINUOUS
 62
     2
 10
327.4180593227894178
 20
116.9473089371146983
 30
0.0
 40
0.5
  0
CIRCLE
  5
1D66
  8
0
  6
CONTINUOUS
 62
     2
 10
324.8780593227896247
 20
124.5673089371148023
 30
0.0
 40
0.7500000000002843
  0
CIRCLE
  5
1D67
  8
0
  6
CONTINUOUS
 62
     2
 10
331.228059322789818
 20
127.1073089371146949
 30
0.0
 40
0.7500000000002274
  0
CIRCLE
  5
1D68
  8
0
  6
CONTINUOUS
 62
     2
 10
316.7480593227896861
 20
129.017308937114791
 30
0.0
 40
1.499999999999829
  0
CIRCLE
  5
1D69
  8
0
  6
CONTINUOUS
 62
     2
 10
316.7480593227896861
 20
113.7773089371148956
 30
0.0
 40
1.9999999999998861
  0
CIRCLE
  5
1D6A
  8
0
  6
CONTINUOUS
 62
     2
 10
335.423059322789527
 20
59.7973089371147211
 30
0.0
 40
0.4999999999997728
  0
CIRCLE
  5
1D6B
  8
0
  6
CONTINUOUS
 62
     2
 10
332.8830593227892791
 20
59.7973089371148276
 30
0.0
 40
0.5
  0
CIRCLE
  5
1D6C
  8
0
  6
CONTINUOUS
 62
     2
 10
334.1530593227893178
 20
64.8773089371149752
 30
0.0
 40
1.9999999999998861
  0
CIRCLE
  5
1D6D
  8
0
  6
CONTINUOUS
 62
     2
 10
330.3430593227893723
 20
67.4173089371147967
 30
0.0
 40
0.7500000000002843
  0
CIRCLE
  5
1D6E
  8
0
  6
CONTINUOUS
 62
     2
 10
336.6930593227895088
 20
69.9573089371148455
 30
0.0
 40
0.7500000000002843
  0
CIRCLE
  5
1D6F
  8
0
  6
CONTINUOUS
 62
     2
 10
339.2330593227894724
 20
64.8773089371147762
 30
0.0
 40
0.8499999999999657
  0
CIRCLE
  5
1D70
  8
0
  6
CONTINUOUS
 62
     2
 10
346.0890593227895238
 20
71.8673089371148137
 30
0.0
 40
1.499999999999829
  0
CIRCLE
  5
1D71
  8
0
  6
CONTINUOUS
 62
     2
 10
322.2130593227896043
 20
71.8673089371147569
 30
0.0
 40
1.499999999999829
  0
CIRCLE
  5
1D72
  8
0
  6
CONTINUOUS
 62
     2
 10
322.2130593227896043
 20
56.6273089371149894
 30
0.0
 40
1.9999999999998861
  0
CIRCLE
  5
1D73
  8
0
  6
CONTINUOUS
 62
     2
 10
336.0130593227896156
 20
78.8473089371148035
 30
0.0
 40
0.4999999999998296
  0
CIRCLE
  5
1D74
  8
0
  6
CONTINUOUS
 62
     2
 10
333.4730593227895952
 20
78.8473089371148035
 30
0.0
 40
0.4999999999999433
  0
CIRCLE
  5
1D75
  8
0
  6
CONTINUOUS
 62
     2
 10
334.7430593227894065
 20
83.9273089371147165
 30
0.0
 40
1.9999999999998861
  0
CIRCLE
  5
1D76
  8
0
  6
CONTINUOUS
 62
     2
 10
330.9330593227894042
 20
86.4673089371148365
 30
0.0
 40
0.7500000000002843
  0
CIRCLE
  5
1D77
  8
0
  6
CONTINUOUS
 62
     2
 10
337.2830593227894838
 20
89.0073089371148569
 30
0.0
 40
0.7500000000002843
  0
CIRCLE
  5
1D78
  8
0
  6
CONTINUOUS
 62
     2
 10
339.8230593227896748
 20
83.9273089371147734
 30
0.0
 40
0.8500000000000227
  0
CIRCLE
  5
1D79
  8
0
  6
CONTINUOUS
 62
     2
 10
346.6790593227896125
 20
76.9373089371147358
 30
0.0
 40
1.499999999999829
  0
CIRCLE
  5
1D7A
  8
0
  6
CONTINUOUS
 62
     2
 10
346.6790593227897261
 20
92.1773089371145886
 30
0.0
 40
1.999999999999942
  0
CIRCLE
  5
1D7B
  8
0
  6
CONTINUOUS
 62
     2
 10
322.803059322789295
 20
76.9373089371147927
 30
0.0
 40
1.499999999999829
  0
CIRCLE
  5
1D7C
  8
0
  6
CONTINUOUS
 62
     2
 10
144.6991153863673105
 20
32.074271278048478
 30
0.0
 40
0.49999999999973
  0
CIRCLE
  5
1D7D
  8
0
  6
CONTINUOUS
 62
     2
 10
141.3144126586705909
 20
40.5839473849942181
 30
0.0
 40
0.75000000000027
  0
CIRCLE
  5
1D7E
  8
0
  6
CONTINUOUS
 62
     2
 10
148.0537456180074969
 20
41.7482030541653302
 30
0.0
 40
0.7500000000002416
  0
CIRCLE
  5
1D7F
  8
0
  6
CONTINUOUS
 62
     2
 10
218.3140695110616889
 20
35.2111175477608569
 30
0.0
 40
0.8500000000000794
  0
CIRCLE
  5
1D80
  8
0
  6
CONTINUOUS
 62
     2
 10
209.8887055207812864
 20
41.8545610548048685
 30
0.0
 40
1.9999999999998861
  0
CIRCLE
  5
1D81
  8
0
  6
CONTINUOUS
 62
     2
 10
328.6880593227895133
 20
122.0273089371144977
 30
0.0
 40
1.9999999999998861
  0
CIRCLE
  5
1D82
  8
0
  6
CONTINUOUS
 62
     2
 10
137.2526285025965933
 20
38.8552760983334906
 30
0.0
 40
0.8500000000001788
  0
CIRCLE
  5
1D83
  8
0
  6
CONTINUOUS
 62
     2
 10
145.7623046095424115
 20
42.2399788260298621
 30
0.0
 40
0.7500000000002558
  0
CIRCLE
  5
1D84
  8
0
  6
CONTINUOUS
 62
     2
 10
139.0229716502057045
 20
41.07572315685875
 30
0.0
 40
0.7500000000002416
  0
CIRCLE
  5
1D85
  8
0
  6
CONTINUOUS
 62
     2
 10
139.923179472038214
 20
33.0941427445900729
 30
0.0
 40
0.4999999999999433
  0
CIRCLE
  5
1D86
  8
0
  6
CONTINUOUS
 62
     2
 10
121.0230593227895071
 20
120.2073089371147034
 30
0.0
 40
1.9999999999998721
  0
CIRCLE
  5
1D87
  8
0
  6
CONTINUOUS
 62
     2
 10
213.0572796888440052
 20
26.9475916196216794
 30
0.0
 40
1.499999999999857
  0
CIRCLE
  5
1D88
  8
0
  6
CONTINUOUS
 62
     2
 10
233.2429576359018029
 20
46.8186605847696882
 30
0.0
 40
2.0000000000000271
  0
CIRCLE
  5
1D89
  8
0
  6
CONTINUOUS
 62
     2
 10
236.4115318039642943
 20
31.9116911495865914
 30
0.0
 40
1.499999999999857
  0
CIRCLE
  5
1D8A
  8
0
  6
CONTINUOUS
 62
     2
 10
228.252049134517307
 20
37.3235003264693219
 30
0.0
 40
0.8499999999999657
  0
CIRCLE
  5
1D8B
  8
0
  6
CONTINUOUS
 62
     2
 10
224.7113628392991984
 20
41.7643944435199614
 30
0.0
 40
0.7500000000002843
  0
CIRCLE
  5
1D8C
  8
0
  6
CONTINUOUS
 62
     2
 10
219.0282212693165889
 20
37.9596603009632503
 30
0.0
 40
0.7500000000002843
  0
CIRCLE
  5
1D8D
  8
0
  6
CONTINUOUS
 62
     2
 10
223.2830593227893985
 20
36.2673089371150965
 30
0.0
 40
1.999999999999857
  0
CIRCLE
  5
1D8E
  8
0
  6
CONTINUOUS
 62
     2
 10
223.0970032592117036
 20
31.0342712780488306
 30
0.0
 40
0.5
  0
CIRCLE
  5
1D8F
  8
0
  6
CONTINUOUS
 62
     2
 10
225.5814981650756863
 20
31.5623669727259291
 30
0.0
 40
0.4999999999998012
  0
CIRCLE
  5
1D90
  8
0
  6
CONTINUOUS
 62
     2
 10
149.4820491345170979
 20
36.2511175477604866
 30
0.0
 40
0.8499999999999801
  0
CIRCLE
  5
1D91
  8
0
  6
CONTINUOUS
 62
     2
 10
322.803059322789295
 20
92.1773089371145744
 30
0.0
 40
1.9999999999998861
  0
CIRCLE
  5
1D92
  8
0
  6
CONTINUOUS
 62
     2
 10
329.6630593227897066
 20
83.9273089371150292
 30
0.0
 40
0.8500000000001364
  0
CIRCLE
  5
1D93
  8
0
  6
CONTINUOUS
 62
     2
 10
346.0890593227895238
 20
56.6273089371149609
 30
0.0
 40
2.0
  0
CIRCLE
  5
1D94
  8
0
  6
CONTINUOUS
 62
     2
 10
340.6240593227897193
 20
113.7773089371146966
 30
0.0
 40
1.999999999999942
  0
CIRCLE
  5
1D95
  8
0
  6
CONTINUOUS
 62
     2
 10
74.2790593227895215
 20
56.6273089371148899
 30
0.0
 40
1.999999999999992
  0
CIRCLE
  5
1D96
  8
0
  6
CONTINUOUS
 62
     2
 10
57.2630593227895019
 20
64.877308937114833
 30
0.0
 40
0.8500000000001007
  0
CIRCLE
  5
1D97
  8
0
  6
CONTINUOUS
 62
     2
 10
190.9530593227889028
 20
132.3973089371147864
 30
0.0
 40
0.2750000000000341
  0
CIRCLE
  5
1D98
  8
0
  6
CONTINUOUS
 62
     2
 10
192.5530593227888971
 20
132.3973089371147864
 30
0.0
 40
0.2750000000000341
  0
CIRCLE
  5
1D99
  8
0
  6
CONTINUOUS
 62
     2
 10
189.3530593227889085
 20
132.3973089371147864
 30
0.0
 40
0.2750000000000341
  0
CIRCLE
  5
1D9A
  8
0
  6
CONTINUOUS
 62
     2
 10
61.7453793227894607
 20
83.9273089371147165
 30
0.0
 40
1.999999999999984
  0
CIRCLE
  5
1D9B
  8
0
  6
CONTINUOUS
 62
     2
 10
63.0153793227895491
 20
78.8473089371147893
 30
0.0
 40
0.4999999999999575
  0
CIRCLE
  5
1D9C
  8
0
  6
CONTINUOUS
 62
     2
 10
64.2853793227894244
 20
89.0073089371147717
 30
0.0
 40
0.7500000000002487
  0
CIRCLE
  5
1D9D
  8
0
  6
CONTINUOUS
 62
     2
 10
66.8253793227896153
 20
83.9273089371147734
 30
0.0
 40
0.8499999999998022
  0
CIRCLE
  5
1D9E
  8
0
  6
CONTINUOUS
 62
     2
 10
60.4753793227895287
 20
78.8473089371147182
 30
0.0
 40
0.4999999999997195
  0
CIRCLE
  5
1D9F
  8
0
  6
CONTINUOUS
 62
     2
 10
25.5730593227883105
 20
47.5473089371147424
 30
0.0
 40
0.4999999999999263
  0
CIRCLE
  5
1DA0
  8
0
  6
CONTINUOUS
 62
     2
 10
25.5730593227883105
 20
43.0473089371147282
 30
0.0
 40
0.4999999999999334
  0
CIRCLE
  5
1DA1
  8
0
  6
CONTINUOUS
 62
     2
 10
25.5730593227883105
 20
38.5473089371147211
 30
0.0
 40
0.4999999999999405
  0
CIRCLE
  5
1DA2
  8
0
  6
CONTINUOUS
 62
     2
 10
149.8208079420057004
 20
127.4091682552218998
 30
0.0
 40
2.5
  0
CIRCLE
  5
1DA3
  8
0
  6
CONTINUOUS
 62
     2
 10
230.7661076589556899
 20
129.0896329013635864
 30
0.0
 40
2.4999999999999711
  0
ARC
  5
1DA4
  8
0
  6
CONTINUOUS
 62
     2
 10
56.9830593227894724
 20
83.9273089371147734
 30
0.0
 40
2.0000000000000102
 50
255.1987704021285879
 51
243.6962588087664017
  0
ARC
  5
1DA5
  8
0
  6
CONTINUOUS
 62
     2
 10
57.9353793227895721
 20
86.4673089371146943
 30
0.0
 40
0.7500000000000254
 50
264.9467976300335863
 51
233.9482315808600106
  0
POLYLINE
  5
1DA6
  8
0
  6
CONTINUOUS
 62
     2
 66
     1
 10
0.0
 20
0.0
 30
0.0
 70
     1
  0
VERTEX
  5
2C9B
  8
0
  6
CONTINUOUS
 62
     2
 10
358.8218093227894769
 20
36.8273089371148501
 30
0.0
 42
0.4142135623730702
  0
VERTEX
  5
2C9C
  8
0
  6
CONTINUOUS
 62
     2
 10
359.8218093227893064
 20
37.8273089371148501
 30
0.0
  0
VERTEX
  5
2C9D
  8
0
  6
CONTINUOUS
 62
     2
 10
359.8218093227893064
 20
132.1673089371147967
 30
0.0
 42
0.4142135623730659
  0
VERTEX
  5
2C9E
  8
0
  6
CONTINUOUS
 62
     2
 10
358.8218093227894769
 20
133.1673089371147967
 30
0.0
  0
VERTEX
  5
2C9F
  8
0
  6
CONTINUOUS
 62
     2
 10
195.7282593227888015
 20
133.1673089371147967
 30
0.0
  0
VERTEX
  5
2CA0
  8
0
  6
CONTINUOUS
 62
     2
 10
195.7282593227888015
 20
139.3392062704147918
 30
0.0
  0
VERTEX
  5
2CA1
  8
0
  6
CONTINUOUS
 62
     2
 10
186.1778593227890042
 20
139.3392102704148101
 30
0.0
  0
VERTEX
  5
2CA2
  8
0
  6
CONTINUOUS
 62
     2
 10
186.1778593227890042
 20
133.1673089371147967
 30
0.0
  0
VERTEX
  5
2CA3
  8
0
  6
CONTINUOUS
 62
     2
 10
23.5830593227895484
 20
133.1673089371147967
 30
0.0
 42
0.4142135623730868
  0
VERTEX
  5
2CA4
  8
0
  6
CONTINUOUS
 62
     2
 10
22.5830593227895484
 20
132.1673089371147967
 30
0.0
  0
VERTEX
  5
2CA5
  8
0
  6
CONTINUOUS
 62
     2
 10
22.5830593227895484
 20
47.7652538842942391
 30
0.0
 42
-4.3588989434853831
  0
VERTEX
  5
2CA6
  8
0
  6
CONTINUOUS
 62
     2
 10
22.5830593227895484
 20
47.3293639899352527
 30
0.0
  0
VERTEX
  5
2CA7
  8
0
  6
CONTINUOUS
 62
     2
 10
22.5830593227895484
 20
43.265253884294232
 30
0.0
 42
-4.3588989434853831
  0
VERTEX
  5
2CA8
  8
0
  6
CONTINUOUS
 62
     2
 10
22.5830593227895484
 20
42.8293639899352598
 30
0.0
  0
VERTEX
  5
2CA9
  8
0
  6
CONTINUOUS
 62
     2
 10
22.5830593227895484
 20
38.7652538842942604
 30
0.0
 42
-4.3588989434853831
  0
VERTEX
  5
2CAA
  8
0
  6
CONTINUOUS
 62
     2
 10
22.5830593227895484
 20
38.3293639899352598
 30
0.0
  0
VERTEX
  5
2CAB
  8
0
  6
CONTINUOUS
 62
     2
 10
22.5830593227895484
 20
37.827308937114843
 30
0.0
 42
0.4142135623730784
  0
VERTEX
  5
2CAC
  8
0
  6
CONTINUOUS
 62
     2
 10
23.5830593227896088
 20
36.827308937114843
 30
0.0
  0
VERTEX
  5
2CAD
  8
0
  6
CONTINUOUS
 62
     2
 10
96.2755459317001652
 20
36.827308937114843
 30
0.0
  0
VERTEX
  5
2CAE
  8
0
  6
CONTINUOUS
 62
     2
 10
190.953059322788107
 20
16.7029822232381093
 30
0.0
  0
VERTEX
  5
2CAF
  8
0
  6
CONTINUOUS
 62
     2
 10
285.6305727138765178
 20
36.8273089371148501
 30
0.0
  0
SEQEND
  5
2CB0
  8
0
  6
CONTINUOUS
 62
     2
  0
POLYLINE
  5
1DA7
  8
0
  6
CONTINUOUS
 62
     2
 66
     1
 10
0.0
 20
0.0
 30
0.0
 70
     1
  0
VERTEX
  5
2CB1
  8
0
  6
CONTINUOUS
 62
     2
 10
153.3927131965708952
 20
27.3187488627232788
 30
0.0
 42
2.853246995693314
  0
VERTEX
  5
2CB2
  8
0
  6
CONTINUOUS
 62
     2
 10
153.7856985276281989
 20
29.1498734419105894
 30
0.0
 42
2.8532469956936581
  0
SEQEND
  5
2CB3
  8
0
  6
CONTINUOUS
 62
     2
  0
POLYLINE
  5
1DA8
  8
0
  6
CONTINUOUS
 62
     2
 66
     1
 10
0.0
 20
0.0
 30
0.0
 70
     1
  0
VERTEX
  5
2CB4
  8
0
  6
CONTINUOUS
 62
     2
 10
156.4176859502302079
 20
41.5566040619819432
 30
0.0
 42
1.9569884357185841
  0
VERTEX
  5
2CB5
  8
0
  6
CONTINUOUS
 62
     2
 10
157.0978741100940965
 20
44.7259571130182678
 30
0.0
 42
1.9569884357185841
  0
SEQEND
  5
2CB6
  8
0
  6
CONTINUOUS
 62
     2
  0
POLYLINE
  5
1DA9
  8
0
  6
CONTINUOUS
 62
     2
 66
     1
 10
0.0
 20
0.0
 30
0.0
 70
     1
  0
VERTEX
  5
2CB7
  8
0
  6
CONTINUOUS
 62
     2
 10
130.4314464125077961
 20
34.1139729718754765
 30
0.0
 42
2.8532469956934632
  0
VERTEX
  5
2CB8
  8
0
  6
CONTINUOUS
 62
     2
 10
130.0384610814504924
 20
32.2828483926881731
 30
0.0
 42
2.853246995693314
  0
SEQEND
  5
2CB9
  8
0
  6
CONTINUOUS
 62
     2
  0
POLYLINE
  5
1DAA
  8
0
  6
CONTINUOUS
 62
     2
 66
     1
 10
0.0
 20
0.0
 30
0.0
 70
     1
  0
VERTEX
  5
2CBA
  8
0
  6
CONTINUOUS
 62
     2
 10
133.7436219949738074
 20
49.690056642982853
 30
0.0
 42
1.9569884357188501
  0
VERTEX
  5
2CBB
  8
0
  6
CONTINUOUS
 62
     2
 10
133.0634338351098904
 20
46.5207035919469689
 30
0.0
 42
1.95698843571866
  0
SEQEND
  5
2CBC
  8
0
  6
CONTINUOUS
 62
     2
  0
POLYLINE
  5
1DAB
  8
0
  6
CONTINUOUS
 62
     2
 66
     1
 10
0.0
 20
0.0
 30
0.0
 70
     1
  0
VERTEX
  5
2CBD
  8
0
  6
CONTINUOUS
 62
     2
 10
146.512381661933091
 20
37.2552495076121204
 30
0.0
 42
0.5500144949105299
  0
VERTEX
  5
2CBE
  8
0
  6
CONTINUOUS
 62
     2
 10
143.7074328984888894
 20
39.1378733485648809
 30
0.0
 42
0.5523961087326515
  0
VERTEX
  5
2CBF
  8
0
  6
CONTINUOUS
 62
     2
 10
140.3714016774451068
 20
38.5584913172036892
 30
0.0
 42
4.4801237501714324
  0
VERTEX
  5
2CC0
  8
0
  6
CONTINUOUS
 62
     2
 10
140.2222959751804865
 20
37.8511441384813168
 30
0.0
 42
0.550014494910479
  0
VERTEX
  5
2CC1
  8
0
  6
CONTINUOUS
 62
     2
 10
143.0272447386250008
 20
35.9685202975290821
 30
0.0
 42
0.5523961087327538
  0
VERTEX
  5
2CC2
  8
0
  6
CONTINUOUS
 62
     2
 10
146.363275959668897
 20
36.5479023288910696
 30
0.0
 42
4.48012375017941
  0
SEQEND
  5
2CC3
  8
0
  6
CONTINUOUS
 62
     2
  0
POLYLINE
  5
1DAC
  8
0
  6
CONTINUOUS
 62
     2
 66
     1
 10
0.0
 20
0.0
 30
0.0
 70
     1
  0
VERTEX
  5
2CC4
  8
0
  6
CONTINUOUS
 62
     2
 10
142.4017912137140058
 20
33.0660124370938675
 30
0.0
 42
1.220215726596491
  0
VERTEX
  5
2CC5
  8
0
  6
CONTINUOUS
 62
     2
 10
142.2205036446918029
 20
32.102401585544591
 30
0.0
 42
1.22021572659524
  0
SEQEND
  5
2CC6
  8
0
  6
CONTINUOUS
 62
     2
  0
POLYLINE
  5
1DAD
  8
0
  6
CONTINUOUS
 62
     2
 66
     1
 10
0.0
 20
0.0
 30
0.0
 70
     1
  0
VERTEX
  5
2CC7
  8
0
  6
CONTINUOUS
 62
     2
 10
329.3905593227914892
 20
64.0888333509366106
 30
0.0
 42
1.480705326154236
  0
VERTEX
  5
2CC8
  8
0
  6
CONTINUOUS
 62
     2
 10
329.3905593227914892
 20
65.6657845232929844
 30
0.0
 42
1.4807053261614791
  0
SEQEND
  5
2CC9
  8
0
  6
CONTINUOUS
 62
     2
  0
POLYLINE
  5
1DAE
  8
0
  6
CONTINUOUS
 62
     2
 66
     1
 10
0.0
 20
0.0
 30
0.0
 70
     1
  0
VERTEX
  5
2CCA
  8
0
  6
CONTINUOUS
 62
     2
 10
172.5169951831472872
 20
25.6626777203967684
 30
0.0
 42
1.1913285428207441
  0
VERTEX
  5
2CCB
  8
0
  6
CONTINUOUS
 62
     2
 10
172.7217608992374949
 20
26.6260246737031991
 30
0.0
 42
1.1913285428188181
  0
SEQEND
  5
2CCC
  8
0
  6
CONTINUOUS
 62
     2
  0
POLYLINE
  5
1DAF
  8
0
  6
CONTINUOUS
 62
     2
 66
     1
 10
0.0
 20
0.0
 30
0.0
 70
     1
  0
VERTEX
  5
2CCD
  8
0
  6
CONTINUOUS
 62
     2
 10
174.0107966735151876
 20
32.6904611895632726
 30
0.0
 42
0.5479784933637867
  0
VERTEX
  5
2CCE
  8
0
  6
CONTINUOUS
 62
     2
 10
170.6824143376800862
 20
32.15330838713502
 30
0.0
 42
4.0581460691302924
  0
VERTEX
  5
2CCF
  8
0
  6
CONTINUOUS
 62
     2
 10
170.518193351057306
 20
31.3807093888607405
 30
0.0
 42
0.5479784933638029
  0
VERTEX
  5
2CD0
  8
0
  6
CONTINUOUS
 62
     2
 10
173.3403421875788126
 20
29.5362208279920289
 30
0.0
 42
0.5479784933638558
  0
VERTEX
  5
2CD1
  8
0
  6
CONTINUOUS
 62
     2
 10
176.6687245234139141
 20
30.0733736304205301
 30
0.0
 42
4.0581460691335538
  0
VERTEX
  5
2CD2
  8
0
  6
CONTINUOUS
 62
     2
 10
176.832945510036609
 20
30.8459726286943017
 30
0.0
 42
0.5479784933638446
  0
SEQEND
  5
2CD3
  8
0
  6
CONTINUOUS
 62
     2
  0
POLYLINE
  5
1DB0
  8
0
  6
CONTINUOUS
 62
     2
 66
     1
 10
0.0
 20
0.0
 30
0.0
 70
     1
  0
VERTEX
  5
2CD4
  8
0
  6
CONTINUOUS
 62
     2
 10
333.4505593227876261
 20
122.8157845232929049
 30
0.0
 42
1.480705326154389
  0
VERTEX
  5
2CD5
  8
0
  6
CONTINUOUS
 62
     2
 10
333.4505593227876261
 20
121.2388333509367015
 30
0.0
 42
1.480705326161283
  0
SEQEND
  5
2CD6
  8
0
  6
CONTINUOUS
 62
     2
  0
POLYLINE
  5
1DB1
  8
0
  6
CONTINUOUS
 62
     2
 66
     1
 10
0.0
 20
0.0
 30
0.0
 70
     1
  0
VERTEX
  5
2CD7
  8
0
  6
CONTINUOUS
 62
     2
 10
340.1756168362268227
 20
127.5859112508497049
 30
0.0
 42
2.3285066821515299
  0
VERTEX
  5
2CD8
  8
0
  6
CONTINUOUS
 62
     2
 10
341.2609023236038865
 20
127.6592106371698065
 30
0.0
 42
5.3282542194522931
  0
SEQEND
  5
2CD9
  8
0
  6
CONTINUOUS
 62
     2
  0
POLYLINE
  5
1DB2
  8
0
  6
CONTINUOUS
 62
     2
 66
     1
 10
0.0
 20
0.0
 30
0.0
 70
     1
  0
VERTEX
  5
2CDA
  8
0
  6
CONTINUOUS
 62
     2
 10
323.9255593227916279
 20
121.2388333509366021
 30
0.0
 42
1.4807053261541361
  0
VERTEX
  5
2CDB
  8
0
  6
CONTINUOUS
 62
     2
 10
323.9255593227916279
 20
122.8157845232929049
 30
0.0
 42
1.4807053261614791
  0
SEQEND
  5
2CDC
  8
0
  6
CONTINUOUS
 62
     2
  0
POLYLINE
  5
1DB3
  8
0
  6
CONTINUOUS
 62
     2
 66
     1
 10
0.0
 20
0.0
 30
0.0
 70
     1
  0
VERTEX
  5
2CDD
  8
0
  6
CONTINUOUS
 62
     2
 10
194.2220593227889083
 20
136.8093089371147926
 30
0.0
 42
1.0000000000000691
  0
VERTEX
  5
2CDE
  8
0
  6
CONTINUOUS
 62
     2
 10
194.984059322788994
 20
136.8093089371147926
 30
0.0
  0
VERTEX
  5
2CDF
  8
0
  6
CONTINUOUS
 62
     2
 10
194.9840593227889087
 20
138.0853089371148883
 30
0.0
 42
0.9999999999998577
  0
VERTEX
  5
2CE0
  8
0
  6
CONTINUOUS
 62
     2
 10
194.2220593227889083
 20
138.0853089371148883
 30
0.0
  0
SEQEND
  5
2CE1
  8
0
  6
CONTINUOUS
 62
     2
  0
POLYLINE
  5
1DB4
  8
0
  6
CONTINUOUS
 62
     2
 66
     1
 10
0.0
 20
0.0
 30
0.0
 70
     1
  0
VERTEX
  5
2CE2
  8
0
  6
CONTINUOUS
 62
     2
 10
186.9220593227890106
 20
136.8093089371147926
 30
0.0
 42
0.9999999999998934
  0
VERTEX
  5
2CE3
  8
0
  6
CONTINUOUS
 62
     2
 10
187.6840593227888974
 20
136.8093089371147926
 30
0.0
  0
VERTEX
  5
2CE4
  8
0
  6
CONTINUOUS
 62
     2
 10
187.6840593227888974
 20
138.0853089371146893
 30
0.0
 42
1.000000000000113
  0
VERTEX
  5
2CE5
  8
0
  6
CONTINUOUS
 62
     2
 10
186.9220593227890106
 20
138.0853089371146893
 30
0.0
  0
SEQEND
  5
2CE6
  8
0
  6
CONTINUOUS
 62
     2
  0
CIRCLE
  5
1DB5
  8
0
  6
CONTINUOUS
 62
     2
 10
144.5130593227895019
 20
37.3073089371146907
 30
0.0
 40
1.9999999999998861
  0
CIRCLE
  5
1DB6
  8
0
  6
CONTINUOUS
 62
     2
 10
142.2216183143243029
 20
37.7990847089792723
 30
0.0
 40
1.9999999999998861
  0
CIRCLE
  5
1DB7
  8
0
  6
CONTINUOUS
 62
     2
 10
174.8330593227894951
 20
30.8673089371146006
 30
0.0
 40
1.9999999999998861
  0
CIRCLE
  5
1DB8
  8
0
  6
CONTINUOUS
 62
     2
 10
172.5180795383045051
 20
31.3593730804404913
 30
0.0
 40
1.9999999999998861
  0
ENDSEC
  0
EOF
