  0
SECTION
  2
HEADER
  9
$ACADVER
  1
AC1009
  9
$INSBASE
 10
0.0
 20
0.0
 30
0.0
  9
$EXTMIN
 10
4.8275193100421401
 20
16.1265215298994207
 30
0.0
  9
$EXTMAX
 10
360.6018093227896202
 20
309.5106105574807884
 30
0.0
  9
$LIMMIN
 10
0.0
 20
0.0
  9
$LIMMAX
 10
420.0
 20
297.0
  9
$ORTHOMODE
 70
     0
  9
$REGENMODE
 70
     1
  9
$FILLMODE
 70
     1
  9
$QTEXTMODE
 70
     0
  9
$MIRRTEXT
 70
     1
  9
$DRAGMODE
 70
     2
  9
$LTSCALE
 40
1.0
  9
$OSMODE
 70
  2047
  9
$ATTMODE
 70
     1
  9
$TEXTSIZE
 40
3.5
  9
$TRACEWID
 40
1.0
  9
$TEXTSTYLE
  7
STANDARD
  9
$CLAYER
  8
0
  9
$CELTYPE
  6
BYLAYER
  9
$CECOLOR
 62
   256
  9
$DIMSCALE
 40
1.0
  9
$DIMASZ
 40
3.3019999999999992
  9
$DIMEXO
 40
1.0
  9
$DIMDLI
 40
3.75
  9
$DIMRND
 40
0.0
  9
$DIMDLE
 40
0.0
  9
$DIMEXE
 40
1.0
  9
$DIMTP
 40
0.0
  9
$DIMTM
 40
0.0
  9
$DIMTXT
 40
3.5
  9
$DIMCEN
 40
2.5
  9
$DIMTSZ
 40
0.0
  9
$DIMTOL
 70
     0
  9
$DIMLIM
 70
     0
  9
$DIMTIH
 70
     1
  9
$DIMTOH
 70
     1
  9
$DIMSE1
 70
     0
  9
$DIMSE2
 70
     0
  9
$DIMTAD
 70
     1
  9
$DIMZIN
 70
     0
  9
$DIMBLK
  1

  9
$DIMASO
 70
     1
  9
$DIMSHO
 70
     1
  9
$DIMPOST
  1

  9
$DIMAPOST
  1

  9
$DIMALT
 70
     0
  9
$DIMALTD
 70
     3
  9
$DIMALTF
 40
0.0393700787401575
  9
$DIMLFAC
 40
1.0
  9
$DIMTOFL
 70
     1
  9
$DIMTVP
 40
0.0
  9
$DIMTIX
 70
     0
  9
$DIMSOXD
 70
     0
  9
$DIMSAH
 70
     0
  9
$DIMBLK1
  1

  9
$DIMBLK2
  1

  9
$DIMSTYLE
  2
ISO-25
  9
$DIMCLRD
 70
     0
  9
$DIMCLRE
 70
     0
  9
$DIMCLRT
 70
     0
  9
$DIMTFAC
 40
1.0
  9
$DIMGAP
 40
1.524
  9
$LUNITS
 70
     2
  9
$LUPREC
 70
     2
  9
$SKETCHINC
 40
1.0
  9
$FILLETRAD
 40
10.0
  9
$AUNITS
 70
     0
  9
$AUPREC
 70
     2
  9
$MENU
  1
.
  9
$ELEVATION
 40
0.0
  9
$PELEVATION
 40
0.0
  9
$THICKNESS
 40
0.0
  9
$LIMCHECK
 70
     0
  9
$BLIPMODE
 70
     0
  9
$CHAMFERA
 40
0.0
  9
$CHAMFERB
 40
0.0
  9
$SKPOLY
 70
     0
  9
$TDCREATE
 40
2458384.5862500001676381
  9
$TDUPDATE
 40
2459417.3591203698888421
  9
$TDINDWG
 40
0.1550926042
  9
$TDUSRTIMER
 40
0.1550926042
  9
$USRTIMER
 70
     1
  9
$ANGBASE
 50
0.0
  9
$ANGDIR
 70
     0
  9
$PDMODE
 70
     0
  9
$PDSIZE
 40
-1.0
  9
$PLINEWID
 40
0.0
  9
$COORDS
 70
     1
  9
$SPLFRAME
 70
     0
  9
$SPLINETYPE
 70
     6
  9
$SPLINESEGS
 70
     8
  9
$ATTDIA
 70
     1
  9
$ATTREQ
 70
     1
  9
$HANDLING
 70
     1
  9
$HANDSEED
  5
3FC3
  9
$SURFTAB1
 70
     6
  9
$SURFTAB2
 70
     6
  9
$SURFTYPE
 70
     6
  9
$SURFU
 70
     6
  9
$SURFV
 70
     6
  9
$UCSNAME
  2

  9
$UCSORG
 10
0.0
 20
0.0
 30
0.0
  9
$UCSXDIR
 10
1.0
 20
0.0
 30
0.0
  9
$UCSYDIR
 10
0.0
 20
1.0
 30
0.0
  9
$PUCSNAME
  2

  9
$PUCSORG
 10
0.0
 20
0.0
 30
0.0
  9
$PUCSXDIR
 10
1.0
 20
0.0
 30
0.0
  9
$PUCSYDIR
 10
0.0
 20
1.0
 30
0.0
  9
$USERI1
 70
     0
  9
$USERI2
 70
     0
  9
$USERI3
 70
     0
  9
$USERI4
 70
     0
  9
$USERI5
 70
     0
  9
$USERR1
 40
0.0
  9
$USERR2
 40
0.0
  9
$USERR3
 40
0.0
  9
$USERR4
 40
0.0
  9
$USERR5
 40
0.0
  9
$WORLDVIEW
 70
     1
  9
$SHADEDGE
 70
     3
  9
$SHADEDIF
 70
    70
  9
$TILEMODE
 70
     1
  9
$MAXACTVP
 70
    64
  9
$PLIMCHECK
 70
     0
  9
$PEXTMIN
 10
1.0000000000000000E+20
 20
1.0000000000000000E+20
 30
1.0000000000000000E+20
  9
$PEXTMAX
 10
-1.0000000000000000E+20
 20
-1.0000000000000000E+20
 30
-1.0000000000000000E+20
  9
$PLIMMIN
 10
0.0
 20
0.0
  9
$PLIMMAX
 10
420.0
 20
297.0
  9
$UNITMODE
 70
     0
  9
$VISRETAIN
 70
     1
  9
$PLINEGEN
 70
     0
  9
$PSLTSCALE
 70
     1
  0
ENDSEC
  0
SECTION
  2
TABLES
  0
TABLE
  2
VPORT
 70
     1
  0
VPORT
  2
*ACTIVE
 70
     0
 10
0.0
 20
0.0
 11
1.0
 21
1.0
 12
181.1067267593570875
 22
151.3328717866936017
 13
0.0
 23
0.0
 14
10.0
 24
10.0
 15
10.0
 25
10.0
 16
0.0
 26
0.0
 36
1.0
 17
0.0
 27
0.0
 37
0.0
 40
398.7314086999140272
 41
1.832426550598476
 42
50.0
 43
0.0
 44
0.0
 50
0.0
 51
0.0
 71
     0
 72
   100
 73
     1
 74
     3
 75
     0
 76
     0
 77
     0
 78
     0
  0
ENDTAB
  0
TABLE
  2
LTYPE
 70
     7
  0
LTYPE
  2
CONTINUOUS
 70
     0
  3
Solid line
 72
    65
 73
     0
 40
0.0
  0
LTYPE
  2
HIDDEN
 70
     0
  3
Hidden __ __ __ __ __ __ __ __ __ __ __ __ __ __
 72
    65
 73
     2
 40
1.905
 49
1.27
 49
-0.635
  0
LTYPE
  2
PHANTOM
 70
     0
  3
Phantom ______  __  __  ______  __  __  ______
 72
    65
 73
     6
 40
12.6999999999999993
 49
6.349999999999997
 49
-1.27
 49
1.27
 49
-1.27
 49
1.27
 49
-1.27
  0
LTYPE
  2
CENTER
 70
     0
  3
Center ____ _ ____ _ ____ _ ____ _ ____ _ ____
 72
    65
 73
     4
 40
10.1600000000000001
 49
6.349999999999997
 49
-1.27
 49
1.27
 49
-1.27
  0
LTYPE
  2
CENTERX2
 70
     0
  3
Center (2x) ________  __  ________  __  _____
 72
    65
 73
     4
 40
20.3200000000000003
 49
12.6999999999999993
 49
-2.54
 49
2.54
 49
-2.54
  0
LTYPE
  2
DOT2
 70
     0
  3
Dot (.5x) ........................................
 72
    65
 73
     2
 40
0.635
 49
0.0
 49
-0.635
  0
ENDTAB
  0
TABLE
  2
LAYER
 70
     3
  0
LAYER
  2
0
 70
     0
 62
     3
  6
CONTINUOUS
  0
LAYER
  2
PLATE
 70
     0
 62
     1
  6
CONTINUOUS
  0
LAYER
  2
PCB
 70
     0
 62
     2
  6
CONTINUOUS
  0
ENDTAB
  0
TABLE
  2
STYLE
 70
     2
  0
STYLE
  2
STANDARD
 70
     0
 40
0.0
 41
1.0
 50
0.0
 71
     0
 42
3.5
  3
txt
  4

  0
STYLE
  2
ANNOTATIVE
 70
     0
 40
0.0
 41
1.0
 50
0.0
 71
     0
 42
0.2
  3
txt
  4

  0
ENDTAB
  0
TABLE
  2
VIEW
 70
     0
  0
ENDTAB
  0
TABLE
  2
UCS
 70
     0
  0
ENDTAB
  0
TABLE
  2
APPID
 70
     7
  0
APPID
  2
ACAD
 70
     0
  0
APPID
  2
ACADANNOTATIVE
 70
     0
  0
APPID
  2
ACAD_NAV_VCDISPLAY
 70
     0
  0
APPID
  2
ACAECLAYERSTANDARD
 70
     0
  0
APPID
  2
ACCMTRANSPARENCY
 70
     0
  0
APPID
  2
ACAD_EXEMPT_FROM_CAD_STANDARDS
 70
     0
  0
APPID
  2
ACAD_MLEADERVER
 70
     0
  0
ENDTAB
  0
TABLE
  2
DIMSTYLE
 70
     4
  0
DIMSTYLE
  2
STANDARD
 70
     0
  3

  4

  5

  6

  7

 40
1.0
 41
0.18
 42
0.0625
 43
0.38
 44
0.18
 45
0.0
 46
0.0
 47
0.0
 48
0.0
140
0.18
141
0.09
142
0.0
143
25.3999999999999986
144
1.0
145
0.0
146
1.0
147
0.09
 71
     0
 72
     0
 73
     1
 74
     1
 75
     0
 76
     0
 77
     0
 78
     0
170
     0
171
     2
172
     0
173
     0
174
     0
175
     0
176
     0
177
     0
178
     0
  0
DIMSTYLE
  2
ANNOTATIVE
 70
     0
  3

  4

  5

  6

  7

 40
1.0
 41
0.18
 42
0.0625
 43
0.38
 44
0.18
 45
0.0
 46
0.0
 47
0.0
 48
0.0
140
0.18
141
0.09
142
0.0
143
25.3999999999999986
144
1.0
145
0.0
146
1.0
147
0.09
 71
     0
 72
     0
 73
     1
 74
     1
 75
     0
 76
     0
 77
     0
 78
     0
170
     0
171
     2
172
     0
173
     0
174
     0
175
     0
176
     0
177
     0
178
     0
  0
DIMSTYLE
  2
ISO-25
 70
     0
  3

  4

  5

  6

  7

 40
1.0
 41
2.5
 42
0.625
 43
3.75
 44
1.25
 45
0.0
 46
0.0
 47
0.0
 48
0.0
140
2.5
141
2.5
142
0.0
143
0.03937007874016
144
1.0
145
0.0
146
1.0
147
0.625
 71
     0
 72
     0
 73
     0
 74
     0
 75
     0
 76
     0
 77
     1
 78
     8
170
     0
171
     3
172
     1
173
     0
174
     0
175
     0
176
     0
177
     0
178
     0
  0
ENDTAB
  0
ENDSEC
  0
SECTION
  2
BLOCKS
  0
BLOCK
  8
0
  2
$MODEL_SPACE
 70
     0
 10
0.0
 20
0.0
 30
0.0
  3
$MODEL_SPACE
  1

  0
ENDBLK
  5
3884
  8
0
  0
BLOCK
 67
     1
  8
0
  2
$PAPER_SPACE
 70
     0
 10
0.0
 20
0.0
 30
0.0
  3
$PAPER_SPACE
  1

  0
ENDBLK
  5
3880
 67
     1
  8
0
  0
ENDSEC
  0
SECTION
  2
ENTITIES
  0
CIRCLE
  5
B43
  8
0
  6
CONTINUOUS
 62
     1
 10
238.9565417425401108
 20
23.0419899459776616
 30
0.0
 40
1.75
  0
CIRCLE
  5
B44
  8
0
  6
CONTINUOUS
 62
     1
 10
142.9495769030388033
 20
23.0419899459776296
 30
0.0
 40
1.749999999999956
  0
CIRCLE
  5
B45
  8
0
  6
CONTINUOUS
 62
     1
 10
342.5918093227894019
 20
136.9473089371147125
 30
0.0
 40
1.75
  0
CIRCLE
  5
B46
  8
0
  6
CONTINUOUS
 62
     1
 10
342.5918093227895724
 20
33.0473089371148419
 30
0.0
 40
1.75
  0
CIRCLE
  5
B47
  8
0
  6
CONTINUOUS
 62
     1
 10
39.8130593227895204
 20
33.0473089371148205
 30
0.0
 40
1.750000000000004
  0
CIRCLE
  5
B48
  8
0
  6
CONTINUOUS
 62
     1
 10
39.8130593227895204
 20
136.9473089371147125
 30
0.0
 40
1.75
  0
CIRCLE
  5
B49
  8
0
  6
CONTINUOUS
 62
     1
 10
230.766107658956912
 20
129.0896329013635011
 30
0.0
 40
1.75
  0
CIRCLE
  5
B4A
  8
0
  6
CONTINUOUS
 62
     1
 10
149.8208079420070078
 20
127.4091682552218003
 30
0.0
 40
1.75
  0
POLYLINE
  5
B4B
  8
0
  6
CONTINUOUS
 62
     1
 66
     1
 10
0.0
 20
0.0
 30
0.0
 70
     1
  0
VERTEX
  5
3970
  8
0
  6
CONTINUOUS
 62
     1
 10
28.0530593227895793
 20
36.0473089371147495
 30
0.0
  0
VERTEX
  5
3971
  8
0
  6
CONTINUOUS
 62
     1
 10
35.0630593227895702
 20
36.0473089371147495
 30
0.0
 42
-0.3333333333333495
  0
VERTEX
  5
3972
  8
0
  6
CONTINUOUS
 62
     1
 10
36.0230593227895497
 20
35.3273089371147506
 30
0.0
  0
VERTEX
  5
3973
  8
0
  6
CONTINUOUS
 62
     1
 10
36.9330593227895179
 20
32.2073089371147177
 30
0.0
 42
0.7499999999999944
  0
VERTEX
  5
3974
  8
0
  6
CONTINUOUS
 62
     1
 10
42.6930593227895585
 20
32.2073089371148171
 30
0.0
  0
VERTEX
  5
3975
  8
0
  6
CONTINUOUS
 62
     1
 10
43.6030593227895267
 20
35.3273089371147506
 30
0.0
 42
-0.3333333333333353
  0
VERTEX
  5
3976
  8
0
  6
CONTINUOUS
 62
     1
 10
44.5630593227895133
 20
36.0473089371147495
 30
0.0
  0
VERTEX
  5
3977
  8
0
  6
CONTINUOUS
 62
     1
 10
95.6680434518662537
 20
36.0473089371147495
 30
0.0
 42
-0.0524077792830481
  0
VERTEX
  5
3978
  8
0
  6
CONTINUOUS
 62
     1
 10
96.7076019059551442
 20
35.9380469407837779
 30
0.0
  0
VERTEX
  5
3979
  8
0
  6
CONTINUOUS
 62
     1
 10
138.9271108720064092
 20
26.9640132795634102
 30
0.0
 42
-0.3333333333333317
  0
VERTEX
  5
397A
  8
0
  6
CONTINUOUS
 62
     1
 10
139.7164361513221138
 20
26.0601517838499888
 30
0.0
  0
VERTEX
  5
397B
  8
0
  6
CONTINUOUS
 62
     1
 10
139.9578659926384887
 20
22.8191316309162886
 30
0.0
 42
0.7499999999999977
  0
VERTEX
  5
397C
  8
0
  6
CONTINUOUS
 62
     1
 10
145.5919961728652083
 20
21.6215602918061087
 30
0.0
  0
VERTEX
  5
397D
  8
0
  6
CONTINUOUS
 62
     1
 10
147.1307949648843874
 20
24.4841811674514105
 30
0.0
 42
-0.3333333333333482
  0
VERTEX
  5
397E
  8
0
  6
CONTINUOUS
 62
     1
 10
148.2195130789777124
 20
24.9888522167947009
 30
0.0
  0
VERTEX
  5
397F
  8
0
  6
CONTINUOUS
 62
     1
 10
189.9135008687009076
 20
16.1265215298994207
 30
0.0
 42
0.1051042352656717
  0
VERTEX
  5
3980
  8
0
  6
CONTINUOUS
 62
     1
 10
191.9926177768782054
 20
16.1265215298994491
 30
0.0
  0
VERTEX
  5
3981
  8
0
  6
CONTINUOUS
 62
     1
 10
233.6866055666012869
 20
24.9888522167947187
 30
0.0
 42
-0.3333333333333534
  0
VERTEX
  5
3982
  8
0
  6
CONTINUOUS
 62
     1
 10
234.7753236806946973
 20
24.4841811674513501
 30
0.0
  0
VERTEX
  5
3983
  8
0
  6
CONTINUOUS
 62
     1
 10
236.3141224727137057
 20
21.6215602918059915
 30
0.0
 42
0.7500000000000046
  0
VERTEX
  5
3984
  8
0
  6
CONTINUOUS
 62
     1
 10
241.9482526529405106
 20
22.8191316309163916
 30
0.0
  0
VERTEX
  5
3985
  8
0
  6
CONTINUOUS
 62
     1
 10
242.1896824942568003
 20
26.0601517838499284
 30
0.0
 42
-0.3333333333333194
  0
VERTEX
  5
3986
  8
0
  6
CONTINUOUS
 62
     1
 10
242.9790077735725049
 20
26.9640132795633605
 30
0.0
  0
VERTEX
  5
3987
  8
0
  6
CONTINUOUS
 62
     1
 10
284.972694494369307
 20
35.8900469407838116
 30
0.0
 42
-0.0524077792830493
  0
VERTEX
  5
3988
  8
0
  6
CONTINUOUS
 62
     1
 10
286.0122529484577854
 20
35.9993089371147619
 30
0.0
  0
VERTEX
  5
3989
  8
0
  6
CONTINUOUS
 62
     1
 10
337.8558093227895824
 20
35.9993089371147974
 30
0.0
 42
-0.3333333333333131
  0
VERTEX
  5
398A
  8
0
  6
CONTINUOUS
 62
     1
 10
338.8158093227896188
 20
35.2793089371147488
 30
0.0
  0
VERTEX
  5
398B
  8
0
  6
CONTINUOUS
 62
     1
 10
339.711809322789577
 20
32.2073089371147105
 30
0.0
 42
0.749999999999996
  0
VERTEX
  5
398C
  8
0
  6
CONTINUOUS
 62
     1
 10
345.4718093227896247
 20
32.2073089371147887
 30
0.0
  0
VERTEX
  5
398D
  8
0
  6
CONTINUOUS
 62
     1
 10
346.367809322789526
 20
35.279308937114763
 30
0.0
 42
-0.3333333333333093
  0
VERTEX
  5
398E
  8
0
  6
CONTINUOUS
 62
     1
 10
347.3278093227896193
 20
35.9993089371147619
 30
0.0
  0
VERTEX
  5
398F
  8
0
  6
CONTINUOUS
 62
     1
 10
355.1875957604161727
 20
35.9993089371147619
 30
0.0
 42
0.1989123673796876
  0
VERTEX
  5
3990
  8
0
  6
CONTINUOUS
 62
     1
 10
355.8947025416030101
 20
36.2922021559281802
 30
0.0
  0
VERTEX
  5
3991
  8
0
  6
CONTINUOUS
 62
     1
 10
360.3089161039761166
 20
40.7064157183012512
 30
0.0
 42
0.1989123673796423
  0
VERTEX
  5
3992
  8
0
  6
CONTINUOUS
 62
     1
 10
360.6018093227893928
 20
41.4135224994877618
 30
0.0
  0
VERTEX
  5
3993
  8
0
  6
CONTINUOUS
 62
     1
 10
360.6018093227896202
 20
128.5330953747414924
 30
0.0
 42
0.198912367379664
  0
VERTEX
  5
3994
  8
0
  6
CONTINUOUS
 62
     1
 10
360.3089161039761166
 20
129.2402021559281025
 30
0.0
  0
VERTEX
  5
3995
  8
0
  6
CONTINUOUS
 62
     1
 10
355.8947025416027827
 20
133.6544157183012942
 30
0.0
 42
0.1989123673797242
  0
VERTEX
  5
3996
  8
0
  6
CONTINUOUS
 62
     1
 10
355.1875957604161727
 20
133.9473089371147125
 30
0.0
  0
VERTEX
  5
3997
  8
0
  6
CONTINUOUS
 62
     1
 10
347.3418093227895156
 20
133.9473089371147125
 30
0.0
 42
-0.3333333333333786
  0
VERTEX
  5
3998
  8
0
  6
CONTINUOUS
 62
     1
 10
346.3818093227895929
 20
134.6673089371147114
 30
0.0
  0
VERTEX
  5
3999
  8
0
  6
CONTINUOUS
 62
     1
 10
345.4718093227896247
 20
137.7873089371148012
 30
0.0
 42
0.7499999999999691
  0
VERTEX
  5
399A
  8
0
  6
CONTINUOUS
 62
     1
 10
339.711809322789577
 20
137.7873089371148012
 30
0.0
  0
VERTEX
  5
399B
  8
0
  6
CONTINUOUS
 62
     1
 10
338.8018093227894951
 20
134.6673089371147114
 30
0.0
 42
-0.3333333333333345
  0
VERTEX
  5
399C
  8
0
  6
CONTINUOUS
 62
     1
 10
337.8418093227895156
 20
133.9473089371147125
 30
0.0
  0
VERTEX
  5
399D
  8
0
  6
CONTINUOUS
 62
     1
 10
268.0488796330762966
 20
133.9473089371147125
 30
0.0
  0
VERTEX
  5
399E
  8
0
  6
CONTINUOUS
 62
     1
 10
236.0360438348957928
 20
127.1427706305464937
 30
0.0
 42
-0.3333333333333699
  0
VERTEX
  5
399F
  8
0
  6
CONTINUOUS
 62
     1
 10
234.9473257208024961
 20
127.6474416798896954
 30
0.0
  0
VERTEX
  5
39A0
  8
0
  6
CONTINUOUS
 62
     1
 10
233.4085269287834024
 20
130.5100625555350859
 30
0.0
 42
0.7500000000000067
  0
VERTEX
  5
39A1
  8
0
  6
CONTINUOUS
 62
     1
 10
227.7743967485567111
 20
129.312491216424803
 30
0.0
  0
VERTEX
  5
39A2
  8
0
  6
CONTINUOUS
 62
     1
 10
227.5329669072403078
 20
126.0714710634912024
 30
0.0
 42
-0.333333333333315
  0
VERTEX
  5
39A3
  8
0
  6
CONTINUOUS
 62
     1
 10
226.7436416279246885
 20
125.1676095677778022
 30
0.0
  0
VERTEX
  5
39A4
  8
0
  6
CONTINUOUS
 62
     1
 10
186.5483872052236904
 20
116.6238444922366995
 30
0.0
 42
-0.105104235265693
  0
VERTEX
  5
39A5
  8
0
  6
CONTINUOUS
 62
     1
 10
186.1325638235881001
 20
116.6238444922366995
 30
0.0
  0
VERTEX
  5
39A6
  8
0
  6
CONTINUOUS
 62
     1
 10
153.8432739730392882
 20
123.4871449216361015
 30
0.0
 42
-0.3333333333333223
  0
VERTEX
  5
39A7
  8
0
  6
CONTINUOUS
 62
     1
 10
153.053948693723612
 20
124.3910064173495016
 30
0.0
  0
VERTEX
  5
39A8
  8
0
  6
CONTINUOUS
 62
     1
 10
152.8125188524072087
 20
127.6320265702831023
 30
0.0
 42
0.7499999999999954
  0
VERTEX
  5
39A9
  8
0
  6
CONTINUOUS
 62
     1
 10
147.1783886721804038
 20
128.8295979093934136
 30
0.0
  0
VERTEX
  5
39AA
  8
0
  6
CONTINUOUS
 62
     1
 10
145.6395898801613953
 20
125.9669770337479946
 30
0.0
 42
-0.3333333333333328
  0
VERTEX
  5
39AB
  8
0
  6
CONTINUOUS
 62
     1
 10
144.5508717660680986
 20
125.462305984404793
 30
0.0
  0
VERTEX
  5
39AC
  8
0
  6
CONTINUOUS
 62
     1
 10
104.7348788512874052
 20
133.925456537848504
 30
0.0
 42
0.0524077792830826
  0
VERTEX
  5
39AD
  8
0
  6
CONTINUOUS
 62
     1
 10
104.5269671604695958
 20
133.9473089371147125
 30
0.0
  0
VERTEX
  5
39AE
  8
0
  6
CONTINUOUS
 62
     1
 10
44.5630593227895702
 20
133.9473089371147125
 30
0.0
 42
-0.3333333333333426
  0
VERTEX
  5
39AF
  8
0
  6
CONTINUOUS
 62
     1
 10
43.6030593227895267
 20
134.6673089371147114
 30
0.0
  0
VERTEX
  5
39B0
  8
0
  6
CONTINUOUS
 62
     1
 10
42.6930593227895585
 20
137.7873089371146875
 30
0.0
 42
0.7499999999999956
  0
VERTEX
  5
39B1
  8
0
  6
CONTINUOUS
 62
     1
 10
36.9330593227895179
 20
137.7873089371146875
 30
0.0
  0
VERTEX
  5
39B2
  8
0
  6
CONTINUOUS
 62
     1
 10
36.0230593227895497
 20
134.6673089371147967
 30
0.0
 42
-0.3333333333333337
  0
VERTEX
  5
39B3
  8
0
  6
CONTINUOUS
 62
     1
 10
35.0630593227895204
 20
133.9473089371147125
 30
0.0
  0
VERTEX
  5
39B4
  8
0
  6
CONTINUOUS
 62
     1
 10
27.2172728851627284
 20
133.9473089371147125
 30
0.0
 42
0.1989123673796379
  0
VERTEX
  5
39B5
  8
0
  6
CONTINUOUS
 62
     1
 10
26.5101661039761893
 20
133.6544157183012942
 30
0.0
  0
VERTEX
  5
39B6
  8
0
  6
CONTINUOUS
 62
     1
 10
22.0959525416029692
 20
129.2402021559281025
 30
0.0
 42
0.1989123673796255
  0
VERTEX
  5
39B7
  8
0
  6
CONTINUOUS
 62
     1
 10
21.8030593227895189
 20
128.5330953747416061
 30
0.0
  0
VERTEX
  5
39B8
  8
0
  6
CONTINUOUS
 62
     1
 10
21.8030593227895189
 20
51.2973089371147424
 30
0.0
 42
0.4142135623730873
  0
VERTEX
  5
39B9
  8
0
  6
CONTINUOUS
 62
     1
 10
22.8030593227895189
 20
50.2973089371147708
 30
0.0
  0
VERTEX
  5
39BA
  8
0
  6
CONTINUOUS
 62
     1
 10
26.0530593227895793
 20
50.2973089371147708
 30
0.0
 42
-0.4142135623730826
  0
VERTEX
  5
39BB
  8
0
  6
CONTINUOUS
 62
     1
 10
27.0530593227895793
 20
49.2973089371147424
 30
0.0
  0
VERTEX
  5
39BC
  8
0
  6
CONTINUOUS
 62
     1
 10
27.0530593227895793
 20
37.0473089371147424
 30
0.0
 42
0.4142135623730895
  0
SEQEND
  5
39BD
  8
0
  6
CONTINUOUS
 62
     1
  0
POLYLINE
  5
B4C
  8
0
  6
CONTINUOUS
 62
     1
 66
     1
 10
0.0
 20
0.0
 30
0.0
 70
     1
  0
VERTEX
  5
39BE
  8
0
  6
CONTINUOUS
 62
     1
 10
182.1573267629167105
 20
36.4668719973448674
 30
0.0
  0
VERTEX
  5
39BF
  8
0
  6
CONTINUOUS
 62
     1
 10
168.0915642643643935
 20
39.4566421113042907
 30
0.0
 42
0.4142135623730718
  0
VERTEX
  5
39C0
  8
0
  6
CONTINUOUS
 62
     1
 10
166.9055049728129063
 20
38.6864062013882375
 30
0.0
  0
VERTEX
  5
39C1
  8
0
  6
CONTINUOUS
 62
     1
 10
164.4105646829997056
 20
26.9486349925825301
 30
0.0
 42
0.4142135623731082
  0
VERTEX
  5
39C2
  8
0
  6
CONTINUOUS
 62
     1
 10
165.1808005929158014
 20
25.7625757010309684
 30
0.0
  0
VERTEX
  5
39C3
  8
0
  6
CONTINUOUS
 62
     1
 10
179.2465630914680048
 20
22.7728055870715984
 30
0.0
 42
0.4142135623731316
  0
VERTEX
  5
39C4
  8
0
  6
CONTINUOUS
 62
     1
 10
180.432622383019492
 20
23.5430414969876693
 30
0.0
  0
VERTEX
  5
39C5
  8
0
  6
CONTINUOUS
 62
     1
 10
182.9275626728326074
 20
35.2808127057933021
 30
0.0
 42
0.4142135623731081
  0
SEQEND
  5
39C6
  8
0
  6
CONTINUOUS
 62
     1
  0
POLYLINE
  5
B4D
  8
0
  6
CONTINUOUS
 62
     1
 66
     1
 10
0.0
 20
0.0
 30
0.0
 70
     1
  0
VERTEX
  5
39C7
  8
0
  6
CONTINUOUS
 62
     1
 10
129.1430941804912891
 20
34.4402526164533569
 30
0.0
  0
VERTEX
  5
39C8
  8
0
  6
CONTINUOUS
 62
     1
 10
134.0338321841564095
 20
33.4006941623654399
 30
0.0
 42
0.0236362162189824
  0
VERTEX
  5
39C9
  8
0
  6
CONTINUOUS
 62
     1
 10
134.1270843614418879
 20
33.3854369131228879
 30
0.0
 42
0.4141704366929254
  0
VERTEX
  5
39CA
  8
0
  6
CONTINUOUS
 62
     1
 10
134.8973508741972864
 20
32.199521648749247
 30
0.0
  0
VERTEX
  5
39CB
  8
0
  6
CONTINUOUS
 62
     1
 10
137.0959170595448882
 20
31.7322019797877708
 30
0.0
 42
0.0240240556255289
  0
VERTEX
  5
39CC
  8
0
  6
CONTINUOUS
 62
     1
 10
137.1887918826622013
 20
31.70774587688474
 30
0.0
  0
VERTEX
  5
39CD
  8
0
  6
CONTINUOUS
 62
     1
 10
148.9265630914680969
 20
29.2128055870716317
 30
0.0
 42
0.4142135623730823
  0
VERTEX
  5
39CE
  8
0
  6
CONTINUOUS
 62
     1
 10
150.1126223830196125
 20
29.9830414969876813
 30
0.0
  0
VERTEX
  5
39CF
  8
0
  6
CONTINUOUS
 62
     1
 10
150.1151304870859917
 20
29.9948411988962818
 30
0.0
 42
0.0248928629650061
  0
VERTEX
  5
39D0
  8
0
  6
CONTINUOUS
 62
     1
 10
150.2113158043910062
 20
29.9693346688973783
 30
0.0
  0
VERTEX
  5
39D1
  8
0
  6
CONTINUOUS
 62
     1
 10
152.3823750288696033
 20
29.507861784960209
 30
0.0
 42
0.0298424820520141
  0
VERTEX
  5
39D2
  8
0
  6
CONTINUOUS
 62
     1
 10
152.4973462956114076
 20
29.4761530864896883
 30
0.0
  0
VERTEX
  5
39D3
  8
0
  6
CONTINUOUS
 62
     1
 10
157.3880842992790861
 20
28.4365946324011993
 30
0.0
 42
0.4142135623731571
  0
VERTEX
  5
39D4
  8
0
  6
CONTINUOUS
 62
     1
 10
158.574143590830289
 20
29.206830542317249
 30
0.0
  0
VERTEX
  5
39D5
  8
0
  6
CONTINUOUS
 62
     1
 10
161.2769955714614127
 20
41.922749351856659
 30
0.0
 42
0.4142135623727938
  0
VERTEX
  5
39D6
  8
0
  6
CONTINUOUS
 62
     1
 10
160.5067596615456864
 20
43.1088086434079685
 30
0.0
  0
VERTEX
  5
39D7
  8
0
  6
CONTINUOUS
 62
     1
 10
158.3357004370928109
 20
43.5702815273395885
 30
0.0
 42
0.0298424820536643
  0
VERTEX
  5
39D8
  8
0
  6
CONTINUOUS
 62
     1
 10
158.2207291703377905
 20
43.6019902258141983
 30
0.0
  0
VERTEX
  5
39D9
  8
0
  6
CONTINUOUS
 62
     1
 10
153.3299911666593971
 20
44.6415486799050427
 30
0.0
 42
0.4142135623740356
  0
VERTEX
  5
39DA
  8
0
  6
CONTINUOUS
 62
     1
 10
152.1439318751066878
 20
43.8713127699895935
 30
0.0
  0
VERTEX
  5
39DB
  8
0
  6
CONTINUOUS
 62
     1
 10
151.9335120802221013
 20
42.8813654673457592
 30
0.0
 42
0.0248928629654563
  0
VERTEX
  5
39DC
  8
0
  6
CONTINUOUS
 62
     1
 10
151.8373267629166037
 20
42.9068719973448793
 30
0.0
  0
VERTEX
  5
39DD
  8
0
  6
CONTINUOUS
 62
     1
 10
149.6387605775676093
 20
43.374191666306622
 30
0.0
 42
0.0240240556246659
  0
VERTEX
  5
39DE
  8
0
  6
CONTINUOUS
 62
     1
 10
149.5458857544504951
 20
43.3986477692095889
 30
0.0
  0
VERTEX
  5
39DF
  8
0
  6
CONTINUOUS
 62
     1
 10
137.8081145456459922
 20
45.8935880590225622
 30
0.0
 42
0.0236362134955536
  0
VERTEX
  5
39E0
  8
0
  6
CONTINUOUS
 62
     1
 10
137.7148623791781006
 20
45.9088453070165272
 30
0.0
  0
VERTEX
  5
39E1
  8
0
  6
CONTINUOUS
 62
     1
 10
137.9227434563399015
 20
46.8868488818216065
 30
0.0
 42
0.4142135623728282
  0
VERTEX
  5
39E2
  8
0
  6
CONTINUOUS
 62
     1
 10
137.1525075464240047
 20
48.0729081733729302
 30
0.0
  0
VERTEX
  5
39E3
  8
0
  6
CONTINUOUS
 62
     1
 10
134.9814483219603005
 20
48.5343810573069234
 30
0.0
 42
0.0298424820589184
  0
VERTEX
  5
39E4
  8
0
  6
CONTINUOUS
 62
     1
 10
134.8664770552074117
 20
48.5660897557812774
 30
0.0
  0
VERTEX
  5
39E5
  8
0
  6
CONTINUOUS
 62
     1
 10
129.9757390515376869
 20
49.6056482098703171
 30
0.0
 42
0.414213562373473
  0
VERTEX
  5
39E6
  8
0
  6
CONTINUOUS
 62
     1
 10
128.7896797599858019
 20
48.8354122999543705
 30
0.0
  0
VERTEX
  5
39E7
  8
0
  6
CONTINUOUS
 62
     1
 10
126.0868277793549055
 20
36.1194934904150102
 30
0.0
 42
0.4142135623723204
  0
VERTEX
  5
39E8
  8
0
  6
CONTINUOUS
 62
     1
 10
126.8570636892715982
 20
34.9334341988635728
 30
0.0
  0
VERTEX
  5
39E9
  8
0
  6
CONTINUOUS
 62
     1
 10
129.0281229137252126
 20
34.4719613149316899
 30
0.0
 42
0.0298424820624604
  0
SEQEND
  5
39EA
  8
0
  6
CONTINUOUS
 62
     1
  0
POLYLINE
  5
B4E
  8
0
  6
CONTINUOUS
 62
     1
 66
     1
 10
0.0
 20
0.0
 30
0.0
 70
     1
  0
VERTEX
  5
39EB
  8
0
  6
CONTINUOUS
 62
     1
 10
349.1810593227853019
 20
92.9273092353467973
 30
0.0
  0
VERTEX
  5
39EC
  8
0
  6
CONTINUOUS
 62
     1
 10
344.1810593227863251
 20
92.9273092353467547
 30
0.0
 42
0.4142135623735843
  0
VERTEX
  5
39ED
  8
0
  6
CONTINUOUS
 62
     1
 10
343.1810593227868935
 20
91.9273092353467121
 30
0.0
  0
VERTEX
  5
39EE
  8
0
  6
CONTINUOUS
 62
     1
 10
343.181059322786723
 20
78.9273092353466836
 30
0.0
 42
0.4142135623730307
  0
VERTEX
  5
39EF
  8
0
  6
CONTINUOUS
 62
     1
 10
344.1810593227863819
 20
77.9273092353469963
 30
0.0
  0
VERTEX
  5
39F0
  8
0
  6
CONTINUOUS
 62
     1
 10
349.1810593227850745
 20
77.9273092353470531
 30
0.0
 42
0.4142135623731618
  0
VERTEX
  5
39F1
  8
0
  6
CONTINUOUS
 62
     1
 10
350.181059322784904
 20
78.9273092353469963
 30
0.0
  0
VERTEX
  5
39F2
  8
0
  6
CONTINUOUS
 62
     1
 10
350.1810593227851882
 20
91.9273092353470247
 30
0.0
 42
0.4142135623727581
  0
SEQEND
  5
39F3
  8
0
  6
CONTINUOUS
 62
     1
  0
POLYLINE
  5
B4F
  8
0
  6
CONTINUOUS
 62
     1
 66
     1
 10
0.0
 20
0.0
 30
0.0
 70
     1
  0
VERTEX
  5
39F4
  8
0
  6
CONTINUOUS
 62
     1
 10
314.2500593227936747
 20
113.0273086388828006
 30
0.0
  0
VERTEX
  5
39F5
  8
0
  6
CONTINUOUS
 62
     1
 10
319.2500593227928789
 20
113.0273086388828006
 30
0.0
 42
0.4142135623735967
  0
VERTEX
  5
39F6
  8
0
  6
CONTINUOUS
 62
     1
 10
320.2500593227921968
 20
114.0273086388828006
 30
0.0
  0
VERTEX
  5
39F7
  8
0
  6
CONTINUOUS
 62
     1
 10
320.2500593227924242
 20
115.0273089371147961
 30
0.0
  0
VERTEX
  5
39F8
  8
0
  6
CONTINUOUS
 62
     1
 10
337.1260593227955837
 20
115.0273089371147961
 30
0.0
  0
VERTEX
  5
39F9
  8
0
  6
CONTINUOUS
 62
     1
 10
337.1260593227954132
 20
114.0273086388825021
 30
0.0
 42
0.4142135623727877
  0
VERTEX
  5
39FA
  8
0
  6
CONTINUOUS
 62
     1
 10
338.1260593227950721
 20
113.0273086388827011
 30
0.0
  0
VERTEX
  5
39FB
  8
0
  6
CONTINUOUS
 62
     1
 10
343.1260593227924005
 20
113.0273086388828006
 30
0.0
 42
0.4142135623720363
  0
VERTEX
  5
39FC
  8
0
  6
CONTINUOUS
 62
     1
 10
344.1260593227935942
 20
114.0273086388828006
 30
0.0
  0
VERTEX
  5
39FD
  8
0
  6
CONTINUOUS
 62
     1
 10
344.1260593227934805
 20
115.0273089371147961
 30
0.0
  0
VERTEX
  5
39FE
  8
0
  6
CONTINUOUS
 62
     1
 10
344.2130593227894906
 20
115.0273089371147961
 30
0.0
 42
0.4142135623731474
  0
VERTEX
  5
39FF
  8
0
  6
CONTINUOUS
 62
     1
 10
345.2130593227896043
 20
116.0273089371147961
 30
0.0
  0
VERTEX
  5
3A00
  8
0
  6
CONTINUOUS
 62
     1
 10
345.2130593227894906
 20
128.0273089371148103
 30
0.0
 42
0.4142135623731421
  0
VERTEX
  5
3A01
  8
0
  6
CONTINUOUS
 62
     1
 10
344.2130593227894906
 20
129.0273089371148103
 30
0.0
  0
VERTEX
  5
3A02
  8
0
  6
CONTINUOUS
 62
     1
 10
313.1630593227894224
 20
129.0273089371148103
 30
0.0
 42
0.414213562373084
  0
VERTEX
  5
3A03
  8
0
  6
CONTINUOUS
 62
     1
 10
312.1630593227894224
 20
128.0273089371148103
 30
0.0
  0
VERTEX
  5
3A04
  8
0
  6
CONTINUOUS
 62
     1
 10
312.1630593227894224
 20
116.0273089371147961
 30
0.0
 42
0.41421356237308
  0
VERTEX
  5
3A05
  8
0
  6
CONTINUOUS
 62
     1
 10
313.1630593227894224
 20
115.0273089371146966
 30
0.0
  0
VERTEX
  5
3A06
  8
0
  6
CONTINUOUS
 62
     1
 10
313.2500593227943
 20
115.0273089371147961
 30
0.0
  0
VERTEX
  5
3A07
  8
0
  6
CONTINUOUS
 62
     1
 10
313.2500593227941863
 20
114.0273086388826016
 30
0.0
 42
0.4142135623727877
  0
SEQEND
  5
3A08
  8
0
  6
CONTINUOUS
 62
     1
  0
POLYLINE
  5
B50
  8
0
  6
CONTINUOUS
 62
     1
 66
     1
 10
0.0
 20
0.0
 30
0.0
 70
     1
  0
VERTEX
  5
3A09
  8
0
  6
CONTINUOUS
 62
     1
 10
325.3050593227840181
 20
92.9273092353465699
 30
0.0
  0
VERTEX
  5
3A0A
  8
0
  6
CONTINUOUS
 62
     1
 10
320.3050593227866898
 20
92.9273092353465699
 30
0.0
 42
0.4142135623720192
  0
VERTEX
  5
3A0B
  8
0
  6
CONTINUOUS
 62
     1
 10
319.3050593227856098
 20
91.9273092353465699
 30
0.0
  0
VERTEX
  5
3A0C
  8
0
  6
CONTINUOUS
 62
     1
 10
319.3050593227857803
 20
78.9273092353465415
 30
0.0
 42
0.4142135623733948
  0
VERTEX
  5
3A0D
  8
0
  6
CONTINUOUS
 62
     1
 10
320.3050593227866898
 20
77.9273092353459305
 30
0.0
  0
VERTEX
  5
3A0E
  8
0
  6
CONTINUOUS
 62
     1
 10
325.3050593227828244
 20
77.9273092353459731
 30
0.0
 42
0.4142135623731534
  0
VERTEX
  5
3A0F
  8
0
  6
CONTINUOUS
 62
     1
 10
326.3050593227835066
 20
78.9273092353468115
 30
0.0
  0
VERTEX
  5
3A10
  8
0
  6
CONTINUOUS
 62
     1
 10
326.3050593227836771
 20
91.92730923534684
 30
0.0
 42
0.41421356237276
  0
SEQEND
  5
3A11
  8
0
  6
CONTINUOUS
 62
     1
  0
POLYLINE
  5
B51
  8
0
  6
CONTINUOUS
 62
     1
 66
     1
 10
0.0
 20
0.0
 30
0.0
 70
     1
  0
VERTEX
  5
3A12
  8
0
  6
CONTINUOUS
 62
     1
 10
235.5343491028141898
 20
48.072466627460031
 30
0.0
  0
VERTEX
  5
3A13
  8
0
  6
CONTINUOUS
 62
     1
 10
230.6436110991461135
 20
47.0329081733714034
 30
0.0
 42
0.4142135623735811
  0
VERTEX
  5
3A14
  8
0
  6
CONTINUOUS
 62
     1
 10
229.8733751892306998
 20
45.8468488818199305
 30
0.0
  0
VERTEX
  5
3A15
  8
0
  6
CONTINUOUS
 62
     1
 10
232.5762271698613972
 20
33.1309300722804068
 30
0.0
 42
0.4142135623729507
  0
VERTEX
  5
3A16
  8
0
  6
CONTINUOUS
 62
     1
 10
233.7622864614126001
 20
32.3606941623646023
 30
0.0
  0
VERTEX
  5
3A17
  8
0
  6
CONTINUOUS
 62
     1
 10
238.6530244650803922
 20
33.4002526164531801
 30
0.0
 42
0.4142135623731338
  0
VERTEX
  5
3A18
  8
0
  6
CONTINUOUS
 62
     1
 10
239.4232603749962038
 20
34.5863119080044328
 30
0.0
  0
VERTEX
  5
3A19
  8
0
  6
CONTINUOUS
 62
     1
 10
236.7204083943653927
 20
47.3022307175441767
 30
0.0
 42
0.4142135623727932
  0
SEQEND
  5
3A1A
  8
0
  6
CONTINUOUS
 62
     1
  0
POLYLINE
  5
B53
  8
0
  6
CONTINUOUS
 62
     1
 66
     1
 10
0.0
 20
0.0
 30
0.0
 70
     1
  0
VERTEX
  5
3A1B
  8
0
  6
CONTINUOUS
 62
     1
 10
47.9050593227945498
 20
55.8773086388831928
 30
0.0
  0
VERTEX
  5
3A1C
  8
0
  6
CONTINUOUS
 62
     1
 10
52.9050593227935906
 20
55.8773086388831928
 30
0.0
 42
0.4142135623730898
  0
VERTEX
  5
3A1D
  8
0
  6
CONTINUOUS
 62
     1
 10
53.9050593227933206
 20
56.8773086388828872
 30
0.0
  0
VERTEX
  5
3A1E
  8
0
  6
CONTINUOUS
 62
     1
 10
53.9050593227933206
 20
69.8773086388829654
 30
0.0
 42
0.4142135623734127
  0
VERTEX
  5
3A1F
  8
0
  6
CONTINUOUS
 62
     1
 10
52.9050593227927308
 20
70.8773086388826812
 30
0.0
  0
VERTEX
  5
3A20
  8
0
  6
CONTINUOUS
 62
     1
 10
47.9050593227939885
 20
70.8773086388826528
 30
0.0
 42
0.4142135623731753
  0
VERTEX
  5
3A21
  8
0
  6
CONTINUOUS
 62
     1
 10
46.9050593227942727
 20
69.8773086388826812
 30
0.0
  0
VERTEX
  5
3A22
  8
0
  6
CONTINUOUS
 62
     1
 10
46.905059322794159
 20
56.8773086388826812
 30
0.0
 42
0.4142135623731502
  0
SEQEND
  5
3A23
  8
0
  6
CONTINUOUS
 62
     1
  0
POLYLINE
  5
B54
  8
0
  6
CONTINUOUS
 62
     1
 66
     1
 10
0.0
 20
0.0
 30
0.0
 70
     1
  0
VERTEX
  5
3A24
  8
0
  6
CONTINUOUS
 62
     1
 10
71.7810593227950307
 20
55.8773086388829086
 30
0.0
  0
VERTEX
  5
3A25
  8
0
  6
CONTINUOUS
 62
     1
 10
76.7810593227923022
 20
55.8773086388829086
 30
0.0
 42
0.4142135623733302
  0
VERTEX
  5
3A26
  8
0
  6
CONTINUOUS
 62
     1
 10
77.7810593227928848
 20
56.8773086388837967
 30
0.0
  0
VERTEX
  5
3A27
  8
0
  6
CONTINUOUS
 62
     1
 10
77.7810593227928848
 20
69.877308638883818
 30
0.0
 42
0.4142135623728349
  0
VERTEX
  5
3A28
  8
0
  6
CONTINUOUS
 62
     1
 10
76.7810593227923022
 20
70.8773086388835623
 30
0.0
  0
VERTEX
  5
3A29
  8
0
  6
CONTINUOUS
 62
     1
 10
71.7810593227962386
 20
70.8773086388835623
 30
0.0
 42
0.414213562373168
  0
VERTEX
  5
3A2A
  8
0
  6
CONTINUOUS
 62
     1
 10
70.7810593227956133
 20
69.8773086388826812
 30
0.0
  0
VERTEX
  5
3A2B
  8
0
  6
CONTINUOUS
 62
     1
 10
70.7810593227953291
 20
56.8773086388826812
 30
0.0
 42
0.4142135623727871
  0
SEQEND
  5
3A2C
  8
0
  6
CONTINUOUS
 62
     1
  0
POLYLINE
  5
B55
  8
0
  6
CONTINUOUS
 62
     1
 66
     1
 10
0.0
 20
0.0
 30
0.0
 70
     1
  0
VERTEX
  5
3A2D
  8
0
  6
CONTINUOUS
 62
     1
 10
317.6280593227896247
 20
70.8773089371147762
 30
0.0
  0
VERTEX
  5
3A2E
  8
0
  6
CONTINUOUS
 62
     1
 10
317.6280593227896247
 20
58.8773089371147407
 30
0.0
 42
0.4142135623731117
  0
VERTEX
  5
3A2F
  8
0
  6
CONTINUOUS
 62
     1
 10
318.6280593227896247
 20
57.877308937114762
 30
0.0
  0
VERTEX
  5
3A30
  8
0
  6
CONTINUOUS
 62
     1
 10
318.7150593227943887
 20
57.877308937114762
 30
0.0
  0
VERTEX
  5
3A31
  8
0
  6
CONTINUOUS
 62
     1
 10
318.7150593227941044
 20
56.8773086388825675
 30
0.0
 42
0.4142135623727163
  0
VERTEX
  5
3A32
  8
0
  6
CONTINUOUS
 62
     1
 10
319.7150593227938771
 20
55.8773086388828233
 30
0.0
  0
VERTEX
  5
3A33
  8
0
  6
CONTINUOUS
 62
     1
 10
324.7150593227930244
 20
55.8773086388828375
 30
0.0
 42
0.4142135623735446
  0
VERTEX
  5
3A34
  8
0
  6
CONTINUOUS
 62
     1
 10
325.7150593227921718
 20
56.8773086388828304
 30
0.0
  0
VERTEX
  5
3A35
  8
0
  6
CONTINUOUS
 62
     1
 10
325.7150593227925128
 20
57.877308937114762
 30
0.0
  0
VERTEX
  5
3A36
  8
0
  6
CONTINUOUS
 62
     1
 10
340.1530593227893746
 20
57.877308937114762
 30
0.0
 42
0.4142135623731036
  0
VERTEX
  5
3A37
  8
0
  6
CONTINUOUS
 62
     1
 10
341.1530593227893746
 20
58.8773089371147407
 30
0.0
  0
VERTEX
  5
3A38
  8
0
  6
CONTINUOUS
 62
     1
 10
341.1530593227893746
 20
70.8773089371147762
 30
0.0
 42
0.4142135623731263
  0
VERTEX
  5
3A39
  8
0
  6
CONTINUOUS
 62
     1
 10
340.1530593227893746
 20
71.8773089371148046
 30
0.0
  0
VERTEX
  5
3A3A
  8
0
  6
CONTINUOUS
 62
     1
 10
318.6280593227896247
 20
71.8773089371147762
 30
0.0
 42
0.4142135623731451
  0
SEQEND
  5
3A3B
  8
0
  6
CONTINUOUS
 62
     1
  0
POLYLINE
  5
B56
  8
0
  6
CONTINUOUS
 62
     1
 66
     1
 10
0.0
 20
0.0
 30
0.0
 70
     1
  0
VERTEX
  5
3A3C
  8
0
  6
CONTINUOUS
 62
     1
 10
343.5910593227962977
 20
70.8773086388834486
 30
0.0
 42
0.4142135623732618
  0
VERTEX
  5
3A3D
  8
0
  6
CONTINUOUS
 62
     1
 10
342.5910593227956156
 20
69.8773086388826243
 30
0.0
  0
VERTEX
  5
3A3E
  8
0
  6
CONTINUOUS
 62
     1
 10
342.5910593227953882
 20
56.8773086388825675
 30
0.0
 42
0.4142135623727163
  0
VERTEX
  5
3A3F
  8
0
  6
CONTINUOUS
 62
     1
 10
343.5910593227952177
 20
55.8773086388828233
 30
0.0
  0
VERTEX
  5
3A40
  8
0
  6
CONTINUOUS
 62
     1
 10
348.5910593227923755
 20
55.8773086388828375
 30
0.0
 42
0.4142135623720797
  0
VERTEX
  5
3A41
  8
0
  6
CONTINUOUS
 62
     1
 10
349.5910593227936261
 20
56.877308638882873
 30
0.0
  0
VERTEX
  5
3A42
  8
0
  6
CONTINUOUS
 62
     1
 10
349.5910593227936261
 20
57.877308937114762
 30
0.0
  0
VERTEX
  5
3A43
  8
0
  6
CONTINUOUS
 62
     1
 10
356.8218093227894769
 20
57.877308937114762
 30
0.0
 42
0.4142135623730659
  0
VERTEX
  5
3A44
  8
0
  6
CONTINUOUS
 62
     1
 10
357.8218093227894769
 20
58.8773089371147904
 30
0.0
  0
VERTEX
  5
3A45
  8
0
  6
CONTINUOUS
 62
     1
 10
357.8218093227894769
 20
70.8773089371147762
 30
0.0
 42
0.4142135623730659
  0
VERTEX
  5
3A46
  8
0
  6
CONTINUOUS
 62
     1
 10
356.8218093227894769
 20
71.8773089371147904
 30
0.0
  0
VERTEX
  5
3A47
  8
0
  6
CONTINUOUS
 62
     1
 10
344.8218093227894769
 20
71.8773089371147762
 30
0.0
 42
0.4142136497229438
  0
VERTEX
  5
3A48
  8
0
  6
CONTINUOUS
 62
     1
 10
343.8218093227894769
 20
70.8773086388834486
 30
0.0
  0
SEQEND
  5
3A49
  8
0
  6
CONTINUOUS
 62
     1
  0
POLYLINE
  5
B57
  8
0
  6
CONTINUOUS
 62
     1
 66
     1
 10
0.0
 20
0.0
 30
0.0
 70
     1
  0
VERTEX
  5
3A4A
  8
0
  6
CONTINUOUS
 62
     1
 10
37.5830593227895022
 20
93.0673089371147455
 30
0.0
  0
VERTEX
  5
3A4B
  8
0
  6
CONTINUOUS
 62
     1
 10
25.5830593227894987
 20
93.0673089371147455
 30
0.0
 42
0.4142135623731112
  0
VERTEX
  5
3A4C
  8
0
  6
CONTINUOUS
 62
     1
 10
24.5830593227894987
 20
92.0673089371147455
 30
0.0
  0
VERTEX
  5
3A4D
  8
0
  6
CONTINUOUS
 62
     1
 10
24.5830593227894987
 20
80.0673089371147455
 30
0.0
 42
0.4142135623730854
  0
VERTEX
  5
3A4E
  8
0
  6
CONTINUOUS
 62
     1
 10
25.5830593227895484
 20
79.0673089371147455
 30
0.0
  0
VERTEX
  5
3A4F
  8
0
  6
CONTINUOUS
 62
     1
 10
37.5830593227895022
 20
79.0673089371147455
 30
0.0
 42
0.4142135623730809
  0
VERTEX
  5
3A50
  8
0
  6
CONTINUOUS
 62
     1
 10
38.5830593227895022
 20
80.0673089371148023
 30
0.0
  0
VERTEX
  5
3A51
  8
0
  6
CONTINUOUS
 62
     1
 10
38.5830593227895022
 20
92.0673089371147455
 30
0.0
 42
0.4142135623730802
  0
SEQEND
  5
3A52
  8
0
  6
CONTINUOUS
 62
     1
  0
POLYLINE
  5
B58
  8
0
  6
CONTINUOUS
 62
     1
 66
     1
 10
0.0
 20
0.0
 30
0.0
 70
     1
  0
VERTEX
  5
3A53
  8
0
  6
CONTINUOUS
 62
     1
 10
68.343059322789486
 20
71.8773089371147762
 30
0.0
  0
VERTEX
  5
3A54
  8
0
  6
CONTINUOUS
 62
     1
 10
56.3430593227894789
 20
71.8773089371147762
 30
0.0
 42
0.4142135623731213
  0
VERTEX
  5
3A55
  8
0
  6
CONTINUOUS
 62
     1
 10
55.3430593227894789
 20
70.877308937114762
 30
0.0
  0
VERTEX
  5
3A56
  8
0
  6
CONTINUOUS
 62
     1
 10
55.3430593227894789
 20
58.8773089371147407
 30
0.0
 42
0.4142135623731046
  0
VERTEX
  5
3A57
  8
0
  6
CONTINUOUS
 62
     1
 10
56.3430593227895287
 20
57.8773089371147407
 30
0.0
  0
VERTEX
  5
3A58
  8
0
  6
CONTINUOUS
 62
     1
 10
68.343059322789486
 20
57.877308937114762
 30
0.0
 42
0.4142135623730826
  0
VERTEX
  5
3A59
  8
0
  6
CONTINUOUS
 62
     1
 10
69.343059322789486
 20
58.8773089371147478
 30
0.0
  0
VERTEX
  5
3A5A
  8
0
  6
CONTINUOUS
 62
     1
 10
69.343059322789486
 20
70.8773089371147762
 30
0.0
 42
0.4142135623731014
  0
SEQEND
  5
3A5B
  8
0
  6
CONTINUOUS
 62
     1
  0
POLYLINE
  5
B59
  8
0
  6
CONTINUOUS
 62
     1
 66
     1
 10
0.0
 20
0.0
 30
0.0
 70
     1
  0
VERTEX
  5
3A5C
  8
0
  6
CONTINUOUS
 62
     1
 10
41.6530593227894883
 20
112.1173089371147
 30
0.0
  0
VERTEX
  5
3A5D
  8
0
  6
CONTINUOUS
 62
     1
 10
29.6530593227895487
 20
112.1173089371147
 30
0.0
 42
0.4142135623730906
  0
VERTEX
  5
3A5E
  8
0
  6
CONTINUOUS
 62
     1
 10
28.6530593227894883
 20
111.1173089371147
 30
0.0
  0
VERTEX
  5
3A5F
  8
0
  6
CONTINUOUS
 62
     1
 10
28.6530593227894883
 20
99.1173089371147569
 30
0.0
 42
0.4142135623731141
  0
VERTEX
  5
3A60
  8
0
  6
CONTINUOUS
 62
     1
 10
29.6530593227895487
 20
98.1173089371147711
 30
0.0
  0
VERTEX
  5
3A61
  8
0
  6
CONTINUOUS
 62
     1
 10
41.6530593227894883
 20
98.1173089371147711
 30
0.0
 42
0.4142135623730911
  0
VERTEX
  5
3A62
  8
0
  6
CONTINUOUS
 62
     1
 10
42.653059322789467
 20
99.1173089371147569
 30
0.0
  0
VERTEX
  5
3A63
  8
0
  6
CONTINUOUS
 62
     1
 10
42.653059322789467
 20
111.1173089371147
 30
0.0
 42
0.4142135623730823
  0
SEQEND
  5
3A64
  8
0
  6
CONTINUOUS
 62
     1
  0
POLYLINE
  5
B5A
  8
0
  6
CONTINUOUS
 62
     1
 66
     1
 10
0.0
 20
0.0
 30
0.0
 70
     1
  0
VERTEX
  5
3A65
  8
0
  6
CONTINUOUS
 62
     1
 10
45.8130593227895133
 20
131.1673089371147114
 30
0.0
  0
VERTEX
  5
3A66
  8
0
  6
CONTINUOUS
 62
     1
 10
33.8130593227895702
 20
131.1673089371147114
 30
0.0
 42
0.4142135623730955
  0
VERTEX
  5
3A67
  8
0
  6
CONTINUOUS
 62
     1
 10
32.8130593227895133
 20
130.1673089371147114
 30
0.0
  0
VERTEX
  5
3A68
  8
0
  6
CONTINUOUS
 62
     1
 10
32.8130593227895133
 20
118.1673089371147967
 30
0.0
 42
0.4142135623731224
  0
VERTEX
  5
3A69
  8
0
  6
CONTINUOUS
 62
     1
 10
33.8130593227895702
 20
117.1673089371147967
 30
0.0
  0
VERTEX
  5
3A6A
  8
0
  6
CONTINUOUS
 62
     1
 10
45.8130593227895133
 20
117.1673089371147967
 30
0.0
 42
0.4142135623730895
  0
VERTEX
  5
3A6B
  8
0
  6
CONTINUOUS
 62
     1
 10
46.8130593227895133
 20
118.1673089371147967
 30
0.0
  0
VERTEX
  5
3A6C
  8
0
  6
CONTINUOUS
 62
     1
 10
46.8130593227895133
 20
130.1673089371147114
 30
0.0
 42
0.414213562373095
  0
SEQEND
  5
3A6D
  8
0
  6
CONTINUOUS
 62
     1
  0
POLYLINE
  5
B5B
  8
0
  6
CONTINUOUS
 62
     1
 66
     1
 10
0.0
 20
0.0
 30
0.0
 70
     1
  0
VERTEX
  5
3A6E
  8
0
  6
CONTINUOUS
 62
     1
 10
61.2030593227894926
 20
52.827308937114779
 30
0.0
  0
VERTEX
  5
3A6F
  8
0
  6
CONTINUOUS
 62
     1
 10
49.2030593227894926
 20
52.827308937114779
 30
0.0
 42
0.4142135623731159
  0
VERTEX
  5
3A70
  8
0
  6
CONTINUOUS
 62
     1
 10
48.2030593227894997
 20
51.8273089371147506
 30
0.0
  0
VERTEX
  5
3A71
  8
0
  6
CONTINUOUS
 62
     1
 10
48.2030593227894997
 20
39.8273089371147222
 30
0.0
 42
0.4142135623730721
  0
VERTEX
  5
3A72
  8
0
  6
CONTINUOUS
 62
     1
 10
49.2030593227895707
 20
38.8273089371147719
 30
0.0
  0
VERTEX
  5
3A73
  8
0
  6
CONTINUOUS
 62
     1
 10
61.2030593227894926
 20
38.8273089371147719
 30
0.0
 42
0.4142135623730764
  0
VERTEX
  5
3A74
  8
0
  6
CONTINUOUS
 62
     1
 10
62.2030593227894926
 20
39.8273089371148004
 30
0.0
  0
VERTEX
  5
3A75
  8
0
  6
CONTINUOUS
 62
     1
 10
62.2030593227894926
 20
51.827308937114779
 30
0.0
 42
0.4142135623730888
  0
SEQEND
  5
3A76
  8
0
  6
CONTINUOUS
 62
     1
  0
POLYLINE
  5
B5C
  8
0
  6
CONTINUOUS
 62
     1
 66
     1
 10
0.0
 20
0.0
 30
0.0
 70
     1
  0
VERTEX
  5
3A77
  8
0
  6
CONTINUOUS
 62
     1
 10
304.4330593227895179
 20
71.8773089371147762
 30
0.0
  0
VERTEX
  5
3A78
  8
0
  6
CONTINUOUS
 62
     1
 10
292.4330593227895179
 20
71.8773089371147904
 30
0.0
 42
0.4142135623730659
  0
VERTEX
  5
3A79
  8
0
  6
CONTINUOUS
 62
     1
 10
291.4330593227894042
 20
70.8773089371147762
 30
0.0
  0
VERTEX
  5
3A7A
  8
0
  6
CONTINUOUS
 62
     1
 10
291.4330593227894042
 20
58.8773089371147265
 30
0.0
 42
0.4142135623730534
  0
VERTEX
  5
3A7B
  8
0
  6
CONTINUOUS
 62
     1
 10
292.4330593227895179
 20
57.877308937114762
 30
0.0
  0
VERTEX
  5
3A7C
  8
0
  6
CONTINUOUS
 62
     1
 10
304.4330593227895179
 20
57.877308937114762
 30
0.0
 42
0.41421356237312
  0
VERTEX
  5
3A7D
  8
0
  6
CONTINUOUS
 62
     1
 10
305.4330593227895179
 20
58.8773089371147407
 30
0.0
  0
VERTEX
  5
3A7E
  8
0
  6
CONTINUOUS
 62
     1
 10
305.4330593227895179
 20
70.8773089371147762
 30
0.0
 42
0.4142135623731221
  0
SEQEND
  5
3A7F
  8
0
  6
CONTINUOUS
 62
     1
  0
POLYLINE
  5
B5D
  8
0
  6
CONTINUOUS
 62
     1
 66
     1
 10
0.0
 20
0.0
 30
0.0
 70
     1
  0
VERTEX
  5
3A80
  8
0
  6
CONTINUOUS
 62
     1
 10
348.3786593227895878
 20
52.7793089371147488
 30
0.0
  0
VERTEX
  5
3A81
  8
0
  6
CONTINUOUS
 62
     1
 10
336.3786593227894173
 20
52.7793089371148127
 30
0.0
 42
0.4142135623730493
  0
VERTEX
  5
3A82
  8
0
  6
CONTINUOUS
 62
     1
 10
335.3786593227894173
 20
51.779308937114763
 30
0.0
  0
VERTEX
  5
3A83
  8
0
  6
CONTINUOUS
 62
     1
 10
335.3786593227894173
 20
39.7793089371147275
 30
0.0
 42
0.4142135623730784
  0
VERTEX
  5
3A84
  8
0
  6
CONTINUOUS
 62
     1
 10
336.3786593227894173
 20
38.7793089371147488
 30
0.0
  0
VERTEX
  5
3A85
  8
0
  6
CONTINUOUS
 62
     1
 10
348.3786593227895878
 20
38.7793089371147701
 30
0.0
 42
0.4142135623730703
  0
VERTEX
  5
3A86
  8
0
  6
CONTINUOUS
 62
     1
 10
349.3786593227897015
 20
39.7793089371147914
 30
0.0
  0
VERTEX
  5
3A87
  8
0
  6
CONTINUOUS
 62
     1
 10
349.3786593227897015
 20
51.7793089371147772
 30
0.0
 42
0.4142135623730659
  0
SEQEND
  5
3A88
  8
0
  6
CONTINUOUS
 62
     1
  0
POLYLINE
  5
B5E
  8
0
  6
CONTINUOUS
 62
     1
 66
     1
 10
0.0
 20
0.0
 30
0.0
 70
     1
  0
VERTEX
  5
3A89
  8
0
  6
CONTINUOUS
 62
     1
 10
309.7930593227894747
 20
90.9273089371147449
 30
0.0
  0
VERTEX
  5
3A8A
  8
0
  6
CONTINUOUS
 62
     1
 10
297.7930593227894747
 20
90.9273089371147734
 30
0.0
 42
0.4142135623730659
  0
VERTEX
  5
3A8B
  8
0
  6
CONTINUOUS
 62
     1
 10
296.7930593227894747
 20
89.9273089371147591
 30
0.0
  0
VERTEX
  5
3A8C
  8
0
  6
CONTINUOUS
 62
     1
 10
296.7930593227894747
 20
77.9273089371147449
 30
0.0
 42
0.414213562373064
  0
VERTEX
  5
3A8D
  8
0
  6
CONTINUOUS
 62
     1
 10
297.7930593227894747
 20
76.9273089371147591
 30
0.0
  0
VERTEX
  5
3A8E
  8
0
  6
CONTINUOUS
 62
     1
 10
309.7930593227894747
 20
76.9273089371147591
 30
0.0
 42
0.4142135623730721
  0
VERTEX
  5
3A8F
  8
0
  6
CONTINUOUS
 62
     1
 10
310.7930593227894747
 20
77.9273089371148018
 30
0.0
  0
VERTEX
  5
3A90
  8
0
  6
CONTINUOUS
 62
     1
 10
310.7930593227894747
 20
89.9273089371147591
 30
0.0
 42
0.4142135623730659
  0
SEQEND
  5
3A91
  8
0
  6
CONTINUOUS
 62
     1
  0
POLYLINE
  5
B5F
  8
0
  6
CONTINUOUS
 62
     1
 66
     1
 10
0.0
 20
0.0
 30
0.0
 70
     1
  0
VERTEX
  5
3A92
  8
0
  6
CONTINUOUS
 62
     1
 10
340.743059322789577
 20
90.9273089371147449
 30
0.0
  0
VERTEX
  5
3A93
  8
0
  6
CONTINUOUS
 62
     1
 10
328.743059322789577
 20
90.9273089371147734
 30
0.0
 42
0.4142135623730659
  0
VERTEX
  5
3A94
  8
0
  6
CONTINUOUS
 62
     1
 10
327.743059322789577
 20
89.9273089371147591
 30
0.0
  0
VERTEX
  5
3A95
  8
0
  6
CONTINUOUS
 62
     1
 10
327.743059322789577
 20
77.9273089371147449
 30
0.0
 42
0.414213562373064
  0
VERTEX
  5
3A96
  8
0
  6
CONTINUOUS
 62
     1
 10
328.743059322789577
 20
76.9273089371147591
 30
0.0
  0
VERTEX
  5
3A97
  8
0
  6
CONTINUOUS
 62
     1
 10
340.743059322789577
 20
76.9273089371147591
 30
0.0
 42
0.4142135623731304
  0
VERTEX
  5
3A98
  8
0
  6
CONTINUOUS
 62
     1
 10
341.743059322789577
 20
77.9273089371147591
 30
0.0
  0
VERTEX
  5
3A99
  8
0
  6
CONTINUOUS
 62
     1
 10
341.743059322789577
 20
89.9273089371147591
 30
0.0
 42
0.4142135623731242
  0
SEQEND
  5
3A9A
  8
0
  6
CONTINUOUS
 62
     1
  0
POLYLINE
  5
B60
  8
0
  6
CONTINUOUS
 62
     1
 66
     1
 10
0.0
 20
0.0
 30
0.0
 70
     1
  0
VERTEX
  5
3A9B
  8
0
  6
CONTINUOUS
 62
     1
 10
285.3830593227895065
 20
71.8773089371147762
 30
0.0
  0
VERTEX
  5
3A9C
  8
0
  6
CONTINUOUS
 62
     1
 10
273.3830593227895065
 20
71.8773089371147904
 30
0.0
 42
0.4142135623730808
  0
VERTEX
  5
3A9D
  8
0
  6
CONTINUOUS
 62
     1
 10
272.3830593227893928
 20
70.8773089371147762
 30
0.0
  0
VERTEX
  5
3A9E
  8
0
  6
CONTINUOUS
 62
     1
 10
272.3830593227893928
 20
58.8773089371147265
 30
0.0
 42
0.4142135623730659
  0
VERTEX
  5
3A9F
  8
0
  6
CONTINUOUS
 62
     1
 10
273.3830593227895065
 20
57.877308937114762
 30
0.0
  0
VERTEX
  5
3AA0
  8
0
  6
CONTINUOUS
 62
     1
 10
285.3830593227895065
 20
57.877308937114762
 30
0.0
 42
0.4142135623730744
  0
VERTEX
  5
3AA1
  8
0
  6
CONTINUOUS
 62
     1
 10
286.3830593227896202
 20
58.8773089371147904
 30
0.0
  0
VERTEX
  5
3AA2
  8
0
  6
CONTINUOUS
 62
     1
 10
286.3830593227896202
 20
70.8773089371147762
 30
0.0
 42
0.4142135623730703
  0
SEQEND
  5
3AA3
  8
0
  6
CONTINUOUS
 62
     1
  0
POLYLINE
  5
B61
  8
0
  6
CONTINUOUS
 62
     1
 66
     1
 10
0.0
 20
0.0
 30
0.0
 70
     1
  0
VERTEX
  5
3AA4
  8
0
  6
CONTINUOUS
 62
     1
 10
300.7530593227896247
 20
109.9773089371146995
 30
0.0
  0
VERTEX
  5
3AA5
  8
0
  6
CONTINUOUS
 62
     1
 10
288.7530593227896247
 20
109.9773089371147989
 30
0.0
 42
0.4142135623731091
  0
VERTEX
  5
3AA6
  8
0
  6
CONTINUOUS
 62
     1
 10
287.7530593227896247
 20
108.9773089371146995
 30
0.0
  0
VERTEX
  5
3AA7
  8
0
  6
CONTINUOUS
 62
     1
 10
287.7530593227896247
 20
96.9773089371147847
 30
0.0
 42
0.4142135623731054
  0
VERTEX
  5
3AA8
  8
0
  6
CONTINUOUS
 62
     1
 10
288.7530593227896247
 20
95.9773089371147563
 30
0.0
  0
VERTEX
  5
3AA9
  8
0
  6
CONTINUOUS
 62
     1
 10
300.7530593227896247
 20
95.9773089371147563
 30
0.0
 42
0.4142135623730898
  0
VERTEX
  5
3AAA
  8
0
  6
CONTINUOUS
 62
     1
 10
301.7530593227896247
 20
96.9773089371147847
 30
0.0
  0
VERTEX
  5
3AAB
  8
0
  6
CONTINUOUS
 62
     1
 10
301.7530593227896247
 20
108.9773089371146995
 30
0.0
 42
0.4142135623730847
  0
SEQEND
  5
3AAC
  8
0
  6
CONTINUOUS
 62
     1
  0
POLYLINE
  5
B62
  8
0
  6
CONTINUOUS
 62
     1
 66
     1
 10
0.0
 20
0.0
 30
0.0
 70
     1
  0
VERTEX
  5
3AAD
  8
0
  6
CONTINUOUS
 62
     1
 10
290.743059322789577
 20
90.9273089371147449
 30
0.0
  0
VERTEX
  5
3AAE
  8
0
  6
CONTINUOUS
 62
     1
 10
278.743059322789577
 20
90.9273089371147449
 30
0.0
 42
0.4142135623731036
  0
VERTEX
  5
3AAF
  8
0
  6
CONTINUOUS
 62
     1
 10
277.7430593227895201
 20
89.9273089371147591
 30
0.0
  0
VERTEX
  5
3AB0
  8
0
  6
CONTINUOUS
 62
     1
 10
277.7430593227895201
 20
77.9273089371147591
 30
0.0
 42
0.4142135623730992
  0
VERTEX
  5
3AB1
  8
0
  6
CONTINUOUS
 62
     1
 10
278.743059322789577
 20
76.9273089371147591
 30
0.0
  0
VERTEX
  5
3AB2
  8
0
  6
CONTINUOUS
 62
     1
 10
290.743059322789577
 20
76.9273089371147591
 30
0.0
 42
0.4142135623730869
  0
VERTEX
  5
3AB3
  8
0
  6
CONTINUOUS
 62
     1
 10
291.743059322789577
 20
77.927308937114816
 30
0.0
  0
VERTEX
  5
3AB4
  8
0
  6
CONTINUOUS
 62
     1
 10
291.743059322789577
 20
89.9273089371147591
 30
0.0
 42
0.4142135623730826
  0
SEQEND
  5
3AB5
  8
0
  6
CONTINUOUS
 62
     1
  0
POLYLINE
  5
B63
  8
0
  6
CONTINUOUS
 62
     1
 66
     1
 10
0.0
 20
0.0
 30
0.0
 70
     1
  0
VERTEX
  5
3AB6
  8
0
  6
CONTINUOUS
 62
     1
 10
319.8030593227894087
 20
109.9773089371146995
 30
0.0
  0
VERTEX
  5
3AB7
  8
0
  6
CONTINUOUS
 62
     1
 10
307.8030593227895224
 20
109.9773089371147989
 30
0.0
 42
0.414213562373126
  0
VERTEX
  5
3AB8
  8
0
  6
CONTINUOUS
 62
     1
 10
306.8030593227895224
 20
108.9773089371146995
 30
0.0
  0
VERTEX
  5
3AB9
  8
0
  6
CONTINUOUS
 62
     1
 10
306.8030593227895224
 20
96.9773089371147847
 30
0.0
 42
0.4142135623731221
  0
VERTEX
  5
3ABA
  8
0
  6
CONTINUOUS
 62
     1
 10
307.8030593227895224
 20
95.9773089371147563
 30
0.0
  0
VERTEX
  5
3ABB
  8
0
  6
CONTINUOUS
 62
     1
 10
319.8030593227894087
 20
95.9773089371147563
 30
0.0
 42
0.4142135623730733
  0
VERTEX
  5
3ABC
  8
0
  6
CONTINUOUS
 62
     1
 10
320.8030593227895224
 20
96.9773089371147847
 30
0.0
  0
VERTEX
  5
3ABD
  8
0
  6
CONTINUOUS
 62
     1
 10
320.8030593227895224
 20
108.9773089371146995
 30
0.0
 42
0.414213562373068
  0
SEQEND
  5
3ABE
  8
0
  6
CONTINUOUS
 62
     1
  0
POLYLINE
  5
B64
  8
0
  6
CONTINUOUS
 62
     1
 66
     1
 10
0.0
 20
0.0
 30
0.0
 70
     1
  0
VERTEX
  5
3ABF
  8
0
  6
CONTINUOUS
 62
     1
 10
282.1230593227895156
 20
111.0373089371147017
 30
0.0
  0
VERTEX
  5
3AC0
  8
0
  6
CONTINUOUS
 62
     1
 10
270.1230593227895156
 20
111.0373089371147017
 30
0.0
 42
0.414213562373064
  0
VERTEX
  5
3AC1
  8
0
  6
CONTINUOUS
 62
     1
 10
269.1230593227895156
 20
110.0373089371148012
 30
0.0
  0
VERTEX
  5
3AC2
  8
0
  6
CONTINUOUS
 62
     1
 10
269.1230593227895156
 20
98.0373089371147444
 30
0.0
 42
0.414213562373068
  0
VERTEX
  5
3AC3
  8
0
  6
CONTINUOUS
 62
     1
 10
270.1230593227895156
 20
97.0373089371147444
 30
0.0
  0
VERTEX
  5
3AC4
  8
0
  6
CONTINUOUS
 62
     1
 10
282.1230593227895156
 20
97.037308937114787
 30
0.0
 42
0.414213562373093
  0
VERTEX
  5
3AC5
  8
0
  6
CONTINUOUS
 62
     1
 10
283.1230593227894019
 20
98.0373089371148154
 30
0.0
  0
VERTEX
  5
3AC6
  8
0
  6
CONTINUOUS
 62
     1
 10
283.1230593227894019
 20
110.0373089371148012
 30
0.0
 42
0.4142135623730925
  0
SEQEND
  5
3AC7
  8
0
  6
CONTINUOUS
 62
     1
  0
POLYLINE
  5
B65
  8
0
  6
CONTINUOUS
 62
     1
 66
     1
 10
0.0
 20
0.0
 30
0.0
 70
     1
  0
VERTEX
  5
3AC8
  8
0
  6
CONTINUOUS
 62
     1
 10
343.6230593227894019
 20
109.9773089371146995
 30
0.0
  0
VERTEX
  5
3AC9
  8
0
  6
CONTINUOUS
 62
     1
 10
331.6230593227895156
 20
109.9773089371147989
 30
0.0
 42
0.4142135623730847
  0
VERTEX
  5
3ACA
  8
0
  6
CONTINUOUS
 62
     1
 10
330.6230593227895156
 20
108.9773089371146995
 30
0.0
  0
VERTEX
  5
3ACB
  8
0
  6
CONTINUOUS
 62
     1
 10
330.6230593227895156
 20
96.9773089371147421
 30
0.0
 42
0.4142135623730816
  0
VERTEX
  5
3ACC
  8
0
  6
CONTINUOUS
 62
     1
 10
331.6230593227895156
 20
95.9773089371147563
 30
0.0
  0
VERTEX
  5
3ACD
  8
0
  6
CONTINUOUS
 62
     1
 10
343.6230593227894019
 20
95.9773089371147563
 30
0.0
 42
0.4142135623731294
  0
VERTEX
  5
3ACE
  8
0
  6
CONTINUOUS
 62
     1
 10
344.6230593227895156
 20
96.9773089371147847
 30
0.0
  0
VERTEX
  5
3ACF
  8
0
  6
CONTINUOUS
 62
     1
 10
344.6230593227895156
 20
108.9773089371146995
 30
0.0
 42
0.4142135623731252
  0
SEQEND
  5
3AD0
  8
0
  6
CONTINUOUS
 62
     1
  0
POLYLINE
  5
B66
  8
0
  6
CONTINUOUS
 62
     1
 66
     1
 10
0.0
 20
0.0
 30
0.0
 70
     1
  0
VERTEX
  5
3AD1
  8
0
  6
CONTINUOUS
 62
     1
 10
306.1130593227895247
 20
129.0273089371148103
 30
0.0
  0
VERTEX
  5
3AD2
  8
0
  6
CONTINUOUS
 62
     1
 10
294.113059322789411
 20
129.0273089371148103
 30
0.0
 42
0.4142135623730663
  0
VERTEX
  5
3AD3
  8
0
  6
CONTINUOUS
 62
     1
 10
293.1130593227895247
 20
128.0273089371148103
 30
0.0
  0
VERTEX
  5
3AD4
  8
0
  6
CONTINUOUS
 62
     1
 10
293.1130593227895247
 20
116.0273089371146966
 30
0.0
 42
0.4142135623730612
  0
VERTEX
  5
3AD5
  8
0
  6
CONTINUOUS
 62
     1
 10
294.113059322789411
 20
115.0273089371146966
 30
0.0
  0
VERTEX
  5
3AD6
  8
0
  6
CONTINUOUS
 62
     1
 10
306.1130593227895247
 20
115.0273089371147961
 30
0.0
 42
0.4142135623731278
  0
VERTEX
  5
3AD7
  8
0
  6
CONTINUOUS
 62
     1
 10
307.1130593227895247
 20
116.0273089371147961
 30
0.0
  0
VERTEX
  5
3AD8
  8
0
  6
CONTINUOUS
 62
     1
 10
307.1130593227895247
 20
128.0273089371148103
 30
0.0
 42
0.4142135623731411
  0
SEQEND
  5
3AD9
  8
0
  6
CONTINUOUS
 62
     1
  0
POLYLINE
  5
B67
  8
0
  6
CONTINUOUS
 62
     1
 66
     1
 10
0.0
 20
0.0
 30
0.0
 70
     1
  0
VERTEX
  5
3ADA
  8
0
  6
CONTINUOUS
 62
     1
 10
287.4830593227895861
 20
131.1673089371147967
 30
0.0
  0
VERTEX
  5
3ADB
  8
0
  6
CONTINUOUS
 62
     1
 10
275.4830593227894724
 20
131.1673089371147967
 30
0.0
 42
0.4142135623730896
  0
VERTEX
  5
3ADC
  8
0
  6
CONTINUOUS
 62
     1
 10
274.4830593227894724
 20
130.1673089371147967
 30
0.0
  0
VERTEX
  5
3ADD
  8
0
  6
CONTINUOUS
 62
     1
 10
274.4830593227894724
 20
118.1673089371147967
 30
0.0
 42
0.4142135623730879
  0
VERTEX
  5
3ADE
  8
0
  6
CONTINUOUS
 62
     1
 10
275.4830593227894724
 20
117.1673089371147967
 30
0.0
  0
VERTEX
  5
3ADF
  8
0
  6
CONTINUOUS
 62
     1
 10
287.4830593227895861
 20
117.1673089371147967
 30
0.0
 42
0.4142135623730903
  0
VERTEX
  5
3AE0
  8
0
  6
CONTINUOUS
 62
     1
 10
288.4830593227896998
 20
118.1673089371147967
 30
0.0
  0
VERTEX
  5
3AE1
  8
0
  6
CONTINUOUS
 62
     1
 10
288.4830593227896998
 20
130.1673089371147967
 30
0.0
 42
0.4142135623730839
  0
SEQEND
  5
3AE2
  8
0
  6
CONTINUOUS
 62
     1
  0
POLYLINE
  5
B68
  8
0
  6
CONTINUOUS
 62
     1
 66
     1
 10
0.0
 20
0.0
 30
0.0
 70
     1
  0
VERTEX
  5
3AE3
  8
0
  6
CONTINUOUS
 62
     1
 10
99.2930593227895173
 20
71.8773089371147762
 30
0.0
  0
VERTEX
  5
3AE4
  8
0
  6
CONTINUOUS
 62
     1
 10
87.2930593227894747
 20
71.8773089371147762
 30
0.0
 42
0.4142135623731076
  0
VERTEX
  5
3AE5
  8
0
  6
CONTINUOUS
 62
     1
 10
86.2930593227894747
 20
70.8773089371147762
 30
0.0
  0
VERTEX
  5
3AE6
  8
0
  6
CONTINUOUS
 62
     1
 10
86.2930593227894747
 20
58.8773089371147265
 30
0.0
 42
0.4142135623730808
  0
VERTEX
  5
3AE7
  8
0
  6
CONTINUOUS
 62
     1
 10
87.2930593227895031
 20
57.877308937114762
 30
0.0
  0
VERTEX
  5
3AE8
  8
0
  6
CONTINUOUS
 62
     1
 10
99.2930593227895173
 20
57.877308937114762
 30
0.0
 42
0.4142135623730826
  0
VERTEX
  5
3AE9
  8
0
  6
CONTINUOUS
 62
     1
 10
100.2930593227895031
 20
58.8773089371147478
 30
0.0
  0
VERTEX
  5
3AEA
  8
0
  6
CONTINUOUS
 62
     1
 10
100.2930593227895031
 20
70.8773089371147762
 30
0.0
 42
0.4142135623730951
  0
SEQEND
  5
3AEB
  8
0
  6
CONTINUOUS
 62
     1
  0
POLYLINE
  5
B69
  8
0
  6
CONTINUOUS
 62
     1
 66
     1
 10
0.0
 20
0.0
 30
0.0
 70
     1
  0
VERTEX
  5
3AEC
  8
0
  6
CONTINUOUS
 62
     1
 10
68.8330593227894951
 20
129.0273089371148103
 30
0.0
  0
VERTEX
  5
3AED
  8
0
  6
CONTINUOUS
 62
     1
 10
56.8330593227894809
 20
129.0273089371148103
 30
0.0
 42
0.4142135623731076
  0
VERTEX
  5
3AEE
  8
0
  6
CONTINUOUS
 62
     1
 10
55.8330593227895022
 20
128.0273089371148103
 30
0.0
  0
VERTEX
  5
3AEF
  8
0
  6
CONTINUOUS
 62
     1
 10
55.8330593227895022
 20
116.0273089371147961
 30
0.0
 42
0.4142135623731081
  0
VERTEX
  5
3AF0
  8
0
  6
CONTINUOUS
 62
     1
 10
56.8330593227894809
 20
115.0273089371147961
 30
0.0
  0
VERTEX
  5
3AF1
  8
0
  6
CONTINUOUS
 62
     1
 10
68.8330593227894951
 20
115.0273089371147961
 30
0.0
 42
0.4142135623730879
  0
VERTEX
  5
3AF2
  8
0
  6
CONTINUOUS
 62
     1
 10
69.8330593227894951
 20
116.0273089371147961
 30
0.0
  0
VERTEX
  5
3AF3
  8
0
  6
CONTINUOUS
 62
     1
 10
69.8330593227894951
 20
128.0273089371148103
 30
0.0
 42
0.414213562373093
  0
SEQEND
  5
3AF4
  8
0
  6
CONTINUOUS
 62
     1
  0
POLYLINE
  5
B6A
  8
0
  6
CONTINUOUS
 62
     1
 66
     1
 10
0.0
 20
0.0
 30
0.0
 70
     1
  0
VERTEX
  5
3AF5
  8
0
  6
CONTINUOUS
 62
     1
 10
87.8830593227895065
 20
129.0273089371148103
 30
0.0
  0
VERTEX
  5
3AF6
  8
0
  6
CONTINUOUS
 62
     1
 10
75.8830593227895065
 20
129.0273089371148103
 30
0.0
 42
0.4142135623731063
  0
VERTEX
  5
3AF7
  8
0
  6
CONTINUOUS
 62
     1
 10
74.8830593227895065
 20
128.0273089371148103
 30
0.0
  0
VERTEX
  5
3AF8
  8
0
  6
CONTINUOUS
 62
     1
 10
74.8830593227895065
 20
116.0273089371147961
 30
0.0
 42
0.4142135623731039
  0
VERTEX
  5
3AF9
  8
0
  6
CONTINUOUS
 62
     1
 10
75.8830593227895065
 20
115.0273089371147961
 30
0.0
  0
VERTEX
  5
3AFA
  8
0
  6
CONTINUOUS
 62
     1
 10
87.8830593227895065
 20
115.0273089371147961
 30
0.0
 42
0.4142135623730904
  0
VERTEX
  5
3AFB
  8
0
  6
CONTINUOUS
 62
     1
 10
88.8830593227895065
 20
116.0273089371147961
 30
0.0
  0
VERTEX
  5
3AFC
  8
0
  6
CONTINUOUS
 62
     1
 10
88.8830593227895065
 20
128.0273089371148103
 30
0.0
 42
0.4142135623730968
  0
SEQEND
  5
3AFD
  8
0
  6
CONTINUOUS
 62
     1
  0
POLYLINE
  5
B6B
  8
0
  6
CONTINUOUS
 62
     1
 66
     1
 10
0.0
 20
0.0
 30
0.0
 70
     1
  0
VERTEX
  5
3AFE
  8
0
  6
CONTINUOUS
 62
     1
 10
106.5230593227895071
 20
131.1673089371147967
 30
0.0
  0
VERTEX
  5
3AFF
  8
0
  6
CONTINUOUS
 62
     1
 10
94.5230593227894786
 20
131.1673089371147967
 30
0.0
 42
0.4142135623730943
  0
VERTEX
  5
3B00
  8
0
  6
CONTINUOUS
 62
     1
 10
93.5230593227895071
 20
130.1673089371147967
 30
0.0
  0
VERTEX
  5
3B01
  8
0
  6
CONTINUOUS
 62
     1
 10
93.5230593227895071
 20
118.1673089371147967
 30
0.0
 42
0.4142135623731049
  0
VERTEX
  5
3B02
  8
0
  6
CONTINUOUS
 62
     1
 10
94.5230593227895497
 20
117.1673089371147967
 30
0.0
  0
VERTEX
  5
3B03
  8
0
  6
CONTINUOUS
 62
     1
 10
106.5230593227895071
 20
117.1673089371147967
 30
0.0
 42
0.4142135623730809
  0
VERTEX
  5
3B04
  8
0
  6
CONTINUOUS
 62
     1
 10
107.5230593227895071
 20
118.1673089371147967
 30
0.0
  0
VERTEX
  5
3B05
  8
0
  6
CONTINUOUS
 62
     1
 10
107.5230593227895071
 20
130.1673089371147967
 30
0.0
 42
0.4142135623730865
  0
SEQEND
  5
3B06
  8
0
  6
CONTINUOUS
 62
     1
  0
POLYLINE
  5
B6C
  8
0
  6
CONTINUOUS
 62
     1
 66
     1
 10
0.0
 20
0.0
 30
0.0
 70
     1
  0
VERTEX
  5
3B07
  8
0
  6
CONTINUOUS
 62
     1
 10
93.2430593227894349
 20
109.9773089371146995
 30
0.0
  0
VERTEX
  5
3B08
  8
0
  6
CONTINUOUS
 62
     1
 10
81.2430593227894491
 20
109.9773089371147989
 30
0.0
 42
0.414213562373093
  0
VERTEX
  5
3B09
  8
0
  6
CONTINUOUS
 62
     1
 10
80.2430593227894491
 20
108.9773089371146995
 30
0.0
  0
VERTEX
  5
3B0A
  8
0
  6
CONTINUOUS
 62
     1
 10
80.2430593227894491
 20
96.9773089371147421
 30
0.0
 42
0.4142135623730919
  0
VERTEX
  5
3B0B
  8
0
  6
CONTINUOUS
 62
     1
 10
81.2430593227895201
 20
95.9773089371147563
 30
0.0
  0
VERTEX
  5
3B0C
  8
0
  6
CONTINUOUS
 62
     1
 10
93.2430593227894349
 20
95.9773089371147563
 30
0.0
 42
0.4142135623730888
  0
VERTEX
  5
3B0D
  8
0
  6
CONTINUOUS
 62
     1
 10
94.2430593227895343
 20
96.9773089371147847
 30
0.0
  0
VERTEX
  5
3B0E
  8
0
  6
CONTINUOUS
 62
     1
 10
94.2430593227895343
 20
108.9773089371146995
 30
0.0
 42
0.4142135623730935
  0
SEQEND
  5
3B0F
  8
0
  6
CONTINUOUS
 62
     1
  0
POLYLINE
  5
B6E
  8
0
  6
CONTINUOUS
 62
     1
 66
     1
 10
0.0
 20
0.0
 30
0.0
 70
     1
  0
VERTEX
  5
3B10
  8
0
  6
CONTINUOUS
 62
     1
 10
69.4330593227895179
 20
109.9773089371146995
 30
0.0
  0
VERTEX
  5
3B11
  8
0
  6
CONTINUOUS
 62
     1
 10
57.4330593227895179
 20
109.9773089371147989
 30
0.0
 42
0.4142135623731091
  0
VERTEX
  5
3B12
  8
0
  6
CONTINUOUS
 62
     1
 10
56.4330593227895179
 20
108.9773089371146995
 30
0.0
  0
VERTEX
  5
3B13
  8
0
  6
CONTINUOUS
 62
     1
 10
56.4330593227895179
 20
96.9773089371147847
 30
0.0
 42
0.4142135623731086
  0
VERTEX
  5
3B14
  8
0
  6
CONTINUOUS
 62
     1
 10
57.4330593227895179
 20
95.9773089371147563
 30
0.0
  0
VERTEX
  5
3B15
  8
0
  6
CONTINUOUS
 62
     1
 10
69.4330593227895179
 20
95.9773089371147563
 30
0.0
 42
0.4142135623730879
  0
VERTEX
  5
3B16
  8
0
  6
CONTINUOUS
 62
     1
 10
70.4330593227895037
 20
96.9773089371147847
 30
0.0
  0
VERTEX
  5
3B17
  8
0
  6
CONTINUOUS
 62
     1
 10
70.4330593227895037
 20
108.9773089371146995
 30
0.0
 42
0.4142135623730951
  0
SEQEND
  5
3B18
  8
0
  6
CONTINUOUS
 62
     1
  0
POLYLINE
  5
B6F
  8
0
  6
CONTINUOUS
 62
     1
 66
     1
 10
0.0
 20
0.0
 30
0.0
 70
     1
  0
VERTEX
  5
3B19
  8
0
  6
CONTINUOUS
 62
     1
 10
93.9430593227895088
 20
90.9273089371147449
 30
0.0
  0
VERTEX
  5
3B1A
  8
0
  6
CONTINUOUS
 62
     1
 10
81.9430593227894946
 20
90.9273089371147449
 30
0.0
 42
0.4142135623730911
  0
VERTEX
  5
3B1B
  8
0
  6
CONTINUOUS
 62
     1
 10
80.9430593227895088
 20
89.9273089371147591
 30
0.0
  0
VERTEX
  5
3B1C
  8
0
  6
CONTINUOUS
 62
     1
 10
80.9430593227895088
 20
77.9273089371147449
 30
0.0
 42
0.4142135623730888
  0
VERTEX
  5
3B1D
  8
0
  6
CONTINUOUS
 62
     1
 10
81.9430593227894946
 20
76.9273089371147591
 30
0.0
  0
VERTEX
  5
3B1E
  8
0
  6
CONTINUOUS
 62
     1
 10
93.9430593227895088
 20
76.9273089371147591
 30
0.0
 42
0.4142135623730847
  0
VERTEX
  5
3B1F
  8
0
  6
CONTINUOUS
 62
     1
 10
94.9430593227895088
 20
77.9273089371147591
 30
0.0
  0
VERTEX
  5
3B20
  8
0
  6
CONTINUOUS
 62
     1
 10
94.9430593227895088
 20
89.9273089371147591
 30
0.0
 42
0.4142135623730951
  0
SEQEND
  5
3B21
  8
0
  6
CONTINUOUS
 62
     1
  0
POLYLINE
  5
B70
  8
0
  6
CONTINUOUS
 62
     1
 66
     1
 10
0.0
 20
0.0
 30
0.0
 70
     1
  0
VERTEX
  5
3B22
  8
0
  6
CONTINUOUS
 62
     1
 10
128.3473267629167083
 20
125.8068719973448992
 30
0.0
  0
VERTEX
  5
3B23
  8
0
  6
CONTINUOUS
 62
     1
 10
116.6095555541109974
 20
128.3018122871579862
 30
0.0
 42
0.4142135623731141
  0
VERTEX
  5
3B24
  8
0
  6
CONTINUOUS
 62
     1
 10
115.4234962625593965
 20
127.5315763772419047
 30
0.0
  0
VERTEX
  5
3B25
  8
0
  6
CONTINUOUS
 62
     1
 10
112.9285559727461958
 20
115.7938051684362932
 30
0.0
 42
0.4142135623730951
  0
VERTEX
  5
3B26
  8
0
  6
CONTINUOUS
 62
     1
 10
113.6987918826623059
 20
114.6077458768847066
 30
0.0
  0
VERTEX
  5
3B27
  8
0
  6
CONTINUOUS
 62
     1
 10
125.4365630914680025
 20
112.1128055870715059
 30
0.0
 42
0.4142135623731356
  0
VERTEX
  5
3B28
  8
0
  6
CONTINUOUS
 62
     1
 10
126.6226223830196034
 20
112.8830414969876017
 30
0.0
  0
VERTEX
  5
3B29
  8
0
  6
CONTINUOUS
 62
     1
 10
129.1175626728326051
 20
124.6208127057932984
 30
0.0
 42
0.4142135623731324
  0
SEQEND
  5
3B2A
  8
0
  6
CONTINUOUS
 62
     1
  0
POLYLINE
  5
B71
  8
0
  6
CONTINUOUS
 62
     1
 66
     1
 10
0.0
 20
0.0
 30
0.0
 70
     1
  0
VERTEX
  5
3B2B
  8
0
  6
CONTINUOUS
 62
     1
 10
115.0673267629165935
 20
109.1568719973447941
 30
0.0
  0
VERTEX
  5
3B2C
  8
0
  6
CONTINUOUS
 62
     1
 10
103.3295555541109962
 20
111.6518122871579948
 30
0.0
 42
0.4142135623731173
  0
VERTEX
  5
3B2D
  8
0
  6
CONTINUOUS
 62
     1
 10
102.1434962625593954
 20
110.881576377241899
 30
0.0
  0
VERTEX
  5
3B2E
  8
0
  6
CONTINUOUS
 62
     1
 10
99.6485559727462658
 20
99.1438051684362307
 30
0.0
 42
0.4142135623731062
  0
VERTEX
  5
3B2F
  8
0
  6
CONTINUOUS
 62
     1
 10
100.4187918826624042
 20
97.9577458768847293
 30
0.0
  0
VERTEX
  5
3B30
  8
0
  6
CONTINUOUS
 62
     1
 10
112.1565630914680014
 20
95.4628055870715855
 30
0.0
 42
0.41421356237313
  0
VERTEX
  5
3B31
  8
0
  6
CONTINUOUS
 62
     1
 10
113.3426223830196022
 20
96.2330414969876813
 30
0.0
  0
VERTEX
  5
3B32
  8
0
  6
CONTINUOUS
 62
     1
 10
115.8375626728327035
 20
107.9708127057933069
 30
0.0
 42
0.4142135623731507
  0
SEQEND
  5
3B33
  8
0
  6
CONTINUOUS
 62
     1
  0
POLYLINE
  5
B72
  8
0
  6
CONTINUOUS
 62
     1
 66
     1
 10
0.0
 20
0.0
 30
0.0
 70
     1
  0
VERTEX
  5
3B34
  8
0
  6
CONTINUOUS
 62
     1
 10
116.3073267629166025
 20
48.9268719973448611
 30
0.0
  0
VERTEX
  5
3B35
  8
0
  6
CONTINUOUS
 62
     1
 10
104.5695555541110053
 20
51.4218122871579766
 30
0.0
 42
0.4142135623731507
  0
VERTEX
  5
3B36
  8
0
  6
CONTINUOUS
 62
     1
 10
103.3834962625594045
 20
50.6515763772419234
 30
0.0
  0
VERTEX
  5
3B37
  8
0
  6
CONTINUOUS
 62
     1
 10
100.8885559727463033
 20
38.9138051684362409
 30
0.0
 42
0.4142135623730641
  0
VERTEX
  5
3B38
  8
0
  6
CONTINUOUS
 62
     1
 10
101.6587918826623991
 20
37.7277458768846401
 30
0.0
  0
VERTEX
  5
3B39
  8
0
  6
CONTINUOUS
 62
     1
 10
113.3965630914679963
 20
35.2328055870715602
 30
0.0
 42
0.4142135623731162
  0
VERTEX
  5
3B3A
  8
0
  6
CONTINUOUS
 62
     1
 10
114.5826223830195971
 20
36.0030414969876205
 30
0.0
  0
VERTEX
  5
3B3B
  8
0
  6
CONTINUOUS
 62
     1
 10
117.0775626728325989
 20
47.7408127057932887
 30
0.0
 42
0.414213562373117
  0
SEQEND
  5
3B3C
  8
0
  6
CONTINUOUS
 62
     1
  0
POLYLINE
  5
B73
  8
0
  6
CONTINUOUS
 62
     1
 66
     1
 10
0.0
 20
0.0
 30
0.0
 70
     1
  0
VERTEX
  5
3B3D
  8
0
  6
CONTINUOUS
 62
     1
 10
121.1173267629166048
 20
68.9168719973448702
 30
0.0
  0
VERTEX
  5
3B3E
  8
0
  6
CONTINUOUS
 62
     1
 10
109.3795555541109934
 20
71.4118122871579999
 30
0.0
 42
0.4142135623731184
  0
VERTEX
  5
3B3F
  8
0
  6
CONTINUOUS
 62
     1
 10
108.1934962625594068
 20
70.6415763772419609
 30
0.0
  0
VERTEX
  5
3B40
  8
0
  6
CONTINUOUS
 62
     1
 10
105.6985559727462061
 20
58.9038051684362713
 30
0.0
 42
0.4142135623730567
  0
VERTEX
  5
3B41
  8
0
  6
CONTINUOUS
 62
     1
 10
106.4687918826623019
 20
57.7177458768846918
 30
0.0
  0
VERTEX
  5
3B42
  8
0
  6
CONTINUOUS
 62
     1
 10
118.2065630914679986
 20
55.2228055870715906
 30
0.0
 42
0.4142135623731162
  0
VERTEX
  5
3B43
  8
0
  6
CONTINUOUS
 62
     1
 10
119.3926223830195994
 20
55.9930414969876367
 30
0.0
  0
VERTEX
  5
3B44
  8
0
  6
CONTINUOUS
 62
     1
 10
121.8875626728327006
 20
67.7308127057933405
 30
0.0
 42
0.4142135623731189
  0
SEQEND
  5
3B45
  8
0
  6
CONTINUOUS
 62
     1
  0
POLYLINE
  5
B74
  8
0
  6
CONTINUOUS
 62
     1
 66
     1
 10
0.0
 20
0.0
 30
0.0
 70
     1
  0
VERTEX
  5
3B46
  8
0
  6
CONTINUOUS
 62
     1
 10
115.7673267629165963
 20
89.5268719973448839
 30
0.0
  0
VERTEX
  5
3B47
  8
0
  6
CONTINUOUS
 62
     1
 10
104.0295555541108996
 20
92.0218122871579851
 30
0.0
 42
0.4142135623731073
  0
VERTEX
  5
3B48
  8
0
  6
CONTINUOUS
 62
     1
 10
102.8434962625592988
 20
91.2515763772419035
 30
0.0
  0
VERTEX
  5
3B49
  8
0
  6
CONTINUOUS
 62
     1
 10
100.348555972746297
 20
79.5138051684362495
 30
0.0
 42
0.414213562373078
  0
VERTEX
  5
3B4A
  8
0
  6
CONTINUOUS
 62
     1
 10
101.1187918826621939
 20
78.3277458768846913
 30
0.0
  0
VERTEX
  5
3B4B
  8
0
  6
CONTINUOUS
 62
     1
 10
112.8565630914680042
 20
75.8328055870715332
 30
0.0
 42
0.4142135623731159
  0
VERTEX
  5
3B4C
  8
0
  6
CONTINUOUS
 62
     1
 10
114.0426223830196051
 20
76.6030414969876432
 30
0.0
  0
VERTEX
  5
3B4D
  8
0
  6
CONTINUOUS
 62
     1
 10
116.5375626728327063
 20
88.340812705793283
 30
0.0
 42
0.4142135623731232
  0
SEQEND
  5
3B4E
  8
0
  6
CONTINUOUS
 62
     1
  0
POLYLINE
  5
B75
  8
0
  6
CONTINUOUS
 62
     1
 66
     1
 10
0.0
 20
0.0
 30
0.0
 70
     1
  0
VERTEX
  5
3B4F
  8
0
  6
CONTINUOUS
 62
     1
 10
146.9810385568956974
 20
121.8461542872665007
 30
0.0
  0
VERTEX
  5
3B50
  8
0
  6
CONTINUOUS
 62
     1
 10
135.2432673480900007
 20
124.3410945770797014
 30
0.0
 42
0.4142135623731033
  0
VERTEX
  5
3B51
  8
0
  6
CONTINUOUS
 62
     1
 10
134.0572080565383999
 20
123.5708586671636056
 30
0.0
  0
VERTEX
  5
3B52
  8
0
  6
CONTINUOUS
 62
     1
 10
131.5622677667253129
 20
111.8330874583578947
 30
0.0
 42
0.4142135623731002
  0
VERTEX
  5
3B53
  8
0
  6
CONTINUOUS
 62
     1
 10
132.3325036766412097
 20
110.6470281668063933
 30
0.0
  0
VERTEX
  5
3B54
  8
0
  6
CONTINUOUS
 62
     1
 10
144.0702748854469917
 20
108.1520878769933063
 30
0.0
 42
0.4142135623731076
  0
VERTEX
  5
3B55
  8
0
  6
CONTINUOUS
 62
     1
 10
145.2563341769985072
 20
108.9223237869093026
 30
0.0
  0
VERTEX
  5
3B56
  8
0
  6
CONTINUOUS
 62
     1
 10
147.751274466811708
 20
120.6600949957149993
 30
0.0
 42
0.4142135623731356
  0
SEQEND
  5
3B57
  8
0
  6
CONTINUOUS
 62
     1
  0
POLYLINE
  5
B76
  8
0
  6
CONTINUOUS
 62
     1
 66
     1
 10
0.0
 20
0.0
 30
0.0
 70
     1
  0
VERTEX
  5
3B58
  8
0
  6
CONTINUOUS
 62
     1
 10
133.7010385568956963
 20
105.1961542872665945
 30
0.0
  0
VERTEX
  5
3B59
  8
0
  6
CONTINUOUS
 62
     1
 10
121.9632673480899001
 20
107.6910945770796957
 30
0.0
 42
0.41421356237311
  0
VERTEX
  5
3B5A
  8
0
  6
CONTINUOUS
 62
     1
 10
120.7772080565383988
 20
106.9208586671635999
 30
0.0
  0
VERTEX
  5
3B5B
  8
0
  6
CONTINUOUS
 62
     1
 10
118.2822677667252975
 20
95.1830874583579458
 30
0.0
 42
0.4142135623730832
  0
VERTEX
  5
3B5C
  8
0
  6
CONTINUOUS
 62
     1
 10
119.0525036766412939
 20
93.9970281668063876
 30
0.0
  0
VERTEX
  5
3B5D
  8
0
  6
CONTINUOUS
 62
     1
 10
130.7902748854469905
 20
91.5020878769932864
 30
0.0
 42
0.4142135623731247
  0
VERTEX
  5
3B5E
  8
0
  6
CONTINUOUS
 62
     1
 10
131.9763341769985914
 20
92.272323786909368
 30
0.0
  0
VERTEX
  5
3B5F
  8
0
  6
CONTINUOUS
 62
     1
 10
134.4712744668117068
 20
104.0100949957149936
 30
0.0
 42
0.414213562373143
  0
SEQEND
  5
3B60
  8
0
  6
CONTINUOUS
 62
     1
  0
POLYLINE
  5
B77
  8
0
  6
CONTINUOUS
 62
     1
 66
     1
 10
0.0
 20
0.0
 30
0.0
 70
     1
  0
VERTEX
  5
3B61
  8
0
  6
CONTINUOUS
 62
     1
 10
134.4010385568957133
 20
85.5661542872665422
 30
0.0
  0
VERTEX
  5
3B62
  8
0
  6
CONTINUOUS
 62
     1
 10
122.663267348089903
 20
88.061094577079686
 30
0.0
 42
0.4142135623731301
  0
VERTEX
  5
3B63
  8
0
  6
CONTINUOUS
 62
     1
 10
121.4772080565384016
 20
87.2908586671636471
 30
0.0
  0
VERTEX
  5
3B64
  8
0
  6
CONTINUOUS
 62
     1
 10
118.9822677667252009
 20
75.5530874583579504
 30
0.0
 42
0.4142135623730597
  0
VERTEX
  5
3B65
  8
0
  6
CONTINUOUS
 62
     1
 10
119.7525036766411972
 20
74.367028166806378
 30
0.0
  0
VERTEX
  5
3B66
  8
0
  6
CONTINUOUS
 62
     1
 10
131.4902748854470076
 20
71.8720878769932767
 30
0.0
 42
0.4142135623731333
  0
VERTEX
  5
3B67
  8
0
  6
CONTINUOUS
 62
     1
 10
132.6763341769986084
 20
72.6423237869093441
 30
0.0
  0
VERTEX
  5
3B68
  8
0
  6
CONTINUOUS
 62
     1
 10
135.1712744668116102
 20
84.380094995714984
 30
0.0
 42
0.4142135623731162
  0
SEQEND
  5
3B69
  8
0
  6
CONTINUOUS
 62
     1
  0
POLYLINE
  5
B78
  8
0
  6
CONTINUOUS
 62
     1
 66
     1
 10
0.0
 20
0.0
 30
0.0
 70
     1
  0
VERTEX
  5
3B6A
  8
0
  6
CONTINUOUS
 62
     1
 10
139.751038556895594
 20
64.9561542872665711
 30
0.0
  0
VERTEX
  5
3B6B
  8
0
  6
CONTINUOUS
 62
     1
 10
128.0132673480896983
 20
67.4510945770796866
 30
0.0
 42
0.4142135623731062
  0
VERTEX
  5
3B6C
  8
0
  6
CONTINUOUS
 62
     1
 10
126.827208056538197
 20
66.6808586671636334
 30
0.0
  0
VERTEX
  5
3B6D
  8
0
  6
CONTINUOUS
 62
     1
 10
124.3322677667251952
 20
54.943087458357958
 30
0.0
 42
0.4142135623730641
  0
VERTEX
  5
3B6E
  8
0
  6
CONTINUOUS
 62
     1
 10
125.1025036766413052
 20
53.7570281668063714
 30
0.0
  0
VERTEX
  5
3B6F
  8
0
  6
CONTINUOUS
 62
     1
 10
136.8402748854470019
 20
51.2620878769932773
 30
0.0
 42
0.4142135623731162
  0
VERTEX
  5
3B70
  8
0
  6
CONTINUOUS
 62
     1
 10
138.0263341769986027
 20
52.0323237869093802
 30
0.0
  0
VERTEX
  5
3B71
  8
0
  6
CONTINUOUS
 62
     1
 10
140.5212744668116898
 20
63.7700949957149916
 30
0.0
 42
0.414213562373086
  0
SEQEND
  5
3B72
  8
0
  6
CONTINUOUS
 62
     1
  0
POLYLINE
  5
B79
  8
0
  6
CONTINUOUS
 62
     1
 66
     1
 10
0.0
 20
0.0
 30
0.0
 70
     1
  0
VERTEX
  5
3B73
  8
0
  6
CONTINUOUS
 62
     1
 10
165.6147503508746013
 20
117.885436577188301
 30
0.0
  0
VERTEX
  5
3B74
  8
0
  6
CONTINUOUS
 62
     1
 10
153.8769791420689899
 20
120.3803768670014023
 30
0.0
 42
0.4142135623731325
  0
VERTEX
  5
3B75
  8
0
  6
CONTINUOUS
 62
     1
 10
152.6909198505173038
 20
119.6101409570853065
 30
0.0
  0
VERTEX
  5
3B76
  8
0
  6
CONTINUOUS
 62
     1
 10
150.195979560704302
 20
107.8723697482795956
 30
0.0
 42
0.4142135623730682
  0
VERTEX
  5
3B77
  8
0
  6
CONTINUOUS
 62
     1
 10
150.9662154706203125
 20
106.6863104567279947
 30
0.0
  0
VERTEX
  5
3B78
  8
0
  6
CONTINUOUS
 62
     1
 10
162.7039866794260092
 20
104.191370166914993
 30
0.0
 42
0.4142135623731232
  0
VERTEX
  5
3B79
  8
0
  6
CONTINUOUS
 62
     1
 10
163.8900459709776101
 20
104.9616060768310035
 30
0.0
  0
VERTEX
  5
3B7A
  8
0
  6
CONTINUOUS
 62
     1
 10
166.3849862607906118
 20
116.6993772856367002
 30
0.0
 42
0.4142135623730982
  0
SEQEND
  5
3B7B
  8
0
  6
CONTINUOUS
 62
     1
  0
POLYLINE
  5
B7A
  8
0
  6
CONTINUOUS
 62
     1
 66
     1
 10
0.0
 20
0.0
 30
0.0
 70
     1
  0
VERTEX
  5
3B7C
  8
0
  6
CONTINUOUS
 62
     1
 10
152.3347503508746001
 20
101.2354365771881959
 30
0.0
  0
VERTEX
  5
3B7D
  8
0
  6
CONTINUOUS
 62
     1
 10
140.5969791420689887
 20
103.7303768670013966
 30
0.0
 42
0.4142135623731165
  0
VERTEX
  5
3B7E
  8
0
  6
CONTINUOUS
 62
     1
 10
139.4109198505173879
 20
102.9601409570853008
 30
0.0
  0
VERTEX
  5
3B7F
  8
0
  6
CONTINUOUS
 62
     1
 10
136.9159795607041872
 20
91.2223697482796609
 30
0.0
 42
0.4142135623730819
  0
VERTEX
  5
3B80
  8
0
  6
CONTINUOUS
 62
     1
 10
137.6862154706203114
 20
90.0363104567280601
 30
0.0
  0
VERTEX
  5
3B81
  8
0
  6
CONTINUOUS
 62
     1
 10
149.4239866794260081
 20
87.5413701669149731
 30
0.0
 42
0.4142135623731359
  0
VERTEX
  5
3B82
  8
0
  6
CONTINUOUS
 62
     1
 10
150.6100459709776089
 20
88.3116060768310547
 30
0.0
  0
VERTEX
  5
3B83
  8
0
  6
CONTINUOUS
 62
     1
 10
153.104986260790696
 20
100.049377285636595
 30
0.0
 42
0.4142135623731411
  0
SEQEND
  5
3B84
  8
0
  6
CONTINUOUS
 62
     1
  0
POLYLINE
  5
B7B
  8
0
  6
CONTINUOUS
 62
     1
 66
     1
 10
0.0
 20
0.0
 30
0.0
 70
     1
  0
VERTEX
  5
3B85
  8
0
  6
CONTINUOUS
 62
     1
 10
153.0347503508747025
 20
81.6054365771882715
 30
0.0
  0
VERTEX
  5
3B86
  8
0
  6
CONTINUOUS
 62
     1
 10
141.2969791420688921
 20
84.1003768670013727
 30
0.0
 42
0.4142135623730992
  0
VERTEX
  5
3B87
  8
0
  6
CONTINUOUS
 62
     1
 10
140.1109198505174049
 20
83.3301409570853338
 30
0.0
  0
VERTEX
  5
3B88
  8
0
  6
CONTINUOUS
 62
     1
 10
137.6159795607042042
 20
71.5923697482796655
 30
0.0
 42
0.4142135623731364
  0
VERTEX
  5
3B89
  8
0
  6
CONTINUOUS
 62
     1
 10
138.3862154706203
 20
70.4063104567280789
 30
0.0
  0
VERTEX
  5
3B8A
  8
0
  6
CONTINUOUS
 62
     1
 10
150.1239866794259967
 20
67.9113701669149634
 30
0.0
 42
0.4142135623731289
  0
VERTEX
  5
3B8B
  8
0
  6
CONTINUOUS
 62
     1
 10
151.3100459709775123
 20
68.6816060768310592
 30
0.0
  0
VERTEX
  5
3B8C
  8
0
  6
CONTINUOUS
 62
     1
 10
153.8049862607905141
 20
80.4193772856366706
 30
0.0
 42
0.4142135623731104
  0
SEQEND
  5
3B8D
  8
0
  6
CONTINUOUS
 62
     1
  0
POLYLINE
  5
B7C
  8
0
  6
CONTINUOUS
 62
     1
 66
     1
 10
0.0
 20
0.0
 30
0.0
 70
     1
  0
VERTEX
  5
3B8E
  8
0
  6
CONTINUOUS
 62
     1
 10
158.3847503508746115
 20
60.9954365771882507
 30
0.0
  0
VERTEX
  5
3B8F
  8
0
  6
CONTINUOUS
 62
     1
 10
146.6469791420688011
 20
63.4903768670013591
 30
0.0
 42
0.4142135623731062
  0
VERTEX
  5
3B90
  8
0
  6
CONTINUOUS
 62
     1
 10
145.4609198505173993
 20
62.7201409570853272
 30
0.0
  0
VERTEX
  5
3B91
  8
0
  6
CONTINUOUS
 62
     1
 10
142.9659795607043122
 20
50.9823697482796518
 30
0.0
 42
0.4142135623730749
  0
VERTEX
  5
3B92
  8
0
  6
CONTINUOUS
 62
     1
 10
143.7362154706202944
 20
49.7963104567280794
 30
0.0
  0
VERTEX
  5
3B93
  8
0
  6
CONTINUOUS
 62
     1
 10
155.4739866794259058
 20
47.3013701669149569
 30
0.0
 42
0.4142135623731244
  0
VERTEX
  5
3B94
  8
0
  6
CONTINUOUS
 62
     1
 10
156.6600459709775066
 20
48.0716060768310527
 30
0.0
  0
VERTEX
  5
3B95
  8
0
  6
CONTINUOUS
 62
     1
 10
159.1549862607905084
 20
59.8093772856366783
 30
0.0
 42
0.4142135623731066
  0
SEQEND
  5
3B96
  8
0
  6
CONTINUOUS
 62
     1
  0
POLYLINE
  5
B7D
  8
0
  6
CONTINUOUS
 62
     1
 66
     1
 10
0.0
 20
0.0
 30
0.0
 70
     1
  0
VERTEX
  5
3B97
  8
0
  6
CONTINUOUS
 62
     1
 10
184.2484621448535904
 20
113.924718867110002
 30
0.0
  0
VERTEX
  5
3B98
  8
0
  6
CONTINUOUS
 62
     1
 10
172.5106909360478085
 20
116.4196591569230037
 30
0.0
 42
0.4142135623731414
  0
VERTEX
  5
3B99
  8
0
  6
CONTINUOUS
 62
     1
 10
171.3246316444964066
 20
115.6494232470069932
 30
0.0
  0
VERTEX
  5
3B9A
  8
0
  6
CONTINUOUS
 62
     1
 10
168.8296913546832059
 20
103.911652038201197
 30
0.0
 42
0.4142135623730774
  0
VERTEX
  5
3B9B
  8
0
  6
CONTINUOUS
 62
     1
 10
169.5999272645993869
 20
102.7255927466495962
 30
0.0
  0
VERTEX
  5
3B9C
  8
0
  6
CONTINUOUS
 62
     1
 10
181.3376984734049131
 20
100.2306524568365944
 30
0.0
 42
0.4142135623731182
  0
VERTEX
  5
3B9D
  8
0
  6
CONTINUOUS
 62
     1
 10
182.5237577649564003
 20
101.0008883667527044
 30
0.0
  0
VERTEX
  5
3B9E
  8
0
  6
CONTINUOUS
 62
     1
 10
185.018698054769601
 20
112.7386595755584011
 30
0.0
 42
0.4142135623731461
  0
SEQEND
  5
3B9F
  8
0
  6
CONTINUOUS
 62
     1
  0
POLYLINE
  5
B7E
  8
0
  6
CONTINUOUS
 62
     1
 66
     1
 10
0.0
 20
0.0
 30
0.0
 70
     1
  0
VERTEX
  5
3BA0
  8
0
  6
CONTINUOUS
 62
     1
 10
170.968462144853703
 20
97.2747188671099536
 30
0.0
  0
VERTEX
  5
3BA1
  8
0
  6
CONTINUOUS
 62
     1
 10
159.2306909360478073
 20
99.7696591569231259
 30
0.0
 42
0.4142135623731097
  0
VERTEX
  5
3BA2
  8
0
  6
CONTINUOUS
 62
     1
 10
158.0446316444962918
 20
98.9994232470070443
 30
0.0
  0
VERTEX
  5
3BA3
  8
0
  6
CONTINUOUS
 62
     1
 10
155.54969135468329
 20
87.2616520382013476
 30
0.0
 42
0.4142135623730673
  0
VERTEX
  5
3BA4
  8
0
  6
CONTINUOUS
 62
     1
 10
156.3199272645993005
 20
86.0755927466497752
 30
0.0
  0
VERTEX
  5
3BA5
  8
0
  6
CONTINUOUS
 62
     1
 10
168.057698473404912
 20
83.580652456836674
 30
0.0
 42
0.414213562373152
  0
VERTEX
  5
3BA6
  8
0
  6
CONTINUOUS
 62
     1
 10
169.2437577649565981
 20
84.3508883667527556
 30
0.0
  0
VERTEX
  5
3BA7
  8
0
  6
CONTINUOUS
 62
     1
 10
171.7386980547695998
 20
96.0886595755583812
 30
0.0
 42
0.4142135623731692
  0
SEQEND
  5
3BA8
  8
0
  6
CONTINUOUS
 62
     1
  0
POLYLINE
  5
B7F
  8
0
  6
CONTINUOUS
 62
     1
 66
     1
 10
0.0
 20
0.0
 30
0.0
 70
     1
  0
VERTEX
  5
3BA9
  8
0
  6
CONTINUOUS
 62
     1
 10
171.6684621448536916
 20
77.6447188671099582
 30
0.0
  0
VERTEX
  5
3BAA
  8
0
  6
CONTINUOUS
 62
     1
 10
159.9306909360479949
 20
80.1396591569230736
 30
0.0
 42
0.4142135623731335
  0
VERTEX
  5
3BAB
  8
0
  6
CONTINUOUS
 62
     1
 10
158.7446316444963941
 20
79.3694232470070204
 30
0.0
  0
VERTEX
  5
3BAC
  8
0
  6
CONTINUOUS
 62
     1
 10
156.2496913546831934
 20
67.6316520382013664
 30
0.0
 42
0.4142135623731182
  0
VERTEX
  5
3BAD
  8
0
  6
CONTINUOUS
 62
     1
 10
157.0199272645992892
 20
66.445592746649794
 30
0.0
  0
VERTEX
  5
3BAE
  8
0
  6
CONTINUOUS
 62
     1
 10
168.7576984734049859
 20
63.9506524568366714
 30
0.0
 42
0.4142135623730808
  0
VERTEX
  5
3BAF
  8
0
  6
CONTINUOUS
 62
     1
 10
169.9437577649565014
 20
64.7208883667527459
 30
0.0
  0
VERTEX
  5
3BB0
  8
0
  6
CONTINUOUS
 62
     1
 10
172.4386980547697021
 20
76.4586595755583858
 30
0.0
 42
0.4142135623731398
  0
SEQEND
  5
3BB1
  8
0
  6
CONTINUOUS
 62
     1
  0
POLYLINE
  5
B80
  8
0
  6
CONTINUOUS
 62
     1
 66
     1
 10
0.0
 20
0.0
 30
0.0
 70
     1
  0
VERTEX
  5
3BB2
  8
0
  6
CONTINUOUS
 62
     1
 10
177.0184621448536006
 20
57.0347188671099588
 30
0.0
  0
VERTEX
  5
3BB3
  8
0
  6
CONTINUOUS
 62
     1
 10
165.280690936047904
 20
59.52965915692306
 30
0.0
 42
0.4142135623731588
  0
VERTEX
  5
3BB4
  8
0
  6
CONTINUOUS
 62
     1
 10
164.0946316444963884
 20
58.759423247007021
 30
0.0
  0
VERTEX
  5
3BB5
  8
0
  6
CONTINUOUS
 62
     1
 10
161.5996913546833014
 20
47.0216520382013528
 30
0.0
 42
0.4142135623730527
  0
VERTEX
  5
3BB6
  8
0
  6
CONTINUOUS
 62
     1
 10
162.3699272645993972
 20
45.8355927466497732
 30
0.0
  0
VERTEX
  5
3BB7
  8
0
  6
CONTINUOUS
 62
     1
 10
174.1076984734050939
 20
43.340652456836672
 30
0.0
 42
0.4142135623730951
  0
VERTEX
  5
3BB8
  8
0
  6
CONTINUOUS
 62
     1
 10
175.2937577649566094
 20
44.1108883667527607
 30
0.0
  0
VERTEX
  5
3BB9
  8
0
  6
CONTINUOUS
 62
     1
 10
177.7886980547696112
 20
55.8486595755583721
 30
0.0
 42
0.4142135623731088
  0
SEQEND
  5
3BBA
  8
0
  6
CONTINUOUS
 62
     1
  0
POLYLINE
  5
B81
  8
0
  6
CONTINUOUS
 62
     1
 66
     1
 10
0.0
 20
0.0
 30
0.0
 70
     1
  0
VERTEX
  5
3BBB
  8
0
  6
CONTINUOUS
 62
     1
 10
260.0365630914679969
 20
109.6718122871579055
 30
0.0
  0
VERTEX
  5
3BBC
  8
0
  6
CONTINUOUS
 62
     1
 10
248.2987918826624139
 20
107.1768719973449038
 30
0.0
 42
0.4142135623730498
  0
VERTEX
  5
3BBD
  8
0
  6
CONTINUOUS
 62
     1
 10
247.5285559727462896
 20
105.9908127057933029
 30
0.0
  0
VERTEX
  5
3BBE
  8
0
  6
CONTINUOUS
 62
     1
 10
250.0234962625592914
 20
94.2530414969875494
 30
0.0
 42
0.4142135623731046
  0
VERTEX
  5
3BBF
  8
0
  6
CONTINUOUS
 62
     1
 10
251.2095555541110059
 20
93.4828055870715531
 30
0.0
  0
VERTEX
  5
3BC0
  8
0
  6
CONTINUOUS
 62
     1
 10
262.9473267629164752
 20
95.9777458768847254
 30
0.0
 42
0.4142135623729788
  0
VERTEX
  5
3BC1
  8
0
  6
CONTINUOUS
 62
     1
 10
263.7175626728327984
 20
97.1638051684362836
 30
0.0
  0
VERTEX
  5
3BC2
  8
0
  6
CONTINUOUS
 62
     1
 10
261.2226223830195977
 20
108.901576377241895
 30
0.0
 42
0.4142135623730516
  0
SEQEND
  5
3BC3
  8
0
  6
CONTINUOUS
 62
     1
  0
POLYLINE
  5
B82
  8
0
  6
CONTINUOUS
 62
     1
 66
     1
 10
0.0
 20
0.0
 30
0.0
 70
     1
  0
VERTEX
  5
3BC4
  8
0
  6
CONTINUOUS
 62
     1
 10
265.3965630914678968
 20
130.2818122871580044
 30
0.0
  0
VERTEX
  5
3BC5
  8
0
  6
CONTINUOUS
 62
     1
 10
253.6587918826623991
 20
127.7868719973448037
 30
0.0
 42
0.4142135623730804
  0
VERTEX
  5
3BC6
  8
0
  6
CONTINUOUS
 62
     1
 10
252.8885559727463033
 20
126.6008127057933024
 30
0.0
  0
VERTEX
  5
3BC7
  8
0
  6
CONTINUOUS
 62
     1
 10
255.383496262559305
 20
114.8630414969875062
 30
0.0
 42
0.4142135623731095
  0
VERTEX
  5
3BC8
  8
0
  6
CONTINUOUS
 62
     1
 10
256.5695555541111048
 20
114.0928055870714957
 30
0.0
  0
VERTEX
  5
3BC9
  8
0
  6
CONTINUOUS
 62
     1
 10
268.3073267629167731
 20
116.5877458768845969
 30
0.0
 42
0.41421356237308
  0
VERTEX
  5
3BCA
  8
0
  6
CONTINUOUS
 62
     1
 10
269.077562672832812
 20
117.7738051684361977
 30
0.0
  0
VERTEX
  5
3BCB
  8
0
  6
CONTINUOUS
 62
     1
 10
266.5826223830196113
 20
129.5115763772419086
 30
0.0
 42
0.4142135623730563
  0
SEQEND
  5
3BCC
  8
0
  6
CONTINUOUS
 62
     1
  0
POLYLINE
  5
B83
  8
0
  6
CONTINUOUS
 62
     1
 66
     1
 10
0.0
 20
0.0
 30
0.0
 70
     1
  0
VERTEX
  5
3BCD
  8
0
  6
CONTINUOUS
 62
     1
 10
268.6565630914680014
 20
92.0218122871579567
 30
0.0
  0
VERTEX
  5
3BCE
  8
0
  6
CONTINUOUS
 62
     1
 10
256.91879188266239
 20
89.526871997344827
 30
0.0
 42
0.4142135623730928
  0
VERTEX
  5
3BCF
  8
0
  6
CONTINUOUS
 62
     1
 10
256.1485559727462942
 20
88.340812705793283
 30
0.0
  0
VERTEX
  5
3BD0
  8
0
  6
CONTINUOUS
 62
     1
 10
258.6434962625593244
 20
76.6030414969876006
 30
0.0
 42
0.4142135623731196
  0
VERTEX
  5
3BD1
  8
0
  6
CONTINUOUS
 62
     1
 10
259.829555554110982
 20
75.8328055870715332
 30
0.0
  0
VERTEX
  5
3BD2
  8
0
  6
CONTINUOUS
 62
     1
 10
271.5673267629167071
 20
78.3277458768847055
 30
0.0
 42
0.4142135623730563
  0
VERTEX
  5
3BD3
  8
0
  6
CONTINUOUS
 62
     1
 10
272.3375626728326893
 20
79.5138051684362921
 30
0.0
  0
VERTEX
  5
3BD4
  8
0
  6
CONTINUOUS
 62
     1
 10
269.8426223830196022
 20
91.2515763772419035
 30
0.0
 42
0.4142135623730307
  0
SEQEND
  5
3BD5
  8
0
  6
CONTINUOUS
 62
     1
  0
POLYLINE
  5
B84
  8
0
  6
CONTINUOUS
 62
     1
 66
     1
 10
0.0
 20
0.0
 30
0.0
 70
     1
  0
VERTEX
  5
3BD6
  8
0
  6
CONTINUOUS
 62
     1
 10
263.2965630914679878
 20
71.4118122871579715
 30
0.0
  0
VERTEX
  5
3BD7
  8
0
  6
CONTINUOUS
 62
     1
 10
251.5587918826624048
 20
68.9168719973448844
 30
0.0
 42
0.4142135623730822
  0
VERTEX
  5
3BD8
  8
0
  6
CONTINUOUS
 62
     1
 10
250.788555972746309
 20
67.730812705793312
 30
0.0
  0
VERTEX
  5
3BD9
  8
0
  6
CONTINUOUS
 62
     1
 10
253.283496262559396
 20
55.9930414969876011
 30
0.0
 42
0.4142135623731061
  0
VERTEX
  5
3BDA
  8
0
  6
CONTINUOUS
 62
     1
 10
254.4695555541109968
 20
55.2228055870715409
 30
0.0
  0
VERTEX
  5
3BDB
  8
0
  6
CONTINUOUS
 62
     1
 10
266.2073267629165798
 20
57.7177458768846918
 30
0.0
 42
0.4142135623731073
  0
VERTEX
  5
3BDC
  8
0
  6
CONTINUOUS
 62
     1
 10
266.9775626728326756
 20
58.9038051684362713
 30
0.0
  0
VERTEX
  5
3BDD
  8
0
  6
CONTINUOUS
 62
     1
 10
264.4826223830195886
 20
70.6415763772419609
 30
0.0
 42
0.4142135623730822
  0
SEQEND
  5
3BDE
  8
0
  6
CONTINUOUS
 62
     1
  0
POLYLINE
  5
B85
  8
0
  6
CONTINUOUS
 62
     1
 66
     1
 10
0.0
 20
0.0
 30
0.0
 70
     1
  0
VERTEX
  5
3BDF
  8
0
  6
CONTINUOUS
 62
     1
 10
268.1065630914678763
 20
51.421812287158069
 30
0.0
  0
VERTEX
  5
3BE0
  8
0
  6
CONTINUOUS
 62
     1
 10
256.3687918826622081
 20
48.9268719973448327
 30
0.0
 42
0.4142135623730729
  0
VERTEX
  5
3BE1
  8
0
  6
CONTINUOUS
 62
     1
 10
255.5985559727461975
 20
47.7408127057932319
 30
0.0
  0
VERTEX
  5
3BE2
  8
0
  6
CONTINUOUS
 62
     1
 10
258.0934962625594835
 20
36.0030414969876134
 30
0.0
 42
0.4142135623730911
  0
VERTEX
  5
3BE3
  8
0
  6
CONTINUOUS
 62
     1
 10
259.2795555541110843
 20
35.2328055870715673
 30
0.0
  0
VERTEX
  5
3BE4
  8
0
  6
CONTINUOUS
 62
     1
 10
271.0173267629165821
 20
37.7277458768848319
 30
0.0
 42
0.4142135623730789
  0
VERTEX
  5
3BE5
  8
0
  6
CONTINUOUS
 62
     1
 10
271.7875626728326779
 20
38.913805168436383
 30
0.0
  0
VERTEX
  5
3BE6
  8
0
  6
CONTINUOUS
 62
     1
 10
269.2926223830194772
 20
50.6515763772420087
 30
0.0
 42
0.4142135623731122
  0
SEQEND
  5
3BE7
  8
0
  6
CONTINUOUS
 62
     1
  0
POLYLINE
  5
B86
  8
0
  6
CONTINUOUS
 62
     1
 66
     1
 10
0.0
 20
0.0
 30
0.0
 70
     1
  0
VERTEX
  5
3BE8
  8
0
  6
CONTINUOUS
 62
     1
 10
227.6965630914675955
 20
44.3618122871582301
 30
0.0
  0
VERTEX
  5
3BE9
  8
0
  6
CONTINUOUS
 62
     1
 10
215.9587918826618989
 20
41.866871997344802
 30
0.0
 42
0.4142135623731106
  0
VERTEX
  5
3BEA
  8
0
  6
CONTINUOUS
 62
     1
 10
215.1885559727458883
 20
40.6808127057932083
 30
0.0
  0
VERTEX
  5
3BEB
  8
0
  6
CONTINUOUS
 62
     1
 10
217.6834962625594017
 20
28.9430414969875791
 30
0.0
 42
0.4142135623730373
  0
VERTEX
  5
3BEC
  8
0
  6
CONTINUOUS
 62
     1
 10
218.8695555541110025
 20
28.1728055870715401
 30
0.0
  0
VERTEX
  5
3BED
  8
0
  6
CONTINUOUS
 62
     1
 10
230.6073267629166139
 20
30.6677458768850499
 30
0.0
 42
0.4142135623730809
  0
VERTEX
  5
3BEE
  8
0
  6
CONTINUOUS
 62
     1
 10
231.377562672832596
 20
31.8538051684366117
 30
0.0
  0
VERTEX
  5
3BEF
  8
0
  6
CONTINUOUS
 62
     1
 10
228.8826223830191964
 20
43.5915763772421982
 30
0.0
 42
0.4142135623731033
  0
SEQEND
  5
3BF0
  8
0
  6
CONTINUOUS
 62
     1
  0
POLYLINE
  5
B87
  8
0
  6
CONTINUOUS
 62
     1
 66
     1
 10
0.0
 20
0.0
 30
0.0
 70
     1
  0
VERTEX
  5
3BF1
  8
0
  6
CONTINUOUS
 62
     1
 10
246.7628512974891066
 20
126.3210945770796059
 30
0.0
  0
VERTEX
  5
3BF2
  8
0
  6
CONTINUOUS
 62
     1
 10
235.0250800886834099
 20
123.8261542872665046
 30
0.0
 42
0.4142135623730718
  0
VERTEX
  5
3BF3
  8
0
  6
CONTINUOUS
 62
     1
 10
234.2548441787672004
 20
122.6400949957149038
 30
0.0
  0
VERTEX
  5
3BF4
  8
0
  6
CONTINUOUS
 62
     1
 10
236.7497844685804012
 20
110.9023237869091929
 30
0.0
 42
0.4142135623731131
  0
VERTEX
  5
3BF5
  8
0
  6
CONTINUOUS
 62
     1
 10
237.935843760132002
 20
110.1320878769931966
 30
0.0
  0
VERTEX
  5
3BF6
  8
0
  6
CONTINUOUS
 62
     1
 10
249.6736149689376134
 20
112.6270281668061983
 30
0.0
 42
0.41421356237305
  0
VERTEX
  5
3BF7
  8
0
  6
CONTINUOUS
 62
     1
 10
250.4438508788537092
 20
113.8130874583578986
 30
0.0
  0
VERTEX
  5
3BF8
  8
0
  6
CONTINUOUS
 62
     1
 10
247.9489105890407075
 20
125.5508586671635953
 30
0.0
 42
0.4142135623730347
  0
SEQEND
  5
3BF9
  8
0
  6
CONTINUOUS
 62
     1
  0
POLYLINE
  5
B88
  8
0
  6
CONTINUOUS
 62
     1
 66
     1
 10
0.0
 20
0.0
 30
0.0
 70
     1
  0
VERTEX
  5
3BFA
  8
0
  6
CONTINUOUS
 62
     1
 10
241.402851297489093
 20
105.7110945770796064
 30
0.0
  0
VERTEX
  5
3BFB
  8
0
  6
CONTINUOUS
 62
     1
 10
229.665080088683311
 20
103.2161542872665052
 30
0.0
 42
0.4142135623730884
  0
VERTEX
  5
3BFC
  8
0
  6
CONTINUOUS
 62
     1
 10
228.8948441787673005
 20
102.0300949957149044
 30
0.0
  0
VERTEX
  5
3BFD
  8
0
  6
CONTINUOUS
 62
     1
 10
231.3897844685803875
 20
90.2923237869092645
 30
0.0
 42
0.4142135623730911
  0
VERTEX
  5
3BFE
  8
0
  6
CONTINUOUS
 62
     1
 10
232.575843760132102
 20
89.522087876993254
 30
0.0
  0
VERTEX
  5
3BFF
  8
0
  6
CONTINUOUS
 62
     1
 10
244.3136149689377135
 20
92.0170281668063552
 30
0.0
 42
0.4142135623730454
  0
VERTEX
  5
3C00
  8
0
  6
CONTINUOUS
 62
     1
 10
245.0838508788538093
 20
93.2030874583579561
 30
0.0
  0
VERTEX
  5
3C01
  8
0
  6
CONTINUOUS
 62
     1
 10
242.5889105890406938
 20
104.9408586671635959
 30
0.0
 42
0.4142135623730705
  0
SEQEND
  5
3C02
  8
0
  6
CONTINUOUS
 62
     1
  0
POLYLINE
  5
B89
  8
0
  6
CONTINUOUS
 62
     1
 66
     1
 10
0.0
 20
0.0
 30
0.0
 70
     1
  0
VERTEX
  5
3C03
  8
0
  6
CONTINUOUS
 62
     1
 10
250.0228512974890123
 20
88.061094577079615
 30
0.0
  0
VERTEX
  5
3C04
  8
0
  6
CONTINUOUS
 62
     1
 10
238.2850800886834008
 20
85.5661542872665137
 30
0.0
 42
0.4142135623730699
  0
VERTEX
  5
3C05
  8
0
  6
CONTINUOUS
 62
     1
 10
237.5148441787671914
 20
84.3800949957149413
 30
0.0
  0
VERTEX
  5
3C06
  8
0
  6
CONTINUOUS
 62
     1
 10
240.0097844685803921
 20
72.6423237869092446
 30
0.0
 42
0.4142135623731122
  0
VERTEX
  5
3C07
  8
0
  6
CONTINUOUS
 62
     1
 10
241.1958437601319929
 20
71.8720878769932483
 30
0.0
  0
VERTEX
  5
3C08
  8
0
  6
CONTINUOUS
 62
     1
 10
252.9336149689376043
 20
74.367028166806378
 30
0.0
 42
0.4142135623730693
  0
VERTEX
  5
3C09
  8
0
  6
CONTINUOUS
 62
     1
 10
253.7038508788537001
 20
75.5530874583579504
 30
0.0
  0
VERTEX
  5
3C0A
  8
0
  6
CONTINUOUS
 62
     1
 10
251.2089105890406984
 20
87.2908586671636186
 30
0.0
 42
0.4142135623730547
  0
SEQEND
  5
3C0B
  8
0
  6
CONTINUOUS
 62
     1
  0
POLYLINE
  5
B8A
  8
0
  6
CONTINUOUS
 62
     1
 66
     1
 10
0.0
 20
0.0
 30
0.0
 70
     1
  0
VERTEX
  5
3C0C
  8
0
  6
CONTINUOUS
 62
     1
 10
244.6628512974891123
 20
67.451094577079644
 30
0.0
  0
VERTEX
  5
3C0D
  8
0
  6
CONTINUOUS
 62
     1
 10
232.9250800886833019
 20
64.9561542872665143
 30
0.0
 42
0.4142135623731344
  0
VERTEX
  5
3C0E
  8
0
  6
CONTINUOUS
 62
     1
 10
232.1548441787672914
 20
63.7700949957149703
 30
0.0
  0
VERTEX
  5
3C0F
  8
0
  6
CONTINUOUS
 62
     1
 10
234.6497844685804921
 20
52.0323237869092665
 30
0.0
 42
0.4142135623730819
  0
VERTEX
  5
3C10
  8
0
  6
CONTINUOUS
 62
     1
 10
235.8358437601320929
 20
51.2620878769932489
 30
0.0
  0
VERTEX
  5
3C11
  8
0
  6
CONTINUOUS
 62
     1
 10
247.5736149689375054
 20
53.7570281668063572
 30
0.0
 42
0.4142135623730959
  0
VERTEX
  5
3C12
  8
0
  6
CONTINUOUS
 62
     1
 10
248.3438508788538002
 20
54.9430874583579367
 30
0.0
  0
VERTEX
  5
3C13
  8
0
  6
CONTINUOUS
 62
     1
 10
245.8489105890407131
 20
66.6808586671636192
 30
0.0
 42
0.4142135623730653
  0
SEQEND
  5
3C14
  8
0
  6
CONTINUOUS
 62
     1
  0
POLYLINE
  5
B8B
  8
0
  6
CONTINUOUS
 62
     1
 66
     1
 10
0.0
 20
0.0
 30
0.0
 70
     1
  0
VERTEX
  5
3C15
  8
0
  6
CONTINUOUS
 62
     1
 10
228.1291395035100891
 20
122.3603768670013068
 30
0.0
  0
VERTEX
  5
3C16
  8
0
  6
CONTINUOUS
 62
     1
 10
216.3913682947043924
 20
119.8654365771882055
 30
0.0
 42
0.4142135623731119
  0
VERTEX
  5
3C17
  8
0
  6
CONTINUOUS
 62
     1
 10
215.6211323847882966
 20
118.6793772856366047
 30
0.0
  0
VERTEX
  5
3C18
  8
0
  6
CONTINUOUS
 62
     1
 10
218.1160726746014973
 20
106.9416060768307943
 30
0.0
 42
0.4142135623731131
  0
VERTEX
  5
3C19
  8
0
  6
CONTINUOUS
 62
     1
 10
219.3021319661530981
 20
106.1713701669148975
 30
0.0
  0
VERTEX
  5
3C1A
  8
0
  6
CONTINUOUS
 62
     1
 10
231.0399031749587095
 20
108.6663104567279987
 30
0.0
 42
0.4142135623730903
  0
VERTEX
  5
3C1B
  8
0
  6
CONTINUOUS
 62
     1
 10
231.8101390848748053
 20
109.8523697482795995
 30
0.0
  0
VERTEX
  5
3C1C
  8
0
  6
CONTINUOUS
 62
     1
 10
229.3151987950616046
 20
121.5901409570852962
 30
0.0
 42
0.4142135623730482
  0
SEQEND
  5
3C1D
  8
0
  6
CONTINUOUS
 62
     1
  0
POLYLINE
  5
B8C
  8
0
  6
CONTINUOUS
 62
     1
 66
     1
 10
0.0
 20
0.0
 30
0.0
 70
     1
  0
VERTEX
  5
3C1E
  8
0
  6
CONTINUOUS
 62
     1
 10
222.7691395035099902
 20
101.7503768670012931
 30
0.0
  0
VERTEX
  5
3C1F
  8
0
  6
CONTINUOUS
 62
     1
 10
211.0313682947044072
 20
99.2554365771881919
 30
0.0
 42
0.4142135623730879
  0
VERTEX
  5
3C20
  8
0
  6
CONTINUOUS
 62
     1
 10
210.2611323847883966
 20
98.0693772856366337
 30
0.0
  0
VERTEX
  5
3C21
  8
0
  6
CONTINUOUS
 62
     1
 10
212.7560726746013131
 20
86.3316060768308944
 30
0.0
 42
0.4142135623730905
  0
VERTEX
  5
3C22
  8
0
  6
CONTINUOUS
 62
     1
 10
213.9421319661531129
 20
85.5613701669149265
 30
0.0
  0
VERTEX
  5
3C23
  8
0
  6
CONTINUOUS
 62
     1
 10
225.6799031749588096
 20
88.0563104567280419
 30
0.0
 42
0.4142135623730482
  0
VERTEX
  5
3C24
  8
0
  6
CONTINUOUS
 62
     1
 10
226.4501390848747917
 20
89.2423697482796143
 30
0.0
  0
VERTEX
  5
3C25
  8
0
  6
CONTINUOUS
 62
     1
 10
223.955198795061591
 20
100.9801409570851973
 30
0.0
 42
0.414213562373061
  0
SEQEND
  5
3C26
  8
0
  6
CONTINUOUS
 62
     1
  0
POLYLINE
  5
B8D
  8
0
  6
CONTINUOUS
 62
     1
 66
     1
 10
0.0
 20
0.0
 30
0.0
 70
     1
  0
VERTEX
  5
3C27
  8
0
  6
CONTINUOUS
 62
     1
 10
231.3891395035099947
 20
84.100376867001259
 30
0.0
  0
VERTEX
  5
3C28
  8
0
  6
CONTINUOUS
 62
     1
 10
219.651368294704298
 20
81.6054365771881436
 30
0.0
 42
0.4142135623730523
  0
VERTEX
  5
3C29
  8
0
  6
CONTINUOUS
 62
     1
 10
218.8811323847882875
 20
80.4193772856366138
 30
0.0
  0
VERTEX
  5
3C2A
  8
0
  6
CONTINUOUS
 62
     1
 10
221.3760726746014882
 20
68.6816060768309029
 30
0.0
 42
0.4142135623731125
  0
VERTEX
  5
3C2B
  8
0
  6
CONTINUOUS
 62
     1
 10
222.562131966153089
 20
67.9113701669149066
 30
0.0
  0
VERTEX
  5
3C2C
  8
0
  6
CONTINUOUS
 62
     1
 10
234.2999031749587004
 20
70.4063104567280362
 30
0.0
 42
0.4142135623730809
  0
VERTEX
  5
3C2D
  8
0
  6
CONTINUOUS
 62
     1
 10
235.070139084874711
 20
71.5923697482796086
 30
0.0
  0
VERTEX
  5
3C2E
  8
0
  6
CONTINUOUS
 62
     1
 10
232.5751987950615955
 20
83.3301409570852485
 30
0.0
 42
0.4142135623730335
  0
SEQEND
  5
3C2F
  8
0
  6
CONTINUOUS
 62
     1
  0
POLYLINE
  5
B8E
  8
0
  6
CONTINUOUS
 62
     1
 66
     1
 10
0.0
 20
0.0
 30
0.0
 70
     1
  0
VERTEX
  5
3C30
  8
0
  6
CONTINUOUS
 62
     1
 10
226.0291395035100095
 20
63.4903768670012809
 30
0.0
  0
VERTEX
  5
3C31
  8
0
  6
CONTINUOUS
 62
     1
 10
214.2913682947043981
 20
60.9954365771881726
 30
0.0
 42
0.4142135623731073
  0
VERTEX
  5
3C32
  8
0
  6
CONTINUOUS
 62
     1
 10
213.5211323847883875
 20
59.8093772856366286
 30
0.0
  0
VERTEX
  5
3C33
  8
0
  6
CONTINUOUS
 62
     1
 10
216.016072674601304
 20
48.0716060768309106
 30
0.0
 42
0.4142135623730445
  0
VERTEX
  5
3C34
  8
0
  6
CONTINUOUS
 62
     1
 10
217.2021319661531038
 20
47.3013701669149
 30
0.0
  0
VERTEX
  5
3C35
  8
0
  6
CONTINUOUS
 62
     1
 10
228.9399031749586015
 20
49.7963104567280084
 30
0.0
 42
0.414213562373099
  0
VERTEX
  5
3C36
  8
0
  6
CONTINUOUS
 62
     1
 10
229.710139084874811
 20
50.9823697482796518
 30
0.0
  0
VERTEX
  5
3C37
  8
0
  6
CONTINUOUS
 62
     1
 10
227.2151987950616103
 20
62.7201409570852704
 30
0.0
 42
0.4142135623730693
  0
SEQEND
  5
3C38
  8
0
  6
CONTINUOUS
 62
     1
  0
POLYLINE
  5
B8F
  8
0
  6
CONTINUOUS
 62
     1
 66
     1
 10
0.0
 20
0.0
 30
0.0
 70
     1
  0
VERTEX
  5
3C39
  8
0
  6
CONTINUOUS
 62
     1
 10
209.495427709530901
 20
118.3996591569229935
 30
0.0
  0
VERTEX
  5
3C3A
  8
0
  6
CONTINUOUS
 62
     1
 10
197.7576565007254032
 20
115.904718867109807
 30
0.0
 42
0.4142135623731193
  0
VERTEX
  5
3C3B
  8
0
  6
CONTINUOUS
 62
     1
 10
196.9874205908093074
 20
114.7186595755583056
 30
0.0
  0
VERTEX
  5
3C3C
  8
0
  6
CONTINUOUS
 62
     1
 10
199.4823608806223945
 20
102.9808883667523958
 30
0.0
 42
0.4142135623730982
  0
VERTEX
  5
3C3D
  8
0
  6
CONTINUOUS
 62
     1
 10
200.6684201721739953
 20
102.2106524568365984
 30
0.0
  0
VERTEX
  5
3C3E
  8
0
  6
CONTINUOUS
 62
     1
 10
212.4061913809796067
 20
104.7055927466496996
 30
0.0
 42
0.4142135623730688
  0
VERTEX
  5
3C3F
  8
0
  6
CONTINUOUS
 62
     1
 10
213.1764272908957025
 20
105.8916520382013005
 30
0.0
  0
VERTEX
  5
3C40
  8
0
  6
CONTINUOUS
 62
     1
 10
210.6814870010825871
 20
117.6294232470067982
 30
0.0
 42
0.4142135623730605
  0
SEQEND
  5
3C41
  8
0
  6
CONTINUOUS
 62
     1
  0
POLYLINE
  5
B90
  8
0
  6
CONTINUOUS
 62
     1
 66
     1
 10
0.0
 20
0.0
 30
0.0
 70
     1
  0
VERTEX
  5
3C42
  8
0
  6
CONTINUOUS
 62
     1
 10
204.1354277095310863
 20
97.7896591569229656
 30
0.0
  0
VERTEX
  5
3C43
  8
0
  6
CONTINUOUS
 62
     1
 10
192.3976565007253043
 20
95.2947188671098928
 30
0.0
 42
0.4142135623731307
  0
VERTEX
  5
3C44
  8
0
  6
CONTINUOUS
 62
     1
 10
191.6274205908092938
 20
94.1086595755582636
 30
0.0
  0
VERTEX
  5
3C45
  8
0
  6
CONTINUOUS
 62
     1
 10
194.1223608806224092
 20
82.3708883667525811
 30
0.0
 42
0.4142135623731082
  0
VERTEX
  5
3C46
  8
0
  6
CONTINUOUS
 62
     1
 10
195.3084201721740101
 20
81.6006524568365847
 30
0.0
  0
VERTEX
  5
3C47
  8
0
  6
CONTINUOUS
 62
     1
 10
207.0461913809797068
 20
84.095592746649686
 30
0.0
 42
0.4142135623730779
  0
VERTEX
  5
3C48
  8
0
  6
CONTINUOUS
 62
     1
 10
207.8164272908956036
 20
85.2816520382012868
 30
0.0
  0
VERTEX
  5
3C49
  8
0
  6
CONTINUOUS
 62
     1
 10
205.3214870010826871
 20
97.0194232470069693
 30
0.0
 42
0.4142135623730703
  0
SEQEND
  5
3C4A
  8
0
  6
CONTINUOUS
 62
     1
  0
POLYLINE
  5
B91
  8
0
  6
CONTINUOUS
 62
     1
 66
     1
 10
0.0
 20
0.0
 30
0.0
 70
     1
  0
VERTEX
  5
3C4B
  8
0
  6
CONTINUOUS
 62
     1
 10
212.7554277095310056
 20
80.1396591569229884
 30
0.0
  0
VERTEX
  5
3C4C
  8
0
  6
CONTINUOUS
 62
     1
 10
201.0176565007253942
 20
77.6447188671098303
 30
0.0
 42
0.414213562373076
  0
VERTEX
  5
3C4D
  8
0
  6
CONTINUOUS
 62
     1
 10
200.2474205908092983
 20
76.4586595755582721
 30
0.0
  0
VERTEX
  5
3C4E
  8
0
  6
CONTINUOUS
 62
     1
 10
202.7423608806224138
 20
64.7208883667526038
 30
0.0
 42
0.4142135623730697
  0
VERTEX
  5
3C4F
  8
0
  6
CONTINUOUS
 62
     1
 10
203.9284201721740999
 20
63.950652456836572
 30
0.0
  0
VERTEX
  5
3C50
  8
0
  6
CONTINUOUS
 62
     1
 10
215.6661913809795976
 20
66.4455927466496945
 30
0.0
 42
0.4142135623730854
  0
VERTEX
  5
3C51
  8
0
  6
CONTINUOUS
 62
     1
 10
216.4364272908956934
 20
67.6316520382012811
 30
0.0
  0
VERTEX
  5
3C52
  8
0
  6
CONTINUOUS
 62
     1
 10
213.9414870010826064
 20
79.3694232470069068
 30
0.0
 42
0.4142135623730694
  0
SEQEND
  5
3C53
  8
0
  6
CONTINUOUS
 62
     1
  0
POLYLINE
  5
B92
  8
0
  6
CONTINUOUS
 62
     1
 66
     1
 10
0.0
 20
0.0
 30
0.0
 70
     1
  0
VERTEX
  5
3C54
  8
0
  6
CONTINUOUS
 62
     1
 10
207.3954277095311056
 20
59.5296591569229605
 30
0.0
  0
VERTEX
  5
3C55
  8
0
  6
CONTINUOUS
 62
     1
 10
195.65765650072521
 20
57.0347188671098522
 30
0.0
 42
0.4142135623731325
  0
VERTEX
  5
3C56
  8
0
  6
CONTINUOUS
 62
     1
 10
194.8874205908093131
 20
55.8486595755583011
 30
0.0
  0
VERTEX
  5
3C57
  8
0
  6
CONTINUOUS
 62
     1
 10
197.3823608806224001
 20
44.1108883667525902
 30
0.0
 42
0.4142135623730911
  0
VERTEX
  5
3C58
  8
0
  6
CONTINUOUS
 62
     1
 10
198.568420172174001
 20
43.3406524568365725
 30
0.0
  0
VERTEX
  5
3C59
  8
0
  6
CONTINUOUS
 62
     1
 10
210.3061913809796977
 20
45.8355927466497022
 30
0.0
 42
0.4142135623730903
  0
VERTEX
  5
3C5A
  8
0
  6
CONTINUOUS
 62
     1
 10
211.0764272908957082
 20
47.0216520382012817
 30
0.0
  0
VERTEX
  5
3C5B
  8
0
  6
CONTINUOUS
 62
     1
 10
208.5814870010827065
 20
58.7594232470069429
 30
0.0
 42
0.414213562373072
  0
SEQEND
  5
3C5C
  8
0
  6
CONTINUOUS
 62
     1
  0
POLYLINE
  5
394E
  8
0
  6
CONTINUOUS
 62
     1
 66
     1
 10
0.0
 20
0.0
 30
0.0
 70
     1
  0
VERTEX
  5
3FAA
  8
0
  6
CONTINUOUS
 62
     1
 10
210.4080343462933058
 20
27.3965946323987417
 30
0.0
  0
VERTEX
  5
3FAB
  8
0
  6
CONTINUOUS
 62
     1
 10
215.2987723499585968
 20
28.4361530864866516
 30
0.0
 42
0.4142135623731364
  0
VERTEX
  5
3FAC
  8
0
  6
CONTINUOUS
 62
     1
 10
216.0690082598744084
 20
29.6222123780390483
 30
0.0
  0
VERTEX
  5
3FAD
  8
0
  6
CONTINUOUS
 62
     1
 10
213.3661562792443931
 20
42.3381311875786821
 30
0.0
 42
0.41421356237278
  0
VERTEX
  5
3FAE
  8
0
  6
CONTINUOUS
 62
     1
 10
212.1800969876927923
 20
43.1083670974946571
 30
0.0
  0
VERTEX
  5
3FAF
  8
0
  6
CONTINUOUS
 62
     1
 10
207.2893589840278992
 20
42.0688086434066335
 30
0.0
  0
VERTEX
  5
3FB0
  8
0
  6
CONTINUOUS
 62
     1
 10
199.6931291010893119
 20
40.4541801378339585
 30
0.0
 42
0.4142135623730895
  0
VERTEX
  5
3FB1
  8
0
  6
CONTINUOUS
 62
     1
 10
198.5377752362151114
 20
38.6750912005065572
 30
0.0
  0
VERTEX
  5
3FB2
  8
0
  6
CONTINUOUS
 62
     1
 10
201.032715526028511
 20
26.9373199917006083
 30
0.0
 42
0.4142135623730919
  0
VERTEX
  5
3FB3
  8
0
  6
CONTINUOUS
 62
     1
 10
202.8118044633557986
 20
25.7819661268265214
 30
0.0
  0
SEQEND
  5
3FB4
  8
0
  6
CONTINUOUS
 62
     1
  0
POLYLINE
  5
394F
  8
0
  6
CONTINUOUS
 62
     1
 66
     1
 10
0.0
 20
0.0
 30
0.0
  0
VERTEX
  5
3FB5
  8
0
  6
CONTINUOUS
 62
     1
 10
62.9830593227895008
 20
90.9273089371147023
 30
0.0
  0
VERTEX
  5
3FB6
  8
0
  6
CONTINUOUS
 62
     1
 10
50.9830593227895008
 20
90.9273089371147023
 30
0.0
 42
0.4142135623730836
  0
VERTEX
  5
3FB7
  8
0
  6
CONTINUOUS
 62
     1
 10
49.9830593227895008
 20
89.9273089371147023
 30
0.0
  0
VERTEX
  5
3FB8
  8
0
  6
CONTINUOUS
 62
     1
 10
49.9830593227895008
 20
77.9273089371147023
 30
0.0
 42
0.4142135623730808
  0
VERTEX
  5
3FB9
  8
0
  6
CONTINUOUS
 62
     1
 10
50.9830593227895008
 20
76.9273089371147023
 30
0.0
  0
VERTEX
  5
3FBA
  8
0
  6
CONTINUOUS
 62
     1
 10
62.9830593227895008
 20
76.9273089371147023
 30
0.0
  0
SEQEND
  5
3FBB
  8
0
  6
CONTINUOUS
 62
     1
  0
POLYLINE
  5
3950
  8
0
  6
CONTINUOUS
 62
     1
 66
     1
 10
0.0
 20
0.0
 30
0.0
  0
VERTEX
  5
3FBC
  8
0
  6
CONTINUOUS
 62
     1
 10
55.7453793227895318
 20
76.9273089371145602
 30
0.0
  0
VERTEX
  5
3FBD
  8
0
  6
CONTINUOUS
 62
     1
 10
67.745379322789546
 20
76.9273089371145602
 30
0.0
 42
0.4142135623730857
  0
VERTEX
  5
3FBE
  8
0
  6
CONTINUOUS
 62
     1
 10
68.7453793227895318
 20
77.9273089371147023
 30
0.0
  0
VERTEX
  5
3FBF
  8
0
  6
CONTINUOUS
 62
     1
 10
68.7453793227895318
 20
89.9273089371145744
 30
0.0
 42
0.4142135623730888
  0
VERTEX
  5
3FC0
  8
0
  6
CONTINUOUS
 62
     1
 10
67.745379322789546
 20
90.9273089371145886
 30
0.0
  0
VERTEX
  5
3FC1
  8
0
  6
CONTINUOUS
 62
     1
 10
55.7453793227895318
 20
90.9273089371145886
 30
0.0
  0
SEQEND
  5
3FC2
  8
0
  6
CONTINUOUS
 62
     1
  0
CIRCLE
  5
3951
  8
0
  6
CONTINUOUS
 62
     1
 10
51.6692862223275213
 20
114.8836569566830974
 30
0.0
 40
1.1000000000000001
  0
CIRCLE
  5
3952
  8
0
  6
CONTINUOUS
 62
     1
 10
40.5567970214366582
 20
55.3523014829913507
 30
0.0
 40
1.1000000000000001
  0
CIRCLE
  5
3953
  8
0
  6
CONTINUOUS
 62
     1
 10
102.4694041164574969
 20
54.5585809154784727
 30
0.0
 40
1.1000000000000001
  0
CIRCLE
  5
3954
  8
0
  6
CONTINUOUS
 62
     1
 10
119.1379362217345061
 20
110.1211700788990981
 30
0.0
 40
1.1000000000000001
  0
CIRCLE
  5
3955
  8
0
  6
CONTINUOUS
 62
     1
 10
190.0492851207426099
 20
104.6272622736045008
 30
0.0
 40
1.1000000000000001
  0
CIRCLE
  5
3956
  8
0
  6
CONTINUOUS
 62
     1
 10
190.5755593227893883
 20
29.1585712432092485
 30
0.0
 40
1.1000000000000001
  0
CIRCLE
  5
3957
  8
0
  6
CONTINUOUS
 62
     1
 10
270.74428510286549
 20
54.5585712327454928
 30
0.0
 40
1.1000000000000001
  0
CIRCLE
  5
3958
  8
0
  6
CONTINUOUS
 62
     1
 10
265.1879362278751842
 20
110.914744617177206
 30
0.0
 40
1.1000000000000001
  0
CIRCLE
  5
3959
  8
0
  6
CONTINUOUS
 62
     1
 10
347.7379363578867242
 20
112.5022577231645045
 30
0.0
 40
1.1000000000000001
  0
CIRCLE
  5
395A
  8
0
  6
CONTINUOUS
 62
     1
 10
327.8943861228834749
 20
52.1773126668943803
 30
0.0
 40
1.1000000000000001
  0
ENDSEC
  0
EOF
