<svg xmlns="http://www.w3.org/2000/svg" viewBox="0 0 945.32 308.03"><title>plate</title><g id="_0" data-name="0"><g id="LWPOLYLINE"><rect x="228.96" y="527.13" width="39.69" height="46.43" rx="2.83" transform="translate(-167.08 412.91) rotate(-78)" stroke-width="0.71" stroke="red" stroke-linecap="round" stroke-linejoin="round" fill="none"/></g><g id="LWPOLYLINE-2" data-name="LWPOLYLINE"><path d="M732,312.48h.25a2.84,2.84,0,0,0,2.84-2.83v-34a2.83,2.83,0,0,0-2.84-2.83h-88a2.83,2.83,0,0,0-2.84,2.83v34a2.84,2.84,0,0,0,2.84,2.83h88" transform="translate(174.16 -266.38)" fill="none" stroke="red" stroke-linecap="round" stroke-linejoin="round" stroke-width="0.71"/></g><g id="LWPOLYLINE-3" data-name="LWPOLYLINE"><rect x="0.35" y="108.35" width="39.69" height="39.69" rx="2.83" stroke-width="0.71" stroke="red" stroke-linecap="round" stroke-linejoin="round" fill="none"/></g><g id="LWPOLYLINE-4" data-name="LWPOLYLINE"><rect x="11.89" y="54.35" width="39.69" height="39.69" rx="2.83" stroke-width="0.71" stroke="red" stroke-linecap="round" stroke-linejoin="round" fill="none"/></g><g id="LWPOLYLINE-5" data-name="LWPOLYLINE"><rect x="23.68" y="0.35" width="39.69" height="39.69" rx="2.83" stroke-width="0.71" stroke="red" stroke-linecap="round" stroke-linejoin="round" fill="none"/></g><g id="LWPOLYLINE-6" data-name="LWPOLYLINE"><rect x="756.78" y="168.42" width="39.69" height="39.69" rx="2.83" stroke-width="0.71" stroke="red" stroke-linecap="round" stroke-linejoin="round" fill="none"/></g><g id="LWPOLYLINE-7" data-name="LWPOLYLINE"><rect x="771.97" y="114.42" width="39.69" height="39.69" rx="2.83" stroke-width="0.71" stroke="red" stroke-linecap="round" stroke-linejoin="round" fill="none"/></g><g id="LWPOLYLINE-8" data-name="LWPOLYLINE"><rect x="702.78" y="168.42" width="39.69" height="39.69" rx="2.83" stroke-width="0.71" stroke="red" stroke-linecap="round" stroke-linejoin="round" fill="none"/></g><g id="LWPOLYLINE-9" data-name="LWPOLYLINE"><rect x="746.35" y="60.42" width="39.69" height="39.69" rx="2.83" stroke-width="0.71" stroke="red" stroke-linecap="round" stroke-linejoin="round" fill="none"/></g><g id="LWPOLYLINE-10" data-name="LWPOLYLINE"><rect x="717.97" y="114.42" width="39.69" height="39.69" rx="2.83" stroke-width="0.71" stroke="red" stroke-linecap="round" stroke-linejoin="round" fill="none"/></g><g id="LWPOLYLINE-11" data-name="LWPOLYLINE"><rect x="800.35" y="60.42" width="39.69" height="39.69" rx="2.83" stroke-width="0.71" stroke="red" stroke-linecap="round" stroke-linejoin="round" fill="none"/></g><g id="LWPOLYLINE-12" data-name="LWPOLYLINE"><rect x="693.54" y="57.42" width="39.69" height="39.69" rx="2.83" stroke-width="0.71" stroke="red" stroke-linecap="round" stroke-linejoin="round" fill="none"/></g><g id="LWPOLYLINE-13" data-name="LWPOLYLINE"><rect x="761.54" y="6.42" width="39.69" height="39.69" rx="2.83" stroke-width="0.71" stroke="red" stroke-linecap="round" stroke-linejoin="round" fill="none"/></g><g id="LWPOLYLINE-14" data-name="LWPOLYLINE"><rect x="708.73" y="0.35" width="39.69" height="39.69" rx="2.83" stroke-width="0.71" stroke="red" stroke-linecap="round" stroke-linejoin="round" fill="none"/></g><g id="LWPOLYLINE-15" data-name="LWPOLYLINE"><rect x="175.28" y="168.42" width="39.69" height="39.69" rx="2.83" stroke-width="0.71" stroke="red" stroke-linecap="round" stroke-linejoin="round" fill="none"/></g><g id="LWPOLYLINE-16" data-name="LWPOLYLINE"><rect x="88.94" y="6.42" width="39.69" height="39.69" rx="2.83" stroke-width="0.71" stroke="red" stroke-linecap="round" stroke-linejoin="round" fill="none"/></g><g id="LWPOLYLINE-17" data-name="LWPOLYLINE"><rect x="142.94" y="6.42" width="39.69" height="39.69" rx="2.83" stroke-width="0.71" stroke="red" stroke-linecap="round" stroke-linejoin="round" fill="none"/></g><g id="LWPOLYLINE-18" data-name="LWPOLYLINE"><rect x="195.77" y="0.35" width="39.69" height="39.69" rx="2.83" stroke-width="0.71" stroke="red" stroke-linecap="round" stroke-linejoin="round" fill="none"/></g><g id="LWPOLYLINE-19" data-name="LWPOLYLINE"><rect x="158.13" y="60.42" width="39.69" height="39.69" rx="2.83" stroke-width="0.71" stroke="red" stroke-linecap="round" stroke-linejoin="round" fill="none"/></g><g id="LWPOLYLINE-20" data-name="LWPOLYLINE"><rect x="160.11" y="114.42" width="39.69" height="39.69" rx="2.83" stroke-width="0.71" stroke="red" stroke-linecap="round" stroke-linejoin="round" fill="none"/></g><g id="LWPOLYLINE-21" data-name="LWPOLYLINE"><rect x="79.72" y="277.95" width="39.69" height="39.69" rx="2.83" transform="translate(-38.26 66.9) rotate(-78)" stroke-width="0.71" stroke="red" stroke-linecap="round" stroke-linejoin="round" fill="none"/></g><g id="LWPOLYLINE-22" data-name="LWPOLYLINE"><rect x="42.08" y="325.15" width="39.69" height="39.69" rx="2.83" transform="translate(-114.25 67.46) rotate(-78)" stroke-width="0.71" stroke="red" stroke-linecap="round" stroke-linejoin="round" fill="none"/></g><g id="LWPOLYLINE-23" data-name="LWPOLYLINE"><rect x="59.23" y="439.22" width="39.69" height="39.69" rx="2.83" transform="translate(-212.24 174.58) rotate(-78)" stroke-width="0.71" stroke="red" stroke-linecap="round" stroke-linejoin="round" fill="none"/></g><g id="LWPOLYLINE-24" data-name="LWPOLYLINE"><rect x="44.06" y="380.8" width="39.69" height="39.69" rx="2.83" transform="translate(-167.1 113.48) rotate(-78)" stroke-width="0.71" stroke="red" stroke-linecap="round" stroke-linejoin="round" fill="none"/></g><g id="LWPOLYLINE-25" data-name="LWPOLYLINE"><rect x="132.54" y="289.18" width="39.69" height="39.69" rx="2.83" transform="translate(-7.41 127.46) rotate(-78)" stroke-width="0.71" stroke="red" stroke-linecap="round" stroke-linejoin="round" fill="none"/></g><g id="LWPOLYLINE-26" data-name="LWPOLYLINE"><rect x="94.9" y="336.38" width="39.69" height="39.69" rx="2.83" transform="translate(-83.39 128.02) rotate(-78)" stroke-width="0.71" stroke="red" stroke-linecap="round" stroke-linejoin="round" fill="none"/></g><g id="LWPOLYLINE-27" data-name="LWPOLYLINE"><rect x="96.88" y="392.02" width="39.69" height="39.69" rx="2.83" transform="translate(-136.25 174.03) rotate(-78)" stroke-width="0.71" stroke="red" stroke-linecap="round" stroke-linejoin="round" fill="none"/></g><g id="LWPOLYLINE-28" data-name="LWPOLYLINE"><rect x="112.05" y="450.45" width="39.69" height="39.69" rx="2.83" transform="translate(-181.38 235.14) rotate(-78)" stroke-width="0.71" stroke="red" stroke-linecap="round" stroke-linejoin="round" fill="none"/></g><g id="LWPOLYLINE-29" data-name="LWPOLYLINE"><rect x="185.36" y="300.41" width="39.69" height="39.69" rx="2.83" transform="translate(23.45 188.01) rotate(-78)" stroke-width="0.71" stroke="red" stroke-linecap="round" stroke-linejoin="round" fill="none"/></g><g id="LWPOLYLINE-30" data-name="LWPOLYLINE"><rect x="147.72" y="347.61" width="39.69" height="39.69" rx="2.83" transform="translate(-52.53 188.58) rotate(-78)" stroke-width="0.71" stroke="red" stroke-linecap="round" stroke-linejoin="round" fill="none"/></g><g id="LWPOLYLINE-31" data-name="LWPOLYLINE"><rect x="149.7" y="403.25" width="39.69" height="39.69" rx="2.83" transform="translate(-105.39 234.59) rotate(-78)" stroke-width="0.71" stroke="red" stroke-linecap="round" stroke-linejoin="round" fill="none"/></g><g id="LWPOLYLINE-32" data-name="LWPOLYLINE"><rect x="164.87" y="461.67" width="39.69" height="39.69" rx="2.83" transform="translate(-150.52 295.7) rotate(-78)" stroke-width="0.71" stroke="red" stroke-linecap="round" stroke-linejoin="round" fill="none"/></g><g id="LWPOLYLINE-33" data-name="LWPOLYLINE"><rect x="238.18" y="311.64" width="39.69" height="39.69" rx="2.83" transform="translate(54.31 248.57) rotate(-78)" stroke-width="0.71" stroke="red" stroke-linecap="round" stroke-linejoin="round" fill="none"/></g><g id="LWPOLYLINE-34" data-name="LWPOLYLINE"><rect x="200.54" y="358.83" width="39.69" height="39.69" rx="2.83" transform="translate(-21.68 249.14) rotate(-78)" stroke-width="0.71" stroke="red" stroke-linecap="round" stroke-linejoin="round" fill="none"/></g><g id="LWPOLYLINE-35" data-name="LWPOLYLINE"><rect x="202.52" y="414.48" width="39.69" height="39.69" rx="2.83" transform="translate(-74.53 295.15) rotate(-78)" stroke-width="0.71" stroke="red" stroke-linecap="round" stroke-linejoin="round" fill="none"/></g><g id="LWPOLYLINE-36" data-name="LWPOLYLINE"><rect x="217.69" y="472.9" width="39.69" height="39.69" rx="2.83" transform="translate(-119.67 356.26) rotate(-78)" stroke-width="0.71" stroke="red" stroke-linecap="round" stroke-linejoin="round" fill="none"/></g><g id="LWPOLYLINE-37" data-name="LWPOLYLINE"><rect x="461.27" y="330.76" width="39.69" height="39.69" rx="2.83" transform="translate(111.78 -158.69) rotate(-12)" stroke-width="0.71" stroke="red" stroke-linecap="round" stroke-linejoin="round" fill="none"/></g><g id="LWPOLYLINE-38" data-name="LWPOLYLINE"><rect x="476.46" y="272.34" width="39.69" height="39.69" rx="2.83" transform="translate(124.26 -156.8) rotate(-12)" stroke-width="0.71" stroke="red" stroke-linecap="round" stroke-linejoin="round" fill="none"/></g><g id="LWPOLYLINE-39" data-name="LWPOLYLINE"><rect x="485.7" y="380.8" width="39.69" height="39.69" rx="2.83" transform="translate(101.91 -152.51) rotate(-12)" stroke-width="0.71" stroke="red" stroke-linecap="round" stroke-linejoin="round" fill="none"/></g><g id="LWPOLYLINE-40" data-name="LWPOLYLINE"><rect x="470.51" y="439.22" width="39.69" height="39.69" rx="2.83" transform="translate(89.43 -154.39) rotate(-12)" stroke-width="0.71" stroke="red" stroke-linecap="round" stroke-linejoin="round" fill="none"/></g><g id="LWPOLYLINE-41" data-name="LWPOLYLINE"><rect x="423.64" y="283.57" width="39.69" height="39.69" rx="2.83" transform="translate(120.77 -167.54) rotate(-12)" stroke-width="0.71" stroke="red" stroke-linecap="round" stroke-linejoin="round" fill="none"/></g><g id="LWPOLYLINE-42" data-name="LWPOLYLINE"><rect x="408.45" y="341.99" width="39.69" height="39.69" rx="2.83" transform="translate(108.29 -169.42) rotate(-12)" stroke-width="0.71" stroke="red" stroke-linecap="round" stroke-linejoin="round" fill="none"/></g><g id="LWPOLYLINE-43" data-name="LWPOLYLINE"><rect x="432.88" y="392.02" width="39.69" height="39.69" rx="2.83" transform="translate(98.42 -163.25) rotate(-12)" stroke-width="0.71" stroke="red" stroke-linecap="round" stroke-linejoin="round" fill="none"/></g><g id="LWPOLYLINE-44" data-name="LWPOLYLINE"><rect x="417.69" y="450.45" width="39.69" height="39.69" rx="2.83" transform="translate(85.94 -165.13) rotate(-12)" stroke-width="0.71" stroke="red" stroke-linecap="round" stroke-linejoin="round" fill="none"/></g><g id="LWPOLYLINE-45" data-name="LWPOLYLINE"><rect x="370.82" y="294.8" width="39.69" height="39.69" rx="2.83" transform="translate(117.28 -178.28) rotate(-12)" stroke-width="0.71" stroke="red" stroke-linecap="round" stroke-linejoin="round" fill="none"/></g><g id="LWPOLYLINE-46" data-name="LWPOLYLINE"><rect x="355.63" y="353.22" width="39.69" height="39.69" rx="2.83" transform="translate(104.8 -180.16) rotate(-12)" stroke-width="0.71" stroke="red" stroke-linecap="round" stroke-linejoin="round" fill="none"/></g><g id="LWPOLYLINE-47" data-name="LWPOLYLINE"><rect x="380.06" y="403.25" width="39.69" height="39.69" rx="2.83" transform="translate(94.93 -173.98) rotate(-12)" stroke-width="0.71" stroke="red" stroke-linecap="round" stroke-linejoin="round" fill="none"/></g><g id="LWPOLYLINE-48" data-name="LWPOLYLINE"><rect x="364.87" y="461.67" width="39.69" height="39.69" rx="2.83" transform="translate(82.46 -175.87) rotate(-12)" stroke-width="0.71" stroke="red" stroke-linecap="round" stroke-linejoin="round" fill="none"/></g><g id="LWPOLYLINE-49" data-name="LWPOLYLINE"><rect x="318" y="306.02" width="39.69" height="39.69" rx="2.83" transform="translate(113.79 -189.01) rotate(-12)" stroke-width="0.71" stroke="red" stroke-linecap="round" stroke-linejoin="round" fill="none"/></g><g id="LWPOLYLINE-50" data-name="LWPOLYLINE"><rect x="302.81" y="364.45" width="39.69" height="39.69" rx="2.83" transform="translate(101.31 -190.9) rotate(-12)" stroke-width="0.71" stroke="red" stroke-linecap="round" stroke-linejoin="round" fill="none"/></g><g id="LWPOLYLINE-51" data-name="LWPOLYLINE"><rect x="327.24" y="414.48" width="39.69" height="39.69" rx="2.83" transform="translate(91.45 -184.72) rotate(-12)" stroke-width="0.71" stroke="red" stroke-linecap="round" stroke-linejoin="round" fill="none"/></g><g id="LWPOLYLINE-52" data-name="LWPOLYLINE"><rect x="312.05" y="472.9" width="39.69" height="39.69" rx="2.83" transform="translate(78.97 -186.6) rotate(-12)" stroke-width="0.71" stroke="red" stroke-linecap="round" stroke-linejoin="round" fill="none"/></g><g id="LWPOLYLINE-53" data-name="LWPOLYLINE"><line x1="838.47" y1="46.11" x2="886.3" y2="46.11" fill="none" stroke="red" stroke-linecap="round" stroke-linejoin="round" stroke-width="0.71"/></g><g id="LWPOLYLINE-54" data-name="LWPOLYLINE"><rect x="905.28" y="168.42" width="39.69" height="39.69" rx="2.83" stroke-width="0.71" stroke="red" stroke-linecap="round" stroke-linejoin="round" fill="none"/></g></g><g id="PLATE"><g id="LINE"><line x1="933.12" y1="134.26" x2="933.12" y2="154.11" fill="none" stroke="red" stroke-linecap="round" stroke-linejoin="round" stroke-width="0.71"/></g><g id="LWPOLYLINE-55" data-name="LWPOLYLINE"><rect x="825.97" y="114.42" width="107.15" height="39.69" rx="2.83" stroke-width="0.71" stroke="red" stroke-linecap="round" stroke-linejoin="round" fill="none"/></g><g id="LINE-2" data-name="LINE"><line x1="921.08" y1="80.26" x2="921.08" y2="100.11" fill="none" stroke="red" stroke-linecap="round" stroke-linejoin="round" stroke-width="0.71"/></g><g id="LWPOLYLINE-56" data-name="LWPOLYLINE"><path d="M683,319.64h61.06a2.83,2.83,0,0,1,2.83,2.83v44H683a2.83,2.83,0,0,1-2.83-2.83V322.47A2.83,2.83,0,0,1,683,319.64Z" transform="translate(174.16 -266.38)" fill="none" stroke="red" stroke-linecap="round" stroke-linejoin="round" stroke-width="0.71"/></g><g id="LINE-3" data-name="LINE"><line x1="897.72" y1="205.27" x2="897.72" y2="208.11" fill="none" stroke="red" stroke-linecap="round" stroke-linejoin="round" stroke-width="0.71"/></g><g id="LWPOLYLINE-57" data-name="LWPOLYLINE"><rect x="810.78" y="168.42" width="86.94" height="39.69" rx="2.83" stroke-width="0.71" stroke="red" stroke-linecap="round" stroke-linejoin="round" fill="none"/></g><g id="LWPOLYLINE-58" data-name="LWPOLYLINE"><rect x="77.14" y="60.42" width="66.67" height="39.68" rx="2.83" stroke-width="0.71" stroke="red" stroke-linecap="round" stroke-linejoin="round" fill="none"/></g><g id="LWPOLYLINE-59" data-name="LWPOLYLINE"><rect x="867.86" y="222.56" width="66.67" height="39.68" rx="2.83" stroke-width="0.71" stroke="red" stroke-linecap="round" stroke-linejoin="round" fill="none"/></g><g id="LWPOLYLINE-60" data-name="LWPOLYLINE"><path d="M-108.55,394.57v23.08a2.83,2.83,0,0,0,2.83,2.83H-31.2a2.84,2.84,0,0,0,2.84-2.83v-34a2.83,2.83,0,0,0-2.84-2.83h-74.52a2.83,2.83,0,0,0-2.83,2.83v10.94" transform="translate(174.16 -266.38)" fill="none" stroke="red" stroke-linecap="round" stroke-linejoin="round" stroke-width="0.71"/></g><g id="LWPOLYLINE-61" data-name="LWPOLYLINE"><rect x="54.04" y="168.42" width="106.93" height="39.68" rx="2.83" stroke-width="0.71" stroke="red" stroke-linecap="round" stroke-linejoin="round" fill="none"/></g><g id="LWPOLYLINE-62" data-name="LWPOLYLINE"><rect x="146.31" y="479.33" width="39.68" height="106.93" rx="2.83" transform="translate(-215.38 318.16) rotate(-78)" stroke-width="0.71" stroke="red" stroke-linecap="round" stroke-linejoin="round" fill="none"/></g><g id="LWPOLYLINE-63" data-name="LWPOLYLINE"><rect x="53.82" y="222.42" width="66.67" height="39.68" rx="2.83" stroke-width="0.71" stroke="red" stroke-linecap="round" stroke-linejoin="round" fill="none"/></g><g id="LWPOLYLINE-64" data-name="LWPOLYLINE"><rect x="45.59" y="482.39" width="39.68" height="66.67" rx="2.83" transform="translate(-278.46 206.13) rotate(-78)" stroke-width="0.71" stroke="red" stroke-linecap="round" stroke-linejoin="round" fill="none"/></g><g id="LWPOLYLINE-65" data-name="LWPOLYLINE"><rect x="470.65" y="495.88" width="66.67" height="39.68" rx="2.83" transform="translate(77.95 -150.32) rotate(-12)" stroke-width="0.71" stroke="red" stroke-linecap="round" stroke-linejoin="round" fill="none"/></g><g id="LWPOLYLINE-66" data-name="LWPOLYLINE"><path d="M456.93,541.68a2.85,2.85,0,0,0,2.19-3.37l-3.54-16.63L452,505a2.83,2.83,0,0,0-3.36-2.18L322,529.8a2.83,2.83,0,0,0-2.19,3.36l3.54,16.63,3.53,16.64a2.84,2.84,0,0,0,3.37,2.18l46.72-9.93,33.27-7.07Z" transform="translate(174.16 -266.38)" fill="none" stroke="red" stroke-linecap="round" stroke-linejoin="round" stroke-width="0.71"/></g></g></svg>