%TF.GenerationSoftware,KiCad,Pcbnew,(5.1.10-1-10_14)*%
%TF.CreationDate,2021-06-03T00:35:35+07:00*%
%TF.ProjectId,geulis,6765756c-6973-42e6-9b69-6361645f7063,rev?*%
%TF.SameCoordinates,Original*%
%TF.FileFunction,Legend,Top*%
%TF.FilePolarity,Positive*%
%FSLAX46Y46*%
G04 Gerber Fmt 4.6, Leading zero omitted, Abs format (unit mm)*
G04 Created by KiCad (PCBNEW (5.1.10-1-10_14)) date 2021-06-03 00:35:35*
%MOMM*%
%LPD*%
G01*
G04 APERTURE LIST*
%ADD10C,0.120000*%
%ADD11C,0.010000*%
G04 APERTURE END LIST*
D10*
%TO.C,SW58_2*%
X33596495Y81487394D02*
X34596495Y81487394D01*
X34096495Y80987394D02*
X34096495Y81987394D01*
%TO.C,SW_57_2*%
X37666497Y100537396D02*
X38666497Y100537396D01*
X38166497Y100037396D02*
X38166497Y101037396D01*
%TO.C,SW29_2*%
X41826489Y119587408D02*
X42826489Y119587408D01*
X42326489Y119087408D02*
X42326489Y120087408D01*
D11*
%TO.C,G\u002A\u002A\u002A*%
G36*
X78943363Y47793396D02*
G01*
X79159580Y47532681D01*
X79414092Y47047399D01*
X79415730Y46588053D01*
X79179386Y45928471D01*
X78864435Y45314776D01*
X78581329Y44985257D01*
X78525406Y44967369D01*
X78199772Y45190459D01*
X78085529Y45741896D01*
X78218511Y46444932D01*
X78223290Y46457622D01*
X78430413Y47245696D01*
X78310712Y47624242D01*
X77884081Y47590833D01*
X77170416Y47143039D01*
X76592987Y46656659D01*
X75469642Y45411221D01*
X74761735Y44111950D01*
X74514842Y42847978D01*
X74524454Y42611329D01*
X74728410Y41833316D01*
X75155511Y41535088D01*
X75782855Y41721667D01*
X76391398Y42202147D01*
X77187819Y42962105D01*
X76185336Y43095790D01*
X75382251Y43272839D01*
X75150271Y43450719D01*
X80489498Y43450719D01*
X80680391Y43347157D01*
X81045852Y43515841D01*
X81460954Y43930251D01*
X81548508Y44054777D01*
X81822183Y44579420D01*
X81856902Y44890761D01*
X81853088Y44894983D01*
X81554733Y44870226D01*
X81115132Y44532398D01*
X80691565Y44012077D01*
X80598101Y43853042D01*
X80489498Y43450719D01*
X75150271Y43450719D01*
X75091291Y43495944D01*
X75296205Y43728929D01*
X75980742Y43935619D01*
X76605409Y44030863D01*
X77742286Y44104081D01*
X78435661Y44000740D01*
X78617642Y43897231D01*
X78936487Y43763637D01*
X79301854Y43969549D01*
X79709098Y44410947D01*
X80497620Y45229813D01*
X81149881Y45602201D01*
X81757788Y45565247D01*
X82110561Y45381260D01*
X82652351Y44791486D01*
X82679080Y44090325D01*
X82191190Y43308520D01*
X82079177Y43191713D01*
X81442475Y42713654D01*
X80831275Y42654494D01*
X80742334Y42674223D01*
X80257209Y42720268D01*
X80096966Y42424350D01*
X80087368Y42180873D01*
X80182217Y41614857D01*
X80346885Y41362748D01*
X80848103Y41339229D01*
X81497783Y41684644D01*
X82175202Y42305886D01*
X82759634Y43109848D01*
X82865274Y43305015D01*
X83349583Y44181996D01*
X83847406Y44964642D01*
X84049957Y45237289D01*
X84486696Y45644214D01*
X84735915Y45620303D01*
X84788282Y45238891D01*
X84634467Y44573315D01*
X84265140Y43696912D01*
X84249798Y43666481D01*
X83747880Y42545696D01*
X83546503Y41813680D01*
X83615806Y41495916D01*
X83925925Y41617885D01*
X84447000Y42205067D01*
X84996939Y43028948D01*
X85734756Y44222023D01*
X86252591Y45012070D01*
X86601323Y45457125D01*
X86831828Y45615221D01*
X86994986Y45544393D01*
X87084859Y45410570D01*
X87124389Y44935693D01*
X86864008Y44132225D01*
X86495028Y43344969D01*
X86014313Y42293542D01*
X85850234Y41668527D01*
X86002554Y41465598D01*
X86401263Y41634720D01*
X86661911Y41847909D01*
X86935221Y42201311D01*
X87271877Y42782362D01*
X87722562Y43678498D01*
X88231097Y44751560D01*
X89449357Y44751560D01*
X89565279Y44767684D01*
X89871959Y45194659D01*
X90321819Y45964650D01*
X90397702Y46103684D01*
X90640025Y46609300D01*
X90687405Y46837827D01*
X90681696Y46838948D01*
X90486101Y46631542D01*
X90156578Y46132428D01*
X89802140Y45526262D01*
X89531805Y44997697D01*
X89449357Y44751560D01*
X88231097Y44751560D01*
X88334578Y44969914D01*
X88973206Y46167950D01*
X89623143Y47101309D01*
X90232986Y47731436D01*
X90751332Y48019779D01*
X91126775Y47927784D01*
X91307913Y47416898D01*
X91316842Y47206644D01*
X91219501Y46500229D01*
X90883972Y45770414D01*
X90244999Y44903362D01*
X89541598Y44109876D01*
X88866099Y43255166D01*
X88459495Y42481147D01*
X88347954Y41878104D01*
X88557644Y41536325D01*
X88782730Y41491579D01*
X89188206Y41739692D01*
X89779082Y42478177D01*
X90548955Y43698249D01*
X91103880Y44675481D01*
X91479698Y45227127D01*
X91804458Y45496778D01*
X91839143Y45502105D01*
X92087667Y45288960D01*
X92063348Y44700981D01*
X91779039Y43815353D01*
X91432550Y43060316D01*
X91086585Y42298784D01*
X90905802Y41738363D01*
X90910637Y41541293D01*
X91253730Y41505631D01*
X91671688Y41802965D01*
X91736271Y41899051D01*
X93235346Y41899051D01*
X93366666Y41669825D01*
X93720525Y41497014D01*
X93927897Y41835140D01*
X93990526Y42612155D01*
X93974990Y43290785D01*
X93895377Y43510746D01*
X93702180Y43347904D01*
X93597977Y43213734D01*
X93253167Y42521603D01*
X93235346Y41899051D01*
X91736271Y41899051D01*
X91998340Y42288954D01*
X92074757Y42552471D01*
X92335147Y43082012D01*
X92646581Y43283831D01*
X93036095Y43577029D01*
X93523453Y44196499D01*
X93843774Y44723403D01*
X94371915Y45601417D01*
X94749685Y45994513D01*
X94991204Y45892744D01*
X95110593Y45286165D01*
X95121971Y44164831D01*
X95110716Y43831053D01*
X95023783Y41625263D01*
X95700697Y42427369D01*
X96137977Y42897648D01*
X96342658Y42962205D01*
X96387227Y42749426D01*
X96159677Y42059980D01*
X95551088Y41455821D01*
X94714190Y41054397D01*
X94056153Y40956842D01*
X93321594Y41021305D01*
X92817011Y41180499D01*
X92762839Y41222003D01*
X92277912Y41332426D01*
X91633090Y41160819D01*
X90842462Y40975017D01*
X90318073Y41118597D01*
X89703544Y41265380D01*
X89116031Y41119018D01*
X88382914Y40975087D01*
X87803844Y41185399D01*
X87258063Y41388798D01*
X86953951Y41246162D01*
X86402076Y41002015D01*
X85666630Y40989092D01*
X85043937Y41202726D01*
X84953474Y41277684D01*
X84589641Y41460859D01*
X84311789Y41277684D01*
X83800303Y41019716D01*
X83169166Y40974984D01*
X82688044Y41151929D01*
X82626921Y41224934D01*
X82271825Y41347581D01*
X81960298Y41224934D01*
X81045184Y40979486D01*
X80031420Y41050883D01*
X79535054Y41233618D01*
X79126764Y41703674D01*
X79017895Y42436776D01*
X78889822Y43135530D01*
X78579842Y43372815D01*
X78199317Y43134309D01*
X77914507Y42578695D01*
X77503156Y41862099D01*
X77002033Y41375537D01*
X76181902Y41050632D01*
X75248405Y40977407D01*
X74427987Y41155782D01*
X74091078Y41376591D01*
X73542272Y42281861D01*
X73443392Y43404354D01*
X73789193Y44680653D01*
X74464716Y45891654D01*
X75364450Y46950686D01*
X76349656Y47700952D01*
X77332860Y48111876D01*
X78226587Y48152882D01*
X78943363Y47793396D01*
G37*
X78943363Y47793396D02*
X79159580Y47532681D01*
X79414092Y47047399D01*
X79415730Y46588053D01*
X79179386Y45928471D01*
X78864435Y45314776D01*
X78581329Y44985257D01*
X78525406Y44967369D01*
X78199772Y45190459D01*
X78085529Y45741896D01*
X78218511Y46444932D01*
X78223290Y46457622D01*
X78430413Y47245696D01*
X78310712Y47624242D01*
X77884081Y47590833D01*
X77170416Y47143039D01*
X76592987Y46656659D01*
X75469642Y45411221D01*
X74761735Y44111950D01*
X74514842Y42847978D01*
X74524454Y42611329D01*
X74728410Y41833316D01*
X75155511Y41535088D01*
X75782855Y41721667D01*
X76391398Y42202147D01*
X77187819Y42962105D01*
X76185336Y43095790D01*
X75382251Y43272839D01*
X75150271Y43450719D01*
X80489498Y43450719D01*
X80680391Y43347157D01*
X81045852Y43515841D01*
X81460954Y43930251D01*
X81548508Y44054777D01*
X81822183Y44579420D01*
X81856902Y44890761D01*
X81853088Y44894983D01*
X81554733Y44870226D01*
X81115132Y44532398D01*
X80691565Y44012077D01*
X80598101Y43853042D01*
X80489498Y43450719D01*
X75150271Y43450719D01*
X75091291Y43495944D01*
X75296205Y43728929D01*
X75980742Y43935619D01*
X76605409Y44030863D01*
X77742286Y44104081D01*
X78435661Y44000740D01*
X78617642Y43897231D01*
X78936487Y43763637D01*
X79301854Y43969549D01*
X79709098Y44410947D01*
X80497620Y45229813D01*
X81149881Y45602201D01*
X81757788Y45565247D01*
X82110561Y45381260D01*
X82652351Y44791486D01*
X82679080Y44090325D01*
X82191190Y43308520D01*
X82079177Y43191713D01*
X81442475Y42713654D01*
X80831275Y42654494D01*
X80742334Y42674223D01*
X80257209Y42720268D01*
X80096966Y42424350D01*
X80087368Y42180873D01*
X80182217Y41614857D01*
X80346885Y41362748D01*
X80848103Y41339229D01*
X81497783Y41684644D01*
X82175202Y42305886D01*
X82759634Y43109848D01*
X82865274Y43305015D01*
X83349583Y44181996D01*
X83847406Y44964642D01*
X84049957Y45237289D01*
X84486696Y45644214D01*
X84735915Y45620303D01*
X84788282Y45238891D01*
X84634467Y44573315D01*
X84265140Y43696912D01*
X84249798Y43666481D01*
X83747880Y42545696D01*
X83546503Y41813680D01*
X83615806Y41495916D01*
X83925925Y41617885D01*
X84447000Y42205067D01*
X84996939Y43028948D01*
X85734756Y44222023D01*
X86252591Y45012070D01*
X86601323Y45457125D01*
X86831828Y45615221D01*
X86994986Y45544393D01*
X87084859Y45410570D01*
X87124389Y44935693D01*
X86864008Y44132225D01*
X86495028Y43344969D01*
X86014313Y42293542D01*
X85850234Y41668527D01*
X86002554Y41465598D01*
X86401263Y41634720D01*
X86661911Y41847909D01*
X86935221Y42201311D01*
X87271877Y42782362D01*
X87722562Y43678498D01*
X88231097Y44751560D01*
X89449357Y44751560D01*
X89565279Y44767684D01*
X89871959Y45194659D01*
X90321819Y45964650D01*
X90397702Y46103684D01*
X90640025Y46609300D01*
X90687405Y46837827D01*
X90681696Y46838948D01*
X90486101Y46631542D01*
X90156578Y46132428D01*
X89802140Y45526262D01*
X89531805Y44997697D01*
X89449357Y44751560D01*
X88231097Y44751560D01*
X88334578Y44969914D01*
X88973206Y46167950D01*
X89623143Y47101309D01*
X90232986Y47731436D01*
X90751332Y48019779D01*
X91126775Y47927784D01*
X91307913Y47416898D01*
X91316842Y47206644D01*
X91219501Y46500229D01*
X90883972Y45770414D01*
X90244999Y44903362D01*
X89541598Y44109876D01*
X88866099Y43255166D01*
X88459495Y42481147D01*
X88347954Y41878104D01*
X88557644Y41536325D01*
X88782730Y41491579D01*
X89188206Y41739692D01*
X89779082Y42478177D01*
X90548955Y43698249D01*
X91103880Y44675481D01*
X91479698Y45227127D01*
X91804458Y45496778D01*
X91839143Y45502105D01*
X92087667Y45288960D01*
X92063348Y44700981D01*
X91779039Y43815353D01*
X91432550Y43060316D01*
X91086585Y42298784D01*
X90905802Y41738363D01*
X90910637Y41541293D01*
X91253730Y41505631D01*
X91671688Y41802965D01*
X91736271Y41899051D01*
X93235346Y41899051D01*
X93366666Y41669825D01*
X93720525Y41497014D01*
X93927897Y41835140D01*
X93990526Y42612155D01*
X93974990Y43290785D01*
X93895377Y43510746D01*
X93702180Y43347904D01*
X93597977Y43213734D01*
X93253167Y42521603D01*
X93235346Y41899051D01*
X91736271Y41899051D01*
X91998340Y42288954D01*
X92074757Y42552471D01*
X92335147Y43082012D01*
X92646581Y43283831D01*
X93036095Y43577029D01*
X93523453Y44196499D01*
X93843774Y44723403D01*
X94371915Y45601417D01*
X94749685Y45994513D01*
X94991204Y45892744D01*
X95110593Y45286165D01*
X95121971Y44164831D01*
X95110716Y43831053D01*
X95023783Y41625263D01*
X95700697Y42427369D01*
X96137977Y42897648D01*
X96342658Y42962205D01*
X96387227Y42749426D01*
X96159677Y42059980D01*
X95551088Y41455821D01*
X94714190Y41054397D01*
X94056153Y40956842D01*
X93321594Y41021305D01*
X92817011Y41180499D01*
X92762839Y41222003D01*
X92277912Y41332426D01*
X91633090Y41160819D01*
X90842462Y40975017D01*
X90318073Y41118597D01*
X89703544Y41265380D01*
X89116031Y41119018D01*
X88382914Y40975087D01*
X87803844Y41185399D01*
X87258063Y41388798D01*
X86953951Y41246162D01*
X86402076Y41002015D01*
X85666630Y40989092D01*
X85043937Y41202726D01*
X84953474Y41277684D01*
X84589641Y41460859D01*
X84311789Y41277684D01*
X83800303Y41019716D01*
X83169166Y40974984D01*
X82688044Y41151929D01*
X82626921Y41224934D01*
X82271825Y41347581D01*
X81960298Y41224934D01*
X81045184Y40979486D01*
X80031420Y41050883D01*
X79535054Y41233618D01*
X79126764Y41703674D01*
X79017895Y42436776D01*
X78889822Y43135530D01*
X78579842Y43372815D01*
X78199317Y43134309D01*
X77914507Y42578695D01*
X77503156Y41862099D01*
X77002033Y41375537D01*
X76181902Y41050632D01*
X75248405Y40977407D01*
X74427987Y41155782D01*
X74091078Y41376591D01*
X73542272Y42281861D01*
X73443392Y43404354D01*
X73789193Y44680653D01*
X74464716Y45891654D01*
X75364450Y46950686D01*
X76349656Y47700952D01*
X77332860Y48111876D01*
X78226587Y48152882D01*
X78943363Y47793396D01*
G36*
X92629245Y46720365D02*
G01*
X92630388Y46719661D01*
X92885771Y46342838D01*
X92885490Y45864095D01*
X92654120Y45535323D01*
X92511609Y45502105D01*
X92069916Y45719152D01*
X91941370Y45921130D01*
X91943234Y46407385D01*
X92226481Y46736328D01*
X92629245Y46720365D01*
G37*
X92629245Y46720365D02*
X92630388Y46719661D01*
X92885771Y46342838D01*
X92885490Y45864095D01*
X92654120Y45535323D01*
X92511609Y45502105D01*
X92069916Y45719152D01*
X91941370Y45921130D01*
X91943234Y46407385D01*
X92226481Y46736328D01*
X92629245Y46720365D01*
D10*
%TO.C,J1*%
X198171496Y134267402D02*
X198171496Y136167402D01*
X198171496Y130367402D02*
X198171496Y132367402D01*
X188771496Y134267402D02*
X188771496Y136167402D01*
X188771496Y130367402D02*
X188771496Y132367402D01*
X198171496Y136167402D02*
X188771496Y136167402D01*
%TO.C,D129*%
X27641761Y34667543D02*
X25181761Y34667543D01*
X25181761Y34667543D02*
X25181761Y33197543D01*
X25181761Y33197543D02*
X27641761Y33197543D01*
%TO.C,D54*%
X27651495Y43657403D02*
X25191495Y43657403D01*
X25191495Y43657403D02*
X25191495Y42187403D01*
X25191495Y42187403D02*
X27651495Y42187403D01*
%TO.C,D53*%
X27651495Y39257402D02*
X25191495Y39257402D01*
X25191495Y39257402D02*
X25191495Y37787402D01*
X25191495Y37787402D02*
X27651495Y37787402D01*
%TO.C,D128*%
X27854703Y41884516D02*
G75*
G02*
X25772612Y41884353I-1041130J1079837D01*
G01*
X27854703Y44044190D02*
G75*
G03*
X25772612Y44044353I-1041130J-1079837D01*
G01*
X28485908Y41885745D02*
G75*
G02*
X25253573Y41728837I-1672335J1078608D01*
G01*
X28485908Y44042961D02*
G75*
G03*
X25253573Y44199869I-1672335J-1078608D01*
G01*
X25253573Y44200353D02*
X25253573Y44044353D01*
X25253573Y41884353D02*
X25253573Y41728353D01*
%TO.C,D127*%
X27854703Y32884512D02*
G75*
G02*
X25772612Y32884349I-1041130J1079837D01*
G01*
X27854703Y35044186D02*
G75*
G03*
X25772612Y35044349I-1041130J-1079837D01*
G01*
X28485908Y32885741D02*
G75*
G02*
X25253573Y32728833I-1672335J1078608D01*
G01*
X28485908Y35042957D02*
G75*
G03*
X25253573Y35199865I-1672335J-1078608D01*
G01*
X25253573Y35200349D02*
X25253573Y35044349D01*
X25253573Y32884349D02*
X25253573Y32728349D01*
%TO.C,D126*%
X27854699Y37384509D02*
G75*
G02*
X25772608Y37384346I-1041130J1079837D01*
G01*
X27854699Y39544183D02*
G75*
G03*
X25772608Y39544346I-1041130J-1079837D01*
G01*
X28485904Y37385738D02*
G75*
G02*
X25253569Y37228830I-1672335J1078608D01*
G01*
X28485904Y39542954D02*
G75*
G03*
X25253569Y39699862I-1672335J-1078608D01*
G01*
X25253569Y39700346D02*
X25253569Y39544346D01*
X25253569Y37384346D02*
X25253569Y37228346D01*
%TD*%
M02*
