M48
; DRILL file {KiCad (5.1.10-1-10_14)} date Thursday, June 03, 2021 at 12:35:30 AM
; FORMAT={-:-/ absolute / metric / decimal}
; #@! TF.CreationDate,2021-06-03T00:35:30+07:00
; #@! TF.GenerationSoftware,Kicad,Pcbnew,(5.1.10-1-10_14)
FMAT,2
METRIC
T1C0.400
T2C0.600
T3C0.800
T4C0.813
T5C0.850
T6C0.900
T7C1.000
T8C1.500
T9C2.200
T10C0.650
T11C0.900
T12C1.750
T13C3.000
T14C3.048
T15C3.988
%
G90
G05
T1
X29.376Y36.218
X29.991Y70.597
X30.017Y115.772
X34.242Y43.044
X34.617Y36.922
X34.742Y42.178
X35.742Y62.367
X36.9Y104.7
X37.281Y63.272
X38.8Y116.5
X45.1Y118.5
X46.6Y87.6
X46.9Y99.8
X51.741Y125.351
X57.45Y98.454
X57.65Y84.154
X61.1Y43.0
X64.6Y103.3
X65.364Y82.349
X68.0Y81.4
X73.217Y114.722
X73.867Y89.399
X73.867Y95.422
X76.0Y102.7
X78.317Y126.272
X78.4Y81.2
X80.717Y63.222
X87.0Y88.1
X90.2Y74.8
X92.4Y119.6
X93.4Y81.2
X101.1Y73.4
X110.936Y116.623
X111.75Y82.754
X112.45Y43.854
X112.95Y95.754
X113.35Y73.39
X113.95Y55.454
X117.0Y62.7
X117.867Y126.172
X119.7Y77.1
X122.55Y88.554
X122.95Y126.354
X123.3Y83.6
X125.442Y127.747
X127.8Y38.5
X129.6Y81.2
X132.1Y114.2
X137.643Y52.604
X138.04Y71.706
X138.2Y93.2
X139.654Y88.677
X139.8Y79.0
X140.534Y92.579
X142.1Y114.9
X144.2Y53.4
X145.125Y89.249
X148.221Y108.545
X149.4Y67.4
X151.46Y59.168
X153.3Y33.9
X153.367Y58.763
X156.768Y70.837
X157.202Y48.269
X157.296Y62.335
X157.297Y30.758
X157.797Y63.201
X158.436Y74.533
X160.143Y59.778
X163.6Y65.1
X163.9Y55.1
X164.278Y82.701
X164.8Y73.7
X165.791Y96.451
X167.429Y120.909
X167.9Y75.6
X168.375Y53.375
X169.708Y56.34
X169.96Y36.783
X170.053Y33.134
X173.994Y73.559
X174.593Y78.543
X174.867Y121.622
X175.628Y97.201
X175.885Y37.986
X176.021Y38.976
X176.099Y65.503
X176.663Y86.447
X176.734Y35.789
X176.853Y72.582
X176.995Y66.235
X177.044Y71.315
X177.165Y69.96
X177.165Y74.049
X177.268Y97.164
X178.367Y73.691
X178.639Y84.231
X179.624Y77.678
X179.7Y108.9
X180.217Y34.47
X180.217Y118.669
X181.132Y87.554
X181.266Y77.397
X181.673Y119.02
X182.382Y62.451
X182.489Y72.422
X182.489Y71.322
X182.489Y70.222
X182.489Y69.122
X182.489Y68.022
X182.489Y66.922
X182.489Y65.822
X182.489Y64.722
X182.489Y63.622
X182.817Y89.988
X183.021Y74.691
X183.151Y88.422
X183.444Y77.515
X183.501Y83.254
X183.837Y49.063
X184.39Y78.668
X184.4Y42.4
X185.075Y93.364
X185.3Y114.1
X185.669Y81.162
X186.101Y83.086
X186.357Y28.651
X186.363Y85.647
X186.951Y88.322
X188.334Y78.978
X188.4Y24.5
X188.532Y16.258
X190.063Y77.847
X190.178Y91.854
X190.563Y122.147
X190.607Y87.191
X190.766Y119.471
X190.989Y72.422
X190.989Y71.322
X190.989Y70.222
X190.989Y69.122
X190.989Y68.022
X190.989Y66.922
X190.989Y65.822
X190.989Y64.722
X190.989Y63.622
X191.032Y117.931
X191.163Y77.847
X191.19Y53.407
X191.614Y124.498
X191.72Y54.255
X191.8Y114.4
X192.228Y77.813
X192.267Y117.922
X193.163Y126.047
X193.163Y125.047
X193.567Y117.922
X193.6Y132.5
X194.063Y124.447
X194.8Y40.95
X194.963Y74.647
X195.083Y129.938
X195.238Y38.91
X195.884Y71.74
X196.72Y35.505
X197.1Y103.391
X197.259Y69.119
X197.36Y93.336
X197.61Y68.036
X197.738Y79.853
X198.202Y78.794
X198.257Y36.811
X198.986Y126.667
X199.767Y125.722
X200.079Y37.379
X200.238Y104.744
X200.415Y83.268
X200.487Y69.805
X201.064Y26.853
X201.35Y66.691
X201.8Y88.1
X201.963Y17.332
X202.087Y52.86
X202.4Y40.5
X203.421Y33.962
X204.113Y81.482
X206.424Y76.266
X208.558Y45.785
X209.6Y92.2
X211.855Y26.723
X212.2Y83.6
X212.339Y25.008
X213.3Y53.7
X214.069Y77.815
X214.1Y29.3
X215.06Y113.722
X217.8Y38.4
X218.781Y85.306
X219.0Y73.9
X227.5Y76.2
X228.5Y40.9
X229.6Y90.7
X230.4Y106.8
X232.7Y54.4
X234.25Y110.641
X234.7Y58.9
X237.3Y72.641
X237.863Y69.992
X239.387Y72.484
X239.699Y63.049
X241.037Y57.637
X242.602Y92.116
X243.0Y96.1
X243.435Y80.025
X247.4Y99.6
X247.9Y110.4
X248.3Y28.8
X249.5Y126.796
X255.554Y82.79
X256.55Y66.017
X259.0Y77.0
X262.691Y127.147
X265.4Y82.7
X267.1Y98.2
X269.3Y61.1
X271.3Y118.441
X271.47Y109.495
X272.255Y111.094
X275.6Y46.0
X276.908Y95.216
X277.136Y81.156
X279.029Y85.236
X281.809Y39.209
X281.82Y41.563
X281.9Y101.9
X284.879Y58.675
X285.5Y62.6
X287.3Y103.3
X291.2Y65.6
X296.0Y80.0
X306.2Y99.1
X308.317Y126.622
X311.7Y60.3
X312.622Y122.727
X315.0Y79.7
X317.1Y115.3
X317.391Y127.547
X318.057Y41.232
X318.642Y81.391
X319.184Y65.415
X319.784Y39.015
X322.284Y111.315
X322.967Y127.572
X323.784Y101.315
X331.1Y58.0
X337.7Y56.3
X345.167Y49.522
X347.567Y111.222
X353.717Y77.972
X355.617Y48.272
X357.8Y112.3
X360.8Y106.6
T3
X186.748Y35.659
X186.748Y38.759
X188.748Y35.659
X188.748Y32.509
X188.748Y38.759
X190.748Y35.659
X190.748Y32.509
X190.748Y38.759
X192.748Y35.659
X192.748Y32.509
X192.748Y38.759
T4
X288.373Y45.684
X288.373Y43.144
X288.373Y40.604
X288.373Y38.064
T5
X175.861Y125.412
X175.871Y123.032
X178.401Y125.412
X178.411Y123.032
X180.941Y125.412
X180.951Y123.032
X183.481Y125.412
X183.491Y123.032
T6
X25.544Y38.464
X25.544Y42.964
X25.544Y33.964
X28.084Y38.464
X28.084Y42.964
X28.084Y33.964
T7
X31.596Y88.487
X31.596Y73.987
X34.096Y73.987
X35.666Y107.537
X35.666Y93.037
X36.596Y88.487
X36.596Y73.987
X38.166Y93.037
X39.826Y126.587
X39.826Y112.087
X40.666Y107.537
X40.666Y93.037
X42.326Y112.087
X44.826Y126.587
X44.826Y112.087
X185.871Y53.091
X188.317Y52.572
X198.003Y118.747
X200.543Y118.747
X203.083Y118.747
X205.623Y118.747
X208.163Y118.747
T9
X43.07Y50.772
X54.183Y110.304
X104.983Y49.979
X121.651Y105.541
X192.563Y100.047
X193.089Y24.579
X267.701Y106.335
X273.258Y49.979
X330.408Y47.597
X350.251Y107.922
T10
X190.581Y129.667
X190.581Y129.667
X196.361Y129.667
X196.361Y129.667
T11
X203.053Y31.938
X205.987Y32.561
T12
X29.016Y81.487
X33.086Y100.537
X37.246Y119.587
X39.176Y81.487
X43.246Y100.537
X47.406Y119.587
X52.636Y41.247
X54.42Y79.347
X59.183Y79.347
X59.77Y60.297
X60.266Y117.447
X60.864Y98.397
X62.796Y41.247
X64.58Y79.347
X69.343Y79.347
X69.93Y60.297
X70.426Y117.447
X71.024Y98.397
X79.316Y117.447
X84.676Y98.397
X85.376Y79.347
X89.476Y117.447
X90.726Y60.297
X94.836Y98.397
X95.536Y79.347
X97.956Y119.587
X100.886Y60.297
X105.288Y100.034
X105.988Y80.404
X106.528Y39.804
X108.116Y119.587
X111.337Y59.794
X115.225Y97.921
X115.925Y78.291
X116.465Y37.691
X118.568Y116.684
X121.275Y57.681
X123.921Y96.073
X124.621Y76.443
X128.505Y114.571
X129.971Y55.833
X133.859Y93.96
X134.559Y74.33
X137.201Y112.723
X139.766Y34.275
X139.909Y53.72
X142.058Y33.784
X142.555Y92.112
X143.255Y72.482
X147.139Y110.61
X148.605Y51.872
X149.704Y32.163
X151.995Y31.671
X152.493Y90.0
X153.193Y70.37
X155.835Y108.762
X158.543Y49.76
X161.189Y88.151
X161.889Y68.521
X165.773Y106.65
X167.239Y47.911
X170.063Y27.836
X171.127Y86.039
X171.827Y66.409
X172.378Y27.344
X174.469Y104.801
X177.177Y45.799
X180.001Y25.723
X182.315Y25.231
X184.407Y102.689
X197.266Y84.059
X200.526Y45.799
X202.626Y104.669
X205.886Y66.409
X207.204Y86.171
X210.464Y47.911
X212.564Y106.781
X215.824Y68.521
X215.9Y88.02
X219.16Y49.76
X220.828Y30.631
X221.26Y108.63
X224.52Y70.37
X225.838Y90.132
X229.098Y51.872
X230.765Y32.744
X231.198Y110.742
X234.458Y72.482
X234.534Y91.98
X237.794Y53.72
X239.894Y112.59
X243.154Y74.33
X244.472Y94.093
X247.732Y55.833
X249.832Y114.703
X253.092Y76.443
X253.167Y95.941
X256.428Y57.681
X258.528Y116.551
X261.238Y37.691
X261.788Y78.291
X263.105Y98.054
X266.365Y59.794
X268.465Y118.664
X271.175Y39.804
X271.725Y80.404
X273.556Y99.457
X276.816Y60.297
X278.916Y119.587
X282.176Y79.347
X283.716Y99.457
X286.976Y60.297
X289.076Y119.587
X292.186Y98.397
X292.336Y79.347
X295.866Y60.297
X297.546Y117.447
X301.226Y79.347
X302.346Y98.397
X306.026Y60.297
X307.706Y117.447
X311.236Y98.397
X311.386Y79.347
X316.596Y117.447
X321.396Y98.397
X322.06Y60.297
X326.121Y117.447
X326.756Y117.447
X331.586Y60.297
X332.183Y79.347
X332.22Y60.297
X335.049Y98.397
X335.646Y117.447
X336.281Y117.447
X339.812Y41.199
X341.746Y60.297
X342.343Y79.347
X345.209Y98.397
X345.806Y117.447
X348.254Y60.297
X349.972Y41.199
X358.414Y60.297
T13
X30.286Y84.027
X34.356Y103.077
X36.636Y86.567
X38.516Y122.127
X40.706Y105.617
X44.866Y124.667
X53.906Y43.787
X55.69Y81.887
X60.256Y46.327
X61.04Y62.837
X61.536Y119.987
X61.723Y74.267
X62.04Y84.427
X62.134Y100.937
X67.39Y65.377
X67.886Y122.527
X68.073Y76.807
X68.484Y103.477
X80.586Y119.987
X85.946Y100.937
X86.646Y81.887
X86.936Y122.527
X91.996Y62.837
X92.296Y103.477
X92.996Y84.427
X98.346Y65.377
X99.226Y122.127
X105.576Y124.667
X107.058Y102.254
X107.758Y82.624
X108.298Y42.024
X113.108Y62.014
X113.797Y103.418
X114.497Y83.788
X115.037Y43.188
X119.847Y63.178
X120.338Y118.904
X125.692Y98.293
X126.392Y78.663
X127.077Y120.068
X131.742Y58.053
X132.431Y99.458
X133.131Y79.828
X138.481Y59.218
X138.972Y114.943
X141.536Y36.496
X143.486Y28.287
X144.325Y94.333
X145.025Y74.703
X145.711Y116.108
X148.276Y37.66
X150.225Y29.451
X150.375Y54.093
X151.065Y95.497
X151.765Y75.867
X157.115Y55.257
X157.605Y110.983
X162.959Y90.372
X163.659Y70.742
X164.345Y112.147
X169.009Y50.132
X169.698Y91.536
X170.398Y71.906
X171.833Y30.056
X173.806Y21.847
X175.748Y51.296
X176.239Y107.022
X178.572Y31.22
X180.545Y23.011
X182.978Y108.186
X197.981Y86.808
X201.241Y48.548
X203.341Y107.418
X203.664Y90.612
X206.601Y69.158
X206.924Y52.352
X209.024Y111.222
X212.284Y72.962
X216.614Y90.768
X219.874Y52.508
X221.542Y33.38
X221.974Y111.378
X222.297Y94.573
X225.234Y73.118
X225.557Y56.313
X227.225Y37.184
X227.657Y115.183
X230.917Y76.923
X235.248Y94.729
X238.508Y56.469
X240.608Y115.339
X240.931Y98.534
X243.868Y77.079
X244.191Y60.274
X246.291Y119.144
X249.551Y80.884
X253.882Y98.69
X257.142Y60.43
X259.242Y119.3
X259.565Y102.494
X261.952Y40.44
X262.502Y81.04
X262.825Y64.234
X264.925Y123.104
X267.635Y44.244
X268.185Y84.844
X274.826Y101.997
X278.086Y62.837
X280.186Y122.127
X281.176Y104.537
X283.446Y81.887
X284.436Y65.377
X286.536Y124.667
X289.796Y84.427
X293.456Y100.937
X297.136Y62.837
X298.816Y119.987
X299.806Y103.477
X302.496Y81.887
X303.486Y65.377
X305.166Y122.527
X308.846Y84.427
X312.506Y100.937
X318.856Y103.477
X319.136Y112.367
X323.33Y62.837
X325.486Y114.907
X327.391Y119.987
X329.68Y65.377
X333.453Y81.887
X333.741Y122.527
X334.126Y55.217
X336.319Y100.937
X338.186Y112.367
X339.803Y84.427
X340.476Y57.757
X341.082Y43.739
X342.669Y103.477
X344.536Y114.907
X347.432Y46.279
X349.524Y62.837
X355.874Y65.377
T14
X52.912Y67.282
X76.788Y67.282
X131.606Y28.869
X133.897Y28.377
X154.96Y23.905
X157.251Y23.413
X215.572Y22.373
X238.926Y27.337
X319.263Y124.432
X324.728Y67.282
X325.325Y72.362
X343.139Y124.432
X348.604Y67.282
X349.201Y72.362
T15
X34.096Y81.487
X38.166Y100.537
X42.326Y119.587
X52.912Y52.042
X57.716Y41.247
X59.5Y79.347
X64.263Y79.347
X64.85Y60.297
X65.346Y117.447
X65.944Y98.397
X76.788Y52.042
X84.396Y117.447
X89.756Y98.397
X90.456Y79.347
X95.806Y60.297
X103.036Y119.587
X110.256Y98.977
X110.956Y79.347
X111.496Y38.747
X116.306Y58.737
X123.536Y115.627
X128.89Y95.017
X129.59Y75.387
X134.774Y43.776
X134.94Y54.777
X137.066Y43.284
X142.17Y111.667
X144.735Y33.219
X147.026Y32.727
X147.524Y91.056
X148.224Y71.426
X153.574Y50.816
X158.128Y38.812
X160.42Y38.32
X160.804Y107.706
X166.158Y87.095
X166.858Y67.465
X172.208Y46.855
X175.032Y26.779
X177.346Y26.287
X179.438Y103.745
X202.235Y85.115
X205.495Y46.855
X207.595Y105.725
X210.855Y67.465
X212.403Y37.28
X220.869Y89.076
X224.129Y50.816
X225.796Y31.687
X226.229Y109.686
X229.489Y71.426
X235.757Y42.244
X239.503Y93.037
X242.763Y54.777
X244.863Y113.647
X248.123Y75.387
X258.136Y96.997
X261.396Y58.737
X263.496Y117.607
X266.206Y38.747
X266.756Y79.347
X278.636Y99.457
X281.896Y60.297
X283.996Y119.587
X287.256Y79.347
X297.266Y98.397
X300.946Y60.297
X302.626Y117.447
X306.306Y79.347
X316.316Y98.397
X319.263Y109.192
X321.676Y117.447
X324.728Y52.042
X325.325Y87.602
X327.14Y60.297
X331.201Y117.447
X336.666Y60.297
X337.263Y79.347
X340.129Y98.397
X340.726Y117.447
X343.139Y109.192
X344.892Y41.199
X348.604Y52.042
X349.201Y87.602
X353.334Y60.297
T2
G00X189.151Y133.017
M15
G01X189.151Y133.617
M16
G05
G00X189.151Y133.617
M15
G01X189.151Y133.017
M16
G05
G00X189.151Y129.687
M15
G01X189.151Y128.587
M16
G05
G00X189.151Y128.587
M15
G01X189.151Y129.687
M16
G05
G00X197.791Y133.017
M15
G01X197.791Y133.617
M16
G05
G00X197.791Y133.617
M15
G01X197.791Y133.017
M16
G05
G00X197.791Y129.687
M15
G01X197.791Y128.587
M16
G05
G00X197.791Y128.587
M15
G01X197.791Y129.687
M16
G05
T8
G00X28.496Y80.837
M15
G01X28.496Y82.137
M16
G05
G00X32.566Y99.887
M15
G01X32.566Y101.187
M16
G05
G00X36.726Y118.937
M15
G01X36.726Y120.237
M16
G05
G00X39.696Y80.837
M15
G01X39.696Y82.137
M16
G05
G00X43.766Y99.887
M15
G01X43.766Y101.187
M16
G05
G00X47.926Y118.937
M15
G01X47.926Y120.237
M16
G05
T0
M30
