  0
SECTION
  2
HEADER
  9
$ANGBASE
  50
0.0
  9
$ANGDIR
  70
1
  9
$MEASUREMENT
  70
1
  0
ENDSEC
  0
SECTION
  2
TABLES
  0
TABLE
  2
LTYPE
  70
4
  0
LTYPE
  5
40F
  2
CONTINUOUS
  70
0
  3
Solid line
  72
65
  73
0
  40
0.0
  0
LTYPE
  5
410
  2
DASHDOT
 70
0
  3
Dash Dot ____ _ ____ _
 72
65
 73
4
 40
2.0
 49
1.25
 49
-0.25
 49
0.25
 49
-0.25
  0
LTYPE
  5
411
  2
DASHED
 70
0
  3
Dashed __ __ __ __ __
 72
65
 73
2
 40
0.75
 49
0.5
 49
-0.25
  0
LTYPE
  5
43B
  2
DOTTED
 70
0
  3
Dotted .  .  .  .
 72
65
 73
2
 40
0.2
 49
0.0
 49
-0.2
  0
ENDTAB
  0
TABLE
  2
STYLE
  70
4
  0
STYLE
  2
KICAD
  70
0
  40
0
  41
1
  42
1
  50
0
  71
0
  3
isocp.shx
  0
STYLE
  2
KICADB
  70
0
  40
0
  41
1
  42
1
  50
0
  71
0
  3
isocp.shx
  0
STYLE
  2
KICADI
  70
0
  40
0
  41
1
  42
1
  50
15
  71
0
  3
isocp.shx
  0
STYLE
  2
KICADBI
  70
0
  40
0
  41
1
  42
1
  50
15
  71
0
  3
isocp.shx
  0
ENDTAB
  0
TABLE
  2
LAYER
  70
1
  0
LAYER
  2
BLACK
  70
0
  62
7
  6
CONTINUOUS
  0
ENDTAB
  0
ENDSEC
  0
SECTION
  2
ENTITIES
0
LINE
8
BLACK
6
CONTINUOUS
10
196.25
20
60.9261
11
177.25
21
60.9261
0
LINE
8
BLACK
6
CONTINUOUS
10
196.25
20
55.9261
11
196.25
21
60.9261
0
LINE
8
BLACK
6
CONTINUOUS
10
177.25
20
55.926
11
196.25
21
55.9261
0
LINE
8
BLACK
6
CONTINUOUS
10
177.25
20
60.9261
11
177.25
21
55.926
0
LINE
8
BLACK
6
CONTINUOUS
10
25.0965
20
42.7495
11
25.0965
21
43.1853
0
LINE
8
BLACK
6
CONTINUOUS
10
25.0965
20
38.6853
11
25.0965
21
33.7495
0
ARC
8
BLACK
10
147.834
20
126.587
40
2
50
-2.86479e-05
51
90
0
ARC
8
BLACK
10
156.834
20
126.587
40
2
50
90
51
180
0
ARC
8
BLACK
10
228.78
20
126.587
40
2
50
0.000286479
51
90.0003
0
ARC
8
BLACK
10
237.78
20
126.587
40
2
50
90.0001
51
180
0
LINE
8
BLACK
6
CONTINUOUS
10
156.834
20
128.587
11
188.691
21
128.587
0
LINE
8
BLACK
6
CONTINUOUS
10
149.834
20
122.829
11
149.834
21
126.587
0
LINE
8
BLACK
6
CONTINUOUS
10
154.834
20
122.829
11
154.834
21
126.587
0
LINE
8
BLACK
6
CONTINUOUS
10
237.78
20
128.587
11
361.335
21
128.587
0
LINE
8
BLACK
6
CONTINUOUS
10
230.78
20
124.51
11
230.78
21
126.587
0
LINE
8
BLACK
6
CONTINUOUS
10
235.78
20
124.51
11
235.78
21
126.587
0
ARC
8
BLACK
10
26.0965
20
33.2474
40
1
50
180
51
270
0
ARC
8
BLACK
10
361.335
20
33.2474
40
1
50
-90.0001
51
-5.72957e-05
0
ARC
8
BLACK
10
361.335
20
127.587
40
1
50
5.72957e-05
51
90.0001
0
ARC
8
BLACK
10
26.0965
20
127.587
40
0.999997
50
89.9999
51
180
0
LINE
8
BLACK
6
CONTINUOUS
10
25.0965
20
42.7495
11
25.0965
21
38.6853
0
LINE
8
BLACK
6
CONTINUOUS
10
25.0965
20
127.587
11
25.0965
21
43.1853
0
LINE
8
BLACK
6
CONTINUOUS
10
25.0965
20
33.7495
11
25.0965
21
33.2474
0
LINE
8
BLACK
6
CONTINUOUS
10
26.0965
20
32.2474
11
98.789
21
32.2474
0
LINE
8
BLACK
6
CONTINUOUS
10
98.789
20
32.2474
11
193.466
21
12.1231
0
LINE
8
BLACK
6
CONTINUOUS
10
193.466
20
12.1231
11
288.144
21
32.2474
0
LINE
8
BLACK
6
CONTINUOUS
10
288.144
20
32.2474
11
361.335
21
32.2474
0
LINE
8
BLACK
6
CONTINUOUS
10
362.335
20
127.587
11
362.335
21
33.2474
0
LINE
8
BLACK
6
CONTINUOUS
10
198.242
20
128.587
11
228.78
21
128.587
0
LINE
8
BLACK
6
CONTINUOUS
10
198.242
20
128.587
11
198.242
21
134.759
0
LINE
8
BLACK
6
CONTINUOUS
10
198.242
20
134.759
11
188.691
21
134.759
0
LINE
8
BLACK
6
CONTINUOUS
10
188.691
20
134.759
11
188.691
21
128.587
0
LINE
8
BLACK
6
CONTINUOUS
10
26.0965
20
128.587
11
147.834
21
128.587
0
ARC
8
BLACK
10
233.28
20
124.51
40
2.5
50
180
51
360
0
ARC
8
BLACK
10
152.334
20
122.829
40
2.5
50
180
51
360
  0
ENDSEC
  0
EOF
