  0
SECTION
  2
HEADER
  9
$ANGBASE
  50
0.0
  9
$ANGDIR
  70
1
  9
$MEASUREMENT
  70
1
  0
ENDSEC
  0
SECTION
  2
TABLES
  0
TABLE
  2
LTYPE
  70
4
  0
LTYPE
  5
40F
  2
CONTINUOUS
  70
0
  3
Solid line
  72
65
  73
0
  40
0.0
  0
LTYPE
  5
410
  2
DASHDOT
 70
0
  3
Dash Dot ____ _ ____ _
 72
65
 73
4
 40
2.0
 49
1.25
 49
-0.25
 49
0.25
 49
-0.25
  0
LTYPE
  5
411
  2
DASHED
 70
0
  3
Dashed __ __ __ __ __
 72
65
 73
2
 40
0.75
 49
0.5
 49
-0.25
  0
LTYPE
  5
43B
  2
DOTTED
 70
0
  3
Dotted .  .  .  .
 72
65
 73
2
 40
0.2
 49
0.0
 49
-0.2
  0
ENDTAB
  0
TABLE
  2
STYLE
  70
4
  0
STYLE
  2
KICAD
  70
0
  40
0
  41
1
  42
1
  50
0
  71
0
  3
isocp.shx
  0
STYLE
  2
KICADB
  70
0
  40
0
  41
1
  42
1
  50
0
  71
0
  3
isocp.shx
  0
STYLE
  2
KICADI
  70
0
  40
0
  41
1
  42
1
  50
15
  71
0
  3
isocp.shx
  0
STYLE
  2
KICADBI
  70
0
  40
0
  41
1
  42
1
  50
15
  71
0
  3
isocp.shx
  0
ENDTAB
  0
TABLE
  2
LAYER
  70
1
  0
LAYER
  2
BLACK
  70
0
  62
7
  6
CONTINUOUS
  0
ENDTAB
  0
ENDSEC
  0
SECTION
  2
ENTITIES
0
LINE
8
BLACK
6
CONTINUOUS
10
33.5965
20
81.4874
11
34.5965
21
81.4874
0
LINE
8
BLACK
6
CONTINUOUS
10
34.0965
20
80.9874
11
34.0965
21
81.9874
0
LINE
8
BLACK
6
CONTINUOUS
10
37.6665
20
100.537
11
38.6665
21
100.537
0
LINE
8
BLACK
6
CONTINUOUS
10
38.1665
20
100.037
11
38.1665
21
101.037
0
LINE
8
BLACK
6
CONTINUOUS
10
41.8265
20
119.587
11
42.8265
21
119.587
0
LINE
8
BLACK
6
CONTINUOUS
10
42.3265
20
119.087
11
42.3265
21
120.087
0
LINE
8
BLACK
6
CONTINUOUS
10
78.2267
20
48.1578
11
78.2269
21
48.1579
0
LINE
8
BLACK
6
CONTINUOUS
10
78.2269
20
48.1579
11
78.2276
21
48.1577
0
LINE
8
BLACK
6
CONTINUOUS
10
78.2276
20
48.1577
11
78.2283
21
48.1576
0
LINE
8
BLACK
6
CONTINUOUS
10
78.2283
20
48.1576
11
78.2285
21
48.1574
0
LINE
8
BLACK
6
CONTINUOUS
10
78.2285
20
48.1574
11
78.2288
21
48.1574
0
LINE
8
BLACK
6
CONTINUOUS
10
78.2288
20
48.1574
11
78.9456
21
47.7979
0
LINE
8
BLACK
6
CONTINUOUS
10
78.9456
20
47.7979
11
78.9456
21
47.7978
0
LINE
8
BLACK
6
CONTINUOUS
10
78.9456
20
47.7978
11
78.9457
21
47.7978
0
LINE
8
BLACK
6
CONTINUOUS
10
78.9457
20
47.7978
11
78.9464
21
47.7972
0
LINE
8
BLACK
6
CONTINUOUS
10
78.9464
20
47.7972
11
78.9471
21
47.7967
0
LINE
8
BLACK
6
CONTINUOUS
10
78.9471
20
47.7967
11
78.9472
21
47.7966
0
LINE
8
BLACK
6
CONTINUOUS
10
78.9472
20
47.7966
11
78.9472
21
47.7966
0
LINE
8
BLACK
6
CONTINUOUS
10
78.9472
20
47.7966
11
79.1634
21
47.5359
0
LINE
8
BLACK
6
CONTINUOUS
10
79.1634
20
47.5359
11
79.1637
21
47.5354
0
LINE
8
BLACK
6
CONTINUOUS
10
79.1637
20
47.5354
11
79.164
21
47.535
0
LINE
8
BLACK
6
CONTINUOUS
10
79.164
20
47.535
11
79.4185
21
47.0497
0
LINE
8
BLACK
6
CONTINUOUS
10
79.4185
20
47.0497
11
79.4186
21
47.0495
0
LINE
8
BLACK
6
CONTINUOUS
10
79.4186
20
47.0495
11
79.4187
21
47.0493
0
LINE
8
BLACK
6
CONTINUOUS
10
79.4187
20
47.0493
11
79.4189
21
47.0486
0
LINE
8
BLACK
6
CONTINUOUS
10
79.4189
20
47.0486
11
79.4191
21
47.0478
0
LINE
8
BLACK
6
CONTINUOUS
10
79.4191
20
47.0478
11
79.419
21
47.0476
0
LINE
8
BLACK
6
CONTINUOUS
10
79.419
20
47.0476
11
79.4191
21
47.0474
0
LINE
8
BLACK
6
CONTINUOUS
10
79.4191
20
47.0474
11
79.4207
21
46.5881
0
LINE
8
BLACK
6
CONTINUOUS
10
79.4207
20
46.5881
11
79.4206
21
46.5872
0
LINE
8
BLACK
6
CONTINUOUS
10
79.4206
20
46.5872
11
79.4204
21
46.5864
0
LINE
8
BLACK
6
CONTINUOUS
10
79.4204
20
46.5864
11
79.1841
21
45.9268
0
LINE
8
BLACK
6
CONTINUOUS
10
79.1841
20
45.9268
11
79.1839
21
45.9265
0
LINE
8
BLACK
6
CONTINUOUS
10
79.1839
20
45.9265
11
79.1838
21
45.9262
0
LINE
8
BLACK
6
CONTINUOUS
10
79.1838
20
45.9262
11
78.8689
21
45.3125
0
LINE
8
BLACK
6
CONTINUOUS
10
78.8689
20
45.3125
11
78.8685
21
45.312
0
LINE
8
BLACK
6
CONTINUOUS
10
78.8685
20
45.312
11
78.8682
21
45.3115
0
LINE
8
BLACK
6
CONTINUOUS
10
78.8682
20
45.3115
11
78.5851
21
44.982
0
LINE
8
BLACK
6
CONTINUOUS
10
78.5851
20
44.982
11
78.5848
21
44.9818
0
LINE
8
BLACK
6
CONTINUOUS
10
78.5848
20
44.9818
11
78.5846
21
44.9814
0
LINE
8
BLACK
6
CONTINUOUS
10
78.5846
20
44.9814
11
78.584
21
44.9812
0
LINE
8
BLACK
6
CONTINUOUS
10
78.584
20
44.9812
11
78.5836
21
44.9808
0
LINE
8
BLACK
6
CONTINUOUS
10
78.5836
20
44.9808
11
78.5832
21
44.9807
0
LINE
8
BLACK
6
CONTINUOUS
10
78.5832
20
44.9807
11
78.5829
21
44.9805
0
LINE
8
BLACK
6
CONTINUOUS
10
78.5829
20
44.9805
11
78.5269
21
44.9626
0
LINE
8
BLACK
6
CONTINUOUS
10
78.5269
20
44.9626
11
78.5266
21
44.9626
0
LINE
8
BLACK
6
CONTINUOUS
10
78.5266
20
44.9626
11
78.5263
21
44.9625
0
LINE
8
BLACK
6
CONTINUOUS
10
78.5263
20
44.9625
11
78.5256
21
44.9625
0
LINE
8
BLACK
6
CONTINUOUS
10
78.5256
20
44.9625
11
78.525
21
44.9624
0
LINE
8
BLACK
6
CONTINUOUS
10
78.525
20
44.9624
11
78.5247
21
44.9625
0
LINE
8
BLACK
6
CONTINUOUS
10
78.5247
20
44.9625
11
78.5244
21
44.9625
0
LINE
8
BLACK
6
CONTINUOUS
10
78.5244
20
44.9625
11
78.5238
21
44.9627
0
LINE
8
BLACK
6
CONTINUOUS
10
78.5238
20
44.9627
11
78.5231
21
44.9629
0
LINE
8
BLACK
6
CONTINUOUS
10
78.5231
20
44.9629
11
78.5229
21
44.9631
0
LINE
8
BLACK
6
CONTINUOUS
10
78.5229
20
44.9631
11
78.5226
21
44.9632
0
LINE
8
BLACK
6
CONTINUOUS
10
78.5226
20
44.9632
11
78.1969
21
45.1863
0
LINE
8
BLACK
6
CONTINUOUS
10
78.1969
20
45.1863
11
78.1963
21
45.187
0
LINE
8
BLACK
6
CONTINUOUS
10
78.1963
20
45.187
11
78.1956
21
45.1876
0
LINE
8
BLACK
6
CONTINUOUS
10
78.1956
20
45.1876
11
78.1956
21
45.1877
0
LINE
8
BLACK
6
CONTINUOUS
10
78.1956
20
45.1877
11
78.1956
21
45.1877
0
LINE
8
BLACK
6
CONTINUOUS
10
78.1956
20
45.1877
11
78.1952
21
45.1886
0
LINE
8
BLACK
6
CONTINUOUS
10
78.1952
20
45.1886
11
78.1949
21
45.1894
0
LINE
8
BLACK
6
CONTINUOUS
10
78.1949
20
45.1894
11
78.0806
21
45.7409
0
LINE
8
BLACK
6
CONTINUOUS
10
78.0806
20
45.7409
11
78.0806
21
45.7419
0
LINE
8
BLACK
6
CONTINUOUS
10
78.0806
20
45.7419
11
78.0806
21
45.7428
0
LINE
8
BLACK
6
CONTINUOUS
10
78.0806
20
45.7428
11
78.2136
21
46.4459
0
LINE
8
BLACK
6
CONTINUOUS
10
78.2136
20
46.4459
11
78.2138
21
46.4463
0
LINE
8
BLACK
6
CONTINUOUS
10
78.2138
20
46.4463
11
78.2138
21
46.4467
0
LINE
8
BLACK
6
CONTINUOUS
10
78.2138
20
46.4467
11
78.2185
21
46.4591
0
LINE
8
BLACK
6
CONTINUOUS
10
78.2185
20
46.4591
11
78.4252
21
47.2456
0
LINE
8
BLACK
6
CONTINUOUS
10
78.4252
20
47.2456
11
78.3071
21
47.6189
0
LINE
8
BLACK
6
CONTINUOUS
10
78.3071
20
47.6189
11
77.8857
21
47.5859
0
LINE
8
BLACK
6
CONTINUOUS
10
77.8857
20
47.5859
11
77.1734
21
47.139
0
LINE
8
BLACK
6
CONTINUOUS
10
77.1734
20
47.139
11
76.5965
21
46.6531
0
LINE
8
BLACK
6
CONTINUOUS
10
76.5965
20
46.6531
11
75.4737
21
45.4083
0
LINE
8
BLACK
6
CONTINUOUS
10
75.4737
20
45.4083
11
74.7665
21
44.1102
0
LINE
8
BLACK
6
CONTINUOUS
10
74.7665
20
44.1102
11
74.5199
21
42.8476
0
LINE
8
BLACK
6
CONTINUOUS
10
74.5199
20
42.8476
11
74.5294
21
42.6121
0
LINE
8
BLACK
6
CONTINUOUS
10
74.5294
20
42.6121
11
74.7328
21
41.8364
0
LINE
8
BLACK
6
CONTINUOUS
10
74.7328
20
41.8364
11
75.1564
21
41.5406
0
LINE
8
BLACK
6
CONTINUOUS
10
75.1564
20
41.5406
11
75.7805
21
41.7262
0
LINE
8
BLACK
6
CONTINUOUS
10
75.7805
20
41.7262
11
76.3881
21
42.2059
0
LINE
8
BLACK
6
CONTINUOUS
10
76.3881
20
42.2059
11
77.1768
21
42.9585
0
LINE
8
BLACK
6
CONTINUOUS
10
77.1768
20
42.9585
11
76.1847
21
43.0908
0
LINE
8
BLACK
6
CONTINUOUS
10
76.1847
20
43.0908
11
76.1845
21
43.0909
0
LINE
8
BLACK
6
CONTINUOUS
10
76.1845
20
43.0909
11
76.1843
21
43.0909
0
LINE
8
BLACK
6
CONTINUOUS
10
76.1843
20
43.0909
11
75.3812
21
43.268
0
LINE
8
BLACK
6
CONTINUOUS
10
75.3812
20
43.268
11
75.3811
21
43.268
0
LINE
8
BLACK
6
CONTINUOUS
10
75.3811
20
43.268
11
75.381
21
43.268
0
LINE
8
BLACK
6
CONTINUOUS
10
75.381
20
43.268
11
75.3802
21
43.2684
0
LINE
8
BLACK
6
CONTINUOUS
10
75.3802
20
43.2684
11
75.3794
21
43.2687
0
LINE
8
BLACK
6
CONTINUOUS
10
75.3794
20
43.2687
11
75.3793
21
43.2688
0
LINE
8
BLACK
6
CONTINUOUS
10
75.3793
20
43.2688
11
75.3792
21
43.2689
0
LINE
8
BLACK
6
CONTINUOUS
10
75.3792
20
43.2689
11
75.1472
21
43.4468
0
LINE
8
BLACK
6
CONTINUOUS
10
75.1472
20
43.4468
11
75.1472
21
43.4468
0
LINE
8
BLACK
6
CONTINUOUS
10
75.1472
20
43.4468
11
75.1388
21
43.4532
0
LINE
8
BLACK
6
CONTINUOUS
10
75.1388
20
43.4532
11
80.4954
21
43.4532
0
LINE
8
BLACK
6
CONTINUOUS
10
80.4954
20
43.4532
11
80.6806
21
43.3527
0
LINE
8
BLACK
6
CONTINUOUS
10
80.6806
20
43.3527
11
81.0429
21
43.52
0
LINE
8
BLACK
6
CONTINUOUS
10
81.0429
20
43.52
11
81.4571
21
43.9335
0
LINE
8
BLACK
6
CONTINUOUS
10
81.4571
20
43.9335
11
81.5442
21
44.0574
0
LINE
8
BLACK
6
CONTINUOUS
10
81.5442
20
44.0574
11
81.8173
21
44.5809
0
LINE
8
BLACK
6
CONTINUOUS
10
81.8173
20
44.5809
11
81.8517
21
44.8891
0
LINE
8
BLACK
6
CONTINUOUS
10
81.8517
20
44.8891
11
81.851
21
44.8898
0
LINE
8
BLACK
6
CONTINUOUS
10
81.851
20
44.8898
11
81.5566
21
44.8654
0
LINE
8
BLACK
6
CONTINUOUS
10
81.5566
20
44.8654
11
81.1186
21
44.5288
0
LINE
8
BLACK
6
CONTINUOUS
10
81.1186
20
44.5288
11
80.6957
21
44.0092
0
LINE
8
BLACK
6
CONTINUOUS
10
80.6957
20
44.0092
11
80.6028
21
43.8511
0
LINE
8
BLACK
6
CONTINUOUS
10
80.6028
20
43.8511
11
80.4954
21
43.4532
0
LINE
8
BLACK
6
CONTINUOUS
10
80.4954
20
43.4532
11
75.1388
21
43.4532
0
LINE
8
BLACK
6
CONTINUOUS
10
75.1388
20
43.4532
11
75.0882
21
43.492
0
LINE
8
BLACK
6
CONTINUOUS
10
75.0882
20
43.492
11
75.0881
21
43.4921
0
LINE
8
BLACK
6
CONTINUOUS
10
75.0881
20
43.4921
11
75.088
21
43.4922
0
LINE
8
BLACK
6
CONTINUOUS
10
75.088
20
43.4922
11
75.0875
21
43.4928
0
LINE
8
BLACK
6
CONTINUOUS
10
75.0875
20
43.4928
11
75.087
21
43.4934
0
LINE
8
BLACK
6
CONTINUOUS
10
75.087
20
43.4934
11
75.0869
21
43.4936
0
LINE
8
BLACK
6
CONTINUOUS
10
75.0869
20
43.4936
11
75.0868
21
43.4937
0
LINE
8
BLACK
6
CONTINUOUS
10
75.0868
20
43.4937
11
75.0866
21
43.4945
0
LINE
8
BLACK
6
CONTINUOUS
10
75.0866
20
43.4945
11
75.0863
21
43.4953
0
LINE
8
BLACK
6
CONTINUOUS
10
75.0863
20
43.4953
11
75.0863
21
43.4955
0
LINE
8
BLACK
6
CONTINUOUS
10
75.0863
20
43.4955
11
75.0863
21
43.4956
0
LINE
8
BLACK
6
CONTINUOUS
10
75.0863
20
43.4956
11
75.0864
21
43.4964
0
LINE
8
BLACK
6
CONTINUOUS
10
75.0864
20
43.4964
11
75.0865
21
43.4972
0
LINE
8
BLACK
6
CONTINUOUS
10
75.0865
20
43.4972
11
75.0865
21
43.4974
0
LINE
8
BLACK
6
CONTINUOUS
10
75.0865
20
43.4974
11
75.0866
21
43.4976
0
LINE
8
BLACK
6
CONTINUOUS
10
75.0866
20
43.4976
11
75.087
21
43.4983
0
LINE
8
BLACK
6
CONTINUOUS
10
75.087
20
43.4983
11
75.0873
21
43.499
0
LINE
8
BLACK
6
CONTINUOUS
10
75.0873
20
43.499
11
75.0875
21
43.4991
0
LINE
8
BLACK
6
CONTINUOUS
10
75.0875
20
43.4991
11
75.0875
21
43.4992
0
LINE
8
BLACK
6
CONTINUOUS
10
75.0875
20
43.4992
11
75.2925
21
43.7322
0
LINE
8
BLACK
6
CONTINUOUS
10
75.2925
20
43.7322
11
75.2928
21
43.7325
0
LINE
8
BLACK
6
CONTINUOUS
10
75.2928
20
43.7325
11
75.293
21
43.7328
0
LINE
8
BLACK
6
CONTINUOUS
10
75.293
20
43.7328
11
75.2935
21
43.7331
0
LINE
8
BLACK
6
CONTINUOUS
10
75.2935
20
43.7331
11
75.294
21
43.7334
0
LINE
8
BLACK
6
CONTINUOUS
10
75.294
20
43.7334
11
75.2944
21
43.7335
0
LINE
8
BLACK
6
CONTINUOUS
10
75.2944
20
43.7335
11
75.2948
21
43.7337
0
LINE
8
BLACK
6
CONTINUOUS
10
75.2948
20
43.7337
11
75.9793
21
43.9404
0
LINE
8
BLACK
6
CONTINUOUS
10
75.9793
20
43.9404
11
75.9797
21
43.9404
0
LINE
8
BLACK
6
CONTINUOUS
10
75.9797
20
43.9404
11
75.98
21
43.9406
0
LINE
8
BLACK
6
CONTINUOUS
10
75.98
20
43.9406
11
76.6047
21
44.0358
0
LINE
8
BLACK
6
CONTINUOUS
10
76.6047
20
44.0358
11
76.6049
21
44.0358
0
LINE
8
BLACK
6
CONTINUOUS
10
76.6049
20
44.0358
11
76.6051
21
44.0359
0
LINE
8
BLACK
6
CONTINUOUS
10
76.6051
20
44.0359
11
77.742
21
44.1091
0
LINE
8
BLACK
6
CONTINUOUS
10
77.742
20
44.1091
11
77.7425
21
44.109
0
LINE
8
BLACK
6
CONTINUOUS
10
77.7425
20
44.109
11
77.743
21
44.109
0
LINE
8
BLACK
6
CONTINUOUS
10
77.743
20
44.109
11
78.4364
21
44.0057
0
LINE
8
BLACK
6
CONTINUOUS
10
78.4364
20
44.0057
11
78.4372
21
44.0054
0
LINE
8
BLACK
6
CONTINUOUS
10
78.4372
20
44.0054
11
78.4381
21
44.0051
0
LINE
8
BLACK
6
CONTINUOUS
10
78.4381
20
44.0051
11
78.6198
21
43.9017
0
LINE
8
BLACK
6
CONTINUOUS
10
78.6198
20
43.9017
11
78.9362
21
43.7692
0
LINE
8
BLACK
6
CONTINUOUS
10
78.9362
20
43.7692
11
79.2987
21
43.9735
0
LINE
8
BLACK
6
CONTINUOUS
10
79.2987
20
43.9735
11
79.7054
21
44.4143
0
LINE
8
BLACK
6
CONTINUOUS
10
79.7054
20
44.4143
11
79.7055
21
44.4144
0
LINE
8
BLACK
6
CONTINUOUS
10
79.7055
20
44.4144
11
79.7055
21
44.4144
0
LINE
8
BLACK
6
CONTINUOUS
10
79.7055
20
44.4144
11
80.494
21
45.2333
0
LINE
8
BLACK
6
CONTINUOUS
10
80.494
20
45.2333
11
80.4946
21
45.2337
0
LINE
8
BLACK
6
CONTINUOUS
10
80.4946
20
45.2337
11
80.4951
21
45.2342
0
LINE
8
BLACK
6
CONTINUOUS
10
80.4951
20
45.2342
11
81.1474
21
45.6065
0
LINE
8
BLACK
6
CONTINUOUS
10
81.1474
20
45.6065
11
81.1478
21
45.6067
0
LINE
8
BLACK
6
CONTINUOUS
10
81.1478
20
45.6067
11
81.1483
21
45.6069
0
LINE
8
BLACK
6
CONTINUOUS
10
81.1483
20
45.6069
11
81.1488
21
45.607
0
LINE
8
BLACK
6
CONTINUOUS
10
81.1488
20
45.607
11
81.1493
21
45.6072
0
LINE
8
BLACK
6
CONTINUOUS
10
81.1493
20
45.6072
11
81.1497
21
45.6071
0
LINE
8
BLACK
6
CONTINUOUS
10
81.1497
20
45.6071
11
81.1502
21
45.6072
0
LINE
8
BLACK
6
CONTINUOUS
10
81.1502
20
45.6072
11
81.7581
21
45.5702
0
LINE
8
BLACK
6
CONTINUOUS
10
81.7581
20
45.5702
11
81.7582
21
45.5702
0
LINE
8
BLACK
6
CONTINUOUS
10
81.7582
20
45.5702
11
81.7582
21
45.5702
0
LINE
8
BLACK
6
CONTINUOUS
10
81.7582
20
45.5702
11
81.7591
21
45.57
0
LINE
8
BLACK
6
CONTINUOUS
10
81.7591
20
45.57
11
81.76
21
45.5697
0
LINE
8
BLACK
6
CONTINUOUS
10
81.76
20
45.5697
11
81.76
21
45.5697
0
LINE
8
BLACK
6
CONTINUOUS
10
81.76
20
45.5697
11
81.7601
21
45.5697
0
LINE
8
BLACK
6
CONTINUOUS
10
81.7601
20
45.5697
11
82.1129
21
45.3857
0
LINE
8
BLACK
6
CONTINUOUS
10
82.1129
20
45.3857
11
82.1135
21
45.3852
0
LINE
8
BLACK
6
CONTINUOUS
10
82.1135
20
45.3852
11
82.1142
21
45.3846
0
LINE
8
BLACK
6
CONTINUOUS
10
82.1142
20
45.3846
11
82.656
21
44.7949
0
LINE
8
BLACK
6
CONTINUOUS
10
82.656
20
44.7949
11
82.6564
21
44.7942
0
LINE
8
BLACK
6
CONTINUOUS
10
82.6564
20
44.7942
11
82.6569
21
44.7936
0
LINE
8
BLACK
6
CONTINUOUS
10
82.6569
20
44.7936
11
82.6569
21
44.7934
0
LINE
8
BLACK
6
CONTINUOUS
10
82.6569
20
44.7934
11
82.657
21
44.7932
0
LINE
8
BLACK
6
CONTINUOUS
10
82.657
20
44.7932
11
82.6572
21
44.7924
0
LINE
8
BLACK
6
CONTINUOUS
10
82.6572
20
44.7924
11
82.6573
21
44.7917
0
LINE
8
BLACK
6
CONTINUOUS
10
82.6573
20
44.7917
11
82.6841
21
44.0905
0
LINE
8
BLACK
6
CONTINUOUS
10
82.6841
20
44.0905
11
82.684
21
44.09
0
LINE
8
BLACK
6
CONTINUOUS
10
82.684
20
44.09
11
82.684
21
44.0895
0
LINE
8
BLACK
6
CONTINUOUS
10
82.684
20
44.0895
11
82.6838
21
44.0891
0
LINE
8
BLACK
6
CONTINUOUS
10
82.6838
20
44.0891
11
82.6838
21
44.0886
0
LINE
8
BLACK
6
CONTINUOUS
10
82.6838
20
44.0886
11
82.6835
21
44.0882
0
LINE
8
BLACK
6
CONTINUOUS
10
82.6835
20
44.0882
11
82.6833
21
44.0877
0
LINE
8
BLACK
6
CONTINUOUS
10
82.6833
20
44.0877
11
82.1954
21
43.3059
0
LINE
8
BLACK
6
CONTINUOUS
10
82.1954
20
43.3059
11
82.1951
21
43.3055
0
LINE
8
BLACK
6
CONTINUOUS
10
82.1951
20
43.3055
11
82.1948
21
43.3051
0
LINE
8
BLACK
6
CONTINUOUS
10
82.1948
20
43.3051
11
82.0828
21
43.1883
0
LINE
8
BLACK
6
CONTINUOUS
10
82.0828
20
43.1883
11
82.0824
21
43.188
0
LINE
8
BLACK
6
CONTINUOUS
10
82.0824
20
43.188
11
82.0822
21
43.1877
0
LINE
8
BLACK
6
CONTINUOUS
10
82.0822
20
43.1877
11
81.4455
21
42.7097
0
LINE
8
BLACK
6
CONTINUOUS
10
81.4455
20
42.7097
11
81.4451
21
42.7095
0
LINE
8
BLACK
6
CONTINUOUS
10
81.4451
20
42.7095
11
81.4448
21
42.7092
0
LINE
8
BLACK
6
CONTINUOUS
10
81.4448
20
42.7092
11
81.4443
21
42.7091
0
LINE
8
BLACK
6
CONTINUOUS
10
81.4443
20
42.7091
11
81.4437
21
42.7088
0
LINE
8
BLACK
6
CONTINUOUS
10
81.4437
20
42.7088
11
81.4433
21
42.7088
0
LINE
8
BLACK
6
CONTINUOUS
10
81.4433
20
42.7088
11
81.443
21
42.7087
0
LINE
8
BLACK
6
CONTINUOUS
10
81.443
20
42.7087
11
80.8318
21
42.6495
0
LINE
8
BLACK
6
CONTINUOUS
10
80.8318
20
42.6495
11
80.831
21
42.6496
0
LINE
8
BLACK
6
CONTINUOUS
10
80.831
20
42.6496
11
80.8302
21
42.6496
0
LINE
8
BLACK
6
CONTINUOUS
10
80.8302
20
42.6496
11
80.7416
21
42.6693
0
LINE
8
BLACK
6
CONTINUOUS
10
80.7416
20
42.6693
11
80.26
21
42.715
0
LINE
8
BLACK
6
CONTINUOUS
10
80.26
20
42.715
11
80.1019
21
42.423
0
LINE
8
BLACK
6
CONTINUOUS
10
80.1019
20
42.423
11
80.0924
21
42.1812
0
LINE
8
BLACK
6
CONTINUOUS
10
80.0924
20
42.1812
11
80.187
21
41.6167
0
LINE
8
BLACK
6
CONTINUOUS
10
80.187
20
41.6167
11
80.3497
21
41.3676
0
LINE
8
BLACK
6
CONTINUOUS
10
80.3497
20
41.3676
11
80.847
21
41.3443
0
LINE
8
BLACK
6
CONTINUOUS
10
80.847
20
41.3443
11
81.4949
21
41.6888
0
LINE
8
BLACK
6
CONTINUOUS
10
81.4949
20
41.6888
11
82.1715
21
42.3092
0
LINE
8
BLACK
6
CONTINUOUS
10
82.1715
20
42.3092
11
82.7554
21
43.1125
0
LINE
8
BLACK
6
CONTINUOUS
10
82.7554
20
43.1125
11
82.8609
21
43.3074
0
LINE
8
BLACK
6
CONTINUOUS
10
82.8609
20
43.3074
11
82.8609
21
43.3074
0
LINE
8
BLACK
6
CONTINUOUS
10
82.8609
20
43.3074
11
82.8609
21
43.3074
0
LINE
8
BLACK
6
CONTINUOUS
10
82.8609
20
43.3074
11
83.3452
21
44.1844
0
LINE
8
BLACK
6
CONTINUOUS
10
83.3452
20
44.1844
11
83.3453
21
44.1845
0
LINE
8
BLACK
6
CONTINUOUS
10
83.3453
20
44.1845
11
83.3454
21
44.1847
0
LINE
8
BLACK
6
CONTINUOUS
10
83.3454
20
44.1847
11
83.8432
21
44.9673
0
LINE
8
BLACK
6
CONTINUOUS
10
83.8432
20
44.9673
11
83.8433
21
44.9675
0
LINE
8
BLACK
6
CONTINUOUS
10
83.8433
20
44.9675
11
83.8434
21
44.9676
0
LINE
8
BLACK
6
CONTINUOUS
10
83.8434
20
44.9676
11
84.0459
21
45.2403
0
LINE
8
BLACK
6
CONTINUOUS
10
84.0459
20
45.2403
11
84.0463
21
45.2406
0
LINE
8
BLACK
6
CONTINUOUS
10
84.0463
20
45.2406
11
84.0465
21
45.2409
0
LINE
8
BLACK
6
CONTINUOUS
10
84.0465
20
45.2409
11
84.4833
21
45.6479
0
LINE
8
BLACK
6
CONTINUOUS
10
84.4833
20
45.6479
11
84.4834
21
45.648
0
LINE
8
BLACK
6
CONTINUOUS
10
84.4834
20
45.648
11
84.4835
21
45.6481
0
LINE
8
BLACK
6
CONTINUOUS
10
84.4835
20
45.6481
11
84.4843
21
45.6485
0
LINE
8
BLACK
6
CONTINUOUS
10
84.4843
20
45.6485
11
84.4849
21
45.6489
0
LINE
8
BLACK
6
CONTINUOUS
10
84.4849
20
45.6489
11
84.4851
21
45.6489
0
LINE
8
BLACK
6
CONTINUOUS
10
84.4851
20
45.6489
11
84.4852
21
45.649
0
LINE
8
BLACK
6
CONTINUOUS
10
84.4852
20
45.649
11
84.486
21
45.6491
0
LINE
8
BLACK
6
CONTINUOUS
10
84.486
20
45.6491
11
84.4869
21
45.6492
0
LINE
8
BLACK
6
CONTINUOUS
10
84.4869
20
45.6492
11
84.487
21
45.6492
0
LINE
8
BLACK
6
CONTINUOUS
10
84.487
20
45.6492
11
84.4872
21
45.6492
0
LINE
8
BLACK
6
CONTINUOUS
10
84.4872
20
45.6492
11
84.7364
21
45.6253
0
LINE
8
BLACK
6
CONTINUOUS
10
84.7364
20
45.6253
11
84.7368
21
45.6252
0
LINE
8
BLACK
6
CONTINUOUS
10
84.7368
20
45.6252
11
84.7372
21
45.6251
0
LINE
8
BLACK
6
CONTINUOUS
10
84.7372
20
45.6251
11
84.7377
21
45.6249
0
LINE
8
BLACK
6
CONTINUOUS
10
84.7377
20
45.6249
11
84.7383
21
45.6247
0
LINE
8
BLACK
6
CONTINUOUS
10
84.7383
20
45.6247
11
84.7386
21
45.6245
0
LINE
8
BLACK
6
CONTINUOUS
10
84.7386
20
45.6245
11
84.7389
21
45.6243
0
LINE
8
BLACK
6
CONTINUOUS
10
84.7389
20
45.6243
11
84.7393
21
45.6238
0
LINE
8
BLACK
6
CONTINUOUS
10
84.7393
20
45.6238
11
84.7398
21
45.6235
0
LINE
8
BLACK
6
CONTINUOUS
10
84.7398
20
45.6235
11
84.74
21
45.6231
0
LINE
8
BLACK
6
CONTINUOUS
10
84.74
20
45.6231
11
84.7402
21
45.6228
0
LINE
8
BLACK
6
CONTINUOUS
10
84.7402
20
45.6228
11
84.7404
21
45.6223
0
LINE
8
BLACK
6
CONTINUOUS
10
84.7404
20
45.6223
11
84.7407
21
45.6218
0
LINE
8
BLACK
6
CONTINUOUS
10
84.7407
20
45.6218
11
84.7407
21
45.6214
0
LINE
8
BLACK
6
CONTINUOUS
10
84.7407
20
45.6214
11
84.7409
21
45.621
0
LINE
8
BLACK
6
CONTINUOUS
10
84.7409
20
45.621
11
84.7932
21
45.2396
0
LINE
8
BLACK
6
CONTINUOUS
10
84.7932
20
45.2396
11
84.7932
21
45.2387
0
LINE
8
BLACK
6
CONTINUOUS
10
84.7932
20
45.2387
11
84.7932
21
45.2378
0
LINE
8
BLACK
6
CONTINUOUS
10
84.7932
20
45.2378
11
84.6393
21
44.5722
0
LINE
8
BLACK
6
CONTINUOUS
10
84.6393
20
44.5722
11
84.6392
21
44.5718
0
LINE
8
BLACK
6
CONTINUOUS
10
84.6392
20
44.5718
11
84.6391
21
44.5714
0
LINE
8
BLACK
6
CONTINUOUS
10
84.6391
20
44.5714
11
84.2697
21
43.695
0
LINE
8
BLACK
6
CONTINUOUS
10
84.2697
20
43.695
11
84.2697
21
43.6948
0
LINE
8
BLACK
6
CONTINUOUS
10
84.2697
20
43.6948
11
84.2696
21
43.6947
0
LINE
8
BLACK
6
CONTINUOUS
10
84.2696
20
43.6947
11
84.2543
21
43.6643
0
LINE
8
BLACK
6
CONTINUOUS
10
84.2543
20
43.6643
11
83.7526
21
42.544
0
LINE
8
BLACK
6
CONTINUOUS
10
83.7526
20
42.544
11
83.5517
21
41.8135
0
LINE
8
BLACK
6
CONTINUOUS
10
83.5517
20
41.8135
11
83.6194
21
41.5027
0
LINE
8
BLACK
6
CONTINUOUS
10
83.6194
20
41.5027
11
83.923
21
41.6221
0
LINE
8
BLACK
6
CONTINUOUS
10
83.923
20
41.6221
11
84.443
21
42.2081
0
LINE
8
BLACK
6
CONTINUOUS
10
84.443
20
42.2081
11
84.9927
21
43.0316
0
LINE
8
BLACK
6
CONTINUOUS
10
84.9927
20
43.0316
11
85.7305
21
44.2247
0
LINE
8
BLACK
6
CONTINUOUS
10
85.7305
20
44.2247
11
85.7305
21
44.2247
0
LINE
8
BLACK
6
CONTINUOUS
10
85.7305
20
44.2247
11
85.7306
21
44.2248
0
LINE
8
BLACK
6
CONTINUOUS
10
85.7306
20
44.2248
11
86.2484
21
45.0148
0
LINE
8
BLACK
6
CONTINUOUS
10
86.2484
20
45.0148
11
86.2486
21
45.015
0
LINE
8
BLACK
6
CONTINUOUS
10
86.2486
20
45.015
11
86.2487
21
45.0152
0
LINE
8
BLACK
6
CONTINUOUS
10
86.2487
20
45.0152
11
86.5974
21
45.4602
0
LINE
8
BLACK
6
CONTINUOUS
10
86.5974
20
45.4602
11
86.598
21
45.4607
0
LINE
8
BLACK
6
CONTINUOUS
10
86.598
20
45.4607
11
86.5985
21
45.4612
0
LINE
8
BLACK
6
CONTINUOUS
10
86.5985
20
45.4612
11
86.829
21
45.6193
0
LINE
8
BLACK
6
CONTINUOUS
10
86.829
20
45.6193
11
86.8295
21
45.6196
0
LINE
8
BLACK
6
CONTINUOUS
10
86.8295
20
45.6196
11
86.83
21
45.6199
0
LINE
8
BLACK
6
CONTINUOUS
10
86.83
20
45.6199
11
86.8304
21
45.6199
0
LINE
8
BLACK
6
CONTINUOUS
10
86.8304
20
45.6199
11
86.8308
21
45.6201
0
LINE
8
BLACK
6
CONTINUOUS
10
86.8308
20
45.6201
11
86.8314
21
45.6201
0
LINE
8
BLACK
6
CONTINUOUS
10
86.8314
20
45.6201
11
86.8319
21
45.6202
0
LINE
8
BLACK
6
CONTINUOUS
10
86.8319
20
45.6202
11
86.8323
21
45.6201
0
LINE
8
BLACK
6
CONTINUOUS
10
86.8323
20
45.6201
11
86.8327
21
45.6201
0
LINE
8
BLACK
6
CONTINUOUS
10
86.8327
20
45.6201
11
86.8333
21
45.6199
0
LINE
8
BLACK
6
CONTINUOUS
10
86.8333
20
45.6199
11
86.8338
21
45.6198
0
LINE
8
BLACK
6
CONTINUOUS
10
86.8338
20
45.6198
11
86.997
21
45.549
0
LINE
8
BLACK
6
CONTINUOUS
10
86.997
20
45.549
11
86.9973
21
45.5487
0
LINE
8
BLACK
6
CONTINUOUS
10
86.9973
20
45.5487
11
86.9978
21
45.5486
0
LINE
8
BLACK
6
CONTINUOUS
10
86.9978
20
45.5486
11
86.9981
21
45.5482
0
LINE
8
BLACK
6
CONTINUOUS
10
86.9981
20
45.5482
11
86.9986
21
45.5479
0
LINE
8
BLACK
6
CONTINUOUS
10
86.9986
20
45.5479
11
86.9988
21
45.5475
0
LINE
8
BLACK
6
CONTINUOUS
10
86.9988
20
45.5475
11
86.9991
21
45.5472
0
LINE
8
BLACK
6
CONTINUOUS
10
86.9991
20
45.5472
11
87.089
21
45.4134
0
LINE
8
BLACK
6
CONTINUOUS
10
87.089
20
45.4134
11
87.0891
21
45.4131
0
LINE
8
BLACK
6
CONTINUOUS
10
87.0891
20
45.4131
11
87.0893
21
45.4129
0
LINE
8
BLACK
6
CONTINUOUS
10
87.0893
20
45.4129
11
87.0895
21
45.4122
0
LINE
8
BLACK
6
CONTINUOUS
10
87.0895
20
45.4122
11
87.0898
21
45.4116
0
LINE
8
BLACK
6
CONTINUOUS
10
87.0898
20
45.4116
11
87.0898
21
45.4113
0
LINE
8
BLACK
6
CONTINUOUS
10
87.0898
20
45.4113
11
87.0898
21
45.411
0
LINE
8
BLACK
6
CONTINUOUS
10
87.0898
20
45.411
11
87.1294
21
44.9361
0
LINE
8
BLACK
6
CONTINUOUS
10
87.1294
20
44.9361
11
87.1294
21
44.9361
0
LINE
8
BLACK
6
CONTINUOUS
10
87.1294
20
44.9361
11
87.1294
21
44.9361
0
LINE
8
BLACK
6
CONTINUOUS
10
87.1294
20
44.9361
11
87.1293
21
44.9351
0
LINE
8
BLACK
6
CONTINUOUS
10
87.1293
20
44.9351
11
87.1292
21
44.9342
0
LINE
8
BLACK
6
CONTINUOUS
10
87.1292
20
44.9342
11
87.1291
21
44.9342
0
LINE
8
BLACK
6
CONTINUOUS
10
87.1291
20
44.9342
11
87.1291
21
44.9342
0
LINE
8
BLACK
6
CONTINUOUS
10
87.1291
20
44.9342
11
86.8688
21
44.1307
0
LINE
8
BLACK
6
CONTINUOUS
10
86.8688
20
44.1307
11
86.8686
21
44.1304
0
LINE
8
BLACK
6
CONTINUOUS
10
86.8686
20
44.1304
11
86.8685
21
44.1301
0
LINE
8
BLACK
6
CONTINUOUS
10
86.8685
20
44.1301
11
86.4996
21
43.3429
0
LINE
8
BLACK
6
CONTINUOUS
10
86.4996
20
43.3429
11
86.019
21
42.2919
0
LINE
8
BLACK
6
CONTINUOUS
10
86.019
20
42.2919
11
85.8557
21
41.6696
0
LINE
8
BLACK
6
CONTINUOUS
10
85.8557
20
41.6696
11
86.0042
21
41.4717
0
LINE
8
BLACK
6
CONTINUOUS
10
86.0042
20
41.4717
11
86.3987
21
41.639
0
LINE
8
BLACK
6
CONTINUOUS
10
86.3987
20
41.639
11
86.6583
21
41.8514
0
LINE
8
BLACK
6
CONTINUOUS
10
86.6583
20
41.8514
11
86.9311
21
42.2041
0
LINE
8
BLACK
6
CONTINUOUS
10
86.9311
20
42.2041
11
87.2675
21
42.7847
0
LINE
8
BLACK
6
CONTINUOUS
10
87.2675
20
42.7847
11
87.7181
21
43.6807
0
LINE
8
BLACK
6
CONTINUOUS
10
87.7181
20
43.6807
11
88.2266
21
44.7537
0
LINE
8
BLACK
6
CONTINUOUS
10
88.2266
20
44.7537
11
88.2266
21
44.7537
0
LINE
8
BLACK
6
CONTINUOUS
10
88.2266
20
44.7537
11
88.2284
21
44.7576
0
LINE
8
BLACK
6
CONTINUOUS
10
88.2284
20
44.7576
11
89.4567
21
44.7576
0
LINE
8
BLACK
6
CONTINUOUS
10
89.4567
20
44.7576
11
89.5625
21
44.7723
0
LINE
8
BLACK
6
CONTINUOUS
10
89.5625
20
44.7723
11
89.8678
21
45.1974
0
LINE
8
BLACK
6
CONTINUOUS
10
89.8678
20
45.1974
11
90.3175
21
45.9671
0
LINE
8
BLACK
6
CONTINUOUS
10
90.3175
20
45.9671
11
90.3932
21
46.106
0
LINE
8
BLACK
6
CONTINUOUS
10
90.3932
20
46.106
11
90.6353
21
46.6109
0
LINE
8
BLACK
6
CONTINUOUS
10
90.6353
20
46.6109
11
90.6808
21
46.8307
0
LINE
8
BLACK
6
CONTINUOUS
10
90.6808
20
46.8307
11
90.49
21
46.6284
0
LINE
8
BLACK
6
CONTINUOUS
10
90.49
20
46.6284
11
90.1608
21
46.1298
0
LINE
8
BLACK
6
CONTINUOUS
10
90.1608
20
46.1298
11
89.8065
21
45.5239
0
LINE
8
BLACK
6
CONTINUOUS
10
89.8065
20
45.5239
11
89.5364
21
44.9958
0
LINE
8
BLACK
6
CONTINUOUS
10
89.5364
20
44.9958
11
89.4567
21
44.7576
0
LINE
8
BLACK
6
CONTINUOUS
10
89.4567
20
44.7576
11
88.2284
21
44.7576
0
LINE
8
BLACK
6
CONTINUOUS
10
88.2284
20
44.7576
11
88.3301
21
44.9721
0
LINE
8
BLACK
6
CONTINUOUS
10
88.3301
20
44.9721
11
88.3301
21
44.9722
0
LINE
8
BLACK
6
CONTINUOUS
10
88.3301
20
44.9722
11
88.3302
21
44.9723
0
LINE
8
BLACK
6
CONTINUOUS
10
88.3302
20
44.9723
11
88.9688
21
46.1703
0
LINE
8
BLACK
6
CONTINUOUS
10
88.9688
20
46.1703
11
88.969
21
46.1705
0
LINE
8
BLACK
6
CONTINUOUS
10
88.969
20
46.1705
11
88.9691
21
46.1708
0
LINE
8
BLACK
6
CONTINUOUS
10
88.9691
20
46.1708
11
89.619
21
47.1042
0
LINE
8
BLACK
6
CONTINUOUS
10
89.619
20
47.1042
11
89.6193
21
47.1044
0
LINE
8
BLACK
6
CONTINUOUS
10
89.6193
20
47.1044
11
89.6195
21
47.1048
0
LINE
8
BLACK
6
CONTINUOUS
10
89.6195
20
47.1048
11
90.2294
21
47.7349
0
LINE
8
BLACK
6
CONTINUOUS
10
90.2294
20
47.7349
11
90.23
21
47.7353
0
LINE
8
BLACK
6
CONTINUOUS
10
90.23
20
47.7353
11
90.2306
21
47.7358
0
LINE
8
BLACK
6
CONTINUOUS
10
90.2306
20
47.7358
11
90.7489
21
48.0241
0
LINE
8
BLACK
6
CONTINUOUS
10
90.7489
20
48.0241
11
90.7497
21
48.0244
0
LINE
8
BLACK
6
CONTINUOUS
10
90.7497
20
48.0244
11
90.7506
21
48.0247
0
LINE
8
BLACK
6
CONTINUOUS
10
90.7506
20
48.0247
11
90.7507
21
48.0247
0
LINE
8
BLACK
6
CONTINUOUS
10
90.7507
20
48.0247
11
90.7508
21
48.0247
0
LINE
8
BLACK
6
CONTINUOUS
10
90.7508
20
48.0247
11
90.7517
21
48.0247
0
LINE
8
BLACK
6
CONTINUOUS
10
90.7517
20
48.0247
11
90.7525
21
48.0246
0
LINE
8
BLACK
6
CONTINUOUS
10
90.7525
20
48.0246
11
91.128
21
47.9326
0
LINE
8
BLACK
6
CONTINUOUS
10
91.128
20
47.9326
11
91.1284
21
47.9324
0
LINE
8
BLACK
6
CONTINUOUS
10
91.1284
20
47.9324
11
91.1289
21
47.9323
0
LINE
8
BLACK
6
CONTINUOUS
10
91.1289
20
47.9323
11
91.1293
21
47.932
0
LINE
8
BLACK
6
CONTINUOUS
10
91.1293
20
47.932
11
91.1297
21
47.9318
0
LINE
8
BLACK
6
CONTINUOUS
10
91.1297
20
47.9318
11
91.1301
21
47.9314
0
LINE
8
BLACK
6
CONTINUOUS
10
91.1301
20
47.9314
11
91.1305
21
47.9311
0
LINE
8
BLACK
6
CONTINUOUS
10
91.1305
20
47.9311
11
91.1307
21
47.9307
0
LINE
8
BLACK
6
CONTINUOUS
10
91.1307
20
47.9307
11
91.1311
21
47.9304
0
LINE
8
BLACK
6
CONTINUOUS
10
91.1311
20
47.9304
11
91.1312
21
47.9299
0
LINE
8
BLACK
6
CONTINUOUS
10
91.1312
20
47.9299
11
91.1315
21
47.9295
0
LINE
8
BLACK
6
CONTINUOUS
10
91.1315
20
47.9295
11
91.3126
21
47.4186
0
LINE
8
BLACK
6
CONTINUOUS
10
91.3126
20
47.4186
11
91.3127
21
47.4178
0
LINE
8
BLACK
6
CONTINUOUS
10
91.3127
20
47.4178
11
91.3129
21
47.4171
0
LINE
8
BLACK
6
CONTINUOUS
10
91.3129
20
47.4171
11
91.3218
21
47.2069
0
LINE
8
BLACK
6
CONTINUOUS
10
91.3218
20
47.2069
11
91.3218
21
47.2064
0
LINE
8
BLACK
6
CONTINUOUS
10
91.3218
20
47.2064
11
91.3218
21
47.206
0
LINE
8
BLACK
6
CONTINUOUS
10
91.3218
20
47.206
11
91.2245
21
46.4995
0
LINE
8
BLACK
6
CONTINUOUS
10
91.2245
20
46.4995
11
91.2242
21
46.4989
0
LINE
8
BLACK
6
CONTINUOUS
10
91.2242
20
46.4989
11
91.224
21
46.4981
0
LINE
8
BLACK
6
CONTINUOUS
10
91.224
20
46.4981
11
90.8885
21
45.7683
0
LINE
8
BLACK
6
CONTINUOUS
10
90.8885
20
45.7683
11
90.8882
21
45.7679
0
LINE
8
BLACK
6
CONTINUOUS
10
90.8882
20
45.7679
11
90.888
21
45.7674
0
LINE
8
BLACK
6
CONTINUOUS
10
90.888
20
45.7674
11
90.249
21
44.9004
0
LINE
8
BLACK
6
CONTINUOUS
10
90.249
20
44.9004
11
90.2489
21
44.9002
0
LINE
8
BLACK
6
CONTINUOUS
10
90.2489
20
44.9002
11
90.2487
21
44.9
0
LINE
8
BLACK
6
CONTINUOUS
10
90.2487
20
44.9
11
89.5454
21
44.1067
0
LINE
8
BLACK
6
CONTINUOUS
10
89.5454
20
44.1067
11
88.8703
21
43.2524
0
LINE
8
BLACK
6
CONTINUOUS
10
88.8703
20
43.2524
11
88.4643
21
42.4795
0
LINE
8
BLACK
6
CONTINUOUS
10
88.4643
20
42.4795
11
88.3532
21
41.8791
0
LINE
8
BLACK
6
CONTINUOUS
10
88.3532
20
41.8791
11
88.5608
21
41.5408
0
LINE
8
BLACK
6
CONTINUOUS
10
88.5608
20
41.5408
11
88.7818
21
41.4969
0
LINE
8
BLACK
6
CONTINUOUS
10
88.7818
20
41.4969
11
89.1848
21
41.7435
0
LINE
8
BLACK
6
CONTINUOUS
10
89.1848
20
41.7435
11
89.775
21
42.4811
0
LINE
8
BLACK
6
CONTINUOUS
10
89.775
20
42.4811
11
90.5447
21
43.7008
0
LINE
8
BLACK
6
CONTINUOUS
10
90.5447
20
43.7008
11
91.0995
21
44.6779
0
LINE
8
BLACK
6
CONTINUOUS
10
91.0995
20
44.6779
11
91.0997
21
44.6781
0
LINE
8
BLACK
6
CONTINUOUS
10
91.0997
20
44.6781
11
91.0997
21
44.6783
0
LINE
8
BLACK
6
CONTINUOUS
10
91.0997
20
44.6783
11
91.4756
21
45.2299
0
LINE
8
BLACK
6
CONTINUOUS
10
91.4756
20
45.2299
11
91.4761
21
45.2304
0
LINE
8
BLACK
6
CONTINUOUS
10
91.4761
20
45.2304
11
91.4765
21
45.231
0
LINE
8
BLACK
6
CONTINUOUS
10
91.4765
20
45.231
11
91.8013
21
45.5006
0
LINE
8
BLACK
6
CONTINUOUS
10
91.8013
20
45.5006
11
91.8016
21
45.5008
0
LINE
8
BLACK
6
CONTINUOUS
10
91.8016
20
45.5008
11
91.8019
21
45.5011
0
LINE
8
BLACK
6
CONTINUOUS
10
91.8019
20
45.5011
11
91.8024
21
45.5013
0
LINE
8
BLACK
6
CONTINUOUS
10
91.8024
20
45.5013
11
91.803
21
45.5016
0
LINE
8
BLACK
6
CONTINUOUS
10
91.803
20
45.5016
11
91.8033
21
45.5016
0
LINE
8
BLACK
6
CONTINUOUS
10
91.8033
20
45.5016
11
91.8037
21
45.5017
0
LINE
8
BLACK
6
CONTINUOUS
10
91.8037
20
45.5017
11
91.8384
21
45.507
0
LINE
8
BLACK
6
CONTINUOUS
10
91.8384
20
45.507
11
91.8386
21
45.507
0
LINE
8
BLACK
6
CONTINUOUS
10
91.8386
20
45.507
11
91.8388
21
45.5071
0
LINE
8
BLACK
6
CONTINUOUS
10
91.8388
20
45.5071
11
91.8396
21
45.507
0
LINE
8
BLACK
6
CONTINUOUS
10
91.8396
20
45.507
11
91.8403
21
45.507
0
LINE
8
BLACK
6
CONTINUOUS
10
91.8403
20
45.507
11
91.8405
21
45.5069
0
LINE
8
BLACK
6
CONTINUOUS
10
91.8405
20
45.5069
11
91.8407
21
45.5069
0
LINE
8
BLACK
6
CONTINUOUS
10
91.8407
20
45.5069
11
91.8414
21
45.5065
0
LINE
8
BLACK
6
CONTINUOUS
10
91.8414
20
45.5065
11
91.8421
21
45.5061
0
LINE
8
BLACK
6
CONTINUOUS
10
91.8421
20
45.5061
11
91.8422
21
45.506
0
LINE
8
BLACK
6
CONTINUOUS
10
91.8422
20
45.506
11
91.8424
21
45.5059
0
LINE
8
BLACK
6
CONTINUOUS
10
91.8424
20
45.5059
11
92.0909
21
45.2928
0
LINE
8
BLACK
6
CONTINUOUS
10
92.0909
20
45.2928
11
92.0911
21
45.2925
0
LINE
8
BLACK
6
CONTINUOUS
10
92.0911
20
45.2925
11
92.0913
21
45.2923
0
LINE
8
BLACK
6
CONTINUOUS
10
92.0913
20
45.2923
11
92.0917
21
45.2918
0
LINE
8
BLACK
6
CONTINUOUS
10
92.0917
20
45.2918
11
92.0921
21
45.2912
0
LINE
8
BLACK
6
CONTINUOUS
10
92.0921
20
45.2912
11
92.0922
21
45.2909
0
LINE
8
BLACK
6
CONTINUOUS
10
92.0922
20
45.2909
11
92.0924
21
45.2907
0
LINE
8
BLACK
6
CONTINUOUS
10
92.0924
20
45.2907
11
92.0925
21
45.29
0
LINE
8
BLACK
6
CONTINUOUS
10
92.0925
20
45.29
11
92.0927
21
45.2893
0
LINE
8
BLACK
6
CONTINUOUS
10
92.0927
20
45.2893
11
92.0926
21
45.289
0
LINE
8
BLACK
6
CONTINUOUS
10
92.0926
20
45.289
11
92.0927
21
45.2888
0
LINE
8
BLACK
6
CONTINUOUS
10
92.0927
20
45.2888
11
92.0683
21
44.7008
0
LINE
8
BLACK
6
CONTINUOUS
10
92.0683
20
44.7008
11
92.0682
21
44.7001
0
LINE
8
BLACK
6
CONTINUOUS
10
92.0682
20
44.7001
11
92.0681
21
44.6995
0
LINE
8
BLACK
6
CONTINUOUS
10
92.0681
20
44.6995
11
91.7838
21
43.8138
0
LINE
8
BLACK
6
CONTINUOUS
10
91.7838
20
43.8138
11
91.7837
21
43.8136
0
LINE
8
BLACK
6
CONTINUOUS
10
91.7837
20
43.8136
11
91.7836
21
43.8133
0
LINE
8
BLACK
6
CONTINUOUS
10
91.7836
20
43.8133
11
91.4371
21
43.0582
0
LINE
8
BLACK
6
CONTINUOUS
10
91.4371
20
43.0582
11
91.4371
21
43.0582
0
LINE
8
BLACK
6
CONTINUOUS
10
91.4371
20
43.0582
11
91.0913
21
42.297
0
LINE
8
BLACK
6
CONTINUOUS
10
91.0913
20
42.297
11
90.9108
21
41.7376
0
LINE
8
BLACK
6
CONTINUOUS
10
90.9108
20
41.7376
11
90.9155
21
41.5458
0
LINE
8
BLACK
6
CONTINUOUS
10
90.9155
20
41.5458
11
91.2524
21
41.5108
0
LINE
8
BLACK
6
CONTINUOUS
10
91.2524
20
41.5108
11
91.668
21
41.8065
0
LINE
8
BLACK
6
CONTINUOUS
10
91.668
20
41.8065
11
91.7311
21
41.9003
0
LINE
8
BLACK
6
CONTINUOUS
10
91.7311
20
41.9003
11
93.2404
21
41.9003
0
LINE
8
BLACK
6
CONTINUOUS
10
93.2404
20
41.9003
11
93.3702
21
41.6736
0
LINE
8
BLACK
6
CONTINUOUS
10
93.3702
20
41.6736
11
93.7186
21
41.5035
0
LINE
8
BLACK
6
CONTINUOUS
10
93.7186
20
41.5035
11
93.923
21
41.8367
0
LINE
8
BLACK
6
CONTINUOUS
10
93.923
20
41.8367
11
93.9855
21
42.6123
0
LINE
8
BLACK
6
CONTINUOUS
10
93.9855
20
42.6123
11
93.97
21
43.2899
0
LINE
8
BLACK
6
CONTINUOUS
10
93.97
20
43.2899
11
93.8931
21
43.5023
0
LINE
8
BLACK
6
CONTINUOUS
10
93.8931
20
43.5023
11
93.7058
21
43.3444
0
LINE
8
BLACK
6
CONTINUOUS
10
93.7058
20
43.3444
11
93.6022
21
43.2111
0
LINE
8
BLACK
6
CONTINUOUS
10
93.6022
20
43.2111
11
93.2581
21
42.5204
0
LINE
8
BLACK
6
CONTINUOUS
10
93.2581
20
42.5204
11
93.2404
21
41.9003
0
LINE
8
BLACK
6
CONTINUOUS
10
93.2404
20
41.9003
11
91.7311
21
41.9003
0
LINE
8
BLACK
6
CONTINUOUS
10
91.7311
20
41.9003
11
91.7321
21
41.9018
0
LINE
8
BLACK
6
CONTINUOUS
10
91.7321
20
41.9018
11
91.9938
21
42.2911
0
LINE
8
BLACK
6
CONTINUOUS
10
91.9938
20
42.2911
11
92.07
21
42.5539
0
LINE
8
BLACK
6
CONTINUOUS
10
92.07
20
42.5539
11
92.0702
21
42.5543
0
LINE
8
BLACK
6
CONTINUOUS
10
92.0702
20
42.5543
11
92.0703
21
42.5547
0
LINE
8
BLACK
6
CONTINUOUS
10
92.0703
20
42.5547
11
92.3307
21
43.0842
0
LINE
8
BLACK
6
CONTINUOUS
10
92.3307
20
43.0842
11
92.3309
21
43.0845
0
LINE
8
BLACK
6
CONTINUOUS
10
92.3309
20
43.0845
11
92.331
21
43.0848
0
LINE
8
BLACK
6
CONTINUOUS
10
92.331
20
43.0848
11
92.3315
21
43.0853
0
LINE
8
BLACK
6
CONTINUOUS
10
92.3315
20
43.0853
11
92.3318
21
43.0858
0
LINE
8
BLACK
6
CONTINUOUS
10
92.3318
20
43.0858
11
92.3322
21
43.086
0
LINE
8
BLACK
6
CONTINUOUS
10
92.3322
20
43.086
11
92.3324
21
43.0862
0
LINE
8
BLACK
6
CONTINUOUS
10
92.3324
20
43.0862
11
92.6437
21
43.2879
0
LINE
8
BLACK
6
CONTINUOUS
10
92.6437
20
43.2879
11
93.0326
21
43.5806
0
LINE
8
BLACK
6
CONTINUOUS
10
93.0326
20
43.5806
11
93.5193
21
44.1994
0
LINE
8
BLACK
6
CONTINUOUS
10
93.5193
20
44.1994
11
93.8395
21
44.726
0
LINE
8
BLACK
6
CONTINUOUS
10
93.8395
20
44.726
11
94.3676
21
45.604
0
LINE
8
BLACK
6
CONTINUOUS
10
94.3676
20
45.604
11
94.368
21
45.6044
0
LINE
8
BLACK
6
CONTINUOUS
10
94.368
20
45.6044
11
94.3683
21
45.6049
0
LINE
8
BLACK
6
CONTINUOUS
10
94.3683
20
45.6049
11
94.7461
21
45.998
0
LINE
8
BLACK
6
CONTINUOUS
10
94.7461
20
45.998
11
94.7461
21
45.998
0
LINE
8
BLACK
6
CONTINUOUS
10
94.7461
20
45.998
11
94.7462
21
45.9981
0
LINE
8
BLACK
6
CONTINUOUS
10
94.7462
20
45.9981
11
94.7469
21
45.9986
0
LINE
8
BLACK
6
CONTINUOUS
10
94.7469
20
45.9986
11
94.7477
21
45.9991
0
LINE
8
BLACK
6
CONTINUOUS
10
94.7477
20
45.9991
11
94.7477
21
45.9991
0
LINE
8
BLACK
6
CONTINUOUS
10
94.7477
20
45.9991
11
94.7478
21
45.9991
0
LINE
8
BLACK
6
CONTINUOUS
10
94.7478
20
45.9991
11
94.7487
21
45.9993
0
LINE
8
BLACK
6
CONTINUOUS
10
94.7487
20
45.9993
11
94.7496
21
45.9995
0
LINE
8
BLACK
6
CONTINUOUS
10
94.7496
20
45.9995
11
94.7497
21
45.9995
0
LINE
8
BLACK
6
CONTINUOUS
10
94.7497
20
45.9995
11
94.7497
21
45.9995
0
LINE
8
BLACK
6
CONTINUOUS
10
94.7497
20
45.9995
11
94.7506
21
45.9993
0
LINE
8
BLACK
6
CONTINUOUS
10
94.7506
20
45.9993
11
94.7515
21
45.9992
0
LINE
8
BLACK
6
CONTINUOUS
10
94.7515
20
45.9992
11
94.7516
21
45.9991
0
LINE
8
BLACK
6
CONTINUOUS
10
94.7516
20
45.9991
11
94.7516
21
45.9991
0
LINE
8
BLACK
6
CONTINUOUS
10
94.7516
20
45.9991
11
94.9931
21
45.8974
0
LINE
8
BLACK
6
CONTINUOUS
10
94.9931
20
45.8974
11
94.9935
21
45.8971
0
LINE
8
BLACK
6
CONTINUOUS
10
94.9935
20
45.8971
11
94.994
21
45.8969
0
LINE
8
BLACK
6
CONTINUOUS
10
94.994
20
45.8969
11
94.9943
21
45.8965
0
LINE
8
BLACK
6
CONTINUOUS
10
94.9943
20
45.8965
11
94.9948
21
45.8963
0
LINE
8
BLACK
6
CONTINUOUS
10
94.9948
20
45.8963
11
94.995
21
45.8959
0
LINE
8
BLACK
6
CONTINUOUS
10
94.995
20
45.8959
11
94.9954
21
45.8955
0
LINE
8
BLACK
6
CONTINUOUS
10
94.9954
20
45.8955
11
94.9956
21
45.8951
0
LINE
8
BLACK
6
CONTINUOUS
10
94.9956
20
45.8951
11
94.9958
21
45.8946
0
LINE
8
BLACK
6
CONTINUOUS
10
94.9958
20
45.8946
11
94.9959
21
45.8942
0
LINE
8
BLACK
6
CONTINUOUS
10
94.9959
20
45.8942
11
94.9961
21
45.8937
0
LINE
8
BLACK
6
CONTINUOUS
10
94.9961
20
45.8937
11
95.1155
21
45.2871
0
LINE
8
BLACK
6
CONTINUOUS
10
95.1155
20
45.2871
11
95.1155
21
45.2867
0
LINE
8
BLACK
6
CONTINUOUS
10
95.1155
20
45.2867
11
95.1156
21
45.2862
0
LINE
8
BLACK
6
CONTINUOUS
10
95.1156
20
45.2862
11
95.127
21
44.1649
0
LINE
8
BLACK
6
CONTINUOUS
10
95.127
20
44.1649
11
95.1269
21
44.1648
0
LINE
8
BLACK
6
CONTINUOUS
10
95.1269
20
44.1648
11
95.127
21
44.1647
0
LINE
8
BLACK
6
CONTINUOUS
10
95.127
20
44.1647
11
95.1157
21
43.8309
0
LINE
8
BLACK
6
CONTINUOUS
10
95.1157
20
43.8309
11
95.1157
21
43.8309
0
LINE
8
BLACK
6
CONTINUOUS
10
95.1157
20
43.8309
11
95.1157
21
43.8309
0
LINE
8
BLACK
6
CONTINUOUS
10
95.1157
20
43.8309
11
95.0294
21
41.6396
0
LINE
8
BLACK
6
CONTINUOUS
10
95.0294
20
41.6396
11
95.6969
21
42.4306
0
LINE
8
BLACK
6
CONTINUOUS
10
95.6969
20
42.4306
11
95.697
21
42.4307
0
LINE
8
BLACK
6
CONTINUOUS
10
95.697
20
42.4307
11
95.697
21
42.4308
0
LINE
8
BLACK
6
CONTINUOUS
10
95.697
20
42.4308
11
96.1343
21
42.9011
0
LINE
8
BLACK
6
CONTINUOUS
10
96.1343
20
42.9011
11
96.1346
21
42.9012
0
LINE
8
BLACK
6
CONTINUOUS
10
96.1346
20
42.9012
11
96.1348
21
42.9015
0
LINE
8
BLACK
6
CONTINUOUS
10
96.1348
20
42.9015
11
96.1354
21
42.9018
0
LINE
8
BLACK
6
CONTINUOUS
10
96.1354
20
42.9018
11
96.1359
21
42.9022
0
LINE
8
BLACK
6
CONTINUOUS
10
96.1359
20
42.9022
11
96.1362
21
42.9023
0
LINE
8
BLACK
6
CONTINUOUS
10
96.1362
20
42.9023
11
96.1365
21
42.9024
0
LINE
8
BLACK
6
CONTINUOUS
10
96.1365
20
42.9024
11
96.3412
21
42.967
0
LINE
8
BLACK
6
CONTINUOUS
10
96.3412
20
42.967
11
96.3414
21
42.967
0
LINE
8
BLACK
6
CONTINUOUS
10
96.3414
20
42.967
11
96.3416
21
42.9671
0
LINE
8
BLACK
6
CONTINUOUS
10
96.3416
20
42.9671
11
96.3424
21
42.9671
0
LINE
8
BLACK
6
CONTINUOUS
10
96.3424
20
42.9671
11
96.3431
21
42.9672
0
LINE
8
BLACK
6
CONTINUOUS
10
96.3431
20
42.9672
11
96.3433
21
42.9671
0
LINE
8
BLACK
6
CONTINUOUS
10
96.3433
20
42.9671
11
96.3436
21
42.9671
0
LINE
8
BLACK
6
CONTINUOUS
10
96.3436
20
42.9671
11
96.3443
21
42.9668
0
LINE
8
BLACK
6
CONTINUOUS
10
96.3443
20
42.9668
11
96.345
21
42.9666
0
LINE
8
BLACK
6
CONTINUOUS
10
96.345
20
42.9666
11
96.3452
21
42.9665
0
LINE
8
BLACK
6
CONTINUOUS
10
96.3452
20
42.9665
11
96.3454
21
42.9664
0
LINE
8
BLACK
6
CONTINUOUS
10
96.3454
20
42.9664
11
96.3459
21
42.9659
0
LINE
8
BLACK
6
CONTINUOUS
10
96.3459
20
42.9659
11
96.3465
21
42.9654
0
LINE
8
BLACK
6
CONTINUOUS
10
96.3465
20
42.9654
11
96.3466
21
42.9652
0
LINE
8
BLACK
6
CONTINUOUS
10
96.3466
20
42.9652
11
96.3468
21
42.965
0
LINE
8
BLACK
6
CONTINUOUS
10
96.3468
20
42.965
11
96.3471
21
42.9643
0
LINE
8
BLACK
6
CONTINUOUS
10
96.3471
20
42.9643
11
96.3474
21
42.9637
0
LINE
8
BLACK
6
CONTINUOUS
10
96.3474
20
42.9637
11
96.3475
21
42.9635
0
LINE
8
BLACK
6
CONTINUOUS
10
96.3475
20
42.9635
11
96.3476
21
42.9632
0
LINE
8
BLACK
6
CONTINUOUS
10
96.3476
20
42.9632
11
96.3921
21
42.7505
0
LINE
8
BLACK
6
CONTINUOUS
10
96.3921
20
42.7505
11
96.3921
21
42.7501
0
LINE
8
BLACK
6
CONTINUOUS
10
96.3921
20
42.7501
11
96.3922
21
42.7498
0
LINE
8
BLACK
6
CONTINUOUS
10
96.3922
20
42.7498
11
96.3921
21
42.7492
0
LINE
8
BLACK
6
CONTINUOUS
10
96.3921
20
42.7492
11
96.3921
21
42.7485
0
LINE
8
BLACK
6
CONTINUOUS
10
96.3921
20
42.7485
11
96.392
21
42.7482
0
LINE
8
BLACK
6
CONTINUOUS
10
96.392
20
42.7482
11
96.392
21
42.7479
0
LINE
8
BLACK
6
CONTINUOUS
10
96.392
20
42.7479
11
96.1644
21
42.0584
0
LINE
8
BLACK
6
CONTINUOUS
10
96.1644
20
42.0584
11
96.1643
21
42.0582
0
LINE
8
BLACK
6
CONTINUOUS
10
96.1643
20
42.0582
11
96.1643
21
42.0581
0
LINE
8
BLACK
6
CONTINUOUS
10
96.1643
20
42.0581
11
96.1638
21
42.0574
0
LINE
8
BLACK
6
CONTINUOUS
10
96.1638
20
42.0574
11
96.1635
21
42.0567
0
LINE
8
BLACK
6
CONTINUOUS
10
96.1635
20
42.0567
11
96.1633
21
42.0566
0
LINE
8
BLACK
6
CONTINUOUS
10
96.1633
20
42.0566
11
96.1632
21
42.0564
0
LINE
8
BLACK
6
CONTINUOUS
10
96.1632
20
42.0564
11
95.5546
21
41.4523
0
LINE
8
BLACK
6
CONTINUOUS
10
95.5546
20
41.4523
11
95.5539
21
41.4518
0
LINE
8
BLACK
6
CONTINUOUS
10
95.5539
20
41.4518
11
95.5533
21
41.4513
0
LINE
8
BLACK
6
CONTINUOUS
10
95.5533
20
41.4513
11
94.7164
21
41.0499
0
LINE
8
BLACK
6
CONTINUOUS
10
94.7164
20
41.0499
11
94.7156
21
41.0497
0
LINE
8
BLACK
6
CONTINUOUS
10
94.7156
20
41.0497
11
94.7149
21
41.0495
0
LINE
8
BLACK
6
CONTINUOUS
10
94.7149
20
41.0495
11
94.0569
21
40.9519
0
LINE
8
BLACK
6
CONTINUOUS
10
94.0569
20
40.9519
11
94.0563
21
40.9519
0
LINE
8
BLACK
6
CONTINUOUS
10
94.0563
20
40.9519
11
94.0557
21
40.9519
0
LINE
8
BLACK
6
CONTINUOUS
10
94.0557
20
40.9519
11
93.3212
21
41.0163
0
LINE
8
BLACK
6
CONTINUOUS
10
93.3212
20
41.0163
11
93.3206
21
41.0165
0
LINE
8
BLACK
6
CONTINUOUS
10
93.3206
20
41.0165
11
93.3201
21
41.0165
0
LINE
8
BLACK
6
CONTINUOUS
10
93.3201
20
41.0165
11
92.8155
21
41.1757
0
LINE
8
BLACK
6
CONTINUOUS
10
92.8155
20
41.1757
11
92.8148
21
41.1761
0
LINE
8
BLACK
6
CONTINUOUS
10
92.8148
20
41.1761
11
92.814
21
41.1765
0
LINE
8
BLACK
6
CONTINUOUS
10
92.814
20
41.1765
11
92.7607
21
41.2174
0
LINE
8
BLACK
6
CONTINUOUS
10
92.7607
20
41.2174
11
92.278
21
41.3273
0
LINE
8
BLACK
6
CONTINUOUS
10
92.278
20
41.3273
11
91.6344
21
41.156
0
LINE
8
BLACK
6
CONTINUOUS
10
91.6344
20
41.156
11
91.6343
21
41.156
0
LINE
8
BLACK
6
CONTINUOUS
10
91.6343
20
41.156
11
91.6342
21
41.156
0
LINE
8
BLACK
6
CONTINUOUS
10
91.6342
20
41.156
11
90.8436
21
40.9701
0
LINE
8
BLACK
6
CONTINUOUS
10
90.8436
20
40.9701
11
90.8433
21
40.9701
0
LINE
8
BLACK
6
CONTINUOUS
10
90.8433
20
40.9701
11
90.8431
21
40.9701
0
LINE
8
BLACK
6
CONTINUOUS
10
90.8431
20
40.9701
11
90.8424
21
40.9701
0
LINE
8
BLACK
6
CONTINUOUS
10
90.8424
20
40.9701
11
90.8417
21
40.9701
0
LINE
8
BLACK
6
CONTINUOUS
10
90.8417
20
40.9701
11
90.8414
21
40.9702
0
LINE
8
BLACK
6
CONTINUOUS
10
90.8414
20
40.9702
11
90.8411
21
40.9702
0
LINE
8
BLACK
6
CONTINUOUS
10
90.8411
20
40.9702
11
90.3168
21
41.1138
0
LINE
8
BLACK
6
CONTINUOUS
10
90.3168
20
41.1138
11
89.7036
21
41.2602
0
LINE
8
BLACK
6
CONTINUOUS
10
89.7036
20
41.2602
11
89.1172
21
41.1142
0
LINE
8
BLACK
6
CONTINUOUS
10
89.1172
20
41.1142
11
89.1171
21
41.1142
0
LINE
8
BLACK
6
CONTINUOUS
10
89.1171
20
41.1142
11
89.117
21
41.1141
0
LINE
8
BLACK
6
CONTINUOUS
10
89.117
20
41.1141
11
88.3839
21
40.9702
0
LINE
8
BLACK
6
CONTINUOUS
10
88.3839
20
40.9702
11
88.3835
21
40.9702
0
LINE
8
BLACK
6
CONTINUOUS
10
88.3835
20
40.9702
11
88.3831
21
40.9701
0
LINE
8
BLACK
6
CONTINUOUS
10
88.3831
20
40.9701
11
88.3825
21
40.9702
0
LINE
8
BLACK
6
CONTINUOUS
10
88.3825
20
40.9702
11
88.3819
21
40.9702
0
LINE
8
BLACK
6
CONTINUOUS
10
88.3819
20
40.9702
11
88.3816
21
40.9703
0
LINE
8
BLACK
6
CONTINUOUS
10
88.3816
20
40.9703
11
88.3812
21
40.9704
0
LINE
8
BLACK
6
CONTINUOUS
10
88.3812
20
40.9704
11
87.8021
21
41.1807
0
LINE
8
BLACK
6
CONTINUOUS
10
87.8021
20
41.1807
11
87.8021
21
41.1807
0
LINE
8
BLACK
6
CONTINUOUS
10
87.8021
20
41.1807
11
87.8021
21
41.1807
0
LINE
8
BLACK
6
CONTINUOUS
10
87.8021
20
41.1807
11
87.2583
21
41.3834
0
LINE
8
BLACK
6
CONTINUOUS
10
87.2583
20
41.3834
11
86.9561
21
41.2416
0
LINE
8
BLACK
6
CONTINUOUS
10
86.9561
20
41.2416
11
86.956
21
41.2416
0
LINE
8
BLACK
6
CONTINUOUS
10
86.956
20
41.2416
11
86.956
21
41.2416
0
LINE
8
BLACK
6
CONTINUOUS
10
86.956
20
41.2416
11
86.4041
21
40.9974
0
LINE
8
BLACK
6
CONTINUOUS
10
86.4041
20
40.9974
11
86.4041
21
40.9974
0
LINE
8
BLACK
6
CONTINUOUS
10
86.4041
20
40.9974
11
86.4041
21
40.9974
0
LINE
8
BLACK
6
CONTINUOUS
10
86.4041
20
40.9974
11
86.4031
21
40.9972
0
LINE
8
BLACK
6
CONTINUOUS
10
86.4031
20
40.9972
11
86.4022
21
40.997
0
LINE
8
BLACK
6
CONTINUOUS
10
86.4022
20
40.997
11
86.4022
21
40.997
0
LINE
8
BLACK
6
CONTINUOUS
10
86.4022
20
40.997
11
86.4022
21
40.997
0
LINE
8
BLACK
6
CONTINUOUS
10
86.4022
20
40.997
11
85.6667
21
40.9841
0
LINE
8
BLACK
6
CONTINUOUS
10
85.6667
20
40.9841
11
85.6659
21
40.9842
0
LINE
8
BLACK
6
CONTINUOUS
10
85.6659
20
40.9842
11
85.665
21
40.9844
0
LINE
8
BLACK
6
CONTINUOUS
10
85.665
20
40.9844
11
85.0423
21
41.198
0
LINE
8
BLACK
6
CONTINUOUS
10
85.0423
20
41.198
11
85.0415
21
41.1984
0
LINE
8
BLACK
6
CONTINUOUS
10
85.0415
20
41.1984
11
85.0407
21
41.1989
0
LINE
8
BLACK
6
CONTINUOUS
10
85.0407
20
41.1989
11
84.9507
21
41.2735
0
LINE
8
BLACK
6
CONTINUOUS
10
84.9507
20
41.2735
11
84.59
21
41.4551
0
LINE
8
BLACK
6
CONTINUOUS
10
84.59
20
41.4551
11
84.3145
21
41.2735
0
LINE
8
BLACK
6
CONTINUOUS
10
84.3145
20
41.2735
11
84.3143
21
41.2734
0
LINE
8
BLACK
6
CONTINUOUS
10
84.3143
20
41.2734
11
84.314
21
41.2732
0
LINE
8
BLACK
6
CONTINUOUS
10
84.314
20
41.2732
11
83.8026
21
41.0153
0
LINE
8
BLACK
6
CONTINUOUS
10
83.8026
20
41.0153
11
83.8025
21
41.0152
0
LINE
8
BLACK
6
CONTINUOUS
10
83.8025
20
41.0152
11
83.8025
21
41.0152
0
LINE
8
BLACK
6
CONTINUOUS
10
83.8025
20
41.0152
11
83.8016
21
41.015
0
LINE
8
BLACK
6
CONTINUOUS
10
83.8016
20
41.015
11
83.8007
21
41.0147
0
LINE
8
BLACK
6
CONTINUOUS
10
83.8007
20
41.0147
11
83.8007
21
41.0147
0
LINE
8
BLACK
6
CONTINUOUS
10
83.8007
20
41.0147
11
83.8007
21
41.0147
0
LINE
8
BLACK
6
CONTINUOUS
10
83.8007
20
41.0147
11
83.1695
21
40.97
0
LINE
8
BLACK
6
CONTINUOUS
10
83.1695
20
40.97
11
83.1694
21
40.97
0
LINE
8
BLACK
6
CONTINUOUS
10
83.1694
20
40.97
11
83.1694
21
40.97
0
LINE
8
BLACK
6
CONTINUOUS
10
83.1694
20
40.97
11
83.1685
21
40.9701
0
LINE
8
BLACK
6
CONTINUOUS
10
83.1685
20
40.9701
11
83.1676
21
40.9702
0
LINE
8
BLACK
6
CONTINUOUS
10
83.1676
20
40.9702
11
83.1675
21
40.9703
0
LINE
8
BLACK
6
CONTINUOUS
10
83.1675
20
40.9703
11
83.1674
21
40.9703
0
LINE
8
BLACK
6
CONTINUOUS
10
83.1674
20
40.9703
11
82.6863
21
41.1472
0
LINE
8
BLACK
6
CONTINUOUS
10
82.6863
20
41.1472
11
82.686
21
41.1474
0
LINE
8
BLACK
6
CONTINUOUS
10
82.686
20
41.1474
11
82.6857
21
41.1475
0
LINE
8
BLACK
6
CONTINUOUS
10
82.6857
20
41.1475
11
82.6852
21
41.1479
0
LINE
8
BLACK
6
CONTINUOUS
10
82.6852
20
41.1479
11
82.6847
21
41.1483
0
LINE
8
BLACK
6
CONTINUOUS
10
82.6847
20
41.1483
11
82.6845
21
41.1485
0
LINE
8
BLACK
6
CONTINUOUS
10
82.6845
20
41.1485
11
82.6842
21
41.1487
0
LINE
8
BLACK
6
CONTINUOUS
10
82.6842
20
41.1487
11
82.624
21
41.2207
0
LINE
8
BLACK
6
CONTINUOUS
10
82.624
20
41.2207
11
82.2719
21
41.3423
0
LINE
8
BLACK
6
CONTINUOUS
10
82.2719
20
41.3423
11
81.9621
21
41.2203
0
LINE
8
BLACK
6
CONTINUOUS
10
81.9621
20
41.2203
11
81.9618
21
41.2202
0
LINE
8
BLACK
6
CONTINUOUS
10
81.9618
20
41.2202
11
81.9616
21
41.2201
0
LINE
8
BLACK
6
CONTINUOUS
10
81.9616
20
41.2201
11
81.0465
21
40.9747
0
LINE
8
BLACK
6
CONTINUOUS
10
81.0465
20
40.9747
11
81.0457
21
40.9746
0
LINE
8
BLACK
6
CONTINUOUS
10
81.0457
20
40.9746
11
81.0448
21
40.9745
0
LINE
8
BLACK
6
CONTINUOUS
10
81.0448
20
40.9745
11
80.0311
21
41.0459
0
LINE
8
BLACK
6
CONTINUOUS
10
80.0311
20
41.0459
11
80.0304
21
41.0461
0
LINE
8
BLACK
6
CONTINUOUS
10
80.0304
20
41.0461
11
80.0297
21
41.0462
0
LINE
8
BLACK
6
CONTINUOUS
10
80.0297
20
41.0462
11
79.5333
21
41.2289
0
LINE
8
BLACK
6
CONTINUOUS
10
79.5333
20
41.2289
11
79.5331
21
41.2291
0
LINE
8
BLACK
6
CONTINUOUS
10
79.5331
20
41.2291
11
79.5328
21
41.2291
0
LINE
8
BLACK
6
CONTINUOUS
10
79.5328
20
41.2291
11
79.5323
21
41.2296
0
LINE
8
BLACK
6
CONTINUOUS
10
79.5323
20
41.2296
11
79.5317
21
41.2299
0
LINE
8
BLACK
6
CONTINUOUS
10
79.5317
20
41.2299
11
79.5315
21
41.2302
0
LINE
8
BLACK
6
CONTINUOUS
10
79.5315
20
41.2302
11
79.5313
21
41.2303
0
LINE
8
BLACK
6
CONTINUOUS
10
79.5313
20
41.2303
11
79.123
21
41.7004
0
LINE
8
BLACK
6
CONTINUOUS
10
79.123
20
41.7004
11
79.1228
21
41.7008
0
LINE
8
BLACK
6
CONTINUOUS
10
79.1228
20
41.7008
11
79.1225
21
41.7011
0
LINE
8
BLACK
6
CONTINUOUS
10
79.1225
20
41.7011
11
79.1223
21
41.7016
0
LINE
8
BLACK
6
CONTINUOUS
10
79.1223
20
41.7016
11
79.122
21
41.7021
0
LINE
8
BLACK
6
CONTINUOUS
10
79.122
20
41.7021
11
79.122
21
41.7025
0
LINE
8
BLACK
6
CONTINUOUS
10
79.122
20
41.7025
11
79.1218
21
41.7029
0
LINE
8
BLACK
6
CONTINUOUS
10
79.1218
20
41.7029
11
79.013
21
42.436
0
LINE
8
BLACK
6
CONTINUOUS
10
79.013
20
42.436
11
78.8853
21
43.1327
0
LINE
8
BLACK
6
CONTINUOUS
10
78.8853
20
43.1327
11
78.5796
21
43.3667
0
LINE
8
BLACK
6
CONTINUOUS
10
78.5796
20
43.3667
11
78.2031
21
43.1308
0
LINE
8
BLACK
6
CONTINUOUS
10
78.2031
20
43.1308
11
77.919
21
42.5764
0
LINE
8
BLACK
6
CONTINUOUS
10
77.919
20
42.5764
11
77.9189
21
42.5763
0
LINE
8
BLACK
6
CONTINUOUS
10
77.9189
20
42.5763
11
77.9188
21
42.5762
0
LINE
8
BLACK
6
CONTINUOUS
10
77.9188
20
42.5762
11
77.5075
21
41.8596
0
LINE
8
BLACK
6
CONTINUOUS
10
77.5075
20
41.8596
11
77.507
21
41.8591
0
LINE
8
BLACK
6
CONTINUOUS
10
77.507
20
41.8591
11
77.5066
21
41.8585
0
LINE
8
BLACK
6
CONTINUOUS
10
77.5066
20
41.8585
11
77.0055
21
41.3719
0
LINE
8
BLACK
6
CONTINUOUS
10
77.0055
20
41.3719
11
77.0055
21
41.3719
0
LINE
8
BLACK
6
CONTINUOUS
10
77.0055
20
41.3719
11
77.0055
21
41.3719
0
LINE
8
BLACK
6
CONTINUOUS
10
77.0055
20
41.3719
11
77.0039
21
41.3709
0
LINE
8
BLACK
6
CONTINUOUS
10
77.0039
20
41.3709
11
76.1837
21
41.046
0
LINE
8
BLACK
6
CONTINUOUS
10
76.1837
20
41.046
11
76.183
21
41.0458
0
LINE
8
BLACK
6
CONTINUOUS
10
76.183
20
41.0458
11
76.1823
21
41.0456
0
LINE
8
BLACK
6
CONTINUOUS
10
76.1823
20
41.0456
11
75.2488
21
40.9724
0
LINE
8
BLACK
6
CONTINUOUS
10
75.2488
20
40.9724
11
75.2481
21
40.9725
0
LINE
8
BLACK
6
CONTINUOUS
10
75.2481
20
40.9725
11
75.2473
21
40.9725
0
LINE
8
BLACK
6
CONTINUOUS
10
75.2473
20
40.9725
11
74.4269
21
41.1509
0
LINE
8
BLACK
6
CONTINUOUS
10
74.4269
20
41.1509
11
74.4261
21
41.1513
0
LINE
8
BLACK
6
CONTINUOUS
10
74.4261
20
41.1513
11
74.4252
21
41.1516
0
LINE
8
BLACK
6
CONTINUOUS
10
74.4252
20
41.1516
11
74.0883
21
41.3724
0
LINE
8
BLACK
6
CONTINUOUS
10
74.0883
20
41.3724
11
74.0882
21
41.3725
0
LINE
8
BLACK
6
CONTINUOUS
10
74.0882
20
41.3725
11
74.0881
21
41.3726
0
LINE
8
BLACK
6
CONTINUOUS
10
74.0881
20
41.3726
11
74.0876
21
41.3732
0
LINE
8
BLACK
6
CONTINUOUS
10
74.0876
20
41.3732
11
74.0869
21
41.3738
0
LINE
8
BLACK
6
CONTINUOUS
10
74.0869
20
41.3738
11
74.0869
21
41.3739
0
LINE
8
BLACK
6
CONTINUOUS
10
74.0869
20
41.3739
11
74.0868
21
41.374
0
LINE
8
BLACK
6
CONTINUOUS
10
74.0868
20
41.374
11
73.538
21
42.2793
0
LINE
8
BLACK
6
CONTINUOUS
10
73.538
20
42.2793
11
73.5379
21
42.2794
0
LINE
8
BLACK
6
CONTINUOUS
10
73.5379
20
42.2794
11
73.5378
21
42.2796
0
LINE
8
BLACK
6
CONTINUOUS
10
73.5378
20
42.2796
11
73.5376
21
42.2803
0
LINE
8
BLACK
6
CONTINUOUS
10
73.5376
20
42.2803
11
73.5373
21
42.2811
0
LINE
8
BLACK
6
CONTINUOUS
10
73.5373
20
42.2811
11
73.5373
21
42.2813
0
LINE
8
BLACK
6
CONTINUOUS
10
73.5373
20
42.2813
11
73.5373
21
42.2814
0
LINE
8
BLACK
6
CONTINUOUS
10
73.5373
20
42.2814
11
73.4384
21
43.4039
0
LINE
8
BLACK
6
CONTINUOUS
10
73.4384
20
43.4039
11
73.4385
21
43.4048
0
LINE
8
BLACK
6
CONTINUOUS
10
73.4385
20
43.4048
11
73.4386
21
43.4057
0
LINE
8
BLACK
6
CONTINUOUS
10
73.4386
20
43.4057
11
73.7844
21
44.682
0
LINE
8
BLACK
6
CONTINUOUS
10
73.7844
20
44.682
11
73.7846
21
44.6825
0
LINE
8
BLACK
6
CONTINUOUS
10
73.7846
20
44.6825
11
73.7848
21
44.6831
0
LINE
8
BLACK
6
CONTINUOUS
10
73.7848
20
44.6831
11
74.4603
21
45.8941
0
LINE
8
BLACK
6
CONTINUOUS
10
74.4603
20
45.8941
11
74.4607
21
45.8945
0
LINE
8
BLACK
6
CONTINUOUS
10
74.4607
20
45.8945
11
74.4609
21
45.8949
0
LINE
8
BLACK
6
CONTINUOUS
10
74.4609
20
45.8949
11
75.3606
21
46.9539
0
LINE
8
BLACK
6
CONTINUOUS
10
75.3606
20
46.9539
11
75.3611
21
46.9543
0
LINE
8
BLACK
6
CONTINUOUS
10
75.3611
20
46.9543
11
75.3614
21
46.9547
0
LINE
8
BLACK
6
CONTINUOUS
10
75.3614
20
46.9547
11
76.3466
21
47.7049
0
LINE
8
BLACK
6
CONTINUOUS
10
76.3466
20
47.7049
11
76.3472
21
47.7052
0
LINE
8
BLACK
6
CONTINUOUS
10
76.3472
20
47.7052
11
76.3477
21
47.7056
0
LINE
8
BLACK
6
CONTINUOUS
10
76.3477
20
47.7056
11
77.3309
21
48.1165
0
LINE
8
BLACK
6
CONTINUOUS
10
77.3309
20
48.1165
11
77.3318
21
48.1167
0
LINE
8
BLACK
6
CONTINUOUS
10
77.3318
20
48.1167
11
77.3326
21
48.1169
0
LINE
8
BLACK
6
CONTINUOUS
10
77.3326
20
48.1169
11
78.2264
21
48.1579
0
LINE
8
BLACK
6
CONTINUOUS
10
78.2264
20
48.1579
11
78.2267
21
48.1578
0
LINE
8
BLACK
6
CONTINUOUS
10
92.6294
20
46.7254
11
92.6297
21
46.7253
0
LINE
8
BLACK
6
CONTINUOUS
10
92.6297
20
46.7253
11
92.63
21
46.7253
0
LINE
8
BLACK
6
CONTINUOUS
10
92.63
20
46.7253
11
92.6307
21
46.7251
0
LINE
8
BLACK
6
CONTINUOUS
10
92.6307
20
46.7251
11
92.6313
21
46.7249
0
LINE
8
BLACK
6
CONTINUOUS
10
92.6313
20
46.7249
11
92.6316
21
46.7247
0
LINE
8
BLACK
6
CONTINUOUS
10
92.6316
20
46.7247
11
92.6319
21
46.7246
0
LINE
8
BLACK
6
CONTINUOUS
10
92.6319
20
46.7246
11
92.633
21
46.7239
0
LINE
8
BLACK
6
CONTINUOUS
10
92.633
20
46.7239
11
92.6331
21
46.7239
0
LINE
8
BLACK
6
CONTINUOUS
10
92.6331
20
46.7239
11
92.6331
21
46.7238
0
LINE
8
BLACK
6
CONTINUOUS
10
92.6331
20
46.7238
11
92.6338
21
46.7232
0
LINE
8
BLACK
6
CONTINUOUS
10
92.6338
20
46.7232
11
92.6344
21
46.7226
0
LINE
8
BLACK
6
CONTINUOUS
10
92.6344
20
46.7226
11
92.6345
21
46.7225
0
LINE
8
BLACK
6
CONTINUOUS
10
92.6345
20
46.7225
11
92.6345
21
46.7225
0
LINE
8
BLACK
6
CONTINUOUS
10
92.6345
20
46.7225
11
92.8899
21
46.3456
0
LINE
8
BLACK
6
CONTINUOUS
10
92.8899
20
46.3456
11
92.8901
21
46.3452
0
LINE
8
BLACK
6
CONTINUOUS
10
92.8901
20
46.3452
11
92.8904
21
46.3447
0
LINE
8
BLACK
6
CONTINUOUS
10
92.8904
20
46.3447
11
92.8905
21
46.3443
0
LINE
8
BLACK
6
CONTINUOUS
10
92.8905
20
46.3443
11
92.8907
21
46.3438
0
LINE
8
BLACK
6
CONTINUOUS
10
92.8907
20
46.3438
11
92.8907
21
46.3433
0
LINE
8
BLACK
6
CONTINUOUS
10
92.8907
20
46.3433
11
92.8908
21
46.3428
0
LINE
8
BLACK
6
CONTINUOUS
10
92.8908
20
46.3428
11
92.8905
21
45.8641
0
LINE
8
BLACK
6
CONTINUOUS
10
92.8905
20
45.8641
11
92.8904
21
45.8635
0
LINE
8
BLACK
6
CONTINUOUS
10
92.8904
20
45.8635
11
92.8904
21
45.863
0
LINE
8
BLACK
6
CONTINUOUS
10
92.8904
20
45.863
11
92.8902
21
45.8626
0
LINE
8
BLACK
6
CONTINUOUS
10
92.8902
20
45.8626
11
92.8901
21
45.8622
0
LINE
8
BLACK
6
CONTINUOUS
10
92.8901
20
45.8622
11
92.8898
21
45.8617
0
LINE
8
BLACK
6
CONTINUOUS
10
92.8898
20
45.8617
11
92.8896
21
45.8612
0
LINE
8
BLACK
6
CONTINUOUS
10
92.8896
20
45.8612
11
92.6582
21
45.5324
0
LINE
8
BLACK
6
CONTINUOUS
10
92.6582
20
45.5324
11
92.6576
21
45.5319
0
LINE
8
BLACK
6
CONTINUOUS
10
92.6576
20
45.5319
11
92.657
21
45.5313
0
LINE
8
BLACK
6
CONTINUOUS
10
92.657
20
45.5313
11
92.6569
21
45.5312
0
LINE
8
BLACK
6
CONTINUOUS
10
92.6569
20
45.5312
11
92.6568
21
45.5311
0
LINE
8
BLACK
6
CONTINUOUS
10
92.6568
20
45.5311
11
92.656
21
45.5308
0
LINE
8
BLACK
6
CONTINUOUS
10
92.656
20
45.5308
11
92.6553
21
45.5305
0
LINE
8
BLACK
6
CONTINUOUS
10
92.6553
20
45.5305
11
92.5127
21
45.4972
0
LINE
8
BLACK
6
CONTINUOUS
10
92.5127
20
45.4972
11
92.512
21
45.4972
0
LINE
8
BLACK
6
CONTINUOUS
10
92.512
20
45.4972
11
92.5113
21
45.4971
0
LINE
8
BLACK
6
CONTINUOUS
10
92.5113
20
45.4971
11
92.511
21
45.4972
0
LINE
8
BLACK
6
CONTINUOUS
10
92.511
20
45.4972
11
92.5108
21
45.4972
0
LINE
8
BLACK
6
CONTINUOUS
10
92.5108
20
45.4972
11
92.5101
21
45.4974
0
LINE
8
BLACK
6
CONTINUOUS
10
92.5101
20
45.4974
11
92.5094
21
45.4976
0
LINE
8
BLACK
6
CONTINUOUS
10
92.5094
20
45.4976
11
92.0677
21
45.7147
0
LINE
8
BLACK
6
CONTINUOUS
10
92.0677
20
45.7147
11
92.0674
21
45.7149
0
LINE
8
BLACK
6
CONTINUOUS
10
92.0674
20
45.7149
11
92.067
21
45.7151
0
LINE
8
BLACK
6
CONTINUOUS
10
92.067
20
45.7151
11
92.0666
21
45.7155
0
LINE
8
BLACK
6
CONTINUOUS
10
92.0666
20
45.7155
11
92.0662
21
45.7158
0
LINE
8
BLACK
6
CONTINUOUS
10
92.0662
20
45.7158
11
92.066
21
45.7162
0
LINE
8
BLACK
6
CONTINUOUS
10
92.066
20
45.7162
11
92.0657
21
45.7165
0
LINE
8
BLACK
6
CONTINUOUS
10
92.0657
20
45.7165
11
91.9372
21
45.9184
0
LINE
8
BLACK
6
CONTINUOUS
10
91.9372
20
45.9184
11
91.937
21
45.9189
0
LINE
8
BLACK
6
CONTINUOUS
10
91.937
20
45.9189
11
91.9367
21
45.9192
0
LINE
8
BLACK
6
CONTINUOUS
10
91.9367
20
45.9192
11
91.9366
21
45.9198
0
LINE
8
BLACK
6
CONTINUOUS
10
91.9366
20
45.9198
11
91.9364
21
45.9203
0
LINE
8
BLACK
6
CONTINUOUS
10
91.9364
20
45.9203
11
91.9365
21
45.9207
0
LINE
8
BLACK
6
CONTINUOUS
10
91.9365
20
45.9207
11
91.9364
21
45.9211
0
LINE
8
BLACK
6
CONTINUOUS
10
91.9364
20
45.9211
11
91.9382
21
46.4074
0
LINE
8
BLACK
6
CONTINUOUS
10
91.9382
20
46.4074
11
91.9384
21
46.4082
0
LINE
8
BLACK
6
CONTINUOUS
10
91.9384
20
46.4082
11
91.9385
21
46.4089
0
LINE
8
BLACK
6
CONTINUOUS
10
91.9385
20
46.4089
11
91.9386
21
46.4091
0
LINE
8
BLACK
6
CONTINUOUS
10
91.9386
20
46.4091
11
91.9386
21
46.4093
0
LINE
8
BLACK
6
CONTINUOUS
10
91.9386
20
46.4093
11
91.9391
21
46.41
0
LINE
8
BLACK
6
CONTINUOUS
10
91.9391
20
46.41
11
91.9394
21
46.4106
0
LINE
8
BLACK
6
CONTINUOUS
10
91.9394
20
46.4106
11
92.2227
21
46.7396
0
LINE
8
BLACK
6
CONTINUOUS
10
92.2227
20
46.7396
11
92.2229
21
46.7398
0
LINE
8
BLACK
6
CONTINUOUS
10
92.2229
20
46.7398
11
92.2231
21
46.74
0
LINE
8
BLACK
6
CONTINUOUS
10
92.2231
20
46.74
11
92.2237
21
46.7404
0
LINE
8
BLACK
6
CONTINUOUS
10
92.2237
20
46.7404
11
92.2242
21
46.7408
0
LINE
8
BLACK
6
CONTINUOUS
10
92.2242
20
46.7408
11
92.2245
21
46.7409
0
LINE
8
BLACK
6
CONTINUOUS
10
92.2245
20
46.7409
11
92.2248
21
46.741
0
LINE
8
BLACK
6
CONTINUOUS
10
92.2248
20
46.741
11
92.2254
21
46.7411
0
LINE
8
BLACK
6
CONTINUOUS
10
92.2254
20
46.7411
11
92.2261
21
46.7413
0
LINE
8
BLACK
6
CONTINUOUS
10
92.2261
20
46.7413
11
92.2264
21
46.7413
0
LINE
8
BLACK
6
CONTINUOUS
10
92.2264
20
46.7413
11
92.2267
21
46.7413
0
LINE
8
BLACK
6
CONTINUOUS
10
92.2267
20
46.7413
11
92.6294
21
46.7254
0
LINE
8
BLACK
6
CONTINUOUS
10
198.171
20
134.267
11
198.171
21
136.167
0
LINE
8
BLACK
6
CONTINUOUS
10
198.171
20
130.367
11
198.171
21
132.367
0
LINE
8
BLACK
6
CONTINUOUS
10
188.771
20
134.267
11
188.771
21
136.167
0
LINE
8
BLACK
6
CONTINUOUS
10
188.771
20
130.367
11
188.771
21
132.367
0
LINE
8
BLACK
6
CONTINUOUS
10
198.171
20
136.167
11
188.771
21
136.167
0
LINE
8
BLACK
6
CONTINUOUS
10
27.6418
20
34.6675
11
25.1818
21
34.6675
0
LINE
8
BLACK
6
CONTINUOUS
10
25.1818
20
34.6675
11
25.1818
21
33.1975
0
LINE
8
BLACK
6
CONTINUOUS
10
25.1818
20
33.1975
11
27.6418
21
33.1975
0
LINE
8
BLACK
6
CONTINUOUS
10
27.6515
20
43.6574
11
25.1915
21
43.6574
0
LINE
8
BLACK
6
CONTINUOUS
10
25.1915
20
43.6574
11
25.1915
21
42.1874
0
LINE
8
BLACK
6
CONTINUOUS
10
25.1915
20
42.1874
11
27.6515
21
42.1874
0
LINE
8
BLACK
6
CONTINUOUS
10
27.6515
20
39.2574
11
25.1915
21
39.2574
0
LINE
8
BLACK
6
CONTINUOUS
10
25.1915
20
39.2574
11
25.1915
21
37.7874
0
LINE
8
BLACK
6
CONTINUOUS
10
25.1915
20
37.7874
11
27.6515
21
37.7874
0
LINE
8
BLACK
6
CONTINUOUS
10
25.2536
20
44.2004
11
25.2536
21
44.0444
0
LINE
8
BLACK
6
CONTINUOUS
10
25.2536
20
41.8844
11
25.2536
21
41.7284
0
ARC
8
BLACK
10
26.8136
20
42.9644
40
1.5
50
-133.946
51
-46.0455
0
ARC
8
BLACK
10
26.8136
20
42.9644
40
1.5
50
46.0455
51
133.946
0
ARC
8
BLACK
10
26.8136
20
42.9644
40
1.99
50
-141.621
51
-32.8209
0
ARC
8
BLACK
10
26.8136
20
42.9644
40
1.99
50
32.8209
51
141.621
0
LINE
8
BLACK
6
CONTINUOUS
10
25.2536
20
35.2003
11
25.2536
21
35.0443
0
LINE
8
BLACK
6
CONTINUOUS
10
25.2536
20
32.8843
11
25.2536
21
32.7283
0
ARC
8
BLACK
10
26.8136
20
33.9643
40
1.5
50
-133.946
51
-46.0455
0
ARC
8
BLACK
10
26.8136
20
33.9643
40
1.5
50
46.0455
51
133.946
0
ARC
8
BLACK
10
26.8136
20
33.9643
40
1.99
50
-141.621
51
-32.8209
0
ARC
8
BLACK
10
26.8136
20
33.9643
40
1.99
50
32.8209
51
141.621
0
LINE
8
BLACK
6
CONTINUOUS
10
25.2536
20
39.7003
11
25.2536
21
39.5443
0
LINE
8
BLACK
6
CONTINUOUS
10
25.2536
20
37.3843
11
25.2536
21
37.2283
0
ARC
8
BLACK
10
26.8136
20
38.4643
40
1.5
50
-133.946
51
-46.0455
0
ARC
8
BLACK
10
26.8136
20
38.4643
40
1.5
50
46.0455
51
133.946
0
ARC
8
BLACK
10
26.8136
20
38.4643
40
1.99
50
-141.621
51
-32.8209
0
ARC
8
BLACK
10
26.8136
20
38.4643
40
1.99
50
32.8209
51
141.621
  0
ENDSEC
  0
EOF
