  0
SECTION
  2
HEADER
  9
$ANGBASE
  50
0.0
  9
$ANGDIR
  70
1
  9
$MEASUREMENT
  70
1
  0
ENDSEC
  0
SECTION
  2
TABLES
  0
TABLE
  2
LTYPE
  70
4
  0
LTYPE
  5
40F
  2
CONTINUOUS
  70
0
  3
Solid line
  72
65
  73
0
  40
0.0
  0
LTYPE
  5
410
  2
DASHDOT
 70
0
  3
Dash Dot ____ _ ____ _
 72
65
 73
4
 40
2.0
 49
1.25
 49
-0.25
 49
0.25
 49
-0.25
  0
LTYPE
  5
411
  2
DASHED
 70
0
  3
Dashed __ __ __ __ __
 72
65
 73
2
 40
0.75
 49
0.5
 49
-0.25
  0
LTYPE
  5
43B
  2
DOTTED
 70
0
  3
Dotted .  .  .  .
 72
65
 73
2
 40
0.2
 49
0.0
 49
-0.2
  0
ENDTAB
  0
TABLE
  2
STYLE
  70
4
  0
STYLE
  2
KICAD
  70
0
  40
0
  41
1
  42
1
  50
0
  71
0
  3
isocp.shx
  0
STYLE
  2
KICADB
  70
0
  40
0
  41
1
  42
1
  50
0
  71
0
  3
isocp.shx
  0
STYLE
  2
KICADI
  70
0
  40
0
  41
1
  42
1
  50
15
  71
0
  3
isocp.shx
  0
STYLE
  2
KICADBI
  70
0
  40
0
  41
1
  42
1
  50
15
  71
0
  3
isocp.shx
  0
ENDTAB
  0
TABLE
  2
LAYER
  70
1
  0
LAYER
  2
BLACK
  70
0
  62
7
  6
CONTINUOUS
  0
ENDTAB
  0
ENDSEC
  0
SECTION
  2
ENTITIES
0
LINE
8
BLACK
6
CONTINUOUS
10
204.501
20
21.9466
11
202.838
21
21.5932
0
LINE
8
BLACK
6
CONTINUOUS
10
202.838
20
21.5932
11
202.63
21
22.5713
0
LINE
8
BLACK
6
CONTINUOUS
10
202.63
20
22.5713
11
204.293
21
22.9248
0
LINE
8
BLACK
6
CONTINUOUS
10
204.293
20
22.9248
11
204.501
21
21.9466
0
LINE
8
BLACK
6
CONTINUOUS
10
210.663
20
23.2565
11
209
21
22.903
0
LINE
8
BLACK
6
CONTINUOUS
10
209
20
22.903
11
208.792
21
23.8812
0
LINE
8
BLACK
6
CONTINUOUS
10
208.792
20
23.8812
11
210.455
21
24.2346
0
LINE
8
BLACK
6
CONTINUOUS
10
210.455
20
24.2346
11
210.663
21
23.2565
0
LINE
8
BLACK
6
CONTINUOUS
10
203.711
20
25.6636
11
202.048
21
25.3102
0
LINE
8
BLACK
6
CONTINUOUS
10
202.048
20
25.3102
11
201.84
21
26.2883
0
LINE
8
BLACK
6
CONTINUOUS
10
201.84
20
26.2883
11
203.503
21
26.6418
0
LINE
8
BLACK
6
CONTINUOUS
10
203.503
20
26.6418
11
203.711
21
25.6636
0
LINE
8
BLACK
6
CONTINUOUS
10
209.873
20
26.9734
11
208.21
21
26.62
0
LINE
8
BLACK
6
CONTINUOUS
10
208.21
20
26.62
11
208.002
21
27.5981
0
LINE
8
BLACK
6
CONTINUOUS
10
208.002
20
27.5981
11
209.665
21
27.9516
0
LINE
8
BLACK
6
CONTINUOUS
10
209.665
20
27.9516
11
209.873
21
26.9734
0
LINE
8
BLACK
6
CONTINUOUS
10
201.751
20
30.1275
11
200.773
21
29.9196
0
LINE
8
BLACK
6
CONTINUOUS
10
200.773
20
29.9196
11
200.606
21
30.7021
0
LINE
8
BLACK
6
CONTINUOUS
10
200.606
20
30.7021
11
201.584
21
30.91
0
LINE
8
BLACK
6
CONTINUOUS
10
201.584
20
30.91
11
201.751
21
30.1275
0
LINE
8
BLACK
6
CONTINUOUS
10
208.891
20
31.6452
11
207.913
21
31.4373
0
LINE
8
BLACK
6
CONTINUOUS
10
207.913
20
31.4373
11
207.747
21
32.2198
0
LINE
8
BLACK
6
CONTINUOUS
10
207.747
20
32.2198
11
208.725
21
32.4277
0
LINE
8
BLACK
6
CONTINUOUS
10
208.725
20
32.4277
11
208.891
21
31.6452
0
LINE
8
BLACK
6
CONTINUOUS
10
201.291
20
32.2892
11
200.313
21
32.0813
0
LINE
8
BLACK
6
CONTINUOUS
10
200.313
20
32.0813
11
200.147
21
32.8638
0
LINE
8
BLACK
6
CONTINUOUS
10
200.147
20
32.8638
11
201.125
21
33.0717
0
LINE
8
BLACK
6
CONTINUOUS
10
201.125
20
33.0717
11
201.291
21
32.2892
0
LINE
8
BLACK
6
CONTINUOUS
10
202.452
20
32.8425
11
201.767
21
32.697
0
LINE
8
BLACK
6
CONTINUOUS
10
201.767
20
32.697
11
201.455
21
34.1642
0
LINE
8
BLACK
6
CONTINUOUS
10
201.455
20
34.1642
11
202.14
21
34.3097
0
LINE
8
BLACK
6
CONTINUOUS
10
202.14
20
34.3097
11
202.452
21
32.8425
0
LINE
8
BLACK
6
CONTINUOUS
10
205.107
20
34.7795
11
205.302
21
34.821
0
LINE
8
BLACK
6
CONTINUOUS
10
205.302
20
34.821
11
205.54
21
33.703
0
LINE
8
BLACK
6
CONTINUOUS
10
205.54
20
33.703
11
205.345
21
33.6614
0
LINE
8
BLACK
6
CONTINUOUS
10
205.345
20
33.6614
11
205.386
21
33.4662
0
LINE
8
BLACK
6
CONTINUOUS
10
205.386
20
33.4662
11
204.701
21
33.3207
0
LINE
8
BLACK
6
CONTINUOUS
10
204.701
20
33.3207
11
204.39
21
34.7879
0
LINE
8
BLACK
6
CONTINUOUS
10
204.39
20
34.7879
11
205.074
21
34.9335
0
LINE
8
BLACK
6
CONTINUOUS
10
205.074
20
34.9335
11
205.107
21
34.7795
0
LINE
8
BLACK
6
CONTINUOUS
10
26.3006
20
34.403
11
26.3451
21
34.3895
0
LINE
8
BLACK
6
CONTINUOUS
10
26.3451
20
34.3895
11
26.3862
21
34.3675
0
LINE
8
BLACK
6
CONTINUOUS
10
26.3862
20
34.3675
11
26.4222
21
34.338
0
LINE
8
BLACK
6
CONTINUOUS
10
26.4222
20
34.338
11
26.4517
21
34.302
0
LINE
8
BLACK
6
CONTINUOUS
10
26.4517
20
34.302
11
26.4737
21
34.2609
0
LINE
8
BLACK
6
CONTINUOUS
10
26.4737
20
34.2609
11
26.4872
21
34.2164
0
LINE
8
BLACK
6
CONTINUOUS
10
26.4872
20
34.2164
11
26.4918
21
34.17
0
LINE
8
BLACK
6
CONTINUOUS
10
26.4918
20
34.17
11
26.4918
21
33.695
0
LINE
8
BLACK
6
CONTINUOUS
10
26.4918
20
33.695
11
26.4872
21
33.6487
0
LINE
8
BLACK
6
CONTINUOUS
10
26.4872
20
33.6487
11
26.4737
21
33.6042
0
LINE
8
BLACK
6
CONTINUOUS
10
26.4737
20
33.6042
11
26.4517
21
33.5631
0
LINE
8
BLACK
6
CONTINUOUS
10
26.4517
20
33.5631
11
26.4222
21
33.5271
0
LINE
8
BLACK
6
CONTINUOUS
10
26.4222
20
33.5271
11
26.3862
21
33.4976
0
LINE
8
BLACK
6
CONTINUOUS
10
26.3862
20
33.4976
11
26.3451
21
33.4756
0
LINE
8
BLACK
6
CONTINUOUS
10
26.3451
20
33.4756
11
26.3006
21
33.4621
0
LINE
8
BLACK
6
CONTINUOUS
10
26.3006
20
33.4621
11
26.2543
21
33.4575
0
LINE
8
BLACK
6
CONTINUOUS
10
26.2543
20
33.4575
11
25.6793
21
33.4575
0
LINE
8
BLACK
6
CONTINUOUS
10
25.6793
20
33.4575
11
25.6329
21
33.4621
0
LINE
8
BLACK
6
CONTINUOUS
10
25.6329
20
33.4621
11
25.5884
21
33.4756
0
LINE
8
BLACK
6
CONTINUOUS
10
25.5884
20
33.4756
11
25.5473
21
33.4976
0
LINE
8
BLACK
6
CONTINUOUS
10
25.5473
20
33.4976
11
25.5113
21
33.5271
0
LINE
8
BLACK
6
CONTINUOUS
10
25.5113
20
33.5271
11
25.4818
21
33.5631
0
LINE
8
BLACK
6
CONTINUOUS
10
25.4818
20
33.5631
11
25.4598
21
33.6042
0
LINE
8
BLACK
6
CONTINUOUS
10
25.4598
20
33.6042
11
25.4463
21
33.6487
0
LINE
8
BLACK
6
CONTINUOUS
10
25.4463
20
33.6487
11
25.4418
21
33.695
0
LINE
8
BLACK
6
CONTINUOUS
10
25.4418
20
33.695
11
25.4418
21
34.17
0
LINE
8
BLACK
6
CONTINUOUS
10
25.4418
20
34.17
11
25.4463
21
34.2164
0
LINE
8
BLACK
6
CONTINUOUS
10
25.4463
20
34.2164
11
25.4598
21
34.2609
0
LINE
8
BLACK
6
CONTINUOUS
10
25.4598
20
34.2609
11
25.4818
21
34.302
0
LINE
8
BLACK
6
CONTINUOUS
10
25.4818
20
34.302
11
25.5113
21
34.338
0
LINE
8
BLACK
6
CONTINUOUS
10
25.5113
20
34.338
11
25.5473
21
34.3675
0
LINE
8
BLACK
6
CONTINUOUS
10
25.5473
20
34.3675
11
25.5884
21
34.3895
0
LINE
8
BLACK
6
CONTINUOUS
10
25.5884
20
34.3895
11
25.6329
21
34.403
0
LINE
8
BLACK
6
CONTINUOUS
10
25.6329
20
34.403
11
25.6793
21
34.4075
0
LINE
8
BLACK
6
CONTINUOUS
10
25.6793
20
34.4075
11
26.2543
21
34.4075
0
LINE
8
BLACK
6
CONTINUOUS
10
26.2543
20
34.4075
11
26.3006
21
34.403
0
LINE
8
BLACK
6
CONTINUOUS
10
28.0506
20
34.403
11
28.0951
21
34.3895
0
LINE
8
BLACK
6
CONTINUOUS
10
28.0951
20
34.3895
11
28.1362
21
34.3675
0
LINE
8
BLACK
6
CONTINUOUS
10
28.1362
20
34.3675
11
28.1722
21
34.338
0
LINE
8
BLACK
6
CONTINUOUS
10
28.1722
20
34.338
11
28.2017
21
34.302
0
LINE
8
BLACK
6
CONTINUOUS
10
28.2017
20
34.302
11
28.2237
21
34.2609
0
LINE
8
BLACK
6
CONTINUOUS
10
28.2237
20
34.2609
11
28.2372
21
34.2164
0
LINE
8
BLACK
6
CONTINUOUS
10
28.2372
20
34.2164
11
28.2418
21
34.17
0
LINE
8
BLACK
6
CONTINUOUS
10
28.2418
20
34.17
11
28.2418
21
33.695
0
LINE
8
BLACK
6
CONTINUOUS
10
28.2418
20
33.695
11
28.2372
21
33.6487
0
LINE
8
BLACK
6
CONTINUOUS
10
28.2372
20
33.6487
11
28.2237
21
33.6042
0
LINE
8
BLACK
6
CONTINUOUS
10
28.2237
20
33.6042
11
28.2017
21
33.5631
0
LINE
8
BLACK
6
CONTINUOUS
10
28.2017
20
33.5631
11
28.1722
21
33.5271
0
LINE
8
BLACK
6
CONTINUOUS
10
28.1722
20
33.5271
11
28.1362
21
33.4976
0
LINE
8
BLACK
6
CONTINUOUS
10
28.1362
20
33.4976
11
28.0951
21
33.4756
0
LINE
8
BLACK
6
CONTINUOUS
10
28.0951
20
33.4756
11
28.0506
21
33.4621
0
LINE
8
BLACK
6
CONTINUOUS
10
28.0506
20
33.4621
11
28.0043
21
33.4575
0
LINE
8
BLACK
6
CONTINUOUS
10
28.0043
20
33.4575
11
27.4293
21
33.4575
0
LINE
8
BLACK
6
CONTINUOUS
10
27.4293
20
33.4575
11
27.3829
21
33.4621
0
LINE
8
BLACK
6
CONTINUOUS
10
27.3829
20
33.4621
11
27.3384
21
33.4756
0
LINE
8
BLACK
6
CONTINUOUS
10
27.3384
20
33.4756
11
27.2973
21
33.4976
0
LINE
8
BLACK
6
CONTINUOUS
10
27.2973
20
33.4976
11
27.2613
21
33.5271
0
LINE
8
BLACK
6
CONTINUOUS
10
27.2613
20
33.5271
11
27.2318
21
33.5631
0
LINE
8
BLACK
6
CONTINUOUS
10
27.2318
20
33.5631
11
27.2098
21
33.6042
0
LINE
8
BLACK
6
CONTINUOUS
10
27.2098
20
33.6042
11
27.1963
21
33.6487
0
LINE
8
BLACK
6
CONTINUOUS
10
27.1963
20
33.6487
11
27.1918
21
33.695
0
LINE
8
BLACK
6
CONTINUOUS
10
27.1918
20
33.695
11
27.1918
21
34.17
0
LINE
8
BLACK
6
CONTINUOUS
10
27.1918
20
34.17
11
27.1963
21
34.2164
0
LINE
8
BLACK
6
CONTINUOUS
10
27.1963
20
34.2164
11
27.2098
21
34.2609
0
LINE
8
BLACK
6
CONTINUOUS
10
27.2098
20
34.2609
11
27.2318
21
34.302
0
LINE
8
BLACK
6
CONTINUOUS
10
27.2318
20
34.302
11
27.2613
21
34.338
0
LINE
8
BLACK
6
CONTINUOUS
10
27.2613
20
34.338
11
27.2973
21
34.3675
0
LINE
8
BLACK
6
CONTINUOUS
10
27.2973
20
34.3675
11
27.3384
21
34.3895
0
LINE
8
BLACK
6
CONTINUOUS
10
27.3384
20
34.3895
11
27.3829
21
34.403
0
LINE
8
BLACK
6
CONTINUOUS
10
27.3829
20
34.403
11
27.4293
21
34.4075
0
LINE
8
BLACK
6
CONTINUOUS
10
27.4293
20
34.4075
11
28.0043
21
34.4075
0
LINE
8
BLACK
6
CONTINUOUS
10
28.0043
20
34.4075
11
28.0506
21
34.403
0
LINE
8
BLACK
6
CONTINUOUS
10
208.432
20
33.8069
11
207.454
21
33.599
0
LINE
8
BLACK
6
CONTINUOUS
10
207.454
20
33.599
11
207.287
21
34.3815
0
LINE
8
BLACK
6
CONTINUOUS
10
207.287
20
34.3815
11
208.265
21
34.5894
0
LINE
8
BLACK
6
CONTINUOUS
10
208.265
20
34.5894
11
208.432
21
33.8069
0
LINE
8
BLACK
6
CONTINUOUS
10
206.853
20
33.7781
11
206.169
21
33.6326
0
LINE
8
BLACK
6
CONTINUOUS
10
206.169
20
33.6326
11
206.127
21
33.8278
0
LINE
8
BLACK
6
CONTINUOUS
10
206.127
20
33.8278
11
205.898
21
33.779
0
LINE
8
BLACK
6
CONTINUOUS
10
205.898
20
33.779
11
205.66
21
34.897
0
LINE
8
BLACK
6
CONTINUOUS
10
205.66
20
34.897
11
205.889
21
34.9458
0
LINE
8
BLACK
6
CONTINUOUS
10
205.889
20
34.9458
11
205.857
21
35.0998
0
LINE
8
BLACK
6
CONTINUOUS
10
205.857
20
35.0998
11
206.541
21
35.2453
0
LINE
8
BLACK
6
CONTINUOUS
10
206.541
20
35.2453
11
206.853
21
33.7781
0
LINE
8
BLACK
6
CONTINUOUS
10
26.3103
20
38.9928
11
26.3549
21
38.9793
0
LINE
8
BLACK
6
CONTINUOUS
10
26.3549
20
38.9793
11
26.3959
21
38.9574
0
LINE
8
BLACK
6
CONTINUOUS
10
26.3959
20
38.9574
11
26.4319
21
38.9278
0
LINE
8
BLACK
6
CONTINUOUS
10
26.4319
20
38.9278
11
26.4615
21
38.8918
0
LINE
8
BLACK
6
CONTINUOUS
10
26.4615
20
38.8918
11
26.4834
21
38.8508
0
LINE
8
BLACK
6
CONTINUOUS
10
26.4834
20
38.8508
11
26.4969
21
38.8062
0
LINE
8
BLACK
6
CONTINUOUS
10
26.4969
20
38.8062
11
26.5015
21
38.7599
0
LINE
8
BLACK
6
CONTINUOUS
10
26.5015
20
38.7599
11
26.5015
21
38.2849
0
LINE
8
BLACK
6
CONTINUOUS
10
26.5015
20
38.2849
11
26.4969
21
38.2386
0
LINE
8
BLACK
6
CONTINUOUS
10
26.4969
20
38.2386
11
26.4834
21
38.194
0
LINE
8
BLACK
6
CONTINUOUS
10
26.4834
20
38.194
11
26.4615
21
38.153
0
LINE
8
BLACK
6
CONTINUOUS
10
26.4615
20
38.153
11
26.4319
21
38.117
0
LINE
8
BLACK
6
CONTINUOUS
10
26.4319
20
38.117
11
26.3959
21
38.0874
0
LINE
8
BLACK
6
CONTINUOUS
10
26.3959
20
38.0874
11
26.3549
21
38.0655
0
LINE
8
BLACK
6
CONTINUOUS
10
26.3549
20
38.0655
11
26.3103
21
38.052
0
LINE
8
BLACK
6
CONTINUOUS
10
26.3103
20
38.052
11
26.264
21
38.0474
0
LINE
8
BLACK
6
CONTINUOUS
10
26.264
20
38.0474
11
25.689
21
38.0474
0
LINE
8
BLACK
6
CONTINUOUS
10
25.689
20
38.0474
11
25.6427
21
38.052
0
LINE
8
BLACK
6
CONTINUOUS
10
25.6427
20
38.052
11
25.5981
21
38.0655
0
LINE
8
BLACK
6
CONTINUOUS
10
25.5981
20
38.0655
11
25.557
21
38.0874
0
LINE
8
BLACK
6
CONTINUOUS
10
25.557
20
38.0874
11
25.5211
21
38.117
0
LINE
8
BLACK
6
CONTINUOUS
10
25.5211
20
38.117
11
25.4915
21
38.153
0
LINE
8
BLACK
6
CONTINUOUS
10
25.4915
20
38.153
11
25.4696
21
38.194
0
LINE
8
BLACK
6
CONTINUOUS
10
25.4696
20
38.194
11
25.4561
21
38.2386
0
LINE
8
BLACK
6
CONTINUOUS
10
25.4561
20
38.2386
11
25.4515
21
38.2849
0
LINE
8
BLACK
6
CONTINUOUS
10
25.4515
20
38.2849
11
25.4515
21
38.7599
0
LINE
8
BLACK
6
CONTINUOUS
10
25.4515
20
38.7599
11
25.4561
21
38.8062
0
LINE
8
BLACK
6
CONTINUOUS
10
25.4561
20
38.8062
11
25.4696
21
38.8508
0
LINE
8
BLACK
6
CONTINUOUS
10
25.4696
20
38.8508
11
25.4915
21
38.8918
0
LINE
8
BLACK
6
CONTINUOUS
10
25.4915
20
38.8918
11
25.5211
21
38.9278
0
LINE
8
BLACK
6
CONTINUOUS
10
25.5211
20
38.9278
11
25.557
21
38.9574
0
LINE
8
BLACK
6
CONTINUOUS
10
25.557
20
38.9574
11
25.5981
21
38.9793
0
LINE
8
BLACK
6
CONTINUOUS
10
25.5981
20
38.9793
11
25.6427
21
38.9928
0
LINE
8
BLACK
6
CONTINUOUS
10
25.6427
20
38.9928
11
25.689
21
38.9974
0
LINE
8
BLACK
6
CONTINUOUS
10
25.689
20
38.9974
11
26.264
21
38.9974
0
LINE
8
BLACK
6
CONTINUOUS
10
26.264
20
38.9974
11
26.3103
21
38.9928
0
LINE
8
BLACK
6
CONTINUOUS
10
28.0603
20
38.9928
11
28.1049
21
38.9793
0
LINE
8
BLACK
6
CONTINUOUS
10
28.1049
20
38.9793
11
28.1459
21
38.9574
0
LINE
8
BLACK
6
CONTINUOUS
10
28.1459
20
38.9574
11
28.1819
21
38.9278
0
LINE
8
BLACK
6
CONTINUOUS
10
28.1819
20
38.9278
11
28.2115
21
38.8918
0
LINE
8
BLACK
6
CONTINUOUS
10
28.2115
20
38.8918
11
28.2334
21
38.8508
0
LINE
8
BLACK
6
CONTINUOUS
10
28.2334
20
38.8508
11
28.2469
21
38.8062
0
LINE
8
BLACK
6
CONTINUOUS
10
28.2469
20
38.8062
11
28.2515
21
38.7599
0
LINE
8
BLACK
6
CONTINUOUS
10
28.2515
20
38.7599
11
28.2515
21
38.2849
0
LINE
8
BLACK
6
CONTINUOUS
10
28.2515
20
38.2849
11
28.2469
21
38.2386
0
LINE
8
BLACK
6
CONTINUOUS
10
28.2469
20
38.2386
11
28.2334
21
38.194
0
LINE
8
BLACK
6
CONTINUOUS
10
28.2334
20
38.194
11
28.2115
21
38.153
0
LINE
8
BLACK
6
CONTINUOUS
10
28.2115
20
38.153
11
28.1819
21
38.117
0
LINE
8
BLACK
6
CONTINUOUS
10
28.1819
20
38.117
11
28.1459
21
38.0874
0
LINE
8
BLACK
6
CONTINUOUS
10
28.1459
20
38.0874
11
28.1049
21
38.0655
0
LINE
8
BLACK
6
CONTINUOUS
10
28.1049
20
38.0655
11
28.0603
21
38.052
0
LINE
8
BLACK
6
CONTINUOUS
10
28.0603
20
38.052
11
28.014
21
38.0474
0
LINE
8
BLACK
6
CONTINUOUS
10
28.014
20
38.0474
11
27.439
21
38.0474
0
LINE
8
BLACK
6
CONTINUOUS
10
27.439
20
38.0474
11
27.3927
21
38.052
0
LINE
8
BLACK
6
CONTINUOUS
10
27.3927
20
38.052
11
27.3481
21
38.0655
0
LINE
8
BLACK
6
CONTINUOUS
10
27.3481
20
38.0655
11
27.307
21
38.0874
0
LINE
8
BLACK
6
CONTINUOUS
10
27.307
20
38.0874
11
27.2711
21
38.117
0
LINE
8
BLACK
6
CONTINUOUS
10
27.2711
20
38.117
11
27.2415
21
38.153
0
LINE
8
BLACK
6
CONTINUOUS
10
27.2415
20
38.153
11
27.2196
21
38.194
0
LINE
8
BLACK
6
CONTINUOUS
10
27.2196
20
38.194
11
27.2061
21
38.2386
0
LINE
8
BLACK
6
CONTINUOUS
10
27.2061
20
38.2386
11
27.2015
21
38.2849
0
LINE
8
BLACK
6
CONTINUOUS
10
27.2015
20
38.2849
11
27.2015
21
38.7599
0
LINE
8
BLACK
6
CONTINUOUS
10
27.2015
20
38.7599
11
27.2061
21
38.8062
0
LINE
8
BLACK
6
CONTINUOUS
10
27.2061
20
38.8062
11
27.2196
21
38.8508
0
LINE
8
BLACK
6
CONTINUOUS
10
27.2196
20
38.8508
11
27.2415
21
38.8918
0
LINE
8
BLACK
6
CONTINUOUS
10
27.2415
20
38.8918
11
27.2711
21
38.9278
0
LINE
8
BLACK
6
CONTINUOUS
10
27.2711
20
38.9278
11
27.307
21
38.9574
0
LINE
8
BLACK
6
CONTINUOUS
10
27.307
20
38.9574
11
27.3481
21
38.9793
0
LINE
8
BLACK
6
CONTINUOUS
10
27.3481
20
38.9793
11
27.3927
21
38.9928
0
LINE
8
BLACK
6
CONTINUOUS
10
27.3927
20
38.9928
11
27.439
21
38.9974
0
LINE
8
BLACK
6
CONTINUOUS
10
27.439
20
38.9974
11
28.014
21
38.9974
0
LINE
8
BLACK
6
CONTINUOUS
10
28.014
20
38.9974
11
28.0603
21
38.9928
0
LINE
8
BLACK
6
CONTINUOUS
10
28.0603
20
43.3928
11
28.1049
21
43.3793
0
LINE
8
BLACK
6
CONTINUOUS
10
28.1049
20
43.3793
11
28.1459
21
43.3574
0
LINE
8
BLACK
6
CONTINUOUS
10
28.1459
20
43.3574
11
28.1819
21
43.3278
0
LINE
8
BLACK
6
CONTINUOUS
10
28.1819
20
43.3278
11
28.2115
21
43.2919
0
LINE
8
BLACK
6
CONTINUOUS
10
28.2115
20
43.2919
11
28.2334
21
43.2508
0
LINE
8
BLACK
6
CONTINUOUS
10
28.2334
20
43.2508
11
28.2469
21
43.2062
0
LINE
8
BLACK
6
CONTINUOUS
10
28.2469
20
43.2062
11
28.2515
21
43.1599
0
LINE
8
BLACK
6
CONTINUOUS
10
28.2515
20
43.1599
11
28.2515
21
42.6849
0
LINE
8
BLACK
6
CONTINUOUS
10
28.2515
20
42.6849
11
28.2469
21
42.6386
0
LINE
8
BLACK
6
CONTINUOUS
10
28.2469
20
42.6386
11
28.2334
21
42.594
0
LINE
8
BLACK
6
CONTINUOUS
10
28.2334
20
42.594
11
28.2115
21
42.553
0
LINE
8
BLACK
6
CONTINUOUS
10
28.2115
20
42.553
11
28.1819
21
42.517
0
LINE
8
BLACK
6
CONTINUOUS
10
28.1819
20
42.517
11
28.1459
21
42.4874
0
LINE
8
BLACK
6
CONTINUOUS
10
28.1459
20
42.4874
11
28.1049
21
42.4655
0
LINE
8
BLACK
6
CONTINUOUS
10
28.1049
20
42.4655
11
28.0603
21
42.452
0
LINE
8
BLACK
6
CONTINUOUS
10
28.0603
20
42.452
11
28.014
21
42.4474
0
LINE
8
BLACK
6
CONTINUOUS
10
28.014
20
42.4474
11
27.439
21
42.4474
0
LINE
8
BLACK
6
CONTINUOUS
10
27.439
20
42.4474
11
27.3927
21
42.452
0
LINE
8
BLACK
6
CONTINUOUS
10
27.3927
20
42.452
11
27.3481
21
42.4655
0
LINE
8
BLACK
6
CONTINUOUS
10
27.3481
20
42.4655
11
27.307
21
42.4874
0
LINE
8
BLACK
6
CONTINUOUS
10
27.307
20
42.4874
11
27.2711
21
42.517
0
LINE
8
BLACK
6
CONTINUOUS
10
27.2711
20
42.517
11
27.2415
21
42.553
0
LINE
8
BLACK
6
CONTINUOUS
10
27.2415
20
42.553
11
27.2196
21
42.594
0
LINE
8
BLACK
6
CONTINUOUS
10
27.2196
20
42.594
11
27.2061
21
42.6386
0
LINE
8
BLACK
6
CONTINUOUS
10
27.2061
20
42.6386
11
27.2015
21
42.6849
0
LINE
8
BLACK
6
CONTINUOUS
10
27.2015
20
42.6849
11
27.2015
21
43.1599
0
LINE
8
BLACK
6
CONTINUOUS
10
27.2015
20
43.1599
11
27.2061
21
43.2062
0
LINE
8
BLACK
6
CONTINUOUS
10
27.2061
20
43.2062
11
27.2196
21
43.2508
0
LINE
8
BLACK
6
CONTINUOUS
10
27.2196
20
43.2508
11
27.2415
21
43.2919
0
LINE
8
BLACK
6
CONTINUOUS
10
27.2415
20
43.2919
11
27.2711
21
43.3278
0
LINE
8
BLACK
6
CONTINUOUS
10
27.2711
20
43.3278
11
27.307
21
43.3574
0
LINE
8
BLACK
6
CONTINUOUS
10
27.307
20
43.3574
11
27.3481
21
43.3793
0
LINE
8
BLACK
6
CONTINUOUS
10
27.3481
20
43.3793
11
27.3927
21
43.3928
0
LINE
8
BLACK
6
CONTINUOUS
10
27.3927
20
43.3928
11
27.439
21
43.3974
0
LINE
8
BLACK
6
CONTINUOUS
10
27.439
20
43.3974
11
28.014
21
43.3974
0
LINE
8
BLACK
6
CONTINUOUS
10
28.014
20
43.3974
11
28.0603
21
43.3928
0
LINE
8
BLACK
6
CONTINUOUS
10
26.3103
20
43.3928
11
26.3549
21
43.3793
0
LINE
8
BLACK
6
CONTINUOUS
10
26.3549
20
43.3793
11
26.3959
21
43.3574
0
LINE
8
BLACK
6
CONTINUOUS
10
26.3959
20
43.3574
11
26.4319
21
43.3278
0
LINE
8
BLACK
6
CONTINUOUS
10
26.4319
20
43.3278
11
26.4615
21
43.2919
0
LINE
8
BLACK
6
CONTINUOUS
10
26.4615
20
43.2919
11
26.4834
21
43.2508
0
LINE
8
BLACK
6
CONTINUOUS
10
26.4834
20
43.2508
11
26.4969
21
43.2062
0
LINE
8
BLACK
6
CONTINUOUS
10
26.4969
20
43.2062
11
26.5015
21
43.1599
0
LINE
8
BLACK
6
CONTINUOUS
10
26.5015
20
43.1599
11
26.5015
21
42.6849
0
LINE
8
BLACK
6
CONTINUOUS
10
26.5015
20
42.6849
11
26.4969
21
42.6386
0
LINE
8
BLACK
6
CONTINUOUS
10
26.4969
20
42.6386
11
26.4834
21
42.594
0
LINE
8
BLACK
6
CONTINUOUS
10
26.4834
20
42.594
11
26.4615
21
42.553
0
LINE
8
BLACK
6
CONTINUOUS
10
26.4615
20
42.553
11
26.4319
21
42.517
0
LINE
8
BLACK
6
CONTINUOUS
10
26.4319
20
42.517
11
26.3959
21
42.4874
0
LINE
8
BLACK
6
CONTINUOUS
10
26.3959
20
42.4874
11
26.3549
21
42.4655
0
LINE
8
BLACK
6
CONTINUOUS
10
26.3549
20
42.4655
11
26.3103
21
42.452
0
LINE
8
BLACK
6
CONTINUOUS
10
26.3103
20
42.452
11
26.264
21
42.4474
0
LINE
8
BLACK
6
CONTINUOUS
10
26.264
20
42.4474
11
25.689
21
42.4474
0
LINE
8
BLACK
6
CONTINUOUS
10
25.689
20
42.4474
11
25.6427
21
42.452
0
LINE
8
BLACK
6
CONTINUOUS
10
25.6427
20
42.452
11
25.5981
21
42.4655
0
LINE
8
BLACK
6
CONTINUOUS
10
25.5981
20
42.4655
11
25.557
21
42.4874
0
LINE
8
BLACK
6
CONTINUOUS
10
25.557
20
42.4874
11
25.5211
21
42.517
0
LINE
8
BLACK
6
CONTINUOUS
10
25.5211
20
42.517
11
25.4915
21
42.553
0
LINE
8
BLACK
6
CONTINUOUS
10
25.4915
20
42.553
11
25.4696
21
42.594
0
LINE
8
BLACK
6
CONTINUOUS
10
25.4696
20
42.594
11
25.4561
21
42.6386
0
LINE
8
BLACK
6
CONTINUOUS
10
25.4561
20
42.6386
11
25.4515
21
42.6849
0
LINE
8
BLACK
6
CONTINUOUS
10
25.4515
20
42.6849
11
25.4515
21
43.1599
0
LINE
8
BLACK
6
CONTINUOUS
10
25.4515
20
43.1599
11
25.4561
21
43.2062
0
LINE
8
BLACK
6
CONTINUOUS
10
25.4561
20
43.2062
11
25.4696
21
43.2508
0
LINE
8
BLACK
6
CONTINUOUS
10
25.4696
20
43.2508
11
25.4915
21
43.2919
0
LINE
8
BLACK
6
CONTINUOUS
10
25.4915
20
43.2919
11
25.5211
21
43.3278
0
LINE
8
BLACK
6
CONTINUOUS
10
25.5211
20
43.3278
11
25.557
21
43.3574
0
LINE
8
BLACK
6
CONTINUOUS
10
25.557
20
43.3574
11
25.5981
21
43.3793
0
LINE
8
BLACK
6
CONTINUOUS
10
25.5981
20
43.3793
11
25.6427
21
43.3928
0
LINE
8
BLACK
6
CONTINUOUS
10
25.6427
20
43.3928
11
25.689
21
43.3974
0
LINE
8
BLACK
6
CONTINUOUS
10
25.689
20
43.3974
11
26.264
21
43.3974
0
LINE
8
BLACK
6
CONTINUOUS
10
26.264
20
43.3974
11
26.3103
21
43.3928
0
LINE
8
BLACK
6
CONTINUOUS
10
197.021
20
127.497
11
196.421
21
127.497
0
LINE
8
BLACK
6
CONTINUOUS
10
196.421
20
127.497
11
196.421
21
128.947
0
LINE
8
BLACK
6
CONTINUOUS
10
196.421
20
128.947
11
197.021
21
128.947
0
LINE
8
BLACK
6
CONTINUOUS
10
197.021
20
128.947
11
197.021
21
127.497
0
LINE
8
BLACK
6
CONTINUOUS
10
196.221
20
127.497
11
195.621
21
127.497
0
LINE
8
BLACK
6
CONTINUOUS
10
195.621
20
127.497
11
195.621
21
128.947
0
LINE
8
BLACK
6
CONTINUOUS
10
195.621
20
128.947
11
196.221
21
128.947
0
LINE
8
BLACK
6
CONTINUOUS
10
196.221
20
128.947
11
196.221
21
127.497
0
LINE
8
BLACK
6
CONTINUOUS
10
191.321
20
127.497
11
190.721
21
127.497
0
LINE
8
BLACK
6
CONTINUOUS
10
190.721
20
127.497
11
190.721
21
128.947
0
LINE
8
BLACK
6
CONTINUOUS
10
190.721
20
128.947
11
191.321
21
128.947
0
LINE
8
BLACK
6
CONTINUOUS
10
191.321
20
128.947
11
191.321
21
127.497
0
LINE
8
BLACK
6
CONTINUOUS
10
190.521
20
127.497
11
189.921
21
127.497
0
LINE
8
BLACK
6
CONTINUOUS
10
189.921
20
127.497
11
189.921
21
128.947
0
LINE
8
BLACK
6
CONTINUOUS
10
189.921
20
128.947
11
190.521
21
128.947
0
LINE
8
BLACK
6
CONTINUOUS
10
190.521
20
128.947
11
190.521
21
127.497
0
LINE
8
BLACK
6
CONTINUOUS
10
195.371
20
127.497
11
195.071
21
127.497
0
LINE
8
BLACK
6
CONTINUOUS
10
195.071
20
127.497
11
195.071
21
128.947
0
LINE
8
BLACK
6
CONTINUOUS
10
195.071
20
128.947
11
195.371
21
128.947
0
LINE
8
BLACK
6
CONTINUOUS
10
195.371
20
128.947
11
195.371
21
127.497
0
LINE
8
BLACK
6
CONTINUOUS
10
194.871
20
127.497
11
194.571
21
127.497
0
LINE
8
BLACK
6
CONTINUOUS
10
194.571
20
127.497
11
194.571
21
128.947
0
LINE
8
BLACK
6
CONTINUOUS
10
194.571
20
128.947
11
194.871
21
128.947
0
LINE
8
BLACK
6
CONTINUOUS
10
194.871
20
128.947
11
194.871
21
127.497
0
LINE
8
BLACK
6
CONTINUOUS
10
194.371
20
127.497
11
194.071
21
127.497
0
LINE
8
BLACK
6
CONTINUOUS
10
194.071
20
127.497
11
194.071
21
128.947
0
LINE
8
BLACK
6
CONTINUOUS
10
194.071
20
128.947
11
194.371
21
128.947
0
LINE
8
BLACK
6
CONTINUOUS
10
194.371
20
128.947
11
194.371
21
127.497
0
LINE
8
BLACK
6
CONTINUOUS
10
193.371
20
127.497
11
193.071
21
127.497
0
LINE
8
BLACK
6
CONTINUOUS
10
193.071
20
127.497
11
193.071
21
128.947
0
LINE
8
BLACK
6
CONTINUOUS
10
193.071
20
128.947
11
193.371
21
128.947
0
LINE
8
BLACK
6
CONTINUOUS
10
193.371
20
128.947
11
193.371
21
127.497
0
LINE
8
BLACK
6
CONTINUOUS
10
192.871
20
127.497
11
192.571
21
127.497
0
LINE
8
BLACK
6
CONTINUOUS
10
192.571
20
127.497
11
192.571
21
128.947
0
LINE
8
BLACK
6
CONTINUOUS
10
192.571
20
128.947
11
192.871
21
128.947
0
LINE
8
BLACK
6
CONTINUOUS
10
192.871
20
128.947
11
192.871
21
127.497
0
LINE
8
BLACK
6
CONTINUOUS
10
192.371
20
127.497
11
192.071
21
127.497
0
LINE
8
BLACK
6
CONTINUOUS
10
192.071
20
127.497
11
192.071
21
128.947
0
LINE
8
BLACK
6
CONTINUOUS
10
192.071
20
128.947
11
192.371
21
128.947
0
LINE
8
BLACK
6
CONTINUOUS
10
192.371
20
128.947
11
192.371
21
127.497
0
LINE
8
BLACK
6
CONTINUOUS
10
191.871
20
127.497
11
191.571
21
127.497
0
LINE
8
BLACK
6
CONTINUOUS
10
191.571
20
127.497
11
191.571
21
128.947
0
LINE
8
BLACK
6
CONTINUOUS
10
191.571
20
128.947
11
191.871
21
128.947
0
LINE
8
BLACK
6
CONTINUOUS
10
191.871
20
128.947
11
191.871
21
127.497
0
LINE
8
BLACK
6
CONTINUOUS
10
193.871
20
127.497
11
193.571
21
127.497
0
LINE
8
BLACK
6
CONTINUOUS
10
193.571
20
127.497
11
193.571
21
128.947
0
LINE
8
BLACK
6
CONTINUOUS
10
193.571
20
128.947
11
193.871
21
128.947
0
LINE
8
BLACK
6
CONTINUOUS
10
193.871
20
128.947
11
193.871
21
127.497
  0
ENDSEC
  0
EOF
